<?xml version="1.0" encoding="utf-8" standalone="no"?>
<!DOCTYPE svg PUBLIC "-//W3C//DTD SVG 1.1//EN"
  "http://www.w3.org/Graphics/SVG/1.1/DTD/svg11.dtd">
<!-- Created with matplotlib (http://matplotlib.org/) -->
<svg height="504pt" version="1.1" viewBox="0 0 1296 504" width="1296pt" xmlns="http://www.w3.org/2000/svg" xmlns:xlink="http://www.w3.org/1999/xlink">
 <defs>
  <style type="text/css">
*{stroke-linecap:butt;stroke-linejoin:round;stroke-miterlimit:100000;}
  </style>
 </defs>
 <g id="figure_1">
  <g id="patch_1">
   <path d="M 0 504 
L 1296 504 
L 1296 0 
L 0 0 
z
" style="fill:#ffffff;"/>
  </g>
  <g id="axes_1">
   <g id="patch_2">
    <path d="M 162 453.6 
L 965.52 453.6 
L 965.52 50.4 
L 162 50.4 
z
" style="fill:#ffffff;"/>
   </g>
   <g id="line2d_1">
    <path clip-path="url(#peda425fcb0)" d="M 162 129.26592 
L 163.60704 200.22912 
L 165.21408 256.8384 
L 168.42816 383.60448 
L 170.0352 415.53792 
L 171.64224 400.86144 
L 173.24928 407.95776 
L 174.85632 424.89216 
L 176.46336 445.69728 
L 178.0704 435.21408 
L 179.67744 426.02112 
L 181.28448 432.95616 
L 182.89152 406.0224 
L 184.49856 406.50624 
L 186.1056 398.44224 
L 187.71264 411.6672 
L 189.31968 415.37664 
L 190.92672 415.37664 
L 192.53376 413.11872 
L 194.1408 403.76448 
L 195.74784 408.11904 
L 197.35488 408.92544 
L 198.96192 410.37696 
L 200.56896 405.05472 
L 202.176 410.8608 
L 203.78304 410.21568 
L 205.39008 393.76512 
L 206.99712 394.41024 
L 208.60416 394.7328 
L 210.2112 394.89408 
L 211.81824 383.4432 
L 213.42528 382.47552 
L 215.03232 378.44352 
L 216.63936 382.6368 
L 219.85344 378.44352 
L 221.46048 378.44352 
L 223.06752 381.024 
L 224.67456 380.2176 
L 226.2816 382.31424 
L 227.88864 377.31456 
L 229.49568 378.12096 
L 231.10272 374.41152 
L 232.70976 368.928 
L 234.3168 366.34752 
L 235.92384 365.54112 
L 237.53088 368.76672 
L 239.13792 372.31488 
L 240.74496 371.18592 
L 242.352 372.63744 
L 243.95904 373.28256 
L 245.56608 372.47616 
L 247.17312 369.41184 
L 248.78016 367.79904 
L 250.3872 371.66976 
L 251.99424 370.70208 
L 253.60128 369.41184 
L 255.20832 372.1536 
L 256.81536 371.02464 
L 258.4224 366.5088 
L 260.02944 366.67008 
L 261.63648 365.37984 
L 263.24352 364.25088 
L 264.85056 357.6384 
L 266.4576 357.47712 
L 268.06464 355.38048 
L 269.67168 356.0256 
L 271.27872 352.15488 
L 272.88576 349.73568 
L 274.4928 350.05824 
L 276.09984 348.44544 
L 277.70688 352.47744 
L 279.31392 353.92896 
L 280.92096 355.2192 
L 282.528 355.2192 
L 285.74208 354.25152 
L 287.34912 353.6064 
L 288.95616 353.28384 
L 290.5632 350.05824 
L 292.17024 347.63904 
L 293.77728 344.57472 
L 295.38432 343.76832 
L 296.99136 341.5104 
L 298.5984 338.44608 
L 300.20544 328.76928 
L 301.81248 327.15648 
L 303.41952 331.0272 
L 305.02656 336.83328 
L 306.6336 338.12352 
L 308.24064 338.2848 
L 309.84768 334.57536 
L 311.45472 333.28512 
L 313.06176 331.18848 
L 316.27584 331.51104 
L 317.88288 325.3824 
L 319.48992 322.1568 
L 321.09696 324.25344 
L 322.704 320.38272 
L 324.31104 321.51168 
L 325.91808 320.86656 
L 327.52512 316.83456 
L 329.13216 314.57664 
L 330.7392 314.73792 
L 332.34624 314.25408 
L 333.95328 313.93152 
L 335.56032 312.31872 
L 337.16736 311.02848 
L 338.7744 307.96416 
L 340.38144 310.70592 
L 341.98848 312.15744 
L 343.59552 312.31872 
L 345.20256 313.44768 
L 346.8096 314.25408 
L 348.41664 312.48 
L 350.02368 314.73792 
L 351.63072 313.77024 
L 353.23776 312.96384 
L 354.8448 311.83488 
L 356.45184 312.15744 
L 358.05888 307.31904 
L 359.66592 307.48032 
L 361.27296 307.15776 
L 362.88 303.28704 
L 364.48704 300.54528 
L 366.09408 302.96448 
L 369.30816 303.6096 
L 370.9152 302.96448 
L 372.52224 303.28704 
L 374.12928 305.38368 
L 375.73632 306.51264 
L 377.34336 306.99648 
L 378.9504 306.51264 
L 380.55744 307.15776 
L 382.16448 307.6416 
L 383.77152 308.448 
L 385.37856 303.6096 
L 386.9856 300.06144 
L 388.59264 300.54528 
L 390.19968 305.54496 
L 391.80672 308.77056 
L 393.41376 308.93184 
L 395.0208 308.93184 
L 396.62784 309.09312 
L 398.23488 309.09312 
L 399.84192 306.8352 
L 401.44896 307.6416 
L 403.056 308.28672 
L 404.66304 308.12544 
L 406.27008 306.8352 
L 407.87712 304.416 
L 409.48416 303.93216 
L 411.0912 303.77088 
L 412.69824 301.02912 
L 414.30528 301.9968 
L 415.91232 298.93248 
L 417.51936 299.73888 
L 420.73344 306.51264 
L 422.34048 307.96416 
L 423.94752 309.2544 
L 425.55456 309.41568 
L 427.1616 309.09312 
L 428.76864 310.38336 
L 430.37568 309.09312 
L 431.98272 311.51232 
L 433.58976 311.35104 
L 435.1968 313.60896 
L 436.80384 315.06048 
L 438.41088 315.38304 
L 441.62496 320.544 
L 443.232 318.76992 
L 446.44608 318.44736 
L 448.05312 318.44736 
L 449.66016 317.15712 
L 451.2672 317.47968 
L 452.87424 316.83456 
L 454.48128 314.57664 
L 456.08832 313.60896 
L 457.69536 316.512 
L 459.3024 320.544 
L 460.90944 321.51168 
L 462.51648 322.1568 
L 464.12352 323.93088 
L 465.73056 322.64064 
L 467.3376 319.41504 
L 468.94464 319.89888 
L 470.55168 319.89888 
L 472.15872 320.70528 
L 473.76576 322.47936 
L 475.3728 323.28576 
L 476.97984 323.7696 
L 478.58688 324.576 
L 480.19392 324.576 
L 481.80096 326.67264 
L 483.408 327.8016 
L 485.01504 332.47872 
L 486.62208 333.28512 
L 488.22912 331.99488 
L 489.83616 333.93024 
L 491.4432 335.38176 
L 493.05024 335.70432 
L 494.65728 337.63968 
L 496.26432 336.672 
L 497.87136 336.02688 
L 499.4784 332.80128 
L 501.08544 330.2208 
L 502.69248 331.67232 
L 504.29952 338.12352 
L 505.90656 338.76864 
L 507.5136 341.18784 
L 509.12064 340.22016 
L 510.72768 342.3168 
L 512.33472 340.05888 
L 513.94176 339.8976 
L 515.5488 339.41376 
L 517.15584 338.60736 
L 518.76288 338.76864 
L 520.36992 336.99456 
L 521.97696 334.2528 
L 523.584 333.93024 
L 525.19104 331.34976 
L 526.79808 330.05952 
L 528.40512 330.38208 
L 530.01216 332.15616 
L 531.6192 330.86592 
L 533.22624 330.05952 
L 534.83328 326.83392 
L 536.44032 331.0272 
L 538.04736 330.70464 
L 539.6544 331.51104 
L 541.26144 335.54304 
L 542.86848 336.51072 
L 544.47552 335.8656 
L 546.08256 333.93024 
L 547.6896 333.28512 
L 549.29664 333.12384 
L 550.90368 331.18848 
L 552.51072 333.60768 
L 554.11776 333.28512 
L 555.7248 332.47872 
L 558.93888 332.15616 
L 560.54592 332.64 
L 562.15296 333.60768 
L 563.76 331.51104 
L 565.36704 332.15616 
L 566.97408 330.38208 
L 568.58112 334.89792 
L 570.18816 335.0592 
L 571.7952 334.41408 
L 573.40224 332.96256 
L 575.00928 330.05952 
L 576.61632 326.51136 
L 578.22336 326.1888 
L 579.8304 323.44704 
L 581.43744 322.47936 
L 583.04448 324.73728 
L 584.65152 324.41472 
L 586.25856 324.89856 
L 587.8656 322.80192 
L 589.47264 323.60832 
L 591.07968 322.31808 
L 592.68672 321.99552 
L 594.29376 321.02784 
L 595.9008 321.3504 
L 597.50784 322.31808 
L 599.11488 323.44704 
L 600.72192 324.89856 
L 602.32896 324.09216 
L 603.936 323.60832 
L 605.54304 324.09216 
L 607.15008 323.28576 
L 608.75712 322.9632 
L 610.36416 321.3504 
L 611.9712 317.96352 
L 613.57824 316.35072 
L 615.18528 318.28608 
L 616.79232 318.60864 
L 618.39936 317.47968 
L 620.0064 318.76992 
L 621.61344 317.96352 
L 623.22048 320.70528 
L 624.82752 319.7376 
L 626.43456 322.1568 
L 628.0416 322.9632 
L 629.64864 324.41472 
L 631.25568 325.3824 
L 632.86272 325.22112 
L 634.46976 322.64064 
L 636.0768 323.60832 
L 637.68384 324.25344 
L 639.29088 324.25344 
L 640.89792 324.09216 
L 642.50496 323.60832 
L 644.112 325.05984 
L 645.71904 325.3824 
L 647.32608 324.89856 
L 648.93312 320.38272 
L 650.54016 321.18912 
L 652.1472 322.1568 
L 653.75424 321.51168 
L 655.36128 321.18912 
L 656.96832 320.38272 
L 658.57536 318.28608 
L 660.1824 316.512 
L 661.78944 316.02816 
L 663.39648 315.86688 
L 665.00352 315.38304 
L 666.61056 314.57664 
L 668.2176 313.60896 
L 669.82464 311.35104 
L 671.43168 309.57696 
L 673.03872 309.57696 
L 674.64576 310.8672 
L 676.2528 313.2864 
L 677.85984 314.0928 
L 681.07392 309.89952 
L 682.68096 311.99616 
L 684.288 312.96384 
L 685.89504 316.18944 
L 687.50208 318.28608 
L 689.10912 317.3184 
L 690.71616 316.99584 
L 692.3232 317.96352 
L 693.93024 319.41504 
L 695.53728 317.96352 
L 697.14432 319.09248 
L 698.75136 319.25376 
L 700.3584 318.1248 
L 701.96544 315.54432 
L 703.57248 315.38304 
L 705.17952 314.8992 
L 706.78656 316.02816 
L 708.3936 316.02816 
L 710.00064 316.18944 
L 711.60768 316.99584 
L 713.21472 316.67328 
L 716.4288 319.57632 
L 718.03584 315.22176 
L 719.64288 313.2864 
L 721.24992 312.15744 
L 722.85696 312.64128 
L 724.464 312.31872 
L 726.07104 312.31872 
L 727.67808 311.83488 
L 729.28512 311.99616 
L 730.89216 311.02848 
L 732.4992 311.83488 
L 734.10624 311.18976 
L 735.71328 311.83488 
L 737.32032 310.0608 
L 738.92736 313.2864 
L 740.5344 316.99584 
L 742.14144 317.3184 
L 743.74848 318.1248 
L 745.35552 318.44736 
L 746.96256 318.1248 
L 748.5696 319.25376 
L 750.17664 320.544 
L 751.78368 318.44736 
L 753.39072 318.76992 
L 754.99776 319.89888 
L 756.6048 317.64096 
L 758.21184 317.47968 
L 761.42592 320.38272 
L 763.03296 321.02784 
L 764.64 321.51168 
L 766.24704 322.1568 
L 767.85408 324.25344 
L 769.46112 324.73728 
L 771.06816 325.3824 
L 772.6752 324.41472 
L 774.28224 325.86624 
L 775.88928 326.67264 
L 777.49632 326.1888 
L 779.10336 323.44704 
L 780.7104 324.09216 
L 782.31744 324.576 
L 783.92448 326.02752 
L 785.53152 324.41472 
L 787.13856 326.67264 
L 788.7456 327.15648 
L 790.35264 327.31776 
L 791.95968 325.05984 
L 793.56672 327.15648 
L 795.17376 326.9952 
L 796.7808 327.47904 
L 798.38784 328.28544 
L 799.99488 328.12416 
L 801.60192 329.4144 
L 803.20896 329.57568 
L 804.816 326.9952 
L 806.42304 326.02752 
L 808.03008 325.54368 
L 809.63712 325.22112 
L 812.8512 325.54368 
L 814.45824 327.47904 
L 816.06528 328.44672 
L 817.67232 332.31744 
L 819.27936 332.80128 
L 820.8864 331.67232 
L 822.49344 333.76896 
L 824.10048 333.60768 
L 825.70752 334.57536 
L 828.9216 339.25248 
L 830.52864 339.8976 
L 832.13568 340.38144 
L 833.74272 338.44608 
L 835.34976 339.0912 
L 836.9568 340.05888 
L 838.56384 339.0912 
L 840.17088 337.4784 
L 843.38496 329.4144 
L 844.992 329.09184 
L 846.59904 328.44672 
L 848.20608 327.96288 
L 849.81312 327.8016 
L 851.42016 330.38208 
L 853.0272 331.18848 
L 854.63424 332.47872 
L 856.24128 331.99488 
L 857.84832 332.64 
L 859.45536 334.09152 
L 861.0624 335.8656 
L 864.27648 334.57536 
L 865.88352 332.64 
L 867.49056 333.4464 
L 869.0976 332.31744 
L 870.70464 331.99488 
L 872.31168 330.38208 
L 873.91872 331.18848 
L 875.52576 329.4144 
L 877.1328 329.09184 
L 878.73984 330.70464 
L 880.34688 331.34976 
L 881.95392 328.28544 
L 883.56096 327.31776 
L 885.168 329.09184 
L 886.77504 327.47904 
L 888.38208 326.02752 
L 889.98912 325.70496 
L 891.59616 324.09216 
L 893.2032 322.64064 
L 894.81024 323.12448 
L 896.41728 322.47936 
L 898.02432 321.18912 
L 899.63136 320.86656 
L 901.2384 321.02784 
L 902.84544 315.86688 
L 904.45248 314.73792 
L 906.05952 313.93152 
L 907.66656 313.93152 
L 909.2736 312.15744 
L 910.88064 313.93152 
L 912.48768 314.0928 
L 915.70176 315.06048 
L 917.3088 315.7056 
L 918.91584 316.512 
L 920.52288 316.02816 
L 922.12992 317.3184 
L 923.73696 318.1248 
L 925.344 320.70528 
L 926.95104 321.18912 
L 928.55808 324.73728 
L 931.77216 329.09184 
L 933.3792 328.44672 
L 934.98624 329.57568 
L 936.59328 334.2528 
L 938.20032 331.8336 
L 939.80736 330.86592 
L 941.4144 331.51104 
L 943.02144 331.8336 
L 946.23552 332.15616 
L 947.84256 333.12384 
L 949.4496 332.31744 
L 951.05664 333.76896 
L 952.66368 333.28512 
L 954.27072 333.4464 
L 955.87776 332.80128 
L 957.4848 332.80128 
L 959.09184 333.12384 
L 960.69888 331.51104 
L 962.30592 328.608 
L 963.91296 326.35008 
L 963.91296 326.35008 
" style="fill:none;stroke:#0000ff;stroke-linecap:square;"/>
   </g>
   <g id="line2d_2">
    <path clip-path="url(#peda425fcb0)" d="M 162 176.03712 
L 163.60704 220.06656 
L 165.21408 226.03392 
L 166.82112 237.64608 
L 168.42816 235.22688 
L 170.0352 224.74368 
L 171.64224 241.03296 
L 173.24928 260.70912 
L 174.85632 266.99904 
L 176.46336 269.57952 
L 178.0704 261.6768 
L 179.67744 256.8384 
L 181.28448 262.96704 
L 182.89152 258.28992 
L 184.49856 259.09632 
L 186.1056 257.6448 
L 187.71264 266.99904 
L 189.31968 272.48256 
L 190.92672 275.86944 
L 192.53376 280.38528 
L 194.1408 281.35296 
L 195.74784 277.32096 
L 197.35488 275.3856 
L 198.96192 262.4832 
L 200.56896 270.22464 
L 202.176 266.5152 
L 203.78304 260.22528 
L 205.39008 266.5152 
L 206.99712 264.57984 
L 208.60416 259.58016 
L 210.2112 260.54784 
L 211.81824 265.38624 
L 213.42528 263.45088 
L 215.03232 269.09568 
L 216.63936 270.5472 
L 218.2464 268.77312 
L 219.85344 264.57984 
L 221.46048 268.61184 
L 223.06752 273.7728 
L 224.67456 278.44992 
L 226.2816 274.90176 
L 227.88864 278.93376 
L 229.49568 274.5792 
L 231.10272 273.45024 
L 232.70976 270.22464 
L 234.3168 271.03104 
L 235.92384 272.64384 
L 237.53088 270.86976 
L 239.13792 268.45056 
L 240.74496 268.45056 
L 242.352 267.48288 
L 243.95904 269.09568 
L 245.56608 267.80544 
L 247.17312 270.06336 
L 248.78016 266.03136 
L 250.3872 270.22464 
L 251.99424 268.9344 
L 253.60128 267.80544 
L 255.20832 266.35392 
L 256.81536 262.32192 
L 258.4224 265.06368 
L 260.02944 262.32192 
L 261.63648 260.8704 
L 263.24352 257.16096 
L 264.85056 258.12864 
L 266.4576 256.8384 
L 268.06464 255.70944 
L 269.67168 257.6448 
L 271.27872 261.03168 
L 272.88576 263.77344 
L 274.4928 264.096 
L 276.09984 263.12832 
L 277.70688 266.99904 
L 279.31392 266.19264 
L 280.92096 267.3216 
L 282.528 269.90208 
L 284.13504 267.48288 
L 285.74208 267.96672 
L 287.34912 271.51488 
L 288.95616 267.96672 
L 290.5632 269.90208 
L 292.17024 267.16032 
L 293.77728 266.83776 
L 295.38432 267.64416 
L 296.99136 268.77312 
L 298.5984 270.06336 
L 300.20544 269.90208 
L 301.81248 270.5472 
L 303.41952 272.16 
L 305.02656 273.45024 
L 306.6336 271.99872 
L 308.24064 271.51488 
L 309.84768 272.16 
L 311.45472 273.28896 
L 313.06176 273.7728 
L 314.6688 267.64416 
L 316.27584 268.45056 
L 317.88288 265.22496 
L 319.48992 265.06368 
L 321.09696 265.06368 
L 322.704 265.7088 
L 324.31104 265.87008 
L 325.91808 265.87008 
L 327.52512 266.19264 
L 329.13216 270.38592 
L 330.7392 271.19232 
L 332.34624 270.38592 
L 333.95328 271.3536 
L 335.56032 270.38592 
L 337.16736 271.99872 
L 338.7744 271.67616 
L 340.38144 269.41824 
L 341.98848 271.83744 
L 343.59552 273.45024 
L 345.20256 271.19232 
L 346.8096 271.51488 
L 350.02368 276.192 
L 351.63072 271.3536 
L 353.23776 272.16 
L 354.8448 275.06304 
L 356.45184 276.83712 
L 358.05888 275.22432 
L 359.66592 277.48224 
L 361.27296 275.3856 
L 362.88 275.86944 
L 364.48704 277.15968 
L 366.09408 277.64352 
L 367.70112 275.54688 
L 369.30816 278.12736 
L 370.9152 276.03072 
L 372.52224 275.86944 
L 374.12928 276.03072 
L 375.73632 273.45024 
L 377.34336 274.09536 
L 378.9504 273.7728 
L 380.55744 275.86944 
L 382.16448 276.83712 
L 383.77152 275.70816 
L 385.37856 274.41792 
L 386.9856 273.7728 
L 388.59264 272.9664 
L 390.19968 272.80512 
L 391.80672 274.74048 
L 393.41376 273.7728 
L 395.0208 272.48256 
L 396.62784 269.90208 
L 398.23488 270.06336 
L 399.84192 270.5472 
L 401.44896 272.16 
L 403.056 273.28896 
L 404.66304 270.06336 
L 406.27008 269.57952 
L 407.87712 271.19232 
L 409.48416 271.19232 
L 411.0912 270.86976 
L 412.69824 270.38592 
L 414.30528 268.77312 
L 415.91232 270.5472 
L 417.51936 270.38592 
L 419.1264 271.83744 
L 420.73344 271.83744 
L 422.34048 272.64384 
L 423.94752 271.67616 
L 425.55456 272.9664 
L 427.1616 270.86976 
L 428.76864 271.3536 
L 430.37568 270.86976 
L 433.58976 272.48256 
L 435.1968 269.57952 
L 436.80384 268.28928 
L 438.41088 267.48288 
L 440.01792 268.61184 
L 441.62496 267.80544 
L 444.83904 265.54752 
L 446.44608 264.57984 
L 448.05312 261.83808 
L 449.66016 266.5152 
L 451.2672 265.54752 
L 452.87424 265.06368 
L 454.48128 261.99936 
L 456.08832 261.83808 
L 457.69536 260.38656 
L 459.3024 258.12864 
L 460.90944 260.70912 
L 462.51648 260.54784 
L 464.12352 261.19296 
L 465.73056 262.80576 
L 467.3376 262.96704 
L 468.94464 263.2896 
L 470.55168 262.96704 
L 472.15872 263.61216 
L 473.76576 262.4832 
L 475.3728 262.16064 
L 476.97984 261.51552 
L 478.58688 260.70912 
L 480.19392 259.41888 
L 481.80096 260.54784 
L 483.408 259.90272 
L 485.01504 259.41888 
L 486.62208 261.51552 
L 489.83616 260.54784 
L 491.4432 258.93504 
L 493.05024 260.38656 
L 494.65728 260.54784 
L 496.26432 261.35424 
L 497.87136 259.74144 
L 499.4784 260.70912 
L 501.08544 261.03168 
L 502.69248 258.77376 
L 504.29952 260.70912 
L 505.90656 261.19296 
L 507.5136 260.70912 
L 509.12064 259.58016 
L 510.72768 259.90272 
L 512.33472 259.41888 
L 513.94176 258.77376 
L 515.5488 258.28992 
L 517.15584 256.67712 
L 518.76288 257.32224 
L 520.36992 257.6448 
L 521.97696 257.48352 
L 523.584 258.77376 
L 525.19104 258.12864 
L 526.79808 259.58016 
L 528.40512 259.74144 
L 530.01216 260.064 
L 531.6192 260.8704 
L 533.22624 261.99936 
L 534.83328 260.38656 
L 536.44032 260.70912 
L 538.04736 261.83808 
L 539.6544 262.80576 
L 541.26144 261.03168 
L 542.86848 261.51552 
L 544.47552 259.74144 
L 546.08256 260.38656 
L 547.6896 258.12864 
L 549.29664 259.09632 
L 550.90368 258.4512 
L 552.51072 259.90272 
L 554.11776 261.19296 
L 555.7248 257.16096 
L 557.33184 258.77376 
L 558.93888 257.80608 
L 560.54592 258.93504 
L 562.15296 257.80608 
L 563.76 259.58016 
L 566.97408 261.83808 
L 568.58112 260.22528 
L 570.18816 260.38656 
L 571.7952 260.064 
L 573.40224 261.19296 
L 575.00928 260.70912 
L 576.61632 261.03168 
L 578.22336 262.80576 
L 579.8304 262.80576 
L 581.43744 264.9024 
L 583.04448 266.5152 
L 584.65152 264.74112 
L 586.25856 264.9024 
L 587.8656 265.54752 
L 589.47264 265.06368 
L 591.07968 265.7088 
L 592.68672 265.87008 
L 594.29376 267.96672 
L 595.9008 268.128 
L 597.50784 266.99904 
L 599.11488 268.128 
L 600.72192 267.80544 
L 602.32896 268.128 
L 603.936 267.16032 
L 605.54304 267.16032 
L 607.15008 266.5152 
L 608.75712 267.16032 
L 610.36416 268.9344 
L 611.9712 268.28928 
L 613.57824 267.96672 
L 615.18528 267.48288 
L 616.79232 269.57952 
L 618.39936 270.5472 
L 620.0064 271.03104 
L 621.61344 269.09568 
L 623.22048 270.86976 
L 624.82752 270.38592 
L 626.43456 271.03104 
L 628.0416 270.5472 
L 629.64864 270.5472 
L 631.25568 271.19232 
L 632.86272 270.86976 
L 634.46976 270.22464 
L 636.0768 271.19232 
L 637.68384 270.5472 
L 639.29088 272.16 
L 640.89792 272.64384 
L 642.50496 274.41792 
L 644.112 272.48256 
L 645.71904 271.67616 
L 647.32608 272.48256 
L 648.93312 269.7408 
L 650.54016 271.83744 
L 652.1472 271.51488 
L 653.75424 273.45024 
L 655.36128 272.80512 
L 656.96832 273.45024 
L 658.57536 272.16 
L 660.1824 271.3536 
L 661.78944 270.86976 
L 663.39648 272.32128 
L 665.00352 272.64384 
L 666.61056 270.70848 
L 668.2176 270.86976 
L 669.82464 270.38592 
L 671.43168 268.61184 
L 674.64576 268.9344 
L 676.2528 267.3216 
L 677.85984 267.80544 
L 679.46688 267.80544 
L 681.07392 268.61184 
L 682.68096 267.96672 
L 684.288 267.80544 
L 685.89504 269.41824 
L 687.50208 269.7408 
L 689.10912 270.38592 
L 690.71616 268.9344 
L 692.3232 266.99904 
L 693.93024 265.38624 
L 695.53728 264.41856 
L 697.14432 262.16064 
L 698.75136 262.4832 
L 700.3584 262.64448 
L 701.96544 262.32192 
L 703.57248 266.5152 
L 705.17952 266.35392 
L 708.3936 264.41856 
L 711.60768 264.41856 
L 713.21472 263.2896 
L 714.82176 265.7088 
L 716.4288 265.06368 
L 718.03584 266.99904 
L 719.64288 264.74112 
L 721.24992 261.83808 
L 722.85696 263.61216 
L 724.464 261.99936 
L 726.07104 265.87008 
L 727.67808 268.61184 
L 729.28512 267.64416 
L 730.89216 266.83776 
L 732.4992 266.5152 
L 734.10624 266.99904 
L 735.71328 267.16032 
L 737.32032 269.57952 
L 738.92736 268.9344 
L 740.5344 268.61184 
L 742.14144 268.9344 
L 743.74848 266.03136 
L 745.35552 267.96672 
L 746.96256 268.77312 
L 748.5696 266.5152 
L 750.17664 270.06336 
L 751.78368 271.83744 
L 753.39072 270.86976 
L 754.99776 272.16 
L 756.6048 272.80512 
L 758.21184 273.28896 
L 759.81888 272.32128 
L 761.42592 273.28896 
L 763.03296 273.7728 
L 764.64 271.83744 
L 766.24704 272.16 
L 767.85408 273.7728 
L 769.46112 274.74048 
L 771.06816 276.03072 
L 772.6752 277.48224 
L 774.28224 277.64352 
L 775.88928 276.83712 
L 777.49632 276.35328 
L 779.10336 276.03072 
L 780.7104 276.9984 
L 782.31744 277.8048 
L 783.92448 279.25632 
L 785.53152 281.35296 
L 787.13856 281.35296 
L 788.7456 282.32064 
L 790.35264 282.32064 
L 791.95968 282.80448 
L 793.56672 282.15936 
L 795.17376 283.28832 
L 796.7808 282.32064 
L 798.38784 280.86912 
L 799.99488 279.57888 
L 801.60192 279.4176 
L 803.20896 280.06272 
L 804.816 279.4176 
L 806.42304 278.44992 
L 808.03008 278.77248 
L 809.63712 277.48224 
L 811.24416 277.15968 
L 812.8512 276.35328 
L 814.45824 274.90176 
L 816.06528 274.25664 
L 817.67232 273.93408 
L 819.27936 276.03072 
L 820.8864 276.83712 
L 822.49344 276.67584 
L 824.10048 278.93376 
L 825.70752 278.6112 
L 827.31456 278.44992 
L 828.9216 277.15968 
L 830.52864 278.12736 
L 833.74272 279.09504 
L 835.34976 278.28864 
L 836.9568 280.70784 
L 838.56384 281.0304 
L 840.17088 281.19168 
L 841.77792 282.6432 
L 843.38496 282.32064 
L 844.992 280.54656 
L 846.59904 279.25632 
L 848.20608 280.54656 
L 849.81312 278.93376 
L 851.42016 278.44992 
L 853.0272 277.8048 
L 854.63424 278.28864 
L 856.24128 277.32096 
L 857.84832 277.8048 
L 859.45536 279.57888 
L 861.0624 282.96576 
L 862.66944 283.4496 
L 864.27648 283.77216 
L 865.88352 282.32064 
L 867.49056 286.35264 
L 869.0976 283.61088 
L 870.70464 283.77216 
L 872.31168 284.09472 
L 873.91872 285.8688 
L 875.52576 286.83648 
L 877.1328 286.03008 
L 878.73984 288.77184 
L 880.34688 287.96544 
L 881.95392 288.288 
L 883.56096 287.4816 
L 885.168 288.93312 
L 888.38208 286.03008 
L 889.98912 285.8688 
L 891.59616 286.83648 
L 893.2032 285.38496 
L 894.81024 285.70752 
L 896.41728 286.51392 
L 898.02432 287.15904 
L 899.63136 286.03008 
L 901.2384 287.96544 
L 902.84544 288.12672 
L 904.45248 288.77184 
L 906.05952 289.0944 
L 907.66656 290.38464 
L 909.2736 292.48128 
L 910.88064 292.15872 
L 912.48768 291.99744 
L 914.09472 289.57824 
L 915.70176 288.12672 
L 917.3088 289.57824 
L 918.91584 290.7072 
L 922.12992 291.35232 
L 925.344 291.35232 
L 926.95104 290.86848 
L 928.55808 289.9008 
L 930.16512 289.0944 
L 931.77216 288.44928 
L 933.3792 288.77184 
L 934.98624 288.77184 
L 936.59328 291.02976 
L 938.20032 291.83616 
L 939.80736 290.86848 
L 943.02144 292.48128 
L 944.62848 294.57792 
L 946.23552 295.38432 
L 947.84256 295.38432 
L 949.4496 296.51328 
L 951.05664 296.02944 
L 952.66368 296.19072 
L 954.27072 295.86816 
L 955.87776 297.31968 
L 957.4848 297.48096 
L 959.09184 297.31968 
L 960.69888 297.48096 
L 962.30592 296.83584 
L 963.91296 294.57792 
L 963.91296 294.57792 
" style="fill:none;stroke:#008000;stroke-linecap:square;"/>
   </g>
   <g id="line2d_3">
    <path clip-path="url(#peda425fcb0)" d="M 162 238.93632 
L 163.60704 246.19392 
L 165.21408 252.96768 
L 166.82112 235.872 
L 168.42816 223.29216 
L 170.0352 215.712 
L 171.64224 202.64832 
L 173.24928 207.97056 
L 174.85632 198.29376 
L 176.46336 201.1968 
L 178.0704 204.74496 
L 179.67744 197.80992 
L 181.28448 200.3904 
L 182.89152 206.0352 
L 184.49856 207.00288 
L 186.1056 206.8416 
L 187.71264 214.26048 
L 189.31968 216.84096 
L 190.92672 221.03424 
L 192.53376 228.77568 
L 194.1408 235.22688 
L 195.74784 240.22656 
L 197.35488 244.7424 
L 198.96192 233.29152 
L 200.56896 237.16224 
L 202.176 232.16256 
L 203.78304 229.90464 
L 205.39008 238.12992 
L 206.99712 234.90432 
L 208.60416 237.96864 
L 210.2112 238.61376 
L 211.81824 239.42016 
L 213.42528 234.2592 
L 215.03232 241.5168 
L 216.63936 241.03296 
L 219.85344 254.4192 
L 223.06752 260.064 
L 224.67456 255.87072 
L 226.2816 252.16128 
L 227.88864 255.06432 
L 229.49568 255.70944 
L 231.10272 251.35488 
L 232.70976 259.2576 
L 234.3168 255.54816 
L 235.92384 253.77408 
L 237.53088 248.12928 
L 239.13792 246.3552 
L 240.74496 249.41952 
L 242.352 254.09664 
L 243.95904 247.32288 
L 245.56608 250.06464 
L 247.17312 253.29024 
L 248.78016 253.93536 
L 251.99424 258.12864 
L 253.60128 261.35424 
L 255.20832 263.2896 
L 256.81536 260.22528 
L 258.4224 261.51552 
L 260.02944 262.32192 
L 261.63648 260.70912 
L 263.24352 260.70912 
L 264.85056 264.41856 
L 266.4576 262.64448 
L 268.06464 259.41888 
L 269.67168 261.35424 
L 272.88576 263.61216 
L 274.4928 261.99936 
L 276.09984 261.51552 
L 277.70688 264.096 
L 279.31392 265.22496 
L 280.92096 268.45056 
L 282.528 266.67648 
L 284.13504 266.19264 
L 287.34912 261.99936 
L 288.95616 259.09632 
L 290.5632 258.28992 
L 292.17024 260.22528 
L 293.77728 261.6768 
L 295.38432 264.096 
L 296.99136 264.25728 
L 298.5984 263.61216 
L 300.20544 264.41856 
L 303.41952 259.09632 
L 305.02656 254.09664 
L 306.6336 253.45152 
L 308.24064 255.38688 
L 309.84768 253.6128 
L 311.45472 253.77408 
L 313.06176 252.48384 
L 314.6688 255.06432 
L 316.27584 253.29024 
L 317.88288 256.67712 
L 319.48992 253.93536 
L 321.09696 255.70944 
L 322.704 258.61248 
L 325.91808 260.22528 
L 327.52512 259.41888 
L 329.13216 260.70912 
L 330.7392 259.58016 
L 332.34624 256.8384 
L 333.95328 252.16128 
L 335.56032 250.54848 
L 337.16736 250.54848 
L 338.7744 248.12928 
L 340.38144 246.03264 
L 341.98848 248.29056 
L 343.59552 252.16128 
L 345.20256 250.87104 
L 346.8096 250.3872 
L 348.41664 251.51616 
L 350.02368 251.67744 
L 351.63072 253.6128 
L 353.23776 253.6128 
L 354.8448 254.4192 
L 356.45184 254.25792 
L 358.05888 257.32224 
L 359.66592 258.4512 
L 361.27296 257.48352 
L 362.88 258.4512 
L 364.48704 257.96736 
L 366.09408 258.4512 
L 367.70112 259.58016 
L 369.30816 259.41888 
L 370.9152 258.61248 
L 372.52224 257.32224 
L 374.12928 259.58016 
L 377.34336 257.6448 
L 378.9504 259.2576 
L 380.55744 261.35424 
L 382.16448 261.6768 
L 383.77152 260.064 
L 385.37856 261.35424 
L 386.9856 261.19296 
L 388.59264 261.6768 
L 390.19968 263.12832 
L 391.80672 264.41856 
L 393.41376 264.41856 
L 395.0208 266.03136 
L 396.62784 265.87008 
L 398.23488 265.87008 
L 399.84192 266.03136 
L 401.44896 263.12832 
L 403.056 266.67648 
L 404.66304 268.128 
L 406.27008 266.67648 
L 407.87712 266.35392 
L 409.48416 268.128 
L 411.0912 269.09568 
L 412.69824 269.7408 
L 414.30528 268.9344 
L 415.91232 269.90208 
L 417.51936 269.25696 
L 419.1264 271.03104 
L 420.73344 269.41824 
L 422.34048 269.7408 
L 423.94752 270.5472 
L 427.1616 266.99904 
L 428.76864 264.25728 
L 430.37568 263.77344 
L 431.98272 261.35424 
L 433.58976 259.2576 
L 435.1968 257.48352 
L 436.80384 261.99936 
L 438.41088 261.83808 
L 440.01792 261.35424 
L 441.62496 263.12832 
L 443.232 265.38624 
L 444.83904 261.51552 
L 446.44608 262.4832 
L 448.05312 263.93472 
L 449.66016 265.54752 
L 451.2672 265.54752 
L 452.87424 264.9024 
L 454.48128 264.74112 
L 456.08832 263.45088 
L 457.69536 263.12832 
L 459.3024 260.22528 
L 460.90944 263.12832 
L 462.51648 263.45088 
L 464.12352 262.32192 
L 465.73056 260.54784 
L 467.3376 261.99936 
L 468.94464 262.96704 
L 470.55168 263.12832 
L 472.15872 261.6768 
L 473.76576 262.64448 
L 475.3728 265.87008 
L 476.97984 266.19264 
L 478.58688 266.67648 
L 480.19392 266.35392 
L 481.80096 264.74112 
L 483.408 268.77312 
L 485.01504 270.86976 
L 486.62208 271.03104 
L 488.22912 268.77312 
L 489.83616 268.28928 
L 491.4432 267.96672 
L 493.05024 268.9344 
L 494.65728 272.48256 
L 496.26432 274.5792 
L 499.4784 274.90176 
L 501.08544 275.86944 
L 502.69248 275.3856 
L 504.29952 277.15968 
L 505.90656 277.15968 
L 507.5136 275.86944 
L 510.72768 275.22432 
L 512.33472 274.09536 
L 513.94176 272.64384 
L 515.5488 272.48256 
L 517.15584 272.64384 
L 518.76288 271.3536 
L 520.36992 272.64384 
L 521.97696 273.61152 
L 523.584 273.45024 
L 525.19104 272.64384 
L 526.79808 274.5792 
L 528.40512 273.93408 
L 530.01216 275.54688 
L 531.6192 276.35328 
L 533.22624 276.67584 
L 534.83328 276.51456 
L 536.44032 276.9984 
L 538.04736 277.64352 
L 539.6544 277.32096 
L 541.26144 279.25632 
L 542.86848 280.06272 
L 544.47552 278.6112 
L 546.08256 277.96608 
L 547.6896 276.192 
L 549.29664 275.70816 
L 550.90368 276.192 
L 552.51072 276.03072 
L 555.7248 276.67584 
L 557.33184 276.35328 
L 558.93888 274.5792 
L 560.54592 275.22432 
L 562.15296 276.03072 
L 563.76 275.70816 
L 565.36704 275.70816 
L 566.97408 274.90176 
L 570.18816 276.192 
L 571.7952 276.51456 
L 573.40224 277.48224 
L 575.00928 277.15968 
L 576.61632 276.9984 
L 578.22336 276.9984 
L 581.43744 277.32096 
L 583.04448 276.67584 
L 584.65152 277.8048 
L 586.25856 276.83712 
L 587.8656 276.9984 
L 589.47264 277.96608 
L 591.07968 277.64352 
L 592.68672 277.48224 
L 594.29376 277.64352 
L 595.9008 277.96608 
L 597.50784 276.51456 
L 599.11488 276.51456 
L 600.72192 275.06304 
L 602.32896 274.5792 
L 603.936 273.7728 
L 605.54304 274.09536 
L 607.15008 274.74048 
L 608.75712 274.5792 
L 610.36416 273.93408 
L 611.9712 273.61152 
L 613.57824 274.41792 
L 615.18528 273.7728 
L 616.79232 273.28896 
L 618.39936 274.25664 
L 620.0064 274.5792 
L 621.61344 275.86944 
L 623.22048 274.41792 
L 624.82752 277.15968 
L 626.43456 275.70816 
L 628.0416 272.9664 
L 629.64864 274.90176 
L 631.25568 275.70816 
L 632.86272 275.70816 
L 634.46976 274.09536 
L 636.0768 274.25664 
L 637.68384 274.5792 
L 639.29088 274.41792 
L 640.89792 276.03072 
L 642.50496 276.03072 
L 644.112 277.48224 
L 645.71904 278.44992 
L 647.32608 280.54656 
L 648.93312 281.0304 
L 650.54016 282.15936 
L 652.1472 282.80448 
L 653.75424 282.96576 
L 655.36128 281.19168 
L 656.96832 282.6432 
L 658.57536 284.57856 
L 660.1824 283.4496 
L 661.78944 284.256 
L 663.39648 284.41728 
L 665.00352 286.19136 
L 666.61056 284.57856 
L 668.2176 284.09472 
L 669.82464 282.80448 
L 671.43168 282.96576 
L 673.03872 283.61088 
L 674.64576 284.73984 
L 676.2528 282.96576 
L 677.85984 284.41728 
L 679.46688 284.73984 
L 681.07392 284.41728 
L 682.68096 285.38496 
L 684.288 286.19136 
L 685.89504 286.35264 
L 687.50208 285.8688 
L 689.10912 287.96544 
L 690.71616 285.8688 
L 692.3232 285.70752 
L 693.93024 287.64288 
L 695.53728 286.99776 
L 697.14432 286.83648 
L 698.75136 289.25568 
L 700.3584 290.54592 
L 701.96544 289.25568 
L 703.57248 288.44928 
L 705.17952 287.15904 
L 706.78656 287.4816 
L 708.3936 287.64288 
L 710.00064 288.93312 
L 711.60768 288.61056 
L 714.82176 289.57824 
L 716.4288 289.41696 
L 718.03584 289.9008 
L 719.64288 289.9008 
L 721.24992 289.25568 
L 722.85696 289.57824 
L 724.464 290.06208 
L 726.07104 288.288 
L 727.67808 288.61056 
L 729.28512 289.73952 
L 730.89216 291.19104 
L 732.4992 289.57824 
L 734.10624 289.41696 
L 737.32032 290.06208 
L 738.92736 290.86848 
L 740.5344 291.5136 
L 742.14144 290.54592 
L 743.74848 291.67488 
L 745.35552 291.67488 
L 746.96256 290.06208 
L 748.5696 291.19104 
L 750.17664 289.41696 
L 751.78368 289.25568 
L 753.39072 289.41696 
L 754.99776 288.288 
L 756.6048 287.96544 
L 758.21184 287.80416 
L 759.81888 288.44928 
L 761.42592 287.15904 
L 763.03296 285.54624 
L 764.64 287.96544 
L 766.24704 286.35264 
L 767.85408 286.6752 
L 769.46112 287.15904 
L 771.06816 286.35264 
L 772.6752 286.83648 
L 774.28224 285.0624 
L 775.88928 286.19136 
L 777.49632 285.38496 
L 779.10336 285.22368 
L 780.7104 285.54624 
L 782.31744 284.73984 
L 783.92448 284.73984 
L 785.53152 285.8688 
L 787.13856 286.51392 
L 788.7456 286.19136 
L 790.35264 285.54624 
L 791.95968 286.6752 
L 793.56672 286.35264 
L 795.17376 286.19136 
L 796.7808 286.35264 
L 798.38784 285.22368 
L 799.99488 286.03008 
L 801.60192 285.38496 
L 803.20896 285.22368 
L 804.816 284.41728 
L 806.42304 283.93344 
L 808.03008 282.80448 
L 809.63712 281.51424 
L 811.24416 278.77248 
L 812.8512 276.51456 
L 814.45824 278.44992 
L 816.06528 276.35328 
L 817.67232 276.35328 
L 819.27936 276.03072 
L 820.8864 276.51456 
L 822.49344 276.192 
L 824.10048 275.70816 
L 825.70752 276.03072 
L 827.31456 274.41792 
L 828.9216 275.86944 
L 830.52864 275.3856 
L 832.13568 273.7728 
L 833.74272 273.28896 
L 835.34976 274.5792 
L 836.9568 273.45024 
L 838.56384 272.80512 
L 843.38496 271.83744 
L 844.992 271.67616 
L 846.59904 272.9664 
L 848.20608 272.64384 
L 849.81312 274.5792 
L 851.42016 273.12768 
L 853.0272 274.5792 
L 854.63424 273.7728 
L 856.24128 275.06304 
L 857.84832 275.70816 
L 859.45536 274.5792 
L 861.0624 274.25664 
L 862.66944 274.41792 
L 864.27648 275.06304 
L 865.88352 276.51456 
L 867.49056 276.192 
L 869.0976 275.70816 
L 870.70464 276.35328 
L 872.31168 275.22432 
L 873.91872 274.25664 
L 875.52576 275.86944 
L 877.1328 275.22432 
L 878.73984 274.74048 
L 880.34688 275.06304 
L 881.95392 275.06304 
L 883.56096 274.5792 
L 885.168 274.25664 
L 886.77504 273.7728 
L 888.38208 272.80512 
L 889.98912 271.99872 
L 891.59616 271.67616 
L 893.2032 271.99872 
L 894.81024 271.03104 
L 896.41728 270.5472 
L 898.02432 268.28928 
L 899.63136 267.16032 
L 902.84544 267.48288 
L 904.45248 265.7088 
L 906.05952 264.74112 
L 907.66656 263.93472 
L 909.2736 262.64448 
L 912.48768 261.6768 
L 914.09472 260.064 
L 915.70176 258.61248 
L 917.3088 257.32224 
L 918.91584 257.16096 
L 920.52288 259.2576 
L 922.12992 256.51584 
L 923.73696 257.96736 
L 925.344 257.32224 
L 926.95104 256.51584 
L 928.55808 255.87072 
L 930.16512 256.032 
L 931.77216 256.8384 
L 933.3792 256.032 
L 934.98624 256.19328 
L 936.59328 256.99968 
L 938.20032 255.87072 
L 939.80736 256.8384 
L 941.4144 256.19328 
L 943.02144 255.70944 
L 944.62848 256.35456 
L 946.23552 256.67712 
L 947.84256 256.032 
L 949.4496 257.16096 
L 951.05664 256.032 
L 952.66368 255.70944 
L 954.27072 256.99968 
L 955.87776 256.19328 
L 957.4848 256.35456 
L 959.09184 256.19328 
L 960.69888 256.19328 
L 962.30592 255.87072 
L 963.91296 255.38688 
L 963.91296 255.38688 
" style="fill:none;stroke:#ff0000;stroke-linecap:square;"/>
   </g>
   <g id="line2d_4">
    <path clip-path="url(#peda425fcb0)" d="M 162 150.55488 
L 163.60704 178.94016 
L 165.21408 190.55232 
L 166.82112 181.68192 
L 168.42816 196.68096 
L 170.0352 181.52064 
L 171.64224 167.97312 
L 173.24928 181.52064 
L 174.85632 179.90784 
L 176.46336 161.52192 
L 178.0704 175.55328 
L 179.67744 171.03744 
L 181.28448 170.71488 
L 182.89152 175.392 
L 184.49856 177.32736 
L 186.1056 182.32704 
L 187.71264 170.71488 
L 189.31968 174.26304 
L 190.92672 170.71488 
L 192.53376 180.55296 
L 194.1408 192.16512 
L 195.74784 196.03584 
L 197.35488 211.19616 
L 198.96192 209.58336 
L 200.56896 200.71296 
L 202.176 200.22912 
L 203.78304 196.84224 
L 205.39008 207.97056 
L 206.99712 205.06752 
L 208.60416 183.77856 
L 210.2112 187.16544 
L 211.81824 190.87488 
L 213.42528 191.35872 
L 215.03232 192.64896 
L 216.63936 187.81056 
L 218.2464 193.29408 
L 219.85344 193.9392 
L 221.46048 198.61632 
L 223.06752 201.84192 
L 224.67456 211.68 
L 226.2816 214.9056 
L 227.88864 219.26016 
L 229.49568 218.77632 
L 231.10272 216.67968 
L 232.70976 219.58272 
L 234.3168 224.09856 
L 235.92384 225.55008 
L 237.53088 227.808 
L 239.13792 227.808 
L 240.74496 230.06592 
L 242.352 226.51776 
L 243.95904 231.51744 
L 245.56608 234.2592 
L 247.17312 234.90432 
L 248.78016 238.12992 
L 250.3872 239.42016 
L 251.99424 241.83936 
L 253.60128 238.77504 
L 255.20832 240.22656 
L 256.81536 241.35552 
L 258.4224 241.5168 
L 260.02944 243.61344 
L 261.63648 239.904 
L 263.24352 242.3232 
L 264.85056 243.1296 
L 266.4576 242.00064 
L 268.06464 242.80704 
L 269.67168 245.22624 
L 271.27872 245.71008 
L 272.88576 248.45184 
L 274.4928 251.51616 
L 276.09984 250.70976 
L 277.70688 250.87104 
L 279.31392 254.25792 
L 280.92096 254.74176 
L 282.528 255.87072 
L 284.13504 255.06432 
L 285.74208 252.64512 
L 287.34912 252.96768 
L 288.95616 248.61312 
L 290.5632 247.32288 
L 292.17024 250.87104 
L 293.77728 252.64512 
L 295.38432 254.09664 
L 296.99136 250.22592 
L 298.5984 249.41952 
L 300.20544 250.06464 
L 301.81248 249.90336 
L 303.41952 248.45184 
L 305.02656 243.77472 
L 306.6336 244.09728 
L 308.24064 245.06496 
L 309.84768 241.5168 
L 311.45472 244.25856 
L 313.06176 240.7104 
L 314.6688 242.80704 
L 316.27584 241.35552 
L 317.88288 241.03296 
L 319.48992 240.54912 
L 321.09696 238.2912 
L 322.704 239.25888 
L 324.31104 239.42016 
L 325.91808 240.38784 
L 327.52512 240.54912 
L 329.13216 239.904 
L 330.7392 241.35552 
L 332.34624 241.03296 
L 333.95328 243.45216 
L 335.56032 245.5488 
L 337.16736 244.7424 
L 338.7744 241.67808 
L 340.38144 244.25856 
L 341.98848 248.61312 
L 343.59552 248.7744 
L 345.20256 246.19392 
L 346.8096 243.29088 
L 348.41664 242.96832 
L 350.02368 243.61344 
L 351.63072 243.61344 
L 353.23776 242.80704 
L 356.45184 246.67776 
L 358.05888 245.5488 
L 359.66592 243.77472 
L 361.27296 243.29088 
L 362.88 244.7424 
L 364.48704 245.87136 
L 366.09408 243.936 
L 367.70112 244.7424 
L 369.30816 244.58112 
L 370.9152 245.38752 
L 372.52224 244.25856 
L 374.12928 244.90368 
L 375.73632 245.38752 
L 377.34336 244.7424 
L 378.9504 245.5488 
L 380.55744 247.64544 
L 382.16448 247.32288 
L 383.77152 246.51648 
L 385.37856 247.32288 
L 386.9856 249.5808 
L 388.59264 249.74208 
L 390.19968 249.09696 
L 391.80672 247.64544 
L 393.41376 248.93568 
L 395.0208 249.90336 
L 396.62784 249.74208 
L 398.23488 247.00032 
L 399.84192 249.25824 
L 401.44896 248.12928 
L 403.056 250.87104 
L 404.66304 251.1936 
L 407.87712 249.25824 
L 409.48416 246.51648 
L 411.0912 246.03264 
L 412.69824 247.968 
L 415.91232 247.968 
L 417.51936 245.71008 
L 419.1264 246.83904 
L 420.73344 247.48416 
L 422.34048 247.32288 
L 423.94752 248.12928 
L 425.55456 246.67776 
L 427.1616 248.45184 
L 428.76864 249.25824 
L 430.37568 250.70976 
L 431.98272 250.70976 
L 433.58976 250.06464 
L 435.1968 251.1936 
L 436.80384 249.74208 
L 438.41088 248.12928 
L 440.01792 248.61312 
L 441.62496 246.67776 
L 443.232 247.968 
L 444.83904 246.3552 
L 446.44608 248.61312 
L 448.05312 249.5808 
L 449.66016 249.90336 
L 451.2672 247.968 
L 454.48128 249.90336 
L 456.08832 250.06464 
L 457.69536 249.5808 
L 459.3024 250.22592 
L 460.90944 251.51616 
L 462.51648 251.1936 
L 465.73056 250.22592 
L 467.3376 249.41952 
L 468.94464 249.25824 
L 470.55168 249.74208 
L 472.15872 248.93568 
L 473.76576 249.74208 
L 475.3728 249.09696 
L 476.97984 247.80672 
L 478.58688 247.968 
L 480.19392 246.83904 
L 481.80096 247.64544 
L 483.408 248.93568 
L 485.01504 248.93568 
L 486.62208 250.22592 
L 488.22912 250.70976 
L 489.83616 251.51616 
L 491.4432 251.1936 
L 493.05024 251.83872 
L 494.65728 249.41952 
L 496.26432 251.67744 
L 497.87136 251.03232 
L 499.4784 249.74208 
L 501.08544 250.87104 
L 502.69248 248.29056 
L 504.29952 248.61312 
L 505.90656 247.968 
L 507.5136 248.93568 
L 509.12064 248.12928 
L 510.72768 248.7744 
L 512.33472 249.5808 
L 513.94176 248.61312 
L 515.5488 247.48416 
L 517.15584 247.48416 
L 518.76288 246.51648 
L 520.36992 245.22624 
L 521.97696 247.64544 
L 523.584 246.83904 
L 525.19104 247.1616 
L 526.79808 248.12928 
L 528.40512 249.90336 
L 530.01216 250.3872 
L 531.6192 248.29056 
L 533.22624 247.32288 
L 534.83328 248.45184 
L 536.44032 249.41952 
L 538.04736 249.5808 
L 539.6544 250.22592 
L 541.26144 249.25824 
L 542.86848 249.5808 
L 544.47552 250.54848 
L 546.08256 249.09696 
L 547.6896 249.74208 
L 549.29664 249.41952 
L 550.90368 249.41952 
L 552.51072 249.5808 
L 554.11776 247.968 
L 555.7248 248.29056 
L 557.33184 247.968 
L 558.93888 247.1616 
L 562.15296 247.1616 
L 563.76 246.19392 
L 565.36704 244.90368 
L 566.97408 242.00064 
L 568.58112 242.80704 
L 570.18816 242.16192 
L 571.7952 242.3232 
L 573.40224 243.1296 
L 576.61632 242.80704 
L 578.22336 243.45216 
L 579.8304 243.77472 
L 581.43744 243.45216 
L 583.04448 244.25856 
L 584.65152 243.77472 
L 586.25856 244.25856 
L 587.8656 243.936 
L 589.47264 244.90368 
L 591.07968 243.29088 
L 592.68672 244.25856 
L 594.29376 244.41984 
L 595.9008 244.90368 
L 597.50784 246.51648 
L 599.11488 247.48416 
L 600.72192 246.19392 
L 602.32896 246.83904 
L 603.936 248.61312 
L 605.54304 247.48416 
L 607.15008 247.1616 
L 608.75712 248.61312 
L 610.36416 248.29056 
L 611.9712 247.48416 
L 613.57824 245.5488 
L 615.18528 247.64544 
L 616.79232 246.03264 
L 618.39936 246.19392 
L 620.0064 245.06496 
L 621.61344 243.45216 
L 623.22048 244.41984 
L 624.82752 245.71008 
L 626.43456 245.38752 
L 628.0416 246.3552 
L 629.64864 246.51648 
L 631.25568 246.51648 
L 632.86272 248.7744 
L 634.46976 248.29056 
L 636.0768 249.90336 
L 639.29088 249.25824 
L 640.89792 248.29056 
L 642.50496 249.09696 
L 644.112 248.45184 
L 645.71904 246.83904 
L 647.32608 246.83904 
L 648.93312 246.51648 
L 650.54016 245.22624 
L 652.1472 245.87136 
L 653.75424 245.71008 
L 655.36128 246.19392 
L 656.96832 245.87136 
L 658.57536 247.00032 
L 660.1824 246.3552 
L 661.78944 248.45184 
L 663.39648 248.61312 
L 665.00352 249.09696 
L 666.61056 250.54848 
L 668.2176 250.54848 
L 669.82464 250.22592 
L 671.43168 249.09696 
L 673.03872 249.90336 
L 674.64576 249.41952 
L 676.2528 250.3872 
L 677.85984 249.90336 
L 679.46688 249.74208 
L 681.07392 249.90336 
L 682.68096 249.25824 
L 685.89504 249.5808 
L 687.50208 250.06464 
L 689.10912 251.67744 
L 690.71616 249.41952 
L 692.3232 249.90336 
L 693.93024 251.03232 
L 695.53728 252.48384 
L 697.14432 251.67744 
L 698.75136 251.51616 
L 700.3584 251.51616 
L 701.96544 253.45152 
L 703.57248 253.29024 
L 705.17952 254.09664 
L 706.78656 255.06432 
L 708.3936 255.06432 
L 710.00064 254.4192 
L 711.60768 254.25792 
L 713.21472 253.93536 
L 714.82176 253.93536 
L 716.4288 254.09664 
L 718.03584 253.93536 
L 719.64288 254.25792 
L 721.24992 253.77408 
L 722.85696 253.45152 
L 724.464 253.6128 
L 726.07104 253.45152 
L 727.67808 252.48384 
L 729.28512 253.45152 
L 732.4992 252.8064 
L 734.10624 254.09664 
L 735.71328 254.4192 
L 737.32032 253.6128 
L 738.92736 252.96768 
L 740.5344 251.67744 
L 742.14144 251.03232 
L 743.74848 252 
L 745.35552 252.8064 
L 748.5696 252.16128 
L 750.17664 251.67744 
L 751.78368 252.16128 
L 753.39072 252.96768 
L 754.99776 253.12896 
L 756.6048 252.64512 
L 758.21184 252.96768 
L 759.81888 254.09664 
L 763.03296 254.74176 
L 764.64 255.2256 
L 766.24704 255.38688 
L 767.85408 255.38688 
L 769.46112 255.70944 
L 771.06816 257.16096 
L 772.6752 257.48352 
L 774.28224 257.6448 
L 775.88928 257.96736 
L 777.49632 257.80608 
L 779.10336 257.16096 
L 780.7104 256.67712 
L 782.31744 255.54816 
L 783.92448 254.74176 
L 785.53152 254.4192 
L 787.13856 253.29024 
L 788.7456 253.77408 
L 790.35264 253.93536 
L 793.56672 252.32256 
L 795.17376 252.48384 
L 796.7808 253.6128 
L 798.38784 252.48384 
L 799.99488 251.83872 
L 801.60192 252.48384 
L 803.20896 252.32256 
L 804.816 253.29024 
L 806.42304 253.45152 
L 808.03008 253.93536 
L 809.63712 252.48384 
L 811.24416 252.16128 
L 814.45824 253.77408 
L 816.06528 255.2256 
L 817.67232 254.74176 
L 819.27936 252.48384 
L 820.8864 251.67744 
L 822.49344 251.03232 
L 824.10048 251.67744 
L 825.70752 250.70976 
L 827.31456 249.09696 
L 828.9216 247.80672 
L 830.52864 247.80672 
L 832.13568 248.7744 
L 833.74272 247.968 
L 835.34976 250.54848 
L 836.9568 248.7744 
L 838.56384 249.25824 
L 840.17088 248.93568 
L 841.77792 248.12928 
L 843.38496 249.25824 
L 844.992 248.93568 
L 846.59904 248.93568 
L 848.20608 248.12928 
L 849.81312 248.29056 
L 851.42016 249.5808 
L 853.0272 249.09696 
L 854.63424 249.74208 
L 856.24128 250.06464 
L 857.84832 251.03232 
L 859.45536 250.54848 
L 861.0624 250.87104 
L 862.66944 250.54848 
L 864.27648 251.03232 
L 865.88352 251.03232 
L 867.49056 250.06464 
L 869.0976 252.32256 
L 870.70464 252 
L 872.31168 253.29024 
L 873.91872 252.8064 
L 875.52576 252.48384 
L 877.1328 252.64512 
L 878.73984 252.32256 
L 880.34688 253.12896 
L 881.95392 252.8064 
L 883.56096 251.83872 
L 885.168 252.48384 
L 886.77504 252.48384 
L 888.38208 252.64512 
L 889.98912 253.45152 
L 891.59616 252.48384 
L 893.2032 252.32256 
L 894.81024 251.03232 
L 896.41728 251.1936 
L 898.02432 249.90336 
L 899.63136 250.70976 
L 902.84544 250.3872 
L 904.45248 249.5808 
L 906.05952 250.54848 
L 907.66656 249.25824 
L 909.2736 249.5808 
L 910.88064 250.3872 
L 912.48768 251.03232 
L 914.09472 250.87104 
L 917.3088 250.22592 
L 920.52288 249.90336 
L 922.12992 250.3872 
L 923.73696 251.35488 
L 925.344 253.12896 
L 926.95104 254.09664 
L 930.16512 253.45152 
L 931.77216 255.06432 
L 933.3792 253.29024 
L 934.98624 252.32256 
L 936.59328 253.12896 
L 938.20032 252.96768 
L 939.80736 252.96768 
L 941.4144 253.93536 
L 943.02144 253.93536 
L 944.62848 252.96768 
L 946.23552 253.29024 
L 947.84256 253.45152 
L 949.4496 253.77408 
L 951.05664 253.12896 
L 952.66368 252.32256 
L 954.27072 253.93536 
L 957.4848 252.96768 
L 959.09184 253.12896 
L 960.69888 254.09664 
L 962.30592 253.45152 
L 963.91296 253.12896 
L 963.91296 253.12896 
" style="fill:none;stroke:#00bfbf;stroke-linecap:square;"/>
   </g>
   <g id="patch_3">
    <path d="M 162 50.4 
L 965.52 50.4 
" style="fill:none;stroke:#000000;stroke-linecap:square;stroke-linejoin:miter;"/>
   </g>
   <g id="patch_4">
    <path d="M 965.52 453.6 
L 965.52 50.4 
" style="fill:none;stroke:#000000;stroke-linecap:square;stroke-linejoin:miter;"/>
   </g>
   <g id="patch_5">
    <path d="M 162 453.6 
L 965.52 453.6 
" style="fill:none;stroke:#000000;stroke-linecap:square;stroke-linejoin:miter;"/>
   </g>
   <g id="patch_6">
    <path d="M 162 453.6 
L 162 50.4 
" style="fill:none;stroke:#000000;stroke-linecap:square;stroke-linejoin:miter;"/>
   </g>
   <g id="matplotlib.axis_1">
    <g id="xtick_1">
     <g id="line2d_5">
      <defs>
       <path d="M 0 0 
L 0 -4 
" id="mc7cbecd332" style="stroke:#000000;stroke-width:0.5;"/>
      </defs>
      <g>
       <use style="stroke:#000000;stroke-width:0.5;" x="162.0" xlink:href="#mc7cbecd332" y="453.6"/>
      </g>
     </g>
     <g id="line2d_6">
      <defs>
       <path d="M 0 0 
L 0 4 
" id="mbacf9f107c" style="stroke:#000000;stroke-width:0.5;"/>
      </defs>
      <g>
       <use style="stroke:#000000;stroke-width:0.5;" x="162.0" xlink:href="#mbacf9f107c" y="50.4"/>
      </g>
     </g>
     <g id="text_1">
      <!-- 0 -->
      <defs>
       <path d="M 31.78125 66.40625 
Q 24.171875 66.40625 20.328125 58.90625 
Q 16.5 51.421875 16.5 36.375 
Q 16.5 21.390625 20.328125 13.890625 
Q 24.171875 6.390625 31.78125 6.390625 
Q 39.453125 6.390625 43.28125 13.890625 
Q 47.125 21.390625 47.125 36.375 
Q 47.125 51.421875 43.28125 58.90625 
Q 39.453125 66.40625 31.78125 66.40625 
M 31.78125 74.21875 
Q 44.046875 74.21875 50.515625 64.515625 
Q 56.984375 54.828125 56.984375 36.375 
Q 56.984375 17.96875 50.515625 8.265625 
Q 44.046875 -1.421875 31.78125 -1.421875 
Q 19.53125 -1.421875 13.0625 8.265625 
Q 6.59375 17.96875 6.59375 36.375 
Q 6.59375 54.828125 13.0625 64.515625 
Q 19.53125 74.21875 31.78125 74.21875 
" id="BitstreamVeraSans-Roman-30"/>
      </defs>
      <g transform="translate(158.1825 466.718125)scale(0.12 -0.12)">
       <use xlink:href="#BitstreamVeraSans-Roman-30"/>
      </g>
     </g>
    </g>
    <g id="xtick_2">
     <g id="line2d_7">
      <g>
       <use style="stroke:#000000;stroke-width:0.5;" x="322.704" xlink:href="#mc7cbecd332" y="453.6"/>
      </g>
     </g>
     <g id="line2d_8">
      <g>
       <use style="stroke:#000000;stroke-width:0.5;" x="322.704" xlink:href="#mbacf9f107c" y="50.4"/>
      </g>
     </g>
     <g id="text_2">
      <!-- 100 -->
      <defs>
       <path d="M 12.40625 8.296875 
L 28.515625 8.296875 
L 28.515625 63.921875 
L 10.984375 60.40625 
L 10.984375 69.390625 
L 28.421875 72.90625 
L 38.28125 72.90625 
L 38.28125 8.296875 
L 54.390625 8.296875 
L 54.390625 0 
L 12.40625 0 
z
" id="BitstreamVeraSans-Roman-31"/>
      </defs>
      <g transform="translate(311.2515 466.718125)scale(0.12 -0.12)">
       <use xlink:href="#BitstreamVeraSans-Roman-31"/>
       <use x="63.623046875" xlink:href="#BitstreamVeraSans-Roman-30"/>
       <use x="127.24609375" xlink:href="#BitstreamVeraSans-Roman-30"/>
      </g>
     </g>
    </g>
    <g id="xtick_3">
     <g id="line2d_9">
      <g>
       <use style="stroke:#000000;stroke-width:0.5;" x="483.408" xlink:href="#mc7cbecd332" y="453.6"/>
      </g>
     </g>
     <g id="line2d_10">
      <g>
       <use style="stroke:#000000;stroke-width:0.5;" x="483.408" xlink:href="#mbacf9f107c" y="50.4"/>
      </g>
     </g>
     <g id="text_3">
      <!-- 200 -->
      <defs>
       <path d="M 19.1875 8.296875 
L 53.609375 8.296875 
L 53.609375 0 
L 7.328125 0 
L 7.328125 8.296875 
Q 12.9375 14.109375 22.625 23.890625 
Q 32.328125 33.6875 34.8125 36.53125 
Q 39.546875 41.84375 41.421875 45.53125 
Q 43.3125 49.21875 43.3125 52.78125 
Q 43.3125 58.59375 39.234375 62.25 
Q 35.15625 65.921875 28.609375 65.921875 
Q 23.96875 65.921875 18.8125 64.3125 
Q 13.671875 62.703125 7.8125 59.421875 
L 7.8125 69.390625 
Q 13.765625 71.78125 18.9375 73 
Q 24.125 74.21875 28.421875 74.21875 
Q 39.75 74.21875 46.484375 68.546875 
Q 53.21875 62.890625 53.21875 53.421875 
Q 53.21875 48.921875 51.53125 44.890625 
Q 49.859375 40.875 45.40625 35.40625 
Q 44.1875 33.984375 37.640625 27.21875 
Q 31.109375 20.453125 19.1875 8.296875 
" id="BitstreamVeraSans-Roman-32"/>
      </defs>
      <g transform="translate(471.9555 466.718125)scale(0.12 -0.12)">
       <use xlink:href="#BitstreamVeraSans-Roman-32"/>
       <use x="63.623046875" xlink:href="#BitstreamVeraSans-Roman-30"/>
       <use x="127.24609375" xlink:href="#BitstreamVeraSans-Roman-30"/>
      </g>
     </g>
    </g>
    <g id="xtick_4">
     <g id="line2d_11">
      <g>
       <use style="stroke:#000000;stroke-width:0.5;" x="644.112" xlink:href="#mc7cbecd332" y="453.6"/>
      </g>
     </g>
     <g id="line2d_12">
      <g>
       <use style="stroke:#000000;stroke-width:0.5;" x="644.112" xlink:href="#mbacf9f107c" y="50.4"/>
      </g>
     </g>
     <g id="text_4">
      <!-- 300 -->
      <defs>
       <path d="M 40.578125 39.3125 
Q 47.65625 37.796875 51.625 33 
Q 55.609375 28.21875 55.609375 21.1875 
Q 55.609375 10.40625 48.1875 4.484375 
Q 40.765625 -1.421875 27.09375 -1.421875 
Q 22.515625 -1.421875 17.65625 -0.515625 
Q 12.796875 0.390625 7.625 2.203125 
L 7.625 11.71875 
Q 11.71875 9.328125 16.59375 8.109375 
Q 21.484375 6.890625 26.8125 6.890625 
Q 36.078125 6.890625 40.9375 10.546875 
Q 45.796875 14.203125 45.796875 21.1875 
Q 45.796875 27.640625 41.28125 31.265625 
Q 36.765625 34.90625 28.71875 34.90625 
L 20.21875 34.90625 
L 20.21875 43.015625 
L 29.109375 43.015625 
Q 36.375 43.015625 40.234375 45.921875 
Q 44.09375 48.828125 44.09375 54.296875 
Q 44.09375 59.90625 40.109375 62.90625 
Q 36.140625 65.921875 28.71875 65.921875 
Q 24.65625 65.921875 20.015625 65.03125 
Q 15.375 64.15625 9.8125 62.3125 
L 9.8125 71.09375 
Q 15.4375 72.65625 20.34375 73.4375 
Q 25.25 74.21875 29.59375 74.21875 
Q 40.828125 74.21875 47.359375 69.109375 
Q 53.90625 64.015625 53.90625 55.328125 
Q 53.90625 49.265625 50.4375 45.09375 
Q 46.96875 40.921875 40.578125 39.3125 
" id="BitstreamVeraSans-Roman-33"/>
      </defs>
      <g transform="translate(632.6595 466.718125)scale(0.12 -0.12)">
       <use xlink:href="#BitstreamVeraSans-Roman-33"/>
       <use x="63.623046875" xlink:href="#BitstreamVeraSans-Roman-30"/>
       <use x="127.24609375" xlink:href="#BitstreamVeraSans-Roman-30"/>
      </g>
     </g>
    </g>
    <g id="xtick_5">
     <g id="line2d_13">
      <g>
       <use style="stroke:#000000;stroke-width:0.5;" x="804.816" xlink:href="#mc7cbecd332" y="453.6"/>
      </g>
     </g>
     <g id="line2d_14">
      <g>
       <use style="stroke:#000000;stroke-width:0.5;" x="804.816" xlink:href="#mbacf9f107c" y="50.4"/>
      </g>
     </g>
     <g id="text_5">
      <!-- 400 -->
      <defs>
       <path d="M 37.796875 64.3125 
L 12.890625 25.390625 
L 37.796875 25.390625 
z
M 35.203125 72.90625 
L 47.609375 72.90625 
L 47.609375 25.390625 
L 58.015625 25.390625 
L 58.015625 17.1875 
L 47.609375 17.1875 
L 47.609375 0 
L 37.796875 0 
L 37.796875 17.1875 
L 4.890625 17.1875 
L 4.890625 26.703125 
z
" id="BitstreamVeraSans-Roman-34"/>
      </defs>
      <g transform="translate(793.3635 466.718125)scale(0.12 -0.12)">
       <use xlink:href="#BitstreamVeraSans-Roman-34"/>
       <use x="63.623046875" xlink:href="#BitstreamVeraSans-Roman-30"/>
       <use x="127.24609375" xlink:href="#BitstreamVeraSans-Roman-30"/>
      </g>
     </g>
    </g>
    <g id="xtick_6">
     <g id="line2d_15">
      <g>
       <use style="stroke:#000000;stroke-width:0.5;" x="965.52" xlink:href="#mc7cbecd332" y="453.6"/>
      </g>
     </g>
     <g id="line2d_16">
      <g>
       <use style="stroke:#000000;stroke-width:0.5;" x="965.52" xlink:href="#mbacf9f107c" y="50.4"/>
      </g>
     </g>
     <g id="text_6">
      <!-- 500 -->
      <defs>
       <path d="M 10.796875 72.90625 
L 49.515625 72.90625 
L 49.515625 64.59375 
L 19.828125 64.59375 
L 19.828125 46.734375 
Q 21.96875 47.46875 24.109375 47.828125 
Q 26.265625 48.1875 28.421875 48.1875 
Q 40.625 48.1875 47.75 41.5 
Q 54.890625 34.8125 54.890625 23.390625 
Q 54.890625 11.625 47.5625 5.09375 
Q 40.234375 -1.421875 26.90625 -1.421875 
Q 22.3125 -1.421875 17.546875 -0.640625 
Q 12.796875 0.140625 7.71875 1.703125 
L 7.71875 11.625 
Q 12.109375 9.234375 16.796875 8.0625 
Q 21.484375 6.890625 26.703125 6.890625 
Q 35.15625 6.890625 40.078125 11.328125 
Q 45.015625 15.765625 45.015625 23.390625 
Q 45.015625 31 40.078125 35.4375 
Q 35.15625 39.890625 26.703125 39.890625 
Q 22.75 39.890625 18.8125 39.015625 
Q 14.890625 38.140625 10.796875 36.28125 
z
" id="BitstreamVeraSans-Roman-35"/>
      </defs>
      <g transform="translate(954.0675 466.718125)scale(0.12 -0.12)">
       <use xlink:href="#BitstreamVeraSans-Roman-35"/>
       <use x="63.623046875" xlink:href="#BitstreamVeraSans-Roman-30"/>
       <use x="127.24609375" xlink:href="#BitstreamVeraSans-Roman-30"/>
      </g>
     </g>
    </g>
    <g id="text_7">
     <!-- Time -->
     <defs>
      <path d="M 56.203125 29.59375 
L 56.203125 25.203125 
L 14.890625 25.203125 
Q 15.484375 15.921875 20.484375 11.0625 
Q 25.484375 6.203125 34.421875 6.203125 
Q 39.59375 6.203125 44.453125 7.46875 
Q 49.3125 8.734375 54.109375 11.28125 
L 54.109375 2.78125 
Q 49.265625 0.734375 44.1875 -0.34375 
Q 39.109375 -1.421875 33.890625 -1.421875 
Q 20.796875 -1.421875 13.15625 6.1875 
Q 5.515625 13.8125 5.515625 26.8125 
Q 5.515625 40.234375 12.765625 48.109375 
Q 20.015625 56 32.328125 56 
Q 43.359375 56 49.78125 48.890625 
Q 56.203125 41.796875 56.203125 29.59375 
M 47.21875 32.234375 
Q 47.125 39.59375 43.09375 43.984375 
Q 39.0625 48.390625 32.421875 48.390625 
Q 24.90625 48.390625 20.390625 44.140625 
Q 15.875 39.890625 15.1875 32.171875 
z
" id="BitstreamVeraSans-Roman-65"/>
      <path d="M 9.421875 54.6875 
L 18.40625 54.6875 
L 18.40625 0 
L 9.421875 0 
z
M 9.421875 75.984375 
L 18.40625 75.984375 
L 18.40625 64.59375 
L 9.421875 64.59375 
z
" id="BitstreamVeraSans-Roman-69"/>
      <path d="M -0.296875 72.90625 
L 61.375 72.90625 
L 61.375 64.59375 
L 35.5 64.59375 
L 35.5 0 
L 25.59375 0 
L 25.59375 64.59375 
L -0.296875 64.59375 
z
" id="BitstreamVeraSans-Roman-54"/>
      <path d="M 52 44.1875 
Q 55.375 50.25 60.0625 53.125 
Q 64.75 56 71.09375 56 
Q 79.640625 56 84.28125 50.015625 
Q 88.921875 44.046875 88.921875 33.015625 
L 88.921875 0 
L 79.890625 0 
L 79.890625 32.71875 
Q 79.890625 40.578125 77.09375 44.375 
Q 74.3125 48.1875 68.609375 48.1875 
Q 61.625 48.1875 57.5625 43.546875 
Q 53.515625 38.921875 53.515625 30.90625 
L 53.515625 0 
L 44.484375 0 
L 44.484375 32.71875 
Q 44.484375 40.625 41.703125 44.40625 
Q 38.921875 48.1875 33.109375 48.1875 
Q 26.21875 48.1875 22.15625 43.53125 
Q 18.109375 38.875 18.109375 30.90625 
L 18.109375 0 
L 9.078125 0 
L 9.078125 54.6875 
L 18.109375 54.6875 
L 18.109375 46.1875 
Q 21.1875 51.21875 25.484375 53.609375 
Q 29.78125 56 35.6875 56 
Q 41.65625 56 45.828125 52.96875 
Q 50 49.953125 52 44.1875 
" id="BitstreamVeraSans-Roman-6d"/>
     </defs>
     <g transform="translate(548.895 483.331875)scale(0.12 -0.12)">
      <use xlink:href="#BitstreamVeraSans-Roman-54"/>
      <use x="61.037109375" xlink:href="#BitstreamVeraSans-Roman-69"/>
      <use x="88.8203125" xlink:href="#BitstreamVeraSans-Roman-6d"/>
      <use x="186.232421875" xlink:href="#BitstreamVeraSans-Roman-65"/>
     </g>
    </g>
   </g>
   <g id="matplotlib.axis_2">
    <g id="ytick_1">
     <g id="line2d_17">
      <defs>
       <path d="M 0 0 
L 4 0 
" id="mc60e320c71" style="stroke:#000000;stroke-width:0.5;"/>
      </defs>
      <g>
       <use style="stroke:#000000;stroke-width:0.5;" x="162.0" xlink:href="#mc60e320c71" y="453.6"/>
      </g>
     </g>
     <g id="line2d_18">
      <defs>
       <path d="M 0 0 
L -4 0 
" id="m45d460f51c" style="stroke:#000000;stroke-width:0.5;"/>
      </defs>
      <g>
       <use style="stroke:#000000;stroke-width:0.5;" x="965.52" xlink:href="#m45d460f51c" y="453.6"/>
      </g>
     </g>
     <g id="text_8">
      <!-- 5.0 -->
      <defs>
       <path d="M 10.6875 12.40625 
L 21 12.40625 
L 21 0 
L 10.6875 0 
z
" id="BitstreamVeraSans-Roman-2e"/>
      </defs>
      <g transform="translate(138.91625 456.91125)scale(0.12 -0.12)">
       <use xlink:href="#BitstreamVeraSans-Roman-35"/>
       <use x="63.623046875" xlink:href="#BitstreamVeraSans-Roman-2e"/>
       <use x="95.41015625" xlink:href="#BitstreamVeraSans-Roman-30"/>
      </g>
     </g>
    </g>
    <g id="ytick_2">
     <g id="line2d_19">
      <g>
       <use style="stroke:#000000;stroke-width:0.5;" x="162.0" xlink:href="#mc60e320c71" y="372.96"/>
      </g>
     </g>
     <g id="line2d_20">
      <g>
       <use style="stroke:#000000;stroke-width:0.5;" x="965.52" xlink:href="#m45d460f51c" y="372.96"/>
      </g>
     </g>
     <g id="text_9">
      <!-- 5.5 -->
      <g transform="translate(138.91625 376.27125)scale(0.12 -0.12)">
       <use xlink:href="#BitstreamVeraSans-Roman-35"/>
       <use x="63.623046875" xlink:href="#BitstreamVeraSans-Roman-2e"/>
       <use x="95.41015625" xlink:href="#BitstreamVeraSans-Roman-35"/>
      </g>
     </g>
    </g>
    <g id="ytick_3">
     <g id="line2d_21">
      <g>
       <use style="stroke:#000000;stroke-width:0.5;" x="162.0" xlink:href="#mc60e320c71" y="292.32"/>
      </g>
     </g>
     <g id="line2d_22">
      <g>
       <use style="stroke:#000000;stroke-width:0.5;" x="965.52" xlink:href="#m45d460f51c" y="292.32"/>
      </g>
     </g>
     <g id="text_10">
      <!-- 6.0 -->
      <defs>
       <path d="M 33.015625 40.375 
Q 26.375 40.375 22.484375 35.828125 
Q 18.609375 31.296875 18.609375 23.390625 
Q 18.609375 15.53125 22.484375 10.953125 
Q 26.375 6.390625 33.015625 6.390625 
Q 39.65625 6.390625 43.53125 10.953125 
Q 47.40625 15.53125 47.40625 23.390625 
Q 47.40625 31.296875 43.53125 35.828125 
Q 39.65625 40.375 33.015625 40.375 
M 52.59375 71.296875 
L 52.59375 62.3125 
Q 48.875 64.0625 45.09375 64.984375 
Q 41.3125 65.921875 37.59375 65.921875 
Q 27.828125 65.921875 22.671875 59.328125 
Q 17.53125 52.734375 16.796875 39.40625 
Q 19.671875 43.65625 24.015625 45.921875 
Q 28.375 48.1875 33.59375 48.1875 
Q 44.578125 48.1875 50.953125 41.515625 
Q 57.328125 34.859375 57.328125 23.390625 
Q 57.328125 12.15625 50.6875 5.359375 
Q 44.046875 -1.421875 33.015625 -1.421875 
Q 20.359375 -1.421875 13.671875 8.265625 
Q 6.984375 17.96875 6.984375 36.375 
Q 6.984375 53.65625 15.1875 63.9375 
Q 23.390625 74.21875 37.203125 74.21875 
Q 40.921875 74.21875 44.703125 73.484375 
Q 48.484375 72.75 52.59375 71.296875 
" id="BitstreamVeraSans-Roman-36"/>
      </defs>
      <g transform="translate(138.91625 295.63125)scale(0.12 -0.12)">
       <use xlink:href="#BitstreamVeraSans-Roman-36"/>
       <use x="63.623046875" xlink:href="#BitstreamVeraSans-Roman-2e"/>
       <use x="95.41015625" xlink:href="#BitstreamVeraSans-Roman-30"/>
      </g>
     </g>
    </g>
    <g id="ytick_4">
     <g id="line2d_23">
      <g>
       <use style="stroke:#000000;stroke-width:0.5;" x="162.0" xlink:href="#mc60e320c71" y="211.68"/>
      </g>
     </g>
     <g id="line2d_24">
      <g>
       <use style="stroke:#000000;stroke-width:0.5;" x="965.52" xlink:href="#m45d460f51c" y="211.68"/>
      </g>
     </g>
     <g id="text_11">
      <!-- 6.5 -->
      <g transform="translate(138.91625 214.99125)scale(0.12 -0.12)">
       <use xlink:href="#BitstreamVeraSans-Roman-36"/>
       <use x="63.623046875" xlink:href="#BitstreamVeraSans-Roman-2e"/>
       <use x="95.41015625" xlink:href="#BitstreamVeraSans-Roman-35"/>
      </g>
     </g>
    </g>
    <g id="ytick_5">
     <g id="line2d_25">
      <g>
       <use style="stroke:#000000;stroke-width:0.5;" x="162.0" xlink:href="#mc60e320c71" y="131.04"/>
      </g>
     </g>
     <g id="line2d_26">
      <g>
       <use style="stroke:#000000;stroke-width:0.5;" x="965.52" xlink:href="#m45d460f51c" y="131.04"/>
      </g>
     </g>
     <g id="text_12">
      <!-- 7.0 -->
      <defs>
       <path d="M 8.203125 72.90625 
L 55.078125 72.90625 
L 55.078125 68.703125 
L 28.609375 0 
L 18.3125 0 
L 43.21875 64.59375 
L 8.203125 64.59375 
z
" id="BitstreamVeraSans-Roman-37"/>
      </defs>
      <g transform="translate(138.91625 134.35125)scale(0.12 -0.12)">
       <use xlink:href="#BitstreamVeraSans-Roman-37"/>
       <use x="63.623046875" xlink:href="#BitstreamVeraSans-Roman-2e"/>
       <use x="95.41015625" xlink:href="#BitstreamVeraSans-Roman-30"/>
      </g>
     </g>
    </g>
    <g id="ytick_6">
     <g id="line2d_27">
      <g>
       <use style="stroke:#000000;stroke-width:0.5;" x="162.0" xlink:href="#mc60e320c71" y="50.4"/>
      </g>
     </g>
     <g id="line2d_28">
      <g>
       <use style="stroke:#000000;stroke-width:0.5;" x="965.52" xlink:href="#m45d460f51c" y="50.4"/>
      </g>
     </g>
     <g id="text_13">
      <!-- 7.5 -->
      <g transform="translate(138.91625 53.71125)scale(0.12 -0.12)">
       <use xlink:href="#BitstreamVeraSans-Roman-37"/>
       <use x="63.623046875" xlink:href="#BitstreamVeraSans-Roman-2e"/>
       <use x="95.41015625" xlink:href="#BitstreamVeraSans-Roman-35"/>
      </g>
     </g>
    </g>
    <g id="text_14">
     <!-- neighbor distance -->
     <defs>
      <path id="BitstreamVeraSans-Roman-20"/>
      <path d="M 54.890625 33.015625 
L 54.890625 0 
L 45.90625 0 
L 45.90625 32.71875 
Q 45.90625 40.484375 42.875 44.328125 
Q 39.84375 48.1875 33.796875 48.1875 
Q 26.515625 48.1875 22.3125 43.546875 
Q 18.109375 38.921875 18.109375 30.90625 
L 18.109375 0 
L 9.078125 0 
L 9.078125 54.6875 
L 18.109375 54.6875 
L 18.109375 46.1875 
Q 21.34375 51.125 25.703125 53.5625 
Q 30.078125 56 35.796875 56 
Q 45.21875 56 50.046875 50.171875 
Q 54.890625 44.34375 54.890625 33.015625 
" id="BitstreamVeraSans-Roman-6e"/>
      <path d="M 34.28125 27.484375 
Q 23.390625 27.484375 19.1875 25 
Q 14.984375 22.515625 14.984375 16.5 
Q 14.984375 11.71875 18.140625 8.90625 
Q 21.296875 6.109375 26.703125 6.109375 
Q 34.1875 6.109375 38.703125 11.40625 
Q 43.21875 16.703125 43.21875 25.484375 
L 43.21875 27.484375 
z
M 52.203125 31.203125 
L 52.203125 0 
L 43.21875 0 
L 43.21875 8.296875 
Q 40.140625 3.328125 35.546875 0.953125 
Q 30.953125 -1.421875 24.3125 -1.421875 
Q 15.921875 -1.421875 10.953125 3.296875 
Q 6 8.015625 6 15.921875 
Q 6 25.140625 12.171875 29.828125 
Q 18.359375 34.515625 30.609375 34.515625 
L 43.21875 34.515625 
L 43.21875 35.40625 
Q 43.21875 41.609375 39.140625 45 
Q 35.0625 48.390625 27.6875 48.390625 
Q 23 48.390625 18.546875 47.265625 
Q 14.109375 46.140625 10.015625 43.890625 
L 10.015625 52.203125 
Q 14.9375 54.109375 19.578125 55.046875 
Q 24.21875 56 28.609375 56 
Q 40.484375 56 46.34375 49.84375 
Q 52.203125 43.703125 52.203125 31.203125 
" id="BitstreamVeraSans-Roman-61"/>
      <path d="M 30.609375 48.390625 
Q 23.390625 48.390625 19.1875 42.75 
Q 14.984375 37.109375 14.984375 27.296875 
Q 14.984375 17.484375 19.15625 11.84375 
Q 23.34375 6.203125 30.609375 6.203125 
Q 37.796875 6.203125 41.984375 11.859375 
Q 46.1875 17.53125 46.1875 27.296875 
Q 46.1875 37.015625 41.984375 42.703125 
Q 37.796875 48.390625 30.609375 48.390625 
M 30.609375 56 
Q 42.328125 56 49.015625 48.375 
Q 55.71875 40.765625 55.71875 27.296875 
Q 55.71875 13.875 49.015625 6.21875 
Q 42.328125 -1.421875 30.609375 -1.421875 
Q 18.84375 -1.421875 12.171875 6.21875 
Q 5.515625 13.875 5.515625 27.296875 
Q 5.515625 40.765625 12.171875 48.375 
Q 18.84375 56 30.609375 56 
" id="BitstreamVeraSans-Roman-6f"/>
      <path d="M 18.3125 70.21875 
L 18.3125 54.6875 
L 36.8125 54.6875 
L 36.8125 47.703125 
L 18.3125 47.703125 
L 18.3125 18.015625 
Q 18.3125 11.328125 20.140625 9.421875 
Q 21.96875 7.515625 27.59375 7.515625 
L 36.8125 7.515625 
L 36.8125 0 
L 27.59375 0 
Q 17.1875 0 13.234375 3.875 
Q 9.28125 7.765625 9.28125 18.015625 
L 9.28125 47.703125 
L 2.6875 47.703125 
L 2.6875 54.6875 
L 9.28125 54.6875 
L 9.28125 70.21875 
z
" id="BitstreamVeraSans-Roman-74"/>
      <path d="M 54.890625 33.015625 
L 54.890625 0 
L 45.90625 0 
L 45.90625 32.71875 
Q 45.90625 40.484375 42.875 44.328125 
Q 39.84375 48.1875 33.796875 48.1875 
Q 26.515625 48.1875 22.3125 43.546875 
Q 18.109375 38.921875 18.109375 30.90625 
L 18.109375 0 
L 9.078125 0 
L 9.078125 75.984375 
L 18.109375 75.984375 
L 18.109375 46.1875 
Q 21.34375 51.125 25.703125 53.5625 
Q 30.078125 56 35.796875 56 
Q 45.21875 56 50.046875 50.171875 
Q 54.890625 44.34375 54.890625 33.015625 
" id="BitstreamVeraSans-Roman-68"/>
      <path d="M 45.40625 46.390625 
L 45.40625 75.984375 
L 54.390625 75.984375 
L 54.390625 0 
L 45.40625 0 
L 45.40625 8.203125 
Q 42.578125 3.328125 38.25 0.953125 
Q 33.9375 -1.421875 27.875 -1.421875 
Q 17.96875 -1.421875 11.734375 6.484375 
Q 5.515625 14.40625 5.515625 27.296875 
Q 5.515625 40.1875 11.734375 48.09375 
Q 17.96875 56 27.875 56 
Q 33.9375 56 38.25 53.625 
Q 42.578125 51.265625 45.40625 46.390625 
M 14.796875 27.296875 
Q 14.796875 17.390625 18.875 11.75 
Q 22.953125 6.109375 30.078125 6.109375 
Q 37.203125 6.109375 41.296875 11.75 
Q 45.40625 17.390625 45.40625 27.296875 
Q 45.40625 37.203125 41.296875 42.84375 
Q 37.203125 48.484375 30.078125 48.484375 
Q 22.953125 48.484375 18.875 42.84375 
Q 14.796875 37.203125 14.796875 27.296875 
" id="BitstreamVeraSans-Roman-64"/>
      <path d="M 45.40625 27.984375 
Q 45.40625 37.75 41.375 43.109375 
Q 37.359375 48.484375 30.078125 48.484375 
Q 22.859375 48.484375 18.828125 43.109375 
Q 14.796875 37.75 14.796875 27.984375 
Q 14.796875 18.265625 18.828125 12.890625 
Q 22.859375 7.515625 30.078125 7.515625 
Q 37.359375 7.515625 41.375 12.890625 
Q 45.40625 18.265625 45.40625 27.984375 
M 54.390625 6.78125 
Q 54.390625 -7.171875 48.1875 -13.984375 
Q 42 -20.796875 29.203125 -20.796875 
Q 24.46875 -20.796875 20.265625 -20.09375 
Q 16.0625 -19.390625 12.109375 -17.921875 
L 12.109375 -9.1875 
Q 16.0625 -11.328125 19.921875 -12.34375 
Q 23.78125 -13.375 27.78125 -13.375 
Q 36.625 -13.375 41.015625 -8.765625 
Q 45.40625 -4.15625 45.40625 5.171875 
L 45.40625 9.625 
Q 42.625 4.78125 38.28125 2.390625 
Q 33.9375 0 27.875 0 
Q 17.828125 0 11.671875 7.65625 
Q 5.515625 15.328125 5.515625 27.984375 
Q 5.515625 40.671875 11.671875 48.328125 
Q 17.828125 56 27.875 56 
Q 33.9375 56 38.28125 53.609375 
Q 42.625 51.21875 45.40625 46.390625 
L 45.40625 54.6875 
L 54.390625 54.6875 
z
" id="BitstreamVeraSans-Roman-67"/>
      <path d="M 41.109375 46.296875 
Q 39.59375 47.171875 37.8125 47.578125 
Q 36.03125 48 33.890625 48 
Q 26.265625 48 22.1875 43.046875 
Q 18.109375 38.09375 18.109375 28.8125 
L 18.109375 0 
L 9.078125 0 
L 9.078125 54.6875 
L 18.109375 54.6875 
L 18.109375 46.1875 
Q 20.953125 51.171875 25.484375 53.578125 
Q 30.03125 56 36.53125 56 
Q 37.453125 56 38.578125 55.875 
Q 39.703125 55.765625 41.0625 55.515625 
z
" id="BitstreamVeraSans-Roman-72"/>
      <path d="M 44.28125 53.078125 
L 44.28125 44.578125 
Q 40.484375 46.53125 36.375 47.5 
Q 32.28125 48.484375 27.875 48.484375 
Q 21.1875 48.484375 17.84375 46.4375 
Q 14.5 44.390625 14.5 40.28125 
Q 14.5 37.15625 16.890625 35.375 
Q 19.28125 33.59375 26.515625 31.984375 
L 29.59375 31.296875 
Q 39.15625 29.25 43.1875 25.515625 
Q 47.21875 21.78125 47.21875 15.09375 
Q 47.21875 7.46875 41.1875 3.015625 
Q 35.15625 -1.421875 24.609375 -1.421875 
Q 20.21875 -1.421875 15.453125 -0.5625 
Q 10.6875 0.296875 5.421875 2 
L 5.421875 11.28125 
Q 10.40625 8.6875 15.234375 7.390625 
Q 20.0625 6.109375 24.8125 6.109375 
Q 31.15625 6.109375 34.5625 8.28125 
Q 37.984375 10.453125 37.984375 14.40625 
Q 37.984375 18.0625 35.515625 20.015625 
Q 33.0625 21.96875 24.703125 23.78125 
L 21.578125 24.515625 
Q 13.234375 26.265625 9.515625 29.90625 
Q 5.8125 33.546875 5.8125 39.890625 
Q 5.8125 47.609375 11.28125 51.796875 
Q 16.75 56 26.8125 56 
Q 31.78125 56 36.171875 55.265625 
Q 40.578125 54.546875 44.28125 53.078125 
" id="BitstreamVeraSans-Roman-73"/>
      <path d="M 48.78125 52.59375 
L 48.78125 44.1875 
Q 44.96875 46.296875 41.140625 47.34375 
Q 37.3125 48.390625 33.40625 48.390625 
Q 24.65625 48.390625 19.8125 42.84375 
Q 14.984375 37.3125 14.984375 27.296875 
Q 14.984375 17.28125 19.8125 11.734375 
Q 24.65625 6.203125 33.40625 6.203125 
Q 37.3125 6.203125 41.140625 7.25 
Q 44.96875 8.296875 48.78125 10.40625 
L 48.78125 2.09375 
Q 45.015625 0.34375 40.984375 -0.53125 
Q 36.96875 -1.421875 32.421875 -1.421875 
Q 20.0625 -1.421875 12.78125 6.34375 
Q 5.515625 14.109375 5.515625 27.296875 
Q 5.515625 40.671875 12.859375 48.328125 
Q 20.21875 56 33.015625 56 
Q 37.15625 56 41.109375 55.140625 
Q 45.0625 54.296875 48.78125 52.59375 
" id="BitstreamVeraSans-Roman-63"/>
      <path d="M 48.6875 27.296875 
Q 48.6875 37.203125 44.609375 42.84375 
Q 40.53125 48.484375 33.40625 48.484375 
Q 26.265625 48.484375 22.1875 42.84375 
Q 18.109375 37.203125 18.109375 27.296875 
Q 18.109375 17.390625 22.1875 11.75 
Q 26.265625 6.109375 33.40625 6.109375 
Q 40.53125 6.109375 44.609375 11.75 
Q 48.6875 17.390625 48.6875 27.296875 
M 18.109375 46.390625 
Q 20.953125 51.265625 25.265625 53.625 
Q 29.59375 56 35.59375 56 
Q 45.5625 56 51.78125 48.09375 
Q 58.015625 40.1875 58.015625 27.296875 
Q 58.015625 14.40625 51.78125 6.484375 
Q 45.5625 -1.421875 35.59375 -1.421875 
Q 29.59375 -1.421875 25.265625 0.953125 
Q 20.953125 3.328125 18.109375 8.203125 
L 18.109375 0 
L 9.078125 0 
L 9.078125 75.984375 
L 18.109375 75.984375 
z
" id="BitstreamVeraSans-Roman-62"/>
     </defs>
     <g transform="translate(131.420625 306.050625)rotate(-90.0)scale(0.12 -0.12)">
      <use xlink:href="#BitstreamVeraSans-Roman-6e"/>
      <use x="63.37890625" xlink:href="#BitstreamVeraSans-Roman-65"/>
      <use x="124.90234375" xlink:href="#BitstreamVeraSans-Roman-69"/>
      <use x="152.685546875" xlink:href="#BitstreamVeraSans-Roman-67"/>
      <use x="216.162109375" xlink:href="#BitstreamVeraSans-Roman-68"/>
      <use x="279.541015625" xlink:href="#BitstreamVeraSans-Roman-62"/>
      <use x="343.017578125" xlink:href="#BitstreamVeraSans-Roman-6f"/>
      <use x="404.19921875" xlink:href="#BitstreamVeraSans-Roman-72"/>
      <use x="445.3125" xlink:href="#BitstreamVeraSans-Roman-20"/>
      <use x="477.099609375" xlink:href="#BitstreamVeraSans-Roman-64"/>
      <use x="540.576171875" xlink:href="#BitstreamVeraSans-Roman-69"/>
      <use x="568.359375" xlink:href="#BitstreamVeraSans-Roman-73"/>
      <use x="620.458984375" xlink:href="#BitstreamVeraSans-Roman-74"/>
      <use x="659.66796875" xlink:href="#BitstreamVeraSans-Roman-61"/>
      <use x="720.947265625" xlink:href="#BitstreamVeraSans-Roman-6e"/>
      <use x="784.326171875" xlink:href="#BitstreamVeraSans-Roman-63"/>
      <use x="839.306640625" xlink:href="#BitstreamVeraSans-Roman-65"/>
     </g>
    </g>
   </g>
   <g id="text_15">
    <!-- Alignment: neighbor distance -->
    <defs>
     <path d="M 11.71875 12.40625 
L 22.015625 12.40625 
L 22.015625 0 
L 11.71875 0 
z
M 11.71875 51.703125 
L 22.015625 51.703125 
L 22.015625 39.3125 
L 11.71875 39.3125 
z
" id="BitstreamVeraSans-Roman-3a"/>
     <path d="M 9.421875 75.984375 
L 18.40625 75.984375 
L 18.40625 0 
L 9.421875 0 
z
" id="BitstreamVeraSans-Roman-6c"/>
     <path d="M 34.1875 63.1875 
L 20.796875 26.90625 
L 47.609375 26.90625 
z
M 28.609375 72.90625 
L 39.796875 72.90625 
L 67.578125 0 
L 57.328125 0 
L 50.6875 18.703125 
L 17.828125 18.703125 
L 11.1875 0 
L 0.78125 0 
z
" id="BitstreamVeraSans-Roman-41"/>
    </defs>
    <g transform="translate(457.29675 45.4)scale(0.144 -0.144)">
     <use xlink:href="#BitstreamVeraSans-Roman-41"/>
     <use x="68.408203125" xlink:href="#BitstreamVeraSans-Roman-6c"/>
     <use x="96.19140625" xlink:href="#BitstreamVeraSans-Roman-69"/>
     <use x="123.974609375" xlink:href="#BitstreamVeraSans-Roman-67"/>
     <use x="187.451171875" xlink:href="#BitstreamVeraSans-Roman-6e"/>
     <use x="250.830078125" xlink:href="#BitstreamVeraSans-Roman-6d"/>
     <use x="348.2421875" xlink:href="#BitstreamVeraSans-Roman-65"/>
     <use x="409.765625" xlink:href="#BitstreamVeraSans-Roman-6e"/>
     <use x="473.14453125" xlink:href="#BitstreamVeraSans-Roman-74"/>
     <use x="512.353515625" xlink:href="#BitstreamVeraSans-Roman-3a"/>
     <use x="546.044921875" xlink:href="#BitstreamVeraSans-Roman-20"/>
     <use x="577.83203125" xlink:href="#BitstreamVeraSans-Roman-6e"/>
     <use x="641.2109375" xlink:href="#BitstreamVeraSans-Roman-65"/>
     <use x="702.734375" xlink:href="#BitstreamVeraSans-Roman-69"/>
     <use x="730.517578125" xlink:href="#BitstreamVeraSans-Roman-67"/>
     <use x="793.994140625" xlink:href="#BitstreamVeraSans-Roman-68"/>
     <use x="857.373046875" xlink:href="#BitstreamVeraSans-Roman-62"/>
     <use x="920.849609375" xlink:href="#BitstreamVeraSans-Roman-6f"/>
     <use x="982.03125" xlink:href="#BitstreamVeraSans-Roman-72"/>
     <use x="1023.14453125" xlink:href="#BitstreamVeraSans-Roman-20"/>
     <use x="1054.93164062" xlink:href="#BitstreamVeraSans-Roman-64"/>
     <use x="1118.40820312" xlink:href="#BitstreamVeraSans-Roman-69"/>
     <use x="1146.19140625" xlink:href="#BitstreamVeraSans-Roman-73"/>
     <use x="1198.29101562" xlink:href="#BitstreamVeraSans-Roman-74"/>
     <use x="1237.5" xlink:href="#BitstreamVeraSans-Roman-61"/>
     <use x="1298.77929688" xlink:href="#BitstreamVeraSans-Roman-6e"/>
     <use x="1362.15820312" xlink:href="#BitstreamVeraSans-Roman-63"/>
     <use x="1417.13867188" xlink:href="#BitstreamVeraSans-Roman-65"/>
    </g>
   </g>
   <g id="legend_1">
    <g id="patch_7">
     <path d="M 972.72 138.402 
L 1067.04 138.402 
L 1067.04 49.536 
L 972.72 49.536 
z
" style="fill:#ffffff;stroke:#000000;stroke-linejoin:miter;"/>
    </g>
    <g id="line2d_29">
     <path d="M 982.8 61.19775 
L 1002.96 61.19775 
" style="fill:none;stroke:#0000ff;stroke-linecap:square;"/>
    </g>
    <g id="line2d_30"/>
    <g id="text_16">
     <!-- $A_w=1$ -->
     <defs>
      <path d="M 9.28125 0 
L 9.28125 3.515625 
Q 21.78125 3.515625 21.78125 6.6875 
L 21.78125 59.1875 
Q 16.609375 56.6875 8.6875 56.6875 
L 8.6875 60.203125 
Q 20.953125 60.203125 27.203125 66.609375 
L 28.609375 66.609375 
Q 28.953125 66.609375 29.265625 66.328125 
Q 29.59375 66.0625 29.59375 65.71875 
L 29.59375 6.6875 
Q 29.59375 3.515625 42.09375 3.515625 
L 42.09375 0 
z
" id="Cmr10-31"/>
      <path d="M 10.796875 11.625 
Q 10.796875 13.71875 11.359375 16.453125 
Q 11.921875 19.1875 12.59375 21.3125 
Q 13.28125 23.4375 14.90625 27.828125 
Q 16.546875 32.234375 16.703125 32.625 
Q 18.015625 36.28125 18.015625 38.625 
Q 18.015625 41.609375 15.828125 41.609375 
Q 11.859375 41.609375 9.296875 37.53125 
Q 6.734375 33.453125 5.515625 28.421875 
Q 5.328125 27.78125 4.6875 27.78125 
L 3.515625 27.78125 
Q 2.6875 27.78125 2.6875 28.71875 
L 2.6875 29 
Q 4.296875 34.96875 7.609375 39.578125 
Q 10.9375 44.1875 16.015625 44.1875 
Q 19.578125 44.1875 22.046875 41.84375 
Q 24.515625 39.5 24.515625 35.890625 
Q 24.515625 34.03125 23.6875 31.984375 
Q 22.515625 28.953125 20.921875 24.703125 
Q 19.34375 20.453125 18.453125 16.984375 
Q 17.578125 13.53125 17.578125 10.296875 
Q 17.578125 6.390625 19.625 3.953125 
Q 21.6875 1.515625 25.59375 1.515625 
Q 30.90625 1.515625 34.421875 9.625 
Q 34.28125 10.203125 34.28125 11.28125 
Q 34.28125 13.96875 35.109375 17.390625 
L 40.71875 39.890625 
Q 41.0625 41.21875 42.28125 42.15625 
Q 43.5 43.109375 44.921875 43.109375 
Q 46.09375 43.109375 47 42.328125 
Q 47.90625 41.546875 47.90625 40.28125 
Q 47.90625 39.703125 47.796875 39.5 
L 42.1875 17.1875 
Q 41.21875 13.1875 41.21875 10.015625 
Q 41.21875 6.25 42.9375 3.875 
Q 44.671875 1.515625 48.390625 1.515625 
Q 54.828125 1.515625 58.984375 10.015625 
Q 60.546875 13.03125 62.46875 18.9375 
Q 64.40625 24.859375 64.40625 27.984375 
Q 64.40625 30.859375 63.46875 32.546875 
Q 62.546875 34.234375 60.90625 36.1875 
Q 59.28125 38.140625 59.28125 39.109375 
Q 59.28125 41.015625 60.90625 42.640625 
Q 62.546875 44.28125 64.5 44.28125 
Q 66.890625 44.28125 67.9375 42.078125 
Q 69 39.890625 69 37.109375 
Q 69 33.734375 67.875 28.53125 
Q 66.75 23.34375 65.03125 18.09375 
Q 63.328125 12.84375 61.8125 9.71875 
Q 56.34375 -1.125 48.1875 -1.125 
Q 44 -1.125 40.53125 0.484375 
Q 37.0625 2.09375 35.40625 5.609375 
Q 33.796875 2.734375 31.171875 0.796875 
Q 28.5625 -1.125 25.390625 -1.125 
Q 18.796875 -1.125 14.796875 2.015625 
Q 10.796875 5.171875 10.796875 11.625 
" id="Cmmi10-77"/>
      <path d="M 4.5 0 
Q 3.515625 0 3.515625 1.3125 
Q 3.90625 3.515625 4.78125 3.515625 
Q 8.84375 3.515625 11.796875 5.125 
Q 14.75 6.734375 16.890625 10.109375 
Q 17.09375 10.296875 17.09375 10.296875 
L 52.78125 70.515625 
Q 53.5625 71.578125 54.6875 71.578125 
L 56 71.578125 
Q 56.296875 71.578125 56.59375 71.453125 
Q 56.890625 71.34375 57.109375 71.0625 
Q 57.328125 70.796875 57.328125 70.515625 
L 63.375 5.90625 
Q 63.375 5.46875 63.8125 4.59375 
Q 64.796875 3.515625 71.296875 3.515625 
Q 72.3125 3.515625 72.3125 2.203125 
Q 71.96875 0.875 71.75 0.4375 
Q 71.53125 0 70.609375 0 
L 45.609375 0 
Q 44.671875 0 44.671875 1.3125 
Q 45.21875 3.515625 46 3.515625 
Q 53.90625 3.515625 54.390625 6.203125 
L 52.875 22.703125 
L 28.21875 22.703125 
L 20.21875 9.28125 
Q 19.484375 8.203125 19.484375 6.78125 
Q 19.484375 5.03125 21.171875 4.265625 
Q 22.859375 3.515625 24.90625 3.515625 
Q 25.875 3.515625 25.875 2.203125 
Q 25.53125 0.78125 25.328125 0.390625 
Q 25.140625 0 24.21875 0 
z
M 30.171875 26.21875 
L 52.484375 26.21875 
L 49.515625 58.59375 
z
" id="Cmmi10-41"/>
      <path d="M 7.515625 13.28125 
Q 6.6875 13.28125 6.140625 13.90625 
Q 5.609375 14.546875 5.609375 15.28125 
Q 5.609375 16.109375 6.140625 16.6875 
Q 6.6875 17.28125 7.515625 17.28125 
L 70.3125 17.28125 
Q 71.046875 17.28125 71.578125 16.6875 
Q 72.125 16.109375 72.125 15.28125 
Q 72.125 14.546875 71.578125 13.90625 
Q 71.046875 13.28125 70.3125 13.28125 
z
M 7.515625 32.71875 
Q 6.6875 32.71875 6.140625 33.296875 
Q 5.609375 33.890625 5.609375 34.71875 
Q 5.609375 35.453125 6.140625 36.078125 
Q 6.6875 36.71875 7.515625 36.71875 
L 70.3125 36.71875 
Q 71.046875 36.71875 71.578125 36.078125 
Q 72.125 35.453125 72.125 34.71875 
Q 72.125 33.890625 71.578125 33.296875 
Q 71.046875 32.71875 70.3125 32.71875 
z
" id="Cmr10-3d"/>
     </defs>
     <g transform="translate(1018.8 66.23775)scale(0.144 -0.144)">
      <use transform="translate(0.0 0.421875)" xlink:href="#Cmmi10-41"/>
      <use transform="translate(75.0 -16.584375)scale(0.7)" xlink:href="#Cmmi10-77"/>
      <use transform="translate(148.975 0.421875)" xlink:href="#Cmr10-3d"/>
      <use transform="translate(244.219140625 0.421875)" xlink:href="#Cmr10-31"/>
     </g>
    </g>
    <g id="line2d_31">
     <path d="M 982.8 82.33425 
L 1002.96 82.33425 
" style="fill:none;stroke:#008000;stroke-linecap:square;"/>
    </g>
    <g id="line2d_32"/>
    <g id="text_17">
     <!-- $A_w=3$ -->
     <defs>
      <path d="M 9.515625 7.71875 
Q 11.859375 4.296875 15.8125 2.640625 
Q 19.78125 0.984375 24.3125 0.984375 
Q 30.125 0.984375 32.5625 5.9375 
Q 35.015625 10.890625 35.015625 17.1875 
Q 35.015625 20.015625 34.5 22.84375 
Q 33.984375 25.6875 32.765625 28.125 
Q 31.546875 30.5625 29.421875 32.03125 
Q 27.296875 33.5 24.21875 33.5 
L 17.578125 33.5 
Q 16.703125 33.5 16.703125 34.421875 
L 16.703125 35.296875 
Q 16.703125 36.078125 17.578125 36.078125 
L 23.09375 36.53125 
Q 26.609375 36.53125 28.921875 39.15625 
Q 31.25 41.796875 32.328125 45.578125 
Q 33.40625 49.359375 33.40625 52.78125 
Q 33.40625 57.5625 31.15625 60.640625 
Q 28.90625 63.71875 24.3125 63.71875 
Q 20.515625 63.71875 17.046875 62.28125 
Q 13.578125 60.84375 11.53125 57.90625 
Q 11.71875 57.953125 11.859375 57.984375 
Q 12.015625 58.015625 12.203125 58.015625 
Q 14.453125 58.015625 15.96875 56.453125 
Q 17.484375 54.890625 17.484375 52.6875 
Q 17.484375 50.53125 15.96875 48.96875 
Q 14.453125 47.40625 12.203125 47.40625 
Q 10.015625 47.40625 8.453125 48.96875 
Q 6.890625 50.53125 6.890625 52.6875 
Q 6.890625 56.984375 9.46875 60.15625 
Q 12.0625 63.328125 16.140625 64.96875 
Q 20.21875 66.609375 24.3125 66.609375 
Q 27.34375 66.609375 30.703125 65.703125 
Q 34.078125 64.796875 36.8125 63.109375 
Q 39.546875 61.421875 41.28125 58.78125 
Q 43.015625 56.15625 43.015625 52.78125 
Q 43.015625 48.578125 41.140625 45.015625 
Q 39.265625 41.453125 35.984375 38.859375 
Q 32.71875 36.28125 28.8125 35.015625 
Q 33.15625 34.1875 37.0625 31.734375 
Q 40.96875 29.296875 43.328125 25.484375 
Q 45.703125 21.6875 45.703125 17.28125 
Q 45.703125 11.765625 42.671875 7.296875 
Q 39.65625 2.828125 34.71875 0.3125 
Q 29.78125 -2.203125 24.3125 -2.203125 
Q 19.625 -2.203125 14.90625 -0.40625 
Q 10.203125 1.375 7.203125 4.9375 
Q 4.203125 8.5 4.203125 13.484375 
Q 4.203125 15.96875 5.859375 17.625 
Q 7.515625 19.28125 10.015625 19.28125 
Q 11.625 19.28125 12.96875 18.53125 
Q 14.3125 17.78125 15.0625 16.40625 
Q 15.828125 15.046875 15.828125 13.484375 
Q 15.828125 11.03125 14.109375 9.375 
Q 12.40625 7.71875 10.015625 7.71875 
z
" id="Cmr10-33"/>
     </defs>
     <g transform="translate(1018.8 87.37425)scale(0.144 -0.144)">
      <use transform="translate(0.0 0.421875)" xlink:href="#Cmmi10-41"/>
      <use transform="translate(75.0 -16.584375)scale(0.7)" xlink:href="#Cmmi10-77"/>
      <use transform="translate(148.975 0.421875)" xlink:href="#Cmr10-3d"/>
      <use transform="translate(244.219140625 0.421875)" xlink:href="#Cmr10-33"/>
     </g>
    </g>
    <g id="line2d_33">
     <path d="M 982.8 103.47075 
L 1002.96 103.47075 
" style="fill:none;stroke:#ff0000;stroke-linecap:square;"/>
    </g>
    <g id="line2d_34"/>
    <g id="text_18">
     <!-- $A_w=5$ -->
     <defs>
      <path d="M 8.6875 11.375 
Q 9.71875 8.453125 11.84375 6.046875 
Q 13.96875 3.65625 16.875 2.3125 
Q 19.78125 0.984375 22.90625 0.984375 
Q 30.125 0.984375 32.859375 6.59375 
Q 35.59375 12.203125 35.59375 20.21875 
Q 35.59375 23.6875 35.46875 26.046875 
Q 35.359375 28.421875 34.8125 30.609375 
Q 33.890625 34.125 31.5625 36.765625 
Q 29.25 39.40625 25.875 39.40625 
Q 22.515625 39.40625 20.09375 38.375 
Q 17.671875 37.359375 16.15625 35.984375 
Q 14.65625 34.625 13.484375 33.109375 
Q 12.3125 31.59375 12.015625 31.5 
L 10.890625 31.5 
Q 10.640625 31.5 10.265625 31.8125 
Q 9.90625 32.125 9.90625 32.421875 
L 9.90625 65.828125 
Q 9.90625 66.0625 10.21875 66.328125 
Q 10.546875 66.609375 10.890625 66.609375 
L 11.1875 66.609375 
Q 17.921875 63.375 25.484375 63.375 
Q 32.90625 63.375 39.796875 66.609375 
L 40.09375 66.609375 
Q 40.4375 66.609375 40.71875 66.359375 
Q 41.015625 66.109375 41.015625 65.828125 
L 41.015625 64.890625 
Q 41.015625 64.40625 40.828125 64.40625 
Q 37.40625 59.859375 32.25 57.3125 
Q 27.09375 54.78125 21.578125 54.78125 
Q 17.578125 54.78125 13.375 55.90625 
L 13.375 37.015625 
Q 16.703125 39.703125 19.3125 40.84375 
Q 21.921875 42 25.984375 42 
Q 31.5 42 35.859375 38.8125 
Q 40.234375 35.640625 42.578125 30.53125 
Q 44.921875 25.4375 44.921875 20.125 
Q 44.921875 14.109375 41.96875 8.984375 
Q 39.015625 3.859375 33.9375 0.828125 
Q 28.859375 -2.203125 22.90625 -2.203125 
Q 17.96875 -2.203125 13.84375 0.328125 
Q 9.71875 2.875 7.34375 7.171875 
Q 4.984375 11.46875 4.984375 16.3125 
Q 4.984375 18.5625 6.4375 19.96875 
Q 7.90625 21.390625 10.109375 21.390625 
Q 12.3125 21.390625 13.796875 19.9375 
Q 15.28125 18.5 15.28125 16.3125 
Q 15.28125 14.15625 13.796875 12.671875 
Q 12.3125 11.1875 10.109375 11.1875 
Q 9.765625 11.1875 9.328125 11.25 
Q 8.890625 11.328125 8.6875 11.375 
" id="Cmr10-35"/>
     </defs>
     <g transform="translate(1018.8 108.51075)scale(0.144 -0.144)">
      <use transform="translate(0.0 0.421875)" xlink:href="#Cmmi10-41"/>
      <use transform="translate(75.0 -16.584375)scale(0.7)" xlink:href="#Cmmi10-77"/>
      <use transform="translate(148.975 0.421875)" xlink:href="#Cmr10-3d"/>
      <use transform="translate(244.219140625 0.421875)" xlink:href="#Cmr10-35"/>
     </g>
    </g>
    <g id="line2d_35">
     <path d="M 982.8 124.60725 
L 1002.96 124.60725 
" style="fill:none;stroke:#00bfbf;stroke-linecap:square;"/>
    </g>
    <g id="line2d_36"/>
    <g id="text_19">
     <!-- $A_w=7$ -->
     <defs>
      <path d="M 17.390625 2.59375 
Q 17.390625 8.15625 18.359375 13.46875 
Q 19.34375 18.796875 21.21875 24 
Q 23.09375 29.203125 25.75 34.203125 
Q 28.421875 39.203125 31.59375 43.609375 
L 40.71875 56.296875 
L 29.296875 56.296875 
Q 11.53125 56.296875 10.984375 55.8125 
Q 9.671875 54.203125 8.5 46.578125 
L 5.609375 46.578125 
L 8.890625 67.578125 
L 11.8125 67.578125 
L 11.8125 67.28125 
Q 11.8125 65.484375 17.921875 64.9375 
Q 24.03125 64.40625 29.890625 64.40625 
L 48.484375 64.40625 
L 48.484375 61.8125 
Q 48.484375 61.71875 48.453125 61.671875 
Q 48.4375 61.625 48.390625 61.53125 
L 34.625 42.1875 
Q 29.546875 34.671875 28.265625 25.484375 
Q 27 16.3125 27 2.59375 
Q 27 0.640625 25.578125 -0.78125 
Q 24.171875 -2.203125 22.21875 -2.203125 
Q 20.21875 -2.203125 18.796875 -0.78125 
Q 17.390625 0.640625 17.390625 2.59375 
" id="Cmr10-37"/>
     </defs>
     <g transform="translate(1018.8 129.64725)scale(0.144 -0.144)">
      <use transform="translate(0.0 0.421875)" xlink:href="#Cmmi10-41"/>
      <use transform="translate(75.0 -16.584375)scale(0.7)" xlink:href="#Cmmi10-77"/>
      <use transform="translate(148.975 0.421875)" xlink:href="#Cmr10-3d"/>
      <use transform="translate(244.219140625 0.421875)" xlink:href="#Cmr10-37"/>
     </g>
    </g>
   </g>
  </g>
 </g>
 <defs>
  <clipPath id="peda425fcb0">
   <rect height="403.2" width="803.52" x="162.0" y="50.4"/>
  </clipPath>
 </defs>
</svg>
