<?xml version="1.0" encoding="utf-8" standalone="no"?>
<!DOCTYPE svg PUBLIC "-//W3C//DTD SVG 1.1//EN"
  "http://www.w3.org/Graphics/SVG/1.1/DTD/svg11.dtd">
<!-- Created with matplotlib (http://matplotlib.org/) -->
<svg height="504pt" version="1.1" viewBox="0 0 1296 504" width="1296pt" xmlns="http://www.w3.org/2000/svg" xmlns:xlink="http://www.w3.org/1999/xlink">
 <defs>
  <style type="text/css">
*{stroke-linecap:butt;stroke-linejoin:round;stroke-miterlimit:100000;}
  </style>
 </defs>
 <g id="figure_1">
  <g id="patch_1">
   <path d="M 0 504 
L 1296 504 
L 1296 0 
L 0 0 
z
" style="fill:#ffffff;"/>
  </g>
  <g id="axes_1">
   <g id="patch_2">
    <path d="M 162 453.6 
L 965.52 453.6 
L 965.52 50.4 
L 162 50.4 
z
" style="fill:#ffffff;"/>
   </g>
   <g id="line2d_1">
    <path clip-path="url(#pf247fce6af)" d="M 162 98.784 
L 163.60704 104.832 
L 165.21408 122.976 
L 166.82112 143.136 
L 168.42816 147.168 
L 170.0352 153.216 
L 171.64224 175.392 
L 173.24928 187.488 
L 176.46336 203.616 
L 181.28448 239.904 
L 182.89152 254.016 
L 186.1056 274.176 
L 187.71264 274.176 
L 189.31968 280.224 
L 194.1408 292.32 
L 195.74784 298.368 
L 197.35488 302.4 
L 202.176 308.448 
L 203.78304 308.448 
L 205.39008 316.512 
L 206.99712 316.512 
L 210.2112 320.544 
L 211.81824 326.592 
L 213.42528 326.592 
L 215.03232 328.608 
L 216.63936 328.608 
L 218.2464 334.656 
L 221.46048 342.72 
L 223.06752 342.72 
L 226.2816 350.784 
L 227.88864 352.8 
L 229.49568 352.8 
L 231.10272 358.848 
L 234.3168 362.88 
L 235.92384 366.912 
L 239.13792 366.912 
L 240.74496 368.928 
L 245.56608 368.928 
L 247.17312 370.944 
L 255.20832 370.944 
L 256.81536 372.96 
L 263.24352 372.96 
L 264.85056 374.976 
L 268.06464 374.976 
L 269.67168 376.992 
L 271.27872 376.992 
L 272.88576 379.008 
L 274.4928 376.992 
L 290.5632 376.992 
L 292.17024 379.008 
L 293.77728 383.04 
L 295.38432 385.056 
L 296.99136 385.056 
L 300.20544 389.088 
L 305.02656 389.088 
L 306.6336 391.104 
L 308.24064 391.104 
L 311.45472 395.136 
L 313.06176 393.12 
L 314.6688 393.12 
L 316.27584 395.136 
L 317.88288 401.184 
L 324.31104 401.184 
L 325.91808 399.168 
L 327.52512 399.168 
L 330.7392 403.2 
L 338.7744 403.2 
L 340.38144 401.184 
L 343.59552 401.184 
L 345.20256 403.2 
L 361.27296 403.2 
L 362.88 405.216 
L 364.48704 409.248 
L 375.73632 409.248 
L 377.34336 411.264 
L 411.0912 411.264 
L 412.69824 413.28 
L 423.94752 413.28 
L 425.55456 415.296 
L 454.48128 415.296 
L 456.08832 413.28 
L 491.4432 413.28 
L 493.05024 415.296 
L 523.584 415.296 
L 525.19104 417.312 
L 531.6192 417.312 
L 533.22624 419.328 
L 534.83328 417.312 
L 568.58112 417.312 
L 570.18816 419.328 
L 571.7952 419.328 
L 573.40224 417.312 
L 608.75712 417.312 
L 610.36416 419.328 
L 611.9712 419.328 
L 613.57824 421.344 
L 637.68384 421.344 
L 639.29088 419.328 
L 644.112 419.328 
L 645.71904 421.344 
L 647.32608 421.344 
L 648.93312 423.36 
L 676.2528 423.36 
L 677.85984 421.344 
L 722.85696 421.344 
L 724.464 419.328 
L 730.89216 419.328 
L 732.4992 421.344 
L 751.78368 421.344 
L 753.39072 419.328 
L 803.20896 419.328 
L 804.816 421.344 
L 830.52864 421.344 
L 832.13568 423.36 
L 836.9568 423.36 
L 838.56384 425.376 
L 870.70464 425.376 
L 872.31168 427.392 
L 873.91872 425.376 
L 888.38208 425.376 
L 889.98912 423.36 
L 901.2384 423.36 
L 902.84544 425.376 
L 923.73696 425.376 
L 925.344 423.36 
L 938.20032 423.36 
L 939.80736 425.376 
L 947.84256 425.376 
L 949.4496 423.36 
L 957.4848 423.36 
L 959.09184 421.344 
L 963.91296 421.344 
L 963.91296 421.344 
" style="fill:none;stroke:#0000ff;stroke-linecap:square;"/>
   </g>
   <g id="line2d_2">
    <path clip-path="url(#pf247fce6af)" d="M 162 104.832 
L 163.60704 92.736 
L 166.82112 108.864 
L 168.42816 118.944 
L 170.0352 143.136 
L 171.64224 153.216 
L 173.24928 157.248 
L 176.46336 169.344 
L 178.0704 179.424 
L 179.67744 193.536 
L 181.28448 195.552 
L 182.89152 207.648 
L 184.49856 215.712 
L 186.1056 225.792 
L 187.71264 233.856 
L 189.31968 237.888 
L 190.92672 245.952 
L 192.53376 249.984 
L 194.1408 249.984 
L 195.74784 258.048 
L 197.35488 260.064 
L 198.96192 274.176 
L 200.56896 278.208 
L 202.176 284.256 
L 203.78304 292.32 
L 205.39008 292.32 
L 208.60416 304.416 
L 210.2112 308.448 
L 211.81824 310.464 
L 215.03232 310.464 
L 216.63936 312.48 
L 218.2464 320.544 
L 219.85344 324.576 
L 224.67456 330.624 
L 226.2816 334.656 
L 227.88864 336.672 
L 229.49568 344.736 
L 231.10272 348.768 
L 242.352 362.88 
L 247.17312 362.88 
L 248.78016 366.912 
L 255.20832 366.912 
L 256.81536 368.928 
L 258.4224 368.928 
L 261.63648 372.96 
L 263.24352 376.992 
L 264.85056 374.976 
L 266.4576 374.976 
L 268.06464 379.008 
L 269.67168 379.008 
L 271.27872 376.992 
L 272.88576 376.992 
L 274.4928 379.008 
L 277.70688 379.008 
L 279.31392 381.024 
L 280.92096 385.056 
L 282.528 385.056 
L 284.13504 387.072 
L 287.34912 387.072 
L 288.95616 391.104 
L 292.17024 391.104 
L 293.77728 393.12 
L 295.38432 391.104 
L 309.84768 391.104 
L 311.45472 393.12 
L 313.06176 393.12 
L 314.6688 397.152 
L 317.88288 397.152 
L 319.48992 395.136 
L 325.91808 395.136 
L 329.13216 399.168 
L 332.34624 399.168 
L 333.95328 403.2 
L 350.02368 403.2 
L 351.63072 405.216 
L 356.45184 405.216 
L 358.05888 407.232 
L 385.37856 407.232 
L 386.9856 409.248 
L 395.0208 409.248 
L 396.62784 411.264 
L 403.056 411.264 
L 404.66304 413.28 
L 406.27008 413.28 
L 407.87712 411.264 
L 415.91232 411.264 
L 417.51936 413.28 
L 420.73344 413.28 
L 422.34048 415.296 
L 423.94752 415.296 
L 425.55456 417.312 
L 452.87424 417.312 
L 454.48128 419.328 
L 512.33472 419.328 
L 513.94176 421.344 
L 525.19104 421.344 
L 526.79808 423.36 
L 608.75712 423.36 
L 610.36416 421.344 
L 620.0064 421.344 
L 621.61344 423.36 
L 642.50496 423.36 
L 644.112 421.344 
L 645.71904 423.36 
L 665.00352 423.36 
L 666.61056 425.376 
L 679.46688 425.376 
L 681.07392 427.392 
L 693.93024 427.392 
L 695.53728 425.376 
L 697.14432 427.392 
L 698.75136 427.392 
L 700.3584 425.376 
L 701.96544 427.392 
L 711.60768 427.392 
L 713.21472 429.408 
L 718.03584 429.408 
L 719.64288 431.424 
L 743.74848 431.424 
L 745.35552 429.408 
L 751.78368 429.408 
L 753.39072 427.392 
L 764.64 427.392 
L 766.24704 425.376 
L 779.10336 425.376 
L 780.7104 423.36 
L 808.03008 423.36 
L 809.63712 425.376 
L 838.56384 425.376 
L 840.17088 427.392 
L 841.77792 425.376 
L 862.66944 425.376 
L 864.27648 423.36 
L 885.168 423.36 
L 886.77504 425.376 
L 898.02432 425.376 
L 899.63136 427.392 
L 917.3088 427.392 
L 918.91584 425.376 
L 954.27072 425.376 
L 955.87776 423.36 
L 960.69888 423.36 
L 962.30592 425.376 
L 963.91296 425.376 
L 963.91296 425.376 
" style="fill:none;stroke:#008000;stroke-linecap:square;"/>
   </g>
   <g id="line2d_3">
    <path clip-path="url(#pf247fce6af)" d="M 162 76.608 
L 163.60704 76.608 
L 165.21408 90.72 
L 166.82112 112.896 
L 168.42816 131.04 
L 170.0352 141.12 
L 171.64224 161.28 
L 173.24928 171.36 
L 174.85632 187.488 
L 176.46336 189.504 
L 178.0704 201.6 
L 179.67744 211.68 
L 181.28448 217.728 
L 182.89152 217.728 
L 184.49856 229.824 
L 186.1056 237.888 
L 187.71264 239.904 
L 189.31968 247.968 
L 190.92672 252 
L 192.53376 258.048 
L 194.1408 262.08 
L 195.74784 264.096 
L 198.96192 276.192 
L 200.56896 278.208 
L 202.176 290.304 
L 203.78304 300.384 
L 205.39008 304.416 
L 206.99712 312.48 
L 211.81824 318.528 
L 213.42528 328.608 
L 215.03232 328.608 
L 216.63936 334.656 
L 218.2464 332.64 
L 219.85344 332.64 
L 221.46048 336.672 
L 223.06752 336.672 
L 224.67456 340.704 
L 226.2816 342.72 
L 227.88864 342.72 
L 229.49568 344.736 
L 231.10272 350.784 
L 232.70976 350.784 
L 234.3168 352.8 
L 235.92384 352.8 
L 240.74496 358.848 
L 242.352 358.848 
L 243.95904 360.864 
L 245.56608 360.864 
L 247.17312 364.896 
L 255.20832 364.896 
L 258.4224 368.928 
L 260.02944 368.928 
L 263.24352 372.96 
L 264.85056 372.96 
L 266.4576 374.976 
L 268.06464 379.008 
L 282.528 379.008 
L 284.13504 381.024 
L 287.34912 381.024 
L 290.5632 385.056 
L 298.5984 385.056 
L 300.20544 387.072 
L 305.02656 399.168 
L 308.24064 399.168 
L 309.84768 401.184 
L 316.27584 401.184 
L 317.88288 399.168 
L 319.48992 401.184 
L 322.704 401.184 
L 324.31104 399.168 
L 329.13216 399.168 
L 330.7392 403.2 
L 333.95328 407.232 
L 340.38144 407.232 
L 341.98848 409.248 
L 345.20256 409.248 
L 348.41664 413.28 
L 351.63072 413.28 
L 353.23776 411.264 
L 356.45184 411.264 
L 358.05888 409.248 
L 361.27296 409.248 
L 362.88 407.232 
L 364.48704 409.248 
L 372.52224 409.248 
L 374.12928 407.232 
L 375.73632 409.248 
L 378.9504 409.248 
L 380.55744 407.232 
L 382.16448 407.232 
L 383.77152 405.216 
L 391.80672 405.216 
L 393.41376 407.232 
L 399.84192 407.232 
L 401.44896 409.248 
L 412.69824 409.248 
L 414.30528 411.264 
L 415.91232 411.264 
L 417.51936 415.296 
L 419.1264 413.28 
L 420.73344 415.296 
L 422.34048 415.296 
L 423.94752 417.312 
L 427.1616 417.312 
L 428.76864 419.328 
L 443.232 419.328 
L 444.83904 421.344 
L 457.69536 421.344 
L 459.3024 423.36 
L 472.15872 423.36 
L 473.76576 425.376 
L 475.3728 423.36 
L 481.80096 423.36 
L 483.408 421.344 
L 488.22912 421.344 
L 489.83616 423.36 
L 536.44032 423.36 
L 538.04736 421.344 
L 624.82752 421.344 
L 626.43456 423.36 
L 708.3936 423.36 
L 710.00064 421.344 
L 711.60768 421.344 
L 713.21472 423.36 
L 804.816 423.36 
L 806.42304 425.376 
L 896.41728 425.376 
L 898.02432 427.392 
L 901.2384 427.392 
L 902.84544 429.408 
L 963.91296 429.408 
L 963.91296 429.408 
" style="fill:none;stroke:#ff0000;stroke-linecap:square;"/>
   </g>
   <g id="line2d_4">
    <path clip-path="url(#pf247fce6af)" d="M 162 68.544 
L 163.60704 62.496 
L 165.21408 74.592 
L 166.82112 82.656 
L 168.42816 88.704 
L 170.0352 110.88 
L 171.64224 127.008 
L 173.24928 131.04 
L 174.85632 139.104 
L 176.46336 155.232 
L 178.0704 161.28 
L 181.28448 181.44 
L 182.89152 189.504 
L 184.49856 203.616 
L 186.1056 211.68 
L 187.71264 221.76 
L 189.31968 229.824 
L 190.92672 243.936 
L 192.53376 247.968 
L 194.1408 247.968 
L 195.74784 254.016 
L 197.35488 254.016 
L 198.96192 260.064 
L 200.56896 268.128 
L 202.176 270.144 
L 203.78304 278.208 
L 205.39008 274.176 
L 206.99712 280.224 
L 208.60416 292.32 
L 210.2112 294.336 
L 211.81824 294.336 
L 213.42528 298.368 
L 215.03232 304.416 
L 216.63936 314.496 
L 221.46048 326.592 
L 226.2816 326.592 
L 235.92384 338.688 
L 237.53088 342.72 
L 239.13792 344.736 
L 240.74496 348.768 
L 242.352 350.784 
L 245.56608 350.784 
L 248.78016 354.816 
L 250.3872 354.816 
L 251.99424 352.8 
L 255.20832 356.832 
L 256.81536 356.832 
L 258.4224 358.848 
L 260.02944 358.848 
L 261.63648 360.864 
L 263.24352 360.864 
L 264.85056 364.896 
L 266.4576 364.896 
L 268.06464 366.912 
L 269.67168 366.912 
L 271.27872 368.928 
L 274.4928 368.928 
L 276.09984 370.944 
L 282.528 370.944 
L 284.13504 372.96 
L 285.74208 372.96 
L 288.95616 376.992 
L 290.5632 381.024 
L 292.17024 383.04 
L 293.77728 383.04 
L 295.38432 385.056 
L 296.99136 389.088 
L 298.5984 389.088 
L 300.20544 391.104 
L 303.41952 391.104 
L 306.6336 395.136 
L 311.45472 395.136 
L 314.6688 399.168 
L 316.27584 397.152 
L 319.48992 397.152 
L 321.09696 401.184 
L 327.52512 401.184 
L 329.13216 403.2 
L 330.7392 403.2 
L 332.34624 405.216 
L 333.95328 403.2 
L 337.16736 403.2 
L 338.7744 407.232 
L 340.38144 409.248 
L 341.98848 409.248 
L 343.59552 413.28 
L 345.20256 415.296 
L 358.05888 415.296 
L 359.66592 413.28 
L 375.73632 413.28 
L 377.34336 415.296 
L 390.19968 415.296 
L 391.80672 417.312 
L 396.62784 417.312 
L 398.23488 419.328 
L 409.48416 419.328 
L 411.0912 421.344 
L 431.98272 421.344 
L 433.58976 423.36 
L 440.01792 423.36 
L 441.62496 425.376 
L 468.94464 425.376 
L 470.55168 423.36 
L 493.05024 423.36 
L 494.65728 425.376 
L 496.26432 423.36 
L 499.4784 423.36 
L 502.69248 427.392 
L 557.33184 427.392 
L 558.93888 429.408 
L 605.54304 429.408 
L 607.15008 431.424 
L 608.75712 429.408 
L 610.36416 431.424 
L 621.61344 431.424 
L 623.22048 429.408 
L 655.36128 429.408 
L 656.96832 431.424 
L 674.64576 431.424 
L 676.2528 429.408 
L 824.10048 429.408 
L 825.70752 431.424 
L 833.74272 431.424 
L 835.34976 429.408 
L 963.91296 429.408 
L 963.91296 429.408 
" style="fill:none;stroke:#00bfbf;stroke-linecap:square;"/>
   </g>
   <g id="patch_3">
    <path d="M 162 50.4 
L 965.52 50.4 
" style="fill:none;stroke:#000000;stroke-linecap:square;stroke-linejoin:miter;"/>
   </g>
   <g id="patch_4">
    <path d="M 965.52 453.6 
L 965.52 50.4 
" style="fill:none;stroke:#000000;stroke-linecap:square;stroke-linejoin:miter;"/>
   </g>
   <g id="patch_5">
    <path d="M 162 453.6 
L 965.52 453.6 
" style="fill:none;stroke:#000000;stroke-linecap:square;stroke-linejoin:miter;"/>
   </g>
   <g id="patch_6">
    <path d="M 162 453.6 
L 162 50.4 
" style="fill:none;stroke:#000000;stroke-linecap:square;stroke-linejoin:miter;"/>
   </g>
   <g id="matplotlib.axis_1">
    <g id="xtick_1">
     <g id="line2d_5">
      <defs>
       <path d="M 0 0 
L 0 -4 
" id="m7a8df33398" style="stroke:#000000;stroke-width:0.5;"/>
      </defs>
      <g>
       <use style="stroke:#000000;stroke-width:0.5;" x="162.0" xlink:href="#m7a8df33398" y="453.6"/>
      </g>
     </g>
     <g id="line2d_6">
      <defs>
       <path d="M 0 0 
L 0 4 
" id="m27b5966bd1" style="stroke:#000000;stroke-width:0.5;"/>
      </defs>
      <g>
       <use style="stroke:#000000;stroke-width:0.5;" x="162.0" xlink:href="#m27b5966bd1" y="50.4"/>
      </g>
     </g>
     <g id="text_1">
      <!-- 0 -->
      <defs>
       <path d="M 31.78125 66.40625 
Q 24.171875 66.40625 20.328125 58.90625 
Q 16.5 51.421875 16.5 36.375 
Q 16.5 21.390625 20.328125 13.890625 
Q 24.171875 6.390625 31.78125 6.390625 
Q 39.453125 6.390625 43.28125 13.890625 
Q 47.125 21.390625 47.125 36.375 
Q 47.125 51.421875 43.28125 58.90625 
Q 39.453125 66.40625 31.78125 66.40625 
M 31.78125 74.21875 
Q 44.046875 74.21875 50.515625 64.515625 
Q 56.984375 54.828125 56.984375 36.375 
Q 56.984375 17.96875 50.515625 8.265625 
Q 44.046875 -1.421875 31.78125 -1.421875 
Q 19.53125 -1.421875 13.0625 8.265625 
Q 6.59375 17.96875 6.59375 36.375 
Q 6.59375 54.828125 13.0625 64.515625 
Q 19.53125 74.21875 31.78125 74.21875 
" id="BitstreamVeraSans-Roman-30"/>
      </defs>
      <g transform="translate(158.1825 466.718125)scale(0.12 -0.12)">
       <use xlink:href="#BitstreamVeraSans-Roman-30"/>
      </g>
     </g>
    </g>
    <g id="xtick_2">
     <g id="line2d_7">
      <g>
       <use style="stroke:#000000;stroke-width:0.5;" x="322.704" xlink:href="#m7a8df33398" y="453.6"/>
      </g>
     </g>
     <g id="line2d_8">
      <g>
       <use style="stroke:#000000;stroke-width:0.5;" x="322.704" xlink:href="#m27b5966bd1" y="50.4"/>
      </g>
     </g>
     <g id="text_2">
      <!-- 100 -->
      <defs>
       <path d="M 12.40625 8.296875 
L 28.515625 8.296875 
L 28.515625 63.921875 
L 10.984375 60.40625 
L 10.984375 69.390625 
L 28.421875 72.90625 
L 38.28125 72.90625 
L 38.28125 8.296875 
L 54.390625 8.296875 
L 54.390625 0 
L 12.40625 0 
z
" id="BitstreamVeraSans-Roman-31"/>
      </defs>
      <g transform="translate(311.2515 466.718125)scale(0.12 -0.12)">
       <use xlink:href="#BitstreamVeraSans-Roman-31"/>
       <use x="63.623046875" xlink:href="#BitstreamVeraSans-Roman-30"/>
       <use x="127.24609375" xlink:href="#BitstreamVeraSans-Roman-30"/>
      </g>
     </g>
    </g>
    <g id="xtick_3">
     <g id="line2d_9">
      <g>
       <use style="stroke:#000000;stroke-width:0.5;" x="483.408" xlink:href="#m7a8df33398" y="453.6"/>
      </g>
     </g>
     <g id="line2d_10">
      <g>
       <use style="stroke:#000000;stroke-width:0.5;" x="483.408" xlink:href="#m27b5966bd1" y="50.4"/>
      </g>
     </g>
     <g id="text_3">
      <!-- 200 -->
      <defs>
       <path d="M 19.1875 8.296875 
L 53.609375 8.296875 
L 53.609375 0 
L 7.328125 0 
L 7.328125 8.296875 
Q 12.9375 14.109375 22.625 23.890625 
Q 32.328125 33.6875 34.8125 36.53125 
Q 39.546875 41.84375 41.421875 45.53125 
Q 43.3125 49.21875 43.3125 52.78125 
Q 43.3125 58.59375 39.234375 62.25 
Q 35.15625 65.921875 28.609375 65.921875 
Q 23.96875 65.921875 18.8125 64.3125 
Q 13.671875 62.703125 7.8125 59.421875 
L 7.8125 69.390625 
Q 13.765625 71.78125 18.9375 73 
Q 24.125 74.21875 28.421875 74.21875 
Q 39.75 74.21875 46.484375 68.546875 
Q 53.21875 62.890625 53.21875 53.421875 
Q 53.21875 48.921875 51.53125 44.890625 
Q 49.859375 40.875 45.40625 35.40625 
Q 44.1875 33.984375 37.640625 27.21875 
Q 31.109375 20.453125 19.1875 8.296875 
" id="BitstreamVeraSans-Roman-32"/>
      </defs>
      <g transform="translate(471.9555 466.718125)scale(0.12 -0.12)">
       <use xlink:href="#BitstreamVeraSans-Roman-32"/>
       <use x="63.623046875" xlink:href="#BitstreamVeraSans-Roman-30"/>
       <use x="127.24609375" xlink:href="#BitstreamVeraSans-Roman-30"/>
      </g>
     </g>
    </g>
    <g id="xtick_4">
     <g id="line2d_11">
      <g>
       <use style="stroke:#000000;stroke-width:0.5;" x="644.112" xlink:href="#m7a8df33398" y="453.6"/>
      </g>
     </g>
     <g id="line2d_12">
      <g>
       <use style="stroke:#000000;stroke-width:0.5;" x="644.112" xlink:href="#m27b5966bd1" y="50.4"/>
      </g>
     </g>
     <g id="text_4">
      <!-- 300 -->
      <defs>
       <path d="M 40.578125 39.3125 
Q 47.65625 37.796875 51.625 33 
Q 55.609375 28.21875 55.609375 21.1875 
Q 55.609375 10.40625 48.1875 4.484375 
Q 40.765625 -1.421875 27.09375 -1.421875 
Q 22.515625 -1.421875 17.65625 -0.515625 
Q 12.796875 0.390625 7.625 2.203125 
L 7.625 11.71875 
Q 11.71875 9.328125 16.59375 8.109375 
Q 21.484375 6.890625 26.8125 6.890625 
Q 36.078125 6.890625 40.9375 10.546875 
Q 45.796875 14.203125 45.796875 21.1875 
Q 45.796875 27.640625 41.28125 31.265625 
Q 36.765625 34.90625 28.71875 34.90625 
L 20.21875 34.90625 
L 20.21875 43.015625 
L 29.109375 43.015625 
Q 36.375 43.015625 40.234375 45.921875 
Q 44.09375 48.828125 44.09375 54.296875 
Q 44.09375 59.90625 40.109375 62.90625 
Q 36.140625 65.921875 28.71875 65.921875 
Q 24.65625 65.921875 20.015625 65.03125 
Q 15.375 64.15625 9.8125 62.3125 
L 9.8125 71.09375 
Q 15.4375 72.65625 20.34375 73.4375 
Q 25.25 74.21875 29.59375 74.21875 
Q 40.828125 74.21875 47.359375 69.109375 
Q 53.90625 64.015625 53.90625 55.328125 
Q 53.90625 49.265625 50.4375 45.09375 
Q 46.96875 40.921875 40.578125 39.3125 
" id="BitstreamVeraSans-Roman-33"/>
      </defs>
      <g transform="translate(632.6595 466.718125)scale(0.12 -0.12)">
       <use xlink:href="#BitstreamVeraSans-Roman-33"/>
       <use x="63.623046875" xlink:href="#BitstreamVeraSans-Roman-30"/>
       <use x="127.24609375" xlink:href="#BitstreamVeraSans-Roman-30"/>
      </g>
     </g>
    </g>
    <g id="xtick_5">
     <g id="line2d_13">
      <g>
       <use style="stroke:#000000;stroke-width:0.5;" x="804.816" xlink:href="#m7a8df33398" y="453.6"/>
      </g>
     </g>
     <g id="line2d_14">
      <g>
       <use style="stroke:#000000;stroke-width:0.5;" x="804.816" xlink:href="#m27b5966bd1" y="50.4"/>
      </g>
     </g>
     <g id="text_5">
      <!-- 400 -->
      <defs>
       <path d="M 37.796875 64.3125 
L 12.890625 25.390625 
L 37.796875 25.390625 
z
M 35.203125 72.90625 
L 47.609375 72.90625 
L 47.609375 25.390625 
L 58.015625 25.390625 
L 58.015625 17.1875 
L 47.609375 17.1875 
L 47.609375 0 
L 37.796875 0 
L 37.796875 17.1875 
L 4.890625 17.1875 
L 4.890625 26.703125 
z
" id="BitstreamVeraSans-Roman-34"/>
      </defs>
      <g transform="translate(793.3635 466.718125)scale(0.12 -0.12)">
       <use xlink:href="#BitstreamVeraSans-Roman-34"/>
       <use x="63.623046875" xlink:href="#BitstreamVeraSans-Roman-30"/>
       <use x="127.24609375" xlink:href="#BitstreamVeraSans-Roman-30"/>
      </g>
     </g>
    </g>
    <g id="xtick_6">
     <g id="line2d_15">
      <g>
       <use style="stroke:#000000;stroke-width:0.5;" x="965.52" xlink:href="#m7a8df33398" y="453.6"/>
      </g>
     </g>
     <g id="line2d_16">
      <g>
       <use style="stroke:#000000;stroke-width:0.5;" x="965.52" xlink:href="#m27b5966bd1" y="50.4"/>
      </g>
     </g>
     <g id="text_6">
      <!-- 500 -->
      <defs>
       <path d="M 10.796875 72.90625 
L 49.515625 72.90625 
L 49.515625 64.59375 
L 19.828125 64.59375 
L 19.828125 46.734375 
Q 21.96875 47.46875 24.109375 47.828125 
Q 26.265625 48.1875 28.421875 48.1875 
Q 40.625 48.1875 47.75 41.5 
Q 54.890625 34.8125 54.890625 23.390625 
Q 54.890625 11.625 47.5625 5.09375 
Q 40.234375 -1.421875 26.90625 -1.421875 
Q 22.3125 -1.421875 17.546875 -0.640625 
Q 12.796875 0.140625 7.71875 1.703125 
L 7.71875 11.625 
Q 12.109375 9.234375 16.796875 8.0625 
Q 21.484375 6.890625 26.703125 6.890625 
Q 35.15625 6.890625 40.078125 11.328125 
Q 45.015625 15.765625 45.015625 23.390625 
Q 45.015625 31 40.078125 35.4375 
Q 35.15625 39.890625 26.703125 39.890625 
Q 22.75 39.890625 18.8125 39.015625 
Q 14.890625 38.140625 10.796875 36.28125 
z
" id="BitstreamVeraSans-Roman-35"/>
      </defs>
      <g transform="translate(954.0675 466.718125)scale(0.12 -0.12)">
       <use xlink:href="#BitstreamVeraSans-Roman-35"/>
       <use x="63.623046875" xlink:href="#BitstreamVeraSans-Roman-30"/>
       <use x="127.24609375" xlink:href="#BitstreamVeraSans-Roman-30"/>
      </g>
     </g>
    </g>
    <g id="text_7">
     <!-- Time -->
     <defs>
      <path d="M 56.203125 29.59375 
L 56.203125 25.203125 
L 14.890625 25.203125 
Q 15.484375 15.921875 20.484375 11.0625 
Q 25.484375 6.203125 34.421875 6.203125 
Q 39.59375 6.203125 44.453125 7.46875 
Q 49.3125 8.734375 54.109375 11.28125 
L 54.109375 2.78125 
Q 49.265625 0.734375 44.1875 -0.34375 
Q 39.109375 -1.421875 33.890625 -1.421875 
Q 20.796875 -1.421875 13.15625 6.1875 
Q 5.515625 13.8125 5.515625 26.8125 
Q 5.515625 40.234375 12.765625 48.109375 
Q 20.015625 56 32.328125 56 
Q 43.359375 56 49.78125 48.890625 
Q 56.203125 41.796875 56.203125 29.59375 
M 47.21875 32.234375 
Q 47.125 39.59375 43.09375 43.984375 
Q 39.0625 48.390625 32.421875 48.390625 
Q 24.90625 48.390625 20.390625 44.140625 
Q 15.875 39.890625 15.1875 32.171875 
z
" id="BitstreamVeraSans-Roman-65"/>
      <path d="M 9.421875 54.6875 
L 18.40625 54.6875 
L 18.40625 0 
L 9.421875 0 
z
M 9.421875 75.984375 
L 18.40625 75.984375 
L 18.40625 64.59375 
L 9.421875 64.59375 
z
" id="BitstreamVeraSans-Roman-69"/>
      <path d="M -0.296875 72.90625 
L 61.375 72.90625 
L 61.375 64.59375 
L 35.5 64.59375 
L 35.5 0 
L 25.59375 0 
L 25.59375 64.59375 
L -0.296875 64.59375 
z
" id="BitstreamVeraSans-Roman-54"/>
      <path d="M 52 44.1875 
Q 55.375 50.25 60.0625 53.125 
Q 64.75 56 71.09375 56 
Q 79.640625 56 84.28125 50.015625 
Q 88.921875 44.046875 88.921875 33.015625 
L 88.921875 0 
L 79.890625 0 
L 79.890625 32.71875 
Q 79.890625 40.578125 77.09375 44.375 
Q 74.3125 48.1875 68.609375 48.1875 
Q 61.625 48.1875 57.5625 43.546875 
Q 53.515625 38.921875 53.515625 30.90625 
L 53.515625 0 
L 44.484375 0 
L 44.484375 32.71875 
Q 44.484375 40.625 41.703125 44.40625 
Q 38.921875 48.1875 33.109375 48.1875 
Q 26.21875 48.1875 22.15625 43.53125 
Q 18.109375 38.875 18.109375 30.90625 
L 18.109375 0 
L 9.078125 0 
L 9.078125 54.6875 
L 18.109375 54.6875 
L 18.109375 46.1875 
Q 21.1875 51.21875 25.484375 53.609375 
Q 29.78125 56 35.6875 56 
Q 41.65625 56 45.828125 52.96875 
Q 50 49.953125 52 44.1875 
" id="BitstreamVeraSans-Roman-6d"/>
     </defs>
     <g transform="translate(548.895 483.331875)scale(0.12 -0.12)">
      <use xlink:href="#BitstreamVeraSans-Roman-54"/>
      <use x="61.037109375" xlink:href="#BitstreamVeraSans-Roman-69"/>
      <use x="88.8203125" xlink:href="#BitstreamVeraSans-Roman-6d"/>
      <use x="186.232421875" xlink:href="#BitstreamVeraSans-Roman-65"/>
     </g>
    </g>
   </g>
   <g id="matplotlib.axis_2">
    <g id="ytick_1">
     <g id="line2d_17">
      <defs>
       <path d="M 0 0 
L 4 0 
" id="m1bbcc9ec7e" style="stroke:#000000;stroke-width:0.5;"/>
      </defs>
      <g>
       <use style="stroke:#000000;stroke-width:0.5;" x="162.0" xlink:href="#m1bbcc9ec7e" y="453.6"/>
      </g>
     </g>
     <g id="line2d_18">
      <defs>
       <path d="M 0 0 
L -4 0 
" id="m91bf2c4b4a" style="stroke:#000000;stroke-width:0.5;"/>
      </defs>
      <g>
       <use style="stroke:#000000;stroke-width:0.5;" x="965.52" xlink:href="#m91bf2c4b4a" y="453.6"/>
      </g>
     </g>
     <g id="text_8">
      <!-- 0 -->
      <g transform="translate(150.365 456.91125)scale(0.12 -0.12)">
       <use xlink:href="#BitstreamVeraSans-Roman-30"/>
      </g>
     </g>
    </g>
    <g id="ytick_2">
     <g id="line2d_19">
      <g>
       <use style="stroke:#000000;stroke-width:0.5;" x="162.0" xlink:href="#m1bbcc9ec7e" y="352.8"/>
      </g>
     </g>
     <g id="line2d_20">
      <g>
       <use style="stroke:#000000;stroke-width:0.5;" x="965.52" xlink:href="#m91bf2c4b4a" y="352.8"/>
      </g>
     </g>
     <g id="text_9">
      <!-- 5 -->
      <g transform="translate(150.365 356.11125)scale(0.12 -0.12)">
       <use xlink:href="#BitstreamVeraSans-Roman-35"/>
      </g>
     </g>
    </g>
    <g id="ytick_3">
     <g id="line2d_21">
      <g>
       <use style="stroke:#000000;stroke-width:0.5;" x="162.0" xlink:href="#m1bbcc9ec7e" y="252.0"/>
      </g>
     </g>
     <g id="line2d_22">
      <g>
       <use style="stroke:#000000;stroke-width:0.5;" x="965.52" xlink:href="#m91bf2c4b4a" y="252.0"/>
      </g>
     </g>
     <g id="text_10">
      <!-- 10 -->
      <g transform="translate(142.73 255.31125)scale(0.12 -0.12)">
       <use xlink:href="#BitstreamVeraSans-Roman-31"/>
       <use x="63.623046875" xlink:href="#BitstreamVeraSans-Roman-30"/>
      </g>
     </g>
    </g>
    <g id="ytick_4">
     <g id="line2d_23">
      <g>
       <use style="stroke:#000000;stroke-width:0.5;" x="162.0" xlink:href="#m1bbcc9ec7e" y="151.2"/>
      </g>
     </g>
     <g id="line2d_24">
      <g>
       <use style="stroke:#000000;stroke-width:0.5;" x="965.52" xlink:href="#m91bf2c4b4a" y="151.2"/>
      </g>
     </g>
     <g id="text_11">
      <!-- 15 -->
      <g transform="translate(142.73 154.51125)scale(0.12 -0.12)">
       <use xlink:href="#BitstreamVeraSans-Roman-31"/>
       <use x="63.623046875" xlink:href="#BitstreamVeraSans-Roman-35"/>
      </g>
     </g>
    </g>
    <g id="ytick_5">
     <g id="line2d_25">
      <g>
       <use style="stroke:#000000;stroke-width:0.5;" x="162.0" xlink:href="#m1bbcc9ec7e" y="50.4"/>
      </g>
     </g>
     <g id="line2d_26">
      <g>
       <use style="stroke:#000000;stroke-width:0.5;" x="965.52" xlink:href="#m91bf2c4b4a" y="50.4"/>
      </g>
     </g>
     <g id="text_12">
      <!-- 20 -->
      <g transform="translate(142.73 53.71125)scale(0.12 -0.12)">
       <use xlink:href="#BitstreamVeraSans-Roman-32"/>
       <use x="63.623046875" xlink:href="#BitstreamVeraSans-Roman-30"/>
      </g>
     </g>
    </g>
    <g id="text_13">
     <!-- #flocks -->
     <defs>
      <path d="M 51.125 44 
L 36.921875 44 
L 32.8125 27.6875 
L 47.125 27.6875 
z
M 43.796875 71.78125 
L 38.71875 51.515625 
L 52.984375 51.515625 
L 58.109375 71.78125 
L 65.921875 71.78125 
L 60.890625 51.515625 
L 76.125 51.515625 
L 76.125 44 
L 58.984375 44 
L 54.984375 27.6875 
L 70.515625 27.6875 
L 70.515625 20.21875 
L 53.078125 20.21875 
L 48 0 
L 40.1875 0 
L 45.21875 20.21875 
L 30.90625 20.21875 
L 25.875 0 
L 18.015625 0 
L 23.09375 20.21875 
L 7.71875 20.21875 
L 7.71875 27.6875 
L 24.90625 27.6875 
L 29 44 
L 13.28125 44 
L 13.28125 51.515625 
L 30.90625 51.515625 
L 35.890625 71.78125 
z
" id="BitstreamVeraSans-Roman-23"/>
      <path d="M 30.609375 48.390625 
Q 23.390625 48.390625 19.1875 42.75 
Q 14.984375 37.109375 14.984375 27.296875 
Q 14.984375 17.484375 19.15625 11.84375 
Q 23.34375 6.203125 30.609375 6.203125 
Q 37.796875 6.203125 41.984375 11.859375 
Q 46.1875 17.53125 46.1875 27.296875 
Q 46.1875 37.015625 41.984375 42.703125 
Q 37.796875 48.390625 30.609375 48.390625 
M 30.609375 56 
Q 42.328125 56 49.015625 48.375 
Q 55.71875 40.765625 55.71875 27.296875 
Q 55.71875 13.875 49.015625 6.21875 
Q 42.328125 -1.421875 30.609375 -1.421875 
Q 18.84375 -1.421875 12.171875 6.21875 
Q 5.515625 13.875 5.515625 27.296875 
Q 5.515625 40.765625 12.171875 48.375 
Q 18.84375 56 30.609375 56 
" id="BitstreamVeraSans-Roman-6f"/>
      <path d="M 9.421875 75.984375 
L 18.40625 75.984375 
L 18.40625 0 
L 9.421875 0 
z
" id="BitstreamVeraSans-Roman-6c"/>
      <path d="M 9.078125 75.984375 
L 18.109375 75.984375 
L 18.109375 31.109375 
L 44.921875 54.6875 
L 56.390625 54.6875 
L 27.390625 29.109375 
L 57.625 0 
L 45.90625 0 
L 18.109375 26.703125 
L 18.109375 0 
L 9.078125 0 
z
" id="BitstreamVeraSans-Roman-6b"/>
      <path d="M 37.109375 75.984375 
L 37.109375 68.5 
L 28.515625 68.5 
Q 23.6875 68.5 21.796875 66.546875 
Q 19.921875 64.59375 19.921875 59.515625 
L 19.921875 54.6875 
L 34.71875 54.6875 
L 34.71875 47.703125 
L 19.921875 47.703125 
L 19.921875 0 
L 10.890625 0 
L 10.890625 47.703125 
L 2.296875 47.703125 
L 2.296875 54.6875 
L 10.890625 54.6875 
L 10.890625 58.5 
Q 10.890625 67.625 15.140625 71.796875 
Q 19.390625 75.984375 28.609375 75.984375 
z
" id="BitstreamVeraSans-Roman-66"/>
      <path d="M 44.28125 53.078125 
L 44.28125 44.578125 
Q 40.484375 46.53125 36.375 47.5 
Q 32.28125 48.484375 27.875 48.484375 
Q 21.1875 48.484375 17.84375 46.4375 
Q 14.5 44.390625 14.5 40.28125 
Q 14.5 37.15625 16.890625 35.375 
Q 19.28125 33.59375 26.515625 31.984375 
L 29.59375 31.296875 
Q 39.15625 29.25 43.1875 25.515625 
Q 47.21875 21.78125 47.21875 15.09375 
Q 47.21875 7.46875 41.1875 3.015625 
Q 35.15625 -1.421875 24.609375 -1.421875 
Q 20.21875 -1.421875 15.453125 -0.5625 
Q 10.6875 0.296875 5.421875 2 
L 5.421875 11.28125 
Q 10.40625 8.6875 15.234375 7.390625 
Q 20.0625 6.109375 24.8125 6.109375 
Q 31.15625 6.109375 34.5625 8.28125 
Q 37.984375 10.453125 37.984375 14.40625 
Q 37.984375 18.0625 35.515625 20.015625 
Q 33.0625 21.96875 24.703125 23.78125 
L 21.578125 24.515625 
Q 13.234375 26.265625 9.515625 29.90625 
Q 5.8125 33.546875 5.8125 39.890625 
Q 5.8125 47.609375 11.28125 51.796875 
Q 16.75 56 26.8125 56 
Q 31.78125 56 36.171875 55.265625 
Q 40.578125 54.546875 44.28125 53.078125 
" id="BitstreamVeraSans-Roman-73"/>
      <path d="M 48.78125 52.59375 
L 48.78125 44.1875 
Q 44.96875 46.296875 41.140625 47.34375 
Q 37.3125 48.390625 33.40625 48.390625 
Q 24.65625 48.390625 19.8125 42.84375 
Q 14.984375 37.3125 14.984375 27.296875 
Q 14.984375 17.28125 19.8125 11.734375 
Q 24.65625 6.203125 33.40625 6.203125 
Q 37.3125 6.203125 41.140625 7.25 
Q 44.96875 8.296875 48.78125 10.40625 
L 48.78125 2.09375 
Q 45.015625 0.34375 40.984375 -0.53125 
Q 36.96875 -1.421875 32.421875 -1.421875 
Q 20.0625 -1.421875 12.78125 6.34375 
Q 5.515625 14.109375 5.515625 27.296875 
Q 5.515625 40.671875 12.859375 48.328125 
Q 20.21875 56 33.015625 56 
Q 37.15625 56 41.109375 55.140625 
Q 45.0625 54.296875 48.78125 52.59375 
" id="BitstreamVeraSans-Roman-63"/>
     </defs>
     <g transform="translate(135.234375 274.3771875)rotate(-90.0)scale(0.12 -0.12)">
      <use xlink:href="#BitstreamVeraSans-Roman-23"/>
      <use x="83.7890625" xlink:href="#BitstreamVeraSans-Roman-66"/>
      <use x="118.994140625" xlink:href="#BitstreamVeraSans-Roman-6c"/>
      <use x="146.77734375" xlink:href="#BitstreamVeraSans-Roman-6f"/>
      <use x="207.958984375" xlink:href="#BitstreamVeraSans-Roman-63"/>
      <use x="262.939453125" xlink:href="#BitstreamVeraSans-Roman-6b"/>
      <use x="320.849609375" xlink:href="#BitstreamVeraSans-Roman-73"/>
     </g>
    </g>
   </g>
   <g id="text_14">
    <!-- Alignment: #flocks -->
    <defs>
     <path id="BitstreamVeraSans-Roman-20"/>
     <path d="M 54.890625 33.015625 
L 54.890625 0 
L 45.90625 0 
L 45.90625 32.71875 
Q 45.90625 40.484375 42.875 44.328125 
Q 39.84375 48.1875 33.796875 48.1875 
Q 26.515625 48.1875 22.3125 43.546875 
Q 18.109375 38.921875 18.109375 30.90625 
L 18.109375 0 
L 9.078125 0 
L 9.078125 54.6875 
L 18.109375 54.6875 
L 18.109375 46.1875 
Q 21.34375 51.125 25.703125 53.5625 
Q 30.078125 56 35.796875 56 
Q 45.21875 56 50.046875 50.171875 
Q 54.890625 44.34375 54.890625 33.015625 
" id="BitstreamVeraSans-Roman-6e"/>
     <path d="M 11.71875 12.40625 
L 22.015625 12.40625 
L 22.015625 0 
L 11.71875 0 
z
M 11.71875 51.703125 
L 22.015625 51.703125 
L 22.015625 39.3125 
L 11.71875 39.3125 
z
" id="BitstreamVeraSans-Roman-3a"/>
     <path d="M 34.1875 63.1875 
L 20.796875 26.90625 
L 47.609375 26.90625 
z
M 28.609375 72.90625 
L 39.796875 72.90625 
L 67.578125 0 
L 57.328125 0 
L 50.6875 18.703125 
L 17.828125 18.703125 
L 11.1875 0 
L 0.78125 0 
z
" id="BitstreamVeraSans-Roman-41"/>
     <path d="M 45.40625 27.984375 
Q 45.40625 37.75 41.375 43.109375 
Q 37.359375 48.484375 30.078125 48.484375 
Q 22.859375 48.484375 18.828125 43.109375 
Q 14.796875 37.75 14.796875 27.984375 
Q 14.796875 18.265625 18.828125 12.890625 
Q 22.859375 7.515625 30.078125 7.515625 
Q 37.359375 7.515625 41.375 12.890625 
Q 45.40625 18.265625 45.40625 27.984375 
M 54.390625 6.78125 
Q 54.390625 -7.171875 48.1875 -13.984375 
Q 42 -20.796875 29.203125 -20.796875 
Q 24.46875 -20.796875 20.265625 -20.09375 
Q 16.0625 -19.390625 12.109375 -17.921875 
L 12.109375 -9.1875 
Q 16.0625 -11.328125 19.921875 -12.34375 
Q 23.78125 -13.375 27.78125 -13.375 
Q 36.625 -13.375 41.015625 -8.765625 
Q 45.40625 -4.15625 45.40625 5.171875 
L 45.40625 9.625 
Q 42.625 4.78125 38.28125 2.390625 
Q 33.9375 0 27.875 0 
Q 17.828125 0 11.671875 7.65625 
Q 5.515625 15.328125 5.515625 27.984375 
Q 5.515625 40.671875 11.671875 48.328125 
Q 17.828125 56 27.875 56 
Q 33.9375 56 38.28125 53.609375 
Q 42.625 51.21875 45.40625 46.390625 
L 45.40625 54.6875 
L 54.390625 54.6875 
z
" id="BitstreamVeraSans-Roman-67"/>
     <path d="M 18.3125 70.21875 
L 18.3125 54.6875 
L 36.8125 54.6875 
L 36.8125 47.703125 
L 18.3125 47.703125 
L 18.3125 18.015625 
Q 18.3125 11.328125 20.140625 9.421875 
Q 21.96875 7.515625 27.59375 7.515625 
L 36.8125 7.515625 
L 36.8125 0 
L 27.59375 0 
Q 17.1875 0 13.234375 3.875 
Q 9.28125 7.765625 9.28125 18.015625 
L 9.28125 47.703125 
L 2.6875 47.703125 
L 2.6875 54.6875 
L 9.28125 54.6875 
L 9.28125 70.21875 
z
" id="BitstreamVeraSans-Roman-74"/>
    </defs>
    <g transform="translate(495.304875 45.4)scale(0.144 -0.144)">
     <use xlink:href="#BitstreamVeraSans-Roman-41"/>
     <use x="68.408203125" xlink:href="#BitstreamVeraSans-Roman-6c"/>
     <use x="96.19140625" xlink:href="#BitstreamVeraSans-Roman-69"/>
     <use x="123.974609375" xlink:href="#BitstreamVeraSans-Roman-67"/>
     <use x="187.451171875" xlink:href="#BitstreamVeraSans-Roman-6e"/>
     <use x="250.830078125" xlink:href="#BitstreamVeraSans-Roman-6d"/>
     <use x="348.2421875" xlink:href="#BitstreamVeraSans-Roman-65"/>
     <use x="409.765625" xlink:href="#BitstreamVeraSans-Roman-6e"/>
     <use x="473.14453125" xlink:href="#BitstreamVeraSans-Roman-74"/>
     <use x="512.353515625" xlink:href="#BitstreamVeraSans-Roman-3a"/>
     <use x="546.044921875" xlink:href="#BitstreamVeraSans-Roman-20"/>
     <use x="577.83203125" xlink:href="#BitstreamVeraSans-Roman-23"/>
     <use x="661.62109375" xlink:href="#BitstreamVeraSans-Roman-66"/>
     <use x="696.826171875" xlink:href="#BitstreamVeraSans-Roman-6c"/>
     <use x="724.609375" xlink:href="#BitstreamVeraSans-Roman-6f"/>
     <use x="785.791015625" xlink:href="#BitstreamVeraSans-Roman-63"/>
     <use x="840.771484375" xlink:href="#BitstreamVeraSans-Roman-6b"/>
     <use x="898.681640625" xlink:href="#BitstreamVeraSans-Roman-73"/>
    </g>
   </g>
   <g id="legend_1">
    <g id="patch_7">
     <path d="M 972.72 138.402 
L 1067.04 138.402 
L 1067.04 49.536 
L 972.72 49.536 
z
" style="fill:#ffffff;stroke:#000000;stroke-linejoin:miter;"/>
    </g>
    <g id="line2d_27">
     <path d="M 982.8 61.19775 
L 1002.96 61.19775 
" style="fill:none;stroke:#0000ff;stroke-linecap:square;"/>
    </g>
    <g id="line2d_28"/>
    <g id="text_15">
     <!-- $A_w=1$ -->
     <defs>
      <path d="M 9.28125 0 
L 9.28125 3.515625 
Q 21.78125 3.515625 21.78125 6.6875 
L 21.78125 59.1875 
Q 16.609375 56.6875 8.6875 56.6875 
L 8.6875 60.203125 
Q 20.953125 60.203125 27.203125 66.609375 
L 28.609375 66.609375 
Q 28.953125 66.609375 29.265625 66.328125 
Q 29.59375 66.0625 29.59375 65.71875 
L 29.59375 6.6875 
Q 29.59375 3.515625 42.09375 3.515625 
L 42.09375 0 
z
" id="Cmr10-31"/>
      <path d="M 10.796875 11.625 
Q 10.796875 13.71875 11.359375 16.453125 
Q 11.921875 19.1875 12.59375 21.3125 
Q 13.28125 23.4375 14.90625 27.828125 
Q 16.546875 32.234375 16.703125 32.625 
Q 18.015625 36.28125 18.015625 38.625 
Q 18.015625 41.609375 15.828125 41.609375 
Q 11.859375 41.609375 9.296875 37.53125 
Q 6.734375 33.453125 5.515625 28.421875 
Q 5.328125 27.78125 4.6875 27.78125 
L 3.515625 27.78125 
Q 2.6875 27.78125 2.6875 28.71875 
L 2.6875 29 
Q 4.296875 34.96875 7.609375 39.578125 
Q 10.9375 44.1875 16.015625 44.1875 
Q 19.578125 44.1875 22.046875 41.84375 
Q 24.515625 39.5 24.515625 35.890625 
Q 24.515625 34.03125 23.6875 31.984375 
Q 22.515625 28.953125 20.921875 24.703125 
Q 19.34375 20.453125 18.453125 16.984375 
Q 17.578125 13.53125 17.578125 10.296875 
Q 17.578125 6.390625 19.625 3.953125 
Q 21.6875 1.515625 25.59375 1.515625 
Q 30.90625 1.515625 34.421875 9.625 
Q 34.28125 10.203125 34.28125 11.28125 
Q 34.28125 13.96875 35.109375 17.390625 
L 40.71875 39.890625 
Q 41.0625 41.21875 42.28125 42.15625 
Q 43.5 43.109375 44.921875 43.109375 
Q 46.09375 43.109375 47 42.328125 
Q 47.90625 41.546875 47.90625 40.28125 
Q 47.90625 39.703125 47.796875 39.5 
L 42.1875 17.1875 
Q 41.21875 13.1875 41.21875 10.015625 
Q 41.21875 6.25 42.9375 3.875 
Q 44.671875 1.515625 48.390625 1.515625 
Q 54.828125 1.515625 58.984375 10.015625 
Q 60.546875 13.03125 62.46875 18.9375 
Q 64.40625 24.859375 64.40625 27.984375 
Q 64.40625 30.859375 63.46875 32.546875 
Q 62.546875 34.234375 60.90625 36.1875 
Q 59.28125 38.140625 59.28125 39.109375 
Q 59.28125 41.015625 60.90625 42.640625 
Q 62.546875 44.28125 64.5 44.28125 
Q 66.890625 44.28125 67.9375 42.078125 
Q 69 39.890625 69 37.109375 
Q 69 33.734375 67.875 28.53125 
Q 66.75 23.34375 65.03125 18.09375 
Q 63.328125 12.84375 61.8125 9.71875 
Q 56.34375 -1.125 48.1875 -1.125 
Q 44 -1.125 40.53125 0.484375 
Q 37.0625 2.09375 35.40625 5.609375 
Q 33.796875 2.734375 31.171875 0.796875 
Q 28.5625 -1.125 25.390625 -1.125 
Q 18.796875 -1.125 14.796875 2.015625 
Q 10.796875 5.171875 10.796875 11.625 
" id="Cmmi10-77"/>
      <path d="M 4.5 0 
Q 3.515625 0 3.515625 1.3125 
Q 3.90625 3.515625 4.78125 3.515625 
Q 8.84375 3.515625 11.796875 5.125 
Q 14.75 6.734375 16.890625 10.109375 
Q 17.09375 10.296875 17.09375 10.296875 
L 52.78125 70.515625 
Q 53.5625 71.578125 54.6875 71.578125 
L 56 71.578125 
Q 56.296875 71.578125 56.59375 71.453125 
Q 56.890625 71.34375 57.109375 71.0625 
Q 57.328125 70.796875 57.328125 70.515625 
L 63.375 5.90625 
Q 63.375 5.46875 63.8125 4.59375 
Q 64.796875 3.515625 71.296875 3.515625 
Q 72.3125 3.515625 72.3125 2.203125 
Q 71.96875 0.875 71.75 0.4375 
Q 71.53125 0 70.609375 0 
L 45.609375 0 
Q 44.671875 0 44.671875 1.3125 
Q 45.21875 3.515625 46 3.515625 
Q 53.90625 3.515625 54.390625 6.203125 
L 52.875 22.703125 
L 28.21875 22.703125 
L 20.21875 9.28125 
Q 19.484375 8.203125 19.484375 6.78125 
Q 19.484375 5.03125 21.171875 4.265625 
Q 22.859375 3.515625 24.90625 3.515625 
Q 25.875 3.515625 25.875 2.203125 
Q 25.53125 0.78125 25.328125 0.390625 
Q 25.140625 0 24.21875 0 
z
M 30.171875 26.21875 
L 52.484375 26.21875 
L 49.515625 58.59375 
z
" id="Cmmi10-41"/>
      <path d="M 7.515625 13.28125 
Q 6.6875 13.28125 6.140625 13.90625 
Q 5.609375 14.546875 5.609375 15.28125 
Q 5.609375 16.109375 6.140625 16.6875 
Q 6.6875 17.28125 7.515625 17.28125 
L 70.3125 17.28125 
Q 71.046875 17.28125 71.578125 16.6875 
Q 72.125 16.109375 72.125 15.28125 
Q 72.125 14.546875 71.578125 13.90625 
Q 71.046875 13.28125 70.3125 13.28125 
z
M 7.515625 32.71875 
Q 6.6875 32.71875 6.140625 33.296875 
Q 5.609375 33.890625 5.609375 34.71875 
Q 5.609375 35.453125 6.140625 36.078125 
Q 6.6875 36.71875 7.515625 36.71875 
L 70.3125 36.71875 
Q 71.046875 36.71875 71.578125 36.078125 
Q 72.125 35.453125 72.125 34.71875 
Q 72.125 33.890625 71.578125 33.296875 
Q 71.046875 32.71875 70.3125 32.71875 
z
" id="Cmr10-3d"/>
     </defs>
     <g transform="translate(1018.8 66.23775)scale(0.144 -0.144)">
      <use transform="translate(0.0 0.421875)" xlink:href="#Cmmi10-41"/>
      <use transform="translate(75.0 -16.584375)scale(0.7)" xlink:href="#Cmmi10-77"/>
      <use transform="translate(148.975 0.421875)" xlink:href="#Cmr10-3d"/>
      <use transform="translate(244.219140625 0.421875)" xlink:href="#Cmr10-31"/>
     </g>
    </g>
    <g id="line2d_29">
     <path d="M 982.8 82.33425 
L 1002.96 82.33425 
" style="fill:none;stroke:#008000;stroke-linecap:square;"/>
    </g>
    <g id="line2d_30"/>
    <g id="text_16">
     <!-- $A_w=3$ -->
     <defs>
      <path d="M 9.515625 7.71875 
Q 11.859375 4.296875 15.8125 2.640625 
Q 19.78125 0.984375 24.3125 0.984375 
Q 30.125 0.984375 32.5625 5.9375 
Q 35.015625 10.890625 35.015625 17.1875 
Q 35.015625 20.015625 34.5 22.84375 
Q 33.984375 25.6875 32.765625 28.125 
Q 31.546875 30.5625 29.421875 32.03125 
Q 27.296875 33.5 24.21875 33.5 
L 17.578125 33.5 
Q 16.703125 33.5 16.703125 34.421875 
L 16.703125 35.296875 
Q 16.703125 36.078125 17.578125 36.078125 
L 23.09375 36.53125 
Q 26.609375 36.53125 28.921875 39.15625 
Q 31.25 41.796875 32.328125 45.578125 
Q 33.40625 49.359375 33.40625 52.78125 
Q 33.40625 57.5625 31.15625 60.640625 
Q 28.90625 63.71875 24.3125 63.71875 
Q 20.515625 63.71875 17.046875 62.28125 
Q 13.578125 60.84375 11.53125 57.90625 
Q 11.71875 57.953125 11.859375 57.984375 
Q 12.015625 58.015625 12.203125 58.015625 
Q 14.453125 58.015625 15.96875 56.453125 
Q 17.484375 54.890625 17.484375 52.6875 
Q 17.484375 50.53125 15.96875 48.96875 
Q 14.453125 47.40625 12.203125 47.40625 
Q 10.015625 47.40625 8.453125 48.96875 
Q 6.890625 50.53125 6.890625 52.6875 
Q 6.890625 56.984375 9.46875 60.15625 
Q 12.0625 63.328125 16.140625 64.96875 
Q 20.21875 66.609375 24.3125 66.609375 
Q 27.34375 66.609375 30.703125 65.703125 
Q 34.078125 64.796875 36.8125 63.109375 
Q 39.546875 61.421875 41.28125 58.78125 
Q 43.015625 56.15625 43.015625 52.78125 
Q 43.015625 48.578125 41.140625 45.015625 
Q 39.265625 41.453125 35.984375 38.859375 
Q 32.71875 36.28125 28.8125 35.015625 
Q 33.15625 34.1875 37.0625 31.734375 
Q 40.96875 29.296875 43.328125 25.484375 
Q 45.703125 21.6875 45.703125 17.28125 
Q 45.703125 11.765625 42.671875 7.296875 
Q 39.65625 2.828125 34.71875 0.3125 
Q 29.78125 -2.203125 24.3125 -2.203125 
Q 19.625 -2.203125 14.90625 -0.40625 
Q 10.203125 1.375 7.203125 4.9375 
Q 4.203125 8.5 4.203125 13.484375 
Q 4.203125 15.96875 5.859375 17.625 
Q 7.515625 19.28125 10.015625 19.28125 
Q 11.625 19.28125 12.96875 18.53125 
Q 14.3125 17.78125 15.0625 16.40625 
Q 15.828125 15.046875 15.828125 13.484375 
Q 15.828125 11.03125 14.109375 9.375 
Q 12.40625 7.71875 10.015625 7.71875 
z
" id="Cmr10-33"/>
     </defs>
     <g transform="translate(1018.8 87.37425)scale(0.144 -0.144)">
      <use transform="translate(0.0 0.421875)" xlink:href="#Cmmi10-41"/>
      <use transform="translate(75.0 -16.584375)scale(0.7)" xlink:href="#Cmmi10-77"/>
      <use transform="translate(148.975 0.421875)" xlink:href="#Cmr10-3d"/>
      <use transform="translate(244.219140625 0.421875)" xlink:href="#Cmr10-33"/>
     </g>
    </g>
    <g id="line2d_31">
     <path d="M 982.8 103.47075 
L 1002.96 103.47075 
" style="fill:none;stroke:#ff0000;stroke-linecap:square;"/>
    </g>
    <g id="line2d_32"/>
    <g id="text_17">
     <!-- $A_w=5$ -->
     <defs>
      <path d="M 8.6875 11.375 
Q 9.71875 8.453125 11.84375 6.046875 
Q 13.96875 3.65625 16.875 2.3125 
Q 19.78125 0.984375 22.90625 0.984375 
Q 30.125 0.984375 32.859375 6.59375 
Q 35.59375 12.203125 35.59375 20.21875 
Q 35.59375 23.6875 35.46875 26.046875 
Q 35.359375 28.421875 34.8125 30.609375 
Q 33.890625 34.125 31.5625 36.765625 
Q 29.25 39.40625 25.875 39.40625 
Q 22.515625 39.40625 20.09375 38.375 
Q 17.671875 37.359375 16.15625 35.984375 
Q 14.65625 34.625 13.484375 33.109375 
Q 12.3125 31.59375 12.015625 31.5 
L 10.890625 31.5 
Q 10.640625 31.5 10.265625 31.8125 
Q 9.90625 32.125 9.90625 32.421875 
L 9.90625 65.828125 
Q 9.90625 66.0625 10.21875 66.328125 
Q 10.546875 66.609375 10.890625 66.609375 
L 11.1875 66.609375 
Q 17.921875 63.375 25.484375 63.375 
Q 32.90625 63.375 39.796875 66.609375 
L 40.09375 66.609375 
Q 40.4375 66.609375 40.71875 66.359375 
Q 41.015625 66.109375 41.015625 65.828125 
L 41.015625 64.890625 
Q 41.015625 64.40625 40.828125 64.40625 
Q 37.40625 59.859375 32.25 57.3125 
Q 27.09375 54.78125 21.578125 54.78125 
Q 17.578125 54.78125 13.375 55.90625 
L 13.375 37.015625 
Q 16.703125 39.703125 19.3125 40.84375 
Q 21.921875 42 25.984375 42 
Q 31.5 42 35.859375 38.8125 
Q 40.234375 35.640625 42.578125 30.53125 
Q 44.921875 25.4375 44.921875 20.125 
Q 44.921875 14.109375 41.96875 8.984375 
Q 39.015625 3.859375 33.9375 0.828125 
Q 28.859375 -2.203125 22.90625 -2.203125 
Q 17.96875 -2.203125 13.84375 0.328125 
Q 9.71875 2.875 7.34375 7.171875 
Q 4.984375 11.46875 4.984375 16.3125 
Q 4.984375 18.5625 6.4375 19.96875 
Q 7.90625 21.390625 10.109375 21.390625 
Q 12.3125 21.390625 13.796875 19.9375 
Q 15.28125 18.5 15.28125 16.3125 
Q 15.28125 14.15625 13.796875 12.671875 
Q 12.3125 11.1875 10.109375 11.1875 
Q 9.765625 11.1875 9.328125 11.25 
Q 8.890625 11.328125 8.6875 11.375 
" id="Cmr10-35"/>
     </defs>
     <g transform="translate(1018.8 108.51075)scale(0.144 -0.144)">
      <use transform="translate(0.0 0.421875)" xlink:href="#Cmmi10-41"/>
      <use transform="translate(75.0 -16.584375)scale(0.7)" xlink:href="#Cmmi10-77"/>
      <use transform="translate(148.975 0.421875)" xlink:href="#Cmr10-3d"/>
      <use transform="translate(244.219140625 0.421875)" xlink:href="#Cmr10-35"/>
     </g>
    </g>
    <g id="line2d_33">
     <path d="M 982.8 124.60725 
L 1002.96 124.60725 
" style="fill:none;stroke:#00bfbf;stroke-linecap:square;"/>
    </g>
    <g id="line2d_34"/>
    <g id="text_18">
     <!-- $A_w=7$ -->
     <defs>
      <path d="M 17.390625 2.59375 
Q 17.390625 8.15625 18.359375 13.46875 
Q 19.34375 18.796875 21.21875 24 
Q 23.09375 29.203125 25.75 34.203125 
Q 28.421875 39.203125 31.59375 43.609375 
L 40.71875 56.296875 
L 29.296875 56.296875 
Q 11.53125 56.296875 10.984375 55.8125 
Q 9.671875 54.203125 8.5 46.578125 
L 5.609375 46.578125 
L 8.890625 67.578125 
L 11.8125 67.578125 
L 11.8125 67.28125 
Q 11.8125 65.484375 17.921875 64.9375 
Q 24.03125 64.40625 29.890625 64.40625 
L 48.484375 64.40625 
L 48.484375 61.8125 
Q 48.484375 61.71875 48.453125 61.671875 
Q 48.4375 61.625 48.390625 61.53125 
L 34.625 42.1875 
Q 29.546875 34.671875 28.265625 25.484375 
Q 27 16.3125 27 2.59375 
Q 27 0.640625 25.578125 -0.78125 
Q 24.171875 -2.203125 22.21875 -2.203125 
Q 20.21875 -2.203125 18.796875 -0.78125 
Q 17.390625 0.640625 17.390625 2.59375 
" id="Cmr10-37"/>
     </defs>
     <g transform="translate(1018.8 129.64725)scale(0.144 -0.144)">
      <use transform="translate(0.0 0.421875)" xlink:href="#Cmmi10-41"/>
      <use transform="translate(75.0 -16.584375)scale(0.7)" xlink:href="#Cmmi10-77"/>
      <use transform="translate(148.975 0.421875)" xlink:href="#Cmr10-3d"/>
      <use transform="translate(244.219140625 0.421875)" xlink:href="#Cmr10-37"/>
     </g>
    </g>
   </g>
  </g>
 </g>
 <defs>
  <clipPath id="pf247fce6af">
   <rect height="403.2" width="803.52" x="162.0" y="50.4"/>
  </clipPath>
 </defs>
</svg>
