<?xml version="1.0" encoding="utf-8" standalone="no"?>
<!DOCTYPE svg PUBLIC "-//W3C//DTD SVG 1.1//EN"
  "http://www.w3.org/Graphics/SVG/1.1/DTD/svg11.dtd">
<!-- Created with matplotlib (http://matplotlib.org/) -->
<svg height="504pt" version="1.1" viewBox="0 0 1296 504" width="1296pt" xmlns="http://www.w3.org/2000/svg" xmlns:xlink="http://www.w3.org/1999/xlink">
 <defs>
  <style type="text/css">
*{stroke-linecap:butt;stroke-linejoin:round;stroke-miterlimit:100000;}
  </style>
 </defs>
 <g id="figure_1">
  <g id="patch_1">
   <path d="M 0 504 
L 1296 504 
L 1296 0 
L 0 0 
z
" style="fill:#ffffff;"/>
  </g>
  <g id="axes_1">
   <g id="patch_2">
    <path d="M 162 453.6 
L 965.52 453.6 
L 965.52 50.4 
L 162 50.4 
z
" style="fill:#ffffff;"/>
   </g>
   <g id="line2d_1">
    <path clip-path="url(#p66e50bb377)" d="M 162 428.4 
L 163.60704 426.4092 
L 165.21408 422.1756 
L 168.42816 416.9844 
L 170.0352 413.28 
L 171.64224 408.24 
L 174.85632 399.9744 
L 176.46336 397.1772 
L 178.0704 392.4396 
L 179.67744 388.2564 
L 181.28448 385.5348 
L 184.49856 373.4892 
L 186.1056 368.7516 
L 187.71264 364.5432 
L 189.31968 360.8388 
L 190.92672 358.1676 
L 192.53376 354.6396 
L 194.1408 347.7348 
L 197.35488 335.5128 
L 198.96192 330.5988 
L 200.56896 324.0216 
L 203.78304 316.008 
L 205.39008 310.9428 
L 206.99712 306.936 
L 208.60416 303.5844 
L 210.2112 299.88 
L 211.81824 295.344 
L 215.03232 285.6168 
L 216.63936 282.24 
L 218.2464 280.2492 
L 219.85344 277.704 
L 221.46048 276.1668 
L 223.06752 274.0248 
L 224.67456 271.5048 
L 226.2816 269.64 
L 227.88864 266.0868 
L 231.10272 260.568 
L 234.3168 250.8156 
L 235.92384 245.448 
L 237.53088 241.7184 
L 239.13792 238.896 
L 240.74496 234.5364 
L 242.352 232.848 
L 243.95904 231.6888 
L 245.56608 231.21 
L 247.17312 229.6728 
L 248.78016 228.7656 
L 250.3872 229.194 
L 251.99424 228.312 
L 253.60128 227.1276 
L 255.20832 227.1276 
L 256.81536 226.8 
L 258.4224 225.1116 
L 260.02944 224.6328 
L 261.63648 224.4816 
L 263.24352 224.9604 
L 264.85056 224.1036 
L 266.4576 224.9856 
L 268.06464 224.4564 
L 269.67168 223.4736 
L 271.27872 220.6008 
L 272.88576 218.5848 
L 274.4928 216.0144 
L 276.09984 212.814 
L 277.70688 212.184 
L 279.31392 211.1508 
L 280.92096 210.3696 
L 282.528 209.9664 
L 284.13504 210.3444 
L 285.74208 210.1932 
L 287.34912 210.3444 
L 288.95616 210.6468 
L 290.5632 209.6388 
L 292.17024 208.9836 
L 293.77728 207.4716 
L 295.38432 206.4636 
L 296.99136 204.624 
L 298.5984 201.9276 
L 300.20544 195.2244 
L 301.81248 189 
L 303.41952 184.8168 
L 305.02656 184.8168 
L 306.6336 185.2956 
L 308.24064 186.3288 
L 311.45472 187.6392 
L 313.06176 187.1604 
L 314.6688 187.4628 
L 316.27584 188.37 
L 317.88288 187.866 
L 319.48992 185.9508 
L 321.09696 185.1444 
L 322.704 180.7596 
L 324.31104 177.7608 
L 327.52512 173.0484 
L 329.13216 173.0484 
L 330.7392 173.5524 
L 332.34624 173.4012 
L 333.95328 172.7208 
L 335.56032 170.5032 
L 337.16736 166.824 
L 338.7744 162.2628 
L 340.38144 159.7428 
L 341.98848 158.4576 
L 343.59552 155.7108 
L 345.20256 155.3832 
L 346.8096 154.9044 
L 348.41664 154.0476 
L 350.02368 155.0304 
L 351.63072 155.2068 
L 354.8448 155.9376 
L 356.45184 157.4496 
L 358.05888 156.5928 
L 359.66592 156.5676 
L 361.27296 156.9708 
L 362.88 155.4084 
L 364.48704 154.224 
L 366.09408 154.7532 
L 367.70112 154.1988 
L 369.30816 152.208 
L 374.12928 141.8004 
L 375.73632 139.7592 
L 377.34336 138.096 
L 380.55744 137.3904 
L 382.16448 137.4156 
L 383.77152 138.0708 
L 385.37856 134.5428 
L 388.59264 125.3196 
L 391.80672 124.3116 
L 393.41376 123.6816 
L 395.0208 122.7996 
L 398.23488 123.1524 
L 399.84192 122.976 
L 403.056 126.1512 
L 404.66304 127.2096 
L 406.27008 127.6884 
L 407.87712 127.8648 
L 409.48416 128.3688 
L 411.0912 128.4948 
L 412.69824 127.89 
L 414.30528 128.1924 
L 415.91232 126.5292 
L 417.51936 126.126 
L 419.1264 125.4708 
L 420.73344 122.6484 
L 422.34048 120.9852 
L 423.94752 120.96 
L 425.55456 120.7836 
L 427.1616 119.8008 
L 428.76864 119.448 
L 430.37568 116.7516 
L 431.98272 115.5672 
L 433.58976 110.7288 
L 435.1968 106.3188 
L 436.80384 104.1516 
L 438.41088 101.6316 
L 440.01792 101.304 
L 441.62496 101.4804 
L 443.232 100.9764 
L 444.83904 100.8 
L 446.44608 99.9936 
L 448.05312 100.6488 
L 449.66016 101.6568 
L 452.87424 99.9432 
L 454.48128 97.9524 
L 456.08832 95.0796 
L 457.69536 93.5676 
L 459.3024 92.5596 
L 460.90944 91.7028 
L 462.51648 90.6948 
L 464.12352 92.2572 
L 465.73056 90.72 
L 467.3376 88.704 
L 468.94464 88.6788 
L 472.15872 89.4096 
L 475.3728 87.696 
L 476.97984 87.192 
L 480.19392 86.5368 
L 481.80096 86.4864 
L 483.408 85.3524 
L 485.01504 86.8896 
L 486.62208 86.8392 
L 488.22912 86.0328 
L 489.83616 87.0408 
L 491.4432 87.0408 
L 493.05024 86.5116 
L 494.65728 86.688 
L 496.26432 84.4704 
L 497.87136 81.9756 
L 499.4784 75.9024 
L 502.69248 61.3116 
L 504.29952 60.3036 
L 505.90656 58.4892 
L 507.5136 59.1192 
L 509.12064 58.9428 
L 510.72768 61.2864 
L 512.33472 61.1604 
L 513.94176 62.8236 
L 515.5488 64.6884 
L 517.15584 65.1672 
L 518.76288 66.5028 
L 520.36992 66.3768 
L 521.97696 65.6964 
L 523.584 65.8728 
L 525.19104 66.2004 
L 526.79808 65.6712 
L 528.40512 66.024 
L 530.01216 66.7296 
L 531.6192 66.7044 
L 533.22624 67.5612 
L 534.83328 67.0068 
L 536.44032 68.3928 
L 538.04736 68.5692 
L 539.6544 67.8384 
L 541.26144 68.8716 
L 544.47552 68.1912 
L 546.08256 68.04 
L 547.6896 68.2164 
L 549.29664 68.7204 
L 550.90368 69.0732 
L 552.51072 71.2404 
L 554.11776 72.5508 
L 555.7248 72.576 
L 557.33184 72.9288 
L 558.93888 73.4076 
L 560.54592 73.584 
L 562.15296 73.9116 
L 563.76 72.7272 
L 565.36704 72.3996 
L 566.97408 71.2656 
L 568.58112 73.1052 
L 570.18816 73.7856 
L 571.7952 73.7352 
L 575.00928 69.7032 
L 576.61632 66.7296 
L 578.22336 61.7904 
L 579.8304 55.6164 
L 581.43744 51.5844 
L 584.65152 51.5844 
L 586.25856 53.3988 
L 587.8656 52.5924 
L 589.47264 53.6004 
L 591.07968 53.928 
L 592.68672 54.432 
L 595.9008 55.7928 
L 597.50784 55.9692 
L 599.11488 55.4652 
L 600.72192 55.7928 
L 602.32896 54.936 
L 603.936 54.936 
L 605.54304 56.2716 
L 607.15008 56.826 
L 608.75712 57.834 
L 610.36416 57.8088 
L 611.9712 57.4812 
L 613.57824 57.96 
L 615.18528 58.968 
L 616.79232 58.2876 
L 618.39936 57.8088 
L 620.0064 57.9348 
L 621.61344 57.2796 
L 623.22048 58.3128 
L 624.82752 58.6404 
L 626.43456 60.1776 
L 628.0416 60.984 
L 629.64864 61.3368 
L 631.25568 61.866 
L 632.86272 62.5212 
L 634.46976 62.5212 
L 637.68384 63.0252 
L 639.29088 63.1512 
L 640.89792 62.8236 
L 642.50496 62.3196 
L 644.112 62.496 
L 645.71904 63.5292 
L 647.32608 63.6552 
L 648.93312 63.126 
L 652.1472 63.5292 
L 653.75424 62.496 
L 655.36128 62.9748 
L 656.96832 63.3276 
L 658.57536 64.1844 
L 660.1824 63.504 
L 663.39648 64.89 
L 665.00352 64.8648 
L 668.2176 65.1924 
L 669.82464 65.0412 
L 671.43168 65.52 
L 673.03872 67.2084 
L 676.2528 70.2324 
L 677.85984 70.56 
L 679.46688 70.7112 
L 681.07392 71.0388 
L 682.68096 72.576 
L 684.288 73.4076 
L 685.89504 73.7856 
L 687.50208 75.1212 
L 689.10912 75.096 
L 690.71616 76.104 
L 692.3232 77.6664 
L 693.93024 78.624 
L 697.14432 78.624 
L 698.75136 79.1532 
L 700.3584 79.128 
L 701.96544 78.246 
L 703.57248 78.0696 
L 705.17952 77.3136 
L 706.78656 76.986 
L 708.3936 75.7764 
L 710.00064 75.2724 
L 711.60768 75.3984 
L 713.21472 75.8016 
L 714.82176 77.4648 
L 716.4288 78.9264 
L 718.03584 78.12 
L 721.24992 78.8256 
L 722.85696 80.262 
L 724.464 80.9676 
L 726.07104 82.1772 
L 727.67808 82.6812 
L 729.28512 83.6388 
L 730.89216 84.1932 
L 732.4992 85.176 
L 734.10624 84.672 
L 735.71328 83.9664 
L 737.32032 82.1016 
L 738.92736 82.4796 
L 740.5344 84.8484 
L 742.14144 85.0248 
L 743.74848 85.9824 
L 745.35552 86.6628 
L 746.96256 86.058 
L 748.5696 86.184 
L 750.17664 86.8644 
L 751.78368 85.3524 
L 753.39072 85.5036 
L 754.99776 86.3604 
L 756.6048 85.0248 
L 758.21184 85.1508 
L 761.42592 85.8564 
L 763.03296 85.7052 
L 764.64 85.176 
L 766.24704 85.8312 
L 767.85408 87.192 
L 771.06816 87.8472 
L 772.6752 88.6788 
L 775.88928 91.4256 
L 777.49632 91.3752 
L 779.10336 90.342 
L 780.7104 91.728 
L 782.31744 91.9044 
L 783.92448 92.3832 
L 785.53152 90.0144 
L 787.13856 89.3844 
L 790.35264 86.8644 
L 791.95968 85.8564 
L 793.56672 86.7132 
L 795.17376 86.1588 
L 796.7808 87.066 
L 798.38784 87.5196 
L 799.99488 87.3432 
L 801.60192 88.704 
L 803.20896 89.0568 
L 806.42304 87.7212 
L 808.03008 87.8472 
L 809.63712 87.5448 
L 811.24416 87.8724 
L 812.8512 88.0488 
L 814.45824 88.8552 
L 816.06528 89.208 
L 817.67232 91.1988 
L 819.27936 91.3752 
L 820.8864 90.5184 
L 822.49344 91.3752 
L 824.10048 91.3752 
L 825.70752 91.5768 
L 827.31456 91.4004 
L 828.9216 92.2572 
L 830.52864 91.8792 
L 833.74272 89.8884 
L 835.34976 89.6868 
L 836.9568 89.8884 
L 838.56384 89.3592 
L 840.17088 87.0156 
L 841.77792 81.8244 
L 844.992 68.5692 
L 846.59904 63.3276 
L 848.20608 59.8248 
L 849.81312 58.1868 
L 851.42016 58.1616 
L 853.0272 58.2876 
L 854.63424 58.2876 
L 856.24128 57.7836 
L 857.84832 57.7836 
L 861.0624 60.1272 
L 862.66944 59.7996 
L 864.27648 59.6736 
L 865.88352 58.968 
L 867.49056 60.1524 
L 869.0976 60.5052 
L 870.70464 60.48 
L 872.31168 60.6816 
L 873.91872 61.488 
L 875.52576 61.1604 
L 877.1328 61.992 
L 878.73984 63.4788 
L 880.34688 65.3688 
L 881.95392 64.2096 
L 883.56096 63.4788 
L 885.168 65.016 
L 886.77504 64.8648 
L 888.38208 65.016 
L 889.98912 65.3436 
L 891.59616 65.3436 
L 893.2032 64.8648 
L 894.81024 65.3688 
L 896.41728 66.8808 
L 898.02432 67.7376 
L 899.63136 69.426 
L 901.2384 70.7112 
L 902.84544 70.2324 
L 904.45248 70.3836 
L 906.05952 69.2496 
L 907.66656 69.0228 
L 909.2736 67.5612 
L 910.88064 69.0732 
L 912.48768 70.056 
L 914.09472 70.7364 
L 915.70176 70.9128 
L 917.3088 70.6104 
L 918.91584 69.9048 
L 920.52288 68.3928 
L 922.12992 67.536 
L 925.344 67.032 
L 926.95104 66.3516 
L 928.55808 67.3596 
L 930.16512 67.3596 
L 931.77216 67.8888 
L 933.3792 67.6872 
L 934.98624 67.8384 
L 936.59328 70.0812 
L 938.20032 68.8212 
L 939.80736 68.5188 
L 941.4144 69.2244 
L 943.02144 68.7204 
L 944.62848 68.5692 
L 946.23552 69.2244 
L 947.84256 69.7284 
L 949.4496 68.7456 
L 951.05664 69.426 
L 952.66368 68.8464 
L 954.27072 68.544 
L 955.87776 68.3676 
L 957.4848 68.04 
L 959.09184 66.906 
L 960.69888 65.5452 
L 962.30592 62.7228 
L 963.91296 61.3116 
L 963.91296 61.3116 
" style="fill:none;stroke:#0000ff;stroke-linecap:square;"/>
   </g>
   <g id="line2d_2">
    <path clip-path="url(#p66e50bb377)" d="M 162 428.3748 
L 163.60704 428.8788 
L 165.21408 427.0644 
L 166.82112 424.7208 
L 168.42816 421.6716 
L 170.0352 417.4632 
L 171.64224 414.7668 
L 173.24928 412.5744 
L 179.67744 402.8976 
L 181.28448 400.68 
L 182.89152 397.6308 
L 186.1056 390.9024 
L 187.71264 388.4076 
L 189.31968 384.7284 
L 190.92672 382.2084 
L 192.53376 379.3608 
L 195.74784 373.0104 
L 197.35488 368.5752 
L 198.96192 363.5604 
L 200.56896 360.1836 
L 202.176 356.1768 
L 203.78304 353.3292 
L 205.39008 351.288 
L 206.99712 349.9272 
L 210.2112 345.7188 
L 211.81824 343.7028 
L 213.42528 340.3512 
L 215.03232 337.5036 
L 216.63936 333.648 
L 218.2464 331.128 
L 219.85344 326.3904 
L 223.06752 319.6872 
L 224.67456 317.6712 
L 226.2816 314.0172 
L 227.88864 312.1272 
L 231.10272 306.2808 
L 232.70976 302.9292 
L 237.53088 294.0084 
L 239.13792 290.1024 
L 240.74496 286.9272 
L 243.95904 281.9376 
L 245.56608 279.8712 
L 247.17312 278.7372 
L 248.78016 276.7464 
L 250.3872 276.7464 
L 251.99424 276.3432 
L 255.20832 274.176 
L 256.81536 272.4876 
L 258.4224 272.4624 
L 261.63648 270.4968 
L 263.24352 269.136 
L 264.85056 267.2964 
L 268.06464 263.2392 
L 269.67168 262.1052 
L 271.27872 261.2484 
L 274.4928 258.9048 
L 276.09984 256.662 
L 277.70688 256.1832 
L 279.31392 254.3436 
L 280.92096 253.6632 
L 282.528 252.504 
L 285.74208 248.4468 
L 287.34912 246.6072 
L 288.95616 245.448 
L 290.5632 244.44 
L 292.17024 242.7516 
L 293.77728 241.2396 
L 295.38432 240.5844 
L 296.99136 239.4 
L 298.5984 238.392 
L 300.20544 237.0564 
L 301.81248 235.5444 
L 303.41952 234.2088 
L 305.02656 232.6968 
L 308.24064 229.194 
L 309.84768 228.4632 
L 311.45472 228.3372 
L 313.06176 228.4884 
L 314.6688 226.926 
L 316.27584 226.1196 
L 317.88288 223.9524 
L 321.09696 221.5836 
L 322.704 220.9032 
L 324.31104 220.5756 
L 325.91808 220.5504 
L 327.52512 220.9032 
L 329.13216 221.7852 
L 330.7392 221.13 
L 333.95328 219.0888 
L 335.56032 216.0144 
L 337.16736 213.696 
L 338.7744 209.9664 
L 340.38144 205.4556 
L 343.59552 198.2484 
L 345.20256 193.5612 
L 346.8096 191.6712 
L 350.02368 189.7056 
L 351.63072 186.8076 
L 353.23776 184.8168 
L 354.8448 184.1364 
L 356.45184 182.6244 
L 358.05888 181.4652 
L 359.66592 181.2888 
L 361.27296 179.4492 
L 362.88 178.7688 
L 364.48704 178.2396 
L 366.09408 178.0884 
L 367.70112 176.5764 
L 369.30816 176.904 
L 370.9152 175.5432 
L 372.52224 174.5604 
L 374.12928 173.88 
L 375.73632 172.0404 
L 377.34336 171.5364 
L 378.9504 171.1584 
L 380.55744 171.864 
L 382.16448 172.0404 
L 383.77152 171.3852 
L 385.37856 170.478 
L 386.9856 171.0324 
L 388.59264 170.2008 
L 390.19968 169.6464 
L 391.80672 170.5284 
L 393.41376 170.352 
L 396.62784 168.966 
L 398.23488 168.6888 
L 399.84192 168.6636 
L 401.44896 168.9912 
L 403.056 170.0244 
L 404.66304 169.8228 
L 406.27008 169.3188 
L 407.87712 169.6464 
L 409.48416 169.5204 
L 411.0912 168.5376 
L 414.30528 167.0256 
L 415.91232 167.706 
L 419.1264 168.0084 
L 420.73344 167.3532 
L 422.34048 167.3532 
L 423.94752 166.8492 
L 425.55456 167.1516 
L 427.1616 165.7908 
L 428.76864 165.1608 
L 430.37568 163.9512 
L 431.98272 164.1024 
L 433.58976 164.1276 
L 435.1968 162.9432 
L 436.80384 162.1116 
L 438.41088 161.784 
L 440.01792 162.1116 
L 441.62496 161.784 
L 446.44608 158.76 
L 448.05312 157.0716 
L 449.66016 158.1048 
L 452.87424 155.4084 
L 454.48128 153.3672 
L 456.08832 152.0316 
L 457.69536 150.3432 
L 459.3024 147.672 
L 460.90944 146.1852 
L 462.51648 144.3204 
L 464.12352 143.3124 
L 465.73056 143.3376 
L 467.3376 143.1612 
L 468.94464 143.3376 
L 470.55168 143.136 
L 472.15872 143.4636 
L 473.76576 143.136 
L 475.3728 143.3124 
L 476.97984 143.6652 
L 478.58688 142.8084 
L 480.19392 142.128 
L 481.80096 142.506 
L 485.01504 141.5988 
L 486.62208 142.3044 
L 488.22912 141.4476 
L 491.4432 140.1372 
L 493.05024 140.7924 
L 494.65728 140.9436 
L 496.26432 141.4728 
L 497.87136 140.9688 
L 499.4784 141.12 
L 501.08544 141.12 
L 502.69248 140.4396 
L 504.29952 141.4728 
L 505.90656 141.2712 
L 507.5136 141.4728 
L 509.12064 140.9436 
L 510.72768 140.9436 
L 513.94176 140.3136 
L 515.5488 139.7844 
L 517.15584 138.9528 
L 518.76288 138.9276 
L 520.36992 137.9448 
L 521.97696 136.584 
L 523.584 135.576 
L 525.19104 133.9128 
L 526.79808 133.7364 
L 528.40512 132.8796 
L 530.01216 132.4008 
L 533.22624 132.3756 
L 534.83328 132.0732 
L 536.44032 132.4008 
L 538.04736 132.3756 
L 539.6544 132.5772 
L 541.26144 132.0732 
L 542.86848 132.5772 
L 544.47552 131.5692 
L 546.08256 132.0732 
L 547.6896 131.544 
L 549.29664 132.048 
L 550.90368 132.2244 
L 552.51072 133.056 
L 554.11776 133.7112 
L 555.7248 132.048 
L 557.33184 132.5268 
L 558.93888 132.1992 
L 560.54592 132.7536 
L 562.15296 131.8968 
L 563.76 132.3756 
L 566.97408 132.7284 
L 568.58112 132.0732 
L 571.7952 131.7204 
L 573.40224 132.3504 
L 575.00928 132.3756 
L 576.61632 131.8968 
L 578.22336 132.552 
L 579.8304 132.0228 
L 581.43744 133.0308 
L 583.04448 133.5348 
L 584.65152 132.8796 
L 586.25856 132.7032 
L 587.8656 133.056 
L 589.47264 132.8796 
L 591.07968 133.2072 
L 592.68672 132.93 
L 594.29376 133.5852 
L 595.9008 133.7616 
L 597.50784 133.0812 
L 599.11488 133.5348 
L 600.72192 133.2324 
L 602.32896 133.5852 
L 603.936 133.2324 
L 605.54304 133.2324 
L 607.15008 133.4088 
L 608.75712 133.7616 
L 610.36416 134.7696 
L 611.9712 135.072 
L 613.57824 134.568 
L 615.18528 134.3664 
L 618.39936 135.7272 
L 620.0064 135.9288 
L 621.61344 136.2564 
L 623.22048 136.4328 
L 624.82752 135.7524 
L 628.0416 135.7776 
L 629.64864 135.9288 
L 631.25568 136.7604 
L 632.86272 136.9368 
L 634.46976 136.6344 
L 636.0768 137.2644 
L 637.68384 136.7604 
L 639.29088 137.592 
L 640.89792 138.0708 
L 642.50496 139.4316 
L 644.112 138.9276 
L 645.71904 139.2804 
L 647.32608 139.3056 
L 648.93312 138.1212 
L 650.54016 137.9448 
L 652.1472 137.1132 
L 653.75424 137.2644 
L 655.36128 135.7524 
L 656.96832 135.7776 
L 658.57536 135.6012 
L 660.1824 135.7272 
L 661.78944 135.7272 
L 663.39648 136.4076 
L 665.00352 135.8784 
L 666.61056 135.5508 
L 668.2176 136.0548 
L 669.82464 135.7524 
L 671.43168 135.2484 
L 673.03872 135.9036 
L 674.64576 135.4248 
L 676.2528 134.2404 
L 677.85984 134.7444 
L 679.46688 135.4248 
L 681.07392 135.6012 
L 682.68096 135.3996 
L 684.288 135.072 
L 685.89504 135.0216 
L 687.50208 135.6768 
L 689.10912 136.5336 
L 692.3232 136.7604 
L 693.93024 136.9368 
L 695.53728 137.592 
L 697.14432 137.466 
L 698.75136 137.9196 
L 700.3584 137.7432 
L 701.96544 136.7352 
L 703.57248 138.3984 
L 705.17952 138.6 
L 708.3936 137.2644 
L 710.00064 136.2312 
L 711.60768 135.7524 
L 713.21472 135.3996 
L 714.82176 136.3824 
L 716.4288 135.9036 
L 718.03584 136.6344 
L 719.64288 135.9036 
L 721.24992 133.056 
L 722.85696 128.8224 
L 724.464 123.48 
L 726.07104 121.7664 
L 727.67808 120.8088 
L 729.28512 118.9188 
L 730.89216 117.936 
L 732.4992 116.7516 
L 734.10624 116.6256 
L 735.71328 116.2476 
L 737.32032 117.432 
L 738.92736 117.1044 
L 740.5344 117.2304 
L 742.14144 117.5832 
L 743.74848 117.1296 
L 745.35552 117.9612 
L 746.96256 118.2636 
L 748.5696 117.558 
L 750.17664 119.1204 
L 751.78368 119.7756 
L 753.39072 118.5912 
L 754.99776 119.4228 
L 756.6048 119.448 
L 758.21184 120.1284 
L 759.81888 119.9772 
L 761.42592 120.6324 
L 763.03296 120.7836 
L 764.64 120.1032 
L 766.24704 119.9268 
L 767.85408 120.96 
L 772.6752 122.4972 
L 774.28224 122.2956 
L 775.88928 121.7916 
L 777.49632 121.7664 
L 779.10336 121.3128 
L 780.7104 121.6152 
L 782.31744 121.6152 
L 783.92448 122.3208 
L 785.53152 122.85 
L 787.13856 122.85 
L 788.7456 123.0012 
L 790.35264 122.85 
L 791.95968 123.1776 
L 793.56672 122.976 
L 795.17376 123.6564 
L 796.7808 123.6312 
L 799.99488 122.2704 
L 801.60192 122.094 
L 803.20896 122.472 
L 804.816 122.6484 
L 806.42304 121.9932 
L 808.03008 121.9428 
L 809.63712 121.086 
L 811.24416 120.96 
L 812.8512 119.6496 
L 814.45824 116.928 
L 817.67232 113.5764 
L 819.27936 113.4 
L 822.49344 112.3416 
L 824.10048 113.0472 
L 825.70752 113.0472 
L 827.31456 112.8456 
L 828.9216 112.3416 
L 830.52864 113.0472 
L 832.13568 113.4252 
L 833.74272 113.4 
L 835.34976 113.2236 
L 836.9568 113.8788 
L 838.56384 114.2316 
L 840.17088 115.0884 
L 841.77792 115.416 
L 843.38496 115.2648 
L 844.992 114.5844 
L 846.59904 114.0804 
L 848.20608 114.2316 
L 849.81312 113.0472 
L 853.0272 111.51 
L 854.63424 111.1824 
L 856.24128 110.0232 
L 857.84832 109.6956 
L 859.45536 109.6956 
L 861.0624 110.1996 
L 862.66944 110.0484 
L 864.27648 109.368 
L 865.88352 108.36 
L 867.49056 109.872 
L 869.0976 107.856 
L 870.70464 107.856 
L 872.31168 108.0576 
L 873.91872 108.864 
L 875.52576 108.8136 
L 877.1328 108.36 
L 878.73984 109.1916 
L 881.95392 108.8892 
L 883.56096 108.2088 
L 885.168 108.234 
L 886.77504 107.3268 
L 888.38208 106.1676 
L 889.98912 105.84 
L 891.59616 106.0416 
L 893.2032 104.832 
L 894.81024 104.328 
L 896.41728 104.1264 
L 898.02432 104.1516 
L 899.63136 103.1184 
L 901.2384 103.2948 
L 902.84544 103.1436 
L 904.45248 103.32 
L 907.66656 104.0256 
L 909.2736 104.5044 
L 912.48768 104.1516 
L 914.09472 103.6224 
L 915.70176 103.4964 
L 917.3088 104.6556 
L 918.91584 105.1848 
L 920.52288 105.3108 
L 922.12992 105.6384 
L 923.73696 106.4952 
L 925.344 106.6968 
L 926.95104 106.6464 
L 930.16512 106.1928 
L 931.77216 105.6636 
L 933.3792 105.9912 
L 934.98624 105.9912 
L 936.59328 106.5204 
L 938.20032 106.848 
L 939.80736 106.848 
L 941.4144 107.5284 
L 943.02144 108.0576 
L 944.62848 109.5192 
L 946.23552 110.1996 
L 947.84256 110.7036 
L 949.4496 111.0564 
L 952.66368 110.7288 
L 954.27072 111.384 
L 955.87776 111.7116 
L 957.4848 111.2328 
L 959.09184 110.9052 
L 960.69888 111.0564 
L 962.30592 111.0564 
L 963.91296 110.376 
L 963.91296 110.376 
" style="fill:none;stroke:#008000;stroke-linecap:square;"/>
   </g>
   <g id="line2d_3">
    <path clip-path="url(#p66e50bb377)" d="M 162 429.7356 
L 163.60704 429.3828 
L 165.21408 428.1984 
L 166.82112 425.1996 
L 168.42816 423.36 
L 170.0352 420.4872 
L 171.64224 418.0176 
L 174.85632 413.6328 
L 176.46336 411.768 
L 178.0704 410.0796 
L 181.28448 404.712 
L 184.49856 400.8312 
L 189.31968 391.4568 
L 190.92672 387.2736 
L 192.53376 383.8716 
L 195.74784 377.9748 
L 197.35488 375.984 
L 198.96192 372.4308 
L 200.56896 370.2888 
L 202.176 367.416 
L 203.78304 363.1824 
L 205.39008 361.2168 
L 206.99712 357.4872 
L 208.60416 355.0176 
L 211.81824 349.776 
L 213.42528 346.2228 
L 215.03232 344.9124 
L 216.63936 342.6948 
L 218.2464 342.2412 
L 219.85344 341.208 
L 221.46048 339.6708 
L 223.06752 338.3352 
L 224.67456 336.3192 
L 226.2816 333.6228 
L 229.49568 330.4476 
L 231.10272 328.104 
L 232.70976 327.474 
L 235.92384 322.9128 
L 237.53088 320.1912 
L 239.13792 318.6792 
L 240.74496 317.8476 
L 242.352 317.1924 
L 243.95904 314.6724 
L 245.56608 313.866 
L 247.17312 313.3368 
L 248.78016 311.7996 
L 250.3872 310.8672 
L 251.99424 310.1868 
L 253.60128 310.1616 
L 255.20832 309.8088 
L 256.81536 307.944 
L 258.4224 306.936 
L 260.02944 305.5752 
L 263.24352 303.2064 
L 264.85056 302.7024 
L 266.4576 301.5432 
L 268.06464 299.88 
L 269.67168 298.8972 
L 272.88576 296.352 
L 274.4928 294.84 
L 276.09984 293.832 
L 277.70688 293.6556 
L 279.31392 293.1768 
L 280.92096 292.8492 
L 282.528 292.1688 
L 284.13504 291.8412 
L 287.34912 289.4976 
L 288.95616 288.1116 
L 290.5632 287.1288 
L 292.17024 286.4736 
L 293.77728 285.5916 
L 295.38432 285.39 
L 296.99136 284.9112 
L 298.5984 284.2308 
L 300.20544 283.7268 
L 303.41952 281.7108 
L 305.02656 279.8712 
L 306.6336 277.6536 
L 308.24064 275.6628 
L 309.84768 272.79 
L 311.45472 270.4716 
L 313.06176 267.5988 
L 314.6688 265.9356 
L 316.27584 263.2392 
L 317.88288 262.3824 
L 319.48992 259.686 
L 321.09696 259.0056 
L 322.704 258.5268 
L 324.31104 257.8716 
L 325.91808 257.3676 
L 327.52512 256.3848 
L 329.13216 256.2084 
L 332.34624 253.8648 
L 333.95328 252.3276 
L 335.56032 250.4628 
L 337.16736 249.3036 
L 340.38144 243.7344 
L 341.98848 242.6004 
L 343.59552 241.7184 
L 345.20256 239.7276 
L 346.8096 238.266 
L 348.41664 237.2076 
L 350.02368 235.872 
L 351.63072 235.368 
L 353.23776 234.1332 
L 356.45184 232.5204 
L 358.05888 232.8732 
L 359.66592 232.5456 
L 361.27296 231.5376 
L 364.48704 231.0084 
L 366.09408 230.5044 
L 367.70112 230.3532 
L 369.30816 229.6728 
L 375.73632 225.6408 
L 377.34336 223.8012 
L 378.9504 222.6168 
L 380.55744 221.256 
L 382.16448 220.752 
L 383.77152 219.7188 
L 385.37856 219.7188 
L 388.59264 218.0556 
L 391.80672 217.7028 
L 393.41376 217.8792 
L 395.0208 217.8792 
L 396.62784 217.0476 
L 401.44896 215.5356 
L 403.056 216.0396 
L 404.66304 216.0648 
L 406.27008 214.8804 
L 407.87712 214.5276 
L 409.48416 214.5528 
L 412.69824 214.2252 
L 414.30528 213.5196 
L 415.91232 213.3432 
L 417.51936 212.4864 
L 419.1264 212.3604 
L 422.34048 209.4372 
L 423.94752 208.8072 
L 427.1616 204.2964 
L 430.37568 200.9196 
L 431.98272 198.0972 
L 435.1968 193.8384 
L 436.80384 194.04 
L 438.41088 192.1752 
L 440.01792 190.6632 
L 441.62496 189.3528 
L 443.232 188.8488 
L 444.83904 187.1352 
L 446.44608 185.976 
L 448.05312 185.7996 
L 449.66016 185.2956 
L 452.87424 183.582 
L 454.48128 182.9268 
L 456.08832 181.7676 
L 457.69536 181.5912 
L 459.3024 179.7264 
L 460.90944 179.55 
L 462.51648 178.9452 
L 464.12352 177.7356 
L 465.73056 176.2488 
L 467.3376 176.2488 
L 468.94464 175.9212 
L 470.55168 175.392 
L 472.15872 174.5856 
L 475.3728 174.7368 
L 476.97984 174.0312 
L 478.58688 174.0312 
L 480.19392 173.7036 
L 481.80096 172.872 
L 483.408 173.1744 
L 485.01504 173.88 
L 486.62208 173.5776 
L 489.83616 172.5444 
L 491.4432 172.1664 
L 493.05024 172.0404 
L 494.65728 173.0484 
L 496.26432 173.7288 
L 497.87136 173.5272 
L 499.4784 173.0484 
L 501.08544 173.5272 
L 502.69248 173.0232 
L 504.29952 173.376 
L 505.90656 173.1996 
L 507.5136 172.1916 
L 509.12064 171.7128 
L 510.72768 171.0576 
L 512.33472 170.0496 
L 513.94176 168.8652 
L 517.15584 167.202 
L 518.76288 165.8412 
L 521.97696 164.808 
L 523.584 164.1276 
L 525.19104 163.296 
L 526.79808 163.4472 
L 528.40512 162.792 
L 531.6192 163.296 
L 533.22624 162.9684 
L 534.83328 162.1116 
L 538.04736 162.4392 
L 539.6544 162.2628 
L 541.26144 162.9432 
L 542.86848 162.8172 
L 546.08256 162.1368 
L 547.6896 161.1288 
L 549.29664 160.5996 
L 552.51072 160.2972 
L 554.11776 159.768 
L 555.7248 160.0956 
L 557.33184 160.0956 
L 558.93888 159.264 
L 560.54592 159.0876 
L 562.15296 159.2388 
L 563.76 158.9364 
L 565.36704 158.76 
L 566.97408 158.2812 
L 568.58112 158.7852 
L 570.18816 158.9364 
L 573.40224 159.894 
L 575.00928 160.2468 
L 576.61632 160.272 
L 583.04448 161.4312 
L 584.65152 161.9352 
L 586.25856 161.7588 
L 587.8656 161.784 
L 589.47264 162.1368 
L 591.07968 161.9604 
L 592.68672 162.288 
L 595.9008 162.666 
L 597.50784 162.1368 
L 599.11488 161.9604 
L 600.72192 161.4312 
L 602.32896 161.6076 
L 603.936 161.2548 
L 605.54304 161.4312 
L 607.15008 161.9352 
L 610.36416 161.6328 
L 616.79232 161.4564 
L 620.0064 161.8092 
L 621.61344 162.1368 
L 623.22048 161.4564 
L 624.82752 162.2628 
L 626.43456 162.2628 
L 628.0416 160.7508 
L 629.64864 160.6248 
L 631.25568 160.6248 
L 632.86272 160.2972 
L 639.29088 158.2812 
L 640.89792 158.76 
L 642.50496 158.256 
L 644.112 158.4576 
L 645.71904 158.7852 
L 647.32608 159.264 
L 648.93312 159.264 
L 650.54016 159.9444 
L 652.1472 160.1208 
L 653.75424 159.9192 
L 655.36128 158.886 
L 656.96832 159.39 
L 658.57536 160.0956 
L 660.1824 159.5916 
L 661.78944 159.9192 
L 663.39648 159.9192 
L 665.00352 160.0956 
L 666.61056 159.4656 
L 668.2176 159.1128 
L 669.82464 158.5836 
L 671.43168 158.5836 
L 674.64576 158.9112 
L 676.2528 158.4324 
L 677.85984 158.9112 
L 679.46688 158.9112 
L 681.07392 158.382 
L 682.68096 158.76 
L 684.288 158.76 
L 685.89504 158.9364 
L 687.50208 158.9364 
L 689.10912 159.0876 
L 690.71616 158.382 
L 692.3232 158.0796 
L 693.93024 158.7096 
L 697.14432 158.2056 
L 700.3584 158.5836 
L 705.17952 156.9456 
L 708.3936 157.2732 
L 710.00064 157.0968 
L 711.60768 157.0716 
L 713.21472 157.9032 
L 714.82176 157.9284 
L 719.64288 158.4576 
L 722.85696 158.1048 
L 724.464 158.256 
L 726.07104 157.5756 
L 729.28512 157.9032 
L 730.89216 158.5836 
L 732.4992 157.6008 
L 734.10624 157.5756 
L 735.71328 157.752 
L 737.32032 157.4244 
L 738.92736 157.5756 
L 740.5344 157.9284 
L 742.14144 157.5756 
L 743.74848 157.7268 
L 745.35552 157.752 
L 746.96256 157.0716 
L 748.5696 157.4244 
L 750.17664 157.0968 
L 751.78368 156.9456 
L 753.39072 157.0716 
L 756.6048 156.0888 
L 758.21184 156.114 
L 759.81888 156.4416 
L 761.42592 156.0888 
L 763.03296 155.4336 
L 764.64 156.4416 
L 766.24704 155.9376 
L 767.85408 155.9376 
L 769.46112 156.2652 
L 772.6752 156.2652 
L 774.28224 155.4084 
L 775.88928 155.7612 
L 783.92448 155.7108 
L 785.53152 156.24 
L 787.13856 156.5424 
L 788.7456 156.7188 
L 790.35264 156.7188 
L 791.95968 157.3992 
L 795.17376 157.0716 
L 796.7808 157.3992 
L 798.38784 157.0716 
L 799.99488 157.4496 
L 801.60192 157.0968 
L 806.42304 156.5676 
L 808.03008 155.5848 
L 809.63712 154.2492 
L 811.24416 151.8804 
L 812.8512 148.5036 
L 814.45824 147.4956 
L 816.06528 145.5048 
L 819.27936 143.8416 
L 824.10048 143.3628 
L 825.70752 143.3376 
L 827.31456 142.8336 
L 828.9216 143.3124 
L 830.52864 143.3124 
L 833.74272 142.9596 
L 835.34976 143.3124 
L 836.9568 142.9848 
L 843.38496 142.4556 
L 844.992 142.6068 
L 846.59904 143.4384 
L 848.20608 143.136 
L 849.81312 143.9676 
L 851.42016 143.8164 
L 853.0272 144.3456 
L 854.63424 144.3456 
L 856.24128 144.4716 
L 857.84832 144.9756 
L 859.45536 144.8244 
L 864.27648 144.7992 
L 865.88352 145.1268 
L 867.49056 145.1268 
L 869.0976 144.9756 
L 870.70464 145.3032 
L 872.31168 144.9756 
L 873.91872 144.7992 
L 875.52576 145.1772 
L 877.1328 145.0008 
L 878.73984 145.1268 
L 880.34688 145.1268 
L 881.95392 144.9504 
L 883.56096 144.4464 
L 885.168 144.8244 
L 886.77504 144.4716 
L 889.98912 144.1188 
L 891.59616 143.8164 
L 893.2032 143.9928 
L 896.41728 143.9928 
L 898.02432 143.4888 
L 899.63136 142.6572 
L 904.45248 143.136 
L 907.66656 142.4556 
L 909.2736 140.9184 
L 912.48768 139.608 
L 914.09472 138.096 
L 915.70176 136.9368 
L 917.3088 135.3744 
L 918.91584 134.3916 
L 920.52288 135.0972 
L 922.12992 133.3836 
L 923.73696 133.0812 
L 925.344 133.2324 
L 926.95104 132.552 
L 928.55808 132.3504 
L 930.16512 132.3756 
L 931.77216 132.7284 
L 933.3792 132.1992 
L 934.98624 132.7284 
L 936.59328 133.0308 
L 938.20032 132.678 
L 939.80736 133.182 
L 941.4144 132.8544 
L 943.02144 132.678 
L 944.62848 133.056 
L 946.23552 133.2324 
L 947.84256 133.0308 
L 949.4496 133.9128 
L 951.05664 133.7112 
L 952.66368 134.0892 
L 954.27072 134.9208 
L 955.87776 134.2404 
L 957.4848 134.7444 
L 959.09184 134.9208 
L 963.91296 134.568 
L 963.91296 134.568 
" style="fill:none;stroke:#ff0000;stroke-linecap:square;"/>
   </g>
   <g id="line2d_4">
    <path clip-path="url(#p66e50bb377)" d="M 162 431.5752 
L 163.60704 432.1044 
L 165.21408 430.7688 
L 166.82112 428.9544 
L 168.42816 428.0472 
L 170.0352 425.88 
L 171.64224 423.0576 
L 173.24928 421.848 
L 174.85632 420.336 
L 176.46336 417.816 
L 178.0704 416.304 
L 181.28448 409.7772 
L 182.89152 407.0808 
L 184.49856 404.7372 
L 186.1056 402.8724 
L 187.71264 400.176 
L 189.31968 398.3364 
L 190.92672 395.9676 
L 194.1408 392.9436 
L 195.74784 390.9528 
L 197.35488 390.2724 
L 198.96192 387.9036 
L 202.176 382.2084 
L 203.78304 379.6884 
L 205.39008 377.5212 
L 206.99712 374.7744 
L 208.60416 371.2212 
L 211.81824 368.2476 
L 213.42528 366.7356 
L 215.03232 365.5764 
L 216.63936 363.0564 
L 218.2464 361.3428 
L 219.85344 358.9992 
L 221.46048 355.824 
L 223.06752 352.296 
L 224.67456 350.6328 
L 226.2816 347.9112 
L 229.49568 343.3752 
L 232.70976 339.5196 
L 234.3168 338.7132 
L 235.92384 337.5036 
L 237.53088 335.8152 
L 240.74496 331.8336 
L 242.352 328.7844 
L 243.95904 326.2392 
L 247.17312 320.0652 
L 248.78016 318.0492 
L 250.3872 315 
L 251.99424 312.48 
L 253.60128 309.1284 
L 255.20832 308.1456 
L 256.81536 306.4824 
L 258.4224 304.4412 
L 260.02944 301.9212 
L 261.63648 298.8972 
L 264.85056 295.0416 
L 266.4576 292.6476 
L 269.67168 289.4472 
L 271.27872 288.2628 
L 272.88576 287.4312 
L 277.70688 284.4072 
L 279.31392 284.0796 
L 284.13504 281.5596 
L 285.74208 280.35 
L 287.34912 279.72 
L 290.5632 276.318 
L 295.38432 274.0248 
L 301.81248 269.8416 
L 306.6336 265.7844 
L 308.24064 264.7512 
L 309.84768 262.0548 
L 311.45472 261.2484 
L 313.06176 258.1992 
L 314.6688 256.8636 
L 316.27584 254.1924 
L 317.88288 252.1512 
L 319.48992 250.6644 
L 321.09696 249.4548 
L 325.91808 246.96 
L 327.52512 245.952 
L 330.7392 244.2636 
L 332.34624 242.9532 
L 333.95328 241.2396 
L 335.56032 238.896 
L 337.16736 236.0736 
L 338.7744 232.218 
L 341.98848 229.2948 
L 343.59552 227.4552 
L 345.20256 224.784 
L 346.8096 222.4404 
L 348.41664 221.0796 
L 351.63072 219.1896 
L 353.23776 218.3832 
L 354.8448 218.0304 
L 356.45184 218.0556 
L 358.05888 216.8712 
L 359.66592 215.208 
L 361.27296 214.2 
L 364.48704 213.0408 
L 366.09408 211.2012 
L 367.70112 209.8152 
L 369.30816 209.034 
L 370.9152 208.53 
L 372.52224 207.3204 
L 374.12928 206.64 
L 375.73632 205.7832 
L 377.34336 204.624 
L 378.9504 203.7924 
L 380.55744 203.7924 
L 382.16448 202.9356 
L 383.77152 202.2552 
L 385.37856 201.9024 
L 386.9856 201.7764 
L 390.19968 199.9368 
L 391.80672 199.1052 
L 393.41376 198.7524 
L 395.0208 198.6012 
L 396.62784 198.0972 
L 398.23488 197.064 
L 399.84192 197.064 
L 401.44896 196.3836 
L 403.056 196.2072 
L 404.66304 195.3756 
L 406.27008 194.3928 
L 407.87712 193.032 
L 409.48416 190.8144 
L 411.0912 189.4788 
L 412.69824 188.8236 
L 414.30528 187.3116 
L 415.91232 186.1524 
L 417.51936 184.4892 
L 419.1264 184.1616 
L 420.73344 183.6576 
L 422.34048 183.0024 
L 423.94752 182.826 
L 425.55456 181.6164 
L 427.1616 181.5912 
L 428.76864 181.7928 
L 430.37568 181.6164 
L 431.98272 181.2888 
L 433.58976 180.7848 
L 435.1968 180.4068 
L 436.80384 179.0712 
L 438.41088 177.3828 
L 440.01792 177.0552 
L 441.62496 176.0472 
L 443.232 175.5432 
L 444.83904 174.7116 
L 446.44608 175.4172 
L 448.05312 175.5936 
L 449.66016 175.4172 
L 451.2672 174.4092 
L 452.87424 174.0564 
L 454.48128 174.2076 
L 457.69536 173.5524 
L 459.3024 173.7288 
L 460.90944 173.7288 
L 464.12352 173.0736 
L 465.73056 172.5444 
L 467.3376 172.1916 
L 470.55168 172.1916 
L 472.15872 171.2088 
L 473.76576 171.3348 
L 476.97984 170.0244 
L 478.58688 169.848 
L 480.19392 169.1928 
L 486.62208 168.6888 
L 488.22912 168.84 
L 489.83616 168.84 
L 491.4432 168.1848 
L 493.05024 168.336 
L 496.26432 167.3532 
L 497.87136 167.0004 
L 499.4784 166.824 
L 501.08544 167.5044 
L 502.69248 166.6728 
L 504.29952 166.1688 
L 505.90656 164.9844 
L 507.5136 164.7828 
L 509.12064 163.6488 
L 512.33472 161.8092 
L 513.94176 160.4736 
L 515.5488 158.6088 
L 517.15584 157.374 
L 520.36992 154.2492 
L 521.97696 154.224 
L 523.584 153.3672 
L 525.19104 152.8632 
L 526.79808 152.8632 
L 528.40512 153.1908 
L 530.01216 153.216 
L 531.6192 151.8552 
L 533.22624 151.3512 
L 534.83328 152.0064 
L 536.44032 151.9812 
L 538.04736 152.1828 
L 539.6544 152.5104 
L 541.26144 152.1828 
L 542.86848 152.1828 
L 544.47552 152.0316 
L 546.08256 151.2 
L 547.6896 150.9984 
L 549.29664 150.9984 
L 550.90368 150.8472 
L 552.51072 150.8724 
L 554.11776 150.192 
L 555.7248 150.3684 
L 557.33184 150.2172 
L 558.93888 150.192 
L 560.54592 149.8392 
L 562.15296 149.6628 
L 563.76 149.3604 
L 565.36704 148.3272 
L 566.97408 147.5208 
L 568.58112 147.8736 
L 570.18816 147.3444 
L 571.7952 147.4956 
L 573.40224 147.8484 
L 575.00928 147.4956 
L 576.61632 147.3444 
L 578.22336 147.3696 
L 579.8304 147.0168 
L 581.43744 146.8404 
L 584.65152 145.8324 
L 586.25856 145.656 
L 587.8656 145.0008 
L 589.47264 145.1268 
L 591.07968 144.2952 
L 592.68672 144.648 
L 594.29376 144.648 
L 595.9008 144.4464 
L 597.50784 144.9756 
L 599.11488 145.3284 
L 600.72192 144.8244 
L 602.32896 144.8244 
L 603.936 145.4796 
L 605.54304 144.648 
L 607.15008 143.9928 
L 608.75712 144.4968 
L 611.9712 143.4636 
L 613.57824 142.4556 
L 615.18528 143.4888 
L 616.79232 143.136 
L 618.39936 143.4636 
L 620.0064 143.1612 
L 621.61344 142.6572 
L 623.22048 143.136 
L 624.82752 142.7832 
L 626.43456 142.3044 
L 628.0416 142.4556 
L 629.64864 142.2792 
L 631.25568 142.3044 
L 634.46976 141.9768 
L 636.0768 141.1452 
L 637.68384 140.1372 
L 639.29088 139.4568 
L 640.89792 138.2724 
L 642.50496 137.7684 
L 645.71904 136.0548 
L 647.32608 135.3996 
L 648.93312 134.568 
L 650.54016 133.434 
L 652.1472 133.2324 
L 656.96832 131.6952 
L 658.57536 131.8968 
L 660.1824 131.3928 
L 661.78944 131.7456 
L 665.00352 131.3928 
L 666.61056 131.6952 
L 668.2176 131.3928 
L 669.82464 131.2164 
L 671.43168 130.8384 
L 673.03872 131.1912 
L 677.85984 131.1912 
L 679.46688 130.662 
L 681.07392 130.662 
L 682.68096 130.158 
L 684.288 130.158 
L 687.50208 129.8556 
L 689.10912 130.5108 
L 690.71616 129.8304 
L 692.3232 129.8556 
L 693.93024 130.1832 
L 695.53728 131.04 
L 697.14432 130.5108 
L 698.75136 130.158 
L 701.96544 130.8636 
L 703.57248 131.04 
L 705.17952 131.0148 
L 706.78656 131.544 
L 708.3936 131.1912 
L 710.00064 131.3676 
L 711.60768 131.04 
L 713.21472 131.0652 
L 716.4288 130.6872 
L 718.03584 130.7376 
L 719.64288 130.914 
L 721.24992 130.536 
L 722.85696 130.6872 
L 724.464 130.6872 
L 726.07104 131.3676 
L 727.67808 131.3424 
L 729.28512 132.174 
L 732.4992 131.8716 
L 734.10624 132.7032 
L 735.71328 132.8544 
L 737.32032 132.5268 
L 738.92736 132.0228 
L 740.5344 131.6952 
L 742.14144 131.544 
L 743.74848 131.6952 
L 745.35552 132.426 
L 748.5696 132.048 
L 750.17664 131.6952 
L 751.78368 131.8716 
L 753.39072 132.1992 
L 754.99776 132.4008 
L 756.6048 132.0732 
L 758.21184 131.8968 
L 759.81888 132.2496 
L 761.42592 132.3756 
L 764.64 133.0812 
L 767.85408 132.7536 
L 772.6752 133.56 
L 774.28224 133.3836 
L 775.88928 133.7112 
L 780.7104 133.2324 
L 782.31744 132.3504 
L 783.92448 131.8716 
L 785.53152 131.6952 
L 787.13856 131.3676 
L 790.35264 131.6952 
L 793.56672 130.8384 
L 795.17376 130.8384 
L 796.7808 131.5188 
L 798.38784 131.3676 
L 799.99488 130.8636 
L 801.60192 131.1912 
L 803.20896 131.2164 
L 804.816 131.7204 
L 808.03008 131.6952 
L 809.63712 130.8888 
L 811.24416 130.7124 
L 812.8512 130.8888 
L 814.45824 130.8636 
L 816.06528 131.3928 
L 817.67232 131.3928 
L 819.27936 130.3848 
L 820.8864 130.032 
L 822.49344 129.528 
L 824.10048 129.1752 
L 825.70752 128.6712 
L 827.31456 127.6632 
L 828.9216 126.1764 
L 830.52864 124.866 
L 833.74272 123.48 
L 835.34976 123.6816 
L 836.9568 122.85 
L 838.56384 123.3288 
L 840.17088 123.6564 
L 841.77792 123.6564 
L 843.38496 124.1856 
L 844.992 123.984 
L 846.59904 124.1352 
L 848.20608 123.3288 
L 849.81312 123.0012 
L 851.42016 123.3288 
L 853.0272 122.7996 
L 856.24128 122.6736 
L 857.84832 122.346 
L 859.45536 121.464 
L 861.0624 121.4136 
L 862.66944 120.7584 
L 864.27648 120.582 
L 865.88352 120.6072 
L 867.49056 120.1536 
L 869.0976 120.96 
L 870.70464 120.8088 
L 872.31168 120.96 
L 873.91872 120.3048 
L 877.1328 119.952 
L 878.73984 119.6496 
L 880.34688 119.8008 
L 881.95392 119.2716 
L 883.56096 118.944 
L 886.77504 118.7928 
L 888.38208 118.2384 
L 889.98912 118.5912 
L 891.59616 118.4148 
L 893.2032 117.9108 
L 894.81024 117.2808 
L 896.41728 117.2808 
L 898.02432 116.0964 
L 899.63136 116.4492 
L 901.2384 115.9452 
L 902.84544 116.0964 
L 904.45248 115.7436 
L 906.05952 115.7688 
L 907.66656 114.7356 
L 909.2736 114.5592 
L 910.88064 114.7356 
L 912.48768 115.0884 
L 920.52288 113.3748 
L 922.12992 113.3748 
L 923.73696 113.526 
L 926.95104 114.5592 
L 930.16512 114.2568 
L 931.77216 113.7276 
L 933.3792 112.7196 
L 934.98624 112.2408 
L 936.59328 112.5684 
L 938.20032 112.4172 
L 939.80736 112.5432 
L 941.4144 113.2236 
L 943.02144 113.2236 
L 944.62848 112.7196 
L 947.84256 113.0472 
L 949.4496 113.3748 
L 952.66368 112.7196 
L 954.27072 113.0472 
L 959.09184 112.392 
L 960.69888 113.0472 
L 962.30592 112.7196 
L 963.91296 112.5684 
L 963.91296 112.5684 
" style="fill:none;stroke:#00bfbf;stroke-linecap:square;"/>
   </g>
   <g id="patch_3">
    <path d="M 162 50.4 
L 965.52 50.4 
" style="fill:none;stroke:#000000;stroke-linecap:square;stroke-linejoin:miter;"/>
   </g>
   <g id="patch_4">
    <path d="M 965.52 453.6 
L 965.52 50.4 
" style="fill:none;stroke:#000000;stroke-linecap:square;stroke-linejoin:miter;"/>
   </g>
   <g id="patch_5">
    <path d="M 162 453.6 
L 965.52 453.6 
" style="fill:none;stroke:#000000;stroke-linecap:square;stroke-linejoin:miter;"/>
   </g>
   <g id="patch_6">
    <path d="M 162 453.6 
L 162 50.4 
" style="fill:none;stroke:#000000;stroke-linecap:square;stroke-linejoin:miter;"/>
   </g>
   <g id="matplotlib.axis_1">
    <g id="xtick_1">
     <g id="line2d_5">
      <defs>
       <path d="M 0 0 
L 0 -4 
" id="m846ff32b0f" style="stroke:#000000;stroke-width:0.5;"/>
      </defs>
      <g>
       <use style="stroke:#000000;stroke-width:0.5;" x="162.0" xlink:href="#m846ff32b0f" y="453.6"/>
      </g>
     </g>
     <g id="line2d_6">
      <defs>
       <path d="M 0 0 
L 0 4 
" id="mdfe80e9a11" style="stroke:#000000;stroke-width:0.5;"/>
      </defs>
      <g>
       <use style="stroke:#000000;stroke-width:0.5;" x="162.0" xlink:href="#mdfe80e9a11" y="50.4"/>
      </g>
     </g>
     <g id="text_1">
      <!-- 0 -->
      <defs>
       <path d="M 31.78125 66.40625 
Q 24.171875 66.40625 20.328125 58.90625 
Q 16.5 51.421875 16.5 36.375 
Q 16.5 21.390625 20.328125 13.890625 
Q 24.171875 6.390625 31.78125 6.390625 
Q 39.453125 6.390625 43.28125 13.890625 
Q 47.125 21.390625 47.125 36.375 
Q 47.125 51.421875 43.28125 58.90625 
Q 39.453125 66.40625 31.78125 66.40625 
M 31.78125 74.21875 
Q 44.046875 74.21875 50.515625 64.515625 
Q 56.984375 54.828125 56.984375 36.375 
Q 56.984375 17.96875 50.515625 8.265625 
Q 44.046875 -1.421875 31.78125 -1.421875 
Q 19.53125 -1.421875 13.0625 8.265625 
Q 6.59375 17.96875 6.59375 36.375 
Q 6.59375 54.828125 13.0625 64.515625 
Q 19.53125 74.21875 31.78125 74.21875 
" id="BitstreamVeraSans-Roman-30"/>
      </defs>
      <g transform="translate(158.1825 466.718125)scale(0.12 -0.12)">
       <use xlink:href="#BitstreamVeraSans-Roman-30"/>
      </g>
     </g>
    </g>
    <g id="xtick_2">
     <g id="line2d_7">
      <g>
       <use style="stroke:#000000;stroke-width:0.5;" x="322.704" xlink:href="#m846ff32b0f" y="453.6"/>
      </g>
     </g>
     <g id="line2d_8">
      <g>
       <use style="stroke:#000000;stroke-width:0.5;" x="322.704" xlink:href="#mdfe80e9a11" y="50.4"/>
      </g>
     </g>
     <g id="text_2">
      <!-- 100 -->
      <defs>
       <path d="M 12.40625 8.296875 
L 28.515625 8.296875 
L 28.515625 63.921875 
L 10.984375 60.40625 
L 10.984375 69.390625 
L 28.421875 72.90625 
L 38.28125 72.90625 
L 38.28125 8.296875 
L 54.390625 8.296875 
L 54.390625 0 
L 12.40625 0 
z
" id="BitstreamVeraSans-Roman-31"/>
      </defs>
      <g transform="translate(311.2515 466.718125)scale(0.12 -0.12)">
       <use xlink:href="#BitstreamVeraSans-Roman-31"/>
       <use x="63.623046875" xlink:href="#BitstreamVeraSans-Roman-30"/>
       <use x="127.24609375" xlink:href="#BitstreamVeraSans-Roman-30"/>
      </g>
     </g>
    </g>
    <g id="xtick_3">
     <g id="line2d_9">
      <g>
       <use style="stroke:#000000;stroke-width:0.5;" x="483.408" xlink:href="#m846ff32b0f" y="453.6"/>
      </g>
     </g>
     <g id="line2d_10">
      <g>
       <use style="stroke:#000000;stroke-width:0.5;" x="483.408" xlink:href="#mdfe80e9a11" y="50.4"/>
      </g>
     </g>
     <g id="text_3">
      <!-- 200 -->
      <defs>
       <path d="M 19.1875 8.296875 
L 53.609375 8.296875 
L 53.609375 0 
L 7.328125 0 
L 7.328125 8.296875 
Q 12.9375 14.109375 22.625 23.890625 
Q 32.328125 33.6875 34.8125 36.53125 
Q 39.546875 41.84375 41.421875 45.53125 
Q 43.3125 49.21875 43.3125 52.78125 
Q 43.3125 58.59375 39.234375 62.25 
Q 35.15625 65.921875 28.609375 65.921875 
Q 23.96875 65.921875 18.8125 64.3125 
Q 13.671875 62.703125 7.8125 59.421875 
L 7.8125 69.390625 
Q 13.765625 71.78125 18.9375 73 
Q 24.125 74.21875 28.421875 74.21875 
Q 39.75 74.21875 46.484375 68.546875 
Q 53.21875 62.890625 53.21875 53.421875 
Q 53.21875 48.921875 51.53125 44.890625 
Q 49.859375 40.875 45.40625 35.40625 
Q 44.1875 33.984375 37.640625 27.21875 
Q 31.109375 20.453125 19.1875 8.296875 
" id="BitstreamVeraSans-Roman-32"/>
      </defs>
      <g transform="translate(471.9555 466.718125)scale(0.12 -0.12)">
       <use xlink:href="#BitstreamVeraSans-Roman-32"/>
       <use x="63.623046875" xlink:href="#BitstreamVeraSans-Roman-30"/>
       <use x="127.24609375" xlink:href="#BitstreamVeraSans-Roman-30"/>
      </g>
     </g>
    </g>
    <g id="xtick_4">
     <g id="line2d_11">
      <g>
       <use style="stroke:#000000;stroke-width:0.5;" x="644.112" xlink:href="#m846ff32b0f" y="453.6"/>
      </g>
     </g>
     <g id="line2d_12">
      <g>
       <use style="stroke:#000000;stroke-width:0.5;" x="644.112" xlink:href="#mdfe80e9a11" y="50.4"/>
      </g>
     </g>
     <g id="text_4">
      <!-- 300 -->
      <defs>
       <path d="M 40.578125 39.3125 
Q 47.65625 37.796875 51.625 33 
Q 55.609375 28.21875 55.609375 21.1875 
Q 55.609375 10.40625 48.1875 4.484375 
Q 40.765625 -1.421875 27.09375 -1.421875 
Q 22.515625 -1.421875 17.65625 -0.515625 
Q 12.796875 0.390625 7.625 2.203125 
L 7.625 11.71875 
Q 11.71875 9.328125 16.59375 8.109375 
Q 21.484375 6.890625 26.8125 6.890625 
Q 36.078125 6.890625 40.9375 10.546875 
Q 45.796875 14.203125 45.796875 21.1875 
Q 45.796875 27.640625 41.28125 31.265625 
Q 36.765625 34.90625 28.71875 34.90625 
L 20.21875 34.90625 
L 20.21875 43.015625 
L 29.109375 43.015625 
Q 36.375 43.015625 40.234375 45.921875 
Q 44.09375 48.828125 44.09375 54.296875 
Q 44.09375 59.90625 40.109375 62.90625 
Q 36.140625 65.921875 28.71875 65.921875 
Q 24.65625 65.921875 20.015625 65.03125 
Q 15.375 64.15625 9.8125 62.3125 
L 9.8125 71.09375 
Q 15.4375 72.65625 20.34375 73.4375 
Q 25.25 74.21875 29.59375 74.21875 
Q 40.828125 74.21875 47.359375 69.109375 
Q 53.90625 64.015625 53.90625 55.328125 
Q 53.90625 49.265625 50.4375 45.09375 
Q 46.96875 40.921875 40.578125 39.3125 
" id="BitstreamVeraSans-Roman-33"/>
      </defs>
      <g transform="translate(632.6595 466.718125)scale(0.12 -0.12)">
       <use xlink:href="#BitstreamVeraSans-Roman-33"/>
       <use x="63.623046875" xlink:href="#BitstreamVeraSans-Roman-30"/>
       <use x="127.24609375" xlink:href="#BitstreamVeraSans-Roman-30"/>
      </g>
     </g>
    </g>
    <g id="xtick_5">
     <g id="line2d_13">
      <g>
       <use style="stroke:#000000;stroke-width:0.5;" x="804.816" xlink:href="#m846ff32b0f" y="453.6"/>
      </g>
     </g>
     <g id="line2d_14">
      <g>
       <use style="stroke:#000000;stroke-width:0.5;" x="804.816" xlink:href="#mdfe80e9a11" y="50.4"/>
      </g>
     </g>
     <g id="text_5">
      <!-- 400 -->
      <defs>
       <path d="M 37.796875 64.3125 
L 12.890625 25.390625 
L 37.796875 25.390625 
z
M 35.203125 72.90625 
L 47.609375 72.90625 
L 47.609375 25.390625 
L 58.015625 25.390625 
L 58.015625 17.1875 
L 47.609375 17.1875 
L 47.609375 0 
L 37.796875 0 
L 37.796875 17.1875 
L 4.890625 17.1875 
L 4.890625 26.703125 
z
" id="BitstreamVeraSans-Roman-34"/>
      </defs>
      <g transform="translate(793.3635 466.718125)scale(0.12 -0.12)">
       <use xlink:href="#BitstreamVeraSans-Roman-34"/>
       <use x="63.623046875" xlink:href="#BitstreamVeraSans-Roman-30"/>
       <use x="127.24609375" xlink:href="#BitstreamVeraSans-Roman-30"/>
      </g>
     </g>
    </g>
    <g id="xtick_6">
     <g id="line2d_15">
      <g>
       <use style="stroke:#000000;stroke-width:0.5;" x="965.52" xlink:href="#m846ff32b0f" y="453.6"/>
      </g>
     </g>
     <g id="line2d_16">
      <g>
       <use style="stroke:#000000;stroke-width:0.5;" x="965.52" xlink:href="#mdfe80e9a11" y="50.4"/>
      </g>
     </g>
     <g id="text_6">
      <!-- 500 -->
      <defs>
       <path d="M 10.796875 72.90625 
L 49.515625 72.90625 
L 49.515625 64.59375 
L 19.828125 64.59375 
L 19.828125 46.734375 
Q 21.96875 47.46875 24.109375 47.828125 
Q 26.265625 48.1875 28.421875 48.1875 
Q 40.625 48.1875 47.75 41.5 
Q 54.890625 34.8125 54.890625 23.390625 
Q 54.890625 11.625 47.5625 5.09375 
Q 40.234375 -1.421875 26.90625 -1.421875 
Q 22.3125 -1.421875 17.546875 -0.640625 
Q 12.796875 0.140625 7.71875 1.703125 
L 7.71875 11.625 
Q 12.109375 9.234375 16.796875 8.0625 
Q 21.484375 6.890625 26.703125 6.890625 
Q 35.15625 6.890625 40.078125 11.328125 
Q 45.015625 15.765625 45.015625 23.390625 
Q 45.015625 31 40.078125 35.4375 
Q 35.15625 39.890625 26.703125 39.890625 
Q 22.75 39.890625 18.8125 39.015625 
Q 14.890625 38.140625 10.796875 36.28125 
z
" id="BitstreamVeraSans-Roman-35"/>
      </defs>
      <g transform="translate(954.0675 466.718125)scale(0.12 -0.12)">
       <use xlink:href="#BitstreamVeraSans-Roman-35"/>
       <use x="63.623046875" xlink:href="#BitstreamVeraSans-Roman-30"/>
       <use x="127.24609375" xlink:href="#BitstreamVeraSans-Roman-30"/>
      </g>
     </g>
    </g>
    <g id="text_7">
     <!-- Time -->
     <defs>
      <path d="M 56.203125 29.59375 
L 56.203125 25.203125 
L 14.890625 25.203125 
Q 15.484375 15.921875 20.484375 11.0625 
Q 25.484375 6.203125 34.421875 6.203125 
Q 39.59375 6.203125 44.453125 7.46875 
Q 49.3125 8.734375 54.109375 11.28125 
L 54.109375 2.78125 
Q 49.265625 0.734375 44.1875 -0.34375 
Q 39.109375 -1.421875 33.890625 -1.421875 
Q 20.796875 -1.421875 13.15625 6.1875 
Q 5.515625 13.8125 5.515625 26.8125 
Q 5.515625 40.234375 12.765625 48.109375 
Q 20.015625 56 32.328125 56 
Q 43.359375 56 49.78125 48.890625 
Q 56.203125 41.796875 56.203125 29.59375 
M 47.21875 32.234375 
Q 47.125 39.59375 43.09375 43.984375 
Q 39.0625 48.390625 32.421875 48.390625 
Q 24.90625 48.390625 20.390625 44.140625 
Q 15.875 39.890625 15.1875 32.171875 
z
" id="BitstreamVeraSans-Roman-65"/>
      <path d="M 9.421875 54.6875 
L 18.40625 54.6875 
L 18.40625 0 
L 9.421875 0 
z
M 9.421875 75.984375 
L 18.40625 75.984375 
L 18.40625 64.59375 
L 9.421875 64.59375 
z
" id="BitstreamVeraSans-Roman-69"/>
      <path d="M -0.296875 72.90625 
L 61.375 72.90625 
L 61.375 64.59375 
L 35.5 64.59375 
L 35.5 0 
L 25.59375 0 
L 25.59375 64.59375 
L -0.296875 64.59375 
z
" id="BitstreamVeraSans-Roman-54"/>
      <path d="M 52 44.1875 
Q 55.375 50.25 60.0625 53.125 
Q 64.75 56 71.09375 56 
Q 79.640625 56 84.28125 50.015625 
Q 88.921875 44.046875 88.921875 33.015625 
L 88.921875 0 
L 79.890625 0 
L 79.890625 32.71875 
Q 79.890625 40.578125 77.09375 44.375 
Q 74.3125 48.1875 68.609375 48.1875 
Q 61.625 48.1875 57.5625 43.546875 
Q 53.515625 38.921875 53.515625 30.90625 
L 53.515625 0 
L 44.484375 0 
L 44.484375 32.71875 
Q 44.484375 40.625 41.703125 44.40625 
Q 38.921875 48.1875 33.109375 48.1875 
Q 26.21875 48.1875 22.15625 43.53125 
Q 18.109375 38.875 18.109375 30.90625 
L 18.109375 0 
L 9.078125 0 
L 9.078125 54.6875 
L 18.109375 54.6875 
L 18.109375 46.1875 
Q 21.1875 51.21875 25.484375 53.609375 
Q 29.78125 56 35.6875 56 
Q 41.65625 56 45.828125 52.96875 
Q 50 49.953125 52 44.1875 
" id="BitstreamVeraSans-Roman-6d"/>
     </defs>
     <g transform="translate(548.895 483.331875)scale(0.12 -0.12)">
      <use xlink:href="#BitstreamVeraSans-Roman-54"/>
      <use x="61.037109375" xlink:href="#BitstreamVeraSans-Roman-69"/>
      <use x="88.8203125" xlink:href="#BitstreamVeraSans-Roman-6d"/>
      <use x="186.232421875" xlink:href="#BitstreamVeraSans-Roman-65"/>
     </g>
    </g>
   </g>
   <g id="matplotlib.axis_2">
    <g id="ytick_1">
     <g id="line2d_17">
      <defs>
       <path d="M 0 0 
L 4 0 
" id="mc6fbc5dfca" style="stroke:#000000;stroke-width:0.5;"/>
      </defs>
      <g>
       <use style="stroke:#000000;stroke-width:0.5;" x="162.0" xlink:href="#mc6fbc5dfca" y="453.6"/>
      </g>
     </g>
     <g id="line2d_18">
      <defs>
       <path d="M 0 0 
L -4 0 
" id="m8ad5fb8ebd" style="stroke:#000000;stroke-width:0.5;"/>
      </defs>
      <g>
       <use style="stroke:#000000;stroke-width:0.5;" x="965.52" xlink:href="#m8ad5fb8ebd" y="453.6"/>
      </g>
     </g>
     <g id="text_8">
      <!-- 0 -->
      <g transform="translate(150.365 456.91125)scale(0.12 -0.12)">
       <use xlink:href="#BitstreamVeraSans-Roman-30"/>
      </g>
     </g>
    </g>
    <g id="ytick_2">
     <g id="line2d_19">
      <g>
       <use style="stroke:#000000;stroke-width:0.5;" x="162.0" xlink:href="#mc6fbc5dfca" y="403.2"/>
      </g>
     </g>
     <g id="line2d_20">
      <g>
       <use style="stroke:#000000;stroke-width:0.5;" x="965.52" xlink:href="#m8ad5fb8ebd" y="403.2"/>
      </g>
     </g>
     <g id="text_9">
      <!-- 2 -->
      <g transform="translate(150.365 406.51125)scale(0.12 -0.12)">
       <use xlink:href="#BitstreamVeraSans-Roman-32"/>
      </g>
     </g>
    </g>
    <g id="ytick_3">
     <g id="line2d_21">
      <g>
       <use style="stroke:#000000;stroke-width:0.5;" x="162.0" xlink:href="#mc6fbc5dfca" y="352.8"/>
      </g>
     </g>
     <g id="line2d_22">
      <g>
       <use style="stroke:#000000;stroke-width:0.5;" x="965.52" xlink:href="#m8ad5fb8ebd" y="352.8"/>
      </g>
     </g>
     <g id="text_10">
      <!-- 4 -->
      <g transform="translate(150.365 356.11125)scale(0.12 -0.12)">
       <use xlink:href="#BitstreamVeraSans-Roman-34"/>
      </g>
     </g>
    </g>
    <g id="ytick_4">
     <g id="line2d_23">
      <g>
       <use style="stroke:#000000;stroke-width:0.5;" x="162.0" xlink:href="#mc6fbc5dfca" y="302.4"/>
      </g>
     </g>
     <g id="line2d_24">
      <g>
       <use style="stroke:#000000;stroke-width:0.5;" x="965.52" xlink:href="#m8ad5fb8ebd" y="302.4"/>
      </g>
     </g>
     <g id="text_11">
      <!-- 6 -->
      <defs>
       <path d="M 33.015625 40.375 
Q 26.375 40.375 22.484375 35.828125 
Q 18.609375 31.296875 18.609375 23.390625 
Q 18.609375 15.53125 22.484375 10.953125 
Q 26.375 6.390625 33.015625 6.390625 
Q 39.65625 6.390625 43.53125 10.953125 
Q 47.40625 15.53125 47.40625 23.390625 
Q 47.40625 31.296875 43.53125 35.828125 
Q 39.65625 40.375 33.015625 40.375 
M 52.59375 71.296875 
L 52.59375 62.3125 
Q 48.875 64.0625 45.09375 64.984375 
Q 41.3125 65.921875 37.59375 65.921875 
Q 27.828125 65.921875 22.671875 59.328125 
Q 17.53125 52.734375 16.796875 39.40625 
Q 19.671875 43.65625 24.015625 45.921875 
Q 28.375 48.1875 33.59375 48.1875 
Q 44.578125 48.1875 50.953125 41.515625 
Q 57.328125 34.859375 57.328125 23.390625 
Q 57.328125 12.15625 50.6875 5.359375 
Q 44.046875 -1.421875 33.015625 -1.421875 
Q 20.359375 -1.421875 13.671875 8.265625 
Q 6.984375 17.96875 6.984375 36.375 
Q 6.984375 53.65625 15.1875 63.9375 
Q 23.390625 74.21875 37.203125 74.21875 
Q 40.921875 74.21875 44.703125 73.484375 
Q 48.484375 72.75 52.59375 71.296875 
" id="BitstreamVeraSans-Roman-36"/>
      </defs>
      <g transform="translate(150.365 305.71125)scale(0.12 -0.12)">
       <use xlink:href="#BitstreamVeraSans-Roman-36"/>
      </g>
     </g>
    </g>
    <g id="ytick_5">
     <g id="line2d_25">
      <g>
       <use style="stroke:#000000;stroke-width:0.5;" x="162.0" xlink:href="#mc6fbc5dfca" y="252.0"/>
      </g>
     </g>
     <g id="line2d_26">
      <g>
       <use style="stroke:#000000;stroke-width:0.5;" x="965.52" xlink:href="#m8ad5fb8ebd" y="252.0"/>
      </g>
     </g>
     <g id="text_12">
      <!-- 8 -->
      <defs>
       <path d="M 31.78125 34.625 
Q 24.75 34.625 20.71875 30.859375 
Q 16.703125 27.09375 16.703125 20.515625 
Q 16.703125 13.921875 20.71875 10.15625 
Q 24.75 6.390625 31.78125 6.390625 
Q 38.8125 6.390625 42.859375 10.171875 
Q 46.921875 13.96875 46.921875 20.515625 
Q 46.921875 27.09375 42.890625 30.859375 
Q 38.875 34.625 31.78125 34.625 
M 21.921875 38.8125 
Q 15.578125 40.375 12.03125 44.71875 
Q 8.5 49.078125 8.5 55.328125 
Q 8.5 64.0625 14.71875 69.140625 
Q 20.953125 74.21875 31.78125 74.21875 
Q 42.671875 74.21875 48.875 69.140625 
Q 55.078125 64.0625 55.078125 55.328125 
Q 55.078125 49.078125 51.53125 44.71875 
Q 48 40.375 41.703125 38.8125 
Q 48.828125 37.15625 52.796875 32.3125 
Q 56.78125 27.484375 56.78125 20.515625 
Q 56.78125 9.90625 50.3125 4.234375 
Q 43.84375 -1.421875 31.78125 -1.421875 
Q 19.734375 -1.421875 13.25 4.234375 
Q 6.78125 9.90625 6.78125 20.515625 
Q 6.78125 27.484375 10.78125 32.3125 
Q 14.796875 37.15625 21.921875 38.8125 
M 18.3125 54.390625 
Q 18.3125 48.734375 21.84375 45.5625 
Q 25.390625 42.390625 31.78125 42.390625 
Q 38.140625 42.390625 41.71875 45.5625 
Q 45.3125 48.734375 45.3125 54.390625 
Q 45.3125 60.0625 41.71875 63.234375 
Q 38.140625 66.40625 31.78125 66.40625 
Q 25.390625 66.40625 21.84375 63.234375 
Q 18.3125 60.0625 18.3125 54.390625 
" id="BitstreamVeraSans-Roman-38"/>
      </defs>
      <g transform="translate(150.365 255.31125)scale(0.12 -0.12)">
       <use xlink:href="#BitstreamVeraSans-Roman-38"/>
      </g>
     </g>
    </g>
    <g id="ytick_6">
     <g id="line2d_27">
      <g>
       <use style="stroke:#000000;stroke-width:0.5;" x="162.0" xlink:href="#mc6fbc5dfca" y="201.6"/>
      </g>
     </g>
     <g id="line2d_28">
      <g>
       <use style="stroke:#000000;stroke-width:0.5;" x="965.52" xlink:href="#m8ad5fb8ebd" y="201.6"/>
      </g>
     </g>
     <g id="text_13">
      <!-- 10 -->
      <g transform="translate(142.73 204.91125)scale(0.12 -0.12)">
       <use xlink:href="#BitstreamVeraSans-Roman-31"/>
       <use x="63.623046875" xlink:href="#BitstreamVeraSans-Roman-30"/>
      </g>
     </g>
    </g>
    <g id="ytick_7">
     <g id="line2d_29">
      <g>
       <use style="stroke:#000000;stroke-width:0.5;" x="162.0" xlink:href="#mc6fbc5dfca" y="151.2"/>
      </g>
     </g>
     <g id="line2d_30">
      <g>
       <use style="stroke:#000000;stroke-width:0.5;" x="965.52" xlink:href="#m8ad5fb8ebd" y="151.2"/>
      </g>
     </g>
     <g id="text_14">
      <!-- 12 -->
      <g transform="translate(142.73 154.51125)scale(0.12 -0.12)">
       <use xlink:href="#BitstreamVeraSans-Roman-31"/>
       <use x="63.623046875" xlink:href="#BitstreamVeraSans-Roman-32"/>
      </g>
     </g>
    </g>
    <g id="ytick_8">
     <g id="line2d_31">
      <g>
       <use style="stroke:#000000;stroke-width:0.5;" x="162.0" xlink:href="#mc6fbc5dfca" y="100.8"/>
      </g>
     </g>
     <g id="line2d_32">
      <g>
       <use style="stroke:#000000;stroke-width:0.5;" x="965.52" xlink:href="#m8ad5fb8ebd" y="100.8"/>
      </g>
     </g>
     <g id="text_15">
      <!-- 14 -->
      <g transform="translate(142.73 104.11125)scale(0.12 -0.12)">
       <use xlink:href="#BitstreamVeraSans-Roman-31"/>
       <use x="63.623046875" xlink:href="#BitstreamVeraSans-Roman-34"/>
      </g>
     </g>
    </g>
    <g id="ytick_9">
     <g id="line2d_33">
      <g>
       <use style="stroke:#000000;stroke-width:0.5;" x="162.0" xlink:href="#mc6fbc5dfca" y="50.4"/>
      </g>
     </g>
     <g id="line2d_34">
      <g>
       <use style="stroke:#000000;stroke-width:0.5;" x="965.52" xlink:href="#m8ad5fb8ebd" y="50.4"/>
      </g>
     </g>
     <g id="text_16">
      <!-- 16 -->
      <g transform="translate(142.73 53.71125)scale(0.12 -0.12)">
       <use xlink:href="#BitstreamVeraSans-Roman-31"/>
       <use x="63.623046875" xlink:href="#BitstreamVeraSans-Roman-36"/>
      </g>
     </g>
    </g>
    <g id="text_17">
     <!-- #neighbors -->
     <defs>
      <path d="M 51.125 44 
L 36.921875 44 
L 32.8125 27.6875 
L 47.125 27.6875 
z
M 43.796875 71.78125 
L 38.71875 51.515625 
L 52.984375 51.515625 
L 58.109375 71.78125 
L 65.921875 71.78125 
L 60.890625 51.515625 
L 76.125 51.515625 
L 76.125 44 
L 58.984375 44 
L 54.984375 27.6875 
L 70.515625 27.6875 
L 70.515625 20.21875 
L 53.078125 20.21875 
L 48 0 
L 40.1875 0 
L 45.21875 20.21875 
L 30.90625 20.21875 
L 25.875 0 
L 18.015625 0 
L 23.09375 20.21875 
L 7.71875 20.21875 
L 7.71875 27.6875 
L 24.90625 27.6875 
L 29 44 
L 13.28125 44 
L 13.28125 51.515625 
L 30.90625 51.515625 
L 35.890625 71.78125 
z
" id="BitstreamVeraSans-Roman-23"/>
      <path d="M 54.890625 33.015625 
L 54.890625 0 
L 45.90625 0 
L 45.90625 32.71875 
Q 45.90625 40.484375 42.875 44.328125 
Q 39.84375 48.1875 33.796875 48.1875 
Q 26.515625 48.1875 22.3125 43.546875 
Q 18.109375 38.921875 18.109375 30.90625 
L 18.109375 0 
L 9.078125 0 
L 9.078125 54.6875 
L 18.109375 54.6875 
L 18.109375 46.1875 
Q 21.34375 51.125 25.703125 53.5625 
Q 30.078125 56 35.796875 56 
Q 45.21875 56 50.046875 50.171875 
Q 54.890625 44.34375 54.890625 33.015625 
" id="BitstreamVeraSans-Roman-6e"/>
      <path d="M 30.609375 48.390625 
Q 23.390625 48.390625 19.1875 42.75 
Q 14.984375 37.109375 14.984375 27.296875 
Q 14.984375 17.484375 19.15625 11.84375 
Q 23.34375 6.203125 30.609375 6.203125 
Q 37.796875 6.203125 41.984375 11.859375 
Q 46.1875 17.53125 46.1875 27.296875 
Q 46.1875 37.015625 41.984375 42.703125 
Q 37.796875 48.390625 30.609375 48.390625 
M 30.609375 56 
Q 42.328125 56 49.015625 48.375 
Q 55.71875 40.765625 55.71875 27.296875 
Q 55.71875 13.875 49.015625 6.21875 
Q 42.328125 -1.421875 30.609375 -1.421875 
Q 18.84375 -1.421875 12.171875 6.21875 
Q 5.515625 13.875 5.515625 27.296875 
Q 5.515625 40.765625 12.171875 48.375 
Q 18.84375 56 30.609375 56 
" id="BitstreamVeraSans-Roman-6f"/>
      <path d="M 54.890625 33.015625 
L 54.890625 0 
L 45.90625 0 
L 45.90625 32.71875 
Q 45.90625 40.484375 42.875 44.328125 
Q 39.84375 48.1875 33.796875 48.1875 
Q 26.515625 48.1875 22.3125 43.546875 
Q 18.109375 38.921875 18.109375 30.90625 
L 18.109375 0 
L 9.078125 0 
L 9.078125 75.984375 
L 18.109375 75.984375 
L 18.109375 46.1875 
Q 21.34375 51.125 25.703125 53.5625 
Q 30.078125 56 35.796875 56 
Q 45.21875 56 50.046875 50.171875 
Q 54.890625 44.34375 54.890625 33.015625 
" id="BitstreamVeraSans-Roman-68"/>
      <path d="M 45.40625 27.984375 
Q 45.40625 37.75 41.375 43.109375 
Q 37.359375 48.484375 30.078125 48.484375 
Q 22.859375 48.484375 18.828125 43.109375 
Q 14.796875 37.75 14.796875 27.984375 
Q 14.796875 18.265625 18.828125 12.890625 
Q 22.859375 7.515625 30.078125 7.515625 
Q 37.359375 7.515625 41.375 12.890625 
Q 45.40625 18.265625 45.40625 27.984375 
M 54.390625 6.78125 
Q 54.390625 -7.171875 48.1875 -13.984375 
Q 42 -20.796875 29.203125 -20.796875 
Q 24.46875 -20.796875 20.265625 -20.09375 
Q 16.0625 -19.390625 12.109375 -17.921875 
L 12.109375 -9.1875 
Q 16.0625 -11.328125 19.921875 -12.34375 
Q 23.78125 -13.375 27.78125 -13.375 
Q 36.625 -13.375 41.015625 -8.765625 
Q 45.40625 -4.15625 45.40625 5.171875 
L 45.40625 9.625 
Q 42.625 4.78125 38.28125 2.390625 
Q 33.9375 0 27.875 0 
Q 17.828125 0 11.671875 7.65625 
Q 5.515625 15.328125 5.515625 27.984375 
Q 5.515625 40.671875 11.671875 48.328125 
Q 17.828125 56 27.875 56 
Q 33.9375 56 38.28125 53.609375 
Q 42.625 51.21875 45.40625 46.390625 
L 45.40625 54.6875 
L 54.390625 54.6875 
z
" id="BitstreamVeraSans-Roman-67"/>
      <path d="M 41.109375 46.296875 
Q 39.59375 47.171875 37.8125 47.578125 
Q 36.03125 48 33.890625 48 
Q 26.265625 48 22.1875 43.046875 
Q 18.109375 38.09375 18.109375 28.8125 
L 18.109375 0 
L 9.078125 0 
L 9.078125 54.6875 
L 18.109375 54.6875 
L 18.109375 46.1875 
Q 20.953125 51.171875 25.484375 53.578125 
Q 30.03125 56 36.53125 56 
Q 37.453125 56 38.578125 55.875 
Q 39.703125 55.765625 41.0625 55.515625 
z
" id="BitstreamVeraSans-Roman-72"/>
      <path d="M 44.28125 53.078125 
L 44.28125 44.578125 
Q 40.484375 46.53125 36.375 47.5 
Q 32.28125 48.484375 27.875 48.484375 
Q 21.1875 48.484375 17.84375 46.4375 
Q 14.5 44.390625 14.5 40.28125 
Q 14.5 37.15625 16.890625 35.375 
Q 19.28125 33.59375 26.515625 31.984375 
L 29.59375 31.296875 
Q 39.15625 29.25 43.1875 25.515625 
Q 47.21875 21.78125 47.21875 15.09375 
Q 47.21875 7.46875 41.1875 3.015625 
Q 35.15625 -1.421875 24.609375 -1.421875 
Q 20.21875 -1.421875 15.453125 -0.5625 
Q 10.6875 0.296875 5.421875 2 
L 5.421875 11.28125 
Q 10.40625 8.6875 15.234375 7.390625 
Q 20.0625 6.109375 24.8125 6.109375 
Q 31.15625 6.109375 34.5625 8.28125 
Q 37.984375 10.453125 37.984375 14.40625 
Q 37.984375 18.0625 35.515625 20.015625 
Q 33.0625 21.96875 24.703125 23.78125 
L 21.578125 24.515625 
Q 13.234375 26.265625 9.515625 29.90625 
Q 5.8125 33.546875 5.8125 39.890625 
Q 5.8125 47.609375 11.28125 51.796875 
Q 16.75 56 26.8125 56 
Q 31.78125 56 36.171875 55.265625 
Q 40.578125 54.546875 44.28125 53.078125 
" id="BitstreamVeraSans-Roman-73"/>
      <path d="M 48.6875 27.296875 
Q 48.6875 37.203125 44.609375 42.84375 
Q 40.53125 48.484375 33.40625 48.484375 
Q 26.265625 48.484375 22.1875 42.84375 
Q 18.109375 37.203125 18.109375 27.296875 
Q 18.109375 17.390625 22.1875 11.75 
Q 26.265625 6.109375 33.40625 6.109375 
Q 40.53125 6.109375 44.609375 11.75 
Q 48.6875 17.390625 48.6875 27.296875 
M 18.109375 46.390625 
Q 20.953125 51.265625 25.265625 53.625 
Q 29.59375 56 35.59375 56 
Q 45.5625 56 51.78125 48.09375 
Q 58.015625 40.1875 58.015625 27.296875 
Q 58.015625 14.40625 51.78125 6.484375 
Q 45.5625 -1.421875 35.59375 -1.421875 
Q 29.59375 -1.421875 25.265625 0.953125 
Q 20.953125 3.328125 18.109375 8.203125 
L 18.109375 0 
L 9.078125 0 
L 9.078125 75.984375 
L 18.109375 75.984375 
z
" id="BitstreamVeraSans-Roman-62"/>
     </defs>
     <g transform="translate(135.234375 286.873125)rotate(-90.0)scale(0.12 -0.12)">
      <use xlink:href="#BitstreamVeraSans-Roman-23"/>
      <use x="83.7890625" xlink:href="#BitstreamVeraSans-Roman-6e"/>
      <use x="147.16796875" xlink:href="#BitstreamVeraSans-Roman-65"/>
      <use x="208.69140625" xlink:href="#BitstreamVeraSans-Roman-69"/>
      <use x="236.474609375" xlink:href="#BitstreamVeraSans-Roman-67"/>
      <use x="299.951171875" xlink:href="#BitstreamVeraSans-Roman-68"/>
      <use x="363.330078125" xlink:href="#BitstreamVeraSans-Roman-62"/>
      <use x="426.806640625" xlink:href="#BitstreamVeraSans-Roman-6f"/>
      <use x="487.98828125" xlink:href="#BitstreamVeraSans-Roman-72"/>
      <use x="529.1015625" xlink:href="#BitstreamVeraSans-Roman-73"/>
     </g>
    </g>
   </g>
   <g id="text_18">
    <!-- Alignment: #neighbors -->
    <defs>
     <path id="BitstreamVeraSans-Roman-20"/>
     <path d="M 18.3125 70.21875 
L 18.3125 54.6875 
L 36.8125 54.6875 
L 36.8125 47.703125 
L 18.3125 47.703125 
L 18.3125 18.015625 
Q 18.3125 11.328125 20.140625 9.421875 
Q 21.96875 7.515625 27.59375 7.515625 
L 36.8125 7.515625 
L 36.8125 0 
L 27.59375 0 
Q 17.1875 0 13.234375 3.875 
Q 9.28125 7.765625 9.28125 18.015625 
L 9.28125 47.703125 
L 2.6875 47.703125 
L 2.6875 54.6875 
L 9.28125 54.6875 
L 9.28125 70.21875 
z
" id="BitstreamVeraSans-Roman-74"/>
     <path d="M 11.71875 12.40625 
L 22.015625 12.40625 
L 22.015625 0 
L 11.71875 0 
z
M 11.71875 51.703125 
L 22.015625 51.703125 
L 22.015625 39.3125 
L 11.71875 39.3125 
z
" id="BitstreamVeraSans-Roman-3a"/>
     <path d="M 9.421875 75.984375 
L 18.40625 75.984375 
L 18.40625 0 
L 9.421875 0 
z
" id="BitstreamVeraSans-Roman-6c"/>
     <path d="M 34.1875 63.1875 
L 20.796875 26.90625 
L 47.609375 26.90625 
z
M 28.609375 72.90625 
L 39.796875 72.90625 
L 67.578125 0 
L 57.328125 0 
L 50.6875 18.703125 
L 17.828125 18.703125 
L 11.1875 0 
L 0.78125 0 
z
" id="BitstreamVeraSans-Roman-41"/>
    </defs>
    <g transform="translate(480.30975 45.4)scale(0.144 -0.144)">
     <use xlink:href="#BitstreamVeraSans-Roman-41"/>
     <use x="68.408203125" xlink:href="#BitstreamVeraSans-Roman-6c"/>
     <use x="96.19140625" xlink:href="#BitstreamVeraSans-Roman-69"/>
     <use x="123.974609375" xlink:href="#BitstreamVeraSans-Roman-67"/>
     <use x="187.451171875" xlink:href="#BitstreamVeraSans-Roman-6e"/>
     <use x="250.830078125" xlink:href="#BitstreamVeraSans-Roman-6d"/>
     <use x="348.2421875" xlink:href="#BitstreamVeraSans-Roman-65"/>
     <use x="409.765625" xlink:href="#BitstreamVeraSans-Roman-6e"/>
     <use x="473.14453125" xlink:href="#BitstreamVeraSans-Roman-74"/>
     <use x="512.353515625" xlink:href="#BitstreamVeraSans-Roman-3a"/>
     <use x="546.044921875" xlink:href="#BitstreamVeraSans-Roman-20"/>
     <use x="577.83203125" xlink:href="#BitstreamVeraSans-Roman-23"/>
     <use x="661.62109375" xlink:href="#BitstreamVeraSans-Roman-6e"/>
     <use x="725.0" xlink:href="#BitstreamVeraSans-Roman-65"/>
     <use x="786.5234375" xlink:href="#BitstreamVeraSans-Roman-69"/>
     <use x="814.306640625" xlink:href="#BitstreamVeraSans-Roman-67"/>
     <use x="877.783203125" xlink:href="#BitstreamVeraSans-Roman-68"/>
     <use x="941.162109375" xlink:href="#BitstreamVeraSans-Roman-62"/>
     <use x="1004.63867188" xlink:href="#BitstreamVeraSans-Roman-6f"/>
     <use x="1065.8203125" xlink:href="#BitstreamVeraSans-Roman-72"/>
     <use x="1106.93359375" xlink:href="#BitstreamVeraSans-Roman-73"/>
    </g>
   </g>
   <g id="legend_1">
    <g id="patch_7">
     <path d="M 972.72 138.402 
L 1067.04 138.402 
L 1067.04 49.536 
L 972.72 49.536 
z
" style="fill:#ffffff;stroke:#000000;stroke-linejoin:miter;"/>
    </g>
    <g id="line2d_35">
     <path d="M 982.8 61.19775 
L 1002.96 61.19775 
" style="fill:none;stroke:#0000ff;stroke-linecap:square;"/>
    </g>
    <g id="line2d_36"/>
    <g id="text_19">
     <!-- $A_w=1$ -->
     <defs>
      <path d="M 9.28125 0 
L 9.28125 3.515625 
Q 21.78125 3.515625 21.78125 6.6875 
L 21.78125 59.1875 
Q 16.609375 56.6875 8.6875 56.6875 
L 8.6875 60.203125 
Q 20.953125 60.203125 27.203125 66.609375 
L 28.609375 66.609375 
Q 28.953125 66.609375 29.265625 66.328125 
Q 29.59375 66.0625 29.59375 65.71875 
L 29.59375 6.6875 
Q 29.59375 3.515625 42.09375 3.515625 
L 42.09375 0 
z
" id="Cmr10-31"/>
      <path d="M 10.796875 11.625 
Q 10.796875 13.71875 11.359375 16.453125 
Q 11.921875 19.1875 12.59375 21.3125 
Q 13.28125 23.4375 14.90625 27.828125 
Q 16.546875 32.234375 16.703125 32.625 
Q 18.015625 36.28125 18.015625 38.625 
Q 18.015625 41.609375 15.828125 41.609375 
Q 11.859375 41.609375 9.296875 37.53125 
Q 6.734375 33.453125 5.515625 28.421875 
Q 5.328125 27.78125 4.6875 27.78125 
L 3.515625 27.78125 
Q 2.6875 27.78125 2.6875 28.71875 
L 2.6875 29 
Q 4.296875 34.96875 7.609375 39.578125 
Q 10.9375 44.1875 16.015625 44.1875 
Q 19.578125 44.1875 22.046875 41.84375 
Q 24.515625 39.5 24.515625 35.890625 
Q 24.515625 34.03125 23.6875 31.984375 
Q 22.515625 28.953125 20.921875 24.703125 
Q 19.34375 20.453125 18.453125 16.984375 
Q 17.578125 13.53125 17.578125 10.296875 
Q 17.578125 6.390625 19.625 3.953125 
Q 21.6875 1.515625 25.59375 1.515625 
Q 30.90625 1.515625 34.421875 9.625 
Q 34.28125 10.203125 34.28125 11.28125 
Q 34.28125 13.96875 35.109375 17.390625 
L 40.71875 39.890625 
Q 41.0625 41.21875 42.28125 42.15625 
Q 43.5 43.109375 44.921875 43.109375 
Q 46.09375 43.109375 47 42.328125 
Q 47.90625 41.546875 47.90625 40.28125 
Q 47.90625 39.703125 47.796875 39.5 
L 42.1875 17.1875 
Q 41.21875 13.1875 41.21875 10.015625 
Q 41.21875 6.25 42.9375 3.875 
Q 44.671875 1.515625 48.390625 1.515625 
Q 54.828125 1.515625 58.984375 10.015625 
Q 60.546875 13.03125 62.46875 18.9375 
Q 64.40625 24.859375 64.40625 27.984375 
Q 64.40625 30.859375 63.46875 32.546875 
Q 62.546875 34.234375 60.90625 36.1875 
Q 59.28125 38.140625 59.28125 39.109375 
Q 59.28125 41.015625 60.90625 42.640625 
Q 62.546875 44.28125 64.5 44.28125 
Q 66.890625 44.28125 67.9375 42.078125 
Q 69 39.890625 69 37.109375 
Q 69 33.734375 67.875 28.53125 
Q 66.75 23.34375 65.03125 18.09375 
Q 63.328125 12.84375 61.8125 9.71875 
Q 56.34375 -1.125 48.1875 -1.125 
Q 44 -1.125 40.53125 0.484375 
Q 37.0625 2.09375 35.40625 5.609375 
Q 33.796875 2.734375 31.171875 0.796875 
Q 28.5625 -1.125 25.390625 -1.125 
Q 18.796875 -1.125 14.796875 2.015625 
Q 10.796875 5.171875 10.796875 11.625 
" id="Cmmi10-77"/>
      <path d="M 4.5 0 
Q 3.515625 0 3.515625 1.3125 
Q 3.90625 3.515625 4.78125 3.515625 
Q 8.84375 3.515625 11.796875 5.125 
Q 14.75 6.734375 16.890625 10.109375 
Q 17.09375 10.296875 17.09375 10.296875 
L 52.78125 70.515625 
Q 53.5625 71.578125 54.6875 71.578125 
L 56 71.578125 
Q 56.296875 71.578125 56.59375 71.453125 
Q 56.890625 71.34375 57.109375 71.0625 
Q 57.328125 70.796875 57.328125 70.515625 
L 63.375 5.90625 
Q 63.375 5.46875 63.8125 4.59375 
Q 64.796875 3.515625 71.296875 3.515625 
Q 72.3125 3.515625 72.3125 2.203125 
Q 71.96875 0.875 71.75 0.4375 
Q 71.53125 0 70.609375 0 
L 45.609375 0 
Q 44.671875 0 44.671875 1.3125 
Q 45.21875 3.515625 46 3.515625 
Q 53.90625 3.515625 54.390625 6.203125 
L 52.875 22.703125 
L 28.21875 22.703125 
L 20.21875 9.28125 
Q 19.484375 8.203125 19.484375 6.78125 
Q 19.484375 5.03125 21.171875 4.265625 
Q 22.859375 3.515625 24.90625 3.515625 
Q 25.875 3.515625 25.875 2.203125 
Q 25.53125 0.78125 25.328125 0.390625 
Q 25.140625 0 24.21875 0 
z
M 30.171875 26.21875 
L 52.484375 26.21875 
L 49.515625 58.59375 
z
" id="Cmmi10-41"/>
      <path d="M 7.515625 13.28125 
Q 6.6875 13.28125 6.140625 13.90625 
Q 5.609375 14.546875 5.609375 15.28125 
Q 5.609375 16.109375 6.140625 16.6875 
Q 6.6875 17.28125 7.515625 17.28125 
L 70.3125 17.28125 
Q 71.046875 17.28125 71.578125 16.6875 
Q 72.125 16.109375 72.125 15.28125 
Q 72.125 14.546875 71.578125 13.90625 
Q 71.046875 13.28125 70.3125 13.28125 
z
M 7.515625 32.71875 
Q 6.6875 32.71875 6.140625 33.296875 
Q 5.609375 33.890625 5.609375 34.71875 
Q 5.609375 35.453125 6.140625 36.078125 
Q 6.6875 36.71875 7.515625 36.71875 
L 70.3125 36.71875 
Q 71.046875 36.71875 71.578125 36.078125 
Q 72.125 35.453125 72.125 34.71875 
Q 72.125 33.890625 71.578125 33.296875 
Q 71.046875 32.71875 70.3125 32.71875 
z
" id="Cmr10-3d"/>
     </defs>
     <g transform="translate(1018.8 66.23775)scale(0.144 -0.144)">
      <use transform="translate(0.0 0.421875)" xlink:href="#Cmmi10-41"/>
      <use transform="translate(75.0 -16.584375)scale(0.7)" xlink:href="#Cmmi10-77"/>
      <use transform="translate(148.975 0.421875)" xlink:href="#Cmr10-3d"/>
      <use transform="translate(244.219140625 0.421875)" xlink:href="#Cmr10-31"/>
     </g>
    </g>
    <g id="line2d_37">
     <path d="M 982.8 82.33425 
L 1002.96 82.33425 
" style="fill:none;stroke:#008000;stroke-linecap:square;"/>
    </g>
    <g id="line2d_38"/>
    <g id="text_20">
     <!-- $A_w=3$ -->
     <defs>
      <path d="M 9.515625 7.71875 
Q 11.859375 4.296875 15.8125 2.640625 
Q 19.78125 0.984375 24.3125 0.984375 
Q 30.125 0.984375 32.5625 5.9375 
Q 35.015625 10.890625 35.015625 17.1875 
Q 35.015625 20.015625 34.5 22.84375 
Q 33.984375 25.6875 32.765625 28.125 
Q 31.546875 30.5625 29.421875 32.03125 
Q 27.296875 33.5 24.21875 33.5 
L 17.578125 33.5 
Q 16.703125 33.5 16.703125 34.421875 
L 16.703125 35.296875 
Q 16.703125 36.078125 17.578125 36.078125 
L 23.09375 36.53125 
Q 26.609375 36.53125 28.921875 39.15625 
Q 31.25 41.796875 32.328125 45.578125 
Q 33.40625 49.359375 33.40625 52.78125 
Q 33.40625 57.5625 31.15625 60.640625 
Q 28.90625 63.71875 24.3125 63.71875 
Q 20.515625 63.71875 17.046875 62.28125 
Q 13.578125 60.84375 11.53125 57.90625 
Q 11.71875 57.953125 11.859375 57.984375 
Q 12.015625 58.015625 12.203125 58.015625 
Q 14.453125 58.015625 15.96875 56.453125 
Q 17.484375 54.890625 17.484375 52.6875 
Q 17.484375 50.53125 15.96875 48.96875 
Q 14.453125 47.40625 12.203125 47.40625 
Q 10.015625 47.40625 8.453125 48.96875 
Q 6.890625 50.53125 6.890625 52.6875 
Q 6.890625 56.984375 9.46875 60.15625 
Q 12.0625 63.328125 16.140625 64.96875 
Q 20.21875 66.609375 24.3125 66.609375 
Q 27.34375 66.609375 30.703125 65.703125 
Q 34.078125 64.796875 36.8125 63.109375 
Q 39.546875 61.421875 41.28125 58.78125 
Q 43.015625 56.15625 43.015625 52.78125 
Q 43.015625 48.578125 41.140625 45.015625 
Q 39.265625 41.453125 35.984375 38.859375 
Q 32.71875 36.28125 28.8125 35.015625 
Q 33.15625 34.1875 37.0625 31.734375 
Q 40.96875 29.296875 43.328125 25.484375 
Q 45.703125 21.6875 45.703125 17.28125 
Q 45.703125 11.765625 42.671875 7.296875 
Q 39.65625 2.828125 34.71875 0.3125 
Q 29.78125 -2.203125 24.3125 -2.203125 
Q 19.625 -2.203125 14.90625 -0.40625 
Q 10.203125 1.375 7.203125 4.9375 
Q 4.203125 8.5 4.203125 13.484375 
Q 4.203125 15.96875 5.859375 17.625 
Q 7.515625 19.28125 10.015625 19.28125 
Q 11.625 19.28125 12.96875 18.53125 
Q 14.3125 17.78125 15.0625 16.40625 
Q 15.828125 15.046875 15.828125 13.484375 
Q 15.828125 11.03125 14.109375 9.375 
Q 12.40625 7.71875 10.015625 7.71875 
z
" id="Cmr10-33"/>
     </defs>
     <g transform="translate(1018.8 87.37425)scale(0.144 -0.144)">
      <use transform="translate(0.0 0.421875)" xlink:href="#Cmmi10-41"/>
      <use transform="translate(75.0 -16.584375)scale(0.7)" xlink:href="#Cmmi10-77"/>
      <use transform="translate(148.975 0.421875)" xlink:href="#Cmr10-3d"/>
      <use transform="translate(244.219140625 0.421875)" xlink:href="#Cmr10-33"/>
     </g>
    </g>
    <g id="line2d_39">
     <path d="M 982.8 103.47075 
L 1002.96 103.47075 
" style="fill:none;stroke:#ff0000;stroke-linecap:square;"/>
    </g>
    <g id="line2d_40"/>
    <g id="text_21">
     <!-- $A_w=5$ -->
     <defs>
      <path d="M 8.6875 11.375 
Q 9.71875 8.453125 11.84375 6.046875 
Q 13.96875 3.65625 16.875 2.3125 
Q 19.78125 0.984375 22.90625 0.984375 
Q 30.125 0.984375 32.859375 6.59375 
Q 35.59375 12.203125 35.59375 20.21875 
Q 35.59375 23.6875 35.46875 26.046875 
Q 35.359375 28.421875 34.8125 30.609375 
Q 33.890625 34.125 31.5625 36.765625 
Q 29.25 39.40625 25.875 39.40625 
Q 22.515625 39.40625 20.09375 38.375 
Q 17.671875 37.359375 16.15625 35.984375 
Q 14.65625 34.625 13.484375 33.109375 
Q 12.3125 31.59375 12.015625 31.5 
L 10.890625 31.5 
Q 10.640625 31.5 10.265625 31.8125 
Q 9.90625 32.125 9.90625 32.421875 
L 9.90625 65.828125 
Q 9.90625 66.0625 10.21875 66.328125 
Q 10.546875 66.609375 10.890625 66.609375 
L 11.1875 66.609375 
Q 17.921875 63.375 25.484375 63.375 
Q 32.90625 63.375 39.796875 66.609375 
L 40.09375 66.609375 
Q 40.4375 66.609375 40.71875 66.359375 
Q 41.015625 66.109375 41.015625 65.828125 
L 41.015625 64.890625 
Q 41.015625 64.40625 40.828125 64.40625 
Q 37.40625 59.859375 32.25 57.3125 
Q 27.09375 54.78125 21.578125 54.78125 
Q 17.578125 54.78125 13.375 55.90625 
L 13.375 37.015625 
Q 16.703125 39.703125 19.3125 40.84375 
Q 21.921875 42 25.984375 42 
Q 31.5 42 35.859375 38.8125 
Q 40.234375 35.640625 42.578125 30.53125 
Q 44.921875 25.4375 44.921875 20.125 
Q 44.921875 14.109375 41.96875 8.984375 
Q 39.015625 3.859375 33.9375 0.828125 
Q 28.859375 -2.203125 22.90625 -2.203125 
Q 17.96875 -2.203125 13.84375 0.328125 
Q 9.71875 2.875 7.34375 7.171875 
Q 4.984375 11.46875 4.984375 16.3125 
Q 4.984375 18.5625 6.4375 19.96875 
Q 7.90625 21.390625 10.109375 21.390625 
Q 12.3125 21.390625 13.796875 19.9375 
Q 15.28125 18.5 15.28125 16.3125 
Q 15.28125 14.15625 13.796875 12.671875 
Q 12.3125 11.1875 10.109375 11.1875 
Q 9.765625 11.1875 9.328125 11.25 
Q 8.890625 11.328125 8.6875 11.375 
" id="Cmr10-35"/>
     </defs>
     <g transform="translate(1018.8 108.51075)scale(0.144 -0.144)">
      <use transform="translate(0.0 0.421875)" xlink:href="#Cmmi10-41"/>
      <use transform="translate(75.0 -16.584375)scale(0.7)" xlink:href="#Cmmi10-77"/>
      <use transform="translate(148.975 0.421875)" xlink:href="#Cmr10-3d"/>
      <use transform="translate(244.219140625 0.421875)" xlink:href="#Cmr10-35"/>
     </g>
    </g>
    <g id="line2d_41">
     <path d="M 982.8 124.60725 
L 1002.96 124.60725 
" style="fill:none;stroke:#00bfbf;stroke-linecap:square;"/>
    </g>
    <g id="line2d_42"/>
    <g id="text_22">
     <!-- $A_w=7$ -->
     <defs>
      <path d="M 17.390625 2.59375 
Q 17.390625 8.15625 18.359375 13.46875 
Q 19.34375 18.796875 21.21875 24 
Q 23.09375 29.203125 25.75 34.203125 
Q 28.421875 39.203125 31.59375 43.609375 
L 40.71875 56.296875 
L 29.296875 56.296875 
Q 11.53125 56.296875 10.984375 55.8125 
Q 9.671875 54.203125 8.5 46.578125 
L 5.609375 46.578125 
L 8.890625 67.578125 
L 11.8125 67.578125 
L 11.8125 67.28125 
Q 11.8125 65.484375 17.921875 64.9375 
Q 24.03125 64.40625 29.890625 64.40625 
L 48.484375 64.40625 
L 48.484375 61.8125 
Q 48.484375 61.71875 48.453125 61.671875 
Q 48.4375 61.625 48.390625 61.53125 
L 34.625 42.1875 
Q 29.546875 34.671875 28.265625 25.484375 
Q 27 16.3125 27 2.59375 
Q 27 0.640625 25.578125 -0.78125 
Q 24.171875 -2.203125 22.21875 -2.203125 
Q 20.21875 -2.203125 18.796875 -0.78125 
Q 17.390625 0.640625 17.390625 2.59375 
" id="Cmr10-37"/>
     </defs>
     <g transform="translate(1018.8 129.64725)scale(0.144 -0.144)">
      <use transform="translate(0.0 0.421875)" xlink:href="#Cmmi10-41"/>
      <use transform="translate(75.0 -16.584375)scale(0.7)" xlink:href="#Cmmi10-77"/>
      <use transform="translate(148.975 0.421875)" xlink:href="#Cmr10-3d"/>
      <use transform="translate(244.219140625 0.421875)" xlink:href="#Cmr10-37"/>
     </g>
    </g>
   </g>
  </g>
 </g>
 <defs>
  <clipPath id="p66e50bb377">
   <rect height="403.2" width="803.52" x="162.0" y="50.4"/>
  </clipPath>
 </defs>
</svg>
