<?xml version="1.0" encoding="utf-8" standalone="no"?>
<!DOCTYPE svg PUBLIC "-//W3C//DTD SVG 1.1//EN"
  "http://www.w3.org/Graphics/SVG/1.1/DTD/svg11.dtd">
<!-- Created with matplotlib (http://matplotlib.org/) -->
<svg height="504pt" version="1.1" viewBox="0 0 1296 504" width="1296pt" xmlns="http://www.w3.org/2000/svg" xmlns:xlink="http://www.w3.org/1999/xlink">
 <defs>
  <style type="text/css">
*{stroke-linecap:butt;stroke-linejoin:round;stroke-miterlimit:100000;}
  </style>
 </defs>
 <g id="figure_1">
  <g id="patch_1">
   <path d="M 0 504 
L 1296 504 
L 1296 0 
L 0 0 
z
" style="fill:#ffffff;"/>
  </g>
  <g id="axes_1">
   <g id="patch_2">
    <path d="M 162 453.6 
L 965.52 453.6 
L 965.52 50.4 
L 162 50.4 
z
" style="fill:#ffffff;"/>
   </g>
   <g id="line2d_1">
    <path clip-path="url(#pa639004b36)" d="M 162 440.16 
L 163.60704 439.09824 
L 165.21408 436.84032 
L 168.42816 434.07168 
L 170.0352 432.096 
L 171.64224 429.408 
L 174.85632 424.99968 
L 176.46336 423.50784 
L 178.0704 420.98112 
L 179.67744 418.75008 
L 181.28448 417.29856 
L 184.49856 410.87424 
L 186.1056 408.34752 
L 187.71264 406.10304 
L 189.31968 404.12736 
L 190.92672 402.70272 
L 192.53376 400.82112 
L 194.1408 397.13856 
L 197.35488 390.62016 
L 198.96192 387.99936 
L 200.56896 384.49152 
L 203.78304 380.2176 
L 205.39008 377.51616 
L 206.99712 375.3792 
L 208.60416 373.59168 
L 210.2112 371.616 
L 211.81824 369.1968 
L 215.03232 364.00896 
L 216.63936 362.208 
L 218.2464 361.14624 
L 219.85344 359.7888 
L 221.46048 358.96896 
L 223.06752 357.82656 
L 224.67456 356.48256 
L 226.2816 355.488 
L 227.88864 353.59296 
L 231.10272 350.6496 
L 234.3168 345.44832 
L 235.92384 342.5856 
L 237.53088 340.59648 
L 239.13792 339.0912 
L 240.74496 336.76608 
L 242.352 335.8656 
L 243.95904 335.24736 
L 245.56608 334.992 
L 247.17312 334.17216 
L 248.78016 333.68832 
L 250.3872 333.9168 
L 251.99424 333.4464 
L 253.60128 332.81472 
L 255.20832 332.81472 
L 256.81536 332.64 
L 258.4224 331.73952 
L 260.02944 331.48416 
L 261.63648 331.40352 
L 263.24352 331.65888 
L 264.85056 331.20192 
L 266.4576 331.67232 
L 268.06464 331.39008 
L 269.67168 330.86592 
L 271.27872 329.33376 
L 272.88576 328.25856 
L 274.4928 326.88768 
L 276.09984 325.1808 
L 277.70688 324.8448 
L 279.31392 324.29376 
L 280.92096 323.87712 
L 282.528 323.66208 
L 284.13504 323.86368 
L 285.74208 323.78304 
L 288.95616 324.02496 
L 290.5632 323.48736 
L 292.17024 323.13792 
L 293.77728 322.33152 
L 295.38432 321.79392 
L 296.99136 320.8128 
L 298.5984 319.37472 
L 301.81248 312.48 
L 303.41952 310.24896 
L 305.02656 310.24896 
L 306.6336 310.50432 
L 308.24064 311.05536 
L 311.45472 311.75424 
L 313.06176 311.49888 
L 314.6688 311.66016 
L 316.27584 312.144 
L 317.88288 311.8752 
L 319.48992 310.85376 
L 321.09696 310.42368 
L 322.704 308.08512 
L 324.31104 306.48576 
L 327.52512 303.97248 
L 329.13216 303.97248 
L 330.7392 304.24128 
L 332.34624 304.16064 
L 333.95328 303.79776 
L 335.56032 302.61504 
L 337.16736 300.6528 
L 338.7744 298.22016 
L 340.38144 296.87616 
L 341.98848 296.19072 
L 343.59552 294.72576 
L 346.8096 294.29568 
L 348.41664 293.83872 
L 350.02368 294.36288 
L 353.23776 294.64512 
L 354.8448 294.84672 
L 356.45184 295.65312 
L 358.05888 295.19616 
L 359.66592 295.18272 
L 361.27296 295.39776 
L 362.88 294.56448 
L 364.48704 293.9328 
L 366.09408 294.21504 
L 367.70112 293.91936 
L 369.30816 292.8576 
L 374.12928 287.30688 
L 375.73632 286.21824 
L 377.34336 285.3312 
L 380.55744 284.95488 
L 382.16448 284.96832 
L 383.77152 285.31776 
L 385.37856 283.43616 
L 388.59264 278.51712 
L 393.41376 277.64352 
L 395.0208 277.17312 
L 399.84192 277.2672 
L 403.056 278.96064 
L 404.66304 279.52512 
L 406.27008 279.78048 
L 407.87712 279.87456 
L 409.48416 280.14336 
L 411.0912 280.21056 
L 412.69824 279.888 
L 414.30528 280.04928 
L 415.91232 279.16224 
L 417.51936 278.9472 
L 419.1264 278.59776 
L 420.73344 277.09248 
L 422.34048 276.20544 
L 425.55456 276.09792 
L 427.1616 275.57376 
L 428.76864 275.3856 
L 430.37568 273.94752 
L 431.98272 273.31584 
L 433.58976 270.73536 
L 435.1968 268.38336 
L 436.80384 267.22752 
L 438.41088 265.88352 
L 440.01792 265.7088 
L 441.62496 265.80288 
L 443.232 265.53408 
L 444.83904 265.44 
L 446.44608 265.00992 
L 448.05312 265.35936 
L 449.66016 265.89696 
L 452.87424 264.98304 
L 454.48128 263.92128 
L 456.08832 262.38912 
L 457.69536 261.58272 
L 462.51648 260.05056 
L 464.12352 260.88384 
L 465.73056 260.064 
L 467.3376 258.9888 
L 468.94464 258.97536 
L 472.15872 259.36512 
L 475.3728 258.4512 
L 478.58688 258.00768 
L 480.19392 257.83296 
L 481.80096 257.80608 
L 483.408 257.20128 
L 485.01504 258.02112 
L 486.62208 257.99424 
L 488.22912 257.56416 
L 489.83616 258.10176 
L 491.4432 258.10176 
L 493.05024 257.81952 
L 494.65728 257.9136 
L 496.26432 256.73088 
L 497.87136 255.40032 
L 499.4784 252.16128 
L 502.69248 244.37952 
L 504.29952 243.84192 
L 505.90656 242.87424 
L 507.5136 243.21024 
L 509.12064 243.11616 
L 510.72768 244.36608 
L 512.33472 244.29888 
L 515.5488 246.18048 
L 517.15584 246.43584 
L 518.76288 247.14816 
L 520.36992 247.08096 
L 521.97696 246.71808 
L 525.19104 246.98688 
L 526.79808 246.70464 
L 528.40512 246.8928 
L 530.01216 247.26912 
L 531.6192 247.25568 
L 533.22624 247.71264 
L 534.83328 247.41696 
L 536.44032 248.15616 
L 538.04736 248.25024 
L 539.6544 247.86048 
L 541.26144 248.41152 
L 544.47552 248.04864 
L 546.08256 247.968 
L 547.6896 248.06208 
L 550.90368 248.51904 
L 552.51072 249.67488 
L 554.11776 250.37376 
L 555.7248 250.3872 
L 562.15296 251.09952 
L 563.76 250.46784 
L 565.36704 250.29312 
L 566.97408 249.68832 
L 568.58112 250.66944 
L 570.18816 251.03232 
L 571.7952 251.00544 
L 575.00928 248.85504 
L 576.61632 247.26912 
L 578.22336 244.63488 
L 579.8304 241.34208 
L 581.43744 239.19168 
L 584.65152 239.19168 
L 586.25856 240.15936 
L 587.8656 239.72928 
L 589.47264 240.26688 
L 592.68672 240.7104 
L 595.9008 241.43616 
L 597.50784 241.53024 
L 599.11488 241.26144 
L 600.72192 241.43616 
L 602.32896 240.9792 
L 603.936 240.9792 
L 605.54304 241.69152 
L 607.15008 241.9872 
L 608.75712 242.5248 
L 610.36416 242.51136 
L 611.9712 242.33664 
L 613.57824 242.592 
L 615.18528 243.1296 
L 618.39936 242.51136 
L 620.0064 242.57856 
L 621.61344 242.22912 
L 623.22048 242.78016 
L 624.82752 242.95488 
L 626.43456 243.77472 
L 628.0416 244.2048 
L 631.25568 244.6752 
L 632.86272 245.02464 
L 634.46976 245.02464 
L 639.29088 245.36064 
L 642.50496 244.91712 
L 644.112 245.0112 
L 645.71904 245.56224 
L 647.32608 245.62944 
L 648.93312 245.3472 
L 652.1472 245.56224 
L 653.75424 245.0112 
L 656.96832 245.45472 
L 658.57536 245.91168 
L 660.1824 245.5488 
L 663.39648 246.288 
L 666.61056 246.3552 
L 668.2176 246.44928 
L 669.82464 246.36864 
L 671.43168 246.624 
L 674.64576 248.33088 
L 676.2528 249.13728 
L 681.07392 249.56736 
L 682.68096 250.3872 
L 684.288 250.83072 
L 685.89504 251.03232 
L 687.50208 251.74464 
L 689.10912 251.7312 
L 690.71616 252.2688 
L 692.3232 253.10208 
L 693.93024 253.6128 
L 697.14432 253.6128 
L 698.75136 253.89504 
L 700.3584 253.8816 
L 701.96544 253.4112 
L 703.57248 253.31712 
L 705.17952 252.91392 
L 706.78656 252.7392 
L 708.3936 252.09408 
L 710.00064 251.82528 
L 711.60768 251.89248 
L 713.21472 252.10752 
L 716.4288 253.77408 
L 718.03584 253.344 
L 721.24992 253.72032 
L 722.85696 254.4864 
L 724.464 254.86272 
L 726.07104 255.50784 
L 727.67808 255.77664 
L 729.28512 256.28736 
L 730.89216 256.58304 
L 732.4992 257.1072 
L 735.71328 256.46208 
L 737.32032 255.46752 
L 738.92736 255.66912 
L 740.5344 256.93248 
L 742.14144 257.02656 
L 743.74848 257.53728 
L 745.35552 257.90016 
L 746.96256 257.5776 
L 748.5696 257.6448 
L 750.17664 258.00768 
L 751.78368 257.20128 
L 753.39072 257.28192 
L 754.99776 257.73888 
L 756.6048 257.02656 
L 758.21184 257.09376 
L 761.42592 257.47008 
L 763.03296 257.38944 
L 764.64 257.1072 
L 766.24704 257.45664 
L 767.85408 258.1824 
L 771.06816 258.53184 
L 772.6752 258.97536 
L 775.88928 260.44032 
L 777.49632 260.41344 
L 779.10336 259.8624 
L 780.7104 260.6016 
L 782.31744 260.69568 
L 783.92448 260.95104 
L 785.53152 259.68768 
L 787.13856 259.35168 
L 791.95968 257.47008 
L 793.56672 257.92704 
L 795.17376 257.63136 
L 796.7808 258.1152 
L 798.38784 258.35712 
L 799.99488 258.26304 
L 801.60192 258.9888 
L 803.20896 259.17696 
L 806.42304 258.46464 
L 808.03008 258.53184 
L 809.63712 258.37056 
L 812.8512 258.63936 
L 814.45824 259.06944 
L 816.06528 259.2576 
L 817.67232 260.31936 
L 819.27936 260.41344 
L 820.8864 259.95648 
L 822.49344 260.41344 
L 827.31456 260.42688 
L 828.9216 260.88384 
L 830.52864 260.68224 
L 833.74272 259.62048 
L 835.34976 259.51296 
L 836.9568 259.62048 
L 838.56384 259.33824 
L 840.17088 258.08832 
L 841.77792 255.31968 
L 844.992 248.25024 
L 846.59904 245.45472 
L 848.20608 243.58656 
L 849.81312 242.71296 
L 854.63424 242.76672 
L 856.24128 242.49792 
L 857.84832 242.49792 
L 861.0624 243.74784 
L 865.88352 243.1296 
L 867.49056 243.76128 
L 869.0976 243.94944 
L 870.70464 243.936 
L 872.31168 244.04352 
L 873.91872 244.4736 
L 875.52576 244.29888 
L 877.1328 244.7424 
L 878.73984 245.53536 
L 880.34688 246.54336 
L 881.95392 245.92512 
L 883.56096 245.53536 
L 885.168 246.3552 
L 886.77504 246.27456 
L 891.59616 246.52992 
L 893.2032 246.27456 
L 894.81024 246.54336 
L 896.41728 247.34976 
L 898.02432 247.80672 
L 899.63136 248.7072 
L 901.2384 249.39264 
L 902.84544 249.13728 
L 904.45248 249.21792 
L 906.05952 248.61312 
L 907.66656 248.49216 
L 909.2736 247.71264 
L 910.88064 248.51904 
L 912.48768 249.0432 
L 914.09472 249.40608 
L 915.70176 249.50016 
L 917.3088 249.33888 
L 918.91584 248.96256 
L 920.52288 248.15616 
L 922.12992 247.6992 
L 925.344 247.4304 
L 926.95104 247.06752 
L 928.55808 247.60512 
L 930.16512 247.60512 
L 931.77216 247.88736 
L 933.3792 247.77984 
L 934.98624 247.86048 
L 936.59328 249.05664 
L 938.20032 248.38464 
L 939.80736 248.22336 
L 941.4144 248.59968 
L 943.02144 248.33088 
L 944.62848 248.25024 
L 947.84256 248.86848 
L 949.4496 248.34432 
L 951.05664 248.7072 
L 952.66368 248.39808 
L 957.4848 247.968 
L 959.09184 247.3632 
L 960.69888 246.63744 
L 962.30592 245.13216 
L 963.91296 244.37952 
L 963.91296 244.37952 
" style="fill:none;stroke:#0000ff;stroke-linecap:square;"/>
   </g>
   <g id="line2d_2">
    <path clip-path="url(#pa639004b36)" d="M 162 441.88032 
L 163.60704 439.43424 
L 165.21408 438.0096 
L 166.82112 435.96672 
L 170.0352 433.26528 
L 171.64224 431.5584 
L 173.24928 430.40256 
L 174.85632 429.59616 
L 176.46336 427.00224 
L 179.67744 423.40032 
L 181.28448 419.54304 
L 182.89152 417.40608 
L 184.49856 417.05664 
L 186.1056 414.44928 
L 187.71264 412.83648 
L 192.53376 405.216 
L 195.74784 403.50912 
L 197.35488 401.08992 
L 198.96192 397.2192 
L 200.56896 396.86976 
L 202.176 395.44512 
L 203.78304 390.25728 
L 206.99712 383.4432 
L 208.60416 381.37344 
L 210.2112 380.92992 
L 211.81824 379.49184 
L 213.42528 374.38464 
L 215.03232 370.63488 
L 216.63936 370.44672 
L 219.85344 369.4656 
L 221.46048 366.76416 
L 223.06752 366.14592 
L 224.67456 365.9712 
L 226.2816 365.35296 
L 229.49568 365.35296 
L 231.10272 364.00896 
L 232.70976 363.45792 
L 234.3168 362.7456 
L 235.92384 360.23232 
L 237.53088 356.46912 
L 239.13792 351.89952 
L 240.74496 351.26784 
L 242.352 350.46144 
L 243.95904 349.11744 
L 245.56608 346.69824 
L 247.17312 346.52352 
L 251.99424 346.52352 
L 253.60128 345.98592 
L 255.20832 345.98592 
L 258.4224 339.34656 
L 260.02944 338.17728 
L 261.63648 337.19616 
L 264.85056 337.10208 
L 266.4576 337.10208 
L 268.06464 336.91392 
L 269.67168 333.07008 
L 271.27872 331.53792 
L 272.88576 329.22624 
L 274.4928 328.41984 
L 276.09984 326.5248 
L 277.70688 326.35008 
L 279.31392 326.35008 
L 280.92096 320.26176 
L 282.528 313.00416 
L 284.13504 309.06624 
L 285.74208 309.06624 
L 287.34912 307.35936 
L 288.95616 306.19008 
L 290.5632 298.39488 
L 292.17024 294.79296 
L 293.77728 286.0032 
L 295.38432 286.0032 
L 296.99136 285.4656 
L 300.20544 285.38496 
L 309.84768 285.38496 
L 311.45472 283.42272 
L 313.06176 280.54656 
L 317.88288 280.54656 
L 319.48992 279.39072 
L 321.09696 274.55232 
L 322.704 274.09536 
L 327.52512 274.09536 
L 329.13216 273.9072 
L 330.7392 272.65728 
L 348.41664 272.65728 
L 350.02368 272.11968 
L 382.16448 272.11968 
L 383.77152 253.39776 
L 393.41376 253.39776 
L 395.0208 251.97312 
L 396.62784 239.24544 
L 398.23488 238.61376 
L 399.84192 225.80544 
L 401.44896 224.54208 
L 404.66304 224.54208 
L 406.27008 220.96704 
L 407.87712 211.65312 
L 409.48416 211.19616 
L 422.34048 211.19616 
L 423.94752 200.80704 
L 425.55456 198.65664 
L 428.76864 198.65664 
L 430.37568 196.6944 
L 431.98272 180.0288 
L 433.58976 179.84064 
L 435.1968 176.8032 
L 436.80384 172.04544 
L 438.41088 171.77664 
L 441.62496 168.81984 
L 443.232 168.81984 
L 444.83904 166.22592 
L 451.2672 166.22592 
L 452.87424 161.65632 
L 454.48128 155.66208 
L 456.08832 155.47392 
L 486.62208 155.47392 
L 488.22912 149.29152 
L 489.83616 148.21632 
L 491.4432 148.21632 
L 493.05024 147.86688 
L 494.65728 146.06592 
L 520.36992 146.06592 
L 521.97696 136.92672 
L 523.584 126 
L 660.1824 126 
L 661.78944 123.40608 
L 668.2176 123.40608 
L 669.82464 123.23136 
L 671.43168 121.08096 
L 673.03872 114.09216 
L 963.91296 114.09216 
L 963.91296 114.09216 
" style="fill:none;stroke:#008000;stroke-linecap:square;"/>
   </g>
   <g id="line2d_3">
    <path clip-path="url(#pa639004b36)" d="M 162 441.58464 
L 163.60704 440.06592 
L 165.21408 439.07136 
L 166.82112 438.2784 
L 168.42816 436.20864 
L 170.0352 433.72224 
L 171.64224 432.19008 
L 173.24928 431.38368 
L 174.85632 429.50208 
L 178.0704 426.80064 
L 179.67744 424.13952 
L 181.28448 422.49984 
L 182.89152 420.61824 
L 184.49856 419.54304 
L 186.1056 417.8496 
L 187.71264 417.56736 
L 189.31968 415.4304 
L 190.92672 414.26112 
L 192.53376 411.76128 
L 194.1408 410.0544 
L 195.74784 409.05984 
L 197.35488 404.86656 
L 198.96192 402.71616 
L 200.56896 400.3776 
L 202.176 400.28352 
L 203.78304 398.40192 
L 205.39008 397.77024 
L 206.99712 397.51488 
L 208.60416 392.32704 
L 210.2112 391.85664 
L 215.03232 391.68192 
L 216.63936 390.1632 
L 218.2464 388.09344 
L 219.85344 387.73056 
L 221.46048 385.67424 
L 223.06752 381.10464 
L 224.67456 381.01056 
L 226.2816 380.02944 
L 227.88864 378.24192 
L 231.10272 373.40352 
L 234.3168 373.40352 
L 235.92384 371.69664 
L 237.53088 367.22112 
L 239.13792 361.21344 
L 240.74496 357.9072 
L 242.352 355.66272 
L 243.95904 353.8752 
L 245.56608 348.59328 
L 247.17312 348.59328 
L 248.78016 347.424 
L 250.3872 341.7792 
L 251.99424 340.4352 
L 256.81536 340.4352 
L 258.4224 335.42208 
L 260.02944 333.7152 
L 261.63648 332.73408 
L 263.24352 331.92768 
L 264.85056 331.5648 
L 266.4576 331.39008 
L 269.67168 331.39008 
L 271.27872 331.20192 
L 272.88576 328.51392 
L 282.528 328.51392 
L 284.13504 328.24512 
L 285.74208 328.24512 
L 287.34912 326.36352 
L 288.95616 325.01952 
L 290.5632 318.6624 
L 292.17024 318.56832 
L 293.77728 317.22432 
L 300.20544 317.22432 
L 301.81248 308.25984 
L 308.24064 308.25984 
L 309.84768 306.20352 
L 313.06176 306.10944 
L 314.6688 300.28992 
L 316.27584 299.47008 
L 317.88288 299.47008 
L 319.48992 298.75776 
L 321.09696 296.60736 
L 332.34624 296.60736 
L 333.95328 295.35744 
L 335.56032 295.35744 
L 337.16736 280.74816 
L 338.7744 279.22944 
L 341.98848 279.22944 
L 343.59552 278.96064 
L 345.20256 275.64096 
L 351.63072 275.64096 
L 353.23776 274.83456 
L 354.8448 274.83456 
L 356.45184 274.21632 
L 358.05888 273.04704 
L 359.66592 273.04704 
L 361.27296 261.04512 
L 362.88 259.60704 
L 367.70112 259.60704 
L 369.30816 248.85504 
L 370.9152 247.95456 
L 382.16448 247.86048 
L 383.77152 247.59168 
L 385.37856 246.07296 
L 386.9856 242.21568 
L 407.87712 242.21568 
L 409.48416 241.40928 
L 412.69824 223.5744 
L 414.30528 216.5856 
L 415.91232 206.64 
L 440.01792 206.64 
L 441.62496 205.92768 
L 443.232 186.48 
L 444.83904 181.54752 
L 470.55168 181.54752 
L 472.15872 176.88384 
L 478.58688 176.88384 
L 480.19392 174.28992 
L 486.62208 174.20928 
L 488.22912 170.71488 
L 489.83616 164.4384 
L 505.90656 164.4384 
L 507.5136 162.65088 
L 509.12064 157.1808 
L 701.96544 157.1808 
L 703.57248 154.58688 
L 722.85696 154.58688 
L 724.464 145.6224 
L 726.07104 137.65248 
L 963.91296 137.65248 
L 963.91296 137.65248 
" style="fill:none;stroke:#ff0000;stroke-linecap:square;"/>
   </g>
   <g id="line2d_4">
    <path clip-path="url(#pa639004b36)" d="M 162 441.59808 
L 163.60704 439.71648 
L 165.21408 438.26496 
L 166.82112 437.0016 
L 168.42816 436.128 
L 170.0352 435.40224 
L 171.64224 433.34592 
L 173.24928 431.71968 
L 174.85632 430.29504 
L 176.46336 427.62048 
L 178.0704 426.35712 
L 179.67744 424.28736 
L 181.28448 422.9568 
L 182.89152 420.98112 
L 184.49856 418.656 
L 186.1056 417.86304 
L 187.71264 417.32544 
L 189.31968 416.51904 
L 190.92672 416.07552 
L 192.53376 414.19392 
L 194.1408 413.83104 
L 195.74784 412.4736 
L 197.35488 412.12416 
L 198.96192 407.72928 
L 200.56896 405.04128 
L 202.176 401.10336 
L 203.78304 396.70848 
L 205.39008 395.64672 
L 206.99712 395.28384 
L 208.60416 393.67104 
L 210.2112 392.50176 
L 211.81824 392.13888 
L 213.42528 392.13888 
L 215.03232 389.8944 
L 216.63936 389.70624 
L 218.2464 387.91872 
L 219.85344 387.2064 
L 221.46048 386.1312 
L 223.06752 386.1312 
L 224.67456 385.8624 
L 226.2816 385.33824 
L 227.88864 381.38688 
L 229.49568 380.76864 
L 232.70976 380.67456 
L 234.3168 380.23104 
L 235.92384 379.59936 
L 237.53088 375.20448 
L 239.13792 374.304 
L 240.74496 372.96 
L 242.352 372.1536 
L 243.95904 370.63488 
L 245.56608 369.90912 
L 247.17312 363.37728 
L 248.78016 362.208 
L 250.3872 358.99584 
L 251.99424 357.55776 
L 253.60128 355.488 
L 256.81536 355.40736 
L 258.4224 354.06336 
L 260.02944 349.8432 
L 261.63648 349.8432 
L 263.24352 349.65504 
L 264.85056 349.11744 
L 266.4576 346.77888 
L 268.06464 337.73376 
L 269.67168 332.62656 
L 271.27872 332.08896 
L 272.88576 326.53824 
L 274.4928 317.03616 
L 276.09984 315.42336 
L 277.70688 315.42336 
L 279.31392 314.34816 
L 280.92096 313.98528 
L 292.17024 313.98528 
L 293.77728 313.81056 
L 295.38432 311.66016 
L 300.20544 311.66016 
L 301.81248 311.02848 
L 303.41952 300.90816 
L 305.02656 288.09984 
L 306.6336 286.04352 
L 308.24064 284.78016 
L 309.84768 281.01696 
L 311.45472 274.47168 
L 330.7392 274.47168 
L 332.34624 274.20288 
L 333.95328 264.25728 
L 335.56032 262.45632 
L 341.98848 262.45632 
L 343.59552 260.4 
L 345.20256 260.03712 
L 351.63072 260.03712 
L 353.23776 256.9056 
L 354.8448 250.7232 
L 358.05888 250.7232 
L 359.66592 250.1856 
L 362.88 240.5088 
L 386.9856 240.5088 
L 388.59264 239.25888 
L 390.19968 237.2832 
L 393.41376 237.2832 
L 395.0208 221.51808 
L 396.62784 220.3488 
L 403.056 220.3488 
L 404.66304 205.73952 
L 406.27008 201.70752 
L 409.48416 201.70752 
L 411.0912 190.60608 
L 412.69824 188.80512 
L 427.1616 188.80512 
L 428.76864 177.70368 
L 430.37568 168.92736 
L 431.98272 168.02688 
L 446.44608 168.02688 
L 448.05312 167.67744 
L 449.66016 165.43296 
L 460.90944 165.43296 
L 462.51648 158.63232 
L 465.73056 158.53824 
L 473.76576 158.53824 
L 475.3728 157.47648 
L 476.97984 151.4688 
L 478.58688 120.8256 
L 480.19392 120.46272 
L 499.4784 120.46272 
L 501.08544 117.6 
L 502.69248 116.43072 
L 642.50496 116.33664 
L 644.112 115.62432 
L 645.71904 112.93632 
L 648.93312 112.84224 
L 656.96832 112.84224 
L 658.57536 107.90976 
L 660.1824 99.03936 
L 668.2176 99.03936 
L 669.82464 90.53184 
L 671.43168 80.22336 
L 793.56672 80.22336 
L 795.17376 78.26112 
L 796.7808 77.62944 
L 963.91296 77.62944 
L 963.91296 77.62944 
" style="fill:none;stroke:#00bfbf;stroke-linecap:square;"/>
   </g>
   <g id="patch_3">
    <path d="M 162 50.4 
L 965.52 50.4 
" style="fill:none;stroke:#000000;stroke-linecap:square;stroke-linejoin:miter;"/>
   </g>
   <g id="patch_4">
    <path d="M 965.52 453.6 
L 965.52 50.4 
" style="fill:none;stroke:#000000;stroke-linecap:square;stroke-linejoin:miter;"/>
   </g>
   <g id="patch_5">
    <path d="M 162 453.6 
L 965.52 453.6 
" style="fill:none;stroke:#000000;stroke-linecap:square;stroke-linejoin:miter;"/>
   </g>
   <g id="patch_6">
    <path d="M 162 453.6 
L 162 50.4 
" style="fill:none;stroke:#000000;stroke-linecap:square;stroke-linejoin:miter;"/>
   </g>
   <g id="matplotlib.axis_1">
    <g id="xtick_1">
     <g id="line2d_5">
      <defs>
       <path d="M 0 0 
L 0 -4 
" id="mf07d3f20b9" style="stroke:#000000;stroke-width:0.5;"/>
      </defs>
      <g>
       <use style="stroke:#000000;stroke-width:0.5;" x="162.0" xlink:href="#mf07d3f20b9" y="453.6"/>
      </g>
     </g>
     <g id="line2d_6">
      <defs>
       <path d="M 0 0 
L 0 4 
" id="md7f1b5e8e7" style="stroke:#000000;stroke-width:0.5;"/>
      </defs>
      <g>
       <use style="stroke:#000000;stroke-width:0.5;" x="162.0" xlink:href="#md7f1b5e8e7" y="50.4"/>
      </g>
     </g>
     <g id="text_1">
      <!-- 0 -->
      <defs>
       <path d="M 31.78125 66.40625 
Q 24.171875 66.40625 20.328125 58.90625 
Q 16.5 51.421875 16.5 36.375 
Q 16.5 21.390625 20.328125 13.890625 
Q 24.171875 6.390625 31.78125 6.390625 
Q 39.453125 6.390625 43.28125 13.890625 
Q 47.125 21.390625 47.125 36.375 
Q 47.125 51.421875 43.28125 58.90625 
Q 39.453125 66.40625 31.78125 66.40625 
M 31.78125 74.21875 
Q 44.046875 74.21875 50.515625 64.515625 
Q 56.984375 54.828125 56.984375 36.375 
Q 56.984375 17.96875 50.515625 8.265625 
Q 44.046875 -1.421875 31.78125 -1.421875 
Q 19.53125 -1.421875 13.0625 8.265625 
Q 6.59375 17.96875 6.59375 36.375 
Q 6.59375 54.828125 13.0625 64.515625 
Q 19.53125 74.21875 31.78125 74.21875 
" id="BitstreamVeraSans-Roman-30"/>
      </defs>
      <g transform="translate(158.1825 466.718125)scale(0.12 -0.12)">
       <use xlink:href="#BitstreamVeraSans-Roman-30"/>
      </g>
     </g>
    </g>
    <g id="xtick_2">
     <g id="line2d_7">
      <g>
       <use style="stroke:#000000;stroke-width:0.5;" x="322.704" xlink:href="#mf07d3f20b9" y="453.6"/>
      </g>
     </g>
     <g id="line2d_8">
      <g>
       <use style="stroke:#000000;stroke-width:0.5;" x="322.704" xlink:href="#md7f1b5e8e7" y="50.4"/>
      </g>
     </g>
     <g id="text_2">
      <!-- 100 -->
      <defs>
       <path d="M 12.40625 8.296875 
L 28.515625 8.296875 
L 28.515625 63.921875 
L 10.984375 60.40625 
L 10.984375 69.390625 
L 28.421875 72.90625 
L 38.28125 72.90625 
L 38.28125 8.296875 
L 54.390625 8.296875 
L 54.390625 0 
L 12.40625 0 
z
" id="BitstreamVeraSans-Roman-31"/>
      </defs>
      <g transform="translate(311.2515 466.718125)scale(0.12 -0.12)">
       <use xlink:href="#BitstreamVeraSans-Roman-31"/>
       <use x="63.623046875" xlink:href="#BitstreamVeraSans-Roman-30"/>
       <use x="127.24609375" xlink:href="#BitstreamVeraSans-Roman-30"/>
      </g>
     </g>
    </g>
    <g id="xtick_3">
     <g id="line2d_9">
      <g>
       <use style="stroke:#000000;stroke-width:0.5;" x="483.408" xlink:href="#mf07d3f20b9" y="453.6"/>
      </g>
     </g>
     <g id="line2d_10">
      <g>
       <use style="stroke:#000000;stroke-width:0.5;" x="483.408" xlink:href="#md7f1b5e8e7" y="50.4"/>
      </g>
     </g>
     <g id="text_3">
      <!-- 200 -->
      <defs>
       <path d="M 19.1875 8.296875 
L 53.609375 8.296875 
L 53.609375 0 
L 7.328125 0 
L 7.328125 8.296875 
Q 12.9375 14.109375 22.625 23.890625 
Q 32.328125 33.6875 34.8125 36.53125 
Q 39.546875 41.84375 41.421875 45.53125 
Q 43.3125 49.21875 43.3125 52.78125 
Q 43.3125 58.59375 39.234375 62.25 
Q 35.15625 65.921875 28.609375 65.921875 
Q 23.96875 65.921875 18.8125 64.3125 
Q 13.671875 62.703125 7.8125 59.421875 
L 7.8125 69.390625 
Q 13.765625 71.78125 18.9375 73 
Q 24.125 74.21875 28.421875 74.21875 
Q 39.75 74.21875 46.484375 68.546875 
Q 53.21875 62.890625 53.21875 53.421875 
Q 53.21875 48.921875 51.53125 44.890625 
Q 49.859375 40.875 45.40625 35.40625 
Q 44.1875 33.984375 37.640625 27.21875 
Q 31.109375 20.453125 19.1875 8.296875 
" id="BitstreamVeraSans-Roman-32"/>
      </defs>
      <g transform="translate(471.9555 466.718125)scale(0.12 -0.12)">
       <use xlink:href="#BitstreamVeraSans-Roman-32"/>
       <use x="63.623046875" xlink:href="#BitstreamVeraSans-Roman-30"/>
       <use x="127.24609375" xlink:href="#BitstreamVeraSans-Roman-30"/>
      </g>
     </g>
    </g>
    <g id="xtick_4">
     <g id="line2d_11">
      <g>
       <use style="stroke:#000000;stroke-width:0.5;" x="644.112" xlink:href="#mf07d3f20b9" y="453.6"/>
      </g>
     </g>
     <g id="line2d_12">
      <g>
       <use style="stroke:#000000;stroke-width:0.5;" x="644.112" xlink:href="#md7f1b5e8e7" y="50.4"/>
      </g>
     </g>
     <g id="text_4">
      <!-- 300 -->
      <defs>
       <path d="M 40.578125 39.3125 
Q 47.65625 37.796875 51.625 33 
Q 55.609375 28.21875 55.609375 21.1875 
Q 55.609375 10.40625 48.1875 4.484375 
Q 40.765625 -1.421875 27.09375 -1.421875 
Q 22.515625 -1.421875 17.65625 -0.515625 
Q 12.796875 0.390625 7.625 2.203125 
L 7.625 11.71875 
Q 11.71875 9.328125 16.59375 8.109375 
Q 21.484375 6.890625 26.8125 6.890625 
Q 36.078125 6.890625 40.9375 10.546875 
Q 45.796875 14.203125 45.796875 21.1875 
Q 45.796875 27.640625 41.28125 31.265625 
Q 36.765625 34.90625 28.71875 34.90625 
L 20.21875 34.90625 
L 20.21875 43.015625 
L 29.109375 43.015625 
Q 36.375 43.015625 40.234375 45.921875 
Q 44.09375 48.828125 44.09375 54.296875 
Q 44.09375 59.90625 40.109375 62.90625 
Q 36.140625 65.921875 28.71875 65.921875 
Q 24.65625 65.921875 20.015625 65.03125 
Q 15.375 64.15625 9.8125 62.3125 
L 9.8125 71.09375 
Q 15.4375 72.65625 20.34375 73.4375 
Q 25.25 74.21875 29.59375 74.21875 
Q 40.828125 74.21875 47.359375 69.109375 
Q 53.90625 64.015625 53.90625 55.328125 
Q 53.90625 49.265625 50.4375 45.09375 
Q 46.96875 40.921875 40.578125 39.3125 
" id="BitstreamVeraSans-Roman-33"/>
      </defs>
      <g transform="translate(632.6595 466.718125)scale(0.12 -0.12)">
       <use xlink:href="#BitstreamVeraSans-Roman-33"/>
       <use x="63.623046875" xlink:href="#BitstreamVeraSans-Roman-30"/>
       <use x="127.24609375" xlink:href="#BitstreamVeraSans-Roman-30"/>
      </g>
     </g>
    </g>
    <g id="xtick_5">
     <g id="line2d_13">
      <g>
       <use style="stroke:#000000;stroke-width:0.5;" x="804.816" xlink:href="#mf07d3f20b9" y="453.6"/>
      </g>
     </g>
     <g id="line2d_14">
      <g>
       <use style="stroke:#000000;stroke-width:0.5;" x="804.816" xlink:href="#md7f1b5e8e7" y="50.4"/>
      </g>
     </g>
     <g id="text_5">
      <!-- 400 -->
      <defs>
       <path d="M 37.796875 64.3125 
L 12.890625 25.390625 
L 37.796875 25.390625 
z
M 35.203125 72.90625 
L 47.609375 72.90625 
L 47.609375 25.390625 
L 58.015625 25.390625 
L 58.015625 17.1875 
L 47.609375 17.1875 
L 47.609375 0 
L 37.796875 0 
L 37.796875 17.1875 
L 4.890625 17.1875 
L 4.890625 26.703125 
z
" id="BitstreamVeraSans-Roman-34"/>
      </defs>
      <g transform="translate(793.3635 466.718125)scale(0.12 -0.12)">
       <use xlink:href="#BitstreamVeraSans-Roman-34"/>
       <use x="63.623046875" xlink:href="#BitstreamVeraSans-Roman-30"/>
       <use x="127.24609375" xlink:href="#BitstreamVeraSans-Roman-30"/>
      </g>
     </g>
    </g>
    <g id="xtick_6">
     <g id="line2d_15">
      <g>
       <use style="stroke:#000000;stroke-width:0.5;" x="965.52" xlink:href="#mf07d3f20b9" y="453.6"/>
      </g>
     </g>
     <g id="line2d_16">
      <g>
       <use style="stroke:#000000;stroke-width:0.5;" x="965.52" xlink:href="#md7f1b5e8e7" y="50.4"/>
      </g>
     </g>
     <g id="text_6">
      <!-- 500 -->
      <defs>
       <path d="M 10.796875 72.90625 
L 49.515625 72.90625 
L 49.515625 64.59375 
L 19.828125 64.59375 
L 19.828125 46.734375 
Q 21.96875 47.46875 24.109375 47.828125 
Q 26.265625 48.1875 28.421875 48.1875 
Q 40.625 48.1875 47.75 41.5 
Q 54.890625 34.8125 54.890625 23.390625 
Q 54.890625 11.625 47.5625 5.09375 
Q 40.234375 -1.421875 26.90625 -1.421875 
Q 22.3125 -1.421875 17.546875 -0.640625 
Q 12.796875 0.140625 7.71875 1.703125 
L 7.71875 11.625 
Q 12.109375 9.234375 16.796875 8.0625 
Q 21.484375 6.890625 26.703125 6.890625 
Q 35.15625 6.890625 40.078125 11.328125 
Q 45.015625 15.765625 45.015625 23.390625 
Q 45.015625 31 40.078125 35.4375 
Q 35.15625 39.890625 26.703125 39.890625 
Q 22.75 39.890625 18.8125 39.015625 
Q 14.890625 38.140625 10.796875 36.28125 
z
" id="BitstreamVeraSans-Roman-35"/>
      </defs>
      <g transform="translate(954.0675 466.718125)scale(0.12 -0.12)">
       <use xlink:href="#BitstreamVeraSans-Roman-35"/>
       <use x="63.623046875" xlink:href="#BitstreamVeraSans-Roman-30"/>
       <use x="127.24609375" xlink:href="#BitstreamVeraSans-Roman-30"/>
      </g>
     </g>
    </g>
    <g id="text_7">
     <!-- Time -->
     <defs>
      <path d="M 56.203125 29.59375 
L 56.203125 25.203125 
L 14.890625 25.203125 
Q 15.484375 15.921875 20.484375 11.0625 
Q 25.484375 6.203125 34.421875 6.203125 
Q 39.59375 6.203125 44.453125 7.46875 
Q 49.3125 8.734375 54.109375 11.28125 
L 54.109375 2.78125 
Q 49.265625 0.734375 44.1875 -0.34375 
Q 39.109375 -1.421875 33.890625 -1.421875 
Q 20.796875 -1.421875 13.15625 6.1875 
Q 5.515625 13.8125 5.515625 26.8125 
Q 5.515625 40.234375 12.765625 48.109375 
Q 20.015625 56 32.328125 56 
Q 43.359375 56 49.78125 48.890625 
Q 56.203125 41.796875 56.203125 29.59375 
M 47.21875 32.234375 
Q 47.125 39.59375 43.09375 43.984375 
Q 39.0625 48.390625 32.421875 48.390625 
Q 24.90625 48.390625 20.390625 44.140625 
Q 15.875 39.890625 15.1875 32.171875 
z
" id="BitstreamVeraSans-Roman-65"/>
      <path d="M 9.421875 54.6875 
L 18.40625 54.6875 
L 18.40625 0 
L 9.421875 0 
z
M 9.421875 75.984375 
L 18.40625 75.984375 
L 18.40625 64.59375 
L 9.421875 64.59375 
z
" id="BitstreamVeraSans-Roman-69"/>
      <path d="M -0.296875 72.90625 
L 61.375 72.90625 
L 61.375 64.59375 
L 35.5 64.59375 
L 35.5 0 
L 25.59375 0 
L 25.59375 64.59375 
L -0.296875 64.59375 
z
" id="BitstreamVeraSans-Roman-54"/>
      <path d="M 52 44.1875 
Q 55.375 50.25 60.0625 53.125 
Q 64.75 56 71.09375 56 
Q 79.640625 56 84.28125 50.015625 
Q 88.921875 44.046875 88.921875 33.015625 
L 88.921875 0 
L 79.890625 0 
L 79.890625 32.71875 
Q 79.890625 40.578125 77.09375 44.375 
Q 74.3125 48.1875 68.609375 48.1875 
Q 61.625 48.1875 57.5625 43.546875 
Q 53.515625 38.921875 53.515625 30.90625 
L 53.515625 0 
L 44.484375 0 
L 44.484375 32.71875 
Q 44.484375 40.625 41.703125 44.40625 
Q 38.921875 48.1875 33.109375 48.1875 
Q 26.21875 48.1875 22.15625 43.53125 
Q 18.109375 38.875 18.109375 30.90625 
L 18.109375 0 
L 9.078125 0 
L 9.078125 54.6875 
L 18.109375 54.6875 
L 18.109375 46.1875 
Q 21.1875 51.21875 25.484375 53.609375 
Q 29.78125 56 35.6875 56 
Q 41.65625 56 45.828125 52.96875 
Q 50 49.953125 52 44.1875 
" id="BitstreamVeraSans-Roman-6d"/>
     </defs>
     <g transform="translate(548.895 483.331875)scale(0.12 -0.12)">
      <use xlink:href="#BitstreamVeraSans-Roman-54"/>
      <use x="61.037109375" xlink:href="#BitstreamVeraSans-Roman-69"/>
      <use x="88.8203125" xlink:href="#BitstreamVeraSans-Roman-6d"/>
      <use x="186.232421875" xlink:href="#BitstreamVeraSans-Roman-65"/>
     </g>
    </g>
   </g>
   <g id="matplotlib.axis_2">
    <g id="ytick_1">
     <g id="line2d_17">
      <defs>
       <path d="M 0 0 
L 4 0 
" id="m2bae5fe655" style="stroke:#000000;stroke-width:0.5;"/>
      </defs>
      <g>
       <use style="stroke:#000000;stroke-width:0.5;" x="162.0" xlink:href="#m2bae5fe655" y="453.6"/>
      </g>
     </g>
     <g id="line2d_18">
      <defs>
       <path d="M 0 0 
L -4 0 
" id="m656365dcb2" style="stroke:#000000;stroke-width:0.5;"/>
      </defs>
      <g>
       <use style="stroke:#000000;stroke-width:0.5;" x="965.52" xlink:href="#m656365dcb2" y="453.6"/>
      </g>
     </g>
     <g id="text_8">
      <!-- 0 -->
      <g transform="translate(150.365 456.91125)scale(0.12 -0.12)">
       <use xlink:href="#BitstreamVeraSans-Roman-30"/>
      </g>
     </g>
    </g>
    <g id="ytick_2">
     <g id="line2d_19">
      <g>
       <use style="stroke:#000000;stroke-width:0.5;" x="162.0" xlink:href="#m2bae5fe655" y="386.4"/>
      </g>
     </g>
     <g id="line2d_20">
      <g>
       <use style="stroke:#000000;stroke-width:0.5;" x="965.52" xlink:href="#m656365dcb2" y="386.4"/>
      </g>
     </g>
     <g id="text_9">
      <!-- 5 -->
      <g transform="translate(150.365 389.71125)scale(0.12 -0.12)">
       <use xlink:href="#BitstreamVeraSans-Roman-35"/>
      </g>
     </g>
    </g>
    <g id="ytick_3">
     <g id="line2d_21">
      <g>
       <use style="stroke:#000000;stroke-width:0.5;" x="162.0" xlink:href="#m2bae5fe655" y="319.2"/>
      </g>
     </g>
     <g id="line2d_22">
      <g>
       <use style="stroke:#000000;stroke-width:0.5;" x="965.52" xlink:href="#m656365dcb2" y="319.2"/>
      </g>
     </g>
     <g id="text_10">
      <!-- 10 -->
      <g transform="translate(142.73 322.51125)scale(0.12 -0.12)">
       <use xlink:href="#BitstreamVeraSans-Roman-31"/>
       <use x="63.623046875" xlink:href="#BitstreamVeraSans-Roman-30"/>
      </g>
     </g>
    </g>
    <g id="ytick_4">
     <g id="line2d_23">
      <g>
       <use style="stroke:#000000;stroke-width:0.5;" x="162.0" xlink:href="#m2bae5fe655" y="252.0"/>
      </g>
     </g>
     <g id="line2d_24">
      <g>
       <use style="stroke:#000000;stroke-width:0.5;" x="965.52" xlink:href="#m656365dcb2" y="252.0"/>
      </g>
     </g>
     <g id="text_11">
      <!-- 15 -->
      <g transform="translate(142.73 255.31125)scale(0.12 -0.12)">
       <use xlink:href="#BitstreamVeraSans-Roman-31"/>
       <use x="63.623046875" xlink:href="#BitstreamVeraSans-Roman-35"/>
      </g>
     </g>
    </g>
    <g id="ytick_5">
     <g id="line2d_25">
      <g>
       <use style="stroke:#000000;stroke-width:0.5;" x="162.0" xlink:href="#m2bae5fe655" y="184.8"/>
      </g>
     </g>
     <g id="line2d_26">
      <g>
       <use style="stroke:#000000;stroke-width:0.5;" x="965.52" xlink:href="#m656365dcb2" y="184.8"/>
      </g>
     </g>
     <g id="text_12">
      <!-- 20 -->
      <g transform="translate(142.73 188.11125)scale(0.12 -0.12)">
       <use xlink:href="#BitstreamVeraSans-Roman-32"/>
       <use x="63.623046875" xlink:href="#BitstreamVeraSans-Roman-30"/>
      </g>
     </g>
    </g>
    <g id="ytick_6">
     <g id="line2d_27">
      <g>
       <use style="stroke:#000000;stroke-width:0.5;" x="162.0" xlink:href="#m2bae5fe655" y="117.6"/>
      </g>
     </g>
     <g id="line2d_28">
      <g>
       <use style="stroke:#000000;stroke-width:0.5;" x="965.52" xlink:href="#m656365dcb2" y="117.6"/>
      </g>
     </g>
     <g id="text_13">
      <!-- 25 -->
      <g transform="translate(142.73 120.91125)scale(0.12 -0.12)">
       <use xlink:href="#BitstreamVeraSans-Roman-32"/>
       <use x="63.623046875" xlink:href="#BitstreamVeraSans-Roman-35"/>
      </g>
     </g>
    </g>
    <g id="ytick_7">
     <g id="line2d_29">
      <g>
       <use style="stroke:#000000;stroke-width:0.5;" x="162.0" xlink:href="#m2bae5fe655" y="50.4"/>
      </g>
     </g>
     <g id="line2d_30">
      <g>
       <use style="stroke:#000000;stroke-width:0.5;" x="965.52" xlink:href="#m656365dcb2" y="50.4"/>
      </g>
     </g>
     <g id="text_14">
      <!-- 30 -->
      <g transform="translate(142.73 53.71125)scale(0.12 -0.12)">
       <use xlink:href="#BitstreamVeraSans-Roman-33"/>
       <use x="63.623046875" xlink:href="#BitstreamVeraSans-Roman-30"/>
      </g>
     </g>
    </g>
    <g id="text_15">
     <!-- #neighbors -->
     <defs>
      <path d="M 51.125 44 
L 36.921875 44 
L 32.8125 27.6875 
L 47.125 27.6875 
z
M 43.796875 71.78125 
L 38.71875 51.515625 
L 52.984375 51.515625 
L 58.109375 71.78125 
L 65.921875 71.78125 
L 60.890625 51.515625 
L 76.125 51.515625 
L 76.125 44 
L 58.984375 44 
L 54.984375 27.6875 
L 70.515625 27.6875 
L 70.515625 20.21875 
L 53.078125 20.21875 
L 48 0 
L 40.1875 0 
L 45.21875 20.21875 
L 30.90625 20.21875 
L 25.875 0 
L 18.015625 0 
L 23.09375 20.21875 
L 7.71875 20.21875 
L 7.71875 27.6875 
L 24.90625 27.6875 
L 29 44 
L 13.28125 44 
L 13.28125 51.515625 
L 30.90625 51.515625 
L 35.890625 71.78125 
z
" id="BitstreamVeraSans-Roman-23"/>
      <path d="M 54.890625 33.015625 
L 54.890625 0 
L 45.90625 0 
L 45.90625 32.71875 
Q 45.90625 40.484375 42.875 44.328125 
Q 39.84375 48.1875 33.796875 48.1875 
Q 26.515625 48.1875 22.3125 43.546875 
Q 18.109375 38.921875 18.109375 30.90625 
L 18.109375 0 
L 9.078125 0 
L 9.078125 54.6875 
L 18.109375 54.6875 
L 18.109375 46.1875 
Q 21.34375 51.125 25.703125 53.5625 
Q 30.078125 56 35.796875 56 
Q 45.21875 56 50.046875 50.171875 
Q 54.890625 44.34375 54.890625 33.015625 
" id="BitstreamVeraSans-Roman-6e"/>
      <path d="M 30.609375 48.390625 
Q 23.390625 48.390625 19.1875 42.75 
Q 14.984375 37.109375 14.984375 27.296875 
Q 14.984375 17.484375 19.15625 11.84375 
Q 23.34375 6.203125 30.609375 6.203125 
Q 37.796875 6.203125 41.984375 11.859375 
Q 46.1875 17.53125 46.1875 27.296875 
Q 46.1875 37.015625 41.984375 42.703125 
Q 37.796875 48.390625 30.609375 48.390625 
M 30.609375 56 
Q 42.328125 56 49.015625 48.375 
Q 55.71875 40.765625 55.71875 27.296875 
Q 55.71875 13.875 49.015625 6.21875 
Q 42.328125 -1.421875 30.609375 -1.421875 
Q 18.84375 -1.421875 12.171875 6.21875 
Q 5.515625 13.875 5.515625 27.296875 
Q 5.515625 40.765625 12.171875 48.375 
Q 18.84375 56 30.609375 56 
" id="BitstreamVeraSans-Roman-6f"/>
      <path d="M 54.890625 33.015625 
L 54.890625 0 
L 45.90625 0 
L 45.90625 32.71875 
Q 45.90625 40.484375 42.875 44.328125 
Q 39.84375 48.1875 33.796875 48.1875 
Q 26.515625 48.1875 22.3125 43.546875 
Q 18.109375 38.921875 18.109375 30.90625 
L 18.109375 0 
L 9.078125 0 
L 9.078125 75.984375 
L 18.109375 75.984375 
L 18.109375 46.1875 
Q 21.34375 51.125 25.703125 53.5625 
Q 30.078125 56 35.796875 56 
Q 45.21875 56 50.046875 50.171875 
Q 54.890625 44.34375 54.890625 33.015625 
" id="BitstreamVeraSans-Roman-68"/>
      <path d="M 45.40625 27.984375 
Q 45.40625 37.75 41.375 43.109375 
Q 37.359375 48.484375 30.078125 48.484375 
Q 22.859375 48.484375 18.828125 43.109375 
Q 14.796875 37.75 14.796875 27.984375 
Q 14.796875 18.265625 18.828125 12.890625 
Q 22.859375 7.515625 30.078125 7.515625 
Q 37.359375 7.515625 41.375 12.890625 
Q 45.40625 18.265625 45.40625 27.984375 
M 54.390625 6.78125 
Q 54.390625 -7.171875 48.1875 -13.984375 
Q 42 -20.796875 29.203125 -20.796875 
Q 24.46875 -20.796875 20.265625 -20.09375 
Q 16.0625 -19.390625 12.109375 -17.921875 
L 12.109375 -9.1875 
Q 16.0625 -11.328125 19.921875 -12.34375 
Q 23.78125 -13.375 27.78125 -13.375 
Q 36.625 -13.375 41.015625 -8.765625 
Q 45.40625 -4.15625 45.40625 5.171875 
L 45.40625 9.625 
Q 42.625 4.78125 38.28125 2.390625 
Q 33.9375 0 27.875 0 
Q 17.828125 0 11.671875 7.65625 
Q 5.515625 15.328125 5.515625 27.984375 
Q 5.515625 40.671875 11.671875 48.328125 
Q 17.828125 56 27.875 56 
Q 33.9375 56 38.28125 53.609375 
Q 42.625 51.21875 45.40625 46.390625 
L 45.40625 54.6875 
L 54.390625 54.6875 
z
" id="BitstreamVeraSans-Roman-67"/>
      <path d="M 41.109375 46.296875 
Q 39.59375 47.171875 37.8125 47.578125 
Q 36.03125 48 33.890625 48 
Q 26.265625 48 22.1875 43.046875 
Q 18.109375 38.09375 18.109375 28.8125 
L 18.109375 0 
L 9.078125 0 
L 9.078125 54.6875 
L 18.109375 54.6875 
L 18.109375 46.1875 
Q 20.953125 51.171875 25.484375 53.578125 
Q 30.03125 56 36.53125 56 
Q 37.453125 56 38.578125 55.875 
Q 39.703125 55.765625 41.0625 55.515625 
z
" id="BitstreamVeraSans-Roman-72"/>
      <path d="M 44.28125 53.078125 
L 44.28125 44.578125 
Q 40.484375 46.53125 36.375 47.5 
Q 32.28125 48.484375 27.875 48.484375 
Q 21.1875 48.484375 17.84375 46.4375 
Q 14.5 44.390625 14.5 40.28125 
Q 14.5 37.15625 16.890625 35.375 
Q 19.28125 33.59375 26.515625 31.984375 
L 29.59375 31.296875 
Q 39.15625 29.25 43.1875 25.515625 
Q 47.21875 21.78125 47.21875 15.09375 
Q 47.21875 7.46875 41.1875 3.015625 
Q 35.15625 -1.421875 24.609375 -1.421875 
Q 20.21875 -1.421875 15.453125 -0.5625 
Q 10.6875 0.296875 5.421875 2 
L 5.421875 11.28125 
Q 10.40625 8.6875 15.234375 7.390625 
Q 20.0625 6.109375 24.8125 6.109375 
Q 31.15625 6.109375 34.5625 8.28125 
Q 37.984375 10.453125 37.984375 14.40625 
Q 37.984375 18.0625 35.515625 20.015625 
Q 33.0625 21.96875 24.703125 23.78125 
L 21.578125 24.515625 
Q 13.234375 26.265625 9.515625 29.90625 
Q 5.8125 33.546875 5.8125 39.890625 
Q 5.8125 47.609375 11.28125 51.796875 
Q 16.75 56 26.8125 56 
Q 31.78125 56 36.171875 55.265625 
Q 40.578125 54.546875 44.28125 53.078125 
" id="BitstreamVeraSans-Roman-73"/>
      <path d="M 48.6875 27.296875 
Q 48.6875 37.203125 44.609375 42.84375 
Q 40.53125 48.484375 33.40625 48.484375 
Q 26.265625 48.484375 22.1875 42.84375 
Q 18.109375 37.203125 18.109375 27.296875 
Q 18.109375 17.390625 22.1875 11.75 
Q 26.265625 6.109375 33.40625 6.109375 
Q 40.53125 6.109375 44.609375 11.75 
Q 48.6875 17.390625 48.6875 27.296875 
M 18.109375 46.390625 
Q 20.953125 51.265625 25.265625 53.625 
Q 29.59375 56 35.59375 56 
Q 45.5625 56 51.78125 48.09375 
Q 58.015625 40.1875 58.015625 27.296875 
Q 58.015625 14.40625 51.78125 6.484375 
Q 45.5625 -1.421875 35.59375 -1.421875 
Q 29.59375 -1.421875 25.265625 0.953125 
Q 20.953125 3.328125 18.109375 8.203125 
L 18.109375 0 
L 9.078125 0 
L 9.078125 75.984375 
L 18.109375 75.984375 
z
" id="BitstreamVeraSans-Roman-62"/>
     </defs>
     <g transform="translate(135.234375 286.873125)rotate(-90.0)scale(0.12 -0.12)">
      <use xlink:href="#BitstreamVeraSans-Roman-23"/>
      <use x="83.7890625" xlink:href="#BitstreamVeraSans-Roman-6e"/>
      <use x="147.16796875" xlink:href="#BitstreamVeraSans-Roman-65"/>
      <use x="208.69140625" xlink:href="#BitstreamVeraSans-Roman-69"/>
      <use x="236.474609375" xlink:href="#BitstreamVeraSans-Roman-67"/>
      <use x="299.951171875" xlink:href="#BitstreamVeraSans-Roman-68"/>
      <use x="363.330078125" xlink:href="#BitstreamVeraSans-Roman-62"/>
      <use x="426.806640625" xlink:href="#BitstreamVeraSans-Roman-6f"/>
      <use x="487.98828125" xlink:href="#BitstreamVeraSans-Roman-72"/>
      <use x="529.1015625" xlink:href="#BitstreamVeraSans-Roman-73"/>
     </g>
    </g>
   </g>
   <g id="text_16">
    <!-- Cohesion: #neighbors -->
    <defs>
     <path id="BitstreamVeraSans-Roman-20"/>
     <path d="M 11.71875 12.40625 
L 22.015625 12.40625 
L 22.015625 0 
L 11.71875 0 
z
M 11.71875 51.703125 
L 22.015625 51.703125 
L 22.015625 39.3125 
L 11.71875 39.3125 
z
" id="BitstreamVeraSans-Roman-3a"/>
     <path d="M 64.40625 67.28125 
L 64.40625 56.890625 
Q 59.421875 61.53125 53.78125 63.8125 
Q 48.140625 66.109375 41.796875 66.109375 
Q 29.296875 66.109375 22.65625 58.46875 
Q 16.015625 50.828125 16.015625 36.375 
Q 16.015625 21.96875 22.65625 14.328125 
Q 29.296875 6.6875 41.796875 6.6875 
Q 48.140625 6.6875 53.78125 8.984375 
Q 59.421875 11.28125 64.40625 15.921875 
L 64.40625 5.609375 
Q 59.234375 2.09375 53.4375 0.328125 
Q 47.65625 -1.421875 41.21875 -1.421875 
Q 24.65625 -1.421875 15.125 8.703125 
Q 5.609375 18.84375 5.609375 36.375 
Q 5.609375 53.953125 15.125 64.078125 
Q 24.65625 74.21875 41.21875 74.21875 
Q 47.75 74.21875 53.53125 72.484375 
Q 59.328125 70.75 64.40625 67.28125 
" id="BitstreamVeraSans-Roman-43"/>
    </defs>
    <g transform="translate(484.052625 45.4)scale(0.144 -0.144)">
     <use xlink:href="#BitstreamVeraSans-Roman-43"/>
     <use x="69.82421875" xlink:href="#BitstreamVeraSans-Roman-6f"/>
     <use x="131.005859375" xlink:href="#BitstreamVeraSans-Roman-68"/>
     <use x="194.384765625" xlink:href="#BitstreamVeraSans-Roman-65"/>
     <use x="255.908203125" xlink:href="#BitstreamVeraSans-Roman-73"/>
     <use x="308.0078125" xlink:href="#BitstreamVeraSans-Roman-69"/>
     <use x="335.791015625" xlink:href="#BitstreamVeraSans-Roman-6f"/>
     <use x="396.97265625" xlink:href="#BitstreamVeraSans-Roman-6e"/>
     <use x="460.3515625" xlink:href="#BitstreamVeraSans-Roman-3a"/>
     <use x="494.04296875" xlink:href="#BitstreamVeraSans-Roman-20"/>
     <use x="525.830078125" xlink:href="#BitstreamVeraSans-Roman-23"/>
     <use x="609.619140625" xlink:href="#BitstreamVeraSans-Roman-6e"/>
     <use x="672.998046875" xlink:href="#BitstreamVeraSans-Roman-65"/>
     <use x="734.521484375" xlink:href="#BitstreamVeraSans-Roman-69"/>
     <use x="762.3046875" xlink:href="#BitstreamVeraSans-Roman-67"/>
     <use x="825.78125" xlink:href="#BitstreamVeraSans-Roman-68"/>
     <use x="889.16015625" xlink:href="#BitstreamVeraSans-Roman-62"/>
     <use x="952.63671875" xlink:href="#BitstreamVeraSans-Roman-6f"/>
     <use x="1013.81835938" xlink:href="#BitstreamVeraSans-Roman-72"/>
     <use x="1054.93164062" xlink:href="#BitstreamVeraSans-Roman-73"/>
    </g>
   </g>
   <g id="legend_1">
    <g id="patch_7">
     <path d="M 972.72 138.402 
L 1066.464 138.402 
L 1066.464 49.536 
L 972.72 49.536 
z
" style="fill:#ffffff;stroke:#000000;stroke-linejoin:miter;"/>
    </g>
    <g id="line2d_31">
     <path d="M 982.8 61.19775 
L 1002.96 61.19775 
" style="fill:none;stroke:#0000ff;stroke-linecap:square;"/>
    </g>
    <g id="line2d_32"/>
    <g id="text_17">
     <!-- $C_w=1$ -->
     <defs>
      <path d="M 9.28125 0 
L 9.28125 3.515625 
Q 21.78125 3.515625 21.78125 6.6875 
L 21.78125 59.1875 
Q 16.609375 56.6875 8.6875 56.6875 
L 8.6875 60.203125 
Q 20.953125 60.203125 27.203125 66.609375 
L 28.609375 66.609375 
Q 28.953125 66.609375 29.265625 66.328125 
Q 29.59375 66.0625 29.59375 65.71875 
L 29.59375 6.6875 
Q 29.59375 3.515625 42.09375 3.515625 
L 42.09375 0 
z
" id="Cmr10-31"/>
      <path d="M 14.59375 21.578125 
Q 14.59375 15.578125 16.90625 11.015625 
Q 19.234375 6.453125 23.65625 3.875 
Q 28.078125 1.3125 34.078125 1.3125 
Q 40.375 1.3125 46.203125 4.53125 
Q 52.046875 7.765625 56.171875 13.15625 
Q 60.296875 18.5625 61.8125 24.609375 
Q 62.015625 25.203125 62.59375 25.203125 
L 63.8125 25.203125 
Q 64.203125 25.203125 64.453125 24.921875 
Q 64.703125 24.65625 64.703125 24.3125 
Q 64.703125 24.21875 64.59375 24.03125 
Q 62.890625 17.09375 57.984375 11.015625 
Q 53.078125 4.9375 46.234375 1.359375 
Q 39.40625 -2.203125 32.171875 -2.203125 
Q 24.359375 -2.203125 18.15625 1.3125 
Q 11.96875 4.828125 8.515625 11.078125 
Q 5.078125 17.328125 5.078125 25.203125 
Q 5.078125 33.59375 8.828125 41.8125 
Q 12.59375 50.046875 18.9375 56.46875 
Q 25.296875 62.890625 33.421875 66.703125 
Q 41.546875 70.515625 49.90625 70.515625 
Q 53.21875 70.515625 56.25 69.5 
Q 59.28125 68.5 61.859375 66.453125 
Q 64.453125 64.40625 66.109375 61.71875 
L 74.03125 70.3125 
Q 74.03125 70.515625 74.515625 70.515625 
L 75.09375 70.515625 
Q 75.484375 70.515625 75.734375 70.171875 
Q 75.984375 69.828125 75.984375 69.484375 
L 69.1875 42.484375 
Q 69.1875 41.796875 68.40625 41.796875 
L 66.609375 41.796875 
Q 65.828125 41.796875 65.828125 42.921875 
Q 66.21875 45.125 66.21875 48.1875 
Q 66.21875 53.078125 64.546875 57.390625 
Q 62.890625 61.71875 59.390625 64.359375 
Q 55.90625 67 50.875 67 
Q 42.71875 67 35.9375 62.890625 
Q 29.15625 58.796875 24.4375 52.125 
Q 19.734375 45.453125 17.15625 37.328125 
Q 14.59375 29.203125 14.59375 21.578125 
" id="Cmmi10-43"/>
      <path d="M 10.796875 11.625 
Q 10.796875 13.71875 11.359375 16.453125 
Q 11.921875 19.1875 12.59375 21.3125 
Q 13.28125 23.4375 14.90625 27.828125 
Q 16.546875 32.234375 16.703125 32.625 
Q 18.015625 36.28125 18.015625 38.625 
Q 18.015625 41.609375 15.828125 41.609375 
Q 11.859375 41.609375 9.296875 37.53125 
Q 6.734375 33.453125 5.515625 28.421875 
Q 5.328125 27.78125 4.6875 27.78125 
L 3.515625 27.78125 
Q 2.6875 27.78125 2.6875 28.71875 
L 2.6875 29 
Q 4.296875 34.96875 7.609375 39.578125 
Q 10.9375 44.1875 16.015625 44.1875 
Q 19.578125 44.1875 22.046875 41.84375 
Q 24.515625 39.5 24.515625 35.890625 
Q 24.515625 34.03125 23.6875 31.984375 
Q 22.515625 28.953125 20.921875 24.703125 
Q 19.34375 20.453125 18.453125 16.984375 
Q 17.578125 13.53125 17.578125 10.296875 
Q 17.578125 6.390625 19.625 3.953125 
Q 21.6875 1.515625 25.59375 1.515625 
Q 30.90625 1.515625 34.421875 9.625 
Q 34.28125 10.203125 34.28125 11.28125 
Q 34.28125 13.96875 35.109375 17.390625 
L 40.71875 39.890625 
Q 41.0625 41.21875 42.28125 42.15625 
Q 43.5 43.109375 44.921875 43.109375 
Q 46.09375 43.109375 47 42.328125 
Q 47.90625 41.546875 47.90625 40.28125 
Q 47.90625 39.703125 47.796875 39.5 
L 42.1875 17.1875 
Q 41.21875 13.1875 41.21875 10.015625 
Q 41.21875 6.25 42.9375 3.875 
Q 44.671875 1.515625 48.390625 1.515625 
Q 54.828125 1.515625 58.984375 10.015625 
Q 60.546875 13.03125 62.46875 18.9375 
Q 64.40625 24.859375 64.40625 27.984375 
Q 64.40625 30.859375 63.46875 32.546875 
Q 62.546875 34.234375 60.90625 36.1875 
Q 59.28125 38.140625 59.28125 39.109375 
Q 59.28125 41.015625 60.90625 42.640625 
Q 62.546875 44.28125 64.5 44.28125 
Q 66.890625 44.28125 67.9375 42.078125 
Q 69 39.890625 69 37.109375 
Q 69 33.734375 67.875 28.53125 
Q 66.75 23.34375 65.03125 18.09375 
Q 63.328125 12.84375 61.8125 9.71875 
Q 56.34375 -1.125 48.1875 -1.125 
Q 44 -1.125 40.53125 0.484375 
Q 37.0625 2.09375 35.40625 5.609375 
Q 33.796875 2.734375 31.171875 0.796875 
Q 28.5625 -1.125 25.390625 -1.125 
Q 18.796875 -1.125 14.796875 2.015625 
Q 10.796875 5.171875 10.796875 11.625 
" id="Cmmi10-77"/>
      <path d="M 7.515625 13.28125 
Q 6.6875 13.28125 6.140625 13.90625 
Q 5.609375 14.546875 5.609375 15.28125 
Q 5.609375 16.109375 6.140625 16.6875 
Q 6.6875 17.28125 7.515625 17.28125 
L 70.3125 17.28125 
Q 71.046875 17.28125 71.578125 16.6875 
Q 72.125 16.109375 72.125 15.28125 
Q 72.125 14.546875 71.578125 13.90625 
Q 71.046875 13.28125 70.3125 13.28125 
z
M 7.515625 32.71875 
Q 6.6875 32.71875 6.140625 33.296875 
Q 5.609375 33.890625 5.609375 34.71875 
Q 5.609375 35.453125 6.140625 36.078125 
Q 6.6875 36.71875 7.515625 36.71875 
L 70.3125 36.71875 
Q 71.046875 36.71875 71.578125 36.078125 
Q 72.125 35.453125 72.125 34.71875 
Q 72.125 33.890625 71.578125 33.296875 
Q 71.046875 32.71875 70.3125 32.71875 
z
" id="Cmr10-3d"/>
     </defs>
     <g transform="translate(1018.8 66.23775)scale(0.144 -0.144)">
      <use transform="translate(0.0 0.484375)" xlink:href="#Cmmi10-43"/>
      <use transform="translate(71.38671875 -16.521875)scale(0.7)" xlink:href="#Cmmi10-77"/>
      <use transform="translate(145.36171875 0.484375)" xlink:href="#Cmr10-3d"/>
      <use transform="translate(240.605859375 0.484375)" xlink:href="#Cmr10-31"/>
     </g>
    </g>
    <g id="line2d_33">
     <path d="M 982.8 82.33425 
L 1002.96 82.33425 
" style="fill:none;stroke:#008000;stroke-linecap:square;"/>
    </g>
    <g id="line2d_34"/>
    <g id="text_18">
     <!-- $C_w=3$ -->
     <defs>
      <path d="M 9.515625 7.71875 
Q 11.859375 4.296875 15.8125 2.640625 
Q 19.78125 0.984375 24.3125 0.984375 
Q 30.125 0.984375 32.5625 5.9375 
Q 35.015625 10.890625 35.015625 17.1875 
Q 35.015625 20.015625 34.5 22.84375 
Q 33.984375 25.6875 32.765625 28.125 
Q 31.546875 30.5625 29.421875 32.03125 
Q 27.296875 33.5 24.21875 33.5 
L 17.578125 33.5 
Q 16.703125 33.5 16.703125 34.421875 
L 16.703125 35.296875 
Q 16.703125 36.078125 17.578125 36.078125 
L 23.09375 36.53125 
Q 26.609375 36.53125 28.921875 39.15625 
Q 31.25 41.796875 32.328125 45.578125 
Q 33.40625 49.359375 33.40625 52.78125 
Q 33.40625 57.5625 31.15625 60.640625 
Q 28.90625 63.71875 24.3125 63.71875 
Q 20.515625 63.71875 17.046875 62.28125 
Q 13.578125 60.84375 11.53125 57.90625 
Q 11.71875 57.953125 11.859375 57.984375 
Q 12.015625 58.015625 12.203125 58.015625 
Q 14.453125 58.015625 15.96875 56.453125 
Q 17.484375 54.890625 17.484375 52.6875 
Q 17.484375 50.53125 15.96875 48.96875 
Q 14.453125 47.40625 12.203125 47.40625 
Q 10.015625 47.40625 8.453125 48.96875 
Q 6.890625 50.53125 6.890625 52.6875 
Q 6.890625 56.984375 9.46875 60.15625 
Q 12.0625 63.328125 16.140625 64.96875 
Q 20.21875 66.609375 24.3125 66.609375 
Q 27.34375 66.609375 30.703125 65.703125 
Q 34.078125 64.796875 36.8125 63.109375 
Q 39.546875 61.421875 41.28125 58.78125 
Q 43.015625 56.15625 43.015625 52.78125 
Q 43.015625 48.578125 41.140625 45.015625 
Q 39.265625 41.453125 35.984375 38.859375 
Q 32.71875 36.28125 28.8125 35.015625 
Q 33.15625 34.1875 37.0625 31.734375 
Q 40.96875 29.296875 43.328125 25.484375 
Q 45.703125 21.6875 45.703125 17.28125 
Q 45.703125 11.765625 42.671875 7.296875 
Q 39.65625 2.828125 34.71875 0.3125 
Q 29.78125 -2.203125 24.3125 -2.203125 
Q 19.625 -2.203125 14.90625 -0.40625 
Q 10.203125 1.375 7.203125 4.9375 
Q 4.203125 8.5 4.203125 13.484375 
Q 4.203125 15.96875 5.859375 17.625 
Q 7.515625 19.28125 10.015625 19.28125 
Q 11.625 19.28125 12.96875 18.53125 
Q 14.3125 17.78125 15.0625 16.40625 
Q 15.828125 15.046875 15.828125 13.484375 
Q 15.828125 11.03125 14.109375 9.375 
Q 12.40625 7.71875 10.015625 7.71875 
z
" id="Cmr10-33"/>
     </defs>
     <g transform="translate(1018.8 87.37425)scale(0.144 -0.144)">
      <use transform="translate(0.0 0.484375)" xlink:href="#Cmmi10-43"/>
      <use transform="translate(71.38671875 -16.521875)scale(0.7)" xlink:href="#Cmmi10-77"/>
      <use transform="translate(145.36171875 0.484375)" xlink:href="#Cmr10-3d"/>
      <use transform="translate(240.605859375 0.484375)" xlink:href="#Cmr10-33"/>
     </g>
    </g>
    <g id="line2d_35">
     <path d="M 982.8 103.47075 
L 1002.96 103.47075 
" style="fill:none;stroke:#ff0000;stroke-linecap:square;"/>
    </g>
    <g id="line2d_36"/>
    <g id="text_19">
     <!-- $C_w=5$ -->
     <defs>
      <path d="M 8.6875 11.375 
Q 9.71875 8.453125 11.84375 6.046875 
Q 13.96875 3.65625 16.875 2.3125 
Q 19.78125 0.984375 22.90625 0.984375 
Q 30.125 0.984375 32.859375 6.59375 
Q 35.59375 12.203125 35.59375 20.21875 
Q 35.59375 23.6875 35.46875 26.046875 
Q 35.359375 28.421875 34.8125 30.609375 
Q 33.890625 34.125 31.5625 36.765625 
Q 29.25 39.40625 25.875 39.40625 
Q 22.515625 39.40625 20.09375 38.375 
Q 17.671875 37.359375 16.15625 35.984375 
Q 14.65625 34.625 13.484375 33.109375 
Q 12.3125 31.59375 12.015625 31.5 
L 10.890625 31.5 
Q 10.640625 31.5 10.265625 31.8125 
Q 9.90625 32.125 9.90625 32.421875 
L 9.90625 65.828125 
Q 9.90625 66.0625 10.21875 66.328125 
Q 10.546875 66.609375 10.890625 66.609375 
L 11.1875 66.609375 
Q 17.921875 63.375 25.484375 63.375 
Q 32.90625 63.375 39.796875 66.609375 
L 40.09375 66.609375 
Q 40.4375 66.609375 40.71875 66.359375 
Q 41.015625 66.109375 41.015625 65.828125 
L 41.015625 64.890625 
Q 41.015625 64.40625 40.828125 64.40625 
Q 37.40625 59.859375 32.25 57.3125 
Q 27.09375 54.78125 21.578125 54.78125 
Q 17.578125 54.78125 13.375 55.90625 
L 13.375 37.015625 
Q 16.703125 39.703125 19.3125 40.84375 
Q 21.921875 42 25.984375 42 
Q 31.5 42 35.859375 38.8125 
Q 40.234375 35.640625 42.578125 30.53125 
Q 44.921875 25.4375 44.921875 20.125 
Q 44.921875 14.109375 41.96875 8.984375 
Q 39.015625 3.859375 33.9375 0.828125 
Q 28.859375 -2.203125 22.90625 -2.203125 
Q 17.96875 -2.203125 13.84375 0.328125 
Q 9.71875 2.875 7.34375 7.171875 
Q 4.984375 11.46875 4.984375 16.3125 
Q 4.984375 18.5625 6.4375 19.96875 
Q 7.90625 21.390625 10.109375 21.390625 
Q 12.3125 21.390625 13.796875 19.9375 
Q 15.28125 18.5 15.28125 16.3125 
Q 15.28125 14.15625 13.796875 12.671875 
Q 12.3125 11.1875 10.109375 11.1875 
Q 9.765625 11.1875 9.328125 11.25 
Q 8.890625 11.328125 8.6875 11.375 
" id="Cmr10-35"/>
     </defs>
     <g transform="translate(1018.8 108.51075)scale(0.144 -0.144)">
      <use transform="translate(0.0 0.484375)" xlink:href="#Cmmi10-43"/>
      <use transform="translate(71.38671875 -16.521875)scale(0.7)" xlink:href="#Cmmi10-77"/>
      <use transform="translate(145.36171875 0.484375)" xlink:href="#Cmr10-3d"/>
      <use transform="translate(240.605859375 0.484375)" xlink:href="#Cmr10-35"/>
     </g>
    </g>
    <g id="line2d_37">
     <path d="M 982.8 124.60725 
L 1002.96 124.60725 
" style="fill:none;stroke:#00bfbf;stroke-linecap:square;"/>
    </g>
    <g id="line2d_38"/>
    <g id="text_20">
     <!-- $C_w=7$ -->
     <defs>
      <path d="M 17.390625 2.59375 
Q 17.390625 8.15625 18.359375 13.46875 
Q 19.34375 18.796875 21.21875 24 
Q 23.09375 29.203125 25.75 34.203125 
Q 28.421875 39.203125 31.59375 43.609375 
L 40.71875 56.296875 
L 29.296875 56.296875 
Q 11.53125 56.296875 10.984375 55.8125 
Q 9.671875 54.203125 8.5 46.578125 
L 5.609375 46.578125 
L 8.890625 67.578125 
L 11.8125 67.578125 
L 11.8125 67.28125 
Q 11.8125 65.484375 17.921875 64.9375 
Q 24.03125 64.40625 29.890625 64.40625 
L 48.484375 64.40625 
L 48.484375 61.8125 
Q 48.484375 61.71875 48.453125 61.671875 
Q 48.4375 61.625 48.390625 61.53125 
L 34.625 42.1875 
Q 29.546875 34.671875 28.265625 25.484375 
Q 27 16.3125 27 2.59375 
Q 27 0.640625 25.578125 -0.78125 
Q 24.171875 -2.203125 22.21875 -2.203125 
Q 20.21875 -2.203125 18.796875 -0.78125 
Q 17.390625 0.640625 17.390625 2.59375 
" id="Cmr10-37"/>
     </defs>
     <g transform="translate(1018.8 129.64725)scale(0.144 -0.144)">
      <use transform="translate(0.0 0.484375)" xlink:href="#Cmmi10-43"/>
      <use transform="translate(71.38671875 -16.521875)scale(0.7)" xlink:href="#Cmmi10-77"/>
      <use transform="translate(145.36171875 0.484375)" xlink:href="#Cmr10-3d"/>
      <use transform="translate(240.605859375 0.484375)" xlink:href="#Cmr10-37"/>
     </g>
    </g>
   </g>
  </g>
 </g>
 <defs>
  <clipPath id="pa639004b36">
   <rect height="403.2" width="803.52" x="162.0" y="50.4"/>
  </clipPath>
 </defs>
</svg>
