<?xml version="1.0" encoding="utf-8" standalone="no"?>
<!DOCTYPE svg PUBLIC "-//W3C//DTD SVG 1.1//EN"
  "http://www.w3.org/Graphics/SVG/1.1/DTD/svg11.dtd">
<!-- Created with matplotlib (http://matplotlib.org/) -->
<svg height="504pt" version="1.1" viewBox="0 0 1296 504" width="1296pt" xmlns="http://www.w3.org/2000/svg" xmlns:xlink="http://www.w3.org/1999/xlink">
 <defs>
  <style type="text/css">
*{stroke-linecap:butt;stroke-linejoin:round;stroke-miterlimit:100000;}
  </style>
 </defs>
 <g id="figure_1">
  <g id="patch_1">
   <path d="M 0 504 
L 1296 504 
L 1296 0 
L 0 0 
z
" style="fill:#ffffff;"/>
  </g>
  <g id="axes_1">
   <g id="patch_2">
    <path d="M 162 453.6 
L 965.52 453.6 
L 965.52 50.4 
L 162 50.4 
z
" style="fill:#ffffff;"/>
   </g>
   <g id="line2d_1">
    <path clip-path="url(#p4f7c174464)" d="M 162 100.2456 
L 163.60704 122.4216 
L 165.21408 140.112 
L 168.42816 179.7264 
L 170.0352 189.7056 
L 171.64224 185.1192 
L 173.24928 187.3368 
L 174.85632 192.6288 
L 176.46336 199.1304 
L 178.0704 195.8544 
L 179.67744 192.9816 
L 181.28448 195.1488 
L 182.89152 186.732 
L 184.49856 186.8832 
L 186.1056 184.3632 
L 187.71264 188.496 
L 189.31968 189.6552 
L 190.92672 189.6552 
L 192.53376 188.9496 
L 194.1408 186.0264 
L 195.74784 187.3872 
L 197.35488 187.6392 
L 198.96192 188.0928 
L 200.56896 186.4296 
L 202.176 188.244 
L 203.78304 188.0424 
L 205.39008 182.9016 
L 208.60416 183.204 
L 210.2112 183.2544 
L 211.81824 179.676 
L 213.42528 179.3736 
L 215.03232 178.1136 
L 216.63936 179.424 
L 219.85344 178.1136 
L 221.46048 178.1136 
L 223.06752 178.92 
L 224.67456 178.668 
L 226.2816 179.3232 
L 227.88864 177.7608 
L 229.49568 178.0128 
L 231.10272 176.8536 
L 232.70976 175.14 
L 234.3168 174.3336 
L 235.92384 174.0816 
L 239.13792 176.1984 
L 240.74496 175.8456 
L 242.352 176.2992 
L 243.95904 176.5008 
L 245.56608 176.2488 
L 247.17312 175.2912 
L 248.78016 174.7872 
L 250.3872 175.9968 
L 253.60128 175.2912 
L 255.20832 176.148 
L 256.81536 175.7952 
L 258.4224 174.384 
L 260.02944 174.4344 
L 263.24352 173.6784 
L 264.85056 171.612 
L 266.4576 171.5616 
L 268.06464 170.9064 
L 269.67168 171.108 
L 271.27872 169.8984 
L 272.88576 169.1424 
L 274.4928 169.2432 
L 276.09984 168.7392 
L 277.70688 169.9992 
L 280.92096 170.856 
L 282.528 170.856 
L 288.95616 170.2512 
L 290.5632 169.2432 
L 292.17024 168.4872 
L 293.77728 167.5296 
L 295.38432 167.2776 
L 296.99136 166.572 
L 298.5984 165.6144 
L 300.20544 162.5904 
L 301.81248 162.0864 
L 303.41952 163.296 
L 305.02656 165.1104 
L 306.6336 165.5136 
L 308.24064 165.564 
L 309.84768 164.4048 
L 311.45472 164.0016 
L 313.06176 163.3464 
L 316.27584 163.4472 
L 317.88288 161.532 
L 319.48992 160.524 
L 321.09696 161.1792 
L 322.704 159.9696 
L 324.31104 160.3224 
L 325.91808 160.1208 
L 327.52512 158.8608 
L 329.13216 158.1552 
L 330.7392 158.2056 
L 333.95328 157.9536 
L 337.16736 157.0464 
L 338.7744 156.0888 
L 340.38144 156.9456 
L 341.98848 157.3992 
L 343.59552 157.4496 
L 346.8096 158.0544 
L 348.41664 157.5 
L 350.02368 158.2056 
L 354.8448 157.2984 
L 356.45184 157.3992 
L 358.05888 155.8872 
L 359.66592 155.9376 
L 361.27296 155.8368 
L 362.88 154.6272 
L 364.48704 153.7704 
L 366.09408 154.5264 
L 369.30816 154.728 
L 370.9152 154.5264 
L 372.52224 154.6272 
L 374.12928 155.2824 
L 375.73632 155.6352 
L 377.34336 155.7864 
L 378.9504 155.6352 
L 383.77152 156.24 
L 385.37856 154.728 
L 386.9856 153.6192 
L 388.59264 153.7704 
L 390.19968 155.3328 
L 391.80672 156.3408 
L 398.23488 156.4416 
L 399.84192 155.736 
L 403.056 156.1896 
L 404.66304 156.1392 
L 406.27008 155.736 
L 407.87712 154.98 
L 411.0912 154.7784 
L 412.69824 153.9216 
L 414.30528 154.224 
L 415.91232 153.2664 
L 417.51936 153.5184 
L 420.73344 155.6352 
L 423.94752 156.492 
L 425.55456 156.5424 
L 427.1616 156.4416 
L 428.76864 156.8448 
L 430.37568 156.4416 
L 431.98272 157.1976 
L 433.58976 157.1472 
L 435.1968 157.8528 
L 436.80384 158.3064 
L 438.41088 158.4072 
L 441.62496 160.02 
L 443.232 159.4656 
L 448.05312 159.3648 
L 449.66016 158.9616 
L 451.2672 159.0624 
L 452.87424 158.8608 
L 454.48128 158.1552 
L 456.08832 157.8528 
L 457.69536 158.76 
L 459.3024 160.02 
L 462.51648 160.524 
L 464.12352 161.0784 
L 465.73056 160.6752 
L 467.3376 159.6672 
L 468.94464 159.8184 
L 470.55168 159.8184 
L 472.15872 160.0704 
L 473.76576 160.6248 
L 478.58688 161.28 
L 480.19392 161.28 
L 481.80096 161.9352 
L 483.408 162.288 
L 485.01504 163.7496 
L 486.62208 164.0016 
L 488.22912 163.5984 
L 489.83616 164.2032 
L 491.4432 164.6568 
L 493.05024 164.7576 
L 494.65728 165.3624 
L 497.87136 164.8584 
L 499.4784 163.8504 
L 501.08544 163.044 
L 502.69248 163.4976 
L 504.29952 165.5136 
L 505.90656 165.7152 
L 507.5136 166.4712 
L 509.12064 166.1688 
L 510.72768 166.824 
L 512.33472 166.1184 
L 515.5488 165.9168 
L 517.15584 165.6648 
L 518.76288 165.7152 
L 520.36992 165.1608 
L 521.97696 164.304 
L 523.584 164.2032 
L 525.19104 163.3968 
L 526.79808 162.9936 
L 528.40512 163.0944 
L 530.01216 163.6488 
L 531.6192 163.2456 
L 533.22624 162.9936 
L 534.83328 161.9856 
L 536.44032 163.296 
L 538.04736 163.1952 
L 539.6544 163.4472 
L 541.26144 164.7072 
L 542.86848 165.0096 
L 544.47552 164.808 
L 546.08256 164.2032 
L 547.6896 164.0016 
L 549.29664 163.9512 
L 550.90368 163.3464 
L 552.51072 164.1024 
L 554.11776 164.0016 
L 555.7248 163.7496 
L 558.93888 163.6488 
L 560.54592 163.8 
L 562.15296 164.1024 
L 563.76 163.4472 
L 565.36704 163.6488 
L 566.97408 163.0944 
L 568.58112 164.5056 
L 570.18816 164.556 
L 571.7952 164.3544 
L 573.40224 163.9008 
L 575.00928 162.9936 
L 576.61632 161.8848 
L 578.22336 161.784 
L 579.8304 160.9272 
L 581.43744 160.6248 
L 583.04448 161.3304 
L 584.65152 161.2296 
L 586.25856 161.3808 
L 587.8656 160.7256 
L 589.47264 160.9776 
L 591.07968 160.5744 
L 592.68672 160.4736 
L 594.29376 160.1712 
L 595.9008 160.272 
L 599.11488 160.9272 
L 600.72192 161.3808 
L 603.936 160.9776 
L 605.54304 161.1288 
L 607.15008 160.8768 
L 608.75712 160.776 
L 610.36416 160.272 
L 611.9712 159.2136 
L 613.57824 158.7096 
L 615.18528 159.3144 
L 616.79232 159.4152 
L 618.39936 159.0624 
L 620.0064 159.4656 
L 621.61344 159.2136 
L 623.22048 160.0704 
L 624.82752 159.768 
L 626.43456 160.524 
L 628.0416 160.776 
L 629.64864 161.2296 
L 631.25568 161.532 
L 632.86272 161.4816 
L 634.46976 160.6752 
L 637.68384 161.1792 
L 640.89792 161.1288 
L 642.50496 160.9776 
L 644.112 161.4312 
L 645.71904 161.532 
L 647.32608 161.3808 
L 648.93312 159.9696 
L 652.1472 160.524 
L 656.96832 159.9696 
L 660.1824 158.76 
L 666.61056 158.1552 
L 668.2176 157.8528 
L 669.82464 157.1472 
L 671.43168 156.5928 
L 673.03872 156.5928 
L 674.64576 156.996 
L 676.2528 157.752 
L 677.85984 158.004 
L 681.07392 156.6936 
L 682.68096 157.3488 
L 684.288 157.6512 
L 685.89504 158.6592 
L 687.50208 159.3144 
L 689.10912 159.012 
L 690.71616 158.9112 
L 692.3232 159.2136 
L 693.93024 159.6672 
L 695.53728 159.2136 
L 697.14432 159.5664 
L 698.75136 159.6168 
L 700.3584 159.264 
L 701.96544 158.4576 
L 705.17952 158.256 
L 706.78656 158.6088 
L 710.00064 158.6592 
L 711.60768 158.9112 
L 713.21472 158.8104 
L 716.4288 159.7176 
L 718.03584 158.3568 
L 719.64288 157.752 
L 721.24992 157.3992 
L 722.85696 157.5504 
L 727.67808 157.2984 
L 729.28512 157.3488 
L 730.89216 157.0464 
L 732.4992 157.2984 
L 734.10624 157.0968 
L 735.71328 157.2984 
L 737.32032 156.744 
L 738.92736 157.752 
L 740.5344 158.9112 
L 742.14144 159.012 
L 743.74848 159.264 
L 745.35552 159.3648 
L 746.96256 159.264 
L 750.17664 160.02 
L 751.78368 159.3648 
L 753.39072 159.4656 
L 754.99776 159.8184 
L 756.6048 159.1128 
L 758.21184 159.0624 
L 761.42592 159.9696 
L 766.24704 160.524 
L 767.85408 161.1792 
L 771.06816 161.532 
L 772.6752 161.2296 
L 774.28224 161.6832 
L 775.88928 161.9352 
L 777.49632 161.784 
L 779.10336 160.9272 
L 782.31744 161.28 
L 783.92448 161.7336 
L 785.53152 161.2296 
L 787.13856 161.9352 
L 790.35264 162.1368 
L 791.95968 161.4312 
L 793.56672 162.0864 
L 795.17376 162.036 
L 799.99488 162.3888 
L 801.60192 162.792 
L 803.20896 162.8424 
L 804.816 162.036 
L 806.42304 161.7336 
L 809.63712 161.4816 
L 812.8512 161.5824 
L 814.45824 162.1872 
L 816.06528 162.4896 
L 817.67232 163.6992 
L 819.27936 163.8504 
L 820.8864 163.4976 
L 822.49344 164.1528 
L 824.10048 164.1024 
L 825.70752 164.4048 
L 828.9216 165.8664 
L 832.13568 166.2192 
L 833.74272 165.6144 
L 836.9568 166.1184 
L 838.56384 165.816 
L 840.17088 165.312 
L 843.38496 162.792 
L 846.59904 162.4896 
L 849.81312 162.288 
L 851.42016 163.0944 
L 853.0272 163.3464 
L 854.63424 163.7496 
L 856.24128 163.5984 
L 857.84832 163.8 
L 861.0624 164.808 
L 864.27648 164.4048 
L 865.88352 163.8 
L 867.49056 164.052 
L 869.0976 163.6992 
L 870.70464 163.5984 
L 872.31168 163.0944 
L 873.91872 163.3464 
L 875.52576 162.792 
L 877.1328 162.6912 
L 878.73984 163.1952 
L 880.34688 163.3968 
L 881.95392 162.4392 
L 883.56096 162.1368 
L 885.168 162.6912 
L 888.38208 161.7336 
L 889.98912 161.6328 
L 893.2032 160.6752 
L 894.81024 160.8264 
L 896.41728 160.6248 
L 898.02432 160.2216 
L 899.63136 160.1208 
L 901.2384 160.1712 
L 902.84544 158.5584 
L 906.05952 157.9536 
L 907.66656 157.9536 
L 909.2736 157.3992 
L 910.88064 157.9536 
L 914.09472 158.1552 
L 917.3088 158.508 
L 918.91584 158.76 
L 920.52288 158.6088 
L 922.12992 159.012 
L 923.73696 159.264 
L 925.344 160.0704 
L 926.95104 160.2216 
L 928.55808 161.3304 
L 931.77216 162.6912 
L 933.3792 162.4896 
L 934.98624 162.8424 
L 936.59328 164.304 
L 938.20032 163.548 
L 939.80736 163.2456 
L 943.02144 163.548 
L 946.23552 163.6488 
L 947.84256 163.9512 
L 949.4496 163.6992 
L 951.05664 164.1528 
L 952.66368 164.0016 
L 954.27072 164.052 
L 955.87776 163.8504 
L 959.09184 163.9512 
L 960.69888 163.4472 
L 962.30592 162.54 
L 963.91296 161.8344 
L 963.91296 161.8344 
" style="fill:none;stroke:#0000ff;stroke-linecap:square;"/>
   </g>
   <g id="line2d_2">
    <path clip-path="url(#p4f7c174464)" d="M 162 146.2608 
L 163.60704 227.4552 
L 165.21408 315 
L 168.42816 344.8368 
L 170.0352 354.7152 
L 171.64224 366.912 
L 173.24928 375.984 
L 174.85632 382.9896 
L 176.46336 369.2808 
L 178.0704 375.1776 
L 179.67744 377.6976 
L 181.28448 362.9304 
L 182.89152 373.0104 
L 184.49856 387.3744 
L 186.1056 378 
L 187.71264 382.3344 
L 189.31968 381.4776 
L 190.92672 379.8144 
L 194.1408 388.584 
L 195.74784 392.2128 
L 197.35488 377.8992 
L 198.96192 370.3392 
L 200.56896 386.1144 
L 202.176 392.3136 
L 203.78304 379.8648 
L 205.39008 377.244 
L 206.99712 376.4376 
L 208.60416 384.9552 
L 210.2112 391.2552 
L 211.81824 394.9848 
L 213.42528 385.0056 
L 215.03232 386.2152 
L 216.63936 397.404 
L 218.2464 400.0248 
L 219.85344 400.5792 
L 221.46048 397.3536 
L 223.06752 400.2264 
L 226.2816 398.2104 
L 227.88864 403.3008 
L 229.49568 406.5768 
L 231.10272 402.444 
L 232.70976 402.444 
L 234.3168 404.3088 
L 235.92384 398.1096 
L 237.53088 394.5312 
L 239.13792 393.0696 
L 242.352 400.7304 
L 245.56608 396.1944 
L 248.78016 407.0304 
L 250.3872 407.5344 
L 251.99424 407.232 
L 253.60128 403.9056 
L 255.20832 405.8712 
L 256.81536 396.5976 
L 258.4224 395.3376 
L 260.02944 397.656 
L 261.63648 399.672 
L 263.24352 403.956 
L 264.85056 407.0304 
L 266.4576 407.484 
L 268.06464 405.3672 
L 269.67168 393.2712 
L 271.27872 395.388 
L 274.4928 399.9744 
L 276.09984 395.0352 
L 277.70688 400.9824 
L 279.31392 406.0224 
L 280.92096 394.0776 
L 282.528 389.6928 
L 284.13504 393.4728 
L 285.74208 401.688 
L 287.34912 399.0672 
L 288.95616 400.5288 
L 290.5632 391.86 
L 292.17024 390.6 
L 293.77728 391.6584 
L 295.38432 401.94 
L 296.99136 403.956 
L 298.5984 406.2744 
L 300.20544 408.9456 
L 301.81248 410.2056 
L 303.41952 410.6088 
L 309.84768 410.8104 
L 311.45472 405.0144 
L 313.06176 402.948 
L 314.6688 407.484 
L 316.27584 410.9616 
L 317.88288 409.9032 
L 319.48992 406.5768 
L 321.09696 400.68 
L 322.704 404.46 
L 324.31104 408.7944 
L 325.91808 410.4576 
L 327.52512 410.2056 
L 329.13216 409.1472 
L 330.7392 406.6776 
L 333.95328 410.4072 
L 335.56032 411.1632 
L 337.16736 411.012 
L 341.98848 411.3648 
L 348.41664 411.3648 
L 350.02368 408.9456 
L 353.23776 411.3144 
L 354.8448 411.1632 
L 356.45184 411.1632 
L 359.66592 411.4656 
L 382.16448 411.516 
L 383.77152 393.3216 
L 386.9856 409.3992 
L 388.59264 409.8528 
L 390.19968 409.5504 
L 391.80672 411.1128 
L 393.41376 411.4152 
L 395.0208 405.6696 
L 396.62784 394.38 
L 398.23488 402.0912 
L 399.84192 395.0856 
L 401.44896 400.2264 
L 403.056 406.98 
L 404.66304 409.0464 
L 406.27008 405.72 
L 407.87712 399.0672 
L 411.0912 410.3064 
L 412.69824 412.02 
L 414.30528 411.5664 
L 419.1264 412.5744 
L 422.34048 412.6752 
L 423.94752 399.3192 
L 425.55456 403.8552 
L 427.1616 410.3064 
L 428.76864 411.8688 
L 430.37568 407.232 
L 431.98272 392.7168 
L 433.58976 401.184 
L 435.1968 401.94 
L 436.80384 401.4864 
L 438.41088 405.72 
L 440.01792 406.3248 
L 441.62496 406.728 
L 443.232 409.752 
L 444.83904 409.2984 
L 448.05312 412.6248 
L 449.66016 412.6248 
L 451.2672 411.9192 
L 452.87424 403.1496 
L 454.48128 399.3696 
L 456.08832 404.8128 
L 457.69536 408.3408 
L 459.3024 410.2056 
L 460.90944 410.6592 
L 462.51648 411.5664 
L 464.12352 412.1712 
L 465.73056 412.4232 
L 473.76576 412.5744 
L 486.62208 412.5744 
L 488.22912 405.7704 
L 489.83616 408.1392 
L 491.4432 411.3144 
L 493.05024 409.3488 
L 494.65728 406.9296 
L 496.26432 408.8952 
L 497.87136 411.0624 
L 499.4784 411.5664 
L 501.08544 411.3648 
L 502.69248 411.768 
L 504.29952 412.02 
L 507.5136 411.9696 
L 512.33472 412.02 
L 520.36992 412.02 
L 521.97696 399.4704 
L 523.584 396.9504 
L 525.19104 405.5184 
L 526.79808 411.6168 
L 528.40512 409.9032 
L 530.01216 410.6088 
L 531.6192 412.02 
L 533.22624 412.4736 
L 534.83328 412.776 
L 660.1824 412.8768 
L 661.78944 410.3064 
L 665.00352 412.776 
L 666.61056 412.2216 
L 668.2176 411.9192 
L 669.82464 411.1632 
L 671.43168 407.2824 
L 673.03872 402.696 
L 676.2528 409.8024 
L 677.85984 411.7176 
L 679.46688 411.4152 
L 681.07392 411.4656 
L 682.68096 412.02 
L 685.89504 412.3728 
L 963.91296 412.4232 
L 963.91296 412.4232 
" style="fill:none;stroke:#008000;stroke-linecap:square;"/>
   </g>
   <g id="line2d_3">
    <path clip-path="url(#p4f7c174464)" d="M 162 125.0424 
L 163.60704 252.2016 
L 165.21408 330.0696 
L 166.82112 361.6704 
L 168.42816 353.1528 
L 170.0352 341.0064 
L 171.64224 354.9168 
L 173.24928 379.9656 
L 176.46336 374.1192 
L 178.0704 376.9416 
L 179.67744 364.644 
L 181.28448 370.44 
L 182.89152 373.6656 
L 184.49856 383.7456 
L 186.1056 385.812 
L 187.71264 396.5472 
L 189.31968 384.4512 
L 190.92672 389.34 
L 192.53376 387.0216 
L 194.1408 388.1304 
L 195.74784 392.9688 
L 197.35488 382.3848 
L 198.96192 386.0136 
L 200.56896 390.4992 
L 202.176 401.0832 
L 203.78304 395.8416 
L 205.39008 397.5552 
L 206.99712 402.7464 
L 208.60416 386.7696 
L 210.2112 397.8576 
L 211.81824 405.5184 
L 213.42528 406.0728 
L 215.03232 408.0888 
L 216.63936 401.4864 
L 218.2464 398.5632 
L 219.85344 401.3352 
L 221.46048 396.2952 
L 223.06752 387.6264 
L 224.67456 399.3696 
L 226.2816 404.5608 
L 227.88864 399.8736 
L 229.49568 398.5128 
L 231.10272 398.3616 
L 232.70976 406.5264 
L 234.3168 409.4496 
L 235.92384 401.8896 
L 237.53088 396.144 
L 239.13792 395.136 
L 240.74496 393.12 
L 242.352 396.5472 
L 243.95904 400.5792 
L 245.56608 396.4464 
L 247.17312 405.6192 
L 248.78016 405.5184 
L 250.3872 393.2208 
L 251.99424 400.0248 
L 253.60128 408.6936 
L 255.20832 410.8608 
L 256.81536 411.6168 
L 258.4224 402.1416 
L 260.02944 404.712 
L 261.63648 405.9216 
L 263.24352 407.736 
L 264.85056 406.4256 
L 266.4576 409.1472 
L 268.06464 410.8104 
L 269.67168 411.9696 
L 271.27872 411.0624 
L 272.88576 405.468 
L 274.4928 409.3488 
L 276.09984 412.4232 
L 277.70688 411.8688 
L 279.31392 412.272 
L 282.528 412.3728 
L 284.13504 410.0544 
L 285.74208 411.4656 
L 287.34912 405.72 
L 288.95616 405.72 
L 290.5632 401.184 
L 292.17024 407.232 
L 293.77728 407.484 
L 295.38432 409.5504 
L 296.99136 412.8768 
L 298.5984 412.8264 
L 300.20544 413.1288 
L 301.81248 396.9504 
L 303.41952 405.5184 
L 305.02656 413.3808 
L 306.6336 412.8264 
L 308.24064 413.4816 
L 309.84768 408.6432 
L 313.06176 413.4816 
L 314.6688 397.4544 
L 316.27584 404.1072 
L 317.88288 412.3224 
L 319.48992 408.8448 
L 321.09696 406.6776 
L 322.704 410.76 
L 324.31104 412.776 
L 325.91808 412.776 
L 327.52512 413.28 
L 332.34624 413.3808 
L 333.95328 410.9112 
L 335.56032 412.2216 
L 337.16736 395.9424 
L 338.7744 403.3008 
L 340.38144 411.8184 
L 341.98848 411.6672 
L 343.59552 411.3144 
L 345.20256 409.248 
L 346.8096 411.7176 
L 348.41664 413.4816 
L 350.02368 412.9776 
L 351.63072 413.0784 
L 353.23776 410.0544 
L 354.8448 411.4656 
L 356.45184 410.8608 
L 358.05888 411.4152 
L 359.66592 412.524 
L 361.27296 397.404 
L 362.88 403.9056 
L 364.48704 411.9192 
L 367.70112 413.028 
L 369.30816 401.5368 
L 370.9152 405.6192 
L 372.52224 412.4232 
L 374.12928 412.5744 
L 375.73632 412.9776 
L 377.34336 412.8264 
L 382.16448 413.0784 
L 383.77152 411.9192 
L 385.37856 408.492 
L 386.9856 406.1736 
L 388.59264 410.2056 
L 390.19968 412.6752 
L 391.80672 412.3224 
L 393.41376 413.1288 
L 395.0208 413.5824 
L 401.44896 413.6832 
L 406.27008 413.7336 
L 407.87712 413.7336 
L 409.48416 411.2136 
L 411.0912 398.5632 
L 412.69824 396.5472 
L 414.30528 398.8656 
L 415.91232 399.8232 
L 417.51936 408.1392 
L 419.1264 413.0784 
L 420.73344 412.776 
L 422.34048 413.8848 
L 423.94752 414.1872 
L 425.55456 414.3384 
L 440.01792 414.3888 
L 441.62496 412.7256 
L 443.232 390.4488 
L 444.83904 398.5632 
L 446.44608 410.3568 
L 448.05312 412.6752 
L 449.66016 413.028 
L 451.2672 414.3384 
L 462.51648 414.5904 
L 470.55168 414.5904 
L 472.15872 409.8024 
L 473.76576 412.3728 
L 475.3728 414.5904 
L 478.58688 414.5904 
L 480.19392 412.2216 
L 481.80096 413.532 
L 483.408 414.6408 
L 485.01504 414.54 
L 486.62208 414.288 
L 488.22912 406.3752 
L 489.83616 402.444 
L 491.4432 409.2984 
L 493.05024 414.288 
L 494.65728 413.3304 
L 496.26432 414.5904 
L 502.69248 414.8928 
L 505.90656 414.8928 
L 507.5136 410.8104 
L 509.12064 409.1472 
L 510.72768 412.776 
L 512.33472 414.54 
L 513.94176 414.2376 
L 515.5488 414.4896 
L 518.76288 414.5904 
L 523.584 414.6408 
L 701.96544 414.6912 
L 703.57248 412.272 
L 706.78656 414.792 
L 710.00064 414.7416 
L 714.82176 414.792 
L 722.85696 414.792 
L 724.464 403.0488 
L 726.07104 403.1496 
L 727.67808 411.7176 
L 729.28512 413.28 
L 730.89216 413.6832 
L 732.4992 414.9432 
L 742.14144 415.1448 
L 963.91296 415.1448 
L 963.91296 415.1448 
" style="fill:none;stroke:#ff0000;stroke-linecap:square;"/>
   </g>
   <g id="line2d_4">
    <path clip-path="url(#p4f7c174464)" d="M 162 140.0112 
L 163.60704 258.6024 
L 165.21408 330.9768 
L 166.82112 353.7576 
L 168.42816 371.952 
L 170.0352 381.1248 
L 171.64224 364.5432 
L 173.24928 371.9016 
L 174.85632 380.772 
L 176.46336 370.3896 
L 178.0704 377.6976 
L 179.67744 377.2944 
L 182.89152 379.4616 
L 184.49856 376.3368 
L 186.1056 387.9288 
L 187.71264 395.4384 
L 189.31968 397.0512 
L 190.92672 399.672 
L 192.53376 389.9952 
L 194.1408 396.4968 
L 195.74784 389.6928 
L 197.35488 396.5976 
L 198.96192 386.4168 
L 200.56896 385.4088 
L 202.176 385.4088 
L 203.78304 382.9392 
L 205.39008 394.9848 
L 206.99712 398.916 
L 208.60416 396.0936 
L 210.2112 397.4544 
L 211.81824 404.3592 
L 213.42528 407.232 
L 215.03232 398.1096 
L 216.63936 402.5952 
L 218.2464 399.2688 
L 219.85344 400.7808 
L 221.46048 400.5288 
L 223.06752 405.5184 
L 224.67456 406.5264 
L 226.2816 404.964 
L 227.88864 395.5392 
L 229.49568 401.9904 
L 231.10272 407.9376 
L 232.70976 406.3752 
L 234.3168 404.5104 
L 235.92384 400.7808 
L 237.53088 394.632 
L 239.13792 402.4944 
L 240.74496 402.6456 
L 242.352 403.6536 
L 243.95904 400.7304 
L 245.56608 401.7384 
L 247.17312 393.624 
L 248.78016 398.5128 
L 250.3872 398.9664 
L 251.99424 399.0672 
L 253.60128 400.0248 
L 255.20832 404.8632 
L 256.81536 408.0384 
L 258.4224 401.8392 
L 260.02944 398.0088 
L 261.63648 404.5104 
L 263.24352 405.2664 
L 264.85056 403.6536 
L 266.4576 399.7728 
L 268.06464 387.2232 
L 269.67168 389.34 
L 271.27872 400.8312 
L 272.88576 392.3136 
L 274.4928 383.1408 
L 276.09984 397.656 
L 277.70688 406.1232 
L 279.31392 399.1176 
L 280.92096 402.5952 
L 282.528 406.4256 
L 284.13504 407.0808 
L 285.74208 407.8872 
L 292.17024 408.3408 
L 293.77728 407.232 
L 295.38432 404.4096 
L 296.99136 406.8288 
L 298.5984 408.7944 
L 300.20544 408.6432 
L 301.81248 406.728 
L 303.41952 396.0432 
L 305.02656 386.9712 
L 306.6336 399.1176 
L 308.24064 401.2344 
L 309.84768 396.4968 
L 311.45472 397.656 
L 313.06176 402.948 
L 314.6688 407.1816 
L 317.88288 408.2904 
L 319.48992 408.5424 
L 329.13216 408.744 
L 330.7392 408.744 
L 332.34624 406.9296 
L 333.95328 391.8096 
L 335.56032 396.396 
L 337.16736 406.3248 
L 338.7744 408.24 
L 340.38144 408.2904 
L 341.98848 408.5424 
L 343.59552 404.0568 
L 345.20256 404.712 
L 346.8096 407.6856 
L 348.41664 408.5928 
L 351.63072 408.744 
L 353.23776 403.5528 
L 354.8448 401.6376 
L 356.45184 406.4256 
L 358.05888 408.3912 
L 359.66592 404.712 
L 361.27296 395.3376 
L 362.88 396.7992 
L 364.48704 406.1736 
L 366.09408 407.8368 
L 367.70112 407.5344 
L 369.30816 408.0384 
L 370.9152 409.248 
L 372.52224 409.4496 
L 377.34336 409.5 
L 386.9856 409.5504 
L 388.59264 404.0064 
L 390.19968 402.9984 
L 391.80672 407.8368 
L 393.41376 408.5928 
L 395.0208 393.7248 
L 398.23488 408.8448 
L 399.84192 407.7864 
L 401.44896 408.6936 
L 403.056 409.3488 
L 404.66304 391.6584 
L 406.27008 398.0088 
L 407.87712 407.988 
L 409.48416 407.3328 
L 411.0912 394.6824 
L 412.69824 401.4864 
L 414.30528 409.0464 
L 415.91232 408.7944 
L 417.51936 409.3992 
L 419.1264 409.6008 
L 423.94752 409.7016 
L 427.1616 409.8024 
L 428.76864 396.7488 
L 430.37568 395.9424 
L 431.98272 405.468 
L 433.58976 407.0808 
L 435.1968 407.9376 
L 436.80384 408.0888 
L 438.41088 408.5928 
L 440.01792 408.8952 
L 441.62496 408.744 
L 446.44608 408.996 
L 448.05312 407.2824 
L 449.66016 406.98 
L 451.2672 408.3408 
L 452.87424 409.0464 
L 456.08832 409.0464 
L 460.90944 409.0464 
L 462.51648 398.664 
L 464.12352 404.6112 
L 465.73056 409.248 
L 467.3376 408.7944 
L 468.94464 409.1472 
L 473.76576 409.248 
L 475.3728 406.8792 
L 476.97984 398.3616 
L 478.58688 376.6392 
L 480.19392 395.6904 
L 481.80096 409.0968 
L 483.408 407.5344 
L 485.01504 408.6432 
L 486.62208 408.996 
L 496.26432 409.1976 
L 499.4784 409.1976 
L 501.08544 401.3352 
L 502.69248 403.5024 
L 504.29952 408.0888 
L 505.90656 408.3912 
L 507.5136 408.9456 
L 510.72768 409.0968 
L 639.29088 409.1472 
L 640.89792 408.3408 
L 642.50496 407.736 
L 644.112 406.9296 
L 645.71904 404.0064 
L 647.32608 406.2744 
L 648.93312 408.1896 
L 650.54016 408.744 
L 656.96832 409.4496 
L 658.57536 400.9824 
L 660.1824 399.2184 
L 661.78944 406.98 
L 663.39648 409.1472 
L 665.00352 409.7016 
L 666.61056 410.1048 
L 668.2176 410.2056 
L 669.82464 398.0088 
L 671.43168 396.396 
L 673.03872 406.4256 
L 674.64576 409.752 
L 676.2528 410.256 
L 677.85984 411.1128 
L 682.68096 411.516 
L 793.56672 411.5664 
L 795.17376 409.0464 
L 796.7808 409.9536 
L 798.38784 411.264 
L 799.99488 411.012 
L 963.91296 411.0624 
L 963.91296 411.0624 
" style="fill:none;stroke:#00bfbf;stroke-linecap:square;"/>
   </g>
   <g id="patch_3">
    <path d="M 162 50.4 
L 965.52 50.4 
" style="fill:none;stroke:#000000;stroke-linecap:square;stroke-linejoin:miter;"/>
   </g>
   <g id="patch_4">
    <path d="M 965.52 453.6 
L 965.52 50.4 
" style="fill:none;stroke:#000000;stroke-linecap:square;stroke-linejoin:miter;"/>
   </g>
   <g id="patch_5">
    <path d="M 162 453.6 
L 965.52 453.6 
" style="fill:none;stroke:#000000;stroke-linecap:square;stroke-linejoin:miter;"/>
   </g>
   <g id="patch_6">
    <path d="M 162 453.6 
L 162 50.4 
" style="fill:none;stroke:#000000;stroke-linecap:square;stroke-linejoin:miter;"/>
   </g>
   <g id="matplotlib.axis_1">
    <g id="xtick_1">
     <g id="line2d_5">
      <defs>
       <path d="M 0 0 
L 0 -4 
" id="mfa7f91dddc" style="stroke:#000000;stroke-width:0.5;"/>
      </defs>
      <g>
       <use style="stroke:#000000;stroke-width:0.5;" x="162.0" xlink:href="#mfa7f91dddc" y="453.6"/>
      </g>
     </g>
     <g id="line2d_6">
      <defs>
       <path d="M 0 0 
L 0 4 
" id="meeefab6e99" style="stroke:#000000;stroke-width:0.5;"/>
      </defs>
      <g>
       <use style="stroke:#000000;stroke-width:0.5;" x="162.0" xlink:href="#meeefab6e99" y="50.4"/>
      </g>
     </g>
     <g id="text_1">
      <!-- 0 -->
      <defs>
       <path d="M 31.78125 66.40625 
Q 24.171875 66.40625 20.328125 58.90625 
Q 16.5 51.421875 16.5 36.375 
Q 16.5 21.390625 20.328125 13.890625 
Q 24.171875 6.390625 31.78125 6.390625 
Q 39.453125 6.390625 43.28125 13.890625 
Q 47.125 21.390625 47.125 36.375 
Q 47.125 51.421875 43.28125 58.90625 
Q 39.453125 66.40625 31.78125 66.40625 
M 31.78125 74.21875 
Q 44.046875 74.21875 50.515625 64.515625 
Q 56.984375 54.828125 56.984375 36.375 
Q 56.984375 17.96875 50.515625 8.265625 
Q 44.046875 -1.421875 31.78125 -1.421875 
Q 19.53125 -1.421875 13.0625 8.265625 
Q 6.59375 17.96875 6.59375 36.375 
Q 6.59375 54.828125 13.0625 64.515625 
Q 19.53125 74.21875 31.78125 74.21875 
" id="BitstreamVeraSans-Roman-30"/>
      </defs>
      <g transform="translate(158.1825 466.718125)scale(0.12 -0.12)">
       <use xlink:href="#BitstreamVeraSans-Roman-30"/>
      </g>
     </g>
    </g>
    <g id="xtick_2">
     <g id="line2d_7">
      <g>
       <use style="stroke:#000000;stroke-width:0.5;" x="322.704" xlink:href="#mfa7f91dddc" y="453.6"/>
      </g>
     </g>
     <g id="line2d_8">
      <g>
       <use style="stroke:#000000;stroke-width:0.5;" x="322.704" xlink:href="#meeefab6e99" y="50.4"/>
      </g>
     </g>
     <g id="text_2">
      <!-- 100 -->
      <defs>
       <path d="M 12.40625 8.296875 
L 28.515625 8.296875 
L 28.515625 63.921875 
L 10.984375 60.40625 
L 10.984375 69.390625 
L 28.421875 72.90625 
L 38.28125 72.90625 
L 38.28125 8.296875 
L 54.390625 8.296875 
L 54.390625 0 
L 12.40625 0 
z
" id="BitstreamVeraSans-Roman-31"/>
      </defs>
      <g transform="translate(311.2515 466.718125)scale(0.12 -0.12)">
       <use xlink:href="#BitstreamVeraSans-Roman-31"/>
       <use x="63.623046875" xlink:href="#BitstreamVeraSans-Roman-30"/>
       <use x="127.24609375" xlink:href="#BitstreamVeraSans-Roman-30"/>
      </g>
     </g>
    </g>
    <g id="xtick_3">
     <g id="line2d_9">
      <g>
       <use style="stroke:#000000;stroke-width:0.5;" x="483.408" xlink:href="#mfa7f91dddc" y="453.6"/>
      </g>
     </g>
     <g id="line2d_10">
      <g>
       <use style="stroke:#000000;stroke-width:0.5;" x="483.408" xlink:href="#meeefab6e99" y="50.4"/>
      </g>
     </g>
     <g id="text_3">
      <!-- 200 -->
      <defs>
       <path d="M 19.1875 8.296875 
L 53.609375 8.296875 
L 53.609375 0 
L 7.328125 0 
L 7.328125 8.296875 
Q 12.9375 14.109375 22.625 23.890625 
Q 32.328125 33.6875 34.8125 36.53125 
Q 39.546875 41.84375 41.421875 45.53125 
Q 43.3125 49.21875 43.3125 52.78125 
Q 43.3125 58.59375 39.234375 62.25 
Q 35.15625 65.921875 28.609375 65.921875 
Q 23.96875 65.921875 18.8125 64.3125 
Q 13.671875 62.703125 7.8125 59.421875 
L 7.8125 69.390625 
Q 13.765625 71.78125 18.9375 73 
Q 24.125 74.21875 28.421875 74.21875 
Q 39.75 74.21875 46.484375 68.546875 
Q 53.21875 62.890625 53.21875 53.421875 
Q 53.21875 48.921875 51.53125 44.890625 
Q 49.859375 40.875 45.40625 35.40625 
Q 44.1875 33.984375 37.640625 27.21875 
Q 31.109375 20.453125 19.1875 8.296875 
" id="BitstreamVeraSans-Roman-32"/>
      </defs>
      <g transform="translate(471.9555 466.718125)scale(0.12 -0.12)">
       <use xlink:href="#BitstreamVeraSans-Roman-32"/>
       <use x="63.623046875" xlink:href="#BitstreamVeraSans-Roman-30"/>
       <use x="127.24609375" xlink:href="#BitstreamVeraSans-Roman-30"/>
      </g>
     </g>
    </g>
    <g id="xtick_4">
     <g id="line2d_11">
      <g>
       <use style="stroke:#000000;stroke-width:0.5;" x="644.112" xlink:href="#mfa7f91dddc" y="453.6"/>
      </g>
     </g>
     <g id="line2d_12">
      <g>
       <use style="stroke:#000000;stroke-width:0.5;" x="644.112" xlink:href="#meeefab6e99" y="50.4"/>
      </g>
     </g>
     <g id="text_4">
      <!-- 300 -->
      <defs>
       <path d="M 40.578125 39.3125 
Q 47.65625 37.796875 51.625 33 
Q 55.609375 28.21875 55.609375 21.1875 
Q 55.609375 10.40625 48.1875 4.484375 
Q 40.765625 -1.421875 27.09375 -1.421875 
Q 22.515625 -1.421875 17.65625 -0.515625 
Q 12.796875 0.390625 7.625 2.203125 
L 7.625 11.71875 
Q 11.71875 9.328125 16.59375 8.109375 
Q 21.484375 6.890625 26.8125 6.890625 
Q 36.078125 6.890625 40.9375 10.546875 
Q 45.796875 14.203125 45.796875 21.1875 
Q 45.796875 27.640625 41.28125 31.265625 
Q 36.765625 34.90625 28.71875 34.90625 
L 20.21875 34.90625 
L 20.21875 43.015625 
L 29.109375 43.015625 
Q 36.375 43.015625 40.234375 45.921875 
Q 44.09375 48.828125 44.09375 54.296875 
Q 44.09375 59.90625 40.109375 62.90625 
Q 36.140625 65.921875 28.71875 65.921875 
Q 24.65625 65.921875 20.015625 65.03125 
Q 15.375 64.15625 9.8125 62.3125 
L 9.8125 71.09375 
Q 15.4375 72.65625 20.34375 73.4375 
Q 25.25 74.21875 29.59375 74.21875 
Q 40.828125 74.21875 47.359375 69.109375 
Q 53.90625 64.015625 53.90625 55.328125 
Q 53.90625 49.265625 50.4375 45.09375 
Q 46.96875 40.921875 40.578125 39.3125 
" id="BitstreamVeraSans-Roman-33"/>
      </defs>
      <g transform="translate(632.6595 466.718125)scale(0.12 -0.12)">
       <use xlink:href="#BitstreamVeraSans-Roman-33"/>
       <use x="63.623046875" xlink:href="#BitstreamVeraSans-Roman-30"/>
       <use x="127.24609375" xlink:href="#BitstreamVeraSans-Roman-30"/>
      </g>
     </g>
    </g>
    <g id="xtick_5">
     <g id="line2d_13">
      <g>
       <use style="stroke:#000000;stroke-width:0.5;" x="804.816" xlink:href="#mfa7f91dddc" y="453.6"/>
      </g>
     </g>
     <g id="line2d_14">
      <g>
       <use style="stroke:#000000;stroke-width:0.5;" x="804.816" xlink:href="#meeefab6e99" y="50.4"/>
      </g>
     </g>
     <g id="text_5">
      <!-- 400 -->
      <defs>
       <path d="M 37.796875 64.3125 
L 12.890625 25.390625 
L 37.796875 25.390625 
z
M 35.203125 72.90625 
L 47.609375 72.90625 
L 47.609375 25.390625 
L 58.015625 25.390625 
L 58.015625 17.1875 
L 47.609375 17.1875 
L 47.609375 0 
L 37.796875 0 
L 37.796875 17.1875 
L 4.890625 17.1875 
L 4.890625 26.703125 
z
" id="BitstreamVeraSans-Roman-34"/>
      </defs>
      <g transform="translate(793.3635 466.718125)scale(0.12 -0.12)">
       <use xlink:href="#BitstreamVeraSans-Roman-34"/>
       <use x="63.623046875" xlink:href="#BitstreamVeraSans-Roman-30"/>
       <use x="127.24609375" xlink:href="#BitstreamVeraSans-Roman-30"/>
      </g>
     </g>
    </g>
    <g id="xtick_6">
     <g id="line2d_15">
      <g>
       <use style="stroke:#000000;stroke-width:0.5;" x="965.52" xlink:href="#mfa7f91dddc" y="453.6"/>
      </g>
     </g>
     <g id="line2d_16">
      <g>
       <use style="stroke:#000000;stroke-width:0.5;" x="965.52" xlink:href="#meeefab6e99" y="50.4"/>
      </g>
     </g>
     <g id="text_6">
      <!-- 500 -->
      <defs>
       <path d="M 10.796875 72.90625 
L 49.515625 72.90625 
L 49.515625 64.59375 
L 19.828125 64.59375 
L 19.828125 46.734375 
Q 21.96875 47.46875 24.109375 47.828125 
Q 26.265625 48.1875 28.421875 48.1875 
Q 40.625 48.1875 47.75 41.5 
Q 54.890625 34.8125 54.890625 23.390625 
Q 54.890625 11.625 47.5625 5.09375 
Q 40.234375 -1.421875 26.90625 -1.421875 
Q 22.3125 -1.421875 17.546875 -0.640625 
Q 12.796875 0.140625 7.71875 1.703125 
L 7.71875 11.625 
Q 12.109375 9.234375 16.796875 8.0625 
Q 21.484375 6.890625 26.703125 6.890625 
Q 35.15625 6.890625 40.078125 11.328125 
Q 45.015625 15.765625 45.015625 23.390625 
Q 45.015625 31 40.078125 35.4375 
Q 35.15625 39.890625 26.703125 39.890625 
Q 22.75 39.890625 18.8125 39.015625 
Q 14.890625 38.140625 10.796875 36.28125 
z
" id="BitstreamVeraSans-Roman-35"/>
      </defs>
      <g transform="translate(954.0675 466.718125)scale(0.12 -0.12)">
       <use xlink:href="#BitstreamVeraSans-Roman-35"/>
       <use x="63.623046875" xlink:href="#BitstreamVeraSans-Roman-30"/>
       <use x="127.24609375" xlink:href="#BitstreamVeraSans-Roman-30"/>
      </g>
     </g>
    </g>
    <g id="text_7">
     <!-- Time -->
     <defs>
      <path d="M 56.203125 29.59375 
L 56.203125 25.203125 
L 14.890625 25.203125 
Q 15.484375 15.921875 20.484375 11.0625 
Q 25.484375 6.203125 34.421875 6.203125 
Q 39.59375 6.203125 44.453125 7.46875 
Q 49.3125 8.734375 54.109375 11.28125 
L 54.109375 2.78125 
Q 49.265625 0.734375 44.1875 -0.34375 
Q 39.109375 -1.421875 33.890625 -1.421875 
Q 20.796875 -1.421875 13.15625 6.1875 
Q 5.515625 13.8125 5.515625 26.8125 
Q 5.515625 40.234375 12.765625 48.109375 
Q 20.015625 56 32.328125 56 
Q 43.359375 56 49.78125 48.890625 
Q 56.203125 41.796875 56.203125 29.59375 
M 47.21875 32.234375 
Q 47.125 39.59375 43.09375 43.984375 
Q 39.0625 48.390625 32.421875 48.390625 
Q 24.90625 48.390625 20.390625 44.140625 
Q 15.875 39.890625 15.1875 32.171875 
z
" id="BitstreamVeraSans-Roman-65"/>
      <path d="M 9.421875 54.6875 
L 18.40625 54.6875 
L 18.40625 0 
L 9.421875 0 
z
M 9.421875 75.984375 
L 18.40625 75.984375 
L 18.40625 64.59375 
L 9.421875 64.59375 
z
" id="BitstreamVeraSans-Roman-69"/>
      <path d="M -0.296875 72.90625 
L 61.375 72.90625 
L 61.375 64.59375 
L 35.5 64.59375 
L 35.5 0 
L 25.59375 0 
L 25.59375 64.59375 
L -0.296875 64.59375 
z
" id="BitstreamVeraSans-Roman-54"/>
      <path d="M 52 44.1875 
Q 55.375 50.25 60.0625 53.125 
Q 64.75 56 71.09375 56 
Q 79.640625 56 84.28125 50.015625 
Q 88.921875 44.046875 88.921875 33.015625 
L 88.921875 0 
L 79.890625 0 
L 79.890625 32.71875 
Q 79.890625 40.578125 77.09375 44.375 
Q 74.3125 48.1875 68.609375 48.1875 
Q 61.625 48.1875 57.5625 43.546875 
Q 53.515625 38.921875 53.515625 30.90625 
L 53.515625 0 
L 44.484375 0 
L 44.484375 32.71875 
Q 44.484375 40.625 41.703125 44.40625 
Q 38.921875 48.1875 33.109375 48.1875 
Q 26.21875 48.1875 22.15625 43.53125 
Q 18.109375 38.875 18.109375 30.90625 
L 18.109375 0 
L 9.078125 0 
L 9.078125 54.6875 
L 18.109375 54.6875 
L 18.109375 46.1875 
Q 21.1875 51.21875 25.484375 53.609375 
Q 29.78125 56 35.6875 56 
Q 41.65625 56 45.828125 52.96875 
Q 50 49.953125 52 44.1875 
" id="BitstreamVeraSans-Roman-6d"/>
     </defs>
     <g transform="translate(548.895 483.331875)scale(0.12 -0.12)">
      <use xlink:href="#BitstreamVeraSans-Roman-54"/>
      <use x="61.037109375" xlink:href="#BitstreamVeraSans-Roman-69"/>
      <use x="88.8203125" xlink:href="#BitstreamVeraSans-Roman-6d"/>
      <use x="186.232421875" xlink:href="#BitstreamVeraSans-Roman-65"/>
     </g>
    </g>
   </g>
   <g id="matplotlib.axis_2">
    <g id="ytick_1">
     <g id="line2d_17">
      <defs>
       <path d="M 0 0 
L 4 0 
" id="mfc066bb6d2" style="stroke:#000000;stroke-width:0.5;"/>
      </defs>
      <g>
       <use style="stroke:#000000;stroke-width:0.5;" x="162.0" xlink:href="#mfc066bb6d2" y="453.6"/>
      </g>
     </g>
     <g id="line2d_18">
      <defs>
       <path d="M 0 0 
L -4 0 
" id="m684f88b97c" style="stroke:#000000;stroke-width:0.5;"/>
      </defs>
      <g>
       <use style="stroke:#000000;stroke-width:0.5;" x="965.52" xlink:href="#m684f88b97c" y="453.6"/>
      </g>
     </g>
     <g id="text_8">
      <!-- 0 -->
      <g transform="translate(150.365 456.91125)scale(0.12 -0.12)">
       <use xlink:href="#BitstreamVeraSans-Roman-30"/>
      </g>
     </g>
    </g>
    <g id="ytick_2">
     <g id="line2d_19">
      <g>
       <use style="stroke:#000000;stroke-width:0.5;" x="162.0" xlink:href="#mfc066bb6d2" y="403.2"/>
      </g>
     </g>
     <g id="line2d_20">
      <g>
       <use style="stroke:#000000;stroke-width:0.5;" x="965.52" xlink:href="#m684f88b97c" y="403.2"/>
      </g>
     </g>
     <g id="text_9">
      <!-- 1 -->
      <g transform="translate(150.365 406.51125)scale(0.12 -0.12)">
       <use xlink:href="#BitstreamVeraSans-Roman-31"/>
      </g>
     </g>
    </g>
    <g id="ytick_3">
     <g id="line2d_21">
      <g>
       <use style="stroke:#000000;stroke-width:0.5;" x="162.0" xlink:href="#mfc066bb6d2" y="352.8"/>
      </g>
     </g>
     <g id="line2d_22">
      <g>
       <use style="stroke:#000000;stroke-width:0.5;" x="965.52" xlink:href="#m684f88b97c" y="352.8"/>
      </g>
     </g>
     <g id="text_10">
      <!-- 2 -->
      <g transform="translate(150.365 356.11125)scale(0.12 -0.12)">
       <use xlink:href="#BitstreamVeraSans-Roman-32"/>
      </g>
     </g>
    </g>
    <g id="ytick_4">
     <g id="line2d_23">
      <g>
       <use style="stroke:#000000;stroke-width:0.5;" x="162.0" xlink:href="#mfc066bb6d2" y="302.4"/>
      </g>
     </g>
     <g id="line2d_24">
      <g>
       <use style="stroke:#000000;stroke-width:0.5;" x="965.52" xlink:href="#m684f88b97c" y="302.4"/>
      </g>
     </g>
     <g id="text_11">
      <!-- 3 -->
      <g transform="translate(150.365 305.71125)scale(0.12 -0.12)">
       <use xlink:href="#BitstreamVeraSans-Roman-33"/>
      </g>
     </g>
    </g>
    <g id="ytick_5">
     <g id="line2d_25">
      <g>
       <use style="stroke:#000000;stroke-width:0.5;" x="162.0" xlink:href="#mfc066bb6d2" y="252.0"/>
      </g>
     </g>
     <g id="line2d_26">
      <g>
       <use style="stroke:#000000;stroke-width:0.5;" x="965.52" xlink:href="#m684f88b97c" y="252.0"/>
      </g>
     </g>
     <g id="text_12">
      <!-- 4 -->
      <g transform="translate(150.365 255.31125)scale(0.12 -0.12)">
       <use xlink:href="#BitstreamVeraSans-Roman-34"/>
      </g>
     </g>
    </g>
    <g id="ytick_6">
     <g id="line2d_27">
      <g>
       <use style="stroke:#000000;stroke-width:0.5;" x="162.0" xlink:href="#mfc066bb6d2" y="201.6"/>
      </g>
     </g>
     <g id="line2d_28">
      <g>
       <use style="stroke:#000000;stroke-width:0.5;" x="965.52" xlink:href="#m684f88b97c" y="201.6"/>
      </g>
     </g>
     <g id="text_13">
      <!-- 5 -->
      <g transform="translate(150.365 204.91125)scale(0.12 -0.12)">
       <use xlink:href="#BitstreamVeraSans-Roman-35"/>
      </g>
     </g>
    </g>
    <g id="ytick_7">
     <g id="line2d_29">
      <g>
       <use style="stroke:#000000;stroke-width:0.5;" x="162.0" xlink:href="#mfc066bb6d2" y="151.2"/>
      </g>
     </g>
     <g id="line2d_30">
      <g>
       <use style="stroke:#000000;stroke-width:0.5;" x="965.52" xlink:href="#m684f88b97c" y="151.2"/>
      </g>
     </g>
     <g id="text_14">
      <!-- 6 -->
      <defs>
       <path d="M 33.015625 40.375 
Q 26.375 40.375 22.484375 35.828125 
Q 18.609375 31.296875 18.609375 23.390625 
Q 18.609375 15.53125 22.484375 10.953125 
Q 26.375 6.390625 33.015625 6.390625 
Q 39.65625 6.390625 43.53125 10.953125 
Q 47.40625 15.53125 47.40625 23.390625 
Q 47.40625 31.296875 43.53125 35.828125 
Q 39.65625 40.375 33.015625 40.375 
M 52.59375 71.296875 
L 52.59375 62.3125 
Q 48.875 64.0625 45.09375 64.984375 
Q 41.3125 65.921875 37.59375 65.921875 
Q 27.828125 65.921875 22.671875 59.328125 
Q 17.53125 52.734375 16.796875 39.40625 
Q 19.671875 43.65625 24.015625 45.921875 
Q 28.375 48.1875 33.59375 48.1875 
Q 44.578125 48.1875 50.953125 41.515625 
Q 57.328125 34.859375 57.328125 23.390625 
Q 57.328125 12.15625 50.6875 5.359375 
Q 44.046875 -1.421875 33.015625 -1.421875 
Q 20.359375 -1.421875 13.671875 8.265625 
Q 6.984375 17.96875 6.984375 36.375 
Q 6.984375 53.65625 15.1875 63.9375 
Q 23.390625 74.21875 37.203125 74.21875 
Q 40.921875 74.21875 44.703125 73.484375 
Q 48.484375 72.75 52.59375 71.296875 
" id="BitstreamVeraSans-Roman-36"/>
      </defs>
      <g transform="translate(150.365 154.51125)scale(0.12 -0.12)">
       <use xlink:href="#BitstreamVeraSans-Roman-36"/>
      </g>
     </g>
    </g>
    <g id="ytick_8">
     <g id="line2d_31">
      <g>
       <use style="stroke:#000000;stroke-width:0.5;" x="162.0" xlink:href="#mfc066bb6d2" y="100.8"/>
      </g>
     </g>
     <g id="line2d_32">
      <g>
       <use style="stroke:#000000;stroke-width:0.5;" x="965.52" xlink:href="#m684f88b97c" y="100.8"/>
      </g>
     </g>
     <g id="text_15">
      <!-- 7 -->
      <defs>
       <path d="M 8.203125 72.90625 
L 55.078125 72.90625 
L 55.078125 68.703125 
L 28.609375 0 
L 18.3125 0 
L 43.21875 64.59375 
L 8.203125 64.59375 
z
" id="BitstreamVeraSans-Roman-37"/>
      </defs>
      <g transform="translate(150.365 104.11125)scale(0.12 -0.12)">
       <use xlink:href="#BitstreamVeraSans-Roman-37"/>
      </g>
     </g>
    </g>
    <g id="ytick_9">
     <g id="line2d_33">
      <g>
       <use style="stroke:#000000;stroke-width:0.5;" x="162.0" xlink:href="#mfc066bb6d2" y="50.4"/>
      </g>
     </g>
     <g id="line2d_34">
      <g>
       <use style="stroke:#000000;stroke-width:0.5;" x="965.52" xlink:href="#m684f88b97c" y="50.4"/>
      </g>
     </g>
     <g id="text_16">
      <!-- 8 -->
      <defs>
       <path d="M 31.78125 34.625 
Q 24.75 34.625 20.71875 30.859375 
Q 16.703125 27.09375 16.703125 20.515625 
Q 16.703125 13.921875 20.71875 10.15625 
Q 24.75 6.390625 31.78125 6.390625 
Q 38.8125 6.390625 42.859375 10.171875 
Q 46.921875 13.96875 46.921875 20.515625 
Q 46.921875 27.09375 42.890625 30.859375 
Q 38.875 34.625 31.78125 34.625 
M 21.921875 38.8125 
Q 15.578125 40.375 12.03125 44.71875 
Q 8.5 49.078125 8.5 55.328125 
Q 8.5 64.0625 14.71875 69.140625 
Q 20.953125 74.21875 31.78125 74.21875 
Q 42.671875 74.21875 48.875 69.140625 
Q 55.078125 64.0625 55.078125 55.328125 
Q 55.078125 49.078125 51.53125 44.71875 
Q 48 40.375 41.703125 38.8125 
Q 48.828125 37.15625 52.796875 32.3125 
Q 56.78125 27.484375 56.78125 20.515625 
Q 56.78125 9.90625 50.3125 4.234375 
Q 43.84375 -1.421875 31.78125 -1.421875 
Q 19.734375 -1.421875 13.25 4.234375 
Q 6.78125 9.90625 6.78125 20.515625 
Q 6.78125 27.484375 10.78125 32.3125 
Q 14.796875 37.15625 21.921875 38.8125 
M 18.3125 54.390625 
Q 18.3125 48.734375 21.84375 45.5625 
Q 25.390625 42.390625 31.78125 42.390625 
Q 38.140625 42.390625 41.71875 45.5625 
Q 45.3125 48.734375 45.3125 54.390625 
Q 45.3125 60.0625 41.71875 63.234375 
Q 38.140625 66.40625 31.78125 66.40625 
Q 25.390625 66.40625 21.84375 63.234375 
Q 18.3125 60.0625 18.3125 54.390625 
" id="BitstreamVeraSans-Roman-38"/>
      </defs>
      <g transform="translate(150.365 53.71125)scale(0.12 -0.12)">
       <use xlink:href="#BitstreamVeraSans-Roman-38"/>
      </g>
     </g>
    </g>
    <g id="text_17">
     <!-- neighbor distance -->
     <defs>
      <path id="BitstreamVeraSans-Roman-20"/>
      <path d="M 54.890625 33.015625 
L 54.890625 0 
L 45.90625 0 
L 45.90625 32.71875 
Q 45.90625 40.484375 42.875 44.328125 
Q 39.84375 48.1875 33.796875 48.1875 
Q 26.515625 48.1875 22.3125 43.546875 
Q 18.109375 38.921875 18.109375 30.90625 
L 18.109375 0 
L 9.078125 0 
L 9.078125 54.6875 
L 18.109375 54.6875 
L 18.109375 46.1875 
Q 21.34375 51.125 25.703125 53.5625 
Q 30.078125 56 35.796875 56 
Q 45.21875 56 50.046875 50.171875 
Q 54.890625 44.34375 54.890625 33.015625 
" id="BitstreamVeraSans-Roman-6e"/>
      <path d="M 34.28125 27.484375 
Q 23.390625 27.484375 19.1875 25 
Q 14.984375 22.515625 14.984375 16.5 
Q 14.984375 11.71875 18.140625 8.90625 
Q 21.296875 6.109375 26.703125 6.109375 
Q 34.1875 6.109375 38.703125 11.40625 
Q 43.21875 16.703125 43.21875 25.484375 
L 43.21875 27.484375 
z
M 52.203125 31.203125 
L 52.203125 0 
L 43.21875 0 
L 43.21875 8.296875 
Q 40.140625 3.328125 35.546875 0.953125 
Q 30.953125 -1.421875 24.3125 -1.421875 
Q 15.921875 -1.421875 10.953125 3.296875 
Q 6 8.015625 6 15.921875 
Q 6 25.140625 12.171875 29.828125 
Q 18.359375 34.515625 30.609375 34.515625 
L 43.21875 34.515625 
L 43.21875 35.40625 
Q 43.21875 41.609375 39.140625 45 
Q 35.0625 48.390625 27.6875 48.390625 
Q 23 48.390625 18.546875 47.265625 
Q 14.109375 46.140625 10.015625 43.890625 
L 10.015625 52.203125 
Q 14.9375 54.109375 19.578125 55.046875 
Q 24.21875 56 28.609375 56 
Q 40.484375 56 46.34375 49.84375 
Q 52.203125 43.703125 52.203125 31.203125 
" id="BitstreamVeraSans-Roman-61"/>
      <path d="M 30.609375 48.390625 
Q 23.390625 48.390625 19.1875 42.75 
Q 14.984375 37.109375 14.984375 27.296875 
Q 14.984375 17.484375 19.15625 11.84375 
Q 23.34375 6.203125 30.609375 6.203125 
Q 37.796875 6.203125 41.984375 11.859375 
Q 46.1875 17.53125 46.1875 27.296875 
Q 46.1875 37.015625 41.984375 42.703125 
Q 37.796875 48.390625 30.609375 48.390625 
M 30.609375 56 
Q 42.328125 56 49.015625 48.375 
Q 55.71875 40.765625 55.71875 27.296875 
Q 55.71875 13.875 49.015625 6.21875 
Q 42.328125 -1.421875 30.609375 -1.421875 
Q 18.84375 -1.421875 12.171875 6.21875 
Q 5.515625 13.875 5.515625 27.296875 
Q 5.515625 40.765625 12.171875 48.375 
Q 18.84375 56 30.609375 56 
" id="BitstreamVeraSans-Roman-6f"/>
      <path d="M 18.3125 70.21875 
L 18.3125 54.6875 
L 36.8125 54.6875 
L 36.8125 47.703125 
L 18.3125 47.703125 
L 18.3125 18.015625 
Q 18.3125 11.328125 20.140625 9.421875 
Q 21.96875 7.515625 27.59375 7.515625 
L 36.8125 7.515625 
L 36.8125 0 
L 27.59375 0 
Q 17.1875 0 13.234375 3.875 
Q 9.28125 7.765625 9.28125 18.015625 
L 9.28125 47.703125 
L 2.6875 47.703125 
L 2.6875 54.6875 
L 9.28125 54.6875 
L 9.28125 70.21875 
z
" id="BitstreamVeraSans-Roman-74"/>
      <path d="M 54.890625 33.015625 
L 54.890625 0 
L 45.90625 0 
L 45.90625 32.71875 
Q 45.90625 40.484375 42.875 44.328125 
Q 39.84375 48.1875 33.796875 48.1875 
Q 26.515625 48.1875 22.3125 43.546875 
Q 18.109375 38.921875 18.109375 30.90625 
L 18.109375 0 
L 9.078125 0 
L 9.078125 75.984375 
L 18.109375 75.984375 
L 18.109375 46.1875 
Q 21.34375 51.125 25.703125 53.5625 
Q 30.078125 56 35.796875 56 
Q 45.21875 56 50.046875 50.171875 
Q 54.890625 44.34375 54.890625 33.015625 
" id="BitstreamVeraSans-Roman-68"/>
      <path d="M 45.40625 46.390625 
L 45.40625 75.984375 
L 54.390625 75.984375 
L 54.390625 0 
L 45.40625 0 
L 45.40625 8.203125 
Q 42.578125 3.328125 38.25 0.953125 
Q 33.9375 -1.421875 27.875 -1.421875 
Q 17.96875 -1.421875 11.734375 6.484375 
Q 5.515625 14.40625 5.515625 27.296875 
Q 5.515625 40.1875 11.734375 48.09375 
Q 17.96875 56 27.875 56 
Q 33.9375 56 38.25 53.625 
Q 42.578125 51.265625 45.40625 46.390625 
M 14.796875 27.296875 
Q 14.796875 17.390625 18.875 11.75 
Q 22.953125 6.109375 30.078125 6.109375 
Q 37.203125 6.109375 41.296875 11.75 
Q 45.40625 17.390625 45.40625 27.296875 
Q 45.40625 37.203125 41.296875 42.84375 
Q 37.203125 48.484375 30.078125 48.484375 
Q 22.953125 48.484375 18.875 42.84375 
Q 14.796875 37.203125 14.796875 27.296875 
" id="BitstreamVeraSans-Roman-64"/>
      <path d="M 45.40625 27.984375 
Q 45.40625 37.75 41.375 43.109375 
Q 37.359375 48.484375 30.078125 48.484375 
Q 22.859375 48.484375 18.828125 43.109375 
Q 14.796875 37.75 14.796875 27.984375 
Q 14.796875 18.265625 18.828125 12.890625 
Q 22.859375 7.515625 30.078125 7.515625 
Q 37.359375 7.515625 41.375 12.890625 
Q 45.40625 18.265625 45.40625 27.984375 
M 54.390625 6.78125 
Q 54.390625 -7.171875 48.1875 -13.984375 
Q 42 -20.796875 29.203125 -20.796875 
Q 24.46875 -20.796875 20.265625 -20.09375 
Q 16.0625 -19.390625 12.109375 -17.921875 
L 12.109375 -9.1875 
Q 16.0625 -11.328125 19.921875 -12.34375 
Q 23.78125 -13.375 27.78125 -13.375 
Q 36.625 -13.375 41.015625 -8.765625 
Q 45.40625 -4.15625 45.40625 5.171875 
L 45.40625 9.625 
Q 42.625 4.78125 38.28125 2.390625 
Q 33.9375 0 27.875 0 
Q 17.828125 0 11.671875 7.65625 
Q 5.515625 15.328125 5.515625 27.984375 
Q 5.515625 40.671875 11.671875 48.328125 
Q 17.828125 56 27.875 56 
Q 33.9375 56 38.28125 53.609375 
Q 42.625 51.21875 45.40625 46.390625 
L 45.40625 54.6875 
L 54.390625 54.6875 
z
" id="BitstreamVeraSans-Roman-67"/>
      <path d="M 41.109375 46.296875 
Q 39.59375 47.171875 37.8125 47.578125 
Q 36.03125 48 33.890625 48 
Q 26.265625 48 22.1875 43.046875 
Q 18.109375 38.09375 18.109375 28.8125 
L 18.109375 0 
L 9.078125 0 
L 9.078125 54.6875 
L 18.109375 54.6875 
L 18.109375 46.1875 
Q 20.953125 51.171875 25.484375 53.578125 
Q 30.03125 56 36.53125 56 
Q 37.453125 56 38.578125 55.875 
Q 39.703125 55.765625 41.0625 55.515625 
z
" id="BitstreamVeraSans-Roman-72"/>
      <path d="M 44.28125 53.078125 
L 44.28125 44.578125 
Q 40.484375 46.53125 36.375 47.5 
Q 32.28125 48.484375 27.875 48.484375 
Q 21.1875 48.484375 17.84375 46.4375 
Q 14.5 44.390625 14.5 40.28125 
Q 14.5 37.15625 16.890625 35.375 
Q 19.28125 33.59375 26.515625 31.984375 
L 29.59375 31.296875 
Q 39.15625 29.25 43.1875 25.515625 
Q 47.21875 21.78125 47.21875 15.09375 
Q 47.21875 7.46875 41.1875 3.015625 
Q 35.15625 -1.421875 24.609375 -1.421875 
Q 20.21875 -1.421875 15.453125 -0.5625 
Q 10.6875 0.296875 5.421875 2 
L 5.421875 11.28125 
Q 10.40625 8.6875 15.234375 7.390625 
Q 20.0625 6.109375 24.8125 6.109375 
Q 31.15625 6.109375 34.5625 8.28125 
Q 37.984375 10.453125 37.984375 14.40625 
Q 37.984375 18.0625 35.515625 20.015625 
Q 33.0625 21.96875 24.703125 23.78125 
L 21.578125 24.515625 
Q 13.234375 26.265625 9.515625 29.90625 
Q 5.8125 33.546875 5.8125 39.890625 
Q 5.8125 47.609375 11.28125 51.796875 
Q 16.75 56 26.8125 56 
Q 31.78125 56 36.171875 55.265625 
Q 40.578125 54.546875 44.28125 53.078125 
" id="BitstreamVeraSans-Roman-73"/>
      <path d="M 48.78125 52.59375 
L 48.78125 44.1875 
Q 44.96875 46.296875 41.140625 47.34375 
Q 37.3125 48.390625 33.40625 48.390625 
Q 24.65625 48.390625 19.8125 42.84375 
Q 14.984375 37.3125 14.984375 27.296875 
Q 14.984375 17.28125 19.8125 11.734375 
Q 24.65625 6.203125 33.40625 6.203125 
Q 37.3125 6.203125 41.140625 7.25 
Q 44.96875 8.296875 48.78125 10.40625 
L 48.78125 2.09375 
Q 45.015625 0.34375 40.984375 -0.53125 
Q 36.96875 -1.421875 32.421875 -1.421875 
Q 20.0625 -1.421875 12.78125 6.34375 
Q 5.515625 14.109375 5.515625 27.296875 
Q 5.515625 40.671875 12.859375 48.328125 
Q 20.21875 56 33.015625 56 
Q 37.15625 56 41.109375 55.140625 
Q 45.0625 54.296875 48.78125 52.59375 
" id="BitstreamVeraSans-Roman-63"/>
      <path d="M 48.6875 27.296875 
Q 48.6875 37.203125 44.609375 42.84375 
Q 40.53125 48.484375 33.40625 48.484375 
Q 26.265625 48.484375 22.1875 42.84375 
Q 18.109375 37.203125 18.109375 27.296875 
Q 18.109375 17.390625 22.1875 11.75 
Q 26.265625 6.109375 33.40625 6.109375 
Q 40.53125 6.109375 44.609375 11.75 
Q 48.6875 17.390625 48.6875 27.296875 
M 18.109375 46.390625 
Q 20.953125 51.265625 25.265625 53.625 
Q 29.59375 56 35.59375 56 
Q 45.5625 56 51.78125 48.09375 
Q 58.015625 40.1875 58.015625 27.296875 
Q 58.015625 14.40625 51.78125 6.484375 
Q 45.5625 -1.421875 35.59375 -1.421875 
Q 29.59375 -1.421875 25.265625 0.953125 
Q 20.953125 3.328125 18.109375 8.203125 
L 18.109375 0 
L 9.078125 0 
L 9.078125 75.984375 
L 18.109375 75.984375 
z
" id="BitstreamVeraSans-Roman-62"/>
     </defs>
     <g transform="translate(142.869375 306.050625)rotate(-90.0)scale(0.12 -0.12)">
      <use xlink:href="#BitstreamVeraSans-Roman-6e"/>
      <use x="63.37890625" xlink:href="#BitstreamVeraSans-Roman-65"/>
      <use x="124.90234375" xlink:href="#BitstreamVeraSans-Roman-69"/>
      <use x="152.685546875" xlink:href="#BitstreamVeraSans-Roman-67"/>
      <use x="216.162109375" xlink:href="#BitstreamVeraSans-Roman-68"/>
      <use x="279.541015625" xlink:href="#BitstreamVeraSans-Roman-62"/>
      <use x="343.017578125" xlink:href="#BitstreamVeraSans-Roman-6f"/>
      <use x="404.19921875" xlink:href="#BitstreamVeraSans-Roman-72"/>
      <use x="445.3125" xlink:href="#BitstreamVeraSans-Roman-20"/>
      <use x="477.099609375" xlink:href="#BitstreamVeraSans-Roman-64"/>
      <use x="540.576171875" xlink:href="#BitstreamVeraSans-Roman-69"/>
      <use x="568.359375" xlink:href="#BitstreamVeraSans-Roman-73"/>
      <use x="620.458984375" xlink:href="#BitstreamVeraSans-Roman-74"/>
      <use x="659.66796875" xlink:href="#BitstreamVeraSans-Roman-61"/>
      <use x="720.947265625" xlink:href="#BitstreamVeraSans-Roman-6e"/>
      <use x="784.326171875" xlink:href="#BitstreamVeraSans-Roman-63"/>
      <use x="839.306640625" xlink:href="#BitstreamVeraSans-Roman-65"/>
     </g>
    </g>
   </g>
   <g id="text_18">
    <!-- Cohesion: neighbor distance -->
    <defs>
     <path d="M 11.71875 12.40625 
L 22.015625 12.40625 
L 22.015625 0 
L 11.71875 0 
z
M 11.71875 51.703125 
L 22.015625 51.703125 
L 22.015625 39.3125 
L 11.71875 39.3125 
z
" id="BitstreamVeraSans-Roman-3a"/>
     <path d="M 64.40625 67.28125 
L 64.40625 56.890625 
Q 59.421875 61.53125 53.78125 63.8125 
Q 48.140625 66.109375 41.796875 66.109375 
Q 29.296875 66.109375 22.65625 58.46875 
Q 16.015625 50.828125 16.015625 36.375 
Q 16.015625 21.96875 22.65625 14.328125 
Q 29.296875 6.6875 41.796875 6.6875 
Q 48.140625 6.6875 53.78125 8.984375 
Q 59.421875 11.28125 64.40625 15.921875 
L 64.40625 5.609375 
Q 59.234375 2.09375 53.4375 0.328125 
Q 47.65625 -1.421875 41.21875 -1.421875 
Q 24.65625 -1.421875 15.125 8.703125 
Q 5.609375 18.84375 5.609375 36.375 
Q 5.609375 53.953125 15.125 64.078125 
Q 24.65625 74.21875 41.21875 74.21875 
Q 47.75 74.21875 53.53125 72.484375 
Q 59.328125 70.75 64.40625 67.28125 
" id="BitstreamVeraSans-Roman-43"/>
    </defs>
    <g transform="translate(461.039625 45.4)scale(0.144 -0.144)">
     <use xlink:href="#BitstreamVeraSans-Roman-43"/>
     <use x="69.82421875" xlink:href="#BitstreamVeraSans-Roman-6f"/>
     <use x="131.005859375" xlink:href="#BitstreamVeraSans-Roman-68"/>
     <use x="194.384765625" xlink:href="#BitstreamVeraSans-Roman-65"/>
     <use x="255.908203125" xlink:href="#BitstreamVeraSans-Roman-73"/>
     <use x="308.0078125" xlink:href="#BitstreamVeraSans-Roman-69"/>
     <use x="335.791015625" xlink:href="#BitstreamVeraSans-Roman-6f"/>
     <use x="396.97265625" xlink:href="#BitstreamVeraSans-Roman-6e"/>
     <use x="460.3515625" xlink:href="#BitstreamVeraSans-Roman-3a"/>
     <use x="494.04296875" xlink:href="#BitstreamVeraSans-Roman-20"/>
     <use x="525.830078125" xlink:href="#BitstreamVeraSans-Roman-6e"/>
     <use x="589.208984375" xlink:href="#BitstreamVeraSans-Roman-65"/>
     <use x="650.732421875" xlink:href="#BitstreamVeraSans-Roman-69"/>
     <use x="678.515625" xlink:href="#BitstreamVeraSans-Roman-67"/>
     <use x="741.9921875" xlink:href="#BitstreamVeraSans-Roman-68"/>
     <use x="805.37109375" xlink:href="#BitstreamVeraSans-Roman-62"/>
     <use x="868.84765625" xlink:href="#BitstreamVeraSans-Roman-6f"/>
     <use x="930.029296875" xlink:href="#BitstreamVeraSans-Roman-72"/>
     <use x="971.142578125" xlink:href="#BitstreamVeraSans-Roman-20"/>
     <use x="1002.9296875" xlink:href="#BitstreamVeraSans-Roman-64"/>
     <use x="1066.40625" xlink:href="#BitstreamVeraSans-Roman-69"/>
     <use x="1094.18945312" xlink:href="#BitstreamVeraSans-Roman-73"/>
     <use x="1146.2890625" xlink:href="#BitstreamVeraSans-Roman-74"/>
     <use x="1185.49804688" xlink:href="#BitstreamVeraSans-Roman-61"/>
     <use x="1246.77734375" xlink:href="#BitstreamVeraSans-Roman-6e"/>
     <use x="1310.15625" xlink:href="#BitstreamVeraSans-Roman-63"/>
     <use x="1365.13671875" xlink:href="#BitstreamVeraSans-Roman-65"/>
    </g>
   </g>
   <g id="legend_1">
    <g id="patch_7">
     <path d="M 972.72 138.402 
L 1066.464 138.402 
L 1066.464 49.536 
L 972.72 49.536 
z
" style="fill:#ffffff;stroke:#000000;stroke-linejoin:miter;"/>
    </g>
    <g id="line2d_35">
     <path d="M 982.8 61.19775 
L 1002.96 61.19775 
" style="fill:none;stroke:#0000ff;stroke-linecap:square;"/>
    </g>
    <g id="line2d_36"/>
    <g id="text_19">
     <!-- $C_w=1$ -->
     <defs>
      <path d="M 9.28125 0 
L 9.28125 3.515625 
Q 21.78125 3.515625 21.78125 6.6875 
L 21.78125 59.1875 
Q 16.609375 56.6875 8.6875 56.6875 
L 8.6875 60.203125 
Q 20.953125 60.203125 27.203125 66.609375 
L 28.609375 66.609375 
Q 28.953125 66.609375 29.265625 66.328125 
Q 29.59375 66.0625 29.59375 65.71875 
L 29.59375 6.6875 
Q 29.59375 3.515625 42.09375 3.515625 
L 42.09375 0 
z
" id="Cmr10-31"/>
      <path d="M 14.59375 21.578125 
Q 14.59375 15.578125 16.90625 11.015625 
Q 19.234375 6.453125 23.65625 3.875 
Q 28.078125 1.3125 34.078125 1.3125 
Q 40.375 1.3125 46.203125 4.53125 
Q 52.046875 7.765625 56.171875 13.15625 
Q 60.296875 18.5625 61.8125 24.609375 
Q 62.015625 25.203125 62.59375 25.203125 
L 63.8125 25.203125 
Q 64.203125 25.203125 64.453125 24.921875 
Q 64.703125 24.65625 64.703125 24.3125 
Q 64.703125 24.21875 64.59375 24.03125 
Q 62.890625 17.09375 57.984375 11.015625 
Q 53.078125 4.9375 46.234375 1.359375 
Q 39.40625 -2.203125 32.171875 -2.203125 
Q 24.359375 -2.203125 18.15625 1.3125 
Q 11.96875 4.828125 8.515625 11.078125 
Q 5.078125 17.328125 5.078125 25.203125 
Q 5.078125 33.59375 8.828125 41.8125 
Q 12.59375 50.046875 18.9375 56.46875 
Q 25.296875 62.890625 33.421875 66.703125 
Q 41.546875 70.515625 49.90625 70.515625 
Q 53.21875 70.515625 56.25 69.5 
Q 59.28125 68.5 61.859375 66.453125 
Q 64.453125 64.40625 66.109375 61.71875 
L 74.03125 70.3125 
Q 74.03125 70.515625 74.515625 70.515625 
L 75.09375 70.515625 
Q 75.484375 70.515625 75.734375 70.171875 
Q 75.984375 69.828125 75.984375 69.484375 
L 69.1875 42.484375 
Q 69.1875 41.796875 68.40625 41.796875 
L 66.609375 41.796875 
Q 65.828125 41.796875 65.828125 42.921875 
Q 66.21875 45.125 66.21875 48.1875 
Q 66.21875 53.078125 64.546875 57.390625 
Q 62.890625 61.71875 59.390625 64.359375 
Q 55.90625 67 50.875 67 
Q 42.71875 67 35.9375 62.890625 
Q 29.15625 58.796875 24.4375 52.125 
Q 19.734375 45.453125 17.15625 37.328125 
Q 14.59375 29.203125 14.59375 21.578125 
" id="Cmmi10-43"/>
      <path d="M 10.796875 11.625 
Q 10.796875 13.71875 11.359375 16.453125 
Q 11.921875 19.1875 12.59375 21.3125 
Q 13.28125 23.4375 14.90625 27.828125 
Q 16.546875 32.234375 16.703125 32.625 
Q 18.015625 36.28125 18.015625 38.625 
Q 18.015625 41.609375 15.828125 41.609375 
Q 11.859375 41.609375 9.296875 37.53125 
Q 6.734375 33.453125 5.515625 28.421875 
Q 5.328125 27.78125 4.6875 27.78125 
L 3.515625 27.78125 
Q 2.6875 27.78125 2.6875 28.71875 
L 2.6875 29 
Q 4.296875 34.96875 7.609375 39.578125 
Q 10.9375 44.1875 16.015625 44.1875 
Q 19.578125 44.1875 22.046875 41.84375 
Q 24.515625 39.5 24.515625 35.890625 
Q 24.515625 34.03125 23.6875 31.984375 
Q 22.515625 28.953125 20.921875 24.703125 
Q 19.34375 20.453125 18.453125 16.984375 
Q 17.578125 13.53125 17.578125 10.296875 
Q 17.578125 6.390625 19.625 3.953125 
Q 21.6875 1.515625 25.59375 1.515625 
Q 30.90625 1.515625 34.421875 9.625 
Q 34.28125 10.203125 34.28125 11.28125 
Q 34.28125 13.96875 35.109375 17.390625 
L 40.71875 39.890625 
Q 41.0625 41.21875 42.28125 42.15625 
Q 43.5 43.109375 44.921875 43.109375 
Q 46.09375 43.109375 47 42.328125 
Q 47.90625 41.546875 47.90625 40.28125 
Q 47.90625 39.703125 47.796875 39.5 
L 42.1875 17.1875 
Q 41.21875 13.1875 41.21875 10.015625 
Q 41.21875 6.25 42.9375 3.875 
Q 44.671875 1.515625 48.390625 1.515625 
Q 54.828125 1.515625 58.984375 10.015625 
Q 60.546875 13.03125 62.46875 18.9375 
Q 64.40625 24.859375 64.40625 27.984375 
Q 64.40625 30.859375 63.46875 32.546875 
Q 62.546875 34.234375 60.90625 36.1875 
Q 59.28125 38.140625 59.28125 39.109375 
Q 59.28125 41.015625 60.90625 42.640625 
Q 62.546875 44.28125 64.5 44.28125 
Q 66.890625 44.28125 67.9375 42.078125 
Q 69 39.890625 69 37.109375 
Q 69 33.734375 67.875 28.53125 
Q 66.75 23.34375 65.03125 18.09375 
Q 63.328125 12.84375 61.8125 9.71875 
Q 56.34375 -1.125 48.1875 -1.125 
Q 44 -1.125 40.53125 0.484375 
Q 37.0625 2.09375 35.40625 5.609375 
Q 33.796875 2.734375 31.171875 0.796875 
Q 28.5625 -1.125 25.390625 -1.125 
Q 18.796875 -1.125 14.796875 2.015625 
Q 10.796875 5.171875 10.796875 11.625 
" id="Cmmi10-77"/>
      <path d="M 7.515625 13.28125 
Q 6.6875 13.28125 6.140625 13.90625 
Q 5.609375 14.546875 5.609375 15.28125 
Q 5.609375 16.109375 6.140625 16.6875 
Q 6.6875 17.28125 7.515625 17.28125 
L 70.3125 17.28125 
Q 71.046875 17.28125 71.578125 16.6875 
Q 72.125 16.109375 72.125 15.28125 
Q 72.125 14.546875 71.578125 13.90625 
Q 71.046875 13.28125 70.3125 13.28125 
z
M 7.515625 32.71875 
Q 6.6875 32.71875 6.140625 33.296875 
Q 5.609375 33.890625 5.609375 34.71875 
Q 5.609375 35.453125 6.140625 36.078125 
Q 6.6875 36.71875 7.515625 36.71875 
L 70.3125 36.71875 
Q 71.046875 36.71875 71.578125 36.078125 
Q 72.125 35.453125 72.125 34.71875 
Q 72.125 33.890625 71.578125 33.296875 
Q 71.046875 32.71875 70.3125 32.71875 
z
" id="Cmr10-3d"/>
     </defs>
     <g transform="translate(1018.8 66.23775)scale(0.144 -0.144)">
      <use transform="translate(0.0 0.484375)" xlink:href="#Cmmi10-43"/>
      <use transform="translate(71.38671875 -16.521875)scale(0.7)" xlink:href="#Cmmi10-77"/>
      <use transform="translate(145.36171875 0.484375)" xlink:href="#Cmr10-3d"/>
      <use transform="translate(240.605859375 0.484375)" xlink:href="#Cmr10-31"/>
     </g>
    </g>
    <g id="line2d_37">
     <path d="M 982.8 82.33425 
L 1002.96 82.33425 
" style="fill:none;stroke:#008000;stroke-linecap:square;"/>
    </g>
    <g id="line2d_38"/>
    <g id="text_20">
     <!-- $C_w=3$ -->
     <defs>
      <path d="M 9.515625 7.71875 
Q 11.859375 4.296875 15.8125 2.640625 
Q 19.78125 0.984375 24.3125 0.984375 
Q 30.125 0.984375 32.5625 5.9375 
Q 35.015625 10.890625 35.015625 17.1875 
Q 35.015625 20.015625 34.5 22.84375 
Q 33.984375 25.6875 32.765625 28.125 
Q 31.546875 30.5625 29.421875 32.03125 
Q 27.296875 33.5 24.21875 33.5 
L 17.578125 33.5 
Q 16.703125 33.5 16.703125 34.421875 
L 16.703125 35.296875 
Q 16.703125 36.078125 17.578125 36.078125 
L 23.09375 36.53125 
Q 26.609375 36.53125 28.921875 39.15625 
Q 31.25 41.796875 32.328125 45.578125 
Q 33.40625 49.359375 33.40625 52.78125 
Q 33.40625 57.5625 31.15625 60.640625 
Q 28.90625 63.71875 24.3125 63.71875 
Q 20.515625 63.71875 17.046875 62.28125 
Q 13.578125 60.84375 11.53125 57.90625 
Q 11.71875 57.953125 11.859375 57.984375 
Q 12.015625 58.015625 12.203125 58.015625 
Q 14.453125 58.015625 15.96875 56.453125 
Q 17.484375 54.890625 17.484375 52.6875 
Q 17.484375 50.53125 15.96875 48.96875 
Q 14.453125 47.40625 12.203125 47.40625 
Q 10.015625 47.40625 8.453125 48.96875 
Q 6.890625 50.53125 6.890625 52.6875 
Q 6.890625 56.984375 9.46875 60.15625 
Q 12.0625 63.328125 16.140625 64.96875 
Q 20.21875 66.609375 24.3125 66.609375 
Q 27.34375 66.609375 30.703125 65.703125 
Q 34.078125 64.796875 36.8125 63.109375 
Q 39.546875 61.421875 41.28125 58.78125 
Q 43.015625 56.15625 43.015625 52.78125 
Q 43.015625 48.578125 41.140625 45.015625 
Q 39.265625 41.453125 35.984375 38.859375 
Q 32.71875 36.28125 28.8125 35.015625 
Q 33.15625 34.1875 37.0625 31.734375 
Q 40.96875 29.296875 43.328125 25.484375 
Q 45.703125 21.6875 45.703125 17.28125 
Q 45.703125 11.765625 42.671875 7.296875 
Q 39.65625 2.828125 34.71875 0.3125 
Q 29.78125 -2.203125 24.3125 -2.203125 
Q 19.625 -2.203125 14.90625 -0.40625 
Q 10.203125 1.375 7.203125 4.9375 
Q 4.203125 8.5 4.203125 13.484375 
Q 4.203125 15.96875 5.859375 17.625 
Q 7.515625 19.28125 10.015625 19.28125 
Q 11.625 19.28125 12.96875 18.53125 
Q 14.3125 17.78125 15.0625 16.40625 
Q 15.828125 15.046875 15.828125 13.484375 
Q 15.828125 11.03125 14.109375 9.375 
Q 12.40625 7.71875 10.015625 7.71875 
z
" id="Cmr10-33"/>
     </defs>
     <g transform="translate(1018.8 87.37425)scale(0.144 -0.144)">
      <use transform="translate(0.0 0.484375)" xlink:href="#Cmmi10-43"/>
      <use transform="translate(71.38671875 -16.521875)scale(0.7)" xlink:href="#Cmmi10-77"/>
      <use transform="translate(145.36171875 0.484375)" xlink:href="#Cmr10-3d"/>
      <use transform="translate(240.605859375 0.484375)" xlink:href="#Cmr10-33"/>
     </g>
    </g>
    <g id="line2d_39">
     <path d="M 982.8 103.47075 
L 1002.96 103.47075 
" style="fill:none;stroke:#ff0000;stroke-linecap:square;"/>
    </g>
    <g id="line2d_40"/>
    <g id="text_21">
     <!-- $C_w=5$ -->
     <defs>
      <path d="M 8.6875 11.375 
Q 9.71875 8.453125 11.84375 6.046875 
Q 13.96875 3.65625 16.875 2.3125 
Q 19.78125 0.984375 22.90625 0.984375 
Q 30.125 0.984375 32.859375 6.59375 
Q 35.59375 12.203125 35.59375 20.21875 
Q 35.59375 23.6875 35.46875 26.046875 
Q 35.359375 28.421875 34.8125 30.609375 
Q 33.890625 34.125 31.5625 36.765625 
Q 29.25 39.40625 25.875 39.40625 
Q 22.515625 39.40625 20.09375 38.375 
Q 17.671875 37.359375 16.15625 35.984375 
Q 14.65625 34.625 13.484375 33.109375 
Q 12.3125 31.59375 12.015625 31.5 
L 10.890625 31.5 
Q 10.640625 31.5 10.265625 31.8125 
Q 9.90625 32.125 9.90625 32.421875 
L 9.90625 65.828125 
Q 9.90625 66.0625 10.21875 66.328125 
Q 10.546875 66.609375 10.890625 66.609375 
L 11.1875 66.609375 
Q 17.921875 63.375 25.484375 63.375 
Q 32.90625 63.375 39.796875 66.609375 
L 40.09375 66.609375 
Q 40.4375 66.609375 40.71875 66.359375 
Q 41.015625 66.109375 41.015625 65.828125 
L 41.015625 64.890625 
Q 41.015625 64.40625 40.828125 64.40625 
Q 37.40625 59.859375 32.25 57.3125 
Q 27.09375 54.78125 21.578125 54.78125 
Q 17.578125 54.78125 13.375 55.90625 
L 13.375 37.015625 
Q 16.703125 39.703125 19.3125 40.84375 
Q 21.921875 42 25.984375 42 
Q 31.5 42 35.859375 38.8125 
Q 40.234375 35.640625 42.578125 30.53125 
Q 44.921875 25.4375 44.921875 20.125 
Q 44.921875 14.109375 41.96875 8.984375 
Q 39.015625 3.859375 33.9375 0.828125 
Q 28.859375 -2.203125 22.90625 -2.203125 
Q 17.96875 -2.203125 13.84375 0.328125 
Q 9.71875 2.875 7.34375 7.171875 
Q 4.984375 11.46875 4.984375 16.3125 
Q 4.984375 18.5625 6.4375 19.96875 
Q 7.90625 21.390625 10.109375 21.390625 
Q 12.3125 21.390625 13.796875 19.9375 
Q 15.28125 18.5 15.28125 16.3125 
Q 15.28125 14.15625 13.796875 12.671875 
Q 12.3125 11.1875 10.109375 11.1875 
Q 9.765625 11.1875 9.328125 11.25 
Q 8.890625 11.328125 8.6875 11.375 
" id="Cmr10-35"/>
     </defs>
     <g transform="translate(1018.8 108.51075)scale(0.144 -0.144)">
      <use transform="translate(0.0 0.484375)" xlink:href="#Cmmi10-43"/>
      <use transform="translate(71.38671875 -16.521875)scale(0.7)" xlink:href="#Cmmi10-77"/>
      <use transform="translate(145.36171875 0.484375)" xlink:href="#Cmr10-3d"/>
      <use transform="translate(240.605859375 0.484375)" xlink:href="#Cmr10-35"/>
     </g>
    </g>
    <g id="line2d_41">
     <path d="M 982.8 124.60725 
L 1002.96 124.60725 
" style="fill:none;stroke:#00bfbf;stroke-linecap:square;"/>
    </g>
    <g id="line2d_42"/>
    <g id="text_22">
     <!-- $C_w=7$ -->
     <defs>
      <path d="M 17.390625 2.59375 
Q 17.390625 8.15625 18.359375 13.46875 
Q 19.34375 18.796875 21.21875 24 
Q 23.09375 29.203125 25.75 34.203125 
Q 28.421875 39.203125 31.59375 43.609375 
L 40.71875 56.296875 
L 29.296875 56.296875 
Q 11.53125 56.296875 10.984375 55.8125 
Q 9.671875 54.203125 8.5 46.578125 
L 5.609375 46.578125 
L 8.890625 67.578125 
L 11.8125 67.578125 
L 11.8125 67.28125 
Q 11.8125 65.484375 17.921875 64.9375 
Q 24.03125 64.40625 29.890625 64.40625 
L 48.484375 64.40625 
L 48.484375 61.8125 
Q 48.484375 61.71875 48.453125 61.671875 
Q 48.4375 61.625 48.390625 61.53125 
L 34.625 42.1875 
Q 29.546875 34.671875 28.265625 25.484375 
Q 27 16.3125 27 2.59375 
Q 27 0.640625 25.578125 -0.78125 
Q 24.171875 -2.203125 22.21875 -2.203125 
Q 20.21875 -2.203125 18.796875 -0.78125 
Q 17.390625 0.640625 17.390625 2.59375 
" id="Cmr10-37"/>
     </defs>
     <g transform="translate(1018.8 129.64725)scale(0.144 -0.144)">
      <use transform="translate(0.0 0.484375)" xlink:href="#Cmmi10-43"/>
      <use transform="translate(71.38671875 -16.521875)scale(0.7)" xlink:href="#Cmmi10-77"/>
      <use transform="translate(145.36171875 0.484375)" xlink:href="#Cmr10-3d"/>
      <use transform="translate(240.605859375 0.484375)" xlink:href="#Cmr10-37"/>
     </g>
    </g>
   </g>
  </g>
 </g>
 <defs>
  <clipPath id="p4f7c174464">
   <rect height="403.2" width="803.52" x="162.0" y="50.4"/>
  </clipPath>
 </defs>
</svg>
