<?xml version="1.0" encoding="utf-8" standalone="no"?>
<!DOCTYPE svg PUBLIC "-//W3C//DTD SVG 1.1//EN"
  "http://www.w3.org/Graphics/SVG/1.1/DTD/svg11.dtd">
<!-- Created with matplotlib (http://matplotlib.org/) -->
<svg height="504pt" version="1.1" viewBox="0 0 1296 504" width="1296pt" xmlns="http://www.w3.org/2000/svg" xmlns:xlink="http://www.w3.org/1999/xlink">
 <defs>
  <style type="text/css">
*{stroke-linecap:butt;stroke-linejoin:round;stroke-miterlimit:100000;}
  </style>
 </defs>
 <g id="figure_1">
  <g id="patch_1">
   <path d="M 0 504 
L 1296 504 
L 1296 0 
L 0 0 
z
" style="fill:#ffffff;"/>
  </g>
  <g id="axes_1">
   <g id="patch_2">
    <path d="M 162 453.6 
L 965.52 453.6 
L 965.52 50.4 
L 162 50.4 
z
" style="fill:#ffffff;"/>
   </g>
   <g id="line2d_1">
    <path clip-path="url(#p6f1f15f98f)" d="M 162 127.7136 
L 163.60704 103.068 
L 165.21408 73.584 
L 166.82112 63.504 
L 170.0352 81.2952 
L 171.64224 85.9824 
L 173.24928 84.8736 
L 174.85632 73.7856 
L 176.46336 73.1808 
L 178.0704 71.1648 
L 179.67744 80.6904 
L 181.28448 81.144 
L 182.89152 78.876 
L 184.49856 66.2256 
L 186.1056 66.528 
L 187.71264 68.1912 
L 189.31968 68.6952 
L 190.92672 59.6736 
L 192.53376 66.5784 
L 194.1408 83.412 
L 195.74784 76.86 
L 197.35488 69.1992 
L 198.96192 75.4992 
L 200.56896 85.3272 
L 202.176 86.1336 
L 203.78304 88.3512 
L 205.39008 91.476 
L 206.99712 90.8712 
L 208.60416 82.7568 
L 210.2112 79.128 
L 211.81824 75.9528 
L 215.03232 76.86 
L 216.63936 84.3192 
L 218.2464 84.168 
L 219.85344 76.2552 
L 221.46048 69.3 
L 223.06752 71.7192 
L 224.67456 69.1488 
L 226.2816 81.0936 
L 227.88864 71.82 
L 229.49568 74.6928 
L 231.10272 73.2312 
L 232.70976 77.112 
L 234.3168 81.648 
L 235.92384 84.3192 
L 237.53088 77.5656 
L 239.13792 82.0008 
L 240.74496 82.152 
L 242.352 81.1944 
L 243.95904 79.632 
L 245.56608 81.396 
L 247.17312 76.608 
L 248.78016 73.4328 
L 250.3872 69.552 
L 251.99424 73.584 
L 253.60128 82.8576 
L 255.20832 81.5472 
L 256.81536 84.8736 
L 258.4224 83.8152 
L 260.02944 78.876 
L 261.63648 72.7776 
L 263.24352 73.4832 
L 264.85056 79.2288 
L 266.4576 89.5608 
L 269.67168 75.4488 
L 271.27872 67.6872 
L 272.88576 68.9976 
L 274.4928 73.6848 
L 276.09984 63.8064 
L 277.70688 80.892 
L 279.31392 76.6584 
L 280.92096 80.892 
L 282.528 75.6504 
L 284.13504 77.7168 
L 285.74208 79.0776 
L 287.34912 73.2312 
L 288.95616 69.9552 
L 290.5632 71.9712 
L 292.17024 74.9448 
L 293.77728 69.4008 
L 295.38432 73.8864 
L 296.99136 81.4464 
L 298.5984 93.0384 
L 300.20544 93.492 
L 301.81248 112.7952 
L 303.41952 96.768 
L 305.02656 90.468 
L 306.6336 82.3536 
L 308.24064 79.9848 
L 309.84768 78.12 
L 311.45472 79.4304 
L 313.06176 85.6296 
L 314.6688 83.8656 
L 316.27584 86.0328 
L 317.88288 84.8736 
L 319.48992 84.5208 
L 321.09696 74.5416 
L 322.704 78.876 
L 324.31104 86.6376 
L 325.91808 88.7544 
L 327.52512 84.0168 
L 329.13216 74.1384 
L 330.7392 75.7512 
L 332.34624 84.7224 
L 333.95328 87.6456 
L 335.56032 86.688 
L 337.16736 76.4568 
L 338.7744 70.7616 
L 340.38144 70.2072 
L 341.98848 76.2552 
L 343.59552 89.1072 
L 345.20256 85.3776 
L 346.8096 87.5448 
L 348.41664 86.184 
L 350.02368 85.932 
L 351.63072 84.924 
L 353.23776 84.8736 
L 354.8448 90.5184 
L 356.45184 88.7544 
L 358.05888 90.1152 
L 359.66592 84.8232 
L 361.27296 81.7992 
L 362.88 74.7936 
L 364.48704 70.2576 
L 366.09408 63.6552 
L 367.70112 64.3608 
L 369.30816 61.1856 
L 370.9152 78.12 
L 372.52224 88.9056 
L 374.12928 87.3432 
L 375.73632 89.8632 
L 378.9504 72.6768 
L 380.55744 75.348 
L 382.16448 78.372 
L 383.77152 83.16 
L 385.37856 81.0432 
L 386.9856 77.8176 
L 388.59264 90.3672 
L 390.19968 84.1176 
L 391.80672 81.9 
L 393.41376 77.0112 
L 395.0208 75.2472 
L 396.62784 81.0432 
L 398.23488 82.8576 
L 399.84192 80.2872 
L 401.44896 80.1864 
L 403.056 83.6136 
L 404.66304 83.412 
L 406.27008 87.7464 
L 407.87712 75.4992 
L 409.48416 70.5096 
L 411.0912 85.7304 
L 412.69824 82.7064 
L 414.30528 88.956 
L 415.91232 85.5288 
L 417.51936 89.3088 
L 419.1264 97.272 
L 420.73344 93.5424 
L 422.34048 87.8976 
L 423.94752 82.9584 
L 425.55456 78.7752 
L 427.1616 77.4144 
L 428.76864 96.7176 
L 430.37568 104.3784 
L 431.98272 107.2008 
L 435.1968 75.1968 
L 436.80384 70.0056 
L 438.41088 71.3664 
L 440.01792 82.0008 
L 441.62496 90.1152 
L 443.232 84.8232 
L 444.83904 76.5072 
L 446.44608 80.136 
L 448.05312 73.6848 
L 449.66016 73.4328 
L 451.2672 85.7808 
L 452.87424 88.6536 
L 454.48128 80.892 
L 456.08832 95.004 
L 457.69536 103.7736 
L 459.3024 87.2424 
L 460.90944 73.584 
L 462.51648 63.7056 
L 464.12352 67.0824 
L 465.73056 81.396 
L 467.3376 91.98 
L 468.94464 85.5288 
L 470.55168 79.9344 
L 472.15872 84.42 
L 473.76576 89.9136 
L 475.3728 94.8528 
L 476.97984 97.9272 
L 478.58688 82.656 
L 480.19392 75.2472 
L 481.80096 71.316 
L 483.408 77.3136 
L 485.01504 80.5392 
L 486.62208 90.9216 
L 488.22912 98.7336 
L 489.83616 91.4256 
L 491.4432 76.7088 
L 493.05024 87.5952 
L 494.65728 91.3752 
L 496.26432 75.9528 
L 497.87136 76.104 
L 499.4784 74.4912 
L 501.08544 85.5792 
L 502.69248 90.1656 
L 504.29952 87.948 
L 505.90656 71.1648 
L 507.5136 81.8496 
L 509.12064 82.2528 
L 510.72768 90.1152 
L 512.33472 87.8472 
L 513.94176 80.9928 
L 515.5488 86.184 
L 517.15584 77.9184 
L 518.76288 77.7672 
L 520.36992 80.4384 
L 521.97696 80.4384 
L 523.584 87.0912 
L 525.19104 83.7648 
L 526.79808 81.2448 
L 528.40512 76.7592 
L 530.01216 71.0136 
L 531.6192 75.9528 
L 533.22624 74.6928 
L 536.44032 69.8544 
L 538.04736 71.5176 
L 539.6544 76.5576 
L 541.26144 82.2024 
L 542.86848 82.5048 
L 544.47552 82.6056 
L 546.08256 84.8736 
L 547.6896 81.4968 
L 549.29664 83.664 
L 550.90368 80.0352 
L 552.51072 77.112 
L 554.11776 77.112 
L 555.7248 71.9712 
L 557.33184 69.5016 
L 558.93888 69.4008 
L 560.54592 65.772 
L 562.15296 70.2576 
L 563.76 76.5072 
L 565.36704 75.2976 
L 566.97408 75.7008 
L 568.58112 84.42 
L 570.18816 87.1416 
L 571.7952 82.2024 
L 573.40224 82.3032 
L 575.00928 75.4992 
L 576.61632 69.1992 
L 578.22336 62.0424 
L 579.8304 67.032 
L 581.43744 75.9024 
L 583.04448 79.3296 
L 584.65152 87.192 
L 586.25856 81.3456 
L 587.8656 73.836 
L 589.47264 73.7352 
L 591.07968 72.072 
L 592.68672 66.6288 
L 594.29376 71.7696 
L 597.50784 82.8576 
L 600.72192 93.492 
L 602.32896 84.2184 
L 603.936 83.664 
L 605.54304 79.6824 
L 607.15008 73.9368 
L 608.75712 84.2688 
L 610.36416 80.7408 
L 611.9712 80.2872 
L 613.57824 79.9848 
L 615.18528 82.2024 
L 616.79232 79.2288 
L 618.39936 70.1064 
L 620.0064 65.4696 
L 621.61344 62.5968 
L 623.22048 77.2632 
L 624.82752 84.168 
L 626.43456 88.6536 
L 628.0416 96.012 
L 629.64864 94.0968 
L 631.25568 88.956 
L 632.86272 78.0192 
L 634.46976 71.6688 
L 636.0768 73.6848 
L 637.68384 70.0056 
L 639.29088 85.4784 
L 640.89792 82.5048 
L 642.50496 80.3376 
L 644.112 81.5976 
L 645.71904 84.4704 
L 647.32608 87.7464 
L 648.93312 81.5976 
L 650.54016 77.6664 
L 652.1472 75.2976 
L 653.75424 81.2448 
L 655.36128 86.2848 
L 658.57536 91.1232 
L 660.1824 79.3296 
L 661.78944 78.876 
L 663.39648 80.3376 
L 665.00352 79.4304 
L 666.61056 74.5416 
L 668.2176 71.9208 
L 669.82464 71.1144 
L 671.43168 76.2552 
L 673.03872 78.2208 
L 674.64576 80.9928 
L 676.2528 78.9264 
L 677.85984 75.852 
L 679.46688 71.7696 
L 682.68096 80.7408 
L 684.288 86.3856 
L 685.89504 86.3352 
L 687.50208 86.94 
L 689.10912 79.884 
L 690.71616 70.0056 
L 692.3232 74.0376 
L 693.93024 79.9344 
L 695.53728 84.0168 
L 697.14432 89.0568 
L 698.75136 82.3032 
L 700.3584 91.8792 
L 701.96544 93.7944 
L 703.57248 93.0888 
L 705.17952 94.5 
L 706.78656 84.4704 
L 708.3936 85.3776 
L 710.00064 78.372 
L 711.60768 69.6024 
L 713.21472 80.6904 
L 714.82176 77.7168 
L 716.4288 78.372 
L 718.03584 82.5048 
L 719.64288 69.552 
L 721.24992 78.1704 
L 722.85696 83.8656 
L 724.464 93.9456 
L 726.07104 105.6888 
L 727.67808 93.8448 
L 729.28512 73.9872 
L 730.89216 81.3456 
L 732.4992 85.3272 
L 734.10624 81.4464 
L 735.71328 79.4808 
L 737.32032 76.7592 
L 738.92736 76.4064 
L 740.5344 72.6768 
L 742.14144 76.7088 
L 743.74848 73.7856 
L 745.35552 83.664 
L 746.96256 75.348 
L 748.5696 73.7856 
L 750.17664 84.7224 
L 751.78368 79.6824 
L 753.39072 85.8816 
L 754.99776 72.2736 
L 756.6048 63.7056 
L 758.21184 65.1168 
L 759.81888 69.804 
L 761.42592 88.2504 
L 763.03296 85.5288 
L 764.64 85.4784 
L 766.24704 90.72 
L 767.85408 87.3936 
L 769.46112 93.7944 
L 771.06816 93.8448 
L 772.6752 89.5608 
L 774.28224 80.7912 
L 775.88928 81.7992 
L 777.49632 84.7224 
L 779.10336 83.16 
L 780.7104 87.4944 
L 782.31744 98.3808 
L 783.92448 90.1656 
L 785.53152 76.4064 
L 787.13856 74.8944 
L 788.7456 68.9976 
L 790.35264 65.772 
L 791.95968 80.64 
L 793.56672 79.632 
L 795.17376 76.2552 
L 796.7808 74.6928 
L 798.38784 82.3032 
L 799.99488 84.168 
L 801.60192 86.8896 
L 803.20896 87.9984 
L 804.816 87.948 
L 806.42304 85.3776 
L 808.03008 73.5336 
L 809.63712 66.528 
L 811.24416 65.1168 
L 812.8512 67.1328 
L 814.45824 76.1544 
L 816.06528 82.2528 
L 817.67232 83.4624 
L 819.27936 85.1256 
L 820.8864 78.5736 
L 822.49344 79.5816 
L 824.10048 76.7088 
L 825.70752 79.5312 
L 827.31456 76.608 
L 828.9216 73.2312 
L 830.52864 75.9024 
L 832.13568 75.7008 
L 833.74272 71.2152 
L 835.34976 63.6048 
L 836.9568 67.6368 
L 838.56384 70.812 
L 840.17088 69.9048 
L 841.77792 71.2152 
L 843.38496 73.2312 
L 844.992 71.7696 
L 846.59904 80.388 
L 848.20608 76.5576 
L 849.81312 76.5576 
L 851.42016 69.9552 
L 853.0272 71.568 
L 854.63424 66.8808 
L 856.24128 70.1064 
L 857.84832 73.7352 
L 859.45536 78.372 
L 861.0624 75.348 
L 862.66944 77.1624 
L 864.27648 79.7328 
L 865.88352 83.8152 
L 867.49056 85.0248 
L 869.0976 76.9608 
L 870.70464 87.6456 
L 872.31168 83.1096 
L 873.91872 80.5392 
L 875.52576 77.364 
L 877.1328 73.2312 
L 878.73984 72.1728 
L 880.34688 72.072 
L 881.95392 71.568 
L 883.56096 74.9448 
L 885.168 81.4968 
L 886.77504 83.2104 
L 888.38208 77.5152 
L 889.98912 77.2632 
L 891.59616 75.6 
L 893.2032 74.5416 
L 894.81024 78.12 
L 896.41728 77.9688 
L 898.02432 71.2656 
L 899.63136 73.0296 
L 901.2384 77.9688 
L 902.84544 76.3056 
L 904.45248 80.9928 
L 906.05952 75.7008 
L 907.66656 69.4008 
L 909.2736 71.4672 
L 910.88064 68.796 
L 912.48768 71.4168 
L 914.09472 73.6344 
L 915.70176 80.0856 
L 917.3088 82.908 
L 918.91584 82.404 
L 920.52288 78.0192 
L 922.12992 77.9184 
L 923.73696 70.56 
L 925.344 73.8864 
L 926.95104 70.1064 
L 928.55808 72.828 
L 930.16512 76.356 
L 931.77216 79.38 
L 933.3792 78.372 
L 934.98624 82.0008 
L 936.59328 79.4808 
L 938.20032 74.6928 
L 939.80736 73.4328 
L 943.02144 79.884 
L 944.62848 84.7224 
L 946.23552 95.8104 
L 947.84256 95.6592 
L 949.4496 85.3272 
L 951.05664 87.2424 
L 952.66368 85.6296 
L 954.27072 80.2872 
L 955.87776 66.1248 
L 957.4848 61.992 
L 959.09184 64.6632 
L 960.69888 69.9552 
L 962.30592 72.5256 
L 963.91296 72.9792 
L 963.91296 72.9792 
" style="fill:none;stroke:#0000ff;stroke-linecap:square;"/>
   </g>
   <g id="line2d_2">
    <path clip-path="url(#p6f1f15f98f)" d="M 162 115.3152 
L 163.60704 110.5776 
L 165.21408 98.8848 
L 166.82112 94.6512 
L 168.42816 92.6352 
L 170.0352 94.0464 
L 171.64224 98.7336 
L 173.24928 100.0944 
L 174.85632 98.6832 
L 176.46336 99.54 
L 178.0704 96.012 
L 179.67744 99.036 
L 181.28448 96.9192 
L 182.89152 97.02 
L 184.49856 97.8264 
L 186.1056 97.9272 
L 187.71264 102.1608 
L 189.31968 104.1768 
L 190.92672 105.1848 
L 192.53376 105.6384 
L 194.1408 107.6544 
L 195.74784 107.5032 
L 197.35488 109.2672 
L 198.96192 107.4528 
L 200.56896 107.604 
L 202.176 108.612 
L 203.78304 110.9304 
L 205.39008 113.652 
L 206.99712 116.9784 
L 208.60416 118.3896 
L 211.81824 122.976 
L 213.42528 125.2944 
L 215.03232 128.52 
L 216.63936 130.032 
L 218.2464 132.3 
L 219.85344 132.4008 
L 221.46048 135.1224 
L 223.06752 133.9632 
L 224.67456 134.0136 
L 226.2816 133.8624 
L 229.49568 134.1144 
L 231.10272 133.5096 
L 232.70976 133.4592 
L 234.3168 133.6104 
L 235.92384 134.0136 
L 237.53088 133.812 
L 239.13792 134.82 
L 240.74496 135.1728 
L 242.352 134.82 
L 243.95904 136.3824 
L 245.56608 136.2816 
L 247.17312 137.2896 
L 248.78016 136.7352 
L 250.3872 136.8864 
L 251.99424 136.8864 
L 253.60128 138.1464 
L 255.20832 139.0536 
L 256.81536 137.592 
L 258.4224 137.9448 
L 260.02944 138.9528 
L 261.63648 137.2896 
L 263.24352 136.9872 
L 264.85056 138.9024 
L 266.4576 136.08 
L 268.06464 137.3904 
L 269.67168 138.348 
L 271.27872 138.2472 
L 272.88576 137.34 
L 274.4928 137.4408 
L 276.09984 137.9448 
L 277.70688 138.9528 
L 279.31392 139.0536 
L 280.92096 138.7512 
L 282.528 139.6584 
L 284.13504 139.6584 
L 285.74208 138.9528 
L 287.34912 139.4064 
L 288.95616 140.9184 
L 292.17024 142.3296 
L 293.77728 141.5736 
L 295.38432 139.9104 
L 296.99136 139.4568 
L 298.5984 139.7592 
L 300.20544 140.2128 
L 303.41952 140.1624 
L 305.02656 141.0696 
L 308.24064 141.9768 
L 311.45472 141.8256 
L 314.6688 141.8256 
L 316.27584 142.4304 
L 317.88288 142.4304 
L 319.48992 142.1784 
L 321.09696 142.1784 
L 322.704 141.9768 
L 324.31104 141.4728 
L 325.91808 141.2208 
L 327.52512 140.5656 
L 329.13216 139.4064 
L 330.7392 139.8096 
L 332.34624 139.4568 
L 333.95328 140.2128 
L 335.56032 140.0112 
L 337.16736 137.3904 
L 338.7744 138.3984 
L 340.38144 139.2552 
L 341.98848 139.5576 
L 343.59552 139.2048 
L 345.20256 139.3056 
L 346.8096 140.4648 
L 348.41664 139.86 
L 350.02368 138.0456 
L 351.63072 138.6 
L 354.8448 137.592 
L 356.45184 137.9952 
L 359.66592 136.8864 
L 362.88 136.9872 
L 364.48704 137.34 
L 366.09408 136.6848 
L 369.30816 136.6344 
L 370.9152 136.5336 
L 374.12928 136.8864 
L 375.73632 136.7352 
L 378.9504 136.9368 
L 380.55744 136.4832 
L 382.16448 136.584 
L 383.77152 136.332 
L 385.37856 136.7352 
L 386.9856 135.9792 
L 390.19968 136.6344 
L 391.80672 136.8864 
L 393.41376 136.9872 
L 395.0208 136.7856 
L 396.62784 136.0296 
L 398.23488 136.0296 
L 401.44896 136.332 
L 403.056 136.7352 
L 404.66304 136.2816 
L 406.27008 136.3824 
L 407.87712 136.1304 
L 409.48416 136.7352 
L 411.0912 136.836 
L 415.91232 137.5416 
L 417.51936 136.7856 
L 420.73344 136.5336 
L 422.34048 136.9368 
L 423.94752 136.7352 
L 425.55456 137.1384 
L 427.1616 137.1888 
L 428.76864 136.7352 
L 430.37568 136.4832 
L 431.98272 136.6344 
L 433.58976 136.6344 
L 435.1968 136.08 
L 438.41088 136.1808 
L 440.01792 135.9792 
L 441.62496 135.9288 
L 444.83904 134.82 
L 446.44608 134.7696 
L 448.05312 134.8704 
L 449.66016 134.82 
L 451.2672 135.5256 
L 452.87424 135.7776 
L 454.48128 135.8784 
L 456.08832 135.5256 
L 457.69536 135.5256 
L 459.3024 135.7776 
L 460.90944 135.3744 
L 462.51648 135.4248 
L 465.73056 135.0216 
L 467.3376 135.2736 
L 470.55168 135.2232 
L 472.15872 135.2736 
L 475.3728 135.9792 
L 483.408 136.4328 
L 485.01504 136.2312 
L 486.62208 136.584 
L 488.22912 136.7352 
L 489.83616 136.6848 
L 491.4432 137.2896 
L 494.65728 137.3904 
L 496.26432 137.6424 
L 499.4784 137.7432 
L 501.08544 137.34 
L 502.69248 137.2392 
L 504.29952 136.7856 
L 509.12064 136.8864 
L 512.33472 136.8864 
L 517.15584 137.088 
L 518.76288 136.7352 
L 520.36992 136.584 
L 521.97696 136.584 
L 523.584 137.3904 
L 530.01216 137.34 
L 531.6192 137.1888 
L 539.6544 137.2392 
L 541.26144 137.0376 
L 547.6896 136.8864 
L 549.29664 136.584 
L 555.7248 136.584 
L 558.93888 136.3824 
L 563.76 136.4328 
L 566.97408 136.3824 
L 570.18816 136.2816 
L 571.7952 136.2816 
L 573.40224 135.828 
L 575.00928 135.7776 
L 576.61632 135.8784 
L 578.22336 135.7776 
L 579.8304 136.0296 
L 581.43744 135.6768 
L 583.04448 135.7776 
L 586.25856 135.7776 
L 587.8656 135.7776 
L 591.07968 135.2736 
L 595.9008 135.324 
L 597.50784 135.324 
L 599.11488 135.1728 
L 600.72192 135.1728 
L 605.54304 135.5256 
L 607.15008 135.1224 
L 608.75712 135.2232 
L 610.36416 134.9712 
L 611.9712 135.0216 
L 613.57824 134.8704 
L 626.43456 134.8704 
L 628.0416 135.072 
L 632.86272 135.1224 
L 634.46976 135.2736 
L 636.0768 135.072 
L 640.89792 135.1728 
L 642.50496 134.7696 
L 644.112 134.8704 
L 645.71904 134.4672 
L 648.93312 134.4672 
L 652.1472 134.2152 
L 653.75424 133.6608 
L 656.96832 133.7616 
L 660.1824 133.4088 
L 661.78944 133.3584 
L 663.39648 133.056 
L 666.61056 133.0056 
L 668.2176 133.056 
L 669.82464 133.308 
L 681.07392 133.2072 
L 684.288 133.2072 
L 769.46112 133.2072 
L 771.06816 133.3584 
L 819.27936 133.3584 
L 820.8864 133.1064 
L 827.31456 133.0056 
L 836.9568 132.9048 
L 841.77792 132.8544 
L 867.49056 132.804 
L 869.0976 132.6024 
L 883.56096 132.5016 
L 886.77504 132.048 
L 894.81024 132.2496 
L 898.02432 132.2496 
L 899.63136 132.2496 
L 901.2384 132.4512 
L 904.45248 132.5016 
L 906.05952 132.3 
L 912.48768 132.3504 
L 914.09472 131.5944 
L 917.3088 131.6952 
L 922.12992 131.796 
L 923.73696 132.7536 
L 931.77216 132.9048 
L 933.3792 132.7536 
L 936.59328 132.804 
L 938.20032 132.2496 
L 941.4144 132.3504 
L 944.62848 132.3504 
L 946.23552 132.1488 
L 949.4496 132.1488 
L 951.05664 131.6952 
L 954.27072 131.7456 
L 955.87776 131.6952 
L 957.4848 131.3928 
L 960.69888 131.4432 
L 962.30592 131.796 
L 963.91296 131.8464 
L 963.91296 131.8464 
" style="fill:none;stroke:#008000;stroke-linecap:square;"/>
   </g>
   <g id="line2d_3">
    <path clip-path="url(#p6f1f15f98f)" d="M 162 104.2272 
L 163.60704 159.3648 
L 165.21408 233.0496 
L 166.82112 286.8768 
L 168.42816 281.232 
L 170.0352 278.4096 
L 171.64224 299.376 
L 173.24928 309.204 
L 174.85632 323.7696 
L 176.46336 332.4888 
L 178.0704 335.8152 
L 179.67744 329.0616 
L 181.28448 327.7008 
L 182.89152 327.7512 
L 186.1056 334.656 
L 187.71264 340.2 
L 189.31968 342.4176 
L 190.92672 346.5504 
L 192.53376 356.2272 
L 194.1408 361.7712 
L 195.74784 360.108 
L 197.35488 356.5296 
L 198.96192 357.2352 
L 200.56896 346.5 
L 202.176 348.768 
L 205.39008 365.5512 
L 206.99712 366.3576 
L 208.60416 348.768 
L 210.2112 348.2136 
L 211.81824 358.4448 
L 213.42528 362.7288 
L 215.03232 356.3784 
L 216.63936 349.0704 
L 218.2464 349.9776 
L 219.85344 360.7128 
L 221.46048 364.9464 
L 223.06752 362.88 
L 224.67456 360.612 
L 226.2816 357.7392 
L 227.88864 352.296 
L 231.10272 365.3496 
L 232.70976 370.6416 
L 234.3168 368.5752 
L 235.92384 370.8936 
L 237.53088 370.944 
L 239.13792 370.188 
L 240.74496 362.2248 
L 242.352 361.4184 
L 243.95904 365.5008 
L 245.56608 361.7712 
L 247.17312 361.6704 
L 248.78016 357.5376 
L 250.3872 365.0976 
L 251.99424 367.7184 
L 253.60128 364.4928 
L 255.20832 344.484 
L 256.81536 353.3544 
L 258.4224 371.0448 
L 260.02944 377.0424 
L 261.63648 371.2968 
L 263.24352 367.5168 
L 264.85056 371.9016 
L 266.4576 381.7296 
L 268.06464 378.6048 
L 269.67168 374.8752 
L 271.27872 375.3792 
L 272.88576 376.488 
L 274.4928 377.9496 
L 276.09984 368.2224 
L 277.70688 371.9016 
L 279.31392 380.4696 
L 280.92096 381.3264 
L 282.528 378.756 
L 284.13504 371.8512 
L 285.74208 373.3128 
L 287.34912 372.1032 
L 288.95616 366.9624 
L 292.17024 368.4744 
L 293.77728 373.8168 
L 295.38432 378.0504 
L 298.5984 367.8696 
L 300.20544 366.0552 
L 301.81248 375.732 
L 303.41952 379.512 
L 305.02656 378.5544 
L 306.6336 376.4376 
L 308.24064 377.2944 
L 309.84768 379.1088 
L 311.45472 380.2176 
L 314.6688 380.5704 
L 316.27584 382.536 
L 317.88288 378.5544 
L 321.09696 382.2336 
L 322.704 382.3344 
L 324.31104 376.7904 
L 325.91808 375.6312 
L 327.52512 382.032 
L 329.13216 386.1648 
L 330.7392 384.552 
L 332.34624 384.9552 
L 333.95328 386.064 
L 335.56032 377.9496 
L 337.16736 377.3952 
L 338.7744 373.968 
L 340.38144 374.724 
L 341.98848 374.724 
L 343.59552 372.6072 
L 345.20256 378 
L 346.8096 381.78 
L 348.41664 376.3872 
L 350.02368 375.48 
L 351.63072 380.6712 
L 353.23776 386.9208 
L 354.8448 387.6768 
L 356.45184 386.9712 
L 358.05888 373.9176 
L 359.66592 370.5408 
L 362.88 387.1224 
L 364.48704 387.9288 
L 366.09408 386.82 
L 367.70112 386.4168 
L 369.30816 387.828 
L 370.9152 391.6584 
L 372.52224 393.624 
L 374.12928 390.096 
L 375.73632 394.4808 
L 377.34336 398.2608 
L 378.9504 399.5712 
L 380.55744 388.08 
L 382.16448 383.292 
L 383.77152 391.5576 
L 385.37856 397.0008 
L 386.9856 394.9344 
L 388.59264 394.7832 
L 391.80672 402.0912 
L 393.41376 396.5976 
L 395.0208 394.128 
L 396.62784 390.6504 
L 398.23488 393.7248 
L 399.84192 395.892 
L 401.44896 395.892 
L 404.66304 394.5312 
L 406.27008 394.7832 
L 407.87712 396.7488 
L 409.48416 389.1384 
L 411.0912 393.5736 
L 412.69824 397.152 
L 414.30528 399.0168 
L 415.91232 397.908 
L 417.51936 397.404 
L 419.1264 398.3112 
L 420.73344 400.176 
L 422.34048 400.8312 
L 423.94752 400.0752 
L 425.55456 400.3272 
L 428.76864 403.2504 
L 430.37568 403.2 
L 431.98272 387.6768 
L 433.58976 392.5656 
L 435.1968 400.5792 
L 436.80384 403.5528 
L 438.41088 396.648 
L 440.01792 396.7992 
L 441.62496 396.1944 
L 443.232 385.0056 
L 444.83904 393.3216 
L 446.44608 398.9664 
L 448.05312 397.3536 
L 449.66016 395.136 
L 451.2672 395.0352 
L 454.48128 399.924 
L 456.08832 398.3616 
L 457.69536 398.412 
L 460.90944 402.4944 
L 462.51648 403.452 
L 464.12352 403.6536 
L 465.73056 403.5528 
L 468.94464 404.7624 
L 470.55168 405.0144 
L 472.15872 405.0144 
L 476.97984 405.4176 
L 478.58688 398.3616 
L 480.19392 390.4488 
L 483.408 403.9056 
L 485.01504 404.1072 
L 486.62208 400.5288 
L 488.22912 399.5712 
L 489.83616 401.4864 
L 491.4432 403.956 
L 493.05024 404.3592 
L 494.65728 403.956 
L 496.26432 404.2584 
L 497.87136 402.192 
L 501.08544 405.0144 
L 502.69248 405.216 
L 504.29952 404.8128 
L 505.90656 404.8128 
L 507.5136 405.5688 
L 509.12064 405.8712 
L 510.72768 405.5688 
L 512.33472 405.8712 
L 513.94176 405.8712 
L 515.5488 405.6696 
L 518.76288 405.972 
L 554.11776 405.972 
L 555.7248 405.3672 
L 557.33184 398.664 
L 560.54592 403.704 
L 562.15296 403.6536 
L 565.36704 400.3776 
L 566.97408 399.7224 
L 571.7952 400.2264 
L 573.40224 399.9744 
L 575.00928 399.4704 
L 576.61632 398.7648 
L 578.22336 399.2688 
L 579.8304 399.9744 
L 583.04448 400.1256 
L 586.25856 400.8816 
L 587.8656 400.5288 
L 592.68672 400.8816 
L 597.50784 401.436 
L 602.32896 401.5872 
L 603.936 401.4864 
L 607.15008 401.688 
L 608.75712 401.7888 
L 610.36416 401.688 
L 618.39936 401.8392 
L 719.64288 401.94 
L 721.24992 394.7832 
L 722.85696 394.7832 
L 724.464 398.7144 
L 726.07104 401.7888 
L 729.28512 397.404 
L 730.89216 396.0432 
L 732.4992 397.0008 
L 734.10624 398.5128 
L 735.71328 399.1176 
L 738.92736 400.0248 
L 740.5344 399.924 
L 742.14144 400.0752 
L 743.74848 400.5288 
L 745.35552 400.7808 
L 748.5696 400.8816 
L 750.17664 389.34 
L 751.78368 393.372 
L 753.39072 397.1016 
L 754.99776 398.0592 
L 756.6048 396.8496 
L 758.21184 394.884 
L 759.81888 394.5816 
L 761.42592 395.9424 
L 763.03296 397.5048 
L 764.64 398.3616 
L 766.24704 398.2104 
L 767.85408 397.7568 
L 769.46112 397.656 
L 772.6752 398.8152 
L 777.49632 398.6136 
L 780.7104 399.0168 
L 783.92448 398.916 
L 787.13856 399.0672 
L 833.74272 399.1176 
L 835.34976 396.9 
L 836.9568 392.7168 
L 838.56384 395.4384 
L 840.17088 396.9 
L 843.38496 394.2792 
L 844.992 379.3104 
L 846.59904 381.8808 
L 848.20608 387.072 
L 849.81312 390.7512 
L 851.42016 388.4328 
L 853.0272 387.576 
L 854.63424 388.584 
L 856.24128 390.4992 
L 857.84832 391.356 
L 859.45536 390.9024 
L 861.0624 391.4568 
L 862.66944 392.6664 
L 864.27648 394.128 
L 865.88352 394.5312 
L 867.49056 395.0856 
L 869.0976 395.0352 
L 870.70464 394.128 
L 872.31168 393.624 
L 873.91872 394.0272 
L 875.52576 395.0352 
L 877.1328 394.8336 
L 878.73984 394.4808 
L 880.34688 394.632 
L 881.95392 395.0352 
L 886.77504 397.5048 
L 889.98912 398.916 
L 891.59616 399.3192 
L 899.63136 400.2264 
L 904.45248 400.428 
L 910.88064 400.5288 
L 963.91296 400.5792 
L 963.91296 400.5792 
" style="fill:none;stroke:#ff0000;stroke-linecap:square;"/>
   </g>
   <g id="patch_3">
    <path d="M 162 50.4 
L 965.52 50.4 
" style="fill:none;stroke:#000000;stroke-linecap:square;stroke-linejoin:miter;"/>
   </g>
   <g id="patch_4">
    <path d="M 965.52 453.6 
L 965.52 50.4 
" style="fill:none;stroke:#000000;stroke-linecap:square;stroke-linejoin:miter;"/>
   </g>
   <g id="patch_5">
    <path d="M 162 453.6 
L 965.52 453.6 
" style="fill:none;stroke:#000000;stroke-linecap:square;stroke-linejoin:miter;"/>
   </g>
   <g id="patch_6">
    <path d="M 162 453.6 
L 162 50.4 
" style="fill:none;stroke:#000000;stroke-linecap:square;stroke-linejoin:miter;"/>
   </g>
   <g id="matplotlib.axis_1">
    <g id="xtick_1">
     <g id="line2d_4">
      <defs>
       <path d="M 0 0 
L 0 -4 
" id="mfc7a2e9f05" style="stroke:#000000;stroke-width:0.5;"/>
      </defs>
      <g>
       <use style="stroke:#000000;stroke-width:0.5;" x="162.0" xlink:href="#mfc7a2e9f05" y="453.6"/>
      </g>
     </g>
     <g id="line2d_5">
      <defs>
       <path d="M 0 0 
L 0 4 
" id="md58bd22fc9" style="stroke:#000000;stroke-width:0.5;"/>
      </defs>
      <g>
       <use style="stroke:#000000;stroke-width:0.5;" x="162.0" xlink:href="#md58bd22fc9" y="50.4"/>
      </g>
     </g>
     <g id="text_1">
      <!-- 0 -->
      <defs>
       <path d="M 31.78125 66.40625 
Q 24.171875 66.40625 20.328125 58.90625 
Q 16.5 51.421875 16.5 36.375 
Q 16.5 21.390625 20.328125 13.890625 
Q 24.171875 6.390625 31.78125 6.390625 
Q 39.453125 6.390625 43.28125 13.890625 
Q 47.125 21.390625 47.125 36.375 
Q 47.125 51.421875 43.28125 58.90625 
Q 39.453125 66.40625 31.78125 66.40625 
M 31.78125 74.21875 
Q 44.046875 74.21875 50.515625 64.515625 
Q 56.984375 54.828125 56.984375 36.375 
Q 56.984375 17.96875 50.515625 8.265625 
Q 44.046875 -1.421875 31.78125 -1.421875 
Q 19.53125 -1.421875 13.0625 8.265625 
Q 6.59375 17.96875 6.59375 36.375 
Q 6.59375 54.828125 13.0625 64.515625 
Q 19.53125 74.21875 31.78125 74.21875 
" id="BitstreamVeraSans-Roman-30"/>
      </defs>
      <g transform="translate(158.1825 466.718125)scale(0.12 -0.12)">
       <use xlink:href="#BitstreamVeraSans-Roman-30"/>
      </g>
     </g>
    </g>
    <g id="xtick_2">
     <g id="line2d_6">
      <g>
       <use style="stroke:#000000;stroke-width:0.5;" x="322.704" xlink:href="#mfc7a2e9f05" y="453.6"/>
      </g>
     </g>
     <g id="line2d_7">
      <g>
       <use style="stroke:#000000;stroke-width:0.5;" x="322.704" xlink:href="#md58bd22fc9" y="50.4"/>
      </g>
     </g>
     <g id="text_2">
      <!-- 100 -->
      <defs>
       <path d="M 12.40625 8.296875 
L 28.515625 8.296875 
L 28.515625 63.921875 
L 10.984375 60.40625 
L 10.984375 69.390625 
L 28.421875 72.90625 
L 38.28125 72.90625 
L 38.28125 8.296875 
L 54.390625 8.296875 
L 54.390625 0 
L 12.40625 0 
z
" id="BitstreamVeraSans-Roman-31"/>
      </defs>
      <g transform="translate(311.2515 466.718125)scale(0.12 -0.12)">
       <use xlink:href="#BitstreamVeraSans-Roman-31"/>
       <use x="63.623046875" xlink:href="#BitstreamVeraSans-Roman-30"/>
       <use x="127.24609375" xlink:href="#BitstreamVeraSans-Roman-30"/>
      </g>
     </g>
    </g>
    <g id="xtick_3">
     <g id="line2d_8">
      <g>
       <use style="stroke:#000000;stroke-width:0.5;" x="483.408" xlink:href="#mfc7a2e9f05" y="453.6"/>
      </g>
     </g>
     <g id="line2d_9">
      <g>
       <use style="stroke:#000000;stroke-width:0.5;" x="483.408" xlink:href="#md58bd22fc9" y="50.4"/>
      </g>
     </g>
     <g id="text_3">
      <!-- 200 -->
      <defs>
       <path d="M 19.1875 8.296875 
L 53.609375 8.296875 
L 53.609375 0 
L 7.328125 0 
L 7.328125 8.296875 
Q 12.9375 14.109375 22.625 23.890625 
Q 32.328125 33.6875 34.8125 36.53125 
Q 39.546875 41.84375 41.421875 45.53125 
Q 43.3125 49.21875 43.3125 52.78125 
Q 43.3125 58.59375 39.234375 62.25 
Q 35.15625 65.921875 28.609375 65.921875 
Q 23.96875 65.921875 18.8125 64.3125 
Q 13.671875 62.703125 7.8125 59.421875 
L 7.8125 69.390625 
Q 13.765625 71.78125 18.9375 73 
Q 24.125 74.21875 28.421875 74.21875 
Q 39.75 74.21875 46.484375 68.546875 
Q 53.21875 62.890625 53.21875 53.421875 
Q 53.21875 48.921875 51.53125 44.890625 
Q 49.859375 40.875 45.40625 35.40625 
Q 44.1875 33.984375 37.640625 27.21875 
Q 31.109375 20.453125 19.1875 8.296875 
" id="BitstreamVeraSans-Roman-32"/>
      </defs>
      <g transform="translate(471.9555 466.718125)scale(0.12 -0.12)">
       <use xlink:href="#BitstreamVeraSans-Roman-32"/>
       <use x="63.623046875" xlink:href="#BitstreamVeraSans-Roman-30"/>
       <use x="127.24609375" xlink:href="#BitstreamVeraSans-Roman-30"/>
      </g>
     </g>
    </g>
    <g id="xtick_4">
     <g id="line2d_10">
      <g>
       <use style="stroke:#000000;stroke-width:0.5;" x="644.112" xlink:href="#mfc7a2e9f05" y="453.6"/>
      </g>
     </g>
     <g id="line2d_11">
      <g>
       <use style="stroke:#000000;stroke-width:0.5;" x="644.112" xlink:href="#md58bd22fc9" y="50.4"/>
      </g>
     </g>
     <g id="text_4">
      <!-- 300 -->
      <defs>
       <path d="M 40.578125 39.3125 
Q 47.65625 37.796875 51.625 33 
Q 55.609375 28.21875 55.609375 21.1875 
Q 55.609375 10.40625 48.1875 4.484375 
Q 40.765625 -1.421875 27.09375 -1.421875 
Q 22.515625 -1.421875 17.65625 -0.515625 
Q 12.796875 0.390625 7.625 2.203125 
L 7.625 11.71875 
Q 11.71875 9.328125 16.59375 8.109375 
Q 21.484375 6.890625 26.8125 6.890625 
Q 36.078125 6.890625 40.9375 10.546875 
Q 45.796875 14.203125 45.796875 21.1875 
Q 45.796875 27.640625 41.28125 31.265625 
Q 36.765625 34.90625 28.71875 34.90625 
L 20.21875 34.90625 
L 20.21875 43.015625 
L 29.109375 43.015625 
Q 36.375 43.015625 40.234375 45.921875 
Q 44.09375 48.828125 44.09375 54.296875 
Q 44.09375 59.90625 40.109375 62.90625 
Q 36.140625 65.921875 28.71875 65.921875 
Q 24.65625 65.921875 20.015625 65.03125 
Q 15.375 64.15625 9.8125 62.3125 
L 9.8125 71.09375 
Q 15.4375 72.65625 20.34375 73.4375 
Q 25.25 74.21875 29.59375 74.21875 
Q 40.828125 74.21875 47.359375 69.109375 
Q 53.90625 64.015625 53.90625 55.328125 
Q 53.90625 49.265625 50.4375 45.09375 
Q 46.96875 40.921875 40.578125 39.3125 
" id="BitstreamVeraSans-Roman-33"/>
      </defs>
      <g transform="translate(632.6595 466.718125)scale(0.12 -0.12)">
       <use xlink:href="#BitstreamVeraSans-Roman-33"/>
       <use x="63.623046875" xlink:href="#BitstreamVeraSans-Roman-30"/>
       <use x="127.24609375" xlink:href="#BitstreamVeraSans-Roman-30"/>
      </g>
     </g>
    </g>
    <g id="xtick_5">
     <g id="line2d_12">
      <g>
       <use style="stroke:#000000;stroke-width:0.5;" x="804.816" xlink:href="#mfc7a2e9f05" y="453.6"/>
      </g>
     </g>
     <g id="line2d_13">
      <g>
       <use style="stroke:#000000;stroke-width:0.5;" x="804.816" xlink:href="#md58bd22fc9" y="50.4"/>
      </g>
     </g>
     <g id="text_5">
      <!-- 400 -->
      <defs>
       <path d="M 37.796875 64.3125 
L 12.890625 25.390625 
L 37.796875 25.390625 
z
M 35.203125 72.90625 
L 47.609375 72.90625 
L 47.609375 25.390625 
L 58.015625 25.390625 
L 58.015625 17.1875 
L 47.609375 17.1875 
L 47.609375 0 
L 37.796875 0 
L 37.796875 17.1875 
L 4.890625 17.1875 
L 4.890625 26.703125 
z
" id="BitstreamVeraSans-Roman-34"/>
      </defs>
      <g transform="translate(793.3635 466.718125)scale(0.12 -0.12)">
       <use xlink:href="#BitstreamVeraSans-Roman-34"/>
       <use x="63.623046875" xlink:href="#BitstreamVeraSans-Roman-30"/>
       <use x="127.24609375" xlink:href="#BitstreamVeraSans-Roman-30"/>
      </g>
     </g>
    </g>
    <g id="xtick_6">
     <g id="line2d_14">
      <g>
       <use style="stroke:#000000;stroke-width:0.5;" x="965.52" xlink:href="#mfc7a2e9f05" y="453.6"/>
      </g>
     </g>
     <g id="line2d_15">
      <g>
       <use style="stroke:#000000;stroke-width:0.5;" x="965.52" xlink:href="#md58bd22fc9" y="50.4"/>
      </g>
     </g>
     <g id="text_6">
      <!-- 500 -->
      <defs>
       <path d="M 10.796875 72.90625 
L 49.515625 72.90625 
L 49.515625 64.59375 
L 19.828125 64.59375 
L 19.828125 46.734375 
Q 21.96875 47.46875 24.109375 47.828125 
Q 26.265625 48.1875 28.421875 48.1875 
Q 40.625 48.1875 47.75 41.5 
Q 54.890625 34.8125 54.890625 23.390625 
Q 54.890625 11.625 47.5625 5.09375 
Q 40.234375 -1.421875 26.90625 -1.421875 
Q 22.3125 -1.421875 17.546875 -0.640625 
Q 12.796875 0.140625 7.71875 1.703125 
L 7.71875 11.625 
Q 12.109375 9.234375 16.796875 8.0625 
Q 21.484375 6.890625 26.703125 6.890625 
Q 35.15625 6.890625 40.078125 11.328125 
Q 45.015625 15.765625 45.015625 23.390625 
Q 45.015625 31 40.078125 35.4375 
Q 35.15625 39.890625 26.703125 39.890625 
Q 22.75 39.890625 18.8125 39.015625 
Q 14.890625 38.140625 10.796875 36.28125 
z
" id="BitstreamVeraSans-Roman-35"/>
      </defs>
      <g transform="translate(954.0675 466.718125)scale(0.12 -0.12)">
       <use xlink:href="#BitstreamVeraSans-Roman-35"/>
       <use x="63.623046875" xlink:href="#BitstreamVeraSans-Roman-30"/>
       <use x="127.24609375" xlink:href="#BitstreamVeraSans-Roman-30"/>
      </g>
     </g>
    </g>
    <g id="text_7">
     <!-- Time -->
     <defs>
      <path d="M 56.203125 29.59375 
L 56.203125 25.203125 
L 14.890625 25.203125 
Q 15.484375 15.921875 20.484375 11.0625 
Q 25.484375 6.203125 34.421875 6.203125 
Q 39.59375 6.203125 44.453125 7.46875 
Q 49.3125 8.734375 54.109375 11.28125 
L 54.109375 2.78125 
Q 49.265625 0.734375 44.1875 -0.34375 
Q 39.109375 -1.421875 33.890625 -1.421875 
Q 20.796875 -1.421875 13.15625 6.1875 
Q 5.515625 13.8125 5.515625 26.8125 
Q 5.515625 40.234375 12.765625 48.109375 
Q 20.015625 56 32.328125 56 
Q 43.359375 56 49.78125 48.890625 
Q 56.203125 41.796875 56.203125 29.59375 
M 47.21875 32.234375 
Q 47.125 39.59375 43.09375 43.984375 
Q 39.0625 48.390625 32.421875 48.390625 
Q 24.90625 48.390625 20.390625 44.140625 
Q 15.875 39.890625 15.1875 32.171875 
z
" id="BitstreamVeraSans-Roman-65"/>
      <path d="M 9.421875 54.6875 
L 18.40625 54.6875 
L 18.40625 0 
L 9.421875 0 
z
M 9.421875 75.984375 
L 18.40625 75.984375 
L 18.40625 64.59375 
L 9.421875 64.59375 
z
" id="BitstreamVeraSans-Roman-69"/>
      <path d="M -0.296875 72.90625 
L 61.375 72.90625 
L 61.375 64.59375 
L 35.5 64.59375 
L 35.5 0 
L 25.59375 0 
L 25.59375 64.59375 
L -0.296875 64.59375 
z
" id="BitstreamVeraSans-Roman-54"/>
      <path d="M 52 44.1875 
Q 55.375 50.25 60.0625 53.125 
Q 64.75 56 71.09375 56 
Q 79.640625 56 84.28125 50.015625 
Q 88.921875 44.046875 88.921875 33.015625 
L 88.921875 0 
L 79.890625 0 
L 79.890625 32.71875 
Q 79.890625 40.578125 77.09375 44.375 
Q 74.3125 48.1875 68.609375 48.1875 
Q 61.625 48.1875 57.5625 43.546875 
Q 53.515625 38.921875 53.515625 30.90625 
L 53.515625 0 
L 44.484375 0 
L 44.484375 32.71875 
Q 44.484375 40.625 41.703125 44.40625 
Q 38.921875 48.1875 33.109375 48.1875 
Q 26.21875 48.1875 22.15625 43.53125 
Q 18.109375 38.875 18.109375 30.90625 
L 18.109375 0 
L 9.078125 0 
L 9.078125 54.6875 
L 18.109375 54.6875 
L 18.109375 46.1875 
Q 21.1875 51.21875 25.484375 53.609375 
Q 29.78125 56 35.6875 56 
Q 41.65625 56 45.828125 52.96875 
Q 50 49.953125 52 44.1875 
" id="BitstreamVeraSans-Roman-6d"/>
     </defs>
     <g transform="translate(548.895 483.331875)scale(0.12 -0.12)">
      <use xlink:href="#BitstreamVeraSans-Roman-54"/>
      <use x="61.037109375" xlink:href="#BitstreamVeraSans-Roman-69"/>
      <use x="88.8203125" xlink:href="#BitstreamVeraSans-Roman-6d"/>
      <use x="186.232421875" xlink:href="#BitstreamVeraSans-Roman-65"/>
     </g>
    </g>
   </g>
   <g id="matplotlib.axis_2">
    <g id="ytick_1">
     <g id="line2d_16">
      <defs>
       <path d="M 0 0 
L 4 0 
" id="ma1a1a6df94" style="stroke:#000000;stroke-width:0.5;"/>
      </defs>
      <g>
       <use style="stroke:#000000;stroke-width:0.5;" x="162.0" xlink:href="#ma1a1a6df94" y="453.6"/>
      </g>
     </g>
     <g id="line2d_17">
      <defs>
       <path d="M 0 0 
L -4 0 
" id="md7c699c525" style="stroke:#000000;stroke-width:0.5;"/>
      </defs>
      <g>
       <use style="stroke:#000000;stroke-width:0.5;" x="965.52" xlink:href="#md7c699c525" y="453.6"/>
      </g>
     </g>
     <g id="text_8">
      <!-- 0 -->
      <g transform="translate(150.365 456.91125)scale(0.12 -0.12)">
       <use xlink:href="#BitstreamVeraSans-Roman-30"/>
      </g>
     </g>
    </g>
    <g id="ytick_2">
     <g id="line2d_18">
      <g>
       <use style="stroke:#000000;stroke-width:0.5;" x="162.0" xlink:href="#ma1a1a6df94" y="403.2"/>
      </g>
     </g>
     <g id="line2d_19">
      <g>
       <use style="stroke:#000000;stroke-width:0.5;" x="965.52" xlink:href="#md7c699c525" y="403.2"/>
      </g>
     </g>
     <g id="text_9">
      <!-- 1 -->
      <g transform="translate(150.365 406.51125)scale(0.12 -0.12)">
       <use xlink:href="#BitstreamVeraSans-Roman-31"/>
      </g>
     </g>
    </g>
    <g id="ytick_3">
     <g id="line2d_20">
      <g>
       <use style="stroke:#000000;stroke-width:0.5;" x="162.0" xlink:href="#ma1a1a6df94" y="352.8"/>
      </g>
     </g>
     <g id="line2d_21">
      <g>
       <use style="stroke:#000000;stroke-width:0.5;" x="965.52" xlink:href="#md7c699c525" y="352.8"/>
      </g>
     </g>
     <g id="text_10">
      <!-- 2 -->
      <g transform="translate(150.365 356.11125)scale(0.12 -0.12)">
       <use xlink:href="#BitstreamVeraSans-Roman-32"/>
      </g>
     </g>
    </g>
    <g id="ytick_4">
     <g id="line2d_22">
      <g>
       <use style="stroke:#000000;stroke-width:0.5;" x="162.0" xlink:href="#ma1a1a6df94" y="302.4"/>
      </g>
     </g>
     <g id="line2d_23">
      <g>
       <use style="stroke:#000000;stroke-width:0.5;" x="965.52" xlink:href="#md7c699c525" y="302.4"/>
      </g>
     </g>
     <g id="text_11">
      <!-- 3 -->
      <g transform="translate(150.365 305.71125)scale(0.12 -0.12)">
       <use xlink:href="#BitstreamVeraSans-Roman-33"/>
      </g>
     </g>
    </g>
    <g id="ytick_5">
     <g id="line2d_24">
      <g>
       <use style="stroke:#000000;stroke-width:0.5;" x="162.0" xlink:href="#ma1a1a6df94" y="252.0"/>
      </g>
     </g>
     <g id="line2d_25">
      <g>
       <use style="stroke:#000000;stroke-width:0.5;" x="965.52" xlink:href="#md7c699c525" y="252.0"/>
      </g>
     </g>
     <g id="text_12">
      <!-- 4 -->
      <g transform="translate(150.365 255.31125)scale(0.12 -0.12)">
       <use xlink:href="#BitstreamVeraSans-Roman-34"/>
      </g>
     </g>
    </g>
    <g id="ytick_6">
     <g id="line2d_26">
      <g>
       <use style="stroke:#000000;stroke-width:0.5;" x="162.0" xlink:href="#ma1a1a6df94" y="201.6"/>
      </g>
     </g>
     <g id="line2d_27">
      <g>
       <use style="stroke:#000000;stroke-width:0.5;" x="965.52" xlink:href="#md7c699c525" y="201.6"/>
      </g>
     </g>
     <g id="text_13">
      <!-- 5 -->
      <g transform="translate(150.365 204.91125)scale(0.12 -0.12)">
       <use xlink:href="#BitstreamVeraSans-Roman-35"/>
      </g>
     </g>
    </g>
    <g id="ytick_7">
     <g id="line2d_28">
      <g>
       <use style="stroke:#000000;stroke-width:0.5;" x="162.0" xlink:href="#ma1a1a6df94" y="151.2"/>
      </g>
     </g>
     <g id="line2d_29">
      <g>
       <use style="stroke:#000000;stroke-width:0.5;" x="965.52" xlink:href="#md7c699c525" y="151.2"/>
      </g>
     </g>
     <g id="text_14">
      <!-- 6 -->
      <defs>
       <path d="M 33.015625 40.375 
Q 26.375 40.375 22.484375 35.828125 
Q 18.609375 31.296875 18.609375 23.390625 
Q 18.609375 15.53125 22.484375 10.953125 
Q 26.375 6.390625 33.015625 6.390625 
Q 39.65625 6.390625 43.53125 10.953125 
Q 47.40625 15.53125 47.40625 23.390625 
Q 47.40625 31.296875 43.53125 35.828125 
Q 39.65625 40.375 33.015625 40.375 
M 52.59375 71.296875 
L 52.59375 62.3125 
Q 48.875 64.0625 45.09375 64.984375 
Q 41.3125 65.921875 37.59375 65.921875 
Q 27.828125 65.921875 22.671875 59.328125 
Q 17.53125 52.734375 16.796875 39.40625 
Q 19.671875 43.65625 24.015625 45.921875 
Q 28.375 48.1875 33.59375 48.1875 
Q 44.578125 48.1875 50.953125 41.515625 
Q 57.328125 34.859375 57.328125 23.390625 
Q 57.328125 12.15625 50.6875 5.359375 
Q 44.046875 -1.421875 33.015625 -1.421875 
Q 20.359375 -1.421875 13.671875 8.265625 
Q 6.984375 17.96875 6.984375 36.375 
Q 6.984375 53.65625 15.1875 63.9375 
Q 23.390625 74.21875 37.203125 74.21875 
Q 40.921875 74.21875 44.703125 73.484375 
Q 48.484375 72.75 52.59375 71.296875 
" id="BitstreamVeraSans-Roman-36"/>
      </defs>
      <g transform="translate(150.365 154.51125)scale(0.12 -0.12)">
       <use xlink:href="#BitstreamVeraSans-Roman-36"/>
      </g>
     </g>
    </g>
    <g id="ytick_8">
     <g id="line2d_30">
      <g>
       <use style="stroke:#000000;stroke-width:0.5;" x="162.0" xlink:href="#ma1a1a6df94" y="100.8"/>
      </g>
     </g>
     <g id="line2d_31">
      <g>
       <use style="stroke:#000000;stroke-width:0.5;" x="965.52" xlink:href="#md7c699c525" y="100.8"/>
      </g>
     </g>
     <g id="text_15">
      <!-- 7 -->
      <defs>
       <path d="M 8.203125 72.90625 
L 55.078125 72.90625 
L 55.078125 68.703125 
L 28.609375 0 
L 18.3125 0 
L 43.21875 64.59375 
L 8.203125 64.59375 
z
" id="BitstreamVeraSans-Roman-37"/>
      </defs>
      <g transform="translate(150.365 104.11125)scale(0.12 -0.12)">
       <use xlink:href="#BitstreamVeraSans-Roman-37"/>
      </g>
     </g>
    </g>
    <g id="ytick_9">
     <g id="line2d_32">
      <g>
       <use style="stroke:#000000;stroke-width:0.5;" x="162.0" xlink:href="#ma1a1a6df94" y="50.4"/>
      </g>
     </g>
     <g id="line2d_33">
      <g>
       <use style="stroke:#000000;stroke-width:0.5;" x="965.52" xlink:href="#md7c699c525" y="50.4"/>
      </g>
     </g>
     <g id="text_16">
      <!-- 8 -->
      <defs>
       <path d="M 31.78125 34.625 
Q 24.75 34.625 20.71875 30.859375 
Q 16.703125 27.09375 16.703125 20.515625 
Q 16.703125 13.921875 20.71875 10.15625 
Q 24.75 6.390625 31.78125 6.390625 
Q 38.8125 6.390625 42.859375 10.171875 
Q 46.921875 13.96875 46.921875 20.515625 
Q 46.921875 27.09375 42.890625 30.859375 
Q 38.875 34.625 31.78125 34.625 
M 21.921875 38.8125 
Q 15.578125 40.375 12.03125 44.71875 
Q 8.5 49.078125 8.5 55.328125 
Q 8.5 64.0625 14.71875 69.140625 
Q 20.953125 74.21875 31.78125 74.21875 
Q 42.671875 74.21875 48.875 69.140625 
Q 55.078125 64.0625 55.078125 55.328125 
Q 55.078125 49.078125 51.53125 44.71875 
Q 48 40.375 41.703125 38.8125 
Q 48.828125 37.15625 52.796875 32.3125 
Q 56.78125 27.484375 56.78125 20.515625 
Q 56.78125 9.90625 50.3125 4.234375 
Q 43.84375 -1.421875 31.78125 -1.421875 
Q 19.734375 -1.421875 13.25 4.234375 
Q 6.78125 9.90625 6.78125 20.515625 
Q 6.78125 27.484375 10.78125 32.3125 
Q 14.796875 37.15625 21.921875 38.8125 
M 18.3125 54.390625 
Q 18.3125 48.734375 21.84375 45.5625 
Q 25.390625 42.390625 31.78125 42.390625 
Q 38.140625 42.390625 41.71875 45.5625 
Q 45.3125 48.734375 45.3125 54.390625 
Q 45.3125 60.0625 41.71875 63.234375 
Q 38.140625 66.40625 31.78125 66.40625 
Q 25.390625 66.40625 21.84375 63.234375 
Q 18.3125 60.0625 18.3125 54.390625 
" id="BitstreamVeraSans-Roman-38"/>
      </defs>
      <g transform="translate(150.365 53.71125)scale(0.12 -0.12)">
       <use xlink:href="#BitstreamVeraSans-Roman-38"/>
      </g>
     </g>
    </g>
    <g id="text_17">
     <!-- neighbor distance -->
     <defs>
      <path id="BitstreamVeraSans-Roman-20"/>
      <path d="M 54.890625 33.015625 
L 54.890625 0 
L 45.90625 0 
L 45.90625 32.71875 
Q 45.90625 40.484375 42.875 44.328125 
Q 39.84375 48.1875 33.796875 48.1875 
Q 26.515625 48.1875 22.3125 43.546875 
Q 18.109375 38.921875 18.109375 30.90625 
L 18.109375 0 
L 9.078125 0 
L 9.078125 54.6875 
L 18.109375 54.6875 
L 18.109375 46.1875 
Q 21.34375 51.125 25.703125 53.5625 
Q 30.078125 56 35.796875 56 
Q 45.21875 56 50.046875 50.171875 
Q 54.890625 44.34375 54.890625 33.015625 
" id="BitstreamVeraSans-Roman-6e"/>
      <path d="M 34.28125 27.484375 
Q 23.390625 27.484375 19.1875 25 
Q 14.984375 22.515625 14.984375 16.5 
Q 14.984375 11.71875 18.140625 8.90625 
Q 21.296875 6.109375 26.703125 6.109375 
Q 34.1875 6.109375 38.703125 11.40625 
Q 43.21875 16.703125 43.21875 25.484375 
L 43.21875 27.484375 
z
M 52.203125 31.203125 
L 52.203125 0 
L 43.21875 0 
L 43.21875 8.296875 
Q 40.140625 3.328125 35.546875 0.953125 
Q 30.953125 -1.421875 24.3125 -1.421875 
Q 15.921875 -1.421875 10.953125 3.296875 
Q 6 8.015625 6 15.921875 
Q 6 25.140625 12.171875 29.828125 
Q 18.359375 34.515625 30.609375 34.515625 
L 43.21875 34.515625 
L 43.21875 35.40625 
Q 43.21875 41.609375 39.140625 45 
Q 35.0625 48.390625 27.6875 48.390625 
Q 23 48.390625 18.546875 47.265625 
Q 14.109375 46.140625 10.015625 43.890625 
L 10.015625 52.203125 
Q 14.9375 54.109375 19.578125 55.046875 
Q 24.21875 56 28.609375 56 
Q 40.484375 56 46.34375 49.84375 
Q 52.203125 43.703125 52.203125 31.203125 
" id="BitstreamVeraSans-Roman-61"/>
      <path d="M 30.609375 48.390625 
Q 23.390625 48.390625 19.1875 42.75 
Q 14.984375 37.109375 14.984375 27.296875 
Q 14.984375 17.484375 19.15625 11.84375 
Q 23.34375 6.203125 30.609375 6.203125 
Q 37.796875 6.203125 41.984375 11.859375 
Q 46.1875 17.53125 46.1875 27.296875 
Q 46.1875 37.015625 41.984375 42.703125 
Q 37.796875 48.390625 30.609375 48.390625 
M 30.609375 56 
Q 42.328125 56 49.015625 48.375 
Q 55.71875 40.765625 55.71875 27.296875 
Q 55.71875 13.875 49.015625 6.21875 
Q 42.328125 -1.421875 30.609375 -1.421875 
Q 18.84375 -1.421875 12.171875 6.21875 
Q 5.515625 13.875 5.515625 27.296875 
Q 5.515625 40.765625 12.171875 48.375 
Q 18.84375 56 30.609375 56 
" id="BitstreamVeraSans-Roman-6f"/>
      <path d="M 18.3125 70.21875 
L 18.3125 54.6875 
L 36.8125 54.6875 
L 36.8125 47.703125 
L 18.3125 47.703125 
L 18.3125 18.015625 
Q 18.3125 11.328125 20.140625 9.421875 
Q 21.96875 7.515625 27.59375 7.515625 
L 36.8125 7.515625 
L 36.8125 0 
L 27.59375 0 
Q 17.1875 0 13.234375 3.875 
Q 9.28125 7.765625 9.28125 18.015625 
L 9.28125 47.703125 
L 2.6875 47.703125 
L 2.6875 54.6875 
L 9.28125 54.6875 
L 9.28125 70.21875 
z
" id="BitstreamVeraSans-Roman-74"/>
      <path d="M 54.890625 33.015625 
L 54.890625 0 
L 45.90625 0 
L 45.90625 32.71875 
Q 45.90625 40.484375 42.875 44.328125 
Q 39.84375 48.1875 33.796875 48.1875 
Q 26.515625 48.1875 22.3125 43.546875 
Q 18.109375 38.921875 18.109375 30.90625 
L 18.109375 0 
L 9.078125 0 
L 9.078125 75.984375 
L 18.109375 75.984375 
L 18.109375 46.1875 
Q 21.34375 51.125 25.703125 53.5625 
Q 30.078125 56 35.796875 56 
Q 45.21875 56 50.046875 50.171875 
Q 54.890625 44.34375 54.890625 33.015625 
" id="BitstreamVeraSans-Roman-68"/>
      <path d="M 45.40625 46.390625 
L 45.40625 75.984375 
L 54.390625 75.984375 
L 54.390625 0 
L 45.40625 0 
L 45.40625 8.203125 
Q 42.578125 3.328125 38.25 0.953125 
Q 33.9375 -1.421875 27.875 -1.421875 
Q 17.96875 -1.421875 11.734375 6.484375 
Q 5.515625 14.40625 5.515625 27.296875 
Q 5.515625 40.1875 11.734375 48.09375 
Q 17.96875 56 27.875 56 
Q 33.9375 56 38.25 53.625 
Q 42.578125 51.265625 45.40625 46.390625 
M 14.796875 27.296875 
Q 14.796875 17.390625 18.875 11.75 
Q 22.953125 6.109375 30.078125 6.109375 
Q 37.203125 6.109375 41.296875 11.75 
Q 45.40625 17.390625 45.40625 27.296875 
Q 45.40625 37.203125 41.296875 42.84375 
Q 37.203125 48.484375 30.078125 48.484375 
Q 22.953125 48.484375 18.875 42.84375 
Q 14.796875 37.203125 14.796875 27.296875 
" id="BitstreamVeraSans-Roman-64"/>
      <path d="M 45.40625 27.984375 
Q 45.40625 37.75 41.375 43.109375 
Q 37.359375 48.484375 30.078125 48.484375 
Q 22.859375 48.484375 18.828125 43.109375 
Q 14.796875 37.75 14.796875 27.984375 
Q 14.796875 18.265625 18.828125 12.890625 
Q 22.859375 7.515625 30.078125 7.515625 
Q 37.359375 7.515625 41.375 12.890625 
Q 45.40625 18.265625 45.40625 27.984375 
M 54.390625 6.78125 
Q 54.390625 -7.171875 48.1875 -13.984375 
Q 42 -20.796875 29.203125 -20.796875 
Q 24.46875 -20.796875 20.265625 -20.09375 
Q 16.0625 -19.390625 12.109375 -17.921875 
L 12.109375 -9.1875 
Q 16.0625 -11.328125 19.921875 -12.34375 
Q 23.78125 -13.375 27.78125 -13.375 
Q 36.625 -13.375 41.015625 -8.765625 
Q 45.40625 -4.15625 45.40625 5.171875 
L 45.40625 9.625 
Q 42.625 4.78125 38.28125 2.390625 
Q 33.9375 0 27.875 0 
Q 17.828125 0 11.671875 7.65625 
Q 5.515625 15.328125 5.515625 27.984375 
Q 5.515625 40.671875 11.671875 48.328125 
Q 17.828125 56 27.875 56 
Q 33.9375 56 38.28125 53.609375 
Q 42.625 51.21875 45.40625 46.390625 
L 45.40625 54.6875 
L 54.390625 54.6875 
z
" id="BitstreamVeraSans-Roman-67"/>
      <path d="M 41.109375 46.296875 
Q 39.59375 47.171875 37.8125 47.578125 
Q 36.03125 48 33.890625 48 
Q 26.265625 48 22.1875 43.046875 
Q 18.109375 38.09375 18.109375 28.8125 
L 18.109375 0 
L 9.078125 0 
L 9.078125 54.6875 
L 18.109375 54.6875 
L 18.109375 46.1875 
Q 20.953125 51.171875 25.484375 53.578125 
Q 30.03125 56 36.53125 56 
Q 37.453125 56 38.578125 55.875 
Q 39.703125 55.765625 41.0625 55.515625 
z
" id="BitstreamVeraSans-Roman-72"/>
      <path d="M 44.28125 53.078125 
L 44.28125 44.578125 
Q 40.484375 46.53125 36.375 47.5 
Q 32.28125 48.484375 27.875 48.484375 
Q 21.1875 48.484375 17.84375 46.4375 
Q 14.5 44.390625 14.5 40.28125 
Q 14.5 37.15625 16.890625 35.375 
Q 19.28125 33.59375 26.515625 31.984375 
L 29.59375 31.296875 
Q 39.15625 29.25 43.1875 25.515625 
Q 47.21875 21.78125 47.21875 15.09375 
Q 47.21875 7.46875 41.1875 3.015625 
Q 35.15625 -1.421875 24.609375 -1.421875 
Q 20.21875 -1.421875 15.453125 -0.5625 
Q 10.6875 0.296875 5.421875 2 
L 5.421875 11.28125 
Q 10.40625 8.6875 15.234375 7.390625 
Q 20.0625 6.109375 24.8125 6.109375 
Q 31.15625 6.109375 34.5625 8.28125 
Q 37.984375 10.453125 37.984375 14.40625 
Q 37.984375 18.0625 35.515625 20.015625 
Q 33.0625 21.96875 24.703125 23.78125 
L 21.578125 24.515625 
Q 13.234375 26.265625 9.515625 29.90625 
Q 5.8125 33.546875 5.8125 39.890625 
Q 5.8125 47.609375 11.28125 51.796875 
Q 16.75 56 26.8125 56 
Q 31.78125 56 36.171875 55.265625 
Q 40.578125 54.546875 44.28125 53.078125 
" id="BitstreamVeraSans-Roman-73"/>
      <path d="M 48.78125 52.59375 
L 48.78125 44.1875 
Q 44.96875 46.296875 41.140625 47.34375 
Q 37.3125 48.390625 33.40625 48.390625 
Q 24.65625 48.390625 19.8125 42.84375 
Q 14.984375 37.3125 14.984375 27.296875 
Q 14.984375 17.28125 19.8125 11.734375 
Q 24.65625 6.203125 33.40625 6.203125 
Q 37.3125 6.203125 41.140625 7.25 
Q 44.96875 8.296875 48.78125 10.40625 
L 48.78125 2.09375 
Q 45.015625 0.34375 40.984375 -0.53125 
Q 36.96875 -1.421875 32.421875 -1.421875 
Q 20.0625 -1.421875 12.78125 6.34375 
Q 5.515625 14.109375 5.515625 27.296875 
Q 5.515625 40.671875 12.859375 48.328125 
Q 20.21875 56 33.015625 56 
Q 37.15625 56 41.109375 55.140625 
Q 45.0625 54.296875 48.78125 52.59375 
" id="BitstreamVeraSans-Roman-63"/>
      <path d="M 48.6875 27.296875 
Q 48.6875 37.203125 44.609375 42.84375 
Q 40.53125 48.484375 33.40625 48.484375 
Q 26.265625 48.484375 22.1875 42.84375 
Q 18.109375 37.203125 18.109375 27.296875 
Q 18.109375 17.390625 22.1875 11.75 
Q 26.265625 6.109375 33.40625 6.109375 
Q 40.53125 6.109375 44.609375 11.75 
Q 48.6875 17.390625 48.6875 27.296875 
M 18.109375 46.390625 
Q 20.953125 51.265625 25.265625 53.625 
Q 29.59375 56 35.59375 56 
Q 45.5625 56 51.78125 48.09375 
Q 58.015625 40.1875 58.015625 27.296875 
Q 58.015625 14.40625 51.78125 6.484375 
Q 45.5625 -1.421875 35.59375 -1.421875 
Q 29.59375 -1.421875 25.265625 0.953125 
Q 20.953125 3.328125 18.109375 8.203125 
L 18.109375 0 
L 9.078125 0 
L 9.078125 75.984375 
L 18.109375 75.984375 
z
" id="BitstreamVeraSans-Roman-62"/>
     </defs>
     <g transform="translate(142.869375 306.050625)rotate(-90.0)scale(0.12 -0.12)">
      <use xlink:href="#BitstreamVeraSans-Roman-6e"/>
      <use x="63.37890625" xlink:href="#BitstreamVeraSans-Roman-65"/>
      <use x="124.90234375" xlink:href="#BitstreamVeraSans-Roman-69"/>
      <use x="152.685546875" xlink:href="#BitstreamVeraSans-Roman-67"/>
      <use x="216.162109375" xlink:href="#BitstreamVeraSans-Roman-68"/>
      <use x="279.541015625" xlink:href="#BitstreamVeraSans-Roman-62"/>
      <use x="343.017578125" xlink:href="#BitstreamVeraSans-Roman-6f"/>
      <use x="404.19921875" xlink:href="#BitstreamVeraSans-Roman-72"/>
      <use x="445.3125" xlink:href="#BitstreamVeraSans-Roman-20"/>
      <use x="477.099609375" xlink:href="#BitstreamVeraSans-Roman-64"/>
      <use x="540.576171875" xlink:href="#BitstreamVeraSans-Roman-69"/>
      <use x="568.359375" xlink:href="#BitstreamVeraSans-Roman-73"/>
      <use x="620.458984375" xlink:href="#BitstreamVeraSans-Roman-74"/>
      <use x="659.66796875" xlink:href="#BitstreamVeraSans-Roman-61"/>
      <use x="720.947265625" xlink:href="#BitstreamVeraSans-Roman-6e"/>
      <use x="784.326171875" xlink:href="#BitstreamVeraSans-Roman-63"/>
      <use x="839.306640625" xlink:href="#BitstreamVeraSans-Roman-65"/>
     </g>
    </g>
   </g>
   <g id="text_18">
    <!-- Isolated mechanisms: neighbor distance -->
    <defs>
     <path d="M 11.71875 12.40625 
L 22.015625 12.40625 
L 22.015625 0 
L 11.71875 0 
z
M 11.71875 51.703125 
L 22.015625 51.703125 
L 22.015625 39.3125 
L 11.71875 39.3125 
z
" id="BitstreamVeraSans-Roman-3a"/>
     <path d="M 9.421875 75.984375 
L 18.40625 75.984375 
L 18.40625 0 
L 9.421875 0 
z
" id="BitstreamVeraSans-Roman-6c"/>
     <path d="M 9.8125 72.90625 
L 19.671875 72.90625 
L 19.671875 0 
L 9.8125 0 
z
" id="BitstreamVeraSans-Roman-49"/>
    </defs>
    <g transform="translate(417.925125 45.4)scale(0.144 -0.144)">
     <use xlink:href="#BitstreamVeraSans-Roman-49"/>
     <use x="29.4921875" xlink:href="#BitstreamVeraSans-Roman-73"/>
     <use x="81.591796875" xlink:href="#BitstreamVeraSans-Roman-6f"/>
     <use x="142.7734375" xlink:href="#BitstreamVeraSans-Roman-6c"/>
     <use x="170.556640625" xlink:href="#BitstreamVeraSans-Roman-61"/>
     <use x="231.8359375" xlink:href="#BitstreamVeraSans-Roman-74"/>
     <use x="271.044921875" xlink:href="#BitstreamVeraSans-Roman-65"/>
     <use x="332.568359375" xlink:href="#BitstreamVeraSans-Roman-64"/>
     <use x="396.044921875" xlink:href="#BitstreamVeraSans-Roman-20"/>
     <use x="427.83203125" xlink:href="#BitstreamVeraSans-Roman-6d"/>
     <use x="525.244140625" xlink:href="#BitstreamVeraSans-Roman-65"/>
     <use x="586.767578125" xlink:href="#BitstreamVeraSans-Roman-63"/>
     <use x="641.748046875" xlink:href="#BitstreamVeraSans-Roman-68"/>
     <use x="705.126953125" xlink:href="#BitstreamVeraSans-Roman-61"/>
     <use x="766.40625" xlink:href="#BitstreamVeraSans-Roman-6e"/>
     <use x="829.78515625" xlink:href="#BitstreamVeraSans-Roman-69"/>
     <use x="857.568359375" xlink:href="#BitstreamVeraSans-Roman-73"/>
     <use x="909.66796875" xlink:href="#BitstreamVeraSans-Roman-6d"/>
     <use x="1007.08007812" xlink:href="#BitstreamVeraSans-Roman-73"/>
     <use x="1059.1796875" xlink:href="#BitstreamVeraSans-Roman-3a"/>
     <use x="1092.87109375" xlink:href="#BitstreamVeraSans-Roman-20"/>
     <use x="1124.65820312" xlink:href="#BitstreamVeraSans-Roman-6e"/>
     <use x="1188.03710938" xlink:href="#BitstreamVeraSans-Roman-65"/>
     <use x="1249.56054688" xlink:href="#BitstreamVeraSans-Roman-69"/>
     <use x="1277.34375" xlink:href="#BitstreamVeraSans-Roman-67"/>
     <use x="1340.8203125" xlink:href="#BitstreamVeraSans-Roman-68"/>
     <use x="1404.19921875" xlink:href="#BitstreamVeraSans-Roman-62"/>
     <use x="1467.67578125" xlink:href="#BitstreamVeraSans-Roman-6f"/>
     <use x="1528.85742188" xlink:href="#BitstreamVeraSans-Roman-72"/>
     <use x="1569.97070312" xlink:href="#BitstreamVeraSans-Roman-20"/>
     <use x="1601.7578125" xlink:href="#BitstreamVeraSans-Roman-64"/>
     <use x="1665.234375" xlink:href="#BitstreamVeraSans-Roman-69"/>
     <use x="1693.01757812" xlink:href="#BitstreamVeraSans-Roman-73"/>
     <use x="1745.1171875" xlink:href="#BitstreamVeraSans-Roman-74"/>
     <use x="1784.32617188" xlink:href="#BitstreamVeraSans-Roman-61"/>
     <use x="1845.60546875" xlink:href="#BitstreamVeraSans-Roman-6e"/>
     <use x="1908.984375" xlink:href="#BitstreamVeraSans-Roman-63"/>
     <use x="1963.96484375" xlink:href="#BitstreamVeraSans-Roman-65"/>
    </g>
   </g>
   <g id="legend_1">
    <g id="patch_7">
     <path d="M 972.72 117.2655 
L 1167.552 117.2655 
L 1167.552 49.536 
L 972.72 49.536 
z
" style="fill:#ffffff;stroke:#000000;stroke-linejoin:miter;"/>
    </g>
    <g id="line2d_34">
     <path d="M 982.8 61.19775 
L 1002.96 61.19775 
" style="fill:none;stroke:#0000ff;stroke-linecap:square;"/>
    </g>
    <g id="line2d_35"/>
    <g id="text_19">
     <!-- $S_w=1$, $A_w=0$, $C_w=0$ -->
     <defs>
      <path d="M 9.28125 0 
L 9.28125 3.515625 
Q 21.78125 3.515625 21.78125 6.6875 
L 21.78125 59.1875 
Q 16.609375 56.6875 8.6875 56.6875 
L 8.6875 60.203125 
Q 20.953125 60.203125 27.203125 66.609375 
L 28.609375 66.609375 
Q 28.953125 66.609375 29.265625 66.328125 
Q 29.59375 66.0625 29.59375 65.71875 
L 29.59375 6.6875 
Q 29.59375 3.515625 42.09375 3.515625 
L 42.09375 0 
z
" id="Cmr10-31"/>
      <path d="M 25 -2.203125 
Q 12.75 -2.203125 8.328125 7.875 
Q 3.90625 17.96875 3.90625 31.890625 
Q 3.90625 40.578125 5.484375 48.234375 
Q 7.078125 55.90625 11.78125 61.25 
Q 16.5 66.609375 25 66.609375 
Q 31.59375 66.609375 35.78125 63.375 
Q 39.984375 60.15625 42.1875 55.046875 
Q 44.390625 49.953125 45.1875 44.109375 
Q 46 38.28125 46 31.890625 
Q 46 23.296875 44.40625 15.796875 
Q 42.828125 8.296875 38.1875 3.046875 
Q 33.546875 -2.203125 25 -2.203125 
M 25 0.390625 
Q 30.5625 0.390625 33.296875 6.09375 
Q 36.03125 11.8125 36.671875 18.75 
Q 37.3125 25.6875 37.3125 33.5 
Q 37.3125 41.015625 36.671875 47.359375 
Q 36.03125 53.71875 33.3125 58.859375 
Q 30.609375 64.015625 25 64.015625 
Q 19.34375 64.015625 16.609375 58.828125 
Q 13.875 53.65625 13.234375 47.328125 
Q 12.59375 41.015625 12.59375 33.5 
Q 12.59375 27.9375 12.859375 23 
Q 13.140625 18.0625 14.3125 12.8125 
Q 15.484375 7.5625 18.09375 3.96875 
Q 20.703125 0.390625 25 0.390625 
" id="Cmr10-30"/>
      <path d="M 6.109375 -2.203125 
Q 5.8125 -2.203125 5.5625 -1.859375 
Q 5.328125 -1.515625 5.328125 -1.21875 
L 11.078125 22.125 
Q 11.28125 22.703125 11.921875 22.703125 
L 13.09375 22.703125 
Q 13.484375 22.703125 13.703125 22.40625 
Q 13.921875 22.125 13.921875 21.6875 
Q 13.09375 18.265625 13.09375 15.578125 
Q 13.09375 8.34375 18.0625 4.828125 
Q 23.046875 1.3125 30.609375 1.3125 
Q 33.890625 1.3125 37.0625 2.921875 
Q 40.234375 4.546875 42.59375 7.125 
Q 44.96875 9.71875 46.375 12.90625 
Q 47.796875 16.109375 47.796875 19.390625 
Q 47.796875 22.90625 45.9375 25.65625 
Q 44.09375 28.421875 40.828125 29.203125 
L 28.609375 32.421875 
Q 23.6875 33.734375 20.75 37.71875 
Q 17.828125 41.703125 17.828125 46.6875 
Q 17.828125 52.6875 21.390625 58.25 
Q 24.953125 63.8125 30.6875 67.15625 
Q 36.421875 70.515625 42.390625 70.515625 
Q 46.96875 70.515625 50.796875 68.828125 
Q 54.640625 67.140625 56.6875 63.484375 
L 62.40625 70.21875 
Q 62.984375 70.515625 63.09375 70.515625 
L 63.71875 70.515625 
Q 64.109375 70.515625 64.34375 70.171875 
Q 64.59375 69.828125 64.59375 69.484375 
L 58.796875 46.296875 
Q 58.640625 45.609375 58.015625 45.609375 
L 56.78125 45.609375 
Q 55.90625 45.609375 55.90625 46.6875 
Q 56.390625 49.859375 56.390625 52.203125 
Q 56.390625 56.84375 54.796875 60.28125 
Q 53.21875 63.71875 50.015625 65.5 
Q 46.828125 67.28125 42.09375 67.28125 
Q 38.09375 67.28125 34.125 64.984375 
Q 30.171875 62.703125 27.734375 58.890625 
Q 25.296875 55.078125 25.296875 50.984375 
Q 25.296875 47.75 27.171875 45.265625 
Q 29.046875 42.78125 32.171875 41.890625 
L 44.390625 38.71875 
Q 47.703125 37.84375 50.171875 35.625 
Q 52.640625 33.40625 53.90625 30.34375 
Q 55.171875 27.296875 55.171875 23.6875 
Q 55.171875 18.953125 53.171875 14.328125 
Q 51.171875 9.71875 47.578125 5.90625 
Q 44 2.09375 39.453125 -0.046875 
Q 34.90625 -2.203125 30.171875 -2.203125 
Q 18.265625 -2.203125 13.09375 4.78125 
L 7.515625 -1.90625 
Q 6.9375 -2.203125 6.78125 -2.203125 
z
" id="Cmmi10-53"/>
      <path d="M 11.71875 12.40625 
L 22.015625 12.40625 
L 22.015625 4 
L 14.015625 -11.625 
L 7.71875 -11.625 
L 11.71875 4 
z
" id="BitstreamVeraSans-Roman-2c"/>
      <path d="M 14.59375 21.578125 
Q 14.59375 15.578125 16.90625 11.015625 
Q 19.234375 6.453125 23.65625 3.875 
Q 28.078125 1.3125 34.078125 1.3125 
Q 40.375 1.3125 46.203125 4.53125 
Q 52.046875 7.765625 56.171875 13.15625 
Q 60.296875 18.5625 61.8125 24.609375 
Q 62.015625 25.203125 62.59375 25.203125 
L 63.8125 25.203125 
Q 64.203125 25.203125 64.453125 24.921875 
Q 64.703125 24.65625 64.703125 24.3125 
Q 64.703125 24.21875 64.59375 24.03125 
Q 62.890625 17.09375 57.984375 11.015625 
Q 53.078125 4.9375 46.234375 1.359375 
Q 39.40625 -2.203125 32.171875 -2.203125 
Q 24.359375 -2.203125 18.15625 1.3125 
Q 11.96875 4.828125 8.515625 11.078125 
Q 5.078125 17.328125 5.078125 25.203125 
Q 5.078125 33.59375 8.828125 41.8125 
Q 12.59375 50.046875 18.9375 56.46875 
Q 25.296875 62.890625 33.421875 66.703125 
Q 41.546875 70.515625 49.90625 70.515625 
Q 53.21875 70.515625 56.25 69.5 
Q 59.28125 68.5 61.859375 66.453125 
Q 64.453125 64.40625 66.109375 61.71875 
L 74.03125 70.3125 
Q 74.03125 70.515625 74.515625 70.515625 
L 75.09375 70.515625 
Q 75.484375 70.515625 75.734375 70.171875 
Q 75.984375 69.828125 75.984375 69.484375 
L 69.1875 42.484375 
Q 69.1875 41.796875 68.40625 41.796875 
L 66.609375 41.796875 
Q 65.828125 41.796875 65.828125 42.921875 
Q 66.21875 45.125 66.21875 48.1875 
Q 66.21875 53.078125 64.546875 57.390625 
Q 62.890625 61.71875 59.390625 64.359375 
Q 55.90625 67 50.875 67 
Q 42.71875 67 35.9375 62.890625 
Q 29.15625 58.796875 24.4375 52.125 
Q 19.734375 45.453125 17.15625 37.328125 
Q 14.59375 29.203125 14.59375 21.578125 
" id="Cmmi10-43"/>
      <path d="M 10.796875 11.625 
Q 10.796875 13.71875 11.359375 16.453125 
Q 11.921875 19.1875 12.59375 21.3125 
Q 13.28125 23.4375 14.90625 27.828125 
Q 16.546875 32.234375 16.703125 32.625 
Q 18.015625 36.28125 18.015625 38.625 
Q 18.015625 41.609375 15.828125 41.609375 
Q 11.859375 41.609375 9.296875 37.53125 
Q 6.734375 33.453125 5.515625 28.421875 
Q 5.328125 27.78125 4.6875 27.78125 
L 3.515625 27.78125 
Q 2.6875 27.78125 2.6875 28.71875 
L 2.6875 29 
Q 4.296875 34.96875 7.609375 39.578125 
Q 10.9375 44.1875 16.015625 44.1875 
Q 19.578125 44.1875 22.046875 41.84375 
Q 24.515625 39.5 24.515625 35.890625 
Q 24.515625 34.03125 23.6875 31.984375 
Q 22.515625 28.953125 20.921875 24.703125 
Q 19.34375 20.453125 18.453125 16.984375 
Q 17.578125 13.53125 17.578125 10.296875 
Q 17.578125 6.390625 19.625 3.953125 
Q 21.6875 1.515625 25.59375 1.515625 
Q 30.90625 1.515625 34.421875 9.625 
Q 34.28125 10.203125 34.28125 11.28125 
Q 34.28125 13.96875 35.109375 17.390625 
L 40.71875 39.890625 
Q 41.0625 41.21875 42.28125 42.15625 
Q 43.5 43.109375 44.921875 43.109375 
Q 46.09375 43.109375 47 42.328125 
Q 47.90625 41.546875 47.90625 40.28125 
Q 47.90625 39.703125 47.796875 39.5 
L 42.1875 17.1875 
Q 41.21875 13.1875 41.21875 10.015625 
Q 41.21875 6.25 42.9375 3.875 
Q 44.671875 1.515625 48.390625 1.515625 
Q 54.828125 1.515625 58.984375 10.015625 
Q 60.546875 13.03125 62.46875 18.9375 
Q 64.40625 24.859375 64.40625 27.984375 
Q 64.40625 30.859375 63.46875 32.546875 
Q 62.546875 34.234375 60.90625 36.1875 
Q 59.28125 38.140625 59.28125 39.109375 
Q 59.28125 41.015625 60.90625 42.640625 
Q 62.546875 44.28125 64.5 44.28125 
Q 66.890625 44.28125 67.9375 42.078125 
Q 69 39.890625 69 37.109375 
Q 69 33.734375 67.875 28.53125 
Q 66.75 23.34375 65.03125 18.09375 
Q 63.328125 12.84375 61.8125 9.71875 
Q 56.34375 -1.125 48.1875 -1.125 
Q 44 -1.125 40.53125 0.484375 
Q 37.0625 2.09375 35.40625 5.609375 
Q 33.796875 2.734375 31.171875 0.796875 
Q 28.5625 -1.125 25.390625 -1.125 
Q 18.796875 -1.125 14.796875 2.015625 
Q 10.796875 5.171875 10.796875 11.625 
" id="Cmmi10-77"/>
      <path d="M 4.5 0 
Q 3.515625 0 3.515625 1.3125 
Q 3.90625 3.515625 4.78125 3.515625 
Q 8.84375 3.515625 11.796875 5.125 
Q 14.75 6.734375 16.890625 10.109375 
Q 17.09375 10.296875 17.09375 10.296875 
L 52.78125 70.515625 
Q 53.5625 71.578125 54.6875 71.578125 
L 56 71.578125 
Q 56.296875 71.578125 56.59375 71.453125 
Q 56.890625 71.34375 57.109375 71.0625 
Q 57.328125 70.796875 57.328125 70.515625 
L 63.375 5.90625 
Q 63.375 5.46875 63.8125 4.59375 
Q 64.796875 3.515625 71.296875 3.515625 
Q 72.3125 3.515625 72.3125 2.203125 
Q 71.96875 0.875 71.75 0.4375 
Q 71.53125 0 70.609375 0 
L 45.609375 0 
Q 44.671875 0 44.671875 1.3125 
Q 45.21875 3.515625 46 3.515625 
Q 53.90625 3.515625 54.390625 6.203125 
L 52.875 22.703125 
L 28.21875 22.703125 
L 20.21875 9.28125 
Q 19.484375 8.203125 19.484375 6.78125 
Q 19.484375 5.03125 21.171875 4.265625 
Q 22.859375 3.515625 24.90625 3.515625 
Q 25.875 3.515625 25.875 2.203125 
Q 25.53125 0.78125 25.328125 0.390625 
Q 25.140625 0 24.21875 0 
z
M 30.171875 26.21875 
L 52.484375 26.21875 
L 49.515625 58.59375 
z
" id="Cmmi10-41"/>
      <path d="M 7.515625 13.28125 
Q 6.6875 13.28125 6.140625 13.90625 
Q 5.609375 14.546875 5.609375 15.28125 
Q 5.609375 16.109375 6.140625 16.6875 
Q 6.6875 17.28125 7.515625 17.28125 
L 70.3125 17.28125 
Q 71.046875 17.28125 71.578125 16.6875 
Q 72.125 16.109375 72.125 15.28125 
Q 72.125 14.546875 71.578125 13.90625 
Q 71.046875 13.28125 70.3125 13.28125 
z
M 7.515625 32.71875 
Q 6.6875 32.71875 6.140625 33.296875 
Q 5.609375 33.890625 5.609375 34.71875 
Q 5.609375 35.453125 6.140625 36.078125 
Q 6.6875 36.71875 7.515625 36.71875 
L 70.3125 36.71875 
Q 71.046875 36.71875 71.578125 36.078125 
Q 72.125 35.453125 72.125 34.71875 
Q 72.125 33.890625 71.578125 33.296875 
Q 71.046875 32.71875 70.3125 32.71875 
z
" id="Cmr10-3d"/>
     </defs>
     <g transform="translate(1018.8 66.23775)scale(0.144 -0.144)">
      <use transform="translate(0.0 0.421875)" xlink:href="#Cmmi10-53"/>
      <use transform="translate(61.279296875 -16.584375)scale(0.7)" xlink:href="#Cmmi10-77"/>
      <use transform="translate(135.254296875 0.421875)" xlink:href="#Cmr10-3d"/>
      <use transform="translate(230.4984375 0.421875)" xlink:href="#Cmr10-31"/>
      <use transform="translate(280.4984375 0.421875)" xlink:href="#BitstreamVeraSans-Roman-2c"/>
      <use transform="translate(312.285546875 0.421875)" xlink:href="#BitstreamVeraSans-Roman-20"/>
      <use transform="translate(344.07265625 0.421875)" xlink:href="#Cmmi10-41"/>
      <use transform="translate(419.07265625 -16.584375)scale(0.7)" xlink:href="#Cmmi10-77"/>
      <use transform="translate(493.04765625 0.421875)" xlink:href="#Cmr10-3d"/>
      <use transform="translate(588.291796875 0.421875)" xlink:href="#Cmr10-30"/>
      <use transform="translate(638.291796875 0.421875)" xlink:href="#BitstreamVeraSans-Roman-2c"/>
      <use transform="translate(670.07890625 0.421875)" xlink:href="#BitstreamVeraSans-Roman-20"/>
      <use transform="translate(701.866015625 0.421875)" xlink:href="#Cmmi10-43"/>
      <use transform="translate(773.252734375 -16.584375)scale(0.7)" xlink:href="#Cmmi10-77"/>
      <use transform="translate(847.227734375 0.421875)" xlink:href="#Cmr10-3d"/>
      <use transform="translate(942.471875 0.421875)" xlink:href="#Cmr10-30"/>
     </g>
    </g>
    <g id="line2d_36">
     <path d="M 982.8 82.33425 
L 1002.96 82.33425 
" style="fill:none;stroke:#008000;stroke-linecap:square;"/>
    </g>
    <g id="line2d_37"/>
    <g id="text_20">
     <!-- $S_w=0$, $A_w=1$, $C_w=0$ -->
     <g transform="translate(1018.8 87.37425)scale(0.144 -0.144)">
      <use transform="translate(0.0 0.421875)" xlink:href="#Cmmi10-53"/>
      <use transform="translate(61.279296875 -16.584375)scale(0.7)" xlink:href="#Cmmi10-77"/>
      <use transform="translate(135.254296875 0.421875)" xlink:href="#Cmr10-3d"/>
      <use transform="translate(230.4984375 0.421875)" xlink:href="#Cmr10-30"/>
      <use transform="translate(280.4984375 0.421875)" xlink:href="#BitstreamVeraSans-Roman-2c"/>
      <use transform="translate(312.285546875 0.421875)" xlink:href="#BitstreamVeraSans-Roman-20"/>
      <use transform="translate(344.07265625 0.421875)" xlink:href="#Cmmi10-41"/>
      <use transform="translate(419.07265625 -16.584375)scale(0.7)" xlink:href="#Cmmi10-77"/>
      <use transform="translate(493.04765625 0.421875)" xlink:href="#Cmr10-3d"/>
      <use transform="translate(588.291796875 0.421875)" xlink:href="#Cmr10-31"/>
      <use transform="translate(638.291796875 0.421875)" xlink:href="#BitstreamVeraSans-Roman-2c"/>
      <use transform="translate(670.07890625 0.421875)" xlink:href="#BitstreamVeraSans-Roman-20"/>
      <use transform="translate(701.866015625 0.421875)" xlink:href="#Cmmi10-43"/>
      <use transform="translate(773.252734375 -16.584375)scale(0.7)" xlink:href="#Cmmi10-77"/>
      <use transform="translate(847.227734375 0.421875)" xlink:href="#Cmr10-3d"/>
      <use transform="translate(942.471875 0.421875)" xlink:href="#Cmr10-30"/>
     </g>
    </g>
    <g id="line2d_38">
     <path d="M 982.8 103.47075 
L 1002.96 103.47075 
" style="fill:none;stroke:#ff0000;stroke-linecap:square;"/>
    </g>
    <g id="line2d_39"/>
    <g id="text_21">
     <!-- $S_w=0$, $A_w=0$, $C_w=1$ -->
     <g transform="translate(1018.8 108.51075)scale(0.144 -0.144)">
      <use transform="translate(0.0 0.421875)" xlink:href="#Cmmi10-53"/>
      <use transform="translate(61.279296875 -16.584375)scale(0.7)" xlink:href="#Cmmi10-77"/>
      <use transform="translate(135.254296875 0.421875)" xlink:href="#Cmr10-3d"/>
      <use transform="translate(230.4984375 0.421875)" xlink:href="#Cmr10-30"/>
      <use transform="translate(280.4984375 0.421875)" xlink:href="#BitstreamVeraSans-Roman-2c"/>
      <use transform="translate(312.285546875 0.421875)" xlink:href="#BitstreamVeraSans-Roman-20"/>
      <use transform="translate(344.07265625 0.421875)" xlink:href="#Cmmi10-41"/>
      <use transform="translate(419.07265625 -16.584375)scale(0.7)" xlink:href="#Cmmi10-77"/>
      <use transform="translate(493.04765625 0.421875)" xlink:href="#Cmr10-3d"/>
      <use transform="translate(588.291796875 0.421875)" xlink:href="#Cmr10-30"/>
      <use transform="translate(638.291796875 0.421875)" xlink:href="#BitstreamVeraSans-Roman-2c"/>
      <use transform="translate(670.07890625 0.421875)" xlink:href="#BitstreamVeraSans-Roman-20"/>
      <use transform="translate(701.866015625 0.421875)" xlink:href="#Cmmi10-43"/>
      <use transform="translate(773.252734375 -16.584375)scale(0.7)" xlink:href="#Cmmi10-77"/>
      <use transform="translate(847.227734375 0.421875)" xlink:href="#Cmr10-3d"/>
      <use transform="translate(942.471875 0.421875)" xlink:href="#Cmr10-31"/>
     </g>
    </g>
   </g>
  </g>
 </g>
 <defs>
  <clipPath id="p6f1f15f98f">
   <rect height="403.2" width="803.52" x="162.0" y="50.4"/>
  </clipPath>
 </defs>
</svg>
