<?xml version="1.0" encoding="utf-8" standalone="no"?>
<!DOCTYPE svg PUBLIC "-//W3C//DTD SVG 1.1//EN"
  "http://www.w3.org/Graphics/SVG/1.1/DTD/svg11.dtd">
<!-- Created with matplotlib (http://matplotlib.org/) -->
<svg height="504pt" version="1.1" viewBox="0 0 1296 504" width="1296pt" xmlns="http://www.w3.org/2000/svg" xmlns:xlink="http://www.w3.org/1999/xlink">
 <defs>
  <style type="text/css">
*{stroke-linecap:butt;stroke-linejoin:round;stroke-miterlimit:100000;}
  </style>
 </defs>
 <g id="figure_1">
  <g id="patch_1">
   <path d="M 0 504 
L 1296 504 
L 1296 0 
L 0 0 
z
" style="fill:#ffffff;"/>
  </g>
  <g id="axes_1">
   <g id="patch_2">
    <path d="M 162 453.6 
L 965.52 453.6 
L 965.52 50.4 
L 162 50.4 
z
" style="fill:#ffffff;"/>
   </g>
   <g id="line2d_1">
    <path clip-path="url(#p6e6f74181a)" d="M 162 240.576 
L 163.60704 338.4192 
L 165.21408 361.4688 
L 166.82112 339.8304 
L 168.42816 345.6096 
L 170.0352 331.0944 
L 173.24928 345.408 
L 174.85632 347.088 
L 176.46336 339.36 
L 178.0704 326.6592 
L 179.67744 332.976 
L 181.28448 328.944 
L 182.89152 321.888 
L 184.49856 312.2784 
L 186.1056 301.392 
L 187.71264 298.6368 
L 189.31968 308.3136 
L 190.92672 304.6176 
L 192.53376 296.5536 
L 194.1408 294.2016 
L 195.74784 311.0688 
L 198.96192 336.0672 
L 200.56896 302.8032 
L 202.176 293.2608 
L 203.78304 303.6096 
L 205.39008 312.2112 
L 206.99712 315.7056 
L 208.60416 310.3296 
L 210.2112 347.2896 
L 211.81824 355.152 
L 213.42528 344.8032 
L 215.03232 327.4656 
L 216.63936 343.7952 
L 218.2464 322.0224 
L 219.85344 330.8256 
L 221.46048 356.6976 
L 223.06752 335.7984 
L 224.67456 309.9936 
L 226.2816 308.784 
L 227.88864 323.6352 
L 229.49568 315.5712 
L 231.10272 310.2624 
L 232.70976 319.3344 
L 234.3168 304.3488 
L 235.92384 298.4352 
L 237.53088 291.4464 
L 239.13792 302.1984 
L 240.74496 280.9632 
L 242.352 292.1856 
L 243.95904 319.3344 
L 245.56608 331.968 
L 247.17312 325.248 
L 248.78016 323.9712 
L 250.3872 344.2656 
L 251.99424 360.864 
L 253.60128 315.0336 
L 255.20832 293.1264 
L 256.81536 331.3632 
L 258.4224 306.8352 
L 260.02944 274.6464 
L 261.63648 338.9568 
L 263.24352 331.2288 
L 264.85056 330.96 
L 266.4576 316.512 
L 268.06464 303.744 
L 269.67168 322.56 
L 271.27872 312.144 
L 272.88576 355.488 
L 274.4928 333.5136 
L 276.09984 303.6768 
L 277.70688 342.5184 
L 279.31392 316.7136 
L 280.92096 323.0304 
L 282.528 332.4384 
L 284.13504 338.4864 
L 285.74208 323.7024 
L 287.34912 327.6 
L 288.95616 325.5168 
L 290.5632 307.44 
L 292.17024 322.1568 
L 293.77728 355.2192 
L 295.38432 345.072 
L 296.99136 332.7072 
L 298.5984 346.416 
L 300.20544 300.2496 
L 301.81248 346.416 
L 303.41952 328.3392 
L 305.02656 332.8416 
L 306.6336 309.12 
L 308.24064 329.5488 
L 309.84768 322.9632 
L 311.45472 317.2512 
L 313.06176 336.2688 
L 314.6688 315.7728 
L 316.27584 299.9136 
L 317.88288 296.4192 
L 319.48992 299.9808 
L 321.09696 294.2016 
L 322.704 311.4048 
L 324.31104 302.5344 
L 325.91808 281.904 
L 327.52512 310.7328 
L 329.13216 336.0672 
L 330.7392 353.4048 
L 332.34624 331.4304 
L 333.95328 344.1312 
L 335.56032 351.3888 
L 337.16736 324.9792 
L 338.7744 310.7328 
L 340.38144 329.952 
L 341.98848 308.3136 
L 343.59552 314.0256 
L 345.20256 303.408 
L 346.8096 306.8352 
L 348.41664 315.6384 
L 350.02368 314.496 
L 351.63072 299.9136 
L 353.23776 321.8208 
L 354.8448 322.4928 
L 356.45184 307.5072 
L 358.05888 296.6208 
L 359.66592 315.1008 
L 361.27296 322.6944 
L 362.88 327.0624 
L 364.48704 324.5088 
L 366.09408 323.7696 
L 367.70112 323.904 
L 369.30816 328.4064 
L 370.9152 314.4288 
L 372.52224 295.0752 
L 374.12928 295.68 
L 377.34336 321.8208 
L 378.9504 333.0432 
L 380.55744 323.0976 
L 382.16448 309.12 
L 383.77152 303.0048 
L 385.37856 330.1536 
L 386.9856 311.136 
L 388.59264 325.7856 
L 390.19968 311.9424 
L 391.80672 310.7328 
L 393.41376 321.4848 
L 395.0208 329.4816 
L 396.62784 320.6784 
L 398.23488 293.1936 
L 401.44896 332.7744 
L 403.056 331.4304 
L 404.66304 320.0064 
L 406.27008 292.2528 
L 407.87712 287.8848 
L 409.48416 286.2048 
L 411.0912 326.3232 
L 412.69824 319.2 
L 414.30528 322.9632 
L 415.91232 296.1504 
L 417.51936 298.032 
L 419.1264 292.7904 
L 420.73344 274.848 
L 422.34048 279.888 
L 423.94752 310.7328 
L 425.55456 330.6912 
L 427.1616 324.24 
L 428.76864 309.3888 
L 430.37568 284.7264 
L 431.98272 314.5632 
L 433.58976 325.92 
L 436.80384 308.784 
L 438.41088 311.2704 
L 440.01792 323.904 
L 441.62496 318.6624 
L 443.232 314.0256 
L 444.83904 302.2656 
L 446.44608 314.496 
L 448.05312 327.6672 
L 449.66016 333.7824 
L 451.2672 324.9792 
L 454.48128 287.3472 
L 456.08832 289.3632 
L 457.69536 318.192 
L 459.3024 323.2992 
L 460.90944 309.7248 
L 462.51648 316.9152 
L 464.12352 322.1568 
L 465.73056 309.9936 
L 467.3376 301.056 
L 468.94464 289.2288 
L 470.55168 280.0896 
L 472.15872 285.7344 
L 473.76576 316.0416 
L 475.3728 312.8832 
L 476.97984 304.8864 
L 478.58688 311.7408 
L 480.19392 337.2096 
L 481.80096 337.8144 
L 483.408 315.9072 
L 485.01504 305.8944 
L 486.62208 302.8032 
L 488.22912 324.6432 
L 489.83616 315.4368 
L 491.4432 323.0304 
L 493.05024 340.9728 
L 494.65728 306.7008 
L 496.26432 311.6064 
L 497.87136 325.9872 
L 499.4784 322.4256 
L 501.08544 328.4064 
L 502.69248 299.04 
L 504.29952 307.6416 
L 505.90656 308.9856 
L 507.5136 299.04 
L 509.12064 322.7616 
L 510.72768 309.5232 
L 512.33472 293.8656 
L 513.94176 322.4256 
L 515.5488 337.0752 
L 517.15584 331.0272 
L 518.76288 325.5168 
L 520.36992 328.8096 
L 521.97696 336.9408 
L 523.584 322.896 
L 525.19104 328.1376 
L 526.79808 341.6448 
L 528.40512 329.7504 
L 530.01216 311.6064 
L 531.6192 314.16 
L 533.22624 305.2224 
L 534.83328 325.4496 
L 536.44032 328.8768 
L 538.04736 318.3936 
L 539.6544 340.704 
L 541.26144 342.9888 
L 542.86848 325.1136 
L 544.47552 331.3632 
L 546.08256 334.5216 
L 547.6896 337.008 
L 549.29664 329.1456 
L 550.90368 329.8176 
L 552.51072 326.4576 
L 554.11776 337.5456 
L 555.7248 337.7472 
L 557.33184 349.104 
L 558.93888 335.2608 
L 560.54592 343.1232 
L 562.15296 337.2096 
L 563.76 344.4 
L 565.36704 323.232 
L 566.97408 335.0592 
L 568.58112 334.656 
L 570.18816 323.0976 
L 571.7952 333.312 
L 573.40224 349.3728 
L 575.00928 367.0464 
L 576.61632 359.52 
L 578.22336 341.1744 
L 579.8304 320.8128 
L 581.43744 334.0512 
L 583.04448 335.7312 
L 584.65152 338.1504 
L 586.25856 303.2064 
L 587.8656 321.2832 
L 589.47264 321.6864 
L 591.07968 321.6864 
L 592.68672 317.2512 
L 594.29376 326.5248 
L 595.9008 320.7456 
L 597.50784 312.2112 
L 599.11488 290.64 
L 600.72192 316.5792 
L 602.32896 307.6416 
L 603.936 326.3232 
L 605.54304 313.2864 
L 607.15008 291.1104 
L 608.75712 307.6416 
L 610.36416 309.12 
L 611.9712 307.3728 
L 613.57824 316.848 
L 615.18528 334.992 
L 616.79232 335.7312 
L 618.39936 334.0512 
L 620.0064 335.5968 
L 621.61344 330.5568 
L 623.22048 340.0992 
L 624.82752 346.2144 
L 626.43456 349.0368 
L 628.0416 328.944 
L 629.64864 306.8352 
L 631.25568 328.608 
L 632.86272 327.1296 
L 634.46976 324.4416 
L 636.0768 324.6432 
L 637.68384 317.3856 
L 639.29088 336.0672 
L 640.89792 323.904 
L 642.50496 323.232 
L 644.112 349.7088 
L 645.71904 337.2096 
L 647.32608 309.8592 
L 648.93312 290.7072 
L 650.54016 317.6544 
L 652.1472 312.2112 
L 653.75424 321.9552 
L 655.36128 299.6448 
L 656.96832 282.7776 
L 658.57536 334.1856 
L 660.1824 312.5472 
L 661.78944 314.2272 
L 663.39648 312.2112 
L 665.00352 300.9888 
L 666.61056 313.7568 
L 668.2176 329.8176 
L 669.82464 342.384 
L 671.43168 343.728 
L 673.03872 319.0656 
L 674.64576 303.9456 
L 676.2528 343.3248 
L 677.85984 326.3232 
L 679.46688 328.2048 
L 681.07392 353.0016 
L 682.68096 324.0384 
L 684.288 273.9072 
L 685.89504 261.9456 
L 687.50208 311.9424 
L 689.10912 315.2352 
L 690.71616 316.1088 
L 692.3232 326.1888 
L 693.93024 301.4592 
L 695.53728 281.904 
L 697.14432 301.3248 
L 698.75136 311.0688 
L 700.3584 315.9744 
L 701.96544 295.4784 
L 703.57248 286.3392 
L 705.17952 342.72 
L 706.78656 364.56 
L 710.00064 318.528 
L 711.60768 287.7504 
L 713.21472 311.8752 
L 714.82176 291.0432 
L 716.4288 317.7216 
L 718.03584 355.0176 
L 719.64288 314.496 
L 721.24992 322.6944 
L 722.85696 325.7184 
L 724.464 323.8368 
L 726.07104 338.2848 
L 727.67808 345.2064 
L 729.28512 328.7424 
L 730.89216 326.4576 
L 732.4992 308.3808 
L 734.10624 286.4736 
L 735.71328 293.1264 
L 737.32032 308.8512 
L 738.92736 294.7392 
L 740.5344 305.2896 
L 742.14144 333.8496 
L 743.74848 318.4608 
L 745.35552 333.1104 
L 746.96256 337.2768 
L 748.5696 322.896 
L 750.17664 310.9344 
L 751.78368 313.2192 
L 753.39072 326.6592 
L 754.99776 317.4528 
L 756.6048 347.0208 
L 758.21184 345.3408 
L 759.81888 308.1792 
L 761.42592 301.056 
L 763.03296 305.8944 
L 764.64 315.84 
L 766.24704 318.528 
L 767.85408 309.7248 
L 769.46112 318.528 
L 771.06816 311.8752 
L 772.6752 304.2144 
L 774.28224 321.7536 
L 775.88928 304.8864 
L 777.49632 302.2656 
L 779.10336 302.5344 
L 780.7104 314.0928 
L 782.31744 337.008 
L 783.92448 316.9824 
L 785.53152 323.904 
L 787.13856 350.6496 
L 788.7456 355.9584 
L 790.35264 355.6224 
L 791.95968 348.9696 
L 793.56672 331.968 
L 795.17376 349.2384 
L 796.7808 333.7824 
L 798.38784 340.9056 
L 799.99488 320.7456 
L 801.60192 323.2992 
L 803.20896 330.288 
L 804.816 318.0576 
L 806.42304 304.8864 
L 808.03008 324.0384 
L 809.63712 337.2096 
L 811.24416 357.3696 
L 812.8512 353.7408 
L 814.45824 331.8336 
L 816.06528 326.8608 
L 817.67232 318.192 
L 819.27936 331.4304 
L 820.8864 335.0592 
L 822.49344 317.52 
L 825.70752 301.3248 
L 827.31456 308.112 
L 828.9216 318.528 
L 830.52864 302.1312 
L 832.13568 293.7984 
L 833.74272 327.264 
L 835.34976 337.4112 
L 836.9568 355.3536 
L 838.56384 354.2784 
L 840.17088 355.2864 
L 841.77792 322.896 
L 843.38496 306.1632 
L 844.992 304.6848 
L 846.59904 338.7552 
L 848.20608 353.9424 
L 849.81312 353.6064 
L 851.42016 340.7712 
L 853.0272 334.656 
L 854.63424 338.1504 
L 856.24128 342.5856 
L 857.84832 335.3952 
L 859.45536 340.032 
L 861.0624 331.9008 
L 862.66944 339.696 
L 864.27648 329.6832 
L 865.88352 346.8864 
L 867.49056 318.1248 
L 869.0976 308.3136 
L 870.70464 333.7824 
L 872.31168 336.2688 
L 873.91872 333.5136 
L 875.52576 349.3728 
L 877.1328 344.1984 
L 878.73984 344.2656 
L 880.34688 330.624 
L 881.95392 341.3088 
L 883.56096 342.9888 
L 885.168 337.4112 
L 886.77504 349.9104 
L 888.38208 364.2912 
L 889.98912 348.5664 
L 891.59616 342.6528 
L 893.2032 331.4976 
L 894.81024 337.6128 
L 896.41728 331.7664 
L 898.02432 331.0272 
L 899.63136 340.2336 
L 901.2384 344.064 
L 902.84544 322.2912 
L 904.45248 324.1056 
L 906.05952 320.0064 
L 907.66656 314.4288 
L 909.2736 334.5216 
L 910.88064 345.5424 
L 914.09472 321.0144 
L 915.70176 316.1088 
L 917.3088 327.936 
L 918.91584 328.2048 
L 920.52288 304.8864 
L 922.12992 328.8096 
L 923.73696 338.8896 
L 925.344 342.8544 
L 926.95104 321.552 
L 928.55808 323.0976 
L 930.16512 331.1616 
L 931.77216 346.6848 
L 933.3792 319.6032 
L 934.98624 315.504 
L 936.59328 312.6144 
L 938.20032 328.608 
L 939.80736 340.8384 
L 941.4144 340.8384 
L 943.02144 354.0768 
L 944.62848 345.3408 
L 946.23552 342.7872 
L 947.84256 345.2736 
L 949.4496 325.584 
L 951.05664 301.8624 
L 952.66368 321.7536 
L 954.27072 331.296 
L 955.87776 321.0144 
L 957.4848 311.6736 
L 959.09184 306.432 
L 960.69888 329.28 
L 962.30592 344.064 
L 963.91296 321.0816 
L 963.91296 321.0816 
" style="fill:none;stroke:#0000ff;stroke-linecap:square;"/>
   </g>
   <g id="line2d_2">
    <path clip-path="url(#p6e6f74181a)" d="M 162 210.2688 
L 163.60704 240.1728 
L 165.21408 260.064 
L 166.82112 266.448 
L 168.42816 276.528 
L 170.0352 283.7856 
L 171.64224 299.4432 
L 173.24928 310.128 
L 174.85632 296.5536 
L 176.46336 297.8304 
L 178.0704 288.8928 
L 179.67744 294.336 
L 181.28448 298.5024 
L 182.89152 304.9536 
L 186.1056 308.7168 
L 187.71264 311.5392 
L 189.31968 307.776 
L 190.92672 306.096 
L 192.53376 303.9456 
L 194.1408 309.12 
L 195.74784 304.8192 
L 197.35488 303.8112 
L 198.96192 288.4224 
L 200.56896 292.9248 
L 202.176 297.9648 
L 203.78304 297.8304 
L 205.39008 296.7552 
L 206.99712 299.376 
L 208.60416 298.9728 
L 210.2112 297.7632 
L 211.81824 293.9328 
L 213.42528 287.952 
L 215.03232 272.4288 
L 216.63936 273.4368 
L 218.2464 271.8912 
L 219.85344 279.8208 
L 221.46048 280.8288 
L 223.06752 279.216 
L 224.67456 280.9632 
L 226.2816 279.8208 
L 227.88864 273.7728 
L 229.49568 278.6112 
L 231.10272 280.9632 
L 234.3168 286.1376 
L 235.92384 290.4384 
L 237.53088 287.952 
L 239.13792 290.7072 
L 240.74496 291.5808 
L 242.352 293.5968 
L 243.95904 293.5968 
L 245.56608 297.36 
L 247.17312 299.5776 
L 248.78016 297.4272 
L 250.3872 298.9728 
L 251.99424 302.4 
L 253.60128 301.8624 
L 255.20832 302.064 
L 256.81536 301.9296 
L 258.4224 303.8784 
L 260.02944 300.5184 
L 261.63648 298.0992 
L 263.24352 306.096 
L 264.85056 312.0768 
L 266.4576 309.2544 
L 268.06464 315.84 
L 269.67168 316.1088 
L 271.27872 317.2512 
L 272.88576 320.9472 
L 274.4928 325.0464 
L 276.09984 324.1056 
L 277.70688 325.1136 
L 279.31392 323.5008 
L 280.92096 322.6272 
L 282.528 324.1728 
L 284.13504 323.2992 
L 285.74208 321.2832 
L 287.34912 321.6192 
L 288.95616 323.4336 
L 290.5632 324.7104 
L 292.17024 325.1808 
L 293.77728 322.224 
L 295.38432 323.7696 
L 296.99136 328.4736 
L 298.5984 333.9168 
L 300.20544 334.7904 
L 303.41952 335.5296 
L 305.02656 336.7392 
L 306.6336 337.4784 
L 308.24064 336.5376 
L 309.84768 335.1936 
L 311.45472 336.2016 
L 313.06176 336.5376 
L 314.6688 337.2096 
L 317.88288 337.4112 
L 319.48992 337.0752 
L 322.704 337.4112 
L 324.31104 338.4864 
L 325.91808 339.024 
L 327.52512 340.032 
L 329.13216 342.72 
L 330.7392 343.8624 
L 332.34624 341.8464 
L 333.95328 340.6368 
L 335.56032 338.4192 
L 337.16736 337.8144 
L 338.7744 339.8304 
L 340.38144 342.048 
L 341.98848 341.7792 
L 345.20256 341.9136 
L 348.41664 341.8464 
L 350.02368 341.4432 
L 351.63072 339.36 
L 353.23776 339.4944 
L 354.8448 340.1664 
L 356.45184 341.04 
L 358.05888 341.1072 
L 359.66592 342.2496 
L 361.27296 342.048 
L 362.88 343.1232 
L 364.48704 342.72 
L 366.09408 343.9296 
L 369.30816 345.2064 
L 370.9152 344.5344 
L 372.52224 345.2736 
L 374.12928 345.5424 
L 375.73632 346.2816 
L 377.34336 346.6848 
L 378.9504 346.0128 
L 380.55744 346.8192 
L 383.77152 347.2896 
L 385.37856 348.6336 
L 386.9856 348.8352 
L 388.59264 349.6416 
L 390.19968 349.3056 
L 391.80672 350.5152 
L 393.41376 351.3888 
L 395.0208 350.3808 
L 396.62784 353.8752 
L 398.23488 353.808 
L 399.84192 354.2112 
L 401.44896 354.7488 
L 403.056 355.0176 
L 404.66304 354.144 
L 406.27008 354.144 
L 407.87712 354.5472 
L 409.48416 355.5552 
L 411.0912 356.3616 
L 412.69824 356.8992 
L 414.30528 357.7728 
L 415.91232 357.84 
L 417.51936 358.2432 
L 419.1264 357.9744 
L 420.73344 358.1088 
L 422.34048 359.0496 
L 423.94752 358.6464 
L 425.55456 359.2512 
L 427.1616 359.52 
L 428.76864 360.9312 
L 430.37568 361.8048 
L 431.98272 363.0144 
L 433.58976 363.216 
L 435.1968 363.6192 
L 436.80384 363.6192 
L 438.41088 363.9552 
L 440.01792 363.0144 
L 441.62496 362.8128 
L 443.232 363.7536 
L 446.44608 363.888 
L 448.05312 363.1488 
L 449.66016 362.8128 
L 451.2672 362.2752 
L 452.87424 364.4256 
L 454.48128 364.4256 
L 457.69536 364.1568 
L 459.3024 364.2912 
L 460.90944 363.8208 
L 462.51648 363.4848 
L 464.12352 363.7536 
L 465.73056 363.552 
L 467.3376 364.6272 
L 468.94464 364.2912 
L 470.55168 364.7616 
L 472.15872 364.3584 
L 473.76576 364.3584 
L 475.3728 365.9712 
L 476.97984 365.9712 
L 478.58688 366.1056 
L 480.19392 365.5008 
L 481.80096 365.568 
L 483.408 366.912 
L 486.62208 367.3824 
L 489.83616 367.4496 
L 491.4432 368.9952 
L 493.05024 368.3232 
L 494.65728 368.4576 
L 496.26432 368.4576 
L 497.87136 368.3232 
L 499.4784 368.3232 
L 501.08544 367.6512 
L 502.69248 367.8528 
L 504.29952 368.5248 
L 509.12064 368.4576 
L 510.72768 368.1888 
L 517.15584 367.584 
L 518.76288 367.6512 
L 520.36992 367.3824 
L 521.97696 367.248 
L 523.584 368.6592 
L 525.19104 368.592 
L 528.40512 368.6592 
L 536.44032 368.592 
L 538.04736 368.9952 
L 539.6544 368.9952 
L 542.86848 368.7936 
L 544.47552 369.0624 
L 549.29664 369.0624 
L 550.90368 368.928 
L 555.7248 368.9952 
L 557.33184 369.3984 
L 560.54592 369.3312 
L 565.36704 369.3312 
L 566.97408 369.1968 
L 571.7952 369.3312 
L 573.40224 368.3232 
L 575.00928 368.3232 
L 576.61632 368.0544 
L 578.22336 369.0624 
L 579.8304 369.264 
L 581.43744 368.7936 
L 583.04448 368.928 
L 584.65152 369.6672 
L 586.25856 369.8016 
L 587.8656 369.4656 
L 589.47264 370.0704 
L 591.07968 369.8016 
L 594.29376 370.1376 
L 595.9008 369.8016 
L 597.50784 369.936 
L 599.11488 370.2048 
L 605.54304 370.8096 
L 607.15008 369.8688 
L 608.75712 370.0032 
L 610.36416 370.4736 
L 611.9712 370.6752 
L 613.57824 370.5408 
L 615.18528 370.608 
L 618.39936 371.0784 
L 621.61344 371.1456 
L 632.86272 371.5488 
L 634.46976 371.3472 
L 636.0768 370.8768 
L 639.29088 371.0112 
L 640.89792 370.944 
L 642.50496 371.5488 
L 644.112 371.5488 
L 645.71904 371.28 
L 647.32608 372.0192 
L 648.93312 372.2208 
L 650.54016 372.2208 
L 652.1472 371.616 
L 653.75424 374.1024 
L 656.96832 374.1024 
L 658.57536 374.5056 
L 661.78944 374.0352 
L 663.39648 373.7664 
L 742.14144 373.6992 
L 743.74848 373.632 
L 746.96256 373.6992 
L 798.38784 373.632 
L 801.60192 373.5648 
L 812.8512 373.632 
L 817.67232 373.7664 
L 819.27936 373.7664 
L 820.8864 374.0352 
L 828.9216 374.0352 
L 832.13568 373.7664 
L 844.992 373.6992 
L 848.20608 373.632 
L 849.81312 373.8336 
L 857.84832 373.7664 
L 861.0624 373.6992 
L 867.49056 373.6992 
L 869.0976 373.3632 
L 885.168 373.4304 
L 886.77504 373.7664 
L 904.45248 373.8336 
L 906.05952 373.2288 
L 912.48768 373.296 
L 914.09472 372.288 
L 918.91584 372.8256 
L 922.12992 373.0272 
L 923.73696 369.5328 
L 931.77216 369.8688 
L 933.3792 369.7344 
L 936.59328 369.8016 
L 938.20032 370.272 
L 944.62848 370.4736 
L 946.23552 371.0112 
L 949.4496 371.0784 
L 951.05664 372.288 
L 954.27072 372.3552 
L 955.87776 372.3552 
L 957.4848 370.8096 
L 960.69888 371.0112 
L 962.30592 371.7504 
L 963.91296 371.7504 
L 963.91296 371.7504 
" style="fill:none;stroke:#008000;stroke-linecap:square;"/>
   </g>
   <g id="line2d_3">
    <path clip-path="url(#p6e6f74181a)" d="M 162 246.4224 
L 163.60704 181.5072 
L 165.21408 106.2432 
L 166.82112 202.8768 
L 168.42816 234.528 
L 170.0352 247.296 
L 171.64224 247.4304 
L 173.24928 223.44 
L 174.85632 322.7616 
L 176.46336 362.208 
L 178.0704 342.5184 
L 179.67744 265.9104 
L 181.28448 266.3136 
L 182.89152 306.5664 
L 184.49856 313.152 
L 186.1056 301.9296 
L 187.71264 347.3568 
L 189.31968 351.8592 
L 190.92672 351.7248 
L 192.53376 382.6368 
L 194.1408 384.1152 
L 195.74784 373.1616 
L 197.35488 353.0688 
L 198.96192 356.8992 
L 200.56896 290.2368 
L 202.176 312.144 
L 203.78304 373.968 
L 205.39008 398.6976 
L 206.99712 390.0288 
L 208.60416 321.0816 
L 210.2112 325.3824 
L 211.81824 360.0576 
L 213.42528 363.4848 
L 215.03232 343.3248 
L 216.63936 327.264 
L 218.2464 330.4896 
L 219.85344 375.0432 
L 221.46048 383.04 
L 223.06752 373.4976 
L 224.67456 367.7856 
L 226.2816 378 
L 227.88864 346.0128 
L 229.49568 378.336 
L 231.10272 354.6144 
L 232.70976 386.9376 
L 234.3168 390.8352 
L 235.92384 388.0128 
L 237.53088 383.9808 
L 239.13792 387.6768 
L 240.74496 352.5984 
L 242.352 359.7216 
L 243.95904 375.984 
L 245.56608 371.616 
L 247.17312 360.528 
L 248.78016 332.5056 
L 250.3872 364.7616 
L 251.99424 388.2816 
L 253.60128 395.2032 
L 255.20832 370.1376 
L 256.81536 397.0848 
L 258.4224 420.7392 
L 260.02944 425.9808 
L 261.63648 393.5232 
L 263.24352 384.1152 
L 264.85056 411.936 
L 266.4576 425.376 
L 268.06464 411.3312 
L 269.67168 404.9472 
L 271.27872 408.6432 
L 272.88576 397.2192 
L 274.4928 400.7808 
L 276.09984 385.9968 
L 277.70688 386.8032 
L 279.31392 410.1888 
L 280.92096 416.7744 
L 282.528 411.1968 
L 284.13504 387.5424 
L 285.74208 390.096 
L 287.34912 398.4288 
L 288.95616 392.7168 
L 290.5632 378.5376 
L 292.17024 375.0432 
L 293.77728 408.6432 
L 295.38432 425.1072 
L 296.99136 418.5888 
L 298.5984 397.5552 
L 300.20544 395.0688 
L 301.81248 413.7504 
L 303.41952 407.0976 
L 305.02656 395.808 
L 308.24064 404.208 
L 311.45472 415.1616 
L 313.06176 406.7616 
L 314.6688 409.7184 
L 316.27584 415.968 
L 317.88288 401.184 
L 319.48992 411.8016 
L 321.09696 420.8064 
L 324.31104 410.3904 
L 325.91808 395.472 
L 327.52512 411.7344 
L 329.13216 421.0752 
L 330.7392 412.4736 
L 332.34624 420.2688 
L 333.95328 419.7312 
L 335.56032 401.9232 
L 337.16736 402.4608 
L 338.7744 394.8 
L 340.38144 403.7376 
L 341.98848 403.9392 
L 343.59552 395.472 
L 345.20256 416.2368 
L 346.8096 418.0512 
L 348.41664 408.6432 
L 350.02368 411.8688 
L 351.63072 425.4432 
L 353.23776 434.6496 
L 354.8448 427.8624 
L 356.45184 432.9696 
L 358.05888 385.056 
L 359.66592 383.5776 
L 361.27296 414.288 
L 362.88 431.5584 
L 364.48704 435.2544 
L 367.70112 423.0912 
L 369.30816 422.2176 
L 370.9152 425.8464 
L 372.52224 431.8944 
L 374.12928 415.0272 
L 375.73632 430.416 
L 377.34336 439.824 
L 378.9504 441.4368 
L 380.55744 435.5904 
L 382.16448 435.0528 
L 383.77152 430.0128 
L 385.37856 430.8864 
L 386.9856 435.8592 
L 388.59264 440.4288 
L 390.19968 443.2512 
L 391.80672 444.528 
L 393.41376 425.8464 
L 395.0208 429.6768 
L 396.62784 414.8928 
L 399.84192 437.9424 
L 401.44896 438.2112 
L 403.056 433.104 
L 404.66304 431.0208 
L 406.27008 432.8352 
L 407.87712 436.9344 
L 409.48416 414.96 
L 411.0912 428.8704 
L 412.69824 437.2032 
L 414.30528 440.832 
L 415.91232 439.824 
L 417.51936 438.2112 
L 419.1264 439.0176 
L 420.73344 441.5712 
L 422.34048 442.7136 
L 423.94752 441.5712 
L 425.55456 441.7728 
L 427.1616 443.2512 
L 428.76864 443.9232 
L 430.37568 443.9904 
L 431.98272 429.1392 
L 433.58976 437.808 
L 435.1968 443.6544 
L 436.80384 444.1248 
L 438.41088 428.736 
L 440.01792 438.2784 
L 441.62496 435.6576 
L 443.232 443.2512 
L 444.83904 441.168 
L 446.44608 441.5712 
L 448.05312 443.2512 
L 449.66016 444.2592 
L 451.2672 444.3264 
L 452.87424 443.6544 
L 454.48128 443.52 
L 456.08832 443.856 
L 459.3024 443.4528 
L 460.90944 443.9232 
L 465.73056 444.3264 
L 468.94464 444.1248 
L 470.55168 444.2592 
L 476.97984 444.192 
L 478.58688 428.6016 
L 480.19392 430.2816 
L 481.80096 439.0848 
L 483.408 444.2592 
L 485.01504 444.5952 
L 486.62208 442.7136 
L 488.22912 442.2432 
L 489.83616 443.6544 
L 491.4432 444.7296 
L 493.05024 444.9984 
L 494.65728 445.1328 
L 496.26432 444.9312 
L 497.87136 418.32 
L 499.4784 435.5232 
L 501.08544 444.7968 
L 502.69248 445.0656 
L 504.29952 442.4448 
L 505.90656 442.3776 
L 507.5136 444.9312 
L 509.12064 445.2 
L 510.72768 444.7296 
L 512.33472 445.1328 
L 513.94176 445.1328 
L 515.5488 444.864 
L 517.15584 445.0656 
L 520.36992 445.1328 
L 554.11776 445.1328 
L 555.7248 442.9824 
L 557.33184 419.7984 
L 558.93888 434.7168 
L 560.54592 442.7808 
L 562.15296 443.3184 
L 565.36704 434.3136 
L 566.97408 431.8944 
L 568.58112 432.768 
L 570.18816 434.0448 
L 571.7952 433.9776 
L 573.40224 432.9696 
L 575.00928 431.4912 
L 578.22336 430.9536 
L 579.8304 432.1632 
L 581.43744 434.5824 
L 583.04448 436.8 
L 584.65152 437.808 
L 586.25856 437.7408 
L 587.8656 437.8752 
L 589.47264 437.472 
L 591.07968 437.2032 
L 592.68672 437.5392 
L 594.29376 438.144 
L 595.9008 438.6144 
L 597.50784 438.7488 
L 599.11488 438.7488 
L 600.72192 438.5472 
L 602.32896 438.5472 
L 603.936 439.0176 
L 607.15008 439.4208 
L 608.75712 439.3536 
L 610.36416 439.4208 
L 611.9712 439.3536 
L 615.18528 439.6896 
L 618.39936 439.7568 
L 621.61344 439.824 
L 624.82752 439.8912 
L 637.68384 439.9584 
L 640.89792 440.0256 
L 719.64288 440.0256 
L 721.24992 412.8768 
L 724.464 436.8672 
L 726.07104 440.0256 
L 727.67808 439.0848 
L 729.28512 435.0528 
L 730.89216 434.1792 
L 732.4992 436.1952 
L 734.10624 437.9424 
L 735.71328 438.6816 
L 737.32032 438.816 
L 738.92736 438.3456 
L 746.96256 438.9504 
L 748.5696 438.9504 
L 750.17664 409.6512 
L 751.78368 426.384 
L 753.39072 435.9264 
L 754.99776 437.8752 
L 756.6048 434.7168 
L 758.21184 432.768 
L 759.81888 433.1712 
L 761.42592 434.8512 
L 763.03296 436.7328 
L 764.64 437.472 
L 766.24704 437.3376 
L 767.85408 436.8672 
L 771.06816 437.6736 
L 775.88928 437.7408 
L 779.10336 437.9424 
L 780.7104 437.808 
L 783.92448 437.8752 
L 833.74272 437.8752 
L 835.34976 425.376 
L 836.9568 417.9168 
L 838.56384 431.3568 
L 840.17088 435.792 
L 841.77792 433.1712 
L 843.38496 425.376 
L 844.992 399.7056 
L 846.59904 406.224 
L 848.20608 414.2208 
L 849.81312 417.2448 
L 851.42016 419.328 
L 853.0272 421.6128 
L 854.63424 426.5184 
L 856.24128 428.1312 
L 857.84832 426.6528 
L 859.45536 425.9136 
L 861.0624 425.6448 
L 862.66944 428.3328 
L 864.27648 433.0368 
L 865.88352 437.2704 
L 867.49056 437.9424 
L 869.0976 436.9344 
L 870.70464 435.7248 
L 872.31168 435.8592 
L 873.91872 437.0688 
L 875.52576 438.5472 
L 877.1328 438.6816 
L 878.73984 438.0768 
L 880.34688 437.808 
L 881.95392 438.6144 
L 883.56096 438.9504 
L 885.168 438.7488 
L 888.38208 439.488 
L 889.98912 439.5552 
L 893.2032 439.488 
L 898.02432 439.4208 
L 901.2384 439.3536 
L 963.91296 439.2864 
L 963.91296 439.2864 
" style="fill:none;stroke:#ff0000;stroke-linecap:square;"/>
   </g>
   <g id="patch_3">
    <path d="M 162 50.4 
L 965.52 50.4 
" style="fill:none;stroke:#000000;stroke-linecap:square;stroke-linejoin:miter;"/>
   </g>
   <g id="patch_4">
    <path d="M 965.52 453.6 
L 965.52 50.4 
" style="fill:none;stroke:#000000;stroke-linecap:square;stroke-linejoin:miter;"/>
   </g>
   <g id="patch_5">
    <path d="M 162 453.6 
L 965.52 453.6 
" style="fill:none;stroke:#000000;stroke-linecap:square;stroke-linejoin:miter;"/>
   </g>
   <g id="patch_6">
    <path d="M 162 453.6 
L 162 50.4 
" style="fill:none;stroke:#000000;stroke-linecap:square;stroke-linejoin:miter;"/>
   </g>
   <g id="matplotlib.axis_1">
    <g id="xtick_1">
     <g id="line2d_4">
      <defs>
       <path d="M 0 0 
L 0 -4 
" id="mdcad24e68a" style="stroke:#000000;stroke-width:0.5;"/>
      </defs>
      <g>
       <use style="stroke:#000000;stroke-width:0.5;" x="162.0" xlink:href="#mdcad24e68a" y="453.6"/>
      </g>
     </g>
     <g id="line2d_5">
      <defs>
       <path d="M 0 0 
L 0 4 
" id="md3dcd6d704" style="stroke:#000000;stroke-width:0.5;"/>
      </defs>
      <g>
       <use style="stroke:#000000;stroke-width:0.5;" x="162.0" xlink:href="#md3dcd6d704" y="50.4"/>
      </g>
     </g>
     <g id="text_1">
      <!-- 0 -->
      <defs>
       <path d="M 31.78125 66.40625 
Q 24.171875 66.40625 20.328125 58.90625 
Q 16.5 51.421875 16.5 36.375 
Q 16.5 21.390625 20.328125 13.890625 
Q 24.171875 6.390625 31.78125 6.390625 
Q 39.453125 6.390625 43.28125 13.890625 
Q 47.125 21.390625 47.125 36.375 
Q 47.125 51.421875 43.28125 58.90625 
Q 39.453125 66.40625 31.78125 66.40625 
M 31.78125 74.21875 
Q 44.046875 74.21875 50.515625 64.515625 
Q 56.984375 54.828125 56.984375 36.375 
Q 56.984375 17.96875 50.515625 8.265625 
Q 44.046875 -1.421875 31.78125 -1.421875 
Q 19.53125 -1.421875 13.0625 8.265625 
Q 6.59375 17.96875 6.59375 36.375 
Q 6.59375 54.828125 13.0625 64.515625 
Q 19.53125 74.21875 31.78125 74.21875 
" id="BitstreamVeraSans-Roman-30"/>
      </defs>
      <g transform="translate(158.1825 466.718125)scale(0.12 -0.12)">
       <use xlink:href="#BitstreamVeraSans-Roman-30"/>
      </g>
     </g>
    </g>
    <g id="xtick_2">
     <g id="line2d_6">
      <g>
       <use style="stroke:#000000;stroke-width:0.5;" x="322.704" xlink:href="#mdcad24e68a" y="453.6"/>
      </g>
     </g>
     <g id="line2d_7">
      <g>
       <use style="stroke:#000000;stroke-width:0.5;" x="322.704" xlink:href="#md3dcd6d704" y="50.4"/>
      </g>
     </g>
     <g id="text_2">
      <!-- 100 -->
      <defs>
       <path d="M 12.40625 8.296875 
L 28.515625 8.296875 
L 28.515625 63.921875 
L 10.984375 60.40625 
L 10.984375 69.390625 
L 28.421875 72.90625 
L 38.28125 72.90625 
L 38.28125 8.296875 
L 54.390625 8.296875 
L 54.390625 0 
L 12.40625 0 
z
" id="BitstreamVeraSans-Roman-31"/>
      </defs>
      <g transform="translate(311.2515 466.718125)scale(0.12 -0.12)">
       <use xlink:href="#BitstreamVeraSans-Roman-31"/>
       <use x="63.623046875" xlink:href="#BitstreamVeraSans-Roman-30"/>
       <use x="127.24609375" xlink:href="#BitstreamVeraSans-Roman-30"/>
      </g>
     </g>
    </g>
    <g id="xtick_3">
     <g id="line2d_8">
      <g>
       <use style="stroke:#000000;stroke-width:0.5;" x="483.408" xlink:href="#mdcad24e68a" y="453.6"/>
      </g>
     </g>
     <g id="line2d_9">
      <g>
       <use style="stroke:#000000;stroke-width:0.5;" x="483.408" xlink:href="#md3dcd6d704" y="50.4"/>
      </g>
     </g>
     <g id="text_3">
      <!-- 200 -->
      <defs>
       <path d="M 19.1875 8.296875 
L 53.609375 8.296875 
L 53.609375 0 
L 7.328125 0 
L 7.328125 8.296875 
Q 12.9375 14.109375 22.625 23.890625 
Q 32.328125 33.6875 34.8125 36.53125 
Q 39.546875 41.84375 41.421875 45.53125 
Q 43.3125 49.21875 43.3125 52.78125 
Q 43.3125 58.59375 39.234375 62.25 
Q 35.15625 65.921875 28.609375 65.921875 
Q 23.96875 65.921875 18.8125 64.3125 
Q 13.671875 62.703125 7.8125 59.421875 
L 7.8125 69.390625 
Q 13.765625 71.78125 18.9375 73 
Q 24.125 74.21875 28.421875 74.21875 
Q 39.75 74.21875 46.484375 68.546875 
Q 53.21875 62.890625 53.21875 53.421875 
Q 53.21875 48.921875 51.53125 44.890625 
Q 49.859375 40.875 45.40625 35.40625 
Q 44.1875 33.984375 37.640625 27.21875 
Q 31.109375 20.453125 19.1875 8.296875 
" id="BitstreamVeraSans-Roman-32"/>
      </defs>
      <g transform="translate(471.9555 466.718125)scale(0.12 -0.12)">
       <use xlink:href="#BitstreamVeraSans-Roman-32"/>
       <use x="63.623046875" xlink:href="#BitstreamVeraSans-Roman-30"/>
       <use x="127.24609375" xlink:href="#BitstreamVeraSans-Roman-30"/>
      </g>
     </g>
    </g>
    <g id="xtick_4">
     <g id="line2d_10">
      <g>
       <use style="stroke:#000000;stroke-width:0.5;" x="644.112" xlink:href="#mdcad24e68a" y="453.6"/>
      </g>
     </g>
     <g id="line2d_11">
      <g>
       <use style="stroke:#000000;stroke-width:0.5;" x="644.112" xlink:href="#md3dcd6d704" y="50.4"/>
      </g>
     </g>
     <g id="text_4">
      <!-- 300 -->
      <defs>
       <path d="M 40.578125 39.3125 
Q 47.65625 37.796875 51.625 33 
Q 55.609375 28.21875 55.609375 21.1875 
Q 55.609375 10.40625 48.1875 4.484375 
Q 40.765625 -1.421875 27.09375 -1.421875 
Q 22.515625 -1.421875 17.65625 -0.515625 
Q 12.796875 0.390625 7.625 2.203125 
L 7.625 11.71875 
Q 11.71875 9.328125 16.59375 8.109375 
Q 21.484375 6.890625 26.8125 6.890625 
Q 36.078125 6.890625 40.9375 10.546875 
Q 45.796875 14.203125 45.796875 21.1875 
Q 45.796875 27.640625 41.28125 31.265625 
Q 36.765625 34.90625 28.71875 34.90625 
L 20.21875 34.90625 
L 20.21875 43.015625 
L 29.109375 43.015625 
Q 36.375 43.015625 40.234375 45.921875 
Q 44.09375 48.828125 44.09375 54.296875 
Q 44.09375 59.90625 40.109375 62.90625 
Q 36.140625 65.921875 28.71875 65.921875 
Q 24.65625 65.921875 20.015625 65.03125 
Q 15.375 64.15625 9.8125 62.3125 
L 9.8125 71.09375 
Q 15.4375 72.65625 20.34375 73.4375 
Q 25.25 74.21875 29.59375 74.21875 
Q 40.828125 74.21875 47.359375 69.109375 
Q 53.90625 64.015625 53.90625 55.328125 
Q 53.90625 49.265625 50.4375 45.09375 
Q 46.96875 40.921875 40.578125 39.3125 
" id="BitstreamVeraSans-Roman-33"/>
      </defs>
      <g transform="translate(632.6595 466.718125)scale(0.12 -0.12)">
       <use xlink:href="#BitstreamVeraSans-Roman-33"/>
       <use x="63.623046875" xlink:href="#BitstreamVeraSans-Roman-30"/>
       <use x="127.24609375" xlink:href="#BitstreamVeraSans-Roman-30"/>
      </g>
     </g>
    </g>
    <g id="xtick_5">
     <g id="line2d_12">
      <g>
       <use style="stroke:#000000;stroke-width:0.5;" x="804.816" xlink:href="#mdcad24e68a" y="453.6"/>
      </g>
     </g>
     <g id="line2d_13">
      <g>
       <use style="stroke:#000000;stroke-width:0.5;" x="804.816" xlink:href="#md3dcd6d704" y="50.4"/>
      </g>
     </g>
     <g id="text_5">
      <!-- 400 -->
      <defs>
       <path d="M 37.796875 64.3125 
L 12.890625 25.390625 
L 37.796875 25.390625 
z
M 35.203125 72.90625 
L 47.609375 72.90625 
L 47.609375 25.390625 
L 58.015625 25.390625 
L 58.015625 17.1875 
L 47.609375 17.1875 
L 47.609375 0 
L 37.796875 0 
L 37.796875 17.1875 
L 4.890625 17.1875 
L 4.890625 26.703125 
z
" id="BitstreamVeraSans-Roman-34"/>
      </defs>
      <g transform="translate(793.3635 466.718125)scale(0.12 -0.12)">
       <use xlink:href="#BitstreamVeraSans-Roman-34"/>
       <use x="63.623046875" xlink:href="#BitstreamVeraSans-Roman-30"/>
       <use x="127.24609375" xlink:href="#BitstreamVeraSans-Roman-30"/>
      </g>
     </g>
    </g>
    <g id="xtick_6">
     <g id="line2d_14">
      <g>
       <use style="stroke:#000000;stroke-width:0.5;" x="965.52" xlink:href="#mdcad24e68a" y="453.6"/>
      </g>
     </g>
     <g id="line2d_15">
      <g>
       <use style="stroke:#000000;stroke-width:0.5;" x="965.52" xlink:href="#md3dcd6d704" y="50.4"/>
      </g>
     </g>
     <g id="text_6">
      <!-- 500 -->
      <defs>
       <path d="M 10.796875 72.90625 
L 49.515625 72.90625 
L 49.515625 64.59375 
L 19.828125 64.59375 
L 19.828125 46.734375 
Q 21.96875 47.46875 24.109375 47.828125 
Q 26.265625 48.1875 28.421875 48.1875 
Q 40.625 48.1875 47.75 41.5 
Q 54.890625 34.8125 54.890625 23.390625 
Q 54.890625 11.625 47.5625 5.09375 
Q 40.234375 -1.421875 26.90625 -1.421875 
Q 22.3125 -1.421875 17.546875 -0.640625 
Q 12.796875 0.140625 7.71875 1.703125 
L 7.71875 11.625 
Q 12.109375 9.234375 16.796875 8.0625 
Q 21.484375 6.890625 26.703125 6.890625 
Q 35.15625 6.890625 40.078125 11.328125 
Q 45.015625 15.765625 45.015625 23.390625 
Q 45.015625 31 40.078125 35.4375 
Q 35.15625 39.890625 26.703125 39.890625 
Q 22.75 39.890625 18.8125 39.015625 
Q 14.890625 38.140625 10.796875 36.28125 
z
" id="BitstreamVeraSans-Roman-35"/>
      </defs>
      <g transform="translate(954.0675 466.718125)scale(0.12 -0.12)">
       <use xlink:href="#BitstreamVeraSans-Roman-35"/>
       <use x="63.623046875" xlink:href="#BitstreamVeraSans-Roman-30"/>
       <use x="127.24609375" xlink:href="#BitstreamVeraSans-Roman-30"/>
      </g>
     </g>
    </g>
    <g id="text_7">
     <!-- Time -->
     <defs>
      <path d="M 56.203125 29.59375 
L 56.203125 25.203125 
L 14.890625 25.203125 
Q 15.484375 15.921875 20.484375 11.0625 
Q 25.484375 6.203125 34.421875 6.203125 
Q 39.59375 6.203125 44.453125 7.46875 
Q 49.3125 8.734375 54.109375 11.28125 
L 54.109375 2.78125 
Q 49.265625 0.734375 44.1875 -0.34375 
Q 39.109375 -1.421875 33.890625 -1.421875 
Q 20.796875 -1.421875 13.15625 6.1875 
Q 5.515625 13.8125 5.515625 26.8125 
Q 5.515625 40.234375 12.765625 48.109375 
Q 20.015625 56 32.328125 56 
Q 43.359375 56 49.78125 48.890625 
Q 56.203125 41.796875 56.203125 29.59375 
M 47.21875 32.234375 
Q 47.125 39.59375 43.09375 43.984375 
Q 39.0625 48.390625 32.421875 48.390625 
Q 24.90625 48.390625 20.390625 44.140625 
Q 15.875 39.890625 15.1875 32.171875 
z
" id="BitstreamVeraSans-Roman-65"/>
      <path d="M 9.421875 54.6875 
L 18.40625 54.6875 
L 18.40625 0 
L 9.421875 0 
z
M 9.421875 75.984375 
L 18.40625 75.984375 
L 18.40625 64.59375 
L 9.421875 64.59375 
z
" id="BitstreamVeraSans-Roman-69"/>
      <path d="M -0.296875 72.90625 
L 61.375 72.90625 
L 61.375 64.59375 
L 35.5 64.59375 
L 35.5 0 
L 25.59375 0 
L 25.59375 64.59375 
L -0.296875 64.59375 
z
" id="BitstreamVeraSans-Roman-54"/>
      <path d="M 52 44.1875 
Q 55.375 50.25 60.0625 53.125 
Q 64.75 56 71.09375 56 
Q 79.640625 56 84.28125 50.015625 
Q 88.921875 44.046875 88.921875 33.015625 
L 88.921875 0 
L 79.890625 0 
L 79.890625 32.71875 
Q 79.890625 40.578125 77.09375 44.375 
Q 74.3125 48.1875 68.609375 48.1875 
Q 61.625 48.1875 57.5625 43.546875 
Q 53.515625 38.921875 53.515625 30.90625 
L 53.515625 0 
L 44.484375 0 
L 44.484375 32.71875 
Q 44.484375 40.625 41.703125 44.40625 
Q 38.921875 48.1875 33.109375 48.1875 
Q 26.21875 48.1875 22.15625 43.53125 
Q 18.109375 38.875 18.109375 30.90625 
L 18.109375 0 
L 9.078125 0 
L 9.078125 54.6875 
L 18.109375 54.6875 
L 18.109375 46.1875 
Q 21.1875 51.21875 25.484375 53.609375 
Q 29.78125 56 35.6875 56 
Q 41.65625 56 45.828125 52.96875 
Q 50 49.953125 52 44.1875 
" id="BitstreamVeraSans-Roman-6d"/>
     </defs>
     <g transform="translate(548.895 483.331875)scale(0.12 -0.12)">
      <use xlink:href="#BitstreamVeraSans-Roman-54"/>
      <use x="61.037109375" xlink:href="#BitstreamVeraSans-Roman-69"/>
      <use x="88.8203125" xlink:href="#BitstreamVeraSans-Roman-6d"/>
      <use x="186.232421875" xlink:href="#BitstreamVeraSans-Roman-65"/>
     </g>
    </g>
   </g>
   <g id="matplotlib.axis_2">
    <g id="ytick_1">
     <g id="line2d_16">
      <defs>
       <path d="M 0 0 
L 4 0 
" id="m72556198e7" style="stroke:#000000;stroke-width:0.5;"/>
      </defs>
      <g>
       <use style="stroke:#000000;stroke-width:0.5;" x="162.0" xlink:href="#m72556198e7" y="453.6"/>
      </g>
     </g>
     <g id="line2d_17">
      <defs>
       <path d="M 0 0 
L -4 0 
" id="mc5af46c075" style="stroke:#000000;stroke-width:0.5;"/>
      </defs>
      <g>
       <use style="stroke:#000000;stroke-width:0.5;" x="965.52" xlink:href="#mc5af46c075" y="453.6"/>
      </g>
     </g>
     <g id="text_8">
      <!-- 0 -->
      <g transform="translate(150.365 456.91125)scale(0.12 -0.12)">
       <use xlink:href="#BitstreamVeraSans-Roman-30"/>
      </g>
     </g>
    </g>
    <g id="ytick_2">
     <g id="line2d_18">
      <g>
       <use style="stroke:#000000;stroke-width:0.5;" x="162.0" xlink:href="#m72556198e7" y="386.4"/>
      </g>
     </g>
     <g id="line2d_19">
      <g>
       <use style="stroke:#000000;stroke-width:0.5;" x="965.52" xlink:href="#mc5af46c075" y="386.4"/>
      </g>
     </g>
     <g id="text_9">
      <!-- 1 -->
      <g transform="translate(150.365 389.71125)scale(0.12 -0.12)">
       <use xlink:href="#BitstreamVeraSans-Roman-31"/>
      </g>
     </g>
    </g>
    <g id="ytick_3">
     <g id="line2d_20">
      <g>
       <use style="stroke:#000000;stroke-width:0.5;" x="162.0" xlink:href="#m72556198e7" y="319.2"/>
      </g>
     </g>
     <g id="line2d_21">
      <g>
       <use style="stroke:#000000;stroke-width:0.5;" x="965.52" xlink:href="#mc5af46c075" y="319.2"/>
      </g>
     </g>
     <g id="text_10">
      <!-- 2 -->
      <g transform="translate(150.365 322.51125)scale(0.12 -0.12)">
       <use xlink:href="#BitstreamVeraSans-Roman-32"/>
      </g>
     </g>
    </g>
    <g id="ytick_4">
     <g id="line2d_22">
      <g>
       <use style="stroke:#000000;stroke-width:0.5;" x="162.0" xlink:href="#m72556198e7" y="252.0"/>
      </g>
     </g>
     <g id="line2d_23">
      <g>
       <use style="stroke:#000000;stroke-width:0.5;" x="965.52" xlink:href="#mc5af46c075" y="252.0"/>
      </g>
     </g>
     <g id="text_11">
      <!-- 3 -->
      <g transform="translate(150.365 255.31125)scale(0.12 -0.12)">
       <use xlink:href="#BitstreamVeraSans-Roman-33"/>
      </g>
     </g>
    </g>
    <g id="ytick_5">
     <g id="line2d_24">
      <g>
       <use style="stroke:#000000;stroke-width:0.5;" x="162.0" xlink:href="#m72556198e7" y="184.8"/>
      </g>
     </g>
     <g id="line2d_25">
      <g>
       <use style="stroke:#000000;stroke-width:0.5;" x="965.52" xlink:href="#mc5af46c075" y="184.8"/>
      </g>
     </g>
     <g id="text_12">
      <!-- 4 -->
      <g transform="translate(150.365 188.11125)scale(0.12 -0.12)">
       <use xlink:href="#BitstreamVeraSans-Roman-34"/>
      </g>
     </g>
    </g>
    <g id="ytick_6">
     <g id="line2d_26">
      <g>
       <use style="stroke:#000000;stroke-width:0.5;" x="162.0" xlink:href="#m72556198e7" y="117.6"/>
      </g>
     </g>
     <g id="line2d_27">
      <g>
       <use style="stroke:#000000;stroke-width:0.5;" x="965.52" xlink:href="#mc5af46c075" y="117.6"/>
      </g>
     </g>
     <g id="text_13">
      <!-- 5 -->
      <g transform="translate(150.365 120.91125)scale(0.12 -0.12)">
       <use xlink:href="#BitstreamVeraSans-Roman-35"/>
      </g>
     </g>
    </g>
    <g id="ytick_7">
     <g id="line2d_28">
      <g>
       <use style="stroke:#000000;stroke-width:0.5;" x="162.0" xlink:href="#m72556198e7" y="50.4"/>
      </g>
     </g>
     <g id="line2d_29">
      <g>
       <use style="stroke:#000000;stroke-width:0.5;" x="965.52" xlink:href="#mc5af46c075" y="50.4"/>
      </g>
     </g>
     <g id="text_14">
      <!-- 6 -->
      <defs>
       <path d="M 33.015625 40.375 
Q 26.375 40.375 22.484375 35.828125 
Q 18.609375 31.296875 18.609375 23.390625 
Q 18.609375 15.53125 22.484375 10.953125 
Q 26.375 6.390625 33.015625 6.390625 
Q 39.65625 6.390625 43.53125 10.953125 
Q 47.40625 15.53125 47.40625 23.390625 
Q 47.40625 31.296875 43.53125 35.828125 
Q 39.65625 40.375 33.015625 40.375 
M 52.59375 71.296875 
L 52.59375 62.3125 
Q 48.875 64.0625 45.09375 64.984375 
Q 41.3125 65.921875 37.59375 65.921875 
Q 27.828125 65.921875 22.671875 59.328125 
Q 17.53125 52.734375 16.796875 39.40625 
Q 19.671875 43.65625 24.015625 45.921875 
Q 28.375 48.1875 33.59375 48.1875 
Q 44.578125 48.1875 50.953125 41.515625 
Q 57.328125 34.859375 57.328125 23.390625 
Q 57.328125 12.15625 50.6875 5.359375 
Q 44.046875 -1.421875 33.015625 -1.421875 
Q 20.359375 -1.421875 13.671875 8.265625 
Q 6.984375 17.96875 6.984375 36.375 
Q 6.984375 53.65625 15.1875 63.9375 
Q 23.390625 74.21875 37.203125 74.21875 
Q 40.921875 74.21875 44.703125 73.484375 
Q 48.484375 72.75 52.59375 71.296875 
" id="BitstreamVeraSans-Roman-36"/>
      </defs>
      <g transform="translate(150.365 53.71125)scale(0.12 -0.12)">
       <use xlink:href="#BitstreamVeraSans-Roman-36"/>
      </g>
     </g>
    </g>
    <g id="text_15">
     <!-- VAR(neighbor distance) -->
     <defs>
      <path id="BitstreamVeraSans-Roman-20"/>
      <path d="M 28.609375 0 
L 0.78125 72.90625 
L 11.078125 72.90625 
L 34.1875 11.53125 
L 57.328125 72.90625 
L 67.578125 72.90625 
L 39.796875 0 
z
" id="BitstreamVeraSans-Roman-56"/>
      <path d="M 54.890625 33.015625 
L 54.890625 0 
L 45.90625 0 
L 45.90625 32.71875 
Q 45.90625 40.484375 42.875 44.328125 
Q 39.84375 48.1875 33.796875 48.1875 
Q 26.515625 48.1875 22.3125 43.546875 
Q 18.109375 38.921875 18.109375 30.90625 
L 18.109375 0 
L 9.078125 0 
L 9.078125 54.6875 
L 18.109375 54.6875 
L 18.109375 46.1875 
Q 21.34375 51.125 25.703125 53.5625 
Q 30.078125 56 35.796875 56 
Q 45.21875 56 50.046875 50.171875 
Q 54.890625 44.34375 54.890625 33.015625 
" id="BitstreamVeraSans-Roman-6e"/>
      <path d="M 31 75.875 
Q 24.46875 64.65625 21.28125 53.65625 
Q 18.109375 42.671875 18.109375 31.390625 
Q 18.109375 20.125 21.3125 9.0625 
Q 24.515625 -2 31 -13.1875 
L 23.1875 -13.1875 
Q 15.875 -1.703125 12.234375 9.375 
Q 8.59375 20.453125 8.59375 31.390625 
Q 8.59375 42.28125 12.203125 53.3125 
Q 15.828125 64.359375 23.1875 75.875 
z
" id="BitstreamVeraSans-Roman-28"/>
      <path d="M 30.609375 48.390625 
Q 23.390625 48.390625 19.1875 42.75 
Q 14.984375 37.109375 14.984375 27.296875 
Q 14.984375 17.484375 19.15625 11.84375 
Q 23.34375 6.203125 30.609375 6.203125 
Q 37.796875 6.203125 41.984375 11.859375 
Q 46.1875 17.53125 46.1875 27.296875 
Q 46.1875 37.015625 41.984375 42.703125 
Q 37.796875 48.390625 30.609375 48.390625 
M 30.609375 56 
Q 42.328125 56 49.015625 48.375 
Q 55.71875 40.765625 55.71875 27.296875 
Q 55.71875 13.875 49.015625 6.21875 
Q 42.328125 -1.421875 30.609375 -1.421875 
Q 18.84375 -1.421875 12.171875 6.21875 
Q 5.515625 13.875 5.515625 27.296875 
Q 5.515625 40.765625 12.171875 48.375 
Q 18.84375 56 30.609375 56 
" id="BitstreamVeraSans-Roman-6f"/>
      <path d="M 18.3125 70.21875 
L 18.3125 54.6875 
L 36.8125 54.6875 
L 36.8125 47.703125 
L 18.3125 47.703125 
L 18.3125 18.015625 
Q 18.3125 11.328125 20.140625 9.421875 
Q 21.96875 7.515625 27.59375 7.515625 
L 36.8125 7.515625 
L 36.8125 0 
L 27.59375 0 
Q 17.1875 0 13.234375 3.875 
Q 9.28125 7.765625 9.28125 18.015625 
L 9.28125 47.703125 
L 2.6875 47.703125 
L 2.6875 54.6875 
L 9.28125 54.6875 
L 9.28125 70.21875 
z
" id="BitstreamVeraSans-Roman-74"/>
      <path d="M 8.015625 75.875 
L 15.828125 75.875 
Q 23.140625 64.359375 26.78125 53.3125 
Q 30.421875 42.28125 30.421875 31.390625 
Q 30.421875 20.453125 26.78125 9.375 
Q 23.140625 -1.703125 15.828125 -13.1875 
L 8.015625 -13.1875 
Q 14.5 -2 17.703125 9.0625 
Q 20.90625 20.125 20.90625 31.390625 
Q 20.90625 42.671875 17.703125 53.65625 
Q 14.5 64.65625 8.015625 75.875 
" id="BitstreamVeraSans-Roman-29"/>
      <path d="M 34.28125 27.484375 
Q 23.390625 27.484375 19.1875 25 
Q 14.984375 22.515625 14.984375 16.5 
Q 14.984375 11.71875 18.140625 8.90625 
Q 21.296875 6.109375 26.703125 6.109375 
Q 34.1875 6.109375 38.703125 11.40625 
Q 43.21875 16.703125 43.21875 25.484375 
L 43.21875 27.484375 
z
M 52.203125 31.203125 
L 52.203125 0 
L 43.21875 0 
L 43.21875 8.296875 
Q 40.140625 3.328125 35.546875 0.953125 
Q 30.953125 -1.421875 24.3125 -1.421875 
Q 15.921875 -1.421875 10.953125 3.296875 
Q 6 8.015625 6 15.921875 
Q 6 25.140625 12.171875 29.828125 
Q 18.359375 34.515625 30.609375 34.515625 
L 43.21875 34.515625 
L 43.21875 35.40625 
Q 43.21875 41.609375 39.140625 45 
Q 35.0625 48.390625 27.6875 48.390625 
Q 23 48.390625 18.546875 47.265625 
Q 14.109375 46.140625 10.015625 43.890625 
L 10.015625 52.203125 
Q 14.9375 54.109375 19.578125 55.046875 
Q 24.21875 56 28.609375 56 
Q 40.484375 56 46.34375 49.84375 
Q 52.203125 43.703125 52.203125 31.203125 
" id="BitstreamVeraSans-Roman-61"/>
      <path d="M 44.390625 34.1875 
Q 47.5625 33.109375 50.5625 29.59375 
Q 53.5625 26.078125 56.59375 19.921875 
L 66.609375 0 
L 56 0 
L 46.6875 18.703125 
Q 43.0625 26.03125 39.671875 28.421875 
Q 36.28125 30.8125 30.421875 30.8125 
L 19.671875 30.8125 
L 19.671875 0 
L 9.8125 0 
L 9.8125 72.90625 
L 32.078125 72.90625 
Q 44.578125 72.90625 50.734375 67.671875 
Q 56.890625 62.453125 56.890625 51.90625 
Q 56.890625 45.015625 53.6875 40.46875 
Q 50.484375 35.9375 44.390625 34.1875 
M 19.671875 64.796875 
L 19.671875 38.921875 
L 32.078125 38.921875 
Q 39.203125 38.921875 42.84375 42.21875 
Q 46.484375 45.515625 46.484375 51.90625 
Q 46.484375 58.296875 42.84375 61.546875 
Q 39.203125 64.796875 32.078125 64.796875 
z
" id="BitstreamVeraSans-Roman-52"/>
      <path d="M 54.890625 33.015625 
L 54.890625 0 
L 45.90625 0 
L 45.90625 32.71875 
Q 45.90625 40.484375 42.875 44.328125 
Q 39.84375 48.1875 33.796875 48.1875 
Q 26.515625 48.1875 22.3125 43.546875 
Q 18.109375 38.921875 18.109375 30.90625 
L 18.109375 0 
L 9.078125 0 
L 9.078125 75.984375 
L 18.109375 75.984375 
L 18.109375 46.1875 
Q 21.34375 51.125 25.703125 53.5625 
Q 30.078125 56 35.796875 56 
Q 45.21875 56 50.046875 50.171875 
Q 54.890625 44.34375 54.890625 33.015625 
" id="BitstreamVeraSans-Roman-68"/>
      <path d="M 34.1875 63.1875 
L 20.796875 26.90625 
L 47.609375 26.90625 
z
M 28.609375 72.90625 
L 39.796875 72.90625 
L 67.578125 0 
L 57.328125 0 
L 50.6875 18.703125 
L 17.828125 18.703125 
L 11.1875 0 
L 0.78125 0 
z
" id="BitstreamVeraSans-Roman-41"/>
      <path d="M 45.40625 46.390625 
L 45.40625 75.984375 
L 54.390625 75.984375 
L 54.390625 0 
L 45.40625 0 
L 45.40625 8.203125 
Q 42.578125 3.328125 38.25 0.953125 
Q 33.9375 -1.421875 27.875 -1.421875 
Q 17.96875 -1.421875 11.734375 6.484375 
Q 5.515625 14.40625 5.515625 27.296875 
Q 5.515625 40.1875 11.734375 48.09375 
Q 17.96875 56 27.875 56 
Q 33.9375 56 38.25 53.625 
Q 42.578125 51.265625 45.40625 46.390625 
M 14.796875 27.296875 
Q 14.796875 17.390625 18.875 11.75 
Q 22.953125 6.109375 30.078125 6.109375 
Q 37.203125 6.109375 41.296875 11.75 
Q 45.40625 17.390625 45.40625 27.296875 
Q 45.40625 37.203125 41.296875 42.84375 
Q 37.203125 48.484375 30.078125 48.484375 
Q 22.953125 48.484375 18.875 42.84375 
Q 14.796875 37.203125 14.796875 27.296875 
" id="BitstreamVeraSans-Roman-64"/>
      <path d="M 45.40625 27.984375 
Q 45.40625 37.75 41.375 43.109375 
Q 37.359375 48.484375 30.078125 48.484375 
Q 22.859375 48.484375 18.828125 43.109375 
Q 14.796875 37.75 14.796875 27.984375 
Q 14.796875 18.265625 18.828125 12.890625 
Q 22.859375 7.515625 30.078125 7.515625 
Q 37.359375 7.515625 41.375 12.890625 
Q 45.40625 18.265625 45.40625 27.984375 
M 54.390625 6.78125 
Q 54.390625 -7.171875 48.1875 -13.984375 
Q 42 -20.796875 29.203125 -20.796875 
Q 24.46875 -20.796875 20.265625 -20.09375 
Q 16.0625 -19.390625 12.109375 -17.921875 
L 12.109375 -9.1875 
Q 16.0625 -11.328125 19.921875 -12.34375 
Q 23.78125 -13.375 27.78125 -13.375 
Q 36.625 -13.375 41.015625 -8.765625 
Q 45.40625 -4.15625 45.40625 5.171875 
L 45.40625 9.625 
Q 42.625 4.78125 38.28125 2.390625 
Q 33.9375 0 27.875 0 
Q 17.828125 0 11.671875 7.65625 
Q 5.515625 15.328125 5.515625 27.984375 
Q 5.515625 40.671875 11.671875 48.328125 
Q 17.828125 56 27.875 56 
Q 33.9375 56 38.28125 53.609375 
Q 42.625 51.21875 45.40625 46.390625 
L 45.40625 54.6875 
L 54.390625 54.6875 
z
" id="BitstreamVeraSans-Roman-67"/>
      <path d="M 41.109375 46.296875 
Q 39.59375 47.171875 37.8125 47.578125 
Q 36.03125 48 33.890625 48 
Q 26.265625 48 22.1875 43.046875 
Q 18.109375 38.09375 18.109375 28.8125 
L 18.109375 0 
L 9.078125 0 
L 9.078125 54.6875 
L 18.109375 54.6875 
L 18.109375 46.1875 
Q 20.953125 51.171875 25.484375 53.578125 
Q 30.03125 56 36.53125 56 
Q 37.453125 56 38.578125 55.875 
Q 39.703125 55.765625 41.0625 55.515625 
z
" id="BitstreamVeraSans-Roman-72"/>
      <path d="M 44.28125 53.078125 
L 44.28125 44.578125 
Q 40.484375 46.53125 36.375 47.5 
Q 32.28125 48.484375 27.875 48.484375 
Q 21.1875 48.484375 17.84375 46.4375 
Q 14.5 44.390625 14.5 40.28125 
Q 14.5 37.15625 16.890625 35.375 
Q 19.28125 33.59375 26.515625 31.984375 
L 29.59375 31.296875 
Q 39.15625 29.25 43.1875 25.515625 
Q 47.21875 21.78125 47.21875 15.09375 
Q 47.21875 7.46875 41.1875 3.015625 
Q 35.15625 -1.421875 24.609375 -1.421875 
Q 20.21875 -1.421875 15.453125 -0.5625 
Q 10.6875 0.296875 5.421875 2 
L 5.421875 11.28125 
Q 10.40625 8.6875 15.234375 7.390625 
Q 20.0625 6.109375 24.8125 6.109375 
Q 31.15625 6.109375 34.5625 8.28125 
Q 37.984375 10.453125 37.984375 14.40625 
Q 37.984375 18.0625 35.515625 20.015625 
Q 33.0625 21.96875 24.703125 23.78125 
L 21.578125 24.515625 
Q 13.234375 26.265625 9.515625 29.90625 
Q 5.8125 33.546875 5.8125 39.890625 
Q 5.8125 47.609375 11.28125 51.796875 
Q 16.75 56 26.8125 56 
Q 31.78125 56 36.171875 55.265625 
Q 40.578125 54.546875 44.28125 53.078125 
" id="BitstreamVeraSans-Roman-73"/>
      <path d="M 48.78125 52.59375 
L 48.78125 44.1875 
Q 44.96875 46.296875 41.140625 47.34375 
Q 37.3125 48.390625 33.40625 48.390625 
Q 24.65625 48.390625 19.8125 42.84375 
Q 14.984375 37.3125 14.984375 27.296875 
Q 14.984375 17.28125 19.8125 11.734375 
Q 24.65625 6.203125 33.40625 6.203125 
Q 37.3125 6.203125 41.140625 7.25 
Q 44.96875 8.296875 48.78125 10.40625 
L 48.78125 2.09375 
Q 45.015625 0.34375 40.984375 -0.53125 
Q 36.96875 -1.421875 32.421875 -1.421875 
Q 20.0625 -1.421875 12.78125 6.34375 
Q 5.515625 14.109375 5.515625 27.296875 
Q 5.515625 40.671875 12.859375 48.328125 
Q 20.21875 56 33.015625 56 
Q 37.15625 56 41.109375 55.140625 
Q 45.0625 54.296875 48.78125 52.59375 
" id="BitstreamVeraSans-Roman-63"/>
      <path d="M 48.6875 27.296875 
Q 48.6875 37.203125 44.609375 42.84375 
Q 40.53125 48.484375 33.40625 48.484375 
Q 26.265625 48.484375 22.1875 42.84375 
Q 18.109375 37.203125 18.109375 27.296875 
Q 18.109375 17.390625 22.1875 11.75 
Q 26.265625 6.109375 33.40625 6.109375 
Q 40.53125 6.109375 44.609375 11.75 
Q 48.6875 17.390625 48.6875 27.296875 
M 18.109375 46.390625 
Q 20.953125 51.265625 25.265625 53.625 
Q 29.59375 56 35.59375 56 
Q 45.5625 56 51.78125 48.09375 
Q 58.015625 40.1875 58.015625 27.296875 
Q 58.015625 14.40625 51.78125 6.484375 
Q 45.5625 -1.421875 35.59375 -1.421875 
Q 29.59375 -1.421875 25.265625 0.953125 
Q 20.953125 3.328125 18.109375 8.203125 
L 18.109375 0 
L 9.078125 0 
L 9.078125 75.984375 
L 18.109375 75.984375 
z
" id="BitstreamVeraSans-Roman-62"/>
     </defs>
     <g transform="translate(142.869375 323.1046875)rotate(-90.0)scale(0.12 -0.12)">
      <use xlink:href="#BitstreamVeraSans-Roman-56"/>
      <use x="68.314453125" xlink:href="#BitstreamVeraSans-Roman-41"/>
      <use x="136.72265625" xlink:href="#BitstreamVeraSans-Roman-52"/>
      <use x="206.205078125" xlink:href="#BitstreamVeraSans-Roman-28"/>
      <use x="245.21875" xlink:href="#BitstreamVeraSans-Roman-6e"/>
      <use x="308.59765625" xlink:href="#BitstreamVeraSans-Roman-65"/>
      <use x="370.12109375" xlink:href="#BitstreamVeraSans-Roman-69"/>
      <use x="397.904296875" xlink:href="#BitstreamVeraSans-Roman-67"/>
      <use x="461.380859375" xlink:href="#BitstreamVeraSans-Roman-68"/>
      <use x="524.759765625" xlink:href="#BitstreamVeraSans-Roman-62"/>
      <use x="588.236328125" xlink:href="#BitstreamVeraSans-Roman-6f"/>
      <use x="649.41796875" xlink:href="#BitstreamVeraSans-Roman-72"/>
      <use x="690.53125" xlink:href="#BitstreamVeraSans-Roman-20"/>
      <use x="722.318359375" xlink:href="#BitstreamVeraSans-Roman-64"/>
      <use x="785.794921875" xlink:href="#BitstreamVeraSans-Roman-69"/>
      <use x="813.578125" xlink:href="#BitstreamVeraSans-Roman-73"/>
      <use x="865.677734375" xlink:href="#BitstreamVeraSans-Roman-74"/>
      <use x="904.88671875" xlink:href="#BitstreamVeraSans-Roman-61"/>
      <use x="966.166015625" xlink:href="#BitstreamVeraSans-Roman-6e"/>
      <use x="1029.54492188" xlink:href="#BitstreamVeraSans-Roman-63"/>
      <use x="1084.52539062" xlink:href="#BitstreamVeraSans-Roman-65"/>
      <use x="1146.04882812" xlink:href="#BitstreamVeraSans-Roman-29"/>
     </g>
    </g>
   </g>
   <g id="text_16">
    <!-- Isolated mechanisms: neighbor distance variance -->
    <defs>
     <path d="M 2.984375 54.6875 
L 12.5 54.6875 
L 29.59375 8.796875 
L 46.6875 54.6875 
L 56.203125 54.6875 
L 35.6875 0 
L 23.484375 0 
z
" id="BitstreamVeraSans-Roman-76"/>
     <path d="M 11.71875 12.40625 
L 22.015625 12.40625 
L 22.015625 0 
L 11.71875 0 
z
M 11.71875 51.703125 
L 22.015625 51.703125 
L 22.015625 39.3125 
L 11.71875 39.3125 
z
" id="BitstreamVeraSans-Roman-3a"/>
     <path d="M 9.421875 75.984375 
L 18.40625 75.984375 
L 18.40625 0 
L 9.421875 0 
z
" id="BitstreamVeraSans-Roman-6c"/>
     <path d="M 9.8125 72.90625 
L 19.671875 72.90625 
L 19.671875 0 
L 9.8125 0 
z
" id="BitstreamVeraSans-Roman-49"/>
    </defs>
    <g transform="translate(384.638625 45.4)scale(0.144 -0.144)">
     <use xlink:href="#BitstreamVeraSans-Roman-49"/>
     <use x="29.4921875" xlink:href="#BitstreamVeraSans-Roman-73"/>
     <use x="81.591796875" xlink:href="#BitstreamVeraSans-Roman-6f"/>
     <use x="142.7734375" xlink:href="#BitstreamVeraSans-Roman-6c"/>
     <use x="170.556640625" xlink:href="#BitstreamVeraSans-Roman-61"/>
     <use x="231.8359375" xlink:href="#BitstreamVeraSans-Roman-74"/>
     <use x="271.044921875" xlink:href="#BitstreamVeraSans-Roman-65"/>
     <use x="332.568359375" xlink:href="#BitstreamVeraSans-Roman-64"/>
     <use x="396.044921875" xlink:href="#BitstreamVeraSans-Roman-20"/>
     <use x="427.83203125" xlink:href="#BitstreamVeraSans-Roman-6d"/>
     <use x="525.244140625" xlink:href="#BitstreamVeraSans-Roman-65"/>
     <use x="586.767578125" xlink:href="#BitstreamVeraSans-Roman-63"/>
     <use x="641.748046875" xlink:href="#BitstreamVeraSans-Roman-68"/>
     <use x="705.126953125" xlink:href="#BitstreamVeraSans-Roman-61"/>
     <use x="766.40625" xlink:href="#BitstreamVeraSans-Roman-6e"/>
     <use x="829.78515625" xlink:href="#BitstreamVeraSans-Roman-69"/>
     <use x="857.568359375" xlink:href="#BitstreamVeraSans-Roman-73"/>
     <use x="909.66796875" xlink:href="#BitstreamVeraSans-Roman-6d"/>
     <use x="1007.08007812" xlink:href="#BitstreamVeraSans-Roman-73"/>
     <use x="1059.1796875" xlink:href="#BitstreamVeraSans-Roman-3a"/>
     <use x="1092.87109375" xlink:href="#BitstreamVeraSans-Roman-20"/>
     <use x="1124.65820312" xlink:href="#BitstreamVeraSans-Roman-6e"/>
     <use x="1188.03710938" xlink:href="#BitstreamVeraSans-Roman-65"/>
     <use x="1249.56054688" xlink:href="#BitstreamVeraSans-Roman-69"/>
     <use x="1277.34375" xlink:href="#BitstreamVeraSans-Roman-67"/>
     <use x="1340.8203125" xlink:href="#BitstreamVeraSans-Roman-68"/>
     <use x="1404.19921875" xlink:href="#BitstreamVeraSans-Roman-62"/>
     <use x="1467.67578125" xlink:href="#BitstreamVeraSans-Roman-6f"/>
     <use x="1528.85742188" xlink:href="#BitstreamVeraSans-Roman-72"/>
     <use x="1569.97070312" xlink:href="#BitstreamVeraSans-Roman-20"/>
     <use x="1601.7578125" xlink:href="#BitstreamVeraSans-Roman-64"/>
     <use x="1665.234375" xlink:href="#BitstreamVeraSans-Roman-69"/>
     <use x="1693.01757812" xlink:href="#BitstreamVeraSans-Roman-73"/>
     <use x="1745.1171875" xlink:href="#BitstreamVeraSans-Roman-74"/>
     <use x="1784.32617188" xlink:href="#BitstreamVeraSans-Roman-61"/>
     <use x="1845.60546875" xlink:href="#BitstreamVeraSans-Roman-6e"/>
     <use x="1908.984375" xlink:href="#BitstreamVeraSans-Roman-63"/>
     <use x="1963.96484375" xlink:href="#BitstreamVeraSans-Roman-65"/>
     <use x="2025.48828125" xlink:href="#BitstreamVeraSans-Roman-20"/>
     <use x="2057.27539062" xlink:href="#BitstreamVeraSans-Roman-76"/>
     <use x="2116.45507812" xlink:href="#BitstreamVeraSans-Roman-61"/>
     <use x="2177.734375" xlink:href="#BitstreamVeraSans-Roman-72"/>
     <use x="2218.84765625" xlink:href="#BitstreamVeraSans-Roman-69"/>
     <use x="2246.63085938" xlink:href="#BitstreamVeraSans-Roman-61"/>
     <use x="2307.91015625" xlink:href="#BitstreamVeraSans-Roman-6e"/>
     <use x="2371.2890625" xlink:href="#BitstreamVeraSans-Roman-63"/>
     <use x="2426.26953125" xlink:href="#BitstreamVeraSans-Roman-65"/>
    </g>
   </g>
   <g id="legend_1">
    <g id="patch_7">
     <path d="M 972.72 117.2655 
L 1167.552 117.2655 
L 1167.552 49.536 
L 972.72 49.536 
z
" style="fill:#ffffff;stroke:#000000;stroke-linejoin:miter;"/>
    </g>
    <g id="line2d_30">
     <path d="M 982.8 61.19775 
L 1002.96 61.19775 
" style="fill:none;stroke:#0000ff;stroke-linecap:square;"/>
    </g>
    <g id="line2d_31"/>
    <g id="text_17">
     <!-- $S_w=1$, $A_w=0$, $C_w=0$ -->
     <defs>
      <path d="M 9.28125 0 
L 9.28125 3.515625 
Q 21.78125 3.515625 21.78125 6.6875 
L 21.78125 59.1875 
Q 16.609375 56.6875 8.6875 56.6875 
L 8.6875 60.203125 
Q 20.953125 60.203125 27.203125 66.609375 
L 28.609375 66.609375 
Q 28.953125 66.609375 29.265625 66.328125 
Q 29.59375 66.0625 29.59375 65.71875 
L 29.59375 6.6875 
Q 29.59375 3.515625 42.09375 3.515625 
L 42.09375 0 
z
" id="Cmr10-31"/>
      <path d="M 25 -2.203125 
Q 12.75 -2.203125 8.328125 7.875 
Q 3.90625 17.96875 3.90625 31.890625 
Q 3.90625 40.578125 5.484375 48.234375 
Q 7.078125 55.90625 11.78125 61.25 
Q 16.5 66.609375 25 66.609375 
Q 31.59375 66.609375 35.78125 63.375 
Q 39.984375 60.15625 42.1875 55.046875 
Q 44.390625 49.953125 45.1875 44.109375 
Q 46 38.28125 46 31.890625 
Q 46 23.296875 44.40625 15.796875 
Q 42.828125 8.296875 38.1875 3.046875 
Q 33.546875 -2.203125 25 -2.203125 
M 25 0.390625 
Q 30.5625 0.390625 33.296875 6.09375 
Q 36.03125 11.8125 36.671875 18.75 
Q 37.3125 25.6875 37.3125 33.5 
Q 37.3125 41.015625 36.671875 47.359375 
Q 36.03125 53.71875 33.3125 58.859375 
Q 30.609375 64.015625 25 64.015625 
Q 19.34375 64.015625 16.609375 58.828125 
Q 13.875 53.65625 13.234375 47.328125 
Q 12.59375 41.015625 12.59375 33.5 
Q 12.59375 27.9375 12.859375 23 
Q 13.140625 18.0625 14.3125 12.8125 
Q 15.484375 7.5625 18.09375 3.96875 
Q 20.703125 0.390625 25 0.390625 
" id="Cmr10-30"/>
      <path d="M 6.109375 -2.203125 
Q 5.8125 -2.203125 5.5625 -1.859375 
Q 5.328125 -1.515625 5.328125 -1.21875 
L 11.078125 22.125 
Q 11.28125 22.703125 11.921875 22.703125 
L 13.09375 22.703125 
Q 13.484375 22.703125 13.703125 22.40625 
Q 13.921875 22.125 13.921875 21.6875 
Q 13.09375 18.265625 13.09375 15.578125 
Q 13.09375 8.34375 18.0625 4.828125 
Q 23.046875 1.3125 30.609375 1.3125 
Q 33.890625 1.3125 37.0625 2.921875 
Q 40.234375 4.546875 42.59375 7.125 
Q 44.96875 9.71875 46.375 12.90625 
Q 47.796875 16.109375 47.796875 19.390625 
Q 47.796875 22.90625 45.9375 25.65625 
Q 44.09375 28.421875 40.828125 29.203125 
L 28.609375 32.421875 
Q 23.6875 33.734375 20.75 37.71875 
Q 17.828125 41.703125 17.828125 46.6875 
Q 17.828125 52.6875 21.390625 58.25 
Q 24.953125 63.8125 30.6875 67.15625 
Q 36.421875 70.515625 42.390625 70.515625 
Q 46.96875 70.515625 50.796875 68.828125 
Q 54.640625 67.140625 56.6875 63.484375 
L 62.40625 70.21875 
Q 62.984375 70.515625 63.09375 70.515625 
L 63.71875 70.515625 
Q 64.109375 70.515625 64.34375 70.171875 
Q 64.59375 69.828125 64.59375 69.484375 
L 58.796875 46.296875 
Q 58.640625 45.609375 58.015625 45.609375 
L 56.78125 45.609375 
Q 55.90625 45.609375 55.90625 46.6875 
Q 56.390625 49.859375 56.390625 52.203125 
Q 56.390625 56.84375 54.796875 60.28125 
Q 53.21875 63.71875 50.015625 65.5 
Q 46.828125 67.28125 42.09375 67.28125 
Q 38.09375 67.28125 34.125 64.984375 
Q 30.171875 62.703125 27.734375 58.890625 
Q 25.296875 55.078125 25.296875 50.984375 
Q 25.296875 47.75 27.171875 45.265625 
Q 29.046875 42.78125 32.171875 41.890625 
L 44.390625 38.71875 
Q 47.703125 37.84375 50.171875 35.625 
Q 52.640625 33.40625 53.90625 30.34375 
Q 55.171875 27.296875 55.171875 23.6875 
Q 55.171875 18.953125 53.171875 14.328125 
Q 51.171875 9.71875 47.578125 5.90625 
Q 44 2.09375 39.453125 -0.046875 
Q 34.90625 -2.203125 30.171875 -2.203125 
Q 18.265625 -2.203125 13.09375 4.78125 
L 7.515625 -1.90625 
Q 6.9375 -2.203125 6.78125 -2.203125 
z
" id="Cmmi10-53"/>
      <path d="M 11.71875 12.40625 
L 22.015625 12.40625 
L 22.015625 4 
L 14.015625 -11.625 
L 7.71875 -11.625 
L 11.71875 4 
z
" id="BitstreamVeraSans-Roman-2c"/>
      <path d="M 14.59375 21.578125 
Q 14.59375 15.578125 16.90625 11.015625 
Q 19.234375 6.453125 23.65625 3.875 
Q 28.078125 1.3125 34.078125 1.3125 
Q 40.375 1.3125 46.203125 4.53125 
Q 52.046875 7.765625 56.171875 13.15625 
Q 60.296875 18.5625 61.8125 24.609375 
Q 62.015625 25.203125 62.59375 25.203125 
L 63.8125 25.203125 
Q 64.203125 25.203125 64.453125 24.921875 
Q 64.703125 24.65625 64.703125 24.3125 
Q 64.703125 24.21875 64.59375 24.03125 
Q 62.890625 17.09375 57.984375 11.015625 
Q 53.078125 4.9375 46.234375 1.359375 
Q 39.40625 -2.203125 32.171875 -2.203125 
Q 24.359375 -2.203125 18.15625 1.3125 
Q 11.96875 4.828125 8.515625 11.078125 
Q 5.078125 17.328125 5.078125 25.203125 
Q 5.078125 33.59375 8.828125 41.8125 
Q 12.59375 50.046875 18.9375 56.46875 
Q 25.296875 62.890625 33.421875 66.703125 
Q 41.546875 70.515625 49.90625 70.515625 
Q 53.21875 70.515625 56.25 69.5 
Q 59.28125 68.5 61.859375 66.453125 
Q 64.453125 64.40625 66.109375 61.71875 
L 74.03125 70.3125 
Q 74.03125 70.515625 74.515625 70.515625 
L 75.09375 70.515625 
Q 75.484375 70.515625 75.734375 70.171875 
Q 75.984375 69.828125 75.984375 69.484375 
L 69.1875 42.484375 
Q 69.1875 41.796875 68.40625 41.796875 
L 66.609375 41.796875 
Q 65.828125 41.796875 65.828125 42.921875 
Q 66.21875 45.125 66.21875 48.1875 
Q 66.21875 53.078125 64.546875 57.390625 
Q 62.890625 61.71875 59.390625 64.359375 
Q 55.90625 67 50.875 67 
Q 42.71875 67 35.9375 62.890625 
Q 29.15625 58.796875 24.4375 52.125 
Q 19.734375 45.453125 17.15625 37.328125 
Q 14.59375 29.203125 14.59375 21.578125 
" id="Cmmi10-43"/>
      <path d="M 10.796875 11.625 
Q 10.796875 13.71875 11.359375 16.453125 
Q 11.921875 19.1875 12.59375 21.3125 
Q 13.28125 23.4375 14.90625 27.828125 
Q 16.546875 32.234375 16.703125 32.625 
Q 18.015625 36.28125 18.015625 38.625 
Q 18.015625 41.609375 15.828125 41.609375 
Q 11.859375 41.609375 9.296875 37.53125 
Q 6.734375 33.453125 5.515625 28.421875 
Q 5.328125 27.78125 4.6875 27.78125 
L 3.515625 27.78125 
Q 2.6875 27.78125 2.6875 28.71875 
L 2.6875 29 
Q 4.296875 34.96875 7.609375 39.578125 
Q 10.9375 44.1875 16.015625 44.1875 
Q 19.578125 44.1875 22.046875 41.84375 
Q 24.515625 39.5 24.515625 35.890625 
Q 24.515625 34.03125 23.6875 31.984375 
Q 22.515625 28.953125 20.921875 24.703125 
Q 19.34375 20.453125 18.453125 16.984375 
Q 17.578125 13.53125 17.578125 10.296875 
Q 17.578125 6.390625 19.625 3.953125 
Q 21.6875 1.515625 25.59375 1.515625 
Q 30.90625 1.515625 34.421875 9.625 
Q 34.28125 10.203125 34.28125 11.28125 
Q 34.28125 13.96875 35.109375 17.390625 
L 40.71875 39.890625 
Q 41.0625 41.21875 42.28125 42.15625 
Q 43.5 43.109375 44.921875 43.109375 
Q 46.09375 43.109375 47 42.328125 
Q 47.90625 41.546875 47.90625 40.28125 
Q 47.90625 39.703125 47.796875 39.5 
L 42.1875 17.1875 
Q 41.21875 13.1875 41.21875 10.015625 
Q 41.21875 6.25 42.9375 3.875 
Q 44.671875 1.515625 48.390625 1.515625 
Q 54.828125 1.515625 58.984375 10.015625 
Q 60.546875 13.03125 62.46875 18.9375 
Q 64.40625 24.859375 64.40625 27.984375 
Q 64.40625 30.859375 63.46875 32.546875 
Q 62.546875 34.234375 60.90625 36.1875 
Q 59.28125 38.140625 59.28125 39.109375 
Q 59.28125 41.015625 60.90625 42.640625 
Q 62.546875 44.28125 64.5 44.28125 
Q 66.890625 44.28125 67.9375 42.078125 
Q 69 39.890625 69 37.109375 
Q 69 33.734375 67.875 28.53125 
Q 66.75 23.34375 65.03125 18.09375 
Q 63.328125 12.84375 61.8125 9.71875 
Q 56.34375 -1.125 48.1875 -1.125 
Q 44 -1.125 40.53125 0.484375 
Q 37.0625 2.09375 35.40625 5.609375 
Q 33.796875 2.734375 31.171875 0.796875 
Q 28.5625 -1.125 25.390625 -1.125 
Q 18.796875 -1.125 14.796875 2.015625 
Q 10.796875 5.171875 10.796875 11.625 
" id="Cmmi10-77"/>
      <path d="M 4.5 0 
Q 3.515625 0 3.515625 1.3125 
Q 3.90625 3.515625 4.78125 3.515625 
Q 8.84375 3.515625 11.796875 5.125 
Q 14.75 6.734375 16.890625 10.109375 
Q 17.09375 10.296875 17.09375 10.296875 
L 52.78125 70.515625 
Q 53.5625 71.578125 54.6875 71.578125 
L 56 71.578125 
Q 56.296875 71.578125 56.59375 71.453125 
Q 56.890625 71.34375 57.109375 71.0625 
Q 57.328125 70.796875 57.328125 70.515625 
L 63.375 5.90625 
Q 63.375 5.46875 63.8125 4.59375 
Q 64.796875 3.515625 71.296875 3.515625 
Q 72.3125 3.515625 72.3125 2.203125 
Q 71.96875 0.875 71.75 0.4375 
Q 71.53125 0 70.609375 0 
L 45.609375 0 
Q 44.671875 0 44.671875 1.3125 
Q 45.21875 3.515625 46 3.515625 
Q 53.90625 3.515625 54.390625 6.203125 
L 52.875 22.703125 
L 28.21875 22.703125 
L 20.21875 9.28125 
Q 19.484375 8.203125 19.484375 6.78125 
Q 19.484375 5.03125 21.171875 4.265625 
Q 22.859375 3.515625 24.90625 3.515625 
Q 25.875 3.515625 25.875 2.203125 
Q 25.53125 0.78125 25.328125 0.390625 
Q 25.140625 0 24.21875 0 
z
M 30.171875 26.21875 
L 52.484375 26.21875 
L 49.515625 58.59375 
z
" id="Cmmi10-41"/>
      <path d="M 7.515625 13.28125 
Q 6.6875 13.28125 6.140625 13.90625 
Q 5.609375 14.546875 5.609375 15.28125 
Q 5.609375 16.109375 6.140625 16.6875 
Q 6.6875 17.28125 7.515625 17.28125 
L 70.3125 17.28125 
Q 71.046875 17.28125 71.578125 16.6875 
Q 72.125 16.109375 72.125 15.28125 
Q 72.125 14.546875 71.578125 13.90625 
Q 71.046875 13.28125 70.3125 13.28125 
z
M 7.515625 32.71875 
Q 6.6875 32.71875 6.140625 33.296875 
Q 5.609375 33.890625 5.609375 34.71875 
Q 5.609375 35.453125 6.140625 36.078125 
Q 6.6875 36.71875 7.515625 36.71875 
L 70.3125 36.71875 
Q 71.046875 36.71875 71.578125 36.078125 
Q 72.125 35.453125 72.125 34.71875 
Q 72.125 33.890625 71.578125 33.296875 
Q 71.046875 32.71875 70.3125 32.71875 
z
" id="Cmr10-3d"/>
     </defs>
     <g transform="translate(1018.8 66.23775)scale(0.144 -0.144)">
      <use transform="translate(0.0 0.421875)" xlink:href="#Cmmi10-53"/>
      <use transform="translate(61.279296875 -16.584375)scale(0.7)" xlink:href="#Cmmi10-77"/>
      <use transform="translate(135.254296875 0.421875)" xlink:href="#Cmr10-3d"/>
      <use transform="translate(230.4984375 0.421875)" xlink:href="#Cmr10-31"/>
      <use transform="translate(280.4984375 0.421875)" xlink:href="#BitstreamVeraSans-Roman-2c"/>
      <use transform="translate(312.285546875 0.421875)" xlink:href="#BitstreamVeraSans-Roman-20"/>
      <use transform="translate(344.07265625 0.421875)" xlink:href="#Cmmi10-41"/>
      <use transform="translate(419.07265625 -16.584375)scale(0.7)" xlink:href="#Cmmi10-77"/>
      <use transform="translate(493.04765625 0.421875)" xlink:href="#Cmr10-3d"/>
      <use transform="translate(588.291796875 0.421875)" xlink:href="#Cmr10-30"/>
      <use transform="translate(638.291796875 0.421875)" xlink:href="#BitstreamVeraSans-Roman-2c"/>
      <use transform="translate(670.07890625 0.421875)" xlink:href="#BitstreamVeraSans-Roman-20"/>
      <use transform="translate(701.866015625 0.421875)" xlink:href="#Cmmi10-43"/>
      <use transform="translate(773.252734375 -16.584375)scale(0.7)" xlink:href="#Cmmi10-77"/>
      <use transform="translate(847.227734375 0.421875)" xlink:href="#Cmr10-3d"/>
      <use transform="translate(942.471875 0.421875)" xlink:href="#Cmr10-30"/>
     </g>
    </g>
    <g id="line2d_32">
     <path d="M 982.8 82.33425 
L 1002.96 82.33425 
" style="fill:none;stroke:#008000;stroke-linecap:square;"/>
    </g>
    <g id="line2d_33"/>
    <g id="text_18">
     <!-- $S_w=0$, $A_w=1$, $C_w=0$ -->
     <g transform="translate(1018.8 87.37425)scale(0.144 -0.144)">
      <use transform="translate(0.0 0.421875)" xlink:href="#Cmmi10-53"/>
      <use transform="translate(61.279296875 -16.584375)scale(0.7)" xlink:href="#Cmmi10-77"/>
      <use transform="translate(135.254296875 0.421875)" xlink:href="#Cmr10-3d"/>
      <use transform="translate(230.4984375 0.421875)" xlink:href="#Cmr10-30"/>
      <use transform="translate(280.4984375 0.421875)" xlink:href="#BitstreamVeraSans-Roman-2c"/>
      <use transform="translate(312.285546875 0.421875)" xlink:href="#BitstreamVeraSans-Roman-20"/>
      <use transform="translate(344.07265625 0.421875)" xlink:href="#Cmmi10-41"/>
      <use transform="translate(419.07265625 -16.584375)scale(0.7)" xlink:href="#Cmmi10-77"/>
      <use transform="translate(493.04765625 0.421875)" xlink:href="#Cmr10-3d"/>
      <use transform="translate(588.291796875 0.421875)" xlink:href="#Cmr10-31"/>
      <use transform="translate(638.291796875 0.421875)" xlink:href="#BitstreamVeraSans-Roman-2c"/>
      <use transform="translate(670.07890625 0.421875)" xlink:href="#BitstreamVeraSans-Roman-20"/>
      <use transform="translate(701.866015625 0.421875)" xlink:href="#Cmmi10-43"/>
      <use transform="translate(773.252734375 -16.584375)scale(0.7)" xlink:href="#Cmmi10-77"/>
      <use transform="translate(847.227734375 0.421875)" xlink:href="#Cmr10-3d"/>
      <use transform="translate(942.471875 0.421875)" xlink:href="#Cmr10-30"/>
     </g>
    </g>
    <g id="line2d_34">
     <path d="M 982.8 103.47075 
L 1002.96 103.47075 
" style="fill:none;stroke:#ff0000;stroke-linecap:square;"/>
    </g>
    <g id="line2d_35"/>
    <g id="text_19">
     <!-- $S_w=0$, $A_w=0$, $C_w=1$ -->
     <g transform="translate(1018.8 108.51075)scale(0.144 -0.144)">
      <use transform="translate(0.0 0.421875)" xlink:href="#Cmmi10-53"/>
      <use transform="translate(61.279296875 -16.584375)scale(0.7)" xlink:href="#Cmmi10-77"/>
      <use transform="translate(135.254296875 0.421875)" xlink:href="#Cmr10-3d"/>
      <use transform="translate(230.4984375 0.421875)" xlink:href="#Cmr10-30"/>
      <use transform="translate(280.4984375 0.421875)" xlink:href="#BitstreamVeraSans-Roman-2c"/>
      <use transform="translate(312.285546875 0.421875)" xlink:href="#BitstreamVeraSans-Roman-20"/>
      <use transform="translate(344.07265625 0.421875)" xlink:href="#Cmmi10-41"/>
      <use transform="translate(419.07265625 -16.584375)scale(0.7)" xlink:href="#Cmmi10-77"/>
      <use transform="translate(493.04765625 0.421875)" xlink:href="#Cmr10-3d"/>
      <use transform="translate(588.291796875 0.421875)" xlink:href="#Cmr10-30"/>
      <use transform="translate(638.291796875 0.421875)" xlink:href="#BitstreamVeraSans-Roman-2c"/>
      <use transform="translate(670.07890625 0.421875)" xlink:href="#BitstreamVeraSans-Roman-20"/>
      <use transform="translate(701.866015625 0.421875)" xlink:href="#Cmmi10-43"/>
      <use transform="translate(773.252734375 -16.584375)scale(0.7)" xlink:href="#Cmmi10-77"/>
      <use transform="translate(847.227734375 0.421875)" xlink:href="#Cmr10-3d"/>
      <use transform="translate(942.471875 0.421875)" xlink:href="#Cmr10-31"/>
     </g>
    </g>
   </g>
  </g>
 </g>
 <defs>
  <clipPath id="p6e6f74181a">
   <rect height="403.2" width="803.52" x="162.0" y="50.4"/>
  </clipPath>
 </defs>
</svg>
