<?xml version="1.0" encoding="utf-8" standalone="no"?>
<!DOCTYPE svg PUBLIC "-//W3C//DTD SVG 1.1//EN"
  "http://www.w3.org/Graphics/SVG/1.1/DTD/svg11.dtd">
<!-- Created with matplotlib (http://matplotlib.org/) -->
<svg height="504pt" version="1.1" viewBox="0 0 1296 504" width="1296pt" xmlns="http://www.w3.org/2000/svg" xmlns:xlink="http://www.w3.org/1999/xlink">
 <defs>
  <style type="text/css">
*{stroke-linecap:butt;stroke-linejoin:round;stroke-miterlimit:100000;}
  </style>
 </defs>
 <g id="figure_1">
  <g id="patch_1">
   <path d="M 0 504 
L 1296 504 
L 1296 0 
L 0 0 
z
" style="fill:#ffffff;"/>
  </g>
  <g id="axes_1">
   <g id="patch_2">
    <path d="M 162 453.6 
L 965.52 453.6 
L 965.52 50.4 
L 162 50.4 
z
" style="fill:#ffffff;"/>
   </g>
   <g id="line2d_1">
    <path clip-path="url(#pd1cc4bf63d)" d="M 162 439.8912 
L 165.21408 439.79712 
L 168.42816 442.56576 
L 170.0352 443.10336 
L 171.64224 443.4528 
L 173.24928 443.6544 
L 174.85632 442.848 
L 178.0704 443.13024 
L 179.67744 443.6544 
L 182.89152 444.11136 
L 184.49856 443.37216 
L 187.71264 444.08448 
L 189.31968 444.01728 
L 190.92672 443.7216 
L 192.53376 444.08448 
L 194.1408 444.7296 
L 197.35488 443.66784 
L 200.56896 443.74848 
L 203.78304 442.21632 
L 205.39008 442.14912 
L 206.99712 441.96096 
L 208.60416 441.34272 
L 210.2112 441.86688 
L 211.81824 442.22976 
L 215.03232 441.7728 
L 216.63936 442.0416 
L 218.2464 442.12224 
L 221.46048 442.75392 
L 223.06752 443.56032 
L 224.67456 443.54688 
L 226.2816 444.55488 
L 227.88864 443.46624 
L 229.49568 443.76192 
L 231.10272 443.84256 
L 232.70976 444.192 
L 234.3168 444.36672 
L 235.92384 444.08448 
L 237.53088 443.29152 
L 239.13792 443.6544 
L 242.352 443.39904 
L 243.95904 443.26464 
L 245.56608 443.30496 
L 247.17312 443.22432 
L 248.78016 443.56032 
L 251.99424 443.47968 
L 253.60128 443.27808 
L 255.20832 442.848 
L 260.02944 441.96096 
L 263.24352 441.67872 
L 266.4576 442.86144 
L 268.06464 442.39104 
L 269.67168 442.33728 
L 271.27872 442.48512 
L 274.4928 441.86688 
L 276.09984 440.68416 
L 277.70688 441.32928 
L 279.31392 440.88576 
L 282.528 440.71104 
L 284.13504 441.59808 
L 285.74208 442.29696 
L 287.34912 442.32384 
L 288.95616 442.21632 
L 292.17024 443.00928 
L 293.77728 442.0416 
L 296.99136 441.59808 
L 298.5984 441.85344 
L 300.20544 441.504 
L 301.81248 441.94752 
L 303.41952 440.9664 
L 305.02656 441.07392 
L 308.24064 441.61152 
L 309.84768 441.4368 
L 311.45472 441.0336 
L 313.06176 440.33472 
L 314.6688 440.26752 
L 316.27584 440.77824 
L 317.88288 440.50944 
L 319.48992 440.44224 
L 321.09696 440.68416 
L 322.704 441.49056 
L 325.91808 441.59808 
L 327.52512 441.42336 
L 330.7392 440.79168 
L 332.34624 441.74592 
L 335.56032 442.0416 
L 337.16736 441.5712 
L 338.7744 441.75936 
L 340.38144 441.59808 
L 341.98848 441.75936 
L 343.59552 442.512 
L 345.20256 442.22976 
L 346.8096 442.12224 
L 348.41664 441.69216 
L 350.02368 441.7056 
L 351.63072 442.13568 
L 354.8448 442.2432 
L 356.45184 441.61152 
L 358.05888 442.14912 
L 359.66592 441.85344 
L 361.27296 441.85344 
L 362.88 441.20832 
L 364.48704 441.40992 
L 366.09408 441.34272 
L 367.70112 441.42336 
L 369.30816 441.168 
L 370.9152 442.1088 
L 372.52224 442.3104 
L 374.12928 441.51744 
L 375.73632 441.504 
L 378.9504 440.05248 
L 380.55744 440.06592 
L 382.16448 439.90464 
L 383.77152 439.60896 
L 385.37856 438.43968 
L 386.9856 438.0096 
L 388.59264 439.17888 
L 391.80672 439.63584 
L 393.41376 439.6224 
L 395.0208 439.16544 
L 396.62784 438.91008 
L 398.23488 439.44768 
L 399.84192 440.4288 
L 401.44896 441.04704 
L 403.056 441.34272 
L 404.66304 441.14112 
L 406.27008 441.51744 
L 407.87712 440.80512 
L 409.48416 440.41536 
L 411.0912 441.59808 
L 412.69824 441.4368 
L 414.30528 441.75936 
L 415.91232 441.58464 
L 417.51936 441.59808 
L 419.1264 441.7728 
L 420.73344 441.67872 
L 422.34048 442.02816 
L 425.55456 440.97984 
L 427.1616 440.50944 
L 428.76864 440.9664 
L 430.37568 441.14112 
L 431.98272 441.59808 
L 433.58976 441.78624 
L 435.1968 441.67872 
L 436.80384 441.69216 
L 441.62496 442.22976 
L 443.232 441.88032 
L 444.83904 440.87232 
L 446.44608 441.34272 
L 449.66016 441.22176 
L 451.2672 442.0416 
L 452.87424 442.12224 
L 454.48128 441.504 
L 456.08832 442.47168 
L 457.69536 443.1168 
L 459.3024 442.47168 
L 460.90944 442.13568 
L 462.51648 441.67872 
L 464.12352 441.59808 
L 465.73056 442.39104 
L 467.3376 442.95552 
L 468.94464 442.14912 
L 472.15872 441.15456 
L 473.76576 441.04704 
L 475.3728 440.60352 
L 476.97984 441.40992 
L 478.58688 441.14112 
L 480.19392 441.31584 
L 481.80096 441.06048 
L 483.408 440.6304 
L 485.01504 440.34816 
L 486.62208 440.9664 
L 488.22912 441.7056 
L 489.83616 441.79968 
L 491.4432 440.97984 
L 493.05024 441.86688 
L 496.26432 441.0336 
L 497.87136 440.6304 
L 499.4784 440.06592 
L 501.08544 440.07936 
L 502.69248 439.87776 
L 504.29952 439.824 
L 505.90656 439.46112 
L 507.5136 440.32128 
L 509.12064 440.06592 
L 510.72768 441.07392 
L 512.33472 441.07392 
L 513.94176 440.60352 
L 515.5488 441.168 
L 517.15584 440.34816 
L 520.36992 440.61696 
L 521.97696 440.59008 
L 525.19104 440.6976 
L 526.79808 441.2352 
L 528.40512 441.504 
L 530.01216 441.12768 
L 531.6192 441.78624 
L 533.22624 441.49056 
L 536.44032 440.4288 
L 538.04736 439.63584 
L 539.6544 439.60896 
L 541.26144 439.81056 
L 542.86848 440.25408 
L 544.47552 440.4288 
L 546.08256 440.88576 
L 547.6896 440.85888 
L 549.29664 441.59808 
L 552.51072 441.40992 
L 554.11776 441.40992 
L 557.33184 440.88576 
L 558.93888 441.04704 
L 560.54592 440.77824 
L 562.15296 441.15456 
L 565.36704 441.24864 
L 566.97408 441.12768 
L 568.58112 441.24864 
L 570.18816 440.95296 
L 571.7952 440.50944 
L 573.40224 440.71104 
L 576.61632 439.87776 
L 578.22336 439.79712 
L 579.8304 440.41536 
L 581.43744 440.6976 
L 583.04448 440.80512 
L 584.65152 441.7728 
L 586.25856 442.22976 
L 587.8656 442.22976 
L 591.07968 442.68672 
L 592.68672 442.59264 
L 594.29376 443.10336 
L 595.9008 442.95552 
L 597.50784 442.40448 
L 600.72192 442.40448 
L 602.32896 441.85344 
L 603.936 442.02816 
L 607.15008 441.61152 
L 608.75712 442.49856 
L 610.36416 441.4368 
L 611.9712 440.9664 
L 615.18528 440.34816 
L 616.79232 440.79168 
L 620.0064 440.61696 
L 621.61344 439.90464 
L 623.22048 440.71104 
L 624.82752 441.31584 
L 626.43456 441.24864 
L 628.0416 441.4368 
L 629.64864 441.2352 
L 631.25568 441.2352 
L 632.86272 440.52288 
L 634.46976 440.44224 
L 636.0768 440.87232 
L 637.68384 440.7648 
L 639.29088 441.88032 
L 640.89792 441.40992 
L 642.50496 441.39648 
L 645.71904 441.07392 
L 647.32608 441.12768 
L 648.93312 441.69216 
L 653.75424 442.49856 
L 656.96832 443.39904 
L 658.57536 443.66784 
L 660.1824 443.02272 
L 661.78944 443.21088 
L 663.39648 442.848 
L 665.00352 442.32384 
L 666.61056 442.02816 
L 668.2176 442.05504 
L 669.82464 442.40448 
L 671.43168 442.49856 
L 673.03872 441.94752 
L 676.2528 441.32928 
L 677.85984 441.32928 
L 679.46688 441.49056 
L 684.288 443.76192 
L 685.89504 444.07104 
L 687.50208 444.08448 
L 689.10912 443.74848 
L 690.71616 442.21632 
L 693.93024 442.22976 
L 695.53728 442.0416 
L 697.14432 442.3104 
L 698.75136 442.22976 
L 700.3584 442.83456 
L 703.57248 443.0496 
L 705.17952 443.66784 
L 706.78656 442.94208 
L 708.3936 443.3856 
L 710.00064 443.29152 
L 711.60768 442.29696 
L 713.21472 442.75392 
L 714.82176 442.59264 
L 716.4288 443.1168 
L 718.03584 443.23776 
L 719.64288 442.76736 
L 721.24992 443.27808 
L 722.85696 443.10336 
L 724.464 443.27808 
L 726.07104 444.28608 
L 727.67808 443.9232 
L 729.28512 443.3856 
L 730.89216 444.33984 
L 732.4992 444.89088 
L 734.10624 444.63552 
L 735.71328 444.74304 
L 737.32032 444.38016 
L 738.92736 444.38016 
L 740.5344 444.03072 
L 742.14144 444.00384 
L 743.74848 443.6544 
L 745.35552 444.1248 
L 746.96256 443.82912 
L 748.5696 443.81568 
L 750.17664 444.29952 
L 751.78368 443.13024 
L 753.39072 443.30496 
L 754.99776 442.39104 
L 756.6048 442.1088 
L 758.21184 442.3104 
L 759.81888 442.3776 
L 761.42592 443.29152 
L 763.03296 442.75392 
L 766.24704 442.39104 
L 767.85408 441.7728 
L 771.06816 441.22176 
L 772.6752 441.34272 
L 774.28224 441.07392 
L 775.88928 441.51744 
L 777.49632 441.7728 
L 779.10336 441.86688 
L 780.7104 442.13568 
L 782.31744 442.59264 
L 783.92448 442.13568 
L 787.13856 442.01472 
L 788.7456 441.59808 
L 790.35264 441.04704 
L 791.95968 441.7728 
L 793.56672 441.67872 
L 795.17376 440.77824 
L 796.7808 440.06592 
L 798.38784 440.4288 
L 799.99488 440.17344 
L 801.60192 440.24064 
L 806.42304 441.07392 
L 808.03008 441.168 
L 809.63712 441.61152 
L 811.24416 441.85344 
L 812.8512 441.31584 
L 816.06528 441.31584 
L 817.67232 440.61696 
L 819.27936 440.9664 
L 820.8864 440.16 
L 822.49344 440.07936 
L 824.10048 440.24064 
L 825.70752 441.504 
L 827.31456 441.7728 
L 830.52864 441.74592 
L 833.74272 442.22976 
L 835.34976 442.0416 
L 836.9568 442.12224 
L 838.56384 442.5792 
L 840.17088 442.32384 
L 841.77792 442.48512 
L 844.992 441.61152 
L 846.59904 442.13568 
L 854.63424 440.9664 
L 856.24128 440.8992 
L 857.84832 440.60352 
L 859.45536 440.50944 
L 861.0624 440.24064 
L 862.66944 440.28096 
L 867.49056 441.42336 
L 869.0976 440.80512 
L 870.70464 441.75936 
L 872.31168 441.22176 
L 873.91872 441.58464 
L 877.1328 441.66528 
L 878.73984 442.13568 
L 880.34688 442.47168 
L 881.95392 441.85344 
L 883.56096 441.75936 
L 886.77504 441.14112 
L 888.38208 440.41536 
L 889.98912 440.24064 
L 893.2032 440.33472 
L 894.81024 440.77824 
L 896.41728 440.77824 
L 898.02432 440.06592 
L 899.63136 439.79712 
L 901.2384 439.97184 
L 902.84544 439.71648 
L 904.45248 440.25408 
L 906.05952 440.32128 
L 909.2736 441.15456 
L 912.48768 441.2352 
L 914.09472 440.95296 
L 915.70176 441.2352 
L 917.3088 441.7728 
L 918.91584 442.14912 
L 920.52288 442.21632 
L 922.12992 441.84 
L 923.73696 441.59808 
L 925.344 441.86688 
L 926.95104 441.51744 
L 928.55808 441.67872 
L 931.77216 441.42336 
L 933.3792 440.8992 
L 934.98624 440.95296 
L 936.59328 440.87232 
L 943.02144 441.89376 
L 944.62848 441.67872 
L 946.23552 441.85344 
L 947.84256 441.7728 
L 949.4496 441.2352 
L 951.05664 441.38304 
L 952.66368 441.2352 
L 954.27072 441.40992 
L 955.87776 440.88576 
L 957.4848 441.04704 
L 960.69888 441.67872 
L 963.91296 440.71104 
L 963.91296 440.71104 
" style="fill:none;stroke:#0000ff;stroke-linecap:square;"/>
   </g>
   <g id="line2d_2">
    <path clip-path="url(#pd1cc4bf63d)" d="M 162 440.9664 
L 163.60704 440.53632 
L 165.21408 438.80256 
L 166.82112 436.84032 
L 168.42816 435.41568 
L 170.0352 434.43456 
L 171.64224 434.08512 
L 174.85632 432.37824 
L 176.46336 431.90784 
L 178.0704 430.76544 
L 179.67744 430.67136 
L 182.89152 428.6016 
L 184.49856 427.35168 
L 186.1056 425.376 
L 189.31968 423.13152 
L 190.92672 421.70688 
L 192.53376 420.5376 
L 194.1408 419.83872 
L 195.74784 418.13184 
L 197.35488 416.88192 
L 202.176 412.39296 
L 203.78304 411.30432 
L 205.39008 410.49792 
L 206.99712 410.14848 
L 208.60416 409.35552 
L 211.81824 408.52224 
L 213.42528 408.07872 
L 216.63936 406.81536 
L 218.2464 406.54656 
L 219.85344 406.00896 
L 221.46048 406.21056 
L 223.06752 405.92832 
L 229.49568 405.216 
L 232.70976 404.15424 
L 235.92384 402.89088 
L 237.53088 401.90976 
L 239.13792 401.35872 
L 240.74496 400.92864 
L 242.352 400.20288 
L 243.95904 400.0416 
L 245.56608 399.3024 
L 247.17312 399.02016 
L 248.78016 398.13312 
L 250.3872 397.40736 
L 251.99424 397.07136 
L 255.20832 396.78912 
L 256.81536 395.808 
L 260.02944 394.27584 
L 261.63648 392.8512 
L 264.85056 390.41856 
L 266.4576 388.18752 
L 268.06464 386.48064 
L 269.67168 385.24416 
L 272.88576 381.64224 
L 274.4928 380.58048 
L 276.09984 379.68 
L 279.31392 378.6048 
L 280.92096 377.81184 
L 282.528 377.71776 
L 284.13504 377.44896 
L 285.74208 377.00544 
L 287.34912 376.80384 
L 288.95616 377.35488 
L 292.17024 377.54304 
L 293.77728 377.2608 
L 295.38432 376.2528 
L 296.99136 375.90336 
L 298.5984 375.36576 
L 301.81248 375.19104 
L 303.41952 375.00288 
L 306.6336 375.08352 
L 314.6688 375.1104 
L 316.27584 375.3792 
L 319.48992 375.28512 
L 322.704 375.09696 
L 327.52512 374.0352 
L 329.13216 373.57824 
L 330.7392 373.59168 
L 333.95328 373.13472 
L 335.56032 372.59712 
L 337.16736 371.87136 
L 340.38144 372.1536 
L 341.98848 372.14016 
L 343.59552 371.8848 
L 345.20256 371.79072 
L 346.8096 372.07296 
L 348.41664 371.79072 
L 350.02368 370.98432 
L 351.63072 371.0784 
L 353.23776 370.62144 
L 354.8448 369.98976 
L 356.45184 369.54624 
L 358.05888 368.56512 
L 359.66592 367.22112 
L 361.27296 366.05184 
L 362.88 364.70784 
L 364.48704 363.63264 
L 366.09408 361.83168 
L 367.70112 360.67584 
L 369.30816 359.96352 
L 375.73632 358.60608 
L 378.9504 358.35072 
L 380.55744 357.9072 
L 382.16448 357.62496 
L 383.77152 357.00672 
L 385.37856 356.832 
L 386.9856 356.11968 
L 388.59264 355.93152 
L 395.0208 354.48 
L 398.23488 353.49888 
L 401.44896 352.97472 
L 403.056 352.88064 
L 404.66304 352.34304 
L 406.27008 352.2624 
L 407.87712 351.89952 
L 409.48416 351.80544 
L 411.0912 351.456 
L 412.69824 351.26784 
L 414.30528 350.9184 
L 415.91232 350.7168 
L 417.51936 350.01792 
L 419.1264 349.5744 
L 420.73344 349.3056 
L 422.34048 349.3056 
L 423.94752 348.95616 
L 425.55456 348.95616 
L 433.58976 348.04224 
L 435.1968 347.67936 
L 438.41088 347.4912 
L 443.232 346.59072 
L 444.83904 346.05312 
L 446.44608 345.79776 
L 448.05312 345.71712 
L 449.66016 345.43488 
L 451.2672 345.5424 
L 454.48128 345.26016 
L 457.69536 344.736 
L 459.3024 344.65536 
L 460.90944 344.18496 
L 472.15872 342.3168 
L 475.3728 342.22272 
L 483.408 341.41632 
L 486.62208 341.32224 
L 496.26432 341.2416 
L 501.08544 340.89216 
L 502.69248 340.704 
L 504.29952 340.34112 
L 518.76288 340.24704 
L 521.97696 340.1664 
L 525.19104 340.26048 
L 542.86848 340.1664 
L 546.08256 340.07232 
L 555.7248 339.99168 
L 558.93888 339.91104 
L 571.7952 339.81696 
L 575.00928 339.54816 
L 586.25856 338.8224 
L 592.68672 338.20416 
L 595.9008 338.12352 
L 603.936 337.76064 
L 605.54304 337.76064 
L 607.15008 337.4784 
L 611.9712 337.39776 
L 613.57824 337.22304 
L 623.22048 337.12896 
L 626.43456 337.04832 
L 628.0416 337.22304 
L 644.112 337.2096 
L 647.32608 336.9408 
L 650.54016 336.672 
L 653.75424 336.1344 
L 658.57536 336.05376 
L 661.78944 335.8656 
L 663.39648 335.5968 
L 666.61056 335.51616 
L 769.46112 335.61024 
L 772.6752 335.69088 
L 881.95392 335.5968 
L 888.38208 335.328 
L 936.59328 335.23392 
L 939.80736 335.13984 
L 949.4496 335.0592 
L 952.66368 334.96512 
L 963.91296 335.04576 
L 963.91296 335.04576 
" style="fill:none;stroke:#008000;stroke-linecap:square;"/>
   </g>
   <g id="line2d_3">
    <path clip-path="url(#pd1cc4bf63d)" d="M 162 441.40992 
L 163.60704 440.4288 
L 165.21408 438.45312 
L 166.82112 437.28384 
L 168.42816 434.97216 
L 170.0352 433.52064 
L 171.64224 432.37824 
L 173.24928 430.8192 
L 174.85632 429.744 
L 176.46336 429.21984 
L 178.0704 428.42688 
L 179.67744 427.41888 
L 181.28448 426.26304 
L 182.89152 424.93248 
L 184.49856 422.86272 
L 186.1056 421.6128 
L 187.71264 420.8064 
L 189.31968 419.55648 
L 190.92672 418.56192 
L 194.1408 418.02432 
L 195.74784 417.40608 
L 197.35488 416.2368 
L 198.96192 415.25568 
L 200.56896 413.37408 
L 203.78304 410.8608 
L 205.39008 409.97376 
L 206.99712 409.248 
L 208.60416 406.74816 
L 211.81824 403.3344 
L 215.03232 401.27808 
L 216.63936 399.3024 
L 218.2464 398.03904 
L 219.85344 397.77024 
L 224.67456 396.3456 
L 226.2816 395.63328 
L 227.88864 393.21408 
L 229.49568 391.776 
L 231.10272 391.15776 
L 235.92384 390.35136 
L 237.53088 388.5504 
L 239.13792 387.03168 
L 240.74496 384.33024 
L 242.352 381.37344 
L 243.95904 379.4784 
L 247.17312 375.00288 
L 248.78016 371.0784 
L 251.99424 366.58944 
L 253.60128 363.2832 
L 255.20832 347.1552 
L 256.81536 340.78464 
L 261.63648 340.60992 
L 263.24352 339.88416 
L 264.85056 339.45408 
L 266.4576 339.36 
L 269.67168 336.86016 
L 271.27872 336.32256 
L 272.88576 334.70976 
L 274.4928 333.55392 
L 276.09984 327.00864 
L 277.70688 325.66464 
L 282.528 325.66464 
L 284.13504 322.17024 
L 285.74208 318.3936 
L 287.34912 313.824 
L 288.95616 308.81088 
L 290.5632 307.54752 
L 292.17024 304.77888 
L 295.38432 304.51008 
L 296.99136 299.13408 
L 298.5984 295.10208 
L 300.20544 286.31232 
L 303.41952 286.21824 
L 305.02656 285.77472 
L 306.6336 284.60544 
L 309.84768 284.51136 
L 311.45472 284.51136 
L 313.06176 284.06784 
L 314.6688 282.36096 
L 316.27584 282.18624 
L 317.88288 281.20512 
L 319.48992 280.93632 
L 321.09696 280.93632 
L 322.704 280.03584 
L 324.31104 275.29152 
L 325.91808 272.32128 
L 329.13216 272.32128 
L 330.7392 271.78368 
L 332.34624 271.78368 
L 333.95328 270.80256 
L 335.56032 264.00192 
L 337.16736 257.72544 
L 338.7744 246.70464 
L 340.38144 239.71584 
L 341.98848 236.9472 
L 343.59552 232.99584 
L 345.20256 232.90176 
L 346.8096 232.36416 
L 348.41664 228.77568 
L 350.02368 225.64416 
L 353.23776 225.64416 
L 354.8448 224.66304 
L 356.45184 224.47488 
L 358.05888 219.2064 
L 359.66592 211.31712 
L 361.27296 210.22848 
L 372.52224 210.22848 
L 374.12928 207.45984 
L 375.73632 206.73408 
L 378.9504 206.73408 
L 380.55744 198.67008 
L 382.16448 186.84288 
L 383.77152 186.66816 
L 391.80672 186.66816 
L 395.0208 185.95584 
L 398.23488 178.06656 
L 407.87712 178.06656 
L 409.48416 173.22816 
L 412.69824 172.42176 
L 430.37568 172.42176 
L 431.98272 161.40096 
L 433.58976 158.98176 
L 436.80384 158.98176 
L 438.41088 158.61888 
L 440.01792 158.61888 
L 441.62496 156.38784 
L 443.232 138.99648 
L 444.83904 138.55296 
L 476.97984 138.55296 
L 478.58688 133.98336 
L 480.19392 121.61856 
L 554.11776 121.52448 
L 555.7248 121.4304 
L 557.33184 114.7104 
L 558.93888 114.26688 
L 719.64288 114.26688 
L 721.24992 109.25376 
L 722.85696 104.95296 
L 748.5696 104.95296 
L 750.17664 93.75744 
L 833.74272 93.75744 
L 835.34976 92.95104 
L 836.9568 87.03744 
L 843.38496 87.03744 
L 844.992 75.03552 
L 846.59904 73.96032 
L 849.81312 73.86624 
L 963.91296 73.86624 
L 963.91296 73.86624 
" style="fill:none;stroke:#ff0000;stroke-linecap:square;"/>
   </g>
   <g id="patch_3">
    <path d="M 162 50.4 
L 965.52 50.4 
" style="fill:none;stroke:#000000;stroke-linecap:square;stroke-linejoin:miter;"/>
   </g>
   <g id="patch_4">
    <path d="M 965.52 453.6 
L 965.52 50.4 
" style="fill:none;stroke:#000000;stroke-linecap:square;stroke-linejoin:miter;"/>
   </g>
   <g id="patch_5">
    <path d="M 162 453.6 
L 965.52 453.6 
" style="fill:none;stroke:#000000;stroke-linecap:square;stroke-linejoin:miter;"/>
   </g>
   <g id="patch_6">
    <path d="M 162 453.6 
L 162 50.4 
" style="fill:none;stroke:#000000;stroke-linecap:square;stroke-linejoin:miter;"/>
   </g>
   <g id="matplotlib.axis_1">
    <g id="xtick_1">
     <g id="line2d_4">
      <defs>
       <path d="M 0 0 
L 0 -4 
" id="ma406e1868f" style="stroke:#000000;stroke-width:0.5;"/>
      </defs>
      <g>
       <use style="stroke:#000000;stroke-width:0.5;" x="162.0" xlink:href="#ma406e1868f" y="453.6"/>
      </g>
     </g>
     <g id="line2d_5">
      <defs>
       <path d="M 0 0 
L 0 4 
" id="m27477fc406" style="stroke:#000000;stroke-width:0.5;"/>
      </defs>
      <g>
       <use style="stroke:#000000;stroke-width:0.5;" x="162.0" xlink:href="#m27477fc406" y="50.4"/>
      </g>
     </g>
     <g id="text_1">
      <!-- 0 -->
      <defs>
       <path d="M 31.78125 66.40625 
Q 24.171875 66.40625 20.328125 58.90625 
Q 16.5 51.421875 16.5 36.375 
Q 16.5 21.390625 20.328125 13.890625 
Q 24.171875 6.390625 31.78125 6.390625 
Q 39.453125 6.390625 43.28125 13.890625 
Q 47.125 21.390625 47.125 36.375 
Q 47.125 51.421875 43.28125 58.90625 
Q 39.453125 66.40625 31.78125 66.40625 
M 31.78125 74.21875 
Q 44.046875 74.21875 50.515625 64.515625 
Q 56.984375 54.828125 56.984375 36.375 
Q 56.984375 17.96875 50.515625 8.265625 
Q 44.046875 -1.421875 31.78125 -1.421875 
Q 19.53125 -1.421875 13.0625 8.265625 
Q 6.59375 17.96875 6.59375 36.375 
Q 6.59375 54.828125 13.0625 64.515625 
Q 19.53125 74.21875 31.78125 74.21875 
" id="BitstreamVeraSans-Roman-30"/>
      </defs>
      <g transform="translate(158.1825 466.718125)scale(0.12 -0.12)">
       <use xlink:href="#BitstreamVeraSans-Roman-30"/>
      </g>
     </g>
    </g>
    <g id="xtick_2">
     <g id="line2d_6">
      <g>
       <use style="stroke:#000000;stroke-width:0.5;" x="322.704" xlink:href="#ma406e1868f" y="453.6"/>
      </g>
     </g>
     <g id="line2d_7">
      <g>
       <use style="stroke:#000000;stroke-width:0.5;" x="322.704" xlink:href="#m27477fc406" y="50.4"/>
      </g>
     </g>
     <g id="text_2">
      <!-- 100 -->
      <defs>
       <path d="M 12.40625 8.296875 
L 28.515625 8.296875 
L 28.515625 63.921875 
L 10.984375 60.40625 
L 10.984375 69.390625 
L 28.421875 72.90625 
L 38.28125 72.90625 
L 38.28125 8.296875 
L 54.390625 8.296875 
L 54.390625 0 
L 12.40625 0 
z
" id="BitstreamVeraSans-Roman-31"/>
      </defs>
      <g transform="translate(311.2515 466.718125)scale(0.12 -0.12)">
       <use xlink:href="#BitstreamVeraSans-Roman-31"/>
       <use x="63.623046875" xlink:href="#BitstreamVeraSans-Roman-30"/>
       <use x="127.24609375" xlink:href="#BitstreamVeraSans-Roman-30"/>
      </g>
     </g>
    </g>
    <g id="xtick_3">
     <g id="line2d_8">
      <g>
       <use style="stroke:#000000;stroke-width:0.5;" x="483.408" xlink:href="#ma406e1868f" y="453.6"/>
      </g>
     </g>
     <g id="line2d_9">
      <g>
       <use style="stroke:#000000;stroke-width:0.5;" x="483.408" xlink:href="#m27477fc406" y="50.4"/>
      </g>
     </g>
     <g id="text_3">
      <!-- 200 -->
      <defs>
       <path d="M 19.1875 8.296875 
L 53.609375 8.296875 
L 53.609375 0 
L 7.328125 0 
L 7.328125 8.296875 
Q 12.9375 14.109375 22.625 23.890625 
Q 32.328125 33.6875 34.8125 36.53125 
Q 39.546875 41.84375 41.421875 45.53125 
Q 43.3125 49.21875 43.3125 52.78125 
Q 43.3125 58.59375 39.234375 62.25 
Q 35.15625 65.921875 28.609375 65.921875 
Q 23.96875 65.921875 18.8125 64.3125 
Q 13.671875 62.703125 7.8125 59.421875 
L 7.8125 69.390625 
Q 13.765625 71.78125 18.9375 73 
Q 24.125 74.21875 28.421875 74.21875 
Q 39.75 74.21875 46.484375 68.546875 
Q 53.21875 62.890625 53.21875 53.421875 
Q 53.21875 48.921875 51.53125 44.890625 
Q 49.859375 40.875 45.40625 35.40625 
Q 44.1875 33.984375 37.640625 27.21875 
Q 31.109375 20.453125 19.1875 8.296875 
" id="BitstreamVeraSans-Roman-32"/>
      </defs>
      <g transform="translate(471.9555 466.718125)scale(0.12 -0.12)">
       <use xlink:href="#BitstreamVeraSans-Roman-32"/>
       <use x="63.623046875" xlink:href="#BitstreamVeraSans-Roman-30"/>
       <use x="127.24609375" xlink:href="#BitstreamVeraSans-Roman-30"/>
      </g>
     </g>
    </g>
    <g id="xtick_4">
     <g id="line2d_10">
      <g>
       <use style="stroke:#000000;stroke-width:0.5;" x="644.112" xlink:href="#ma406e1868f" y="453.6"/>
      </g>
     </g>
     <g id="line2d_11">
      <g>
       <use style="stroke:#000000;stroke-width:0.5;" x="644.112" xlink:href="#m27477fc406" y="50.4"/>
      </g>
     </g>
     <g id="text_4">
      <!-- 300 -->
      <defs>
       <path d="M 40.578125 39.3125 
Q 47.65625 37.796875 51.625 33 
Q 55.609375 28.21875 55.609375 21.1875 
Q 55.609375 10.40625 48.1875 4.484375 
Q 40.765625 -1.421875 27.09375 -1.421875 
Q 22.515625 -1.421875 17.65625 -0.515625 
Q 12.796875 0.390625 7.625 2.203125 
L 7.625 11.71875 
Q 11.71875 9.328125 16.59375 8.109375 
Q 21.484375 6.890625 26.8125 6.890625 
Q 36.078125 6.890625 40.9375 10.546875 
Q 45.796875 14.203125 45.796875 21.1875 
Q 45.796875 27.640625 41.28125 31.265625 
Q 36.765625 34.90625 28.71875 34.90625 
L 20.21875 34.90625 
L 20.21875 43.015625 
L 29.109375 43.015625 
Q 36.375 43.015625 40.234375 45.921875 
Q 44.09375 48.828125 44.09375 54.296875 
Q 44.09375 59.90625 40.109375 62.90625 
Q 36.140625 65.921875 28.71875 65.921875 
Q 24.65625 65.921875 20.015625 65.03125 
Q 15.375 64.15625 9.8125 62.3125 
L 9.8125 71.09375 
Q 15.4375 72.65625 20.34375 73.4375 
Q 25.25 74.21875 29.59375 74.21875 
Q 40.828125 74.21875 47.359375 69.109375 
Q 53.90625 64.015625 53.90625 55.328125 
Q 53.90625 49.265625 50.4375 45.09375 
Q 46.96875 40.921875 40.578125 39.3125 
" id="BitstreamVeraSans-Roman-33"/>
      </defs>
      <g transform="translate(632.6595 466.718125)scale(0.12 -0.12)">
       <use xlink:href="#BitstreamVeraSans-Roman-33"/>
       <use x="63.623046875" xlink:href="#BitstreamVeraSans-Roman-30"/>
       <use x="127.24609375" xlink:href="#BitstreamVeraSans-Roman-30"/>
      </g>
     </g>
    </g>
    <g id="xtick_5">
     <g id="line2d_12">
      <g>
       <use style="stroke:#000000;stroke-width:0.5;" x="804.816" xlink:href="#ma406e1868f" y="453.6"/>
      </g>
     </g>
     <g id="line2d_13">
      <g>
       <use style="stroke:#000000;stroke-width:0.5;" x="804.816" xlink:href="#m27477fc406" y="50.4"/>
      </g>
     </g>
     <g id="text_5">
      <!-- 400 -->
      <defs>
       <path d="M 37.796875 64.3125 
L 12.890625 25.390625 
L 37.796875 25.390625 
z
M 35.203125 72.90625 
L 47.609375 72.90625 
L 47.609375 25.390625 
L 58.015625 25.390625 
L 58.015625 17.1875 
L 47.609375 17.1875 
L 47.609375 0 
L 37.796875 0 
L 37.796875 17.1875 
L 4.890625 17.1875 
L 4.890625 26.703125 
z
" id="BitstreamVeraSans-Roman-34"/>
      </defs>
      <g transform="translate(793.3635 466.718125)scale(0.12 -0.12)">
       <use xlink:href="#BitstreamVeraSans-Roman-34"/>
       <use x="63.623046875" xlink:href="#BitstreamVeraSans-Roman-30"/>
       <use x="127.24609375" xlink:href="#BitstreamVeraSans-Roman-30"/>
      </g>
     </g>
    </g>
    <g id="xtick_6">
     <g id="line2d_14">
      <g>
       <use style="stroke:#000000;stroke-width:0.5;" x="965.52" xlink:href="#ma406e1868f" y="453.6"/>
      </g>
     </g>
     <g id="line2d_15">
      <g>
       <use style="stroke:#000000;stroke-width:0.5;" x="965.52" xlink:href="#m27477fc406" y="50.4"/>
      </g>
     </g>
     <g id="text_6">
      <!-- 500 -->
      <defs>
       <path d="M 10.796875 72.90625 
L 49.515625 72.90625 
L 49.515625 64.59375 
L 19.828125 64.59375 
L 19.828125 46.734375 
Q 21.96875 47.46875 24.109375 47.828125 
Q 26.265625 48.1875 28.421875 48.1875 
Q 40.625 48.1875 47.75 41.5 
Q 54.890625 34.8125 54.890625 23.390625 
Q 54.890625 11.625 47.5625 5.09375 
Q 40.234375 -1.421875 26.90625 -1.421875 
Q 22.3125 -1.421875 17.546875 -0.640625 
Q 12.796875 0.140625 7.71875 1.703125 
L 7.71875 11.625 
Q 12.109375 9.234375 16.796875 8.0625 
Q 21.484375 6.890625 26.703125 6.890625 
Q 35.15625 6.890625 40.078125 11.328125 
Q 45.015625 15.765625 45.015625 23.390625 
Q 45.015625 31 40.078125 35.4375 
Q 35.15625 39.890625 26.703125 39.890625 
Q 22.75 39.890625 18.8125 39.015625 
Q 14.890625 38.140625 10.796875 36.28125 
z
" id="BitstreamVeraSans-Roman-35"/>
      </defs>
      <g transform="translate(954.0675 466.718125)scale(0.12 -0.12)">
       <use xlink:href="#BitstreamVeraSans-Roman-35"/>
       <use x="63.623046875" xlink:href="#BitstreamVeraSans-Roman-30"/>
       <use x="127.24609375" xlink:href="#BitstreamVeraSans-Roman-30"/>
      </g>
     </g>
    </g>
    <g id="text_7">
     <!-- Time -->
     <defs>
      <path d="M 56.203125 29.59375 
L 56.203125 25.203125 
L 14.890625 25.203125 
Q 15.484375 15.921875 20.484375 11.0625 
Q 25.484375 6.203125 34.421875 6.203125 
Q 39.59375 6.203125 44.453125 7.46875 
Q 49.3125 8.734375 54.109375 11.28125 
L 54.109375 2.78125 
Q 49.265625 0.734375 44.1875 -0.34375 
Q 39.109375 -1.421875 33.890625 -1.421875 
Q 20.796875 -1.421875 13.15625 6.1875 
Q 5.515625 13.8125 5.515625 26.8125 
Q 5.515625 40.234375 12.765625 48.109375 
Q 20.015625 56 32.328125 56 
Q 43.359375 56 49.78125 48.890625 
Q 56.203125 41.796875 56.203125 29.59375 
M 47.21875 32.234375 
Q 47.125 39.59375 43.09375 43.984375 
Q 39.0625 48.390625 32.421875 48.390625 
Q 24.90625 48.390625 20.390625 44.140625 
Q 15.875 39.890625 15.1875 32.171875 
z
" id="BitstreamVeraSans-Roman-65"/>
      <path d="M 9.421875 54.6875 
L 18.40625 54.6875 
L 18.40625 0 
L 9.421875 0 
z
M 9.421875 75.984375 
L 18.40625 75.984375 
L 18.40625 64.59375 
L 9.421875 64.59375 
z
" id="BitstreamVeraSans-Roman-69"/>
      <path d="M -0.296875 72.90625 
L 61.375 72.90625 
L 61.375 64.59375 
L 35.5 64.59375 
L 35.5 0 
L 25.59375 0 
L 25.59375 64.59375 
L -0.296875 64.59375 
z
" id="BitstreamVeraSans-Roman-54"/>
      <path d="M 52 44.1875 
Q 55.375 50.25 60.0625 53.125 
Q 64.75 56 71.09375 56 
Q 79.640625 56 84.28125 50.015625 
Q 88.921875 44.046875 88.921875 33.015625 
L 88.921875 0 
L 79.890625 0 
L 79.890625 32.71875 
Q 79.890625 40.578125 77.09375 44.375 
Q 74.3125 48.1875 68.609375 48.1875 
Q 61.625 48.1875 57.5625 43.546875 
Q 53.515625 38.921875 53.515625 30.90625 
L 53.515625 0 
L 44.484375 0 
L 44.484375 32.71875 
Q 44.484375 40.625 41.703125 44.40625 
Q 38.921875 48.1875 33.109375 48.1875 
Q 26.21875 48.1875 22.15625 43.53125 
Q 18.109375 38.875 18.109375 30.90625 
L 18.109375 0 
L 9.078125 0 
L 9.078125 54.6875 
L 18.109375 54.6875 
L 18.109375 46.1875 
Q 21.1875 51.21875 25.484375 53.609375 
Q 29.78125 56 35.6875 56 
Q 41.65625 56 45.828125 52.96875 
Q 50 49.953125 52 44.1875 
" id="BitstreamVeraSans-Roman-6d"/>
     </defs>
     <g transform="translate(548.895 483.331875)scale(0.12 -0.12)">
      <use xlink:href="#BitstreamVeraSans-Roman-54"/>
      <use x="61.037109375" xlink:href="#BitstreamVeraSans-Roman-69"/>
      <use x="88.8203125" xlink:href="#BitstreamVeraSans-Roman-6d"/>
      <use x="186.232421875" xlink:href="#BitstreamVeraSans-Roman-65"/>
     </g>
    </g>
   </g>
   <g id="matplotlib.axis_2">
    <g id="ytick_1">
     <g id="line2d_16">
      <defs>
       <path d="M 0 0 
L 4 0 
" id="m4694c3c610" style="stroke:#000000;stroke-width:0.5;"/>
      </defs>
      <g>
       <use style="stroke:#000000;stroke-width:0.5;" x="162.0" xlink:href="#m4694c3c610" y="453.6"/>
      </g>
     </g>
     <g id="line2d_17">
      <defs>
       <path d="M 0 0 
L -4 0 
" id="mcc68250a6b" style="stroke:#000000;stroke-width:0.5;"/>
      </defs>
      <g>
       <use style="stroke:#000000;stroke-width:0.5;" x="965.52" xlink:href="#mcc68250a6b" y="453.6"/>
      </g>
     </g>
     <g id="text_8">
      <!-- 0 -->
      <g transform="translate(150.365 456.91125)scale(0.12 -0.12)">
       <use xlink:href="#BitstreamVeraSans-Roman-30"/>
      </g>
     </g>
    </g>
    <g id="ytick_2">
     <g id="line2d_18">
      <g>
       <use style="stroke:#000000;stroke-width:0.5;" x="162.0" xlink:href="#m4694c3c610" y="386.4"/>
      </g>
     </g>
     <g id="line2d_19">
      <g>
       <use style="stroke:#000000;stroke-width:0.5;" x="965.52" xlink:href="#mcc68250a6b" y="386.4"/>
      </g>
     </g>
     <g id="text_9">
      <!-- 5 -->
      <g transform="translate(150.365 389.71125)scale(0.12 -0.12)">
       <use xlink:href="#BitstreamVeraSans-Roman-35"/>
      </g>
     </g>
    </g>
    <g id="ytick_3">
     <g id="line2d_20">
      <g>
       <use style="stroke:#000000;stroke-width:0.5;" x="162.0" xlink:href="#m4694c3c610" y="319.2"/>
      </g>
     </g>
     <g id="line2d_21">
      <g>
       <use style="stroke:#000000;stroke-width:0.5;" x="965.52" xlink:href="#mcc68250a6b" y="319.2"/>
      </g>
     </g>
     <g id="text_10">
      <!-- 10 -->
      <g transform="translate(142.73 322.51125)scale(0.12 -0.12)">
       <use xlink:href="#BitstreamVeraSans-Roman-31"/>
       <use x="63.623046875" xlink:href="#BitstreamVeraSans-Roman-30"/>
      </g>
     </g>
    </g>
    <g id="ytick_4">
     <g id="line2d_22">
      <g>
       <use style="stroke:#000000;stroke-width:0.5;" x="162.0" xlink:href="#m4694c3c610" y="252.0"/>
      </g>
     </g>
     <g id="line2d_23">
      <g>
       <use style="stroke:#000000;stroke-width:0.5;" x="965.52" xlink:href="#mcc68250a6b" y="252.0"/>
      </g>
     </g>
     <g id="text_11">
      <!-- 15 -->
      <g transform="translate(142.73 255.31125)scale(0.12 -0.12)">
       <use xlink:href="#BitstreamVeraSans-Roman-31"/>
       <use x="63.623046875" xlink:href="#BitstreamVeraSans-Roman-35"/>
      </g>
     </g>
    </g>
    <g id="ytick_5">
     <g id="line2d_24">
      <g>
       <use style="stroke:#000000;stroke-width:0.5;" x="162.0" xlink:href="#m4694c3c610" y="184.8"/>
      </g>
     </g>
     <g id="line2d_25">
      <g>
       <use style="stroke:#000000;stroke-width:0.5;" x="965.52" xlink:href="#mcc68250a6b" y="184.8"/>
      </g>
     </g>
     <g id="text_12">
      <!-- 20 -->
      <g transform="translate(142.73 188.11125)scale(0.12 -0.12)">
       <use xlink:href="#BitstreamVeraSans-Roman-32"/>
       <use x="63.623046875" xlink:href="#BitstreamVeraSans-Roman-30"/>
      </g>
     </g>
    </g>
    <g id="ytick_6">
     <g id="line2d_26">
      <g>
       <use style="stroke:#000000;stroke-width:0.5;" x="162.0" xlink:href="#m4694c3c610" y="117.6"/>
      </g>
     </g>
     <g id="line2d_27">
      <g>
       <use style="stroke:#000000;stroke-width:0.5;" x="965.52" xlink:href="#mcc68250a6b" y="117.6"/>
      </g>
     </g>
     <g id="text_13">
      <!-- 25 -->
      <g transform="translate(142.73 120.91125)scale(0.12 -0.12)">
       <use xlink:href="#BitstreamVeraSans-Roman-32"/>
       <use x="63.623046875" xlink:href="#BitstreamVeraSans-Roman-35"/>
      </g>
     </g>
    </g>
    <g id="ytick_7">
     <g id="line2d_28">
      <g>
       <use style="stroke:#000000;stroke-width:0.5;" x="162.0" xlink:href="#m4694c3c610" y="50.4"/>
      </g>
     </g>
     <g id="line2d_29">
      <g>
       <use style="stroke:#000000;stroke-width:0.5;" x="965.52" xlink:href="#mcc68250a6b" y="50.4"/>
      </g>
     </g>
     <g id="text_14">
      <!-- 30 -->
      <g transform="translate(142.73 53.71125)scale(0.12 -0.12)">
       <use xlink:href="#BitstreamVeraSans-Roman-33"/>
       <use x="63.623046875" xlink:href="#BitstreamVeraSans-Roman-30"/>
      </g>
     </g>
    </g>
    <g id="text_15">
     <!-- #neighbors -->
     <defs>
      <path d="M 51.125 44 
L 36.921875 44 
L 32.8125 27.6875 
L 47.125 27.6875 
z
M 43.796875 71.78125 
L 38.71875 51.515625 
L 52.984375 51.515625 
L 58.109375 71.78125 
L 65.921875 71.78125 
L 60.890625 51.515625 
L 76.125 51.515625 
L 76.125 44 
L 58.984375 44 
L 54.984375 27.6875 
L 70.515625 27.6875 
L 70.515625 20.21875 
L 53.078125 20.21875 
L 48 0 
L 40.1875 0 
L 45.21875 20.21875 
L 30.90625 20.21875 
L 25.875 0 
L 18.015625 0 
L 23.09375 20.21875 
L 7.71875 20.21875 
L 7.71875 27.6875 
L 24.90625 27.6875 
L 29 44 
L 13.28125 44 
L 13.28125 51.515625 
L 30.90625 51.515625 
L 35.890625 71.78125 
z
" id="BitstreamVeraSans-Roman-23"/>
      <path d="M 54.890625 33.015625 
L 54.890625 0 
L 45.90625 0 
L 45.90625 32.71875 
Q 45.90625 40.484375 42.875 44.328125 
Q 39.84375 48.1875 33.796875 48.1875 
Q 26.515625 48.1875 22.3125 43.546875 
Q 18.109375 38.921875 18.109375 30.90625 
L 18.109375 0 
L 9.078125 0 
L 9.078125 54.6875 
L 18.109375 54.6875 
L 18.109375 46.1875 
Q 21.34375 51.125 25.703125 53.5625 
Q 30.078125 56 35.796875 56 
Q 45.21875 56 50.046875 50.171875 
Q 54.890625 44.34375 54.890625 33.015625 
" id="BitstreamVeraSans-Roman-6e"/>
      <path d="M 30.609375 48.390625 
Q 23.390625 48.390625 19.1875 42.75 
Q 14.984375 37.109375 14.984375 27.296875 
Q 14.984375 17.484375 19.15625 11.84375 
Q 23.34375 6.203125 30.609375 6.203125 
Q 37.796875 6.203125 41.984375 11.859375 
Q 46.1875 17.53125 46.1875 27.296875 
Q 46.1875 37.015625 41.984375 42.703125 
Q 37.796875 48.390625 30.609375 48.390625 
M 30.609375 56 
Q 42.328125 56 49.015625 48.375 
Q 55.71875 40.765625 55.71875 27.296875 
Q 55.71875 13.875 49.015625 6.21875 
Q 42.328125 -1.421875 30.609375 -1.421875 
Q 18.84375 -1.421875 12.171875 6.21875 
Q 5.515625 13.875 5.515625 27.296875 
Q 5.515625 40.765625 12.171875 48.375 
Q 18.84375 56 30.609375 56 
" id="BitstreamVeraSans-Roman-6f"/>
      <path d="M 54.890625 33.015625 
L 54.890625 0 
L 45.90625 0 
L 45.90625 32.71875 
Q 45.90625 40.484375 42.875 44.328125 
Q 39.84375 48.1875 33.796875 48.1875 
Q 26.515625 48.1875 22.3125 43.546875 
Q 18.109375 38.921875 18.109375 30.90625 
L 18.109375 0 
L 9.078125 0 
L 9.078125 75.984375 
L 18.109375 75.984375 
L 18.109375 46.1875 
Q 21.34375 51.125 25.703125 53.5625 
Q 30.078125 56 35.796875 56 
Q 45.21875 56 50.046875 50.171875 
Q 54.890625 44.34375 54.890625 33.015625 
" id="BitstreamVeraSans-Roman-68"/>
      <path d="M 45.40625 27.984375 
Q 45.40625 37.75 41.375 43.109375 
Q 37.359375 48.484375 30.078125 48.484375 
Q 22.859375 48.484375 18.828125 43.109375 
Q 14.796875 37.75 14.796875 27.984375 
Q 14.796875 18.265625 18.828125 12.890625 
Q 22.859375 7.515625 30.078125 7.515625 
Q 37.359375 7.515625 41.375 12.890625 
Q 45.40625 18.265625 45.40625 27.984375 
M 54.390625 6.78125 
Q 54.390625 -7.171875 48.1875 -13.984375 
Q 42 -20.796875 29.203125 -20.796875 
Q 24.46875 -20.796875 20.265625 -20.09375 
Q 16.0625 -19.390625 12.109375 -17.921875 
L 12.109375 -9.1875 
Q 16.0625 -11.328125 19.921875 -12.34375 
Q 23.78125 -13.375 27.78125 -13.375 
Q 36.625 -13.375 41.015625 -8.765625 
Q 45.40625 -4.15625 45.40625 5.171875 
L 45.40625 9.625 
Q 42.625 4.78125 38.28125 2.390625 
Q 33.9375 0 27.875 0 
Q 17.828125 0 11.671875 7.65625 
Q 5.515625 15.328125 5.515625 27.984375 
Q 5.515625 40.671875 11.671875 48.328125 
Q 17.828125 56 27.875 56 
Q 33.9375 56 38.28125 53.609375 
Q 42.625 51.21875 45.40625 46.390625 
L 45.40625 54.6875 
L 54.390625 54.6875 
z
" id="BitstreamVeraSans-Roman-67"/>
      <path d="M 41.109375 46.296875 
Q 39.59375 47.171875 37.8125 47.578125 
Q 36.03125 48 33.890625 48 
Q 26.265625 48 22.1875 43.046875 
Q 18.109375 38.09375 18.109375 28.8125 
L 18.109375 0 
L 9.078125 0 
L 9.078125 54.6875 
L 18.109375 54.6875 
L 18.109375 46.1875 
Q 20.953125 51.171875 25.484375 53.578125 
Q 30.03125 56 36.53125 56 
Q 37.453125 56 38.578125 55.875 
Q 39.703125 55.765625 41.0625 55.515625 
z
" id="BitstreamVeraSans-Roman-72"/>
      <path d="M 44.28125 53.078125 
L 44.28125 44.578125 
Q 40.484375 46.53125 36.375 47.5 
Q 32.28125 48.484375 27.875 48.484375 
Q 21.1875 48.484375 17.84375 46.4375 
Q 14.5 44.390625 14.5 40.28125 
Q 14.5 37.15625 16.890625 35.375 
Q 19.28125 33.59375 26.515625 31.984375 
L 29.59375 31.296875 
Q 39.15625 29.25 43.1875 25.515625 
Q 47.21875 21.78125 47.21875 15.09375 
Q 47.21875 7.46875 41.1875 3.015625 
Q 35.15625 -1.421875 24.609375 -1.421875 
Q 20.21875 -1.421875 15.453125 -0.5625 
Q 10.6875 0.296875 5.421875 2 
L 5.421875 11.28125 
Q 10.40625 8.6875 15.234375 7.390625 
Q 20.0625 6.109375 24.8125 6.109375 
Q 31.15625 6.109375 34.5625 8.28125 
Q 37.984375 10.453125 37.984375 14.40625 
Q 37.984375 18.0625 35.515625 20.015625 
Q 33.0625 21.96875 24.703125 23.78125 
L 21.578125 24.515625 
Q 13.234375 26.265625 9.515625 29.90625 
Q 5.8125 33.546875 5.8125 39.890625 
Q 5.8125 47.609375 11.28125 51.796875 
Q 16.75 56 26.8125 56 
Q 31.78125 56 36.171875 55.265625 
Q 40.578125 54.546875 44.28125 53.078125 
" id="BitstreamVeraSans-Roman-73"/>
      <path d="M 48.6875 27.296875 
Q 48.6875 37.203125 44.609375 42.84375 
Q 40.53125 48.484375 33.40625 48.484375 
Q 26.265625 48.484375 22.1875 42.84375 
Q 18.109375 37.203125 18.109375 27.296875 
Q 18.109375 17.390625 22.1875 11.75 
Q 26.265625 6.109375 33.40625 6.109375 
Q 40.53125 6.109375 44.609375 11.75 
Q 48.6875 17.390625 48.6875 27.296875 
M 18.109375 46.390625 
Q 20.953125 51.265625 25.265625 53.625 
Q 29.59375 56 35.59375 56 
Q 45.5625 56 51.78125 48.09375 
Q 58.015625 40.1875 58.015625 27.296875 
Q 58.015625 14.40625 51.78125 6.484375 
Q 45.5625 -1.421875 35.59375 -1.421875 
Q 29.59375 -1.421875 25.265625 0.953125 
Q 20.953125 3.328125 18.109375 8.203125 
L 18.109375 0 
L 9.078125 0 
L 9.078125 75.984375 
L 18.109375 75.984375 
z
" id="BitstreamVeraSans-Roman-62"/>
     </defs>
     <g transform="translate(135.234375 286.873125)rotate(-90.0)scale(0.12 -0.12)">
      <use xlink:href="#BitstreamVeraSans-Roman-23"/>
      <use x="83.7890625" xlink:href="#BitstreamVeraSans-Roman-6e"/>
      <use x="147.16796875" xlink:href="#BitstreamVeraSans-Roman-65"/>
      <use x="208.69140625" xlink:href="#BitstreamVeraSans-Roman-69"/>
      <use x="236.474609375" xlink:href="#BitstreamVeraSans-Roman-67"/>
      <use x="299.951171875" xlink:href="#BitstreamVeraSans-Roman-68"/>
      <use x="363.330078125" xlink:href="#BitstreamVeraSans-Roman-62"/>
      <use x="426.806640625" xlink:href="#BitstreamVeraSans-Roman-6f"/>
      <use x="487.98828125" xlink:href="#BitstreamVeraSans-Roman-72"/>
      <use x="529.1015625" xlink:href="#BitstreamVeraSans-Roman-73"/>
     </g>
    </g>
   </g>
   <g id="text_16">
    <!-- Isolated mechanisms: #neighbors -->
    <defs>
     <path id="BitstreamVeraSans-Roman-20"/>
     <path d="M 9.421875 75.984375 
L 18.40625 75.984375 
L 18.40625 0 
L 9.421875 0 
z
" id="BitstreamVeraSans-Roman-6c"/>
     <path d="M 11.71875 12.40625 
L 22.015625 12.40625 
L 22.015625 0 
L 11.71875 0 
z
M 11.71875 51.703125 
L 22.015625 51.703125 
L 22.015625 39.3125 
L 11.71875 39.3125 
z
" id="BitstreamVeraSans-Roman-3a"/>
     <path d="M 48.78125 52.59375 
L 48.78125 44.1875 
Q 44.96875 46.296875 41.140625 47.34375 
Q 37.3125 48.390625 33.40625 48.390625 
Q 24.65625 48.390625 19.8125 42.84375 
Q 14.984375 37.3125 14.984375 27.296875 
Q 14.984375 17.28125 19.8125 11.734375 
Q 24.65625 6.203125 33.40625 6.203125 
Q 37.3125 6.203125 41.140625 7.25 
Q 44.96875 8.296875 48.78125 10.40625 
L 48.78125 2.09375 
Q 45.015625 0.34375 40.984375 -0.53125 
Q 36.96875 -1.421875 32.421875 -1.421875 
Q 20.0625 -1.421875 12.78125 6.34375 
Q 5.515625 14.109375 5.515625 27.296875 
Q 5.515625 40.671875 12.859375 48.328125 
Q 20.21875 56 33.015625 56 
Q 37.15625 56 41.109375 55.140625 
Q 45.0625 54.296875 48.78125 52.59375 
" id="BitstreamVeraSans-Roman-63"/>
     <path d="M 45.40625 46.390625 
L 45.40625 75.984375 
L 54.390625 75.984375 
L 54.390625 0 
L 45.40625 0 
L 45.40625 8.203125 
Q 42.578125 3.328125 38.25 0.953125 
Q 33.9375 -1.421875 27.875 -1.421875 
Q 17.96875 -1.421875 11.734375 6.484375 
Q 5.515625 14.40625 5.515625 27.296875 
Q 5.515625 40.1875 11.734375 48.09375 
Q 17.96875 56 27.875 56 
Q 33.9375 56 38.25 53.625 
Q 42.578125 51.265625 45.40625 46.390625 
M 14.796875 27.296875 
Q 14.796875 17.390625 18.875 11.75 
Q 22.953125 6.109375 30.078125 6.109375 
Q 37.203125 6.109375 41.296875 11.75 
Q 45.40625 17.390625 45.40625 27.296875 
Q 45.40625 37.203125 41.296875 42.84375 
Q 37.203125 48.484375 30.078125 48.484375 
Q 22.953125 48.484375 18.875 42.84375 
Q 14.796875 37.203125 14.796875 27.296875 
" id="BitstreamVeraSans-Roman-64"/>
     <path d="M 18.3125 70.21875 
L 18.3125 54.6875 
L 36.8125 54.6875 
L 36.8125 47.703125 
L 18.3125 47.703125 
L 18.3125 18.015625 
Q 18.3125 11.328125 20.140625 9.421875 
Q 21.96875 7.515625 27.59375 7.515625 
L 36.8125 7.515625 
L 36.8125 0 
L 27.59375 0 
Q 17.1875 0 13.234375 3.875 
Q 9.28125 7.765625 9.28125 18.015625 
L 9.28125 47.703125 
L 2.6875 47.703125 
L 2.6875 54.6875 
L 9.28125 54.6875 
L 9.28125 70.21875 
z
" id="BitstreamVeraSans-Roman-74"/>
     <path d="M 34.28125 27.484375 
Q 23.390625 27.484375 19.1875 25 
Q 14.984375 22.515625 14.984375 16.5 
Q 14.984375 11.71875 18.140625 8.90625 
Q 21.296875 6.109375 26.703125 6.109375 
Q 34.1875 6.109375 38.703125 11.40625 
Q 43.21875 16.703125 43.21875 25.484375 
L 43.21875 27.484375 
z
M 52.203125 31.203125 
L 52.203125 0 
L 43.21875 0 
L 43.21875 8.296875 
Q 40.140625 3.328125 35.546875 0.953125 
Q 30.953125 -1.421875 24.3125 -1.421875 
Q 15.921875 -1.421875 10.953125 3.296875 
Q 6 8.015625 6 15.921875 
Q 6 25.140625 12.171875 29.828125 
Q 18.359375 34.515625 30.609375 34.515625 
L 43.21875 34.515625 
L 43.21875 35.40625 
Q 43.21875 41.609375 39.140625 45 
Q 35.0625 48.390625 27.6875 48.390625 
Q 23 48.390625 18.546875 47.265625 
Q 14.109375 46.140625 10.015625 43.890625 
L 10.015625 52.203125 
Q 14.9375 54.109375 19.578125 55.046875 
Q 24.21875 56 28.609375 56 
Q 40.484375 56 46.34375 49.84375 
Q 52.203125 43.703125 52.203125 31.203125 
" id="BitstreamVeraSans-Roman-61"/>
     <path d="M 9.8125 72.90625 
L 19.671875 72.90625 
L 19.671875 0 
L 9.8125 0 
z
" id="BitstreamVeraSans-Roman-49"/>
    </defs>
    <g transform="translate(440.938125 45.4)scale(0.144 -0.144)">
     <use xlink:href="#BitstreamVeraSans-Roman-49"/>
     <use x="29.4921875" xlink:href="#BitstreamVeraSans-Roman-73"/>
     <use x="81.591796875" xlink:href="#BitstreamVeraSans-Roman-6f"/>
     <use x="142.7734375" xlink:href="#BitstreamVeraSans-Roman-6c"/>
     <use x="170.556640625" xlink:href="#BitstreamVeraSans-Roman-61"/>
     <use x="231.8359375" xlink:href="#BitstreamVeraSans-Roman-74"/>
     <use x="271.044921875" xlink:href="#BitstreamVeraSans-Roman-65"/>
     <use x="332.568359375" xlink:href="#BitstreamVeraSans-Roman-64"/>
     <use x="396.044921875" xlink:href="#BitstreamVeraSans-Roman-20"/>
     <use x="427.83203125" xlink:href="#BitstreamVeraSans-Roman-6d"/>
     <use x="525.244140625" xlink:href="#BitstreamVeraSans-Roman-65"/>
     <use x="586.767578125" xlink:href="#BitstreamVeraSans-Roman-63"/>
     <use x="641.748046875" xlink:href="#BitstreamVeraSans-Roman-68"/>
     <use x="705.126953125" xlink:href="#BitstreamVeraSans-Roman-61"/>
     <use x="766.40625" xlink:href="#BitstreamVeraSans-Roman-6e"/>
     <use x="829.78515625" xlink:href="#BitstreamVeraSans-Roman-69"/>
     <use x="857.568359375" xlink:href="#BitstreamVeraSans-Roman-73"/>
     <use x="909.66796875" xlink:href="#BitstreamVeraSans-Roman-6d"/>
     <use x="1007.08007812" xlink:href="#BitstreamVeraSans-Roman-73"/>
     <use x="1059.1796875" xlink:href="#BitstreamVeraSans-Roman-3a"/>
     <use x="1092.87109375" xlink:href="#BitstreamVeraSans-Roman-20"/>
     <use x="1124.65820312" xlink:href="#BitstreamVeraSans-Roman-23"/>
     <use x="1208.44726562" xlink:href="#BitstreamVeraSans-Roman-6e"/>
     <use x="1271.82617188" xlink:href="#BitstreamVeraSans-Roman-65"/>
     <use x="1333.34960938" xlink:href="#BitstreamVeraSans-Roman-69"/>
     <use x="1361.1328125" xlink:href="#BitstreamVeraSans-Roman-67"/>
     <use x="1424.609375" xlink:href="#BitstreamVeraSans-Roman-68"/>
     <use x="1487.98828125" xlink:href="#BitstreamVeraSans-Roman-62"/>
     <use x="1551.46484375" xlink:href="#BitstreamVeraSans-Roman-6f"/>
     <use x="1612.64648438" xlink:href="#BitstreamVeraSans-Roman-72"/>
     <use x="1653.75976562" xlink:href="#BitstreamVeraSans-Roman-73"/>
    </g>
   </g>
   <g id="legend_1">
    <g id="patch_7">
     <path d="M 972.72 117.2655 
L 1167.552 117.2655 
L 1167.552 49.536 
L 972.72 49.536 
z
" style="fill:#ffffff;stroke:#000000;stroke-linejoin:miter;"/>
    </g>
    <g id="line2d_30">
     <path d="M 982.8 61.19775 
L 1002.96 61.19775 
" style="fill:none;stroke:#0000ff;stroke-linecap:square;"/>
    </g>
    <g id="line2d_31"/>
    <g id="text_17">
     <!-- $S_w=1$, $A_w=0$, $C_w=0$ -->
     <defs>
      <path d="M 9.28125 0 
L 9.28125 3.515625 
Q 21.78125 3.515625 21.78125 6.6875 
L 21.78125 59.1875 
Q 16.609375 56.6875 8.6875 56.6875 
L 8.6875 60.203125 
Q 20.953125 60.203125 27.203125 66.609375 
L 28.609375 66.609375 
Q 28.953125 66.609375 29.265625 66.328125 
Q 29.59375 66.0625 29.59375 65.71875 
L 29.59375 6.6875 
Q 29.59375 3.515625 42.09375 3.515625 
L 42.09375 0 
z
" id="Cmr10-31"/>
      <path d="M 25 -2.203125 
Q 12.75 -2.203125 8.328125 7.875 
Q 3.90625 17.96875 3.90625 31.890625 
Q 3.90625 40.578125 5.484375 48.234375 
Q 7.078125 55.90625 11.78125 61.25 
Q 16.5 66.609375 25 66.609375 
Q 31.59375 66.609375 35.78125 63.375 
Q 39.984375 60.15625 42.1875 55.046875 
Q 44.390625 49.953125 45.1875 44.109375 
Q 46 38.28125 46 31.890625 
Q 46 23.296875 44.40625 15.796875 
Q 42.828125 8.296875 38.1875 3.046875 
Q 33.546875 -2.203125 25 -2.203125 
M 25 0.390625 
Q 30.5625 0.390625 33.296875 6.09375 
Q 36.03125 11.8125 36.671875 18.75 
Q 37.3125 25.6875 37.3125 33.5 
Q 37.3125 41.015625 36.671875 47.359375 
Q 36.03125 53.71875 33.3125 58.859375 
Q 30.609375 64.015625 25 64.015625 
Q 19.34375 64.015625 16.609375 58.828125 
Q 13.875 53.65625 13.234375 47.328125 
Q 12.59375 41.015625 12.59375 33.5 
Q 12.59375 27.9375 12.859375 23 
Q 13.140625 18.0625 14.3125 12.8125 
Q 15.484375 7.5625 18.09375 3.96875 
Q 20.703125 0.390625 25 0.390625 
" id="Cmr10-30"/>
      <path d="M 6.109375 -2.203125 
Q 5.8125 -2.203125 5.5625 -1.859375 
Q 5.328125 -1.515625 5.328125 -1.21875 
L 11.078125 22.125 
Q 11.28125 22.703125 11.921875 22.703125 
L 13.09375 22.703125 
Q 13.484375 22.703125 13.703125 22.40625 
Q 13.921875 22.125 13.921875 21.6875 
Q 13.09375 18.265625 13.09375 15.578125 
Q 13.09375 8.34375 18.0625 4.828125 
Q 23.046875 1.3125 30.609375 1.3125 
Q 33.890625 1.3125 37.0625 2.921875 
Q 40.234375 4.546875 42.59375 7.125 
Q 44.96875 9.71875 46.375 12.90625 
Q 47.796875 16.109375 47.796875 19.390625 
Q 47.796875 22.90625 45.9375 25.65625 
Q 44.09375 28.421875 40.828125 29.203125 
L 28.609375 32.421875 
Q 23.6875 33.734375 20.75 37.71875 
Q 17.828125 41.703125 17.828125 46.6875 
Q 17.828125 52.6875 21.390625 58.25 
Q 24.953125 63.8125 30.6875 67.15625 
Q 36.421875 70.515625 42.390625 70.515625 
Q 46.96875 70.515625 50.796875 68.828125 
Q 54.640625 67.140625 56.6875 63.484375 
L 62.40625 70.21875 
Q 62.984375 70.515625 63.09375 70.515625 
L 63.71875 70.515625 
Q 64.109375 70.515625 64.34375 70.171875 
Q 64.59375 69.828125 64.59375 69.484375 
L 58.796875 46.296875 
Q 58.640625 45.609375 58.015625 45.609375 
L 56.78125 45.609375 
Q 55.90625 45.609375 55.90625 46.6875 
Q 56.390625 49.859375 56.390625 52.203125 
Q 56.390625 56.84375 54.796875 60.28125 
Q 53.21875 63.71875 50.015625 65.5 
Q 46.828125 67.28125 42.09375 67.28125 
Q 38.09375 67.28125 34.125 64.984375 
Q 30.171875 62.703125 27.734375 58.890625 
Q 25.296875 55.078125 25.296875 50.984375 
Q 25.296875 47.75 27.171875 45.265625 
Q 29.046875 42.78125 32.171875 41.890625 
L 44.390625 38.71875 
Q 47.703125 37.84375 50.171875 35.625 
Q 52.640625 33.40625 53.90625 30.34375 
Q 55.171875 27.296875 55.171875 23.6875 
Q 55.171875 18.953125 53.171875 14.328125 
Q 51.171875 9.71875 47.578125 5.90625 
Q 44 2.09375 39.453125 -0.046875 
Q 34.90625 -2.203125 30.171875 -2.203125 
Q 18.265625 -2.203125 13.09375 4.78125 
L 7.515625 -1.90625 
Q 6.9375 -2.203125 6.78125 -2.203125 
z
" id="Cmmi10-53"/>
      <path d="M 11.71875 12.40625 
L 22.015625 12.40625 
L 22.015625 4 
L 14.015625 -11.625 
L 7.71875 -11.625 
L 11.71875 4 
z
" id="BitstreamVeraSans-Roman-2c"/>
      <path d="M 14.59375 21.578125 
Q 14.59375 15.578125 16.90625 11.015625 
Q 19.234375 6.453125 23.65625 3.875 
Q 28.078125 1.3125 34.078125 1.3125 
Q 40.375 1.3125 46.203125 4.53125 
Q 52.046875 7.765625 56.171875 13.15625 
Q 60.296875 18.5625 61.8125 24.609375 
Q 62.015625 25.203125 62.59375 25.203125 
L 63.8125 25.203125 
Q 64.203125 25.203125 64.453125 24.921875 
Q 64.703125 24.65625 64.703125 24.3125 
Q 64.703125 24.21875 64.59375 24.03125 
Q 62.890625 17.09375 57.984375 11.015625 
Q 53.078125 4.9375 46.234375 1.359375 
Q 39.40625 -2.203125 32.171875 -2.203125 
Q 24.359375 -2.203125 18.15625 1.3125 
Q 11.96875 4.828125 8.515625 11.078125 
Q 5.078125 17.328125 5.078125 25.203125 
Q 5.078125 33.59375 8.828125 41.8125 
Q 12.59375 50.046875 18.9375 56.46875 
Q 25.296875 62.890625 33.421875 66.703125 
Q 41.546875 70.515625 49.90625 70.515625 
Q 53.21875 70.515625 56.25 69.5 
Q 59.28125 68.5 61.859375 66.453125 
Q 64.453125 64.40625 66.109375 61.71875 
L 74.03125 70.3125 
Q 74.03125 70.515625 74.515625 70.515625 
L 75.09375 70.515625 
Q 75.484375 70.515625 75.734375 70.171875 
Q 75.984375 69.828125 75.984375 69.484375 
L 69.1875 42.484375 
Q 69.1875 41.796875 68.40625 41.796875 
L 66.609375 41.796875 
Q 65.828125 41.796875 65.828125 42.921875 
Q 66.21875 45.125 66.21875 48.1875 
Q 66.21875 53.078125 64.546875 57.390625 
Q 62.890625 61.71875 59.390625 64.359375 
Q 55.90625 67 50.875 67 
Q 42.71875 67 35.9375 62.890625 
Q 29.15625 58.796875 24.4375 52.125 
Q 19.734375 45.453125 17.15625 37.328125 
Q 14.59375 29.203125 14.59375 21.578125 
" id="Cmmi10-43"/>
      <path d="M 10.796875 11.625 
Q 10.796875 13.71875 11.359375 16.453125 
Q 11.921875 19.1875 12.59375 21.3125 
Q 13.28125 23.4375 14.90625 27.828125 
Q 16.546875 32.234375 16.703125 32.625 
Q 18.015625 36.28125 18.015625 38.625 
Q 18.015625 41.609375 15.828125 41.609375 
Q 11.859375 41.609375 9.296875 37.53125 
Q 6.734375 33.453125 5.515625 28.421875 
Q 5.328125 27.78125 4.6875 27.78125 
L 3.515625 27.78125 
Q 2.6875 27.78125 2.6875 28.71875 
L 2.6875 29 
Q 4.296875 34.96875 7.609375 39.578125 
Q 10.9375 44.1875 16.015625 44.1875 
Q 19.578125 44.1875 22.046875 41.84375 
Q 24.515625 39.5 24.515625 35.890625 
Q 24.515625 34.03125 23.6875 31.984375 
Q 22.515625 28.953125 20.921875 24.703125 
Q 19.34375 20.453125 18.453125 16.984375 
Q 17.578125 13.53125 17.578125 10.296875 
Q 17.578125 6.390625 19.625 3.953125 
Q 21.6875 1.515625 25.59375 1.515625 
Q 30.90625 1.515625 34.421875 9.625 
Q 34.28125 10.203125 34.28125 11.28125 
Q 34.28125 13.96875 35.109375 17.390625 
L 40.71875 39.890625 
Q 41.0625 41.21875 42.28125 42.15625 
Q 43.5 43.109375 44.921875 43.109375 
Q 46.09375 43.109375 47 42.328125 
Q 47.90625 41.546875 47.90625 40.28125 
Q 47.90625 39.703125 47.796875 39.5 
L 42.1875 17.1875 
Q 41.21875 13.1875 41.21875 10.015625 
Q 41.21875 6.25 42.9375 3.875 
Q 44.671875 1.515625 48.390625 1.515625 
Q 54.828125 1.515625 58.984375 10.015625 
Q 60.546875 13.03125 62.46875 18.9375 
Q 64.40625 24.859375 64.40625 27.984375 
Q 64.40625 30.859375 63.46875 32.546875 
Q 62.546875 34.234375 60.90625 36.1875 
Q 59.28125 38.140625 59.28125 39.109375 
Q 59.28125 41.015625 60.90625 42.640625 
Q 62.546875 44.28125 64.5 44.28125 
Q 66.890625 44.28125 67.9375 42.078125 
Q 69 39.890625 69 37.109375 
Q 69 33.734375 67.875 28.53125 
Q 66.75 23.34375 65.03125 18.09375 
Q 63.328125 12.84375 61.8125 9.71875 
Q 56.34375 -1.125 48.1875 -1.125 
Q 44 -1.125 40.53125 0.484375 
Q 37.0625 2.09375 35.40625 5.609375 
Q 33.796875 2.734375 31.171875 0.796875 
Q 28.5625 -1.125 25.390625 -1.125 
Q 18.796875 -1.125 14.796875 2.015625 
Q 10.796875 5.171875 10.796875 11.625 
" id="Cmmi10-77"/>
      <path d="M 4.5 0 
Q 3.515625 0 3.515625 1.3125 
Q 3.90625 3.515625 4.78125 3.515625 
Q 8.84375 3.515625 11.796875 5.125 
Q 14.75 6.734375 16.890625 10.109375 
Q 17.09375 10.296875 17.09375 10.296875 
L 52.78125 70.515625 
Q 53.5625 71.578125 54.6875 71.578125 
L 56 71.578125 
Q 56.296875 71.578125 56.59375 71.453125 
Q 56.890625 71.34375 57.109375 71.0625 
Q 57.328125 70.796875 57.328125 70.515625 
L 63.375 5.90625 
Q 63.375 5.46875 63.8125 4.59375 
Q 64.796875 3.515625 71.296875 3.515625 
Q 72.3125 3.515625 72.3125 2.203125 
Q 71.96875 0.875 71.75 0.4375 
Q 71.53125 0 70.609375 0 
L 45.609375 0 
Q 44.671875 0 44.671875 1.3125 
Q 45.21875 3.515625 46 3.515625 
Q 53.90625 3.515625 54.390625 6.203125 
L 52.875 22.703125 
L 28.21875 22.703125 
L 20.21875 9.28125 
Q 19.484375 8.203125 19.484375 6.78125 
Q 19.484375 5.03125 21.171875 4.265625 
Q 22.859375 3.515625 24.90625 3.515625 
Q 25.875 3.515625 25.875 2.203125 
Q 25.53125 0.78125 25.328125 0.390625 
Q 25.140625 0 24.21875 0 
z
M 30.171875 26.21875 
L 52.484375 26.21875 
L 49.515625 58.59375 
z
" id="Cmmi10-41"/>
      <path d="M 7.515625 13.28125 
Q 6.6875 13.28125 6.140625 13.90625 
Q 5.609375 14.546875 5.609375 15.28125 
Q 5.609375 16.109375 6.140625 16.6875 
Q 6.6875 17.28125 7.515625 17.28125 
L 70.3125 17.28125 
Q 71.046875 17.28125 71.578125 16.6875 
Q 72.125 16.109375 72.125 15.28125 
Q 72.125 14.546875 71.578125 13.90625 
Q 71.046875 13.28125 70.3125 13.28125 
z
M 7.515625 32.71875 
Q 6.6875 32.71875 6.140625 33.296875 
Q 5.609375 33.890625 5.609375 34.71875 
Q 5.609375 35.453125 6.140625 36.078125 
Q 6.6875 36.71875 7.515625 36.71875 
L 70.3125 36.71875 
Q 71.046875 36.71875 71.578125 36.078125 
Q 72.125 35.453125 72.125 34.71875 
Q 72.125 33.890625 71.578125 33.296875 
Q 71.046875 32.71875 70.3125 32.71875 
z
" id="Cmr10-3d"/>
     </defs>
     <g transform="translate(1018.8 66.23775)scale(0.144 -0.144)">
      <use transform="translate(0.0 0.421875)" xlink:href="#Cmmi10-53"/>
      <use transform="translate(61.279296875 -16.584375)scale(0.7)" xlink:href="#Cmmi10-77"/>
      <use transform="translate(135.254296875 0.421875)" xlink:href="#Cmr10-3d"/>
      <use transform="translate(230.4984375 0.421875)" xlink:href="#Cmr10-31"/>
      <use transform="translate(280.4984375 0.421875)" xlink:href="#BitstreamVeraSans-Roman-2c"/>
      <use transform="translate(312.285546875 0.421875)" xlink:href="#BitstreamVeraSans-Roman-20"/>
      <use transform="translate(344.07265625 0.421875)" xlink:href="#Cmmi10-41"/>
      <use transform="translate(419.07265625 -16.584375)scale(0.7)" xlink:href="#Cmmi10-77"/>
      <use transform="translate(493.04765625 0.421875)" xlink:href="#Cmr10-3d"/>
      <use transform="translate(588.291796875 0.421875)" xlink:href="#Cmr10-30"/>
      <use transform="translate(638.291796875 0.421875)" xlink:href="#BitstreamVeraSans-Roman-2c"/>
      <use transform="translate(670.07890625 0.421875)" xlink:href="#BitstreamVeraSans-Roman-20"/>
      <use transform="translate(701.866015625 0.421875)" xlink:href="#Cmmi10-43"/>
      <use transform="translate(773.252734375 -16.584375)scale(0.7)" xlink:href="#Cmmi10-77"/>
      <use transform="translate(847.227734375 0.421875)" xlink:href="#Cmr10-3d"/>
      <use transform="translate(942.471875 0.421875)" xlink:href="#Cmr10-30"/>
     </g>
    </g>
    <g id="line2d_32">
     <path d="M 982.8 82.33425 
L 1002.96 82.33425 
" style="fill:none;stroke:#008000;stroke-linecap:square;"/>
    </g>
    <g id="line2d_33"/>
    <g id="text_18">
     <!-- $S_w=0$, $A_w=1$, $C_w=0$ -->
     <g transform="translate(1018.8 87.37425)scale(0.144 -0.144)">
      <use transform="translate(0.0 0.421875)" xlink:href="#Cmmi10-53"/>
      <use transform="translate(61.279296875 -16.584375)scale(0.7)" xlink:href="#Cmmi10-77"/>
      <use transform="translate(135.254296875 0.421875)" xlink:href="#Cmr10-3d"/>
      <use transform="translate(230.4984375 0.421875)" xlink:href="#Cmr10-30"/>
      <use transform="translate(280.4984375 0.421875)" xlink:href="#BitstreamVeraSans-Roman-2c"/>
      <use transform="translate(312.285546875 0.421875)" xlink:href="#BitstreamVeraSans-Roman-20"/>
      <use transform="translate(344.07265625 0.421875)" xlink:href="#Cmmi10-41"/>
      <use transform="translate(419.07265625 -16.584375)scale(0.7)" xlink:href="#Cmmi10-77"/>
      <use transform="translate(493.04765625 0.421875)" xlink:href="#Cmr10-3d"/>
      <use transform="translate(588.291796875 0.421875)" xlink:href="#Cmr10-31"/>
      <use transform="translate(638.291796875 0.421875)" xlink:href="#BitstreamVeraSans-Roman-2c"/>
      <use transform="translate(670.07890625 0.421875)" xlink:href="#BitstreamVeraSans-Roman-20"/>
      <use transform="translate(701.866015625 0.421875)" xlink:href="#Cmmi10-43"/>
      <use transform="translate(773.252734375 -16.584375)scale(0.7)" xlink:href="#Cmmi10-77"/>
      <use transform="translate(847.227734375 0.421875)" xlink:href="#Cmr10-3d"/>
      <use transform="translate(942.471875 0.421875)" xlink:href="#Cmr10-30"/>
     </g>
    </g>
    <g id="line2d_34">
     <path d="M 982.8 103.47075 
L 1002.96 103.47075 
" style="fill:none;stroke:#ff0000;stroke-linecap:square;"/>
    </g>
    <g id="line2d_35"/>
    <g id="text_19">
     <!-- $S_w=0$, $A_w=0$, $C_w=1$ -->
     <g transform="translate(1018.8 108.51075)scale(0.144 -0.144)">
      <use transform="translate(0.0 0.421875)" xlink:href="#Cmmi10-53"/>
      <use transform="translate(61.279296875 -16.584375)scale(0.7)" xlink:href="#Cmmi10-77"/>
      <use transform="translate(135.254296875 0.421875)" xlink:href="#Cmr10-3d"/>
      <use transform="translate(230.4984375 0.421875)" xlink:href="#Cmr10-30"/>
      <use transform="translate(280.4984375 0.421875)" xlink:href="#BitstreamVeraSans-Roman-2c"/>
      <use transform="translate(312.285546875 0.421875)" xlink:href="#BitstreamVeraSans-Roman-20"/>
      <use transform="translate(344.07265625 0.421875)" xlink:href="#Cmmi10-41"/>
      <use transform="translate(419.07265625 -16.584375)scale(0.7)" xlink:href="#Cmmi10-77"/>
      <use transform="translate(493.04765625 0.421875)" xlink:href="#Cmr10-3d"/>
      <use transform="translate(588.291796875 0.421875)" xlink:href="#Cmr10-30"/>
      <use transform="translate(638.291796875 0.421875)" xlink:href="#BitstreamVeraSans-Roman-2c"/>
      <use transform="translate(670.07890625 0.421875)" xlink:href="#BitstreamVeraSans-Roman-20"/>
      <use transform="translate(701.866015625 0.421875)" xlink:href="#Cmmi10-43"/>
      <use transform="translate(773.252734375 -16.584375)scale(0.7)" xlink:href="#Cmmi10-77"/>
      <use transform="translate(847.227734375 0.421875)" xlink:href="#Cmr10-3d"/>
      <use transform="translate(942.471875 0.421875)" xlink:href="#Cmr10-31"/>
     </g>
    </g>
   </g>
  </g>
 </g>
 <defs>
  <clipPath id="pd1cc4bf63d">
   <rect height="403.2" width="803.52" x="162.0" y="50.4"/>
  </clipPath>
 </defs>
</svg>
