<?xml version="1.0" encoding="utf-8" standalone="no"?>
<!DOCTYPE svg PUBLIC "-//W3C//DTD SVG 1.1//EN"
  "http://www.w3.org/Graphics/SVG/1.1/DTD/svg11.dtd">
<!-- Created with matplotlib (http://matplotlib.org/) -->
<svg height="504pt" version="1.1" viewBox="0 0 1296 504" width="1296pt" xmlns="http://www.w3.org/2000/svg" xmlns:xlink="http://www.w3.org/1999/xlink">
 <defs>
  <style type="text/css">
*{stroke-linecap:butt;stroke-linejoin:round;stroke-miterlimit:100000;}
  </style>
 </defs>
 <g id="figure_1">
  <g id="patch_1">
   <path d="M 0 504 
L 1296 504 
L 1296 0 
L 0 0 
z
" style="fill:#ffffff;"/>
  </g>
  <g id="axes_1">
   <g id="patch_2">
    <path d="M 162 453.6 
L 965.52 453.6 
L 965.52 50.4 
L 162 50.4 
z
" style="fill:#ffffff;"/>
   </g>
   <g id="line2d_1">
    <path clip-path="url(#p430f192a57)" d="M 162 168.1344 
L 163.60704 171.36 
L 165.21408 176.1984 
L 166.82112 171.36 
L 168.42816 152.0064 
L 170.0352 145.5552 
L 171.64224 140.7168 
L 173.24928 140.7168 
L 174.85632 152.0064 
L 176.46336 147.168 
L 178.0704 140.7168 
L 179.67744 127.8144 
L 181.28448 124.5888 
L 182.89152 124.5888 
L 184.49856 137.4912 
L 186.1056 135.8784 
L 187.71264 126.2016 
L 189.31968 127.8144 
L 190.92672 137.4912 
L 192.53376 132.6528 
L 194.1408 122.976 
L 195.74784 127.8144 
L 197.35488 139.104 
L 198.96192 135.8784 
L 200.56896 135.8784 
L 202.176 145.5552 
L 203.78304 148.7808 
L 205.39008 153.6192 
L 206.99712 155.232 
L 208.60416 163.296 
L 211.81824 156.8448 
L 213.42528 152.0064 
L 215.03232 155.232 
L 216.63936 145.5552 
L 218.2464 153.6192 
L 219.85344 155.232 
L 221.46048 152.0064 
L 223.06752 142.3296 
L 224.67456 143.9424 
L 226.2816 126.2016 
L 227.88864 142.3296 
L 229.49568 137.4912 
L 231.10272 134.2656 
L 232.70976 126.2016 
L 234.3168 124.5888 
L 235.92384 127.8144 
L 237.53088 139.104 
L 239.13792 135.8784 
L 240.74496 135.8784 
L 242.352 134.2656 
L 243.95904 131.04 
L 245.56608 126.2016 
L 247.17312 124.5888 
L 248.78016 126.2016 
L 250.3872 132.6528 
L 251.99424 134.2656 
L 253.60128 131.04 
L 255.20832 139.104 
L 256.81536 143.9424 
L 258.4224 147.168 
L 260.02944 152.0064 
L 261.63648 158.4576 
L 263.24352 158.4576 
L 264.85056 147.168 
L 266.4576 143.9424 
L 268.06464 148.7808 
L 269.67168 150.3936 
L 271.27872 148.7808 
L 272.88576 153.6192 
L 274.4928 153.6192 
L 276.09984 161.6832 
L 277.70688 152.0064 
L 279.31392 156.8448 
L 280.92096 153.6192 
L 282.528 153.6192 
L 284.13504 145.5552 
L 285.74208 143.9424 
L 287.34912 148.7808 
L 288.95616 147.168 
L 290.5632 140.7168 
L 292.17024 139.104 
L 293.77728 156.8448 
L 295.38432 161.6832 
L 296.99136 163.296 
L 298.5984 153.6192 
L 300.20544 161.6832 
L 301.81248 148.7808 
L 303.41952 164.9088 
L 305.02656 168.1344 
L 306.6336 161.6832 
L 308.24064 160.0704 
L 309.84768 171.36 
L 311.45472 177.8112 
L 313.06176 174.5856 
L 314.6688 181.0368 
L 316.27584 177.8112 
L 317.88288 176.1984 
L 319.48992 176.1984 
L 321.09696 179.424 
L 322.704 171.36 
L 324.31104 158.4576 
L 325.91808 155.232 
L 327.52512 156.8448 
L 329.13216 163.296 
L 330.7392 156.8448 
L 332.34624 147.168 
L 333.95328 147.168 
L 337.16736 160.0704 
L 338.7744 161.6832 
L 340.38144 158.4576 
L 341.98848 158.4576 
L 343.59552 148.7808 
L 345.20256 158.4576 
L 346.8096 156.8448 
L 350.02368 160.0704 
L 351.63072 145.5552 
L 353.23776 147.168 
L 356.45184 153.6192 
L 359.66592 153.6192 
L 361.27296 152.0064 
L 362.88 158.4576 
L 366.09408 164.9088 
L 367.70112 164.9088 
L 369.30816 168.1344 
L 370.9152 150.3936 
L 372.52224 152.0064 
L 374.12928 161.6832 
L 377.34336 168.1344 
L 378.9504 182.6496 
L 380.55744 181.0368 
L 382.16448 177.8112 
L 383.77152 177.8112 
L 385.37856 189.1008 
L 386.9856 192.3264 
L 388.59264 177.8112 
L 390.19968 187.488 
L 391.80672 181.0368 
L 393.41376 181.0368 
L 395.0208 184.2624 
L 396.62784 181.0368 
L 398.23488 172.9728 
L 399.84192 160.0704 
L 401.44896 155.232 
L 403.056 161.6832 
L 404.66304 164.9088 
L 406.27008 163.296 
L 407.87712 171.36 
L 409.48416 174.5856 
L 411.0912 155.232 
L 412.69824 156.8448 
L 414.30528 161.6832 
L 415.91232 164.9088 
L 419.1264 161.6832 
L 420.73344 166.5216 
L 425.55456 166.5216 
L 427.1616 172.9728 
L 428.76864 161.6832 
L 430.37568 155.232 
L 431.98272 145.5552 
L 433.58976 137.4912 
L 435.1968 140.7168 
L 436.80384 145.5552 
L 438.41088 152.0064 
L 440.01792 153.6192 
L 441.62496 150.3936 
L 443.232 156.8448 
L 444.83904 171.36 
L 446.44608 166.5216 
L 448.05312 168.1344 
L 449.66016 168.1344 
L 451.2672 153.6192 
L 452.87424 153.6192 
L 454.48128 164.9088 
L 456.08832 148.7808 
L 457.69536 139.104 
L 459.3024 147.168 
L 460.90944 153.6192 
L 462.51648 158.4576 
L 464.12352 158.4576 
L 467.3376 135.8784 
L 468.94464 148.7808 
L 470.55168 155.232 
L 472.15872 164.9088 
L 473.76576 161.6832 
L 475.3728 161.6832 
L 476.97984 156.8448 
L 478.58688 156.8448 
L 480.19392 158.4576 
L 481.80096 163.296 
L 483.408 166.5216 
L 485.01504 171.36 
L 486.62208 164.9088 
L 488.22912 156.8448 
L 489.83616 160.0704 
L 491.4432 171.36 
L 493.05024 156.8448 
L 496.26432 169.7472 
L 497.87136 169.7472 
L 499.4784 181.0368 
L 501.08544 172.9728 
L 502.69248 171.36 
L 504.29952 176.1984 
L 505.90656 184.2624 
L 507.5136 171.36 
L 509.12064 161.6832 
L 510.72768 155.232 
L 512.33472 158.4576 
L 513.94176 158.4576 
L 515.5488 152.0064 
L 517.15584 169.7472 
L 518.76288 166.5216 
L 520.36992 164.9088 
L 521.97696 171.36 
L 523.584 171.36 
L 525.19104 174.5856 
L 526.79808 168.1344 
L 528.40512 166.5216 
L 530.01216 172.9728 
L 531.6192 155.232 
L 533.22624 158.4576 
L 534.83328 163.296 
L 536.44032 172.9728 
L 538.04736 179.424 
L 539.6544 177.8112 
L 541.26144 168.1344 
L 542.86848 169.7472 
L 544.47552 163.296 
L 546.08256 161.6832 
L 547.6896 161.6832 
L 549.29664 153.6192 
L 550.90368 152.0064 
L 552.51072 158.4576 
L 554.11776 155.232 
L 555.7248 161.6832 
L 557.33184 166.5216 
L 558.93888 161.6832 
L 560.54592 166.5216 
L 563.76 153.6192 
L 565.36704 156.8448 
L 566.97408 163.296 
L 568.58112 160.0704 
L 570.18816 163.296 
L 571.7952 172.9728 
L 573.40224 168.1344 
L 576.61632 174.5856 
L 578.22336 185.8752 
L 579.8304 176.1984 
L 581.43744 172.9728 
L 583.04448 166.5216 
L 584.65152 153.6192 
L 586.25856 148.7808 
L 587.8656 147.168 
L 589.47264 142.3296 
L 591.07968 142.3296 
L 592.68672 150.3936 
L 594.29376 148.7808 
L 595.9008 148.7808 
L 597.50784 155.232 
L 599.11488 150.3936 
L 600.72192 147.168 
L 602.32896 160.0704 
L 603.936 158.4576 
L 605.54304 163.296 
L 607.15008 169.7472 
L 608.75712 158.4576 
L 611.9712 177.8112 
L 613.57824 174.5856 
L 615.18528 169.7472 
L 616.79232 163.296 
L 618.39936 166.5216 
L 620.0064 164.9088 
L 621.61344 174.5856 
L 623.22048 163.296 
L 624.82752 158.4576 
L 626.43456 161.6832 
L 628.0416 161.6832 
L 629.64864 169.7472 
L 631.25568 163.296 
L 632.86272 174.5856 
L 634.46976 177.8112 
L 636.0768 172.9728 
L 637.68384 171.36 
L 639.29088 161.6832 
L 640.89792 163.296 
L 642.50496 166.5216 
L 644.112 164.9088 
L 645.71904 164.9088 
L 648.93312 155.232 
L 650.54016 153.6192 
L 652.1472 150.3936 
L 653.75424 140.7168 
L 656.96832 134.2656 
L 658.57536 129.4272 
L 660.1824 140.7168 
L 661.78944 139.104 
L 663.39648 145.5552 
L 665.00352 148.7808 
L 666.61056 153.6192 
L 668.2176 152.0064 
L 669.82464 147.168 
L 671.43168 145.5552 
L 673.03872 156.8448 
L 674.64576 163.296 
L 676.2528 163.296 
L 677.85984 164.9088 
L 679.46688 160.0704 
L 682.68096 140.7168 
L 684.288 134.2656 
L 685.89504 131.04 
L 687.50208 129.4272 
L 689.10912 135.8784 
L 690.71616 153.6192 
L 692.3232 155.232 
L 693.93024 153.6192 
L 695.53728 155.232 
L 698.75136 152.0064 
L 700.3584 140.7168 
L 701.96544 143.9424 
L 703.57248 139.104 
L 705.17952 129.4272 
L 706.78656 142.3296 
L 708.3936 139.104 
L 710.00064 139.104 
L 711.60768 153.6192 
L 713.21472 143.9424 
L 714.82176 145.5552 
L 716.4288 137.4912 
L 718.03584 135.8784 
L 719.64288 140.7168 
L 721.24992 129.4272 
L 722.85696 135.8784 
L 724.464 135.8784 
L 726.07104 119.7504 
L 727.67808 124.5888 
L 729.28512 134.2656 
L 730.89216 114.912 
L 732.4992 110.0736 
L 734.10624 113.2992 
L 735.71328 114.912 
L 737.32032 122.976 
L 738.92736 122.976 
L 740.5344 132.6528 
L 742.14144 124.5888 
L 743.74848 132.6528 
L 745.35552 126.2016 
L 746.96256 132.6528 
L 748.5696 131.04 
L 750.17664 126.2016 
L 751.78368 139.104 
L 753.39072 137.4912 
L 754.99776 143.9424 
L 756.6048 155.232 
L 758.21184 150.3936 
L 759.81888 152.0064 
L 761.42592 139.104 
L 763.03296 147.168 
L 764.64 147.168 
L 766.24704 148.7808 
L 767.85408 155.232 
L 769.46112 156.8448 
L 771.06816 155.232 
L 772.6752 160.0704 
L 774.28224 160.0704 
L 777.49632 150.3936 
L 779.10336 150.3936 
L 780.7104 145.5552 
L 782.31744 139.104 
L 783.92448 150.3936 
L 785.53152 155.232 
L 787.13856 155.232 
L 788.7456 158.4576 
L 790.35264 168.1344 
L 791.95968 155.232 
L 793.56672 161.6832 
L 795.17376 169.7472 
L 796.7808 179.424 
L 798.38784 179.424 
L 799.99488 177.8112 
L 801.60192 169.7472 
L 803.20896 164.9088 
L 806.42304 158.4576 
L 809.63712 158.4576 
L 811.24416 156.8448 
L 812.8512 163.296 
L 814.45824 161.6832 
L 816.06528 161.6832 
L 817.67232 166.5216 
L 819.27936 169.7472 
L 820.8864 177.8112 
L 822.49344 179.424 
L 824.10048 177.8112 
L 825.70752 161.6832 
L 827.31456 160.0704 
L 828.9216 163.296 
L 830.52864 160.0704 
L 832.13568 158.4576 
L 835.34976 158.4576 
L 836.9568 153.6192 
L 838.56384 143.9424 
L 840.17088 150.3936 
L 841.77792 150.3936 
L 843.38496 156.8448 
L 844.992 161.6832 
L 846.59904 150.3936 
L 848.20608 156.8448 
L 849.81312 156.8448 
L 851.42016 160.0704 
L 853.0272 158.4576 
L 854.63424 166.5216 
L 856.24128 168.1344 
L 857.84832 168.1344 
L 859.45536 171.36 
L 861.0624 179.424 
L 862.66944 174.5856 
L 864.27648 171.36 
L 865.88352 163.296 
L 867.49056 164.9088 
L 869.0976 172.9728 
L 870.70464 160.0704 
L 872.31168 160.0704 
L 873.91872 155.232 
L 875.52576 156.8448 
L 877.1328 160.0704 
L 878.73984 152.0064 
L 880.34688 145.5552 
L 881.95392 155.232 
L 883.56096 153.6192 
L 885.168 155.232 
L 888.38208 171.36 
L 889.98912 181.0368 
L 891.59616 172.9728 
L 893.2032 174.5856 
L 894.81024 174.5856 
L 896.41728 177.8112 
L 898.02432 185.8752 
L 899.63136 179.424 
L 901.2384 174.5856 
L 902.84544 176.1984 
L 904.45248 169.7472 
L 906.05952 172.9728 
L 907.66656 169.7472 
L 909.2736 164.9088 
L 910.88064 169.7472 
L 914.09472 169.7472 
L 915.70176 164.9088 
L 917.3088 156.8448 
L 918.91584 147.168 
L 920.52288 147.168 
L 922.12992 145.5552 
L 923.73696 153.6192 
L 925.344 153.6192 
L 926.95104 160.0704 
L 928.55808 155.232 
L 930.16512 158.4576 
L 931.77216 158.4576 
L 933.3792 163.296 
L 936.59328 163.296 
L 938.20032 158.4576 
L 939.80736 158.4576 
L 941.4144 155.232 
L 943.02144 153.6192 
L 944.62848 156.8448 
L 946.23552 152.0064 
L 947.84256 156.8448 
L 949.4496 166.5216 
L 951.05664 163.296 
L 954.27072 163.296 
L 957.4848 169.7472 
L 959.09184 169.7472 
L 960.69888 164.9088 
L 962.30592 164.9088 
L 963.91296 171.36 
L 963.91296 171.36 
" style="fill:none;stroke:#0000ff;stroke-linecap:square;"/>
   </g>
   <g id="line2d_2">
    <path clip-path="url(#p430f192a57)" d="M 162 169.7472 
L 163.60704 177.8112 
L 166.82112 203.616 
L 170.0352 226.1952 
L 171.64224 224.5824 
L 173.24928 229.4208 
L 174.85632 235.872 
L 176.46336 240.7104 
L 178.0704 250.3872 
L 179.67744 252 
L 181.28448 261.6768 
L 182.89152 266.5152 
L 186.1056 279.4176 
L 187.71264 282.6432 
L 189.31968 289.0944 
L 190.92672 293.9328 
L 192.53376 301.9968 
L 194.1408 303.6096 
L 195.74784 308.448 
L 197.35488 311.6736 
L 200.56896 327.8016 
L 202.176 331.0272 
L 203.78304 335.8656 
L 206.99712 339.0912 
L 208.60416 339.0912 
L 210.2112 342.3168 
L 211.81824 339.0912 
L 213.42528 337.4784 
L 215.03232 343.9296 
L 216.63936 345.5424 
L 218.2464 343.9296 
L 219.85344 345.5424 
L 221.46048 343.9296 
L 223.06752 348.768 
L 226.2816 351.9936 
L 227.88864 351.9936 
L 229.49568 353.6064 
L 231.10272 358.4448 
L 232.70976 360.0576 
L 234.3168 364.896 
L 235.92384 364.896 
L 237.53088 368.1216 
L 239.13792 368.1216 
L 240.74496 372.96 
L 242.352 374.5728 
L 245.56608 374.5728 
L 247.17312 372.96 
L 248.78016 372.96 
L 250.3872 374.5728 
L 251.99424 377.7984 
L 255.20832 374.5728 
L 256.81536 377.7984 
L 258.4224 377.7984 
L 260.02944 374.5728 
L 261.63648 379.4112 
L 263.24352 377.7984 
L 264.85056 374.5728 
L 266.4576 377.7984 
L 268.06464 379.4112 
L 271.27872 379.4112 
L 272.88576 382.6368 
L 274.4928 384.2496 
L 284.13504 384.2496 
L 285.74208 385.8624 
L 292.17024 385.8624 
L 295.38432 392.3136 
L 296.99136 392.3136 
L 298.5984 390.7008 
L 300.20544 390.7008 
L 301.81248 392.3136 
L 303.41952 392.3136 
L 305.02656 390.7008 
L 308.24064 390.7008 
L 309.84768 392.3136 
L 311.45472 392.3136 
L 313.06176 390.7008 
L 319.48992 390.7008 
L 322.704 393.9264 
L 325.91808 393.9264 
L 327.52512 395.5392 
L 329.13216 398.7648 
L 330.7392 398.7648 
L 332.34624 400.3776 
L 335.56032 397.152 
L 337.16736 398.7648 
L 338.7744 398.7648 
L 340.38144 397.152 
L 341.98848 397.152 
L 343.59552 398.7648 
L 345.20256 398.7648 
L 346.8096 397.152 
L 348.41664 397.152 
L 351.63072 400.3776 
L 354.8448 400.3776 
L 356.45184 398.7648 
L 369.30816 398.7648 
L 370.9152 400.3776 
L 375.73632 400.3776 
L 377.34336 401.9904 
L 380.55744 401.9904 
L 382.16448 403.6032 
L 403.056 403.6032 
L 404.66304 408.4416 
L 427.1616 408.4416 
L 428.76864 410.0544 
L 438.41088 410.0544 
L 440.01792 411.6672 
L 459.3024 411.6672 
L 460.90944 413.28 
L 464.12352 413.28 
L 465.73056 414.8928 
L 473.76576 414.8928 
L 475.3728 413.28 
L 480.19392 413.28 
L 481.80096 414.8928 
L 489.83616 414.8928 
L 491.4432 413.28 
L 521.97696 413.28 
L 523.584 411.6672 
L 571.7952 411.6672 
L 573.40224 413.28 
L 594.29376 413.28 
L 595.9008 414.8928 
L 640.89792 414.8928 
L 642.50496 416.5056 
L 743.74848 416.5056 
L 745.35552 414.8928 
L 885.168 414.8928 
L 886.77504 416.5056 
L 912.48768 416.5056 
L 914.09472 418.1184 
L 936.59328 418.1184 
L 938.20032 419.7312 
L 955.87776 419.7312 
L 957.4848 421.344 
L 963.91296 421.344 
L 963.91296 421.344 
" style="fill:none;stroke:#008000;stroke-linecap:square;"/>
   </g>
   <g id="line2d_3">
    <path clip-path="url(#p430f192a57)" d="M 162 148.7808 
L 163.60704 153.6192 
L 165.21408 163.296 
L 168.42816 169.7472 
L 170.0352 179.424 
L 171.64224 187.488 
L 173.24928 198.7776 
L 174.85632 200.3904 
L 178.0704 206.8416 
L 179.67744 216.5184 
L 181.28448 221.3568 
L 184.49856 237.4848 
L 186.1056 243.936 
L 187.71264 245.5488 
L 189.31968 250.3872 
L 190.92672 252 
L 192.53376 252 
L 194.1408 253.6128 
L 195.74784 258.4512 
L 198.96192 264.9024 
L 200.56896 272.9664 
L 202.176 276.192 
L 203.78304 277.8048 
L 206.99712 277.8048 
L 208.60416 285.8688 
L 210.2112 289.0944 
L 211.81824 290.7072 
L 215.03232 297.1584 
L 216.63936 301.9968 
L 218.2464 305.2224 
L 224.67456 311.6736 
L 227.88864 318.1248 
L 229.49568 319.7376 
L 231.10272 324.576 
L 232.70976 324.576 
L 237.53088 329.4144 
L 239.13792 334.2528 
L 240.74496 340.704 
L 242.352 340.704 
L 247.17312 345.5424 
L 248.78016 348.768 
L 250.3872 350.3808 
L 253.60128 356.832 
L 256.81536 360.0576 
L 260.02944 360.0576 
L 261.63648 361.6704 
L 263.24352 364.896 
L 266.4576 364.896 
L 268.06464 366.5088 
L 269.67168 366.5088 
L 271.27872 368.1216 
L 272.88576 368.1216 
L 277.70688 372.96 
L 282.528 372.96 
L 287.34912 377.7984 
L 288.95616 377.7984 
L 292.17024 381.024 
L 293.77728 381.024 
L 295.38432 382.6368 
L 296.99136 382.6368 
L 298.5984 384.2496 
L 301.81248 384.2496 
L 305.02656 387.4752 
L 311.45472 387.4752 
L 313.06176 389.088 
L 316.27584 389.088 
L 317.88288 390.7008 
L 321.09696 390.7008 
L 322.704 392.3136 
L 324.31104 392.3136 
L 325.91808 393.9264 
L 329.13216 393.9264 
L 330.7392 395.5392 
L 332.34624 395.5392 
L 337.16736 400.3776 
L 340.38144 400.3776 
L 341.98848 401.9904 
L 345.20256 401.9904 
L 346.8096 403.6032 
L 353.23776 403.6032 
L 354.8448 405.216 
L 356.45184 405.216 
L 358.05888 410.0544 
L 372.52224 410.0544 
L 374.12928 411.6672 
L 378.9504 411.6672 
L 380.55744 413.28 
L 391.80672 413.28 
L 393.41376 414.8928 
L 395.0208 414.8928 
L 396.62784 416.5056 
L 407.87712 416.5056 
L 409.48416 418.1184 
L 430.37568 418.1184 
L 431.98272 419.7312 
L 436.80384 419.7312 
L 438.41088 421.344 
L 440.01792 421.344 
L 441.62496 422.9568 
L 476.97984 422.9568 
L 478.58688 424.5696 
L 496.26432 424.5696 
L 497.87136 426.1824 
L 554.11776 426.1824 
L 555.7248 427.7952 
L 719.64288 427.7952 
L 721.24992 429.408 
L 748.5696 429.408 
L 750.17664 431.0208 
L 833.74272 431.0208 
L 835.34976 432.6336 
L 843.38496 432.6336 
L 844.992 434.2464 
L 963.91296 434.2464 
L 963.91296 434.2464 
" style="fill:none;stroke:#ff0000;stroke-linecap:square;"/>
   </g>
   <g id="patch_3">
    <path d="M 162 50.4 
L 965.52 50.4 
" style="fill:none;stroke:#000000;stroke-linecap:square;stroke-linejoin:miter;"/>
   </g>
   <g id="patch_4">
    <path d="M 965.52 453.6 
L 965.52 50.4 
" style="fill:none;stroke:#000000;stroke-linecap:square;stroke-linejoin:miter;"/>
   </g>
   <g id="patch_5">
    <path d="M 162 453.6 
L 965.52 453.6 
" style="fill:none;stroke:#000000;stroke-linecap:square;stroke-linejoin:miter;"/>
   </g>
   <g id="patch_6">
    <path d="M 162 453.6 
L 162 50.4 
" style="fill:none;stroke:#000000;stroke-linecap:square;stroke-linejoin:miter;"/>
   </g>
   <g id="matplotlib.axis_1">
    <g id="xtick_1">
     <g id="line2d_4">
      <defs>
       <path d="M 0 0 
L 0 -4 
" id="m4846b3c56d" style="stroke:#000000;stroke-width:0.5;"/>
      </defs>
      <g>
       <use style="stroke:#000000;stroke-width:0.5;" x="162.0" xlink:href="#m4846b3c56d" y="453.6"/>
      </g>
     </g>
     <g id="line2d_5">
      <defs>
       <path d="M 0 0 
L 0 4 
" id="m0d4be8d1e8" style="stroke:#000000;stroke-width:0.5;"/>
      </defs>
      <g>
       <use style="stroke:#000000;stroke-width:0.5;" x="162.0" xlink:href="#m0d4be8d1e8" y="50.4"/>
      </g>
     </g>
     <g id="text_1">
      <!-- 0 -->
      <defs>
       <path d="M 31.78125 66.40625 
Q 24.171875 66.40625 20.328125 58.90625 
Q 16.5 51.421875 16.5 36.375 
Q 16.5 21.390625 20.328125 13.890625 
Q 24.171875 6.390625 31.78125 6.390625 
Q 39.453125 6.390625 43.28125 13.890625 
Q 47.125 21.390625 47.125 36.375 
Q 47.125 51.421875 43.28125 58.90625 
Q 39.453125 66.40625 31.78125 66.40625 
M 31.78125 74.21875 
Q 44.046875 74.21875 50.515625 64.515625 
Q 56.984375 54.828125 56.984375 36.375 
Q 56.984375 17.96875 50.515625 8.265625 
Q 44.046875 -1.421875 31.78125 -1.421875 
Q 19.53125 -1.421875 13.0625 8.265625 
Q 6.59375 17.96875 6.59375 36.375 
Q 6.59375 54.828125 13.0625 64.515625 
Q 19.53125 74.21875 31.78125 74.21875 
" id="BitstreamVeraSans-Roman-30"/>
      </defs>
      <g transform="translate(158.1825 466.718125)scale(0.12 -0.12)">
       <use xlink:href="#BitstreamVeraSans-Roman-30"/>
      </g>
     </g>
    </g>
    <g id="xtick_2">
     <g id="line2d_6">
      <g>
       <use style="stroke:#000000;stroke-width:0.5;" x="322.704" xlink:href="#m4846b3c56d" y="453.6"/>
      </g>
     </g>
     <g id="line2d_7">
      <g>
       <use style="stroke:#000000;stroke-width:0.5;" x="322.704" xlink:href="#m0d4be8d1e8" y="50.4"/>
      </g>
     </g>
     <g id="text_2">
      <!-- 100 -->
      <defs>
       <path d="M 12.40625 8.296875 
L 28.515625 8.296875 
L 28.515625 63.921875 
L 10.984375 60.40625 
L 10.984375 69.390625 
L 28.421875 72.90625 
L 38.28125 72.90625 
L 38.28125 8.296875 
L 54.390625 8.296875 
L 54.390625 0 
L 12.40625 0 
z
" id="BitstreamVeraSans-Roman-31"/>
      </defs>
      <g transform="translate(311.2515 466.718125)scale(0.12 -0.12)">
       <use xlink:href="#BitstreamVeraSans-Roman-31"/>
       <use x="63.623046875" xlink:href="#BitstreamVeraSans-Roman-30"/>
       <use x="127.24609375" xlink:href="#BitstreamVeraSans-Roman-30"/>
      </g>
     </g>
    </g>
    <g id="xtick_3">
     <g id="line2d_8">
      <g>
       <use style="stroke:#000000;stroke-width:0.5;" x="483.408" xlink:href="#m4846b3c56d" y="453.6"/>
      </g>
     </g>
     <g id="line2d_9">
      <g>
       <use style="stroke:#000000;stroke-width:0.5;" x="483.408" xlink:href="#m0d4be8d1e8" y="50.4"/>
      </g>
     </g>
     <g id="text_3">
      <!-- 200 -->
      <defs>
       <path d="M 19.1875 8.296875 
L 53.609375 8.296875 
L 53.609375 0 
L 7.328125 0 
L 7.328125 8.296875 
Q 12.9375 14.109375 22.625 23.890625 
Q 32.328125 33.6875 34.8125 36.53125 
Q 39.546875 41.84375 41.421875 45.53125 
Q 43.3125 49.21875 43.3125 52.78125 
Q 43.3125 58.59375 39.234375 62.25 
Q 35.15625 65.921875 28.609375 65.921875 
Q 23.96875 65.921875 18.8125 64.3125 
Q 13.671875 62.703125 7.8125 59.421875 
L 7.8125 69.390625 
Q 13.765625 71.78125 18.9375 73 
Q 24.125 74.21875 28.421875 74.21875 
Q 39.75 74.21875 46.484375 68.546875 
Q 53.21875 62.890625 53.21875 53.421875 
Q 53.21875 48.921875 51.53125 44.890625 
Q 49.859375 40.875 45.40625 35.40625 
Q 44.1875 33.984375 37.640625 27.21875 
Q 31.109375 20.453125 19.1875 8.296875 
" id="BitstreamVeraSans-Roman-32"/>
      </defs>
      <g transform="translate(471.9555 466.718125)scale(0.12 -0.12)">
       <use xlink:href="#BitstreamVeraSans-Roman-32"/>
       <use x="63.623046875" xlink:href="#BitstreamVeraSans-Roman-30"/>
       <use x="127.24609375" xlink:href="#BitstreamVeraSans-Roman-30"/>
      </g>
     </g>
    </g>
    <g id="xtick_4">
     <g id="line2d_10">
      <g>
       <use style="stroke:#000000;stroke-width:0.5;" x="644.112" xlink:href="#m4846b3c56d" y="453.6"/>
      </g>
     </g>
     <g id="line2d_11">
      <g>
       <use style="stroke:#000000;stroke-width:0.5;" x="644.112" xlink:href="#m0d4be8d1e8" y="50.4"/>
      </g>
     </g>
     <g id="text_4">
      <!-- 300 -->
      <defs>
       <path d="M 40.578125 39.3125 
Q 47.65625 37.796875 51.625 33 
Q 55.609375 28.21875 55.609375 21.1875 
Q 55.609375 10.40625 48.1875 4.484375 
Q 40.765625 -1.421875 27.09375 -1.421875 
Q 22.515625 -1.421875 17.65625 -0.515625 
Q 12.796875 0.390625 7.625 2.203125 
L 7.625 11.71875 
Q 11.71875 9.328125 16.59375 8.109375 
Q 21.484375 6.890625 26.8125 6.890625 
Q 36.078125 6.890625 40.9375 10.546875 
Q 45.796875 14.203125 45.796875 21.1875 
Q 45.796875 27.640625 41.28125 31.265625 
Q 36.765625 34.90625 28.71875 34.90625 
L 20.21875 34.90625 
L 20.21875 43.015625 
L 29.109375 43.015625 
Q 36.375 43.015625 40.234375 45.921875 
Q 44.09375 48.828125 44.09375 54.296875 
Q 44.09375 59.90625 40.109375 62.90625 
Q 36.140625 65.921875 28.71875 65.921875 
Q 24.65625 65.921875 20.015625 65.03125 
Q 15.375 64.15625 9.8125 62.3125 
L 9.8125 71.09375 
Q 15.4375 72.65625 20.34375 73.4375 
Q 25.25 74.21875 29.59375 74.21875 
Q 40.828125 74.21875 47.359375 69.109375 
Q 53.90625 64.015625 53.90625 55.328125 
Q 53.90625 49.265625 50.4375 45.09375 
Q 46.96875 40.921875 40.578125 39.3125 
" id="BitstreamVeraSans-Roman-33"/>
      </defs>
      <g transform="translate(632.6595 466.718125)scale(0.12 -0.12)">
       <use xlink:href="#BitstreamVeraSans-Roman-33"/>
       <use x="63.623046875" xlink:href="#BitstreamVeraSans-Roman-30"/>
       <use x="127.24609375" xlink:href="#BitstreamVeraSans-Roman-30"/>
      </g>
     </g>
    </g>
    <g id="xtick_5">
     <g id="line2d_12">
      <g>
       <use style="stroke:#000000;stroke-width:0.5;" x="804.816" xlink:href="#m4846b3c56d" y="453.6"/>
      </g>
     </g>
     <g id="line2d_13">
      <g>
       <use style="stroke:#000000;stroke-width:0.5;" x="804.816" xlink:href="#m0d4be8d1e8" y="50.4"/>
      </g>
     </g>
     <g id="text_5">
      <!-- 400 -->
      <defs>
       <path d="M 37.796875 64.3125 
L 12.890625 25.390625 
L 37.796875 25.390625 
z
M 35.203125 72.90625 
L 47.609375 72.90625 
L 47.609375 25.390625 
L 58.015625 25.390625 
L 58.015625 17.1875 
L 47.609375 17.1875 
L 47.609375 0 
L 37.796875 0 
L 37.796875 17.1875 
L 4.890625 17.1875 
L 4.890625 26.703125 
z
" id="BitstreamVeraSans-Roman-34"/>
      </defs>
      <g transform="translate(793.3635 466.718125)scale(0.12 -0.12)">
       <use xlink:href="#BitstreamVeraSans-Roman-34"/>
       <use x="63.623046875" xlink:href="#BitstreamVeraSans-Roman-30"/>
       <use x="127.24609375" xlink:href="#BitstreamVeraSans-Roman-30"/>
      </g>
     </g>
    </g>
    <g id="xtick_6">
     <g id="line2d_14">
      <g>
       <use style="stroke:#000000;stroke-width:0.5;" x="965.52" xlink:href="#m4846b3c56d" y="453.6"/>
      </g>
     </g>
     <g id="line2d_15">
      <g>
       <use style="stroke:#000000;stroke-width:0.5;" x="965.52" xlink:href="#m0d4be8d1e8" y="50.4"/>
      </g>
     </g>
     <g id="text_6">
      <!-- 500 -->
      <defs>
       <path d="M 10.796875 72.90625 
L 49.515625 72.90625 
L 49.515625 64.59375 
L 19.828125 64.59375 
L 19.828125 46.734375 
Q 21.96875 47.46875 24.109375 47.828125 
Q 26.265625 48.1875 28.421875 48.1875 
Q 40.625 48.1875 47.75 41.5 
Q 54.890625 34.8125 54.890625 23.390625 
Q 54.890625 11.625 47.5625 5.09375 
Q 40.234375 -1.421875 26.90625 -1.421875 
Q 22.3125 -1.421875 17.546875 -0.640625 
Q 12.796875 0.140625 7.71875 1.703125 
L 7.71875 11.625 
Q 12.109375 9.234375 16.796875 8.0625 
Q 21.484375 6.890625 26.703125 6.890625 
Q 35.15625 6.890625 40.078125 11.328125 
Q 45.015625 15.765625 45.015625 23.390625 
Q 45.015625 31 40.078125 35.4375 
Q 35.15625 39.890625 26.703125 39.890625 
Q 22.75 39.890625 18.8125 39.015625 
Q 14.890625 38.140625 10.796875 36.28125 
z
" id="BitstreamVeraSans-Roman-35"/>
      </defs>
      <g transform="translate(954.0675 466.718125)scale(0.12 -0.12)">
       <use xlink:href="#BitstreamVeraSans-Roman-35"/>
       <use x="63.623046875" xlink:href="#BitstreamVeraSans-Roman-30"/>
       <use x="127.24609375" xlink:href="#BitstreamVeraSans-Roman-30"/>
      </g>
     </g>
    </g>
    <g id="text_7">
     <!-- Time -->
     <defs>
      <path d="M 56.203125 29.59375 
L 56.203125 25.203125 
L 14.890625 25.203125 
Q 15.484375 15.921875 20.484375 11.0625 
Q 25.484375 6.203125 34.421875 6.203125 
Q 39.59375 6.203125 44.453125 7.46875 
Q 49.3125 8.734375 54.109375 11.28125 
L 54.109375 2.78125 
Q 49.265625 0.734375 44.1875 -0.34375 
Q 39.109375 -1.421875 33.890625 -1.421875 
Q 20.796875 -1.421875 13.15625 6.1875 
Q 5.515625 13.8125 5.515625 26.8125 
Q 5.515625 40.234375 12.765625 48.109375 
Q 20.015625 56 32.328125 56 
Q 43.359375 56 49.78125 48.890625 
Q 56.203125 41.796875 56.203125 29.59375 
M 47.21875 32.234375 
Q 47.125 39.59375 43.09375 43.984375 
Q 39.0625 48.390625 32.421875 48.390625 
Q 24.90625 48.390625 20.390625 44.140625 
Q 15.875 39.890625 15.1875 32.171875 
z
" id="BitstreamVeraSans-Roman-65"/>
      <path d="M 9.421875 54.6875 
L 18.40625 54.6875 
L 18.40625 0 
L 9.421875 0 
z
M 9.421875 75.984375 
L 18.40625 75.984375 
L 18.40625 64.59375 
L 9.421875 64.59375 
z
" id="BitstreamVeraSans-Roman-69"/>
      <path d="M -0.296875 72.90625 
L 61.375 72.90625 
L 61.375 64.59375 
L 35.5 64.59375 
L 35.5 0 
L 25.59375 0 
L 25.59375 64.59375 
L -0.296875 64.59375 
z
" id="BitstreamVeraSans-Roman-54"/>
      <path d="M 52 44.1875 
Q 55.375 50.25 60.0625 53.125 
Q 64.75 56 71.09375 56 
Q 79.640625 56 84.28125 50.015625 
Q 88.921875 44.046875 88.921875 33.015625 
L 88.921875 0 
L 79.890625 0 
L 79.890625 32.71875 
Q 79.890625 40.578125 77.09375 44.375 
Q 74.3125 48.1875 68.609375 48.1875 
Q 61.625 48.1875 57.5625 43.546875 
Q 53.515625 38.921875 53.515625 30.90625 
L 53.515625 0 
L 44.484375 0 
L 44.484375 32.71875 
Q 44.484375 40.625 41.703125 44.40625 
Q 38.921875 48.1875 33.109375 48.1875 
Q 26.21875 48.1875 22.15625 43.53125 
Q 18.109375 38.875 18.109375 30.90625 
L 18.109375 0 
L 9.078125 0 
L 9.078125 54.6875 
L 18.109375 54.6875 
L 18.109375 46.1875 
Q 21.1875 51.21875 25.484375 53.609375 
Q 29.78125 56 35.6875 56 
Q 41.65625 56 45.828125 52.96875 
Q 50 49.953125 52 44.1875 
" id="BitstreamVeraSans-Roman-6d"/>
     </defs>
     <g transform="translate(548.895 483.331875)scale(0.12 -0.12)">
      <use xlink:href="#BitstreamVeraSans-Roman-54"/>
      <use x="61.037109375" xlink:href="#BitstreamVeraSans-Roman-69"/>
      <use x="88.8203125" xlink:href="#BitstreamVeraSans-Roman-6d"/>
      <use x="186.232421875" xlink:href="#BitstreamVeraSans-Roman-65"/>
     </g>
    </g>
   </g>
   <g id="matplotlib.axis_2">
    <g id="ytick_1">
     <g id="line2d_16">
      <defs>
       <path d="M 0 0 
L 4 0 
" id="m1c0f1da2e6" style="stroke:#000000;stroke-width:0.5;"/>
      </defs>
      <g>
       <use style="stroke:#000000;stroke-width:0.5;" x="162.0" xlink:href="#m1c0f1da2e6" y="453.6"/>
      </g>
     </g>
     <g id="line2d_17">
      <defs>
       <path d="M 0 0 
L -4 0 
" id="m956fa154cb" style="stroke:#000000;stroke-width:0.5;"/>
      </defs>
      <g>
       <use style="stroke:#000000;stroke-width:0.5;" x="965.52" xlink:href="#m956fa154cb" y="453.6"/>
      </g>
     </g>
     <g id="text_8">
      <!-- 0 -->
      <g transform="translate(150.365 456.91125)scale(0.12 -0.12)">
       <use xlink:href="#BitstreamVeraSans-Roman-30"/>
      </g>
     </g>
    </g>
    <g id="ytick_2">
     <g id="line2d_18">
      <g>
       <use style="stroke:#000000;stroke-width:0.5;" x="162.0" xlink:href="#m1c0f1da2e6" y="372.96"/>
      </g>
     </g>
     <g id="line2d_19">
      <g>
       <use style="stroke:#000000;stroke-width:0.5;" x="965.52" xlink:href="#m956fa154cb" y="372.96"/>
      </g>
     </g>
     <g id="text_9">
      <!-- 5 -->
      <g transform="translate(150.365 376.27125)scale(0.12 -0.12)">
       <use xlink:href="#BitstreamVeraSans-Roman-35"/>
      </g>
     </g>
    </g>
    <g id="ytick_3">
     <g id="line2d_20">
      <g>
       <use style="stroke:#000000;stroke-width:0.5;" x="162.0" xlink:href="#m1c0f1da2e6" y="292.32"/>
      </g>
     </g>
     <g id="line2d_21">
      <g>
       <use style="stroke:#000000;stroke-width:0.5;" x="965.52" xlink:href="#m956fa154cb" y="292.32"/>
      </g>
     </g>
     <g id="text_10">
      <!-- 10 -->
      <g transform="translate(142.73 295.63125)scale(0.12 -0.12)">
       <use xlink:href="#BitstreamVeraSans-Roman-31"/>
       <use x="63.623046875" xlink:href="#BitstreamVeraSans-Roman-30"/>
      </g>
     </g>
    </g>
    <g id="ytick_4">
     <g id="line2d_22">
      <g>
       <use style="stroke:#000000;stroke-width:0.5;" x="162.0" xlink:href="#m1c0f1da2e6" y="211.68"/>
      </g>
     </g>
     <g id="line2d_23">
      <g>
       <use style="stroke:#000000;stroke-width:0.5;" x="965.52" xlink:href="#m956fa154cb" y="211.68"/>
      </g>
     </g>
     <g id="text_11">
      <!-- 15 -->
      <g transform="translate(142.73 214.99125)scale(0.12 -0.12)">
       <use xlink:href="#BitstreamVeraSans-Roman-31"/>
       <use x="63.623046875" xlink:href="#BitstreamVeraSans-Roman-35"/>
      </g>
     </g>
    </g>
    <g id="ytick_5">
     <g id="line2d_24">
      <g>
       <use style="stroke:#000000;stroke-width:0.5;" x="162.0" xlink:href="#m1c0f1da2e6" y="131.04"/>
      </g>
     </g>
     <g id="line2d_25">
      <g>
       <use style="stroke:#000000;stroke-width:0.5;" x="965.52" xlink:href="#m956fa154cb" y="131.04"/>
      </g>
     </g>
     <g id="text_12">
      <!-- 20 -->
      <g transform="translate(142.73 134.35125)scale(0.12 -0.12)">
       <use xlink:href="#BitstreamVeraSans-Roman-32"/>
       <use x="63.623046875" xlink:href="#BitstreamVeraSans-Roman-30"/>
      </g>
     </g>
    </g>
    <g id="ytick_6">
     <g id="line2d_26">
      <g>
       <use style="stroke:#000000;stroke-width:0.5;" x="162.0" xlink:href="#m1c0f1da2e6" y="50.4"/>
      </g>
     </g>
     <g id="line2d_27">
      <g>
       <use style="stroke:#000000;stroke-width:0.5;" x="965.52" xlink:href="#m956fa154cb" y="50.4"/>
      </g>
     </g>
     <g id="text_13">
      <!-- 25 -->
      <g transform="translate(142.73 53.71125)scale(0.12 -0.12)">
       <use xlink:href="#BitstreamVeraSans-Roman-32"/>
       <use x="63.623046875" xlink:href="#BitstreamVeraSans-Roman-35"/>
      </g>
     </g>
    </g>
    <g id="text_14">
     <!-- #flocks -->
     <defs>
      <path d="M 51.125 44 
L 36.921875 44 
L 32.8125 27.6875 
L 47.125 27.6875 
z
M 43.796875 71.78125 
L 38.71875 51.515625 
L 52.984375 51.515625 
L 58.109375 71.78125 
L 65.921875 71.78125 
L 60.890625 51.515625 
L 76.125 51.515625 
L 76.125 44 
L 58.984375 44 
L 54.984375 27.6875 
L 70.515625 27.6875 
L 70.515625 20.21875 
L 53.078125 20.21875 
L 48 0 
L 40.1875 0 
L 45.21875 20.21875 
L 30.90625 20.21875 
L 25.875 0 
L 18.015625 0 
L 23.09375 20.21875 
L 7.71875 20.21875 
L 7.71875 27.6875 
L 24.90625 27.6875 
L 29 44 
L 13.28125 44 
L 13.28125 51.515625 
L 30.90625 51.515625 
L 35.890625 71.78125 
z
" id="BitstreamVeraSans-Roman-23"/>
      <path d="M 30.609375 48.390625 
Q 23.390625 48.390625 19.1875 42.75 
Q 14.984375 37.109375 14.984375 27.296875 
Q 14.984375 17.484375 19.15625 11.84375 
Q 23.34375 6.203125 30.609375 6.203125 
Q 37.796875 6.203125 41.984375 11.859375 
Q 46.1875 17.53125 46.1875 27.296875 
Q 46.1875 37.015625 41.984375 42.703125 
Q 37.796875 48.390625 30.609375 48.390625 
M 30.609375 56 
Q 42.328125 56 49.015625 48.375 
Q 55.71875 40.765625 55.71875 27.296875 
Q 55.71875 13.875 49.015625 6.21875 
Q 42.328125 -1.421875 30.609375 -1.421875 
Q 18.84375 -1.421875 12.171875 6.21875 
Q 5.515625 13.875 5.515625 27.296875 
Q 5.515625 40.765625 12.171875 48.375 
Q 18.84375 56 30.609375 56 
" id="BitstreamVeraSans-Roman-6f"/>
      <path d="M 9.421875 75.984375 
L 18.40625 75.984375 
L 18.40625 0 
L 9.421875 0 
z
" id="BitstreamVeraSans-Roman-6c"/>
      <path d="M 9.078125 75.984375 
L 18.109375 75.984375 
L 18.109375 31.109375 
L 44.921875 54.6875 
L 56.390625 54.6875 
L 27.390625 29.109375 
L 57.625 0 
L 45.90625 0 
L 18.109375 26.703125 
L 18.109375 0 
L 9.078125 0 
z
" id="BitstreamVeraSans-Roman-6b"/>
      <path d="M 37.109375 75.984375 
L 37.109375 68.5 
L 28.515625 68.5 
Q 23.6875 68.5 21.796875 66.546875 
Q 19.921875 64.59375 19.921875 59.515625 
L 19.921875 54.6875 
L 34.71875 54.6875 
L 34.71875 47.703125 
L 19.921875 47.703125 
L 19.921875 0 
L 10.890625 0 
L 10.890625 47.703125 
L 2.296875 47.703125 
L 2.296875 54.6875 
L 10.890625 54.6875 
L 10.890625 58.5 
Q 10.890625 67.625 15.140625 71.796875 
Q 19.390625 75.984375 28.609375 75.984375 
z
" id="BitstreamVeraSans-Roman-66"/>
      <path d="M 44.28125 53.078125 
L 44.28125 44.578125 
Q 40.484375 46.53125 36.375 47.5 
Q 32.28125 48.484375 27.875 48.484375 
Q 21.1875 48.484375 17.84375 46.4375 
Q 14.5 44.390625 14.5 40.28125 
Q 14.5 37.15625 16.890625 35.375 
Q 19.28125 33.59375 26.515625 31.984375 
L 29.59375 31.296875 
Q 39.15625 29.25 43.1875 25.515625 
Q 47.21875 21.78125 47.21875 15.09375 
Q 47.21875 7.46875 41.1875 3.015625 
Q 35.15625 -1.421875 24.609375 -1.421875 
Q 20.21875 -1.421875 15.453125 -0.5625 
Q 10.6875 0.296875 5.421875 2 
L 5.421875 11.28125 
Q 10.40625 8.6875 15.234375 7.390625 
Q 20.0625 6.109375 24.8125 6.109375 
Q 31.15625 6.109375 34.5625 8.28125 
Q 37.984375 10.453125 37.984375 14.40625 
Q 37.984375 18.0625 35.515625 20.015625 
Q 33.0625 21.96875 24.703125 23.78125 
L 21.578125 24.515625 
Q 13.234375 26.265625 9.515625 29.90625 
Q 5.8125 33.546875 5.8125 39.890625 
Q 5.8125 47.609375 11.28125 51.796875 
Q 16.75 56 26.8125 56 
Q 31.78125 56 36.171875 55.265625 
Q 40.578125 54.546875 44.28125 53.078125 
" id="BitstreamVeraSans-Roman-73"/>
      <path d="M 48.78125 52.59375 
L 48.78125 44.1875 
Q 44.96875 46.296875 41.140625 47.34375 
Q 37.3125 48.390625 33.40625 48.390625 
Q 24.65625 48.390625 19.8125 42.84375 
Q 14.984375 37.3125 14.984375 27.296875 
Q 14.984375 17.28125 19.8125 11.734375 
Q 24.65625 6.203125 33.40625 6.203125 
Q 37.3125 6.203125 41.140625 7.25 
Q 44.96875 8.296875 48.78125 10.40625 
L 48.78125 2.09375 
Q 45.015625 0.34375 40.984375 -0.53125 
Q 36.96875 -1.421875 32.421875 -1.421875 
Q 20.0625 -1.421875 12.78125 6.34375 
Q 5.515625 14.109375 5.515625 27.296875 
Q 5.515625 40.671875 12.859375 48.328125 
Q 20.21875 56 33.015625 56 
Q 37.15625 56 41.109375 55.140625 
Q 45.0625 54.296875 48.78125 52.59375 
" id="BitstreamVeraSans-Roman-63"/>
     </defs>
     <g transform="translate(135.234375 274.3771875)rotate(-90.0)scale(0.12 -0.12)">
      <use xlink:href="#BitstreamVeraSans-Roman-23"/>
      <use x="83.7890625" xlink:href="#BitstreamVeraSans-Roman-66"/>
      <use x="118.994140625" xlink:href="#BitstreamVeraSans-Roman-6c"/>
      <use x="146.77734375" xlink:href="#BitstreamVeraSans-Roman-6f"/>
      <use x="207.958984375" xlink:href="#BitstreamVeraSans-Roman-63"/>
      <use x="262.939453125" xlink:href="#BitstreamVeraSans-Roman-6b"/>
      <use x="320.849609375" xlink:href="#BitstreamVeraSans-Roman-73"/>
     </g>
    </g>
   </g>
   <g id="text_15">
    <!-- Isolated mechanisms: #flocks -->
    <defs>
     <path id="BitstreamVeraSans-Roman-20"/>
     <path d="M 54.890625 33.015625 
L 54.890625 0 
L 45.90625 0 
L 45.90625 32.71875 
Q 45.90625 40.484375 42.875 44.328125 
Q 39.84375 48.1875 33.796875 48.1875 
Q 26.515625 48.1875 22.3125 43.546875 
Q 18.109375 38.921875 18.109375 30.90625 
L 18.109375 0 
L 9.078125 0 
L 9.078125 54.6875 
L 18.109375 54.6875 
L 18.109375 46.1875 
Q 21.34375 51.125 25.703125 53.5625 
Q 30.078125 56 35.796875 56 
Q 45.21875 56 50.046875 50.171875 
Q 54.890625 44.34375 54.890625 33.015625 
" id="BitstreamVeraSans-Roman-6e"/>
     <path d="M 11.71875 12.40625 
L 22.015625 12.40625 
L 22.015625 0 
L 11.71875 0 
z
M 11.71875 51.703125 
L 22.015625 51.703125 
L 22.015625 39.3125 
L 11.71875 39.3125 
z
" id="BitstreamVeraSans-Roman-3a"/>
     <path d="M 54.890625 33.015625 
L 54.890625 0 
L 45.90625 0 
L 45.90625 32.71875 
Q 45.90625 40.484375 42.875 44.328125 
Q 39.84375 48.1875 33.796875 48.1875 
Q 26.515625 48.1875 22.3125 43.546875 
Q 18.109375 38.921875 18.109375 30.90625 
L 18.109375 0 
L 9.078125 0 
L 9.078125 75.984375 
L 18.109375 75.984375 
L 18.109375 46.1875 
Q 21.34375 51.125 25.703125 53.5625 
Q 30.078125 56 35.796875 56 
Q 45.21875 56 50.046875 50.171875 
Q 54.890625 44.34375 54.890625 33.015625 
" id="BitstreamVeraSans-Roman-68"/>
     <path d="M 45.40625 46.390625 
L 45.40625 75.984375 
L 54.390625 75.984375 
L 54.390625 0 
L 45.40625 0 
L 45.40625 8.203125 
Q 42.578125 3.328125 38.25 0.953125 
Q 33.9375 -1.421875 27.875 -1.421875 
Q 17.96875 -1.421875 11.734375 6.484375 
Q 5.515625 14.40625 5.515625 27.296875 
Q 5.515625 40.1875 11.734375 48.09375 
Q 17.96875 56 27.875 56 
Q 33.9375 56 38.25 53.625 
Q 42.578125 51.265625 45.40625 46.390625 
M 14.796875 27.296875 
Q 14.796875 17.390625 18.875 11.75 
Q 22.953125 6.109375 30.078125 6.109375 
Q 37.203125 6.109375 41.296875 11.75 
Q 45.40625 17.390625 45.40625 27.296875 
Q 45.40625 37.203125 41.296875 42.84375 
Q 37.203125 48.484375 30.078125 48.484375 
Q 22.953125 48.484375 18.875 42.84375 
Q 14.796875 37.203125 14.796875 27.296875 
" id="BitstreamVeraSans-Roman-64"/>
     <path d="M 18.3125 70.21875 
L 18.3125 54.6875 
L 36.8125 54.6875 
L 36.8125 47.703125 
L 18.3125 47.703125 
L 18.3125 18.015625 
Q 18.3125 11.328125 20.140625 9.421875 
Q 21.96875 7.515625 27.59375 7.515625 
L 36.8125 7.515625 
L 36.8125 0 
L 27.59375 0 
Q 17.1875 0 13.234375 3.875 
Q 9.28125 7.765625 9.28125 18.015625 
L 9.28125 47.703125 
L 2.6875 47.703125 
L 2.6875 54.6875 
L 9.28125 54.6875 
L 9.28125 70.21875 
z
" id="BitstreamVeraSans-Roman-74"/>
     <path d="M 34.28125 27.484375 
Q 23.390625 27.484375 19.1875 25 
Q 14.984375 22.515625 14.984375 16.5 
Q 14.984375 11.71875 18.140625 8.90625 
Q 21.296875 6.109375 26.703125 6.109375 
Q 34.1875 6.109375 38.703125 11.40625 
Q 43.21875 16.703125 43.21875 25.484375 
L 43.21875 27.484375 
z
M 52.203125 31.203125 
L 52.203125 0 
L 43.21875 0 
L 43.21875 8.296875 
Q 40.140625 3.328125 35.546875 0.953125 
Q 30.953125 -1.421875 24.3125 -1.421875 
Q 15.921875 -1.421875 10.953125 3.296875 
Q 6 8.015625 6 15.921875 
Q 6 25.140625 12.171875 29.828125 
Q 18.359375 34.515625 30.609375 34.515625 
L 43.21875 34.515625 
L 43.21875 35.40625 
Q 43.21875 41.609375 39.140625 45 
Q 35.0625 48.390625 27.6875 48.390625 
Q 23 48.390625 18.546875 47.265625 
Q 14.109375 46.140625 10.015625 43.890625 
L 10.015625 52.203125 
Q 14.9375 54.109375 19.578125 55.046875 
Q 24.21875 56 28.609375 56 
Q 40.484375 56 46.34375 49.84375 
Q 52.203125 43.703125 52.203125 31.203125 
" id="BitstreamVeraSans-Roman-61"/>
     <path d="M 9.8125 72.90625 
L 19.671875 72.90625 
L 19.671875 0 
L 9.8125 0 
z
" id="BitstreamVeraSans-Roman-49"/>
    </defs>
    <g transform="translate(455.93325 45.4)scale(0.144 -0.144)">
     <use xlink:href="#BitstreamVeraSans-Roman-49"/>
     <use x="29.4921875" xlink:href="#BitstreamVeraSans-Roman-73"/>
     <use x="81.591796875" xlink:href="#BitstreamVeraSans-Roman-6f"/>
     <use x="142.7734375" xlink:href="#BitstreamVeraSans-Roman-6c"/>
     <use x="170.556640625" xlink:href="#BitstreamVeraSans-Roman-61"/>
     <use x="231.8359375" xlink:href="#BitstreamVeraSans-Roman-74"/>
     <use x="271.044921875" xlink:href="#BitstreamVeraSans-Roman-65"/>
     <use x="332.568359375" xlink:href="#BitstreamVeraSans-Roman-64"/>
     <use x="396.044921875" xlink:href="#BitstreamVeraSans-Roman-20"/>
     <use x="427.83203125" xlink:href="#BitstreamVeraSans-Roman-6d"/>
     <use x="525.244140625" xlink:href="#BitstreamVeraSans-Roman-65"/>
     <use x="586.767578125" xlink:href="#BitstreamVeraSans-Roman-63"/>
     <use x="641.748046875" xlink:href="#BitstreamVeraSans-Roman-68"/>
     <use x="705.126953125" xlink:href="#BitstreamVeraSans-Roman-61"/>
     <use x="766.40625" xlink:href="#BitstreamVeraSans-Roman-6e"/>
     <use x="829.78515625" xlink:href="#BitstreamVeraSans-Roman-69"/>
     <use x="857.568359375" xlink:href="#BitstreamVeraSans-Roman-73"/>
     <use x="909.66796875" xlink:href="#BitstreamVeraSans-Roman-6d"/>
     <use x="1007.08007812" xlink:href="#BitstreamVeraSans-Roman-73"/>
     <use x="1059.1796875" xlink:href="#BitstreamVeraSans-Roman-3a"/>
     <use x="1092.87109375" xlink:href="#BitstreamVeraSans-Roman-20"/>
     <use x="1124.65820312" xlink:href="#BitstreamVeraSans-Roman-23"/>
     <use x="1208.44726562" xlink:href="#BitstreamVeraSans-Roman-66"/>
     <use x="1243.65234375" xlink:href="#BitstreamVeraSans-Roman-6c"/>
     <use x="1271.43554688" xlink:href="#BitstreamVeraSans-Roman-6f"/>
     <use x="1332.6171875" xlink:href="#BitstreamVeraSans-Roman-63"/>
     <use x="1387.59765625" xlink:href="#BitstreamVeraSans-Roman-6b"/>
     <use x="1445.5078125" xlink:href="#BitstreamVeraSans-Roman-73"/>
    </g>
   </g>
   <g id="legend_1">
    <g id="patch_7">
     <path d="M 972.72 117.2655 
L 1167.552 117.2655 
L 1167.552 49.536 
L 972.72 49.536 
z
" style="fill:#ffffff;stroke:#000000;stroke-linejoin:miter;"/>
    </g>
    <g id="line2d_28">
     <path d="M 982.8 61.19775 
L 1002.96 61.19775 
" style="fill:none;stroke:#0000ff;stroke-linecap:square;"/>
    </g>
    <g id="line2d_29"/>
    <g id="text_16">
     <!-- $S_w=1$, $A_w=0$, $C_w=0$ -->
     <defs>
      <path d="M 9.28125 0 
L 9.28125 3.515625 
Q 21.78125 3.515625 21.78125 6.6875 
L 21.78125 59.1875 
Q 16.609375 56.6875 8.6875 56.6875 
L 8.6875 60.203125 
Q 20.953125 60.203125 27.203125 66.609375 
L 28.609375 66.609375 
Q 28.953125 66.609375 29.265625 66.328125 
Q 29.59375 66.0625 29.59375 65.71875 
L 29.59375 6.6875 
Q 29.59375 3.515625 42.09375 3.515625 
L 42.09375 0 
z
" id="Cmr10-31"/>
      <path d="M 25 -2.203125 
Q 12.75 -2.203125 8.328125 7.875 
Q 3.90625 17.96875 3.90625 31.890625 
Q 3.90625 40.578125 5.484375 48.234375 
Q 7.078125 55.90625 11.78125 61.25 
Q 16.5 66.609375 25 66.609375 
Q 31.59375 66.609375 35.78125 63.375 
Q 39.984375 60.15625 42.1875 55.046875 
Q 44.390625 49.953125 45.1875 44.109375 
Q 46 38.28125 46 31.890625 
Q 46 23.296875 44.40625 15.796875 
Q 42.828125 8.296875 38.1875 3.046875 
Q 33.546875 -2.203125 25 -2.203125 
M 25 0.390625 
Q 30.5625 0.390625 33.296875 6.09375 
Q 36.03125 11.8125 36.671875 18.75 
Q 37.3125 25.6875 37.3125 33.5 
Q 37.3125 41.015625 36.671875 47.359375 
Q 36.03125 53.71875 33.3125 58.859375 
Q 30.609375 64.015625 25 64.015625 
Q 19.34375 64.015625 16.609375 58.828125 
Q 13.875 53.65625 13.234375 47.328125 
Q 12.59375 41.015625 12.59375 33.5 
Q 12.59375 27.9375 12.859375 23 
Q 13.140625 18.0625 14.3125 12.8125 
Q 15.484375 7.5625 18.09375 3.96875 
Q 20.703125 0.390625 25 0.390625 
" id="Cmr10-30"/>
      <path d="M 6.109375 -2.203125 
Q 5.8125 -2.203125 5.5625 -1.859375 
Q 5.328125 -1.515625 5.328125 -1.21875 
L 11.078125 22.125 
Q 11.28125 22.703125 11.921875 22.703125 
L 13.09375 22.703125 
Q 13.484375 22.703125 13.703125 22.40625 
Q 13.921875 22.125 13.921875 21.6875 
Q 13.09375 18.265625 13.09375 15.578125 
Q 13.09375 8.34375 18.0625 4.828125 
Q 23.046875 1.3125 30.609375 1.3125 
Q 33.890625 1.3125 37.0625 2.921875 
Q 40.234375 4.546875 42.59375 7.125 
Q 44.96875 9.71875 46.375 12.90625 
Q 47.796875 16.109375 47.796875 19.390625 
Q 47.796875 22.90625 45.9375 25.65625 
Q 44.09375 28.421875 40.828125 29.203125 
L 28.609375 32.421875 
Q 23.6875 33.734375 20.75 37.71875 
Q 17.828125 41.703125 17.828125 46.6875 
Q 17.828125 52.6875 21.390625 58.25 
Q 24.953125 63.8125 30.6875 67.15625 
Q 36.421875 70.515625 42.390625 70.515625 
Q 46.96875 70.515625 50.796875 68.828125 
Q 54.640625 67.140625 56.6875 63.484375 
L 62.40625 70.21875 
Q 62.984375 70.515625 63.09375 70.515625 
L 63.71875 70.515625 
Q 64.109375 70.515625 64.34375 70.171875 
Q 64.59375 69.828125 64.59375 69.484375 
L 58.796875 46.296875 
Q 58.640625 45.609375 58.015625 45.609375 
L 56.78125 45.609375 
Q 55.90625 45.609375 55.90625 46.6875 
Q 56.390625 49.859375 56.390625 52.203125 
Q 56.390625 56.84375 54.796875 60.28125 
Q 53.21875 63.71875 50.015625 65.5 
Q 46.828125 67.28125 42.09375 67.28125 
Q 38.09375 67.28125 34.125 64.984375 
Q 30.171875 62.703125 27.734375 58.890625 
Q 25.296875 55.078125 25.296875 50.984375 
Q 25.296875 47.75 27.171875 45.265625 
Q 29.046875 42.78125 32.171875 41.890625 
L 44.390625 38.71875 
Q 47.703125 37.84375 50.171875 35.625 
Q 52.640625 33.40625 53.90625 30.34375 
Q 55.171875 27.296875 55.171875 23.6875 
Q 55.171875 18.953125 53.171875 14.328125 
Q 51.171875 9.71875 47.578125 5.90625 
Q 44 2.09375 39.453125 -0.046875 
Q 34.90625 -2.203125 30.171875 -2.203125 
Q 18.265625 -2.203125 13.09375 4.78125 
L 7.515625 -1.90625 
Q 6.9375 -2.203125 6.78125 -2.203125 
z
" id="Cmmi10-53"/>
      <path d="M 11.71875 12.40625 
L 22.015625 12.40625 
L 22.015625 4 
L 14.015625 -11.625 
L 7.71875 -11.625 
L 11.71875 4 
z
" id="BitstreamVeraSans-Roman-2c"/>
      <path d="M 14.59375 21.578125 
Q 14.59375 15.578125 16.90625 11.015625 
Q 19.234375 6.453125 23.65625 3.875 
Q 28.078125 1.3125 34.078125 1.3125 
Q 40.375 1.3125 46.203125 4.53125 
Q 52.046875 7.765625 56.171875 13.15625 
Q 60.296875 18.5625 61.8125 24.609375 
Q 62.015625 25.203125 62.59375 25.203125 
L 63.8125 25.203125 
Q 64.203125 25.203125 64.453125 24.921875 
Q 64.703125 24.65625 64.703125 24.3125 
Q 64.703125 24.21875 64.59375 24.03125 
Q 62.890625 17.09375 57.984375 11.015625 
Q 53.078125 4.9375 46.234375 1.359375 
Q 39.40625 -2.203125 32.171875 -2.203125 
Q 24.359375 -2.203125 18.15625 1.3125 
Q 11.96875 4.828125 8.515625 11.078125 
Q 5.078125 17.328125 5.078125 25.203125 
Q 5.078125 33.59375 8.828125 41.8125 
Q 12.59375 50.046875 18.9375 56.46875 
Q 25.296875 62.890625 33.421875 66.703125 
Q 41.546875 70.515625 49.90625 70.515625 
Q 53.21875 70.515625 56.25 69.5 
Q 59.28125 68.5 61.859375 66.453125 
Q 64.453125 64.40625 66.109375 61.71875 
L 74.03125 70.3125 
Q 74.03125 70.515625 74.515625 70.515625 
L 75.09375 70.515625 
Q 75.484375 70.515625 75.734375 70.171875 
Q 75.984375 69.828125 75.984375 69.484375 
L 69.1875 42.484375 
Q 69.1875 41.796875 68.40625 41.796875 
L 66.609375 41.796875 
Q 65.828125 41.796875 65.828125 42.921875 
Q 66.21875 45.125 66.21875 48.1875 
Q 66.21875 53.078125 64.546875 57.390625 
Q 62.890625 61.71875 59.390625 64.359375 
Q 55.90625 67 50.875 67 
Q 42.71875 67 35.9375 62.890625 
Q 29.15625 58.796875 24.4375 52.125 
Q 19.734375 45.453125 17.15625 37.328125 
Q 14.59375 29.203125 14.59375 21.578125 
" id="Cmmi10-43"/>
      <path d="M 10.796875 11.625 
Q 10.796875 13.71875 11.359375 16.453125 
Q 11.921875 19.1875 12.59375 21.3125 
Q 13.28125 23.4375 14.90625 27.828125 
Q 16.546875 32.234375 16.703125 32.625 
Q 18.015625 36.28125 18.015625 38.625 
Q 18.015625 41.609375 15.828125 41.609375 
Q 11.859375 41.609375 9.296875 37.53125 
Q 6.734375 33.453125 5.515625 28.421875 
Q 5.328125 27.78125 4.6875 27.78125 
L 3.515625 27.78125 
Q 2.6875 27.78125 2.6875 28.71875 
L 2.6875 29 
Q 4.296875 34.96875 7.609375 39.578125 
Q 10.9375 44.1875 16.015625 44.1875 
Q 19.578125 44.1875 22.046875 41.84375 
Q 24.515625 39.5 24.515625 35.890625 
Q 24.515625 34.03125 23.6875 31.984375 
Q 22.515625 28.953125 20.921875 24.703125 
Q 19.34375 20.453125 18.453125 16.984375 
Q 17.578125 13.53125 17.578125 10.296875 
Q 17.578125 6.390625 19.625 3.953125 
Q 21.6875 1.515625 25.59375 1.515625 
Q 30.90625 1.515625 34.421875 9.625 
Q 34.28125 10.203125 34.28125 11.28125 
Q 34.28125 13.96875 35.109375 17.390625 
L 40.71875 39.890625 
Q 41.0625 41.21875 42.28125 42.15625 
Q 43.5 43.109375 44.921875 43.109375 
Q 46.09375 43.109375 47 42.328125 
Q 47.90625 41.546875 47.90625 40.28125 
Q 47.90625 39.703125 47.796875 39.5 
L 42.1875 17.1875 
Q 41.21875 13.1875 41.21875 10.015625 
Q 41.21875 6.25 42.9375 3.875 
Q 44.671875 1.515625 48.390625 1.515625 
Q 54.828125 1.515625 58.984375 10.015625 
Q 60.546875 13.03125 62.46875 18.9375 
Q 64.40625 24.859375 64.40625 27.984375 
Q 64.40625 30.859375 63.46875 32.546875 
Q 62.546875 34.234375 60.90625 36.1875 
Q 59.28125 38.140625 59.28125 39.109375 
Q 59.28125 41.015625 60.90625 42.640625 
Q 62.546875 44.28125 64.5 44.28125 
Q 66.890625 44.28125 67.9375 42.078125 
Q 69 39.890625 69 37.109375 
Q 69 33.734375 67.875 28.53125 
Q 66.75 23.34375 65.03125 18.09375 
Q 63.328125 12.84375 61.8125 9.71875 
Q 56.34375 -1.125 48.1875 -1.125 
Q 44 -1.125 40.53125 0.484375 
Q 37.0625 2.09375 35.40625 5.609375 
Q 33.796875 2.734375 31.171875 0.796875 
Q 28.5625 -1.125 25.390625 -1.125 
Q 18.796875 -1.125 14.796875 2.015625 
Q 10.796875 5.171875 10.796875 11.625 
" id="Cmmi10-77"/>
      <path d="M 4.5 0 
Q 3.515625 0 3.515625 1.3125 
Q 3.90625 3.515625 4.78125 3.515625 
Q 8.84375 3.515625 11.796875 5.125 
Q 14.75 6.734375 16.890625 10.109375 
Q 17.09375 10.296875 17.09375 10.296875 
L 52.78125 70.515625 
Q 53.5625 71.578125 54.6875 71.578125 
L 56 71.578125 
Q 56.296875 71.578125 56.59375 71.453125 
Q 56.890625 71.34375 57.109375 71.0625 
Q 57.328125 70.796875 57.328125 70.515625 
L 63.375 5.90625 
Q 63.375 5.46875 63.8125 4.59375 
Q 64.796875 3.515625 71.296875 3.515625 
Q 72.3125 3.515625 72.3125 2.203125 
Q 71.96875 0.875 71.75 0.4375 
Q 71.53125 0 70.609375 0 
L 45.609375 0 
Q 44.671875 0 44.671875 1.3125 
Q 45.21875 3.515625 46 3.515625 
Q 53.90625 3.515625 54.390625 6.203125 
L 52.875 22.703125 
L 28.21875 22.703125 
L 20.21875 9.28125 
Q 19.484375 8.203125 19.484375 6.78125 
Q 19.484375 5.03125 21.171875 4.265625 
Q 22.859375 3.515625 24.90625 3.515625 
Q 25.875 3.515625 25.875 2.203125 
Q 25.53125 0.78125 25.328125 0.390625 
Q 25.140625 0 24.21875 0 
z
M 30.171875 26.21875 
L 52.484375 26.21875 
L 49.515625 58.59375 
z
" id="Cmmi10-41"/>
      <path d="M 7.515625 13.28125 
Q 6.6875 13.28125 6.140625 13.90625 
Q 5.609375 14.546875 5.609375 15.28125 
Q 5.609375 16.109375 6.140625 16.6875 
Q 6.6875 17.28125 7.515625 17.28125 
L 70.3125 17.28125 
Q 71.046875 17.28125 71.578125 16.6875 
Q 72.125 16.109375 72.125 15.28125 
Q 72.125 14.546875 71.578125 13.90625 
Q 71.046875 13.28125 70.3125 13.28125 
z
M 7.515625 32.71875 
Q 6.6875 32.71875 6.140625 33.296875 
Q 5.609375 33.890625 5.609375 34.71875 
Q 5.609375 35.453125 6.140625 36.078125 
Q 6.6875 36.71875 7.515625 36.71875 
L 70.3125 36.71875 
Q 71.046875 36.71875 71.578125 36.078125 
Q 72.125 35.453125 72.125 34.71875 
Q 72.125 33.890625 71.578125 33.296875 
Q 71.046875 32.71875 70.3125 32.71875 
z
" id="Cmr10-3d"/>
     </defs>
     <g transform="translate(1018.8 66.23775)scale(0.144 -0.144)">
      <use transform="translate(0.0 0.421875)" xlink:href="#Cmmi10-53"/>
      <use transform="translate(61.279296875 -16.584375)scale(0.7)" xlink:href="#Cmmi10-77"/>
      <use transform="translate(135.254296875 0.421875)" xlink:href="#Cmr10-3d"/>
      <use transform="translate(230.4984375 0.421875)" xlink:href="#Cmr10-31"/>
      <use transform="translate(280.4984375 0.421875)" xlink:href="#BitstreamVeraSans-Roman-2c"/>
      <use transform="translate(312.285546875 0.421875)" xlink:href="#BitstreamVeraSans-Roman-20"/>
      <use transform="translate(344.07265625 0.421875)" xlink:href="#Cmmi10-41"/>
      <use transform="translate(419.07265625 -16.584375)scale(0.7)" xlink:href="#Cmmi10-77"/>
      <use transform="translate(493.04765625 0.421875)" xlink:href="#Cmr10-3d"/>
      <use transform="translate(588.291796875 0.421875)" xlink:href="#Cmr10-30"/>
      <use transform="translate(638.291796875 0.421875)" xlink:href="#BitstreamVeraSans-Roman-2c"/>
      <use transform="translate(670.07890625 0.421875)" xlink:href="#BitstreamVeraSans-Roman-20"/>
      <use transform="translate(701.866015625 0.421875)" xlink:href="#Cmmi10-43"/>
      <use transform="translate(773.252734375 -16.584375)scale(0.7)" xlink:href="#Cmmi10-77"/>
      <use transform="translate(847.227734375 0.421875)" xlink:href="#Cmr10-3d"/>
      <use transform="translate(942.471875 0.421875)" xlink:href="#Cmr10-30"/>
     </g>
    </g>
    <g id="line2d_30">
     <path d="M 982.8 82.33425 
L 1002.96 82.33425 
" style="fill:none;stroke:#008000;stroke-linecap:square;"/>
    </g>
    <g id="line2d_31"/>
    <g id="text_17">
     <!-- $S_w=0$, $A_w=1$, $C_w=0$ -->
     <g transform="translate(1018.8 87.37425)scale(0.144 -0.144)">
      <use transform="translate(0.0 0.421875)" xlink:href="#Cmmi10-53"/>
      <use transform="translate(61.279296875 -16.584375)scale(0.7)" xlink:href="#Cmmi10-77"/>
      <use transform="translate(135.254296875 0.421875)" xlink:href="#Cmr10-3d"/>
      <use transform="translate(230.4984375 0.421875)" xlink:href="#Cmr10-30"/>
      <use transform="translate(280.4984375 0.421875)" xlink:href="#BitstreamVeraSans-Roman-2c"/>
      <use transform="translate(312.285546875 0.421875)" xlink:href="#BitstreamVeraSans-Roman-20"/>
      <use transform="translate(344.07265625 0.421875)" xlink:href="#Cmmi10-41"/>
      <use transform="translate(419.07265625 -16.584375)scale(0.7)" xlink:href="#Cmmi10-77"/>
      <use transform="translate(493.04765625 0.421875)" xlink:href="#Cmr10-3d"/>
      <use transform="translate(588.291796875 0.421875)" xlink:href="#Cmr10-31"/>
      <use transform="translate(638.291796875 0.421875)" xlink:href="#BitstreamVeraSans-Roman-2c"/>
      <use transform="translate(670.07890625 0.421875)" xlink:href="#BitstreamVeraSans-Roman-20"/>
      <use transform="translate(701.866015625 0.421875)" xlink:href="#Cmmi10-43"/>
      <use transform="translate(773.252734375 -16.584375)scale(0.7)" xlink:href="#Cmmi10-77"/>
      <use transform="translate(847.227734375 0.421875)" xlink:href="#Cmr10-3d"/>
      <use transform="translate(942.471875 0.421875)" xlink:href="#Cmr10-30"/>
     </g>
    </g>
    <g id="line2d_32">
     <path d="M 982.8 103.47075 
L 1002.96 103.47075 
" style="fill:none;stroke:#ff0000;stroke-linecap:square;"/>
    </g>
    <g id="line2d_33"/>
    <g id="text_18">
     <!-- $S_w=0$, $A_w=0$, $C_w=1$ -->
     <g transform="translate(1018.8 108.51075)scale(0.144 -0.144)">
      <use transform="translate(0.0 0.421875)" xlink:href="#Cmmi10-53"/>
      <use transform="translate(61.279296875 -16.584375)scale(0.7)" xlink:href="#Cmmi10-77"/>
      <use transform="translate(135.254296875 0.421875)" xlink:href="#Cmr10-3d"/>
      <use transform="translate(230.4984375 0.421875)" xlink:href="#Cmr10-30"/>
      <use transform="translate(280.4984375 0.421875)" xlink:href="#BitstreamVeraSans-Roman-2c"/>
      <use transform="translate(312.285546875 0.421875)" xlink:href="#BitstreamVeraSans-Roman-20"/>
      <use transform="translate(344.07265625 0.421875)" xlink:href="#Cmmi10-41"/>
      <use transform="translate(419.07265625 -16.584375)scale(0.7)" xlink:href="#Cmmi10-77"/>
      <use transform="translate(493.04765625 0.421875)" xlink:href="#Cmr10-3d"/>
      <use transform="translate(588.291796875 0.421875)" xlink:href="#Cmr10-30"/>
      <use transform="translate(638.291796875 0.421875)" xlink:href="#BitstreamVeraSans-Roman-2c"/>
      <use transform="translate(670.07890625 0.421875)" xlink:href="#BitstreamVeraSans-Roman-20"/>
      <use transform="translate(701.866015625 0.421875)" xlink:href="#Cmmi10-43"/>
      <use transform="translate(773.252734375 -16.584375)scale(0.7)" xlink:href="#Cmmi10-77"/>
      <use transform="translate(847.227734375 0.421875)" xlink:href="#Cmr10-3d"/>
      <use transform="translate(942.471875 0.421875)" xlink:href="#Cmr10-31"/>
     </g>
    </g>
   </g>
  </g>
 </g>
 <defs>
  <clipPath id="p430f192a57">
   <rect height="403.2" width="803.52" x="162.0" y="50.4"/>
  </clipPath>
 </defs>
</svg>
