<?xml version="1.0" encoding="utf-8" standalone="no"?>
<!DOCTYPE svg PUBLIC "-//W3C//DTD SVG 1.1//EN"
  "http://www.w3.org/Graphics/SVG/1.1/DTD/svg11.dtd">
<!-- Created with matplotlib (http://matplotlib.org/) -->
<svg height="504pt" version="1.1" viewBox="0 0 1296 504" width="1296pt" xmlns="http://www.w3.org/2000/svg" xmlns:xlink="http://www.w3.org/1999/xlink">
 <defs>
  <style type="text/css">
*{stroke-linecap:butt;stroke-linejoin:round;stroke-miterlimit:100000;}
  </style>
 </defs>
 <g id="figure_1">
  <g id="patch_1">
   <path d="M 0 504 
L 1296 504 
L 1296 0 
L 0 0 
z
" style="fill:#ffffff;"/>
  </g>
  <g id="axes_1">
   <g id="patch_2">
    <path d="M 162 453.6 
L 965.52 453.6 
L 965.52 50.4 
L 162 50.4 
z
" style="fill:#ffffff;"/>
   </g>
   <g id="line2d_1">
    <path clip-path="url(#pf803fbdea4)" d="M 162 423.1248 
L 163.60704 419.16 
L 165.21408 413.9184 
L 166.82112 409.9536 
L 170.0352 400.7136 
L 171.64224 397.5888 
L 173.24928 393.9936 
L 176.46336 383.4768 
L 178.0704 377.3616 
L 179.67744 373.8336 
L 181.28448 368.7264 
L 182.89152 367.3488 
L 184.49856 364.6608 
L 186.1056 361.7376 
L 187.71264 357.2688 
L 189.31968 353.472 
L 190.92672 348.3312 
L 192.53376 344.5344 
L 194.1408 342.048 
L 195.74784 340.9392 
L 197.35488 339.1248 
L 198.96192 336.4368 
L 200.56896 333.3456 
L 202.176 329.952 
L 203.78304 325.5168 
L 206.99712 320.5104 
L 210.2112 316.68 
L 211.81824 314.2944 
L 213.42528 310.9008 
L 215.03232 308.6496 
L 216.63936 307.5408 
L 218.2464 307.1376 
L 219.85344 304.6176 
L 221.46048 303.744 
L 223.06752 302.1648 
L 224.67456 301.056 
L 226.2816 301.728 
L 227.88864 301.0896 
L 231.10272 297.4608 
L 232.70976 293.664 
L 234.3168 290.976 
L 235.92384 289.3968 
L 237.53088 283.6176 
L 239.13792 281.8368 
L 240.74496 280.2576 
L 242.352 277.0992 
L 243.95904 278.0064 
L 245.56608 278.4768 
L 247.17312 276.5952 
L 248.78016 272.3952 
L 250.3872 266.784 
L 251.99424 261.8784 
L 253.60128 260.3328 
L 255.20832 259.224 
L 256.81536 262.1136 
L 258.4224 262.0464 
L 260.02944 261.408 
L 261.63648 260.0304 
L 263.24352 263.1888 
L 266.4576 267.2208 
L 268.06464 267.4896 
L 269.67168 265.1712 
L 271.27872 261.6096 
L 272.88576 259.5936 
L 274.4928 256.2 
L 276.09984 256.032 
L 277.70688 252.2016 
L 279.31392 248.0016 
L 280.92096 244.8432 
L 282.528 245.0448 
L 284.13504 243.7344 
L 285.74208 245.0112 
L 287.34912 246.8592 
L 288.95616 246.4224 
L 290.5632 248.472 
L 292.17024 250.2528 
L 293.77728 248.8416 
L 295.38432 247.0608 
L 296.99136 249.1104 
L 298.5984 247.968 
L 300.20544 246.5904 
L 301.81248 246.12 
L 303.41952 242.9952 
L 305.02656 242.6256 
L 306.6336 236.5776 
L 308.24064 233.2176 
L 311.45472 230.0592 
L 313.06176 227.6064 
L 316.27584 225.8256 
L 317.88288 228.4464 
L 319.48992 233.4528 
L 321.09696 235.4016 
L 322.704 235.9056 
L 324.31104 233.8224 
L 325.91808 230.0592 
L 327.52512 232.0416 
L 329.13216 232.7136 
L 330.7392 232.9824 
L 332.34624 231.168 
L 333.95328 232.9824 
L 335.56032 234.2928 
L 337.16736 236.3424 
L 338.7744 240.1392 
L 340.38144 243.0624 
L 341.98848 241.8864 
L 343.59552 239.3664 
L 345.20256 239.904 
L 346.8096 236.376 
L 348.41664 230.7648 
L 350.02368 225.9936 
L 351.63072 219.744 
L 353.23776 220.1472 
L 354.8448 215.5104 
L 356.45184 213.2928 
L 358.05888 209.8992 
L 359.66592 207.4128 
L 361.27296 208.992 
L 362.88 211.2768 
L 364.48704 210.7728 
L 366.09408 207.8832 
L 367.70112 206.7408 
L 369.30816 199.3488 
L 370.9152 188.7984 
L 372.52224 174.4512 
L 374.12928 163.5648 
L 375.73632 162.1536 
L 377.34336 157.248 
L 378.9504 157.4832 
L 382.16448 165.3456 
L 383.77152 171.8304 
L 385.37856 179.2224 
L 386.9856 183.456 
L 388.59264 185.4384 
L 390.19968 188.832 
L 391.80672 190.176 
L 393.41376 191.7888 
L 395.0208 196.224 
L 396.62784 196.6608 
L 398.23488 193.0992 
L 399.84192 190.4112 
L 401.44896 187.9584 
L 403.056 186.1104 
L 407.87712 188.16 
L 409.48416 188.6304 
L 411.0912 187.4544 
L 412.69824 188.832 
L 415.91232 193.1328 
L 417.51936 194.88 
L 419.1264 200.4576 
L 420.73344 202.5072 
L 422.34048 207.648 
L 423.94752 206.2704 
L 425.55456 208.7568 
L 427.1616 209.3616 
L 428.76864 211.9152 
L 430.37568 213.2592 
L 433.58976 210.6384 
L 435.1968 210.7728 
L 436.80384 208.5216 
L 438.41088 208.32 
L 440.01792 205.4304 
L 441.62496 202.0704 
L 443.232 202.0368 
L 444.83904 202.5072 
L 446.44608 202.5072 
L 448.05312 198.2736 
L 449.66016 194.8464 
L 451.2672 198.4752 
L 452.87424 198.6768 
L 456.08832 203.1792 
L 457.69536 202.3056 
L 459.3024 199.584 
L 460.90944 195.3504 
L 462.51648 190.6464 
L 464.12352 188.3952 
L 465.73056 183.4896 
L 467.3376 183.2208 
L 468.94464 183.2208 
L 470.55168 181.8768 
L 472.15872 187.5216 
L 473.76576 187.9584 
L 475.3728 186.144 
L 476.97984 189.504 
L 478.58688 193.9728 
L 480.19392 193.7376 
L 481.80096 193.0656 
L 483.408 195.1488 
L 485.01504 197.5344 
L 486.62208 202.9104 
L 488.22912 204.7248 
L 489.83616 201.8352 
L 491.4432 200.0544 
L 493.05024 196.0224 
L 494.65728 195.9888 
L 496.26432 193.5696 
L 497.87136 187.2192 
L 499.4784 189.0672 
L 501.08544 187.488 
L 502.69248 191.9232 
L 504.29952 193.704 
L 505.90656 193.7712 
L 507.5136 196.2576 
L 509.12064 196.1904 
L 510.72768 198.8448 
L 512.33472 199.3488 
L 513.94176 202.0704 
L 515.5488 202.7424 
L 517.15584 199.1472 
L 520.36992 200.4912 
L 521.97696 198.912 
L 523.584 199.3824 
L 525.19104 202.3056 
L 526.79808 201.3984 
L 528.40512 201.5664 
L 530.01216 201.3984 
L 531.6192 203.1792 
L 533.22624 201.5664 
L 534.83328 200.4576 
L 536.44032 199.5504 
L 538.04736 196.4256 
L 539.6544 192.36 
L 541.26144 189.9744 
L 542.86848 191.4864 
L 544.47552 190.848 
L 546.08256 191.688 
L 547.6896 190.176 
L 550.90368 191.5536 
L 552.51072 193.7712 
L 554.11776 191.9568 
L 555.7248 193.9728 
L 557.33184 195.3504 
L 558.93888 196.896 
L 560.54592 202.4736 
L 562.15296 203.8176 
L 563.76 208.488 
L 565.36704 206.976 
L 566.97408 204.4896 
L 568.58112 200.4912 
L 570.18816 198.2736 
L 571.7952 196.2912 
L 573.40224 198.6768 
L 575.00928 198.7104 
L 576.61632 198.408 
L 578.22336 199.1472 
L 581.43744 194.208 
L 583.04448 189.7056 
L 584.65152 190.176 
L 586.25856 187.6896 
L 587.8656 190.6464 
L 589.47264 191.3184 
L 591.07968 192.6624 
L 592.68672 192.8976 
L 594.29376 190.176 
L 595.9008 189.504 
L 597.50784 191.688 
L 599.11488 189.504 
L 600.72192 189.504 
L 602.32896 192.3936 
L 603.936 196.6272 
L 605.54304 200.5248 
L 607.15008 201.6336 
L 608.75712 201.432 
L 610.36416 200.0544 
L 611.9712 199.1472 
L 613.57824 196.896 
L 615.18528 199.6176 
L 616.79232 200.2896 
L 618.39936 197.6016 
L 620.0064 195.3168 
L 621.61344 198.6768 
L 623.22048 200.6928 
L 624.82752 207.1776 
L 626.43456 209.4288 
L 628.0416 210.5712 
L 629.64864 213.7296 
L 631.25568 220.4496 
L 632.86272 219.5424 
L 634.46976 219.4752 
L 636.0768 217.9632 
L 637.68384 214.4016 
L 639.29088 214.8384 
L 640.89792 216.7872 
L 642.50496 216.384 
L 644.112 215.5104 
L 645.71904 213.0576 
L 647.32608 209.4288 
L 648.93312 201.1632 
L 650.54016 196.9296 
L 652.1472 191.9904 
L 653.75424 187.6896 
L 655.36128 186.6144 
L 656.96832 186.648 
L 658.57536 191.2848 
L 660.1824 194.88 
L 661.78944 199.584 
L 663.39648 204.9264 
L 665.00352 211.2432 
L 666.61056 210.336 
L 669.82464 204.3216 
L 671.43168 199.1472 
L 673.03872 197.4 
L 674.64576 196.4256 
L 676.2528 198.0048 
L 677.85984 201.1296 
L 679.46688 203.8176 
L 681.07392 201.3984 
L 682.68096 202.0704 
L 684.288 202.944 
L 685.89504 205.1616 
L 687.50208 207.0096 
L 689.10912 207.8832 
L 690.71616 209.832 
L 692.3232 213.2256 
L 693.93024 213.6624 
L 697.14432 211.68 
L 698.75136 204.96 
L 700.3584 205.1952 
L 701.96544 203.5824 
L 703.57248 202.4736 
L 705.17952 201.1968 
L 710.00064 202.2384 
L 711.60768 202.944 
L 713.21472 206.2704 
L 714.82176 203.4144 
L 716.4288 201.6336 
L 718.03584 202.776 
L 719.64288 201.8688 
L 721.24992 204.9936 
L 722.85696 207.2112 
L 724.464 205.5984 
L 726.07104 203.5824 
L 727.67808 200.2224 
L 729.28512 199.5504 
L 730.89216 198.7104 
L 732.4992 198.912 
L 734.10624 198.2736 
L 735.71328 196.1904 
L 737.32032 196.5264 
L 738.92736 193.5024 
L 740.5344 196.6608 
L 742.14144 196.8624 
L 743.74848 196.9296 
L 745.35552 195.3504 
L 746.96256 195.1488 
L 748.5696 195.1152 
L 750.17664 195.8544 
L 751.78368 196.896 
L 753.39072 198.912 
L 754.99776 200.7264 
L 756.6048 205.3968 
L 758.21184 205.3968 
L 759.81888 204.6576 
L 761.42592 205.4304 
L 763.03296 205.632 
L 764.64 206.976 
L 766.24704 207.816 
L 767.85408 212.3856 
L 769.46112 215.4768 
L 771.06816 215.2752 
L 772.6752 216.888 
L 774.28224 211.0416 
L 775.88928 207.3792 
L 777.49632 204.0528 
L 779.10336 199.8192 
L 780.7104 202.2384 
L 782.31744 203.6496 
L 783.92448 205.632 
L 785.53152 207.4128 
L 787.13856 210.7728 
L 788.7456 217.224 
L 791.95968 219.9792 
L 793.56672 219.3408 
L 795.17376 219.7776 
L 796.7808 220.8528 
L 799.99488 222.264 
L 801.60192 218.1648 
L 803.20896 217.7952 
L 804.816 218.4 
L 806.42304 219.3072 
L 808.03008 217.7616 
L 811.24416 221.76 
L 812.8512 220.248 
L 814.45824 219.9792 
L 816.06528 221.2896 
L 817.67232 221.7936 
L 819.27936 219.3408 
L 820.8864 213.8976 
L 822.49344 209.4288 
L 824.10048 211.008 
L 825.70752 214.368 
L 827.31456 211.8816 
L 830.52864 205.3968 
L 832.13568 205.632 
L 833.74272 205.5984 
L 835.34976 207.1776 
L 836.9568 203.8512 
L 838.56384 203.1792 
L 840.17088 201.1296 
L 841.77792 199.9872 
L 844.992 198.6768 
L 846.59904 199.416 
L 848.20608 196.1904 
L 849.81312 195.7536 
L 851.42016 198.9792 
L 853.0272 197.1312 
L 854.63424 198.24 
L 856.24128 199.1136 
L 857.84832 198.6768 
L 859.45536 199.5504 
L 861.0624 197.7696 
L 862.66944 198.3072 
L 864.27648 197.7696 
L 867.49056 194.208 
L 869.0976 196.728 
L 870.70464 196.896 
L 872.31168 194.4432 
L 873.91872 195.3168 
L 875.52576 189.9744 
L 877.1328 189.9408 
L 878.73984 193.536 
L 880.34688 192.8304 
L 881.95392 195.5856 
L 883.56096 197.0976 
L 885.168 198.8784 
L 886.77504 201.8352 
L 888.38208 200.928 
L 889.98912 201.8016 
L 891.59616 202.4736 
L 893.2032 205.5648 
L 894.81024 206.2704 
L 896.41728 205.632 
L 898.02432 204.2544 
L 901.2384 206.5392 
L 902.84544 206.0688 
L 904.45248 202.7424 
L 906.05952 197.736 
L 907.66656 190.848 
L 909.2736 189.1008 
L 910.88064 190.176 
L 912.48768 189.7056 
L 914.09472 189.9072 
L 915.70176 189.504 
L 917.3088 187.2192 
L 918.91584 188.0928 
L 920.52288 188.3616 
L 922.12992 187.5216 
L 923.73696 184.5984 
L 925.344 188.3616 
L 926.95104 182.7504 
L 928.55808 185.472 
L 930.16512 181.2048 
L 931.77216 178.9536 
L 933.3792 182.1456 
L 934.98624 182.784 
L 936.59328 179.928 
L 938.20032 180.7344 
L 939.80736 176.9376 
L 941.4144 177.0048 
L 943.02144 179.6592 
L 944.62848 184.8336 
L 946.23552 188.5968 
L 947.84256 189.2688 
L 949.4496 191.1168 
L 951.05664 195.2496 
L 952.66368 194.0064 
L 954.27072 194.88 
L 955.87776 193.5024 
L 957.4848 190.8144 
L 959.09184 194.208 
L 960.69888 195.9888 
L 962.30592 198.2064 
L 963.91296 199.7856 
L 963.91296 199.7856 
" style="fill:none;stroke:#0000ff;stroke-linecap:square;"/>
   </g>
   <g id="line2d_2">
    <path clip-path="url(#pf803fbdea4)" d="M 162 422.016 
L 163.60704 420.4704 
L 165.21408 417.0432 
L 166.82112 412.0032 
L 168.42816 408.9792 
L 171.64224 397.0848 
L 173.24928 393.6576 
L 174.85632 389.9616 
L 179.67744 374.3712 
L 181.28448 371.3472 
L 182.89152 369.6672 
L 184.49856 365.2992 
L 186.1056 361.9392 
L 187.71264 359.4528 
L 189.31968 359.7216 
L 190.92672 357.7056 
L 192.53376 354.816 
L 194.1408 351.12 
L 195.74784 351.1872 
L 197.35488 348.8352 
L 198.96192 347.2224 
L 200.56896 343.392 
L 202.176 340.704 
L 203.78304 337.2768 
L 206.99712 334.0512 
L 210.2112 324.1728 
L 211.81824 324.9792 
L 213.42528 323.232 
L 215.03232 322.7616 
L 216.63936 323.232 
L 218.2464 324.3744 
L 219.85344 325.0464 
L 221.46048 321.888 
L 223.06752 317.7888 
L 224.67456 314.3616 
L 226.2816 305.3568 
L 229.49568 294.5376 
L 231.10272 292.1184 
L 232.70976 291.5136 
L 234.3168 294.336 
L 235.92384 297.9648 
L 237.53088 299.04 
L 239.13792 299.04 
L 240.74496 301.4592 
L 242.352 299.712 
L 243.95904 295.5456 
L 247.17312 282.24 
L 250.3872 272.16 
L 251.99424 266.9856 
L 253.60128 266.112 
L 255.20832 262.752 
L 256.81536 264.096 
L 258.4224 264.5664 
L 260.02944 265.5072 
L 261.63648 260.9376 
L 264.85056 255.36 
L 266.4576 257.7792 
L 268.06464 256.5024 
L 269.67168 258.048 
L 271.27872 262.752 
L 272.88576 258.048 
L 274.4928 255.1584 
L 279.31392 245.4816 
L 280.92096 243.936 
L 282.528 239.5008 
L 284.13504 238.0896 
L 285.74208 234.528 
L 287.34912 229.152 
L 288.95616 228.4128 
L 290.5632 233.1168 
L 292.17024 234.7296 
L 293.77728 240.576 
L 295.38432 237.216 
L 296.99136 240.3072 
L 298.5984 241.0464 
L 300.20544 242.6592 
L 301.81248 242.1888 
L 303.41952 242.3232 
L 305.02656 244.6752 
L 306.6336 242.8608 
L 308.24064 238.7616 
L 309.84768 232.512 
L 311.45472 225.3216 
L 313.06176 221.2224 
L 314.6688 222.0288 
L 316.27584 224.2464 
L 317.88288 224.2464 
L 319.48992 224.7168 
L 321.09696 228.48 
L 322.704 227.136 
L 324.31104 222.8352 
L 325.91808 216.5856 
L 327.52512 213.696 
L 329.13216 213.4944 
L 330.7392 210.9408 
L 332.34624 208.1184 
L 333.95328 206.304 
L 335.56032 206.304 
L 337.16736 205.1616 
L 338.7744 204.7584 
L 340.38144 201.1968 
L 341.98848 202.7424 
L 343.59552 203.4144 
L 345.20256 204.7584 
L 346.8096 205.632 
L 348.41664 206.7072 
L 350.02368 208.9248 
L 351.63072 208.32 
L 353.23776 205.632 
L 354.8448 198.4416 
L 356.45184 195.1488 
L 359.66592 197.3664 
L 361.27296 196.896 
L 362.88 200.3232 
L 364.48704 201.1296 
L 366.09408 196.896 
L 367.70112 194.88 
L 369.30816 195.4176 
L 370.9152 197.2992 
L 372.52224 202.5408 
L 374.12928 205.3632 
L 375.73632 207.3792 
L 377.34336 206.7744 
L 378.9504 207.9168 
L 380.55744 203.7504 
L 382.16448 201.8016 
L 383.77152 200.5248 
L 385.37856 201.6 
L 386.9856 203.8176 
L 388.59264 206.7744 
L 390.19968 209.2608 
L 391.80672 209.4624 
L 393.41376 211.4112 
L 395.0208 216.1824 
L 396.62784 215.3088 
L 398.23488 215.712 
L 399.84192 211.68 
L 401.44896 210.4032 
L 403.056 205.1616 
L 404.66304 201.3312 
L 406.27008 199.6512 
L 407.87712 202.944 
L 409.48416 207.5808 
L 411.0912 211.7472 
L 412.69824 214.0992 
L 414.30528 215.5104 
L 415.91232 218.6016 
L 417.51936 216.3168 
L 419.1264 215.7792 
L 420.73344 210.0672 
L 422.34048 209.3952 
L 423.94752 207.2448 
L 425.55456 208.7904 
L 427.1616 209.8656 
L 428.76864 212.5536 
L 430.37568 212.352 
L 431.98272 212.7552 
L 433.58976 215.04 
L 435.1968 214.9056 
L 436.80384 213.696 
L 438.41088 215.712 
L 440.01792 216.5856 
L 441.62496 213.696 
L 443.232 207.648 
L 444.83904 202.0704 
L 446.44608 189.4368 
L 449.66016 170.2176 
L 451.2672 168.7392 
L 452.87424 168.4032 
L 454.48128 170.5536 
L 456.08832 171.36 
L 457.69536 176.9376 
L 459.3024 178.752 
L 460.90944 181.44 
L 462.51648 183.1872 
L 464.12352 185.472 
L 465.73056 189.0336 
L 467.3376 189.9744 
L 468.94464 191.7216 
L 470.55168 195.0816 
L 472.15872 195.552 
L 473.76576 195.4176 
L 475.3728 198.7104 
L 476.97984 196.6272 
L 478.58688 199.3152 
L 480.19392 197.568 
L 481.80096 188.832 
L 483.408 181.44 
L 485.01504 168.9408 
L 486.62208 163.6992 
L 488.22912 156.576 
L 489.83616 157.7184 
L 493.05024 152.9472 
L 494.65728 152.544 
L 496.26432 151.6032 
L 497.87136 153.216 
L 499.4784 152.8128 
L 501.08544 153.4176 
L 502.69248 157.5168 
L 504.29952 160.1376 
L 505.90656 160.8096 
L 507.5136 155.232 
L 509.12064 144.8832 
L 512.33472 140.8512 
L 513.94176 139.776 
L 515.5488 141.3888 
L 517.15584 144.0096 
L 518.76288 145.824 
L 520.36992 147.1008 
L 521.97696 149.184 
L 523.584 153.0816 
L 525.19104 157.92 
L 526.79808 158.592 
L 528.40512 161.0784 
L 530.01216 162.4224 
L 531.6192 163.296 
L 533.22624 164.0352 
L 534.83328 164.9088 
L 536.44032 167.1264 
L 538.04736 164.1696 
L 539.6544 164.1696 
L 541.26144 167.1264 
L 542.86848 167.1264 
L 544.47552 167.7984 
L 546.08256 164.9088 
L 547.6896 162.5568 
L 549.29664 161.0112 
L 550.90368 159.8688 
L 552.51072 164.1696 
L 554.11776 167.3952 
L 555.7248 168.9408 
L 558.93888 167.9328 
L 560.54592 172.9056 
L 562.15296 175.4592 
L 563.76 173.9808 
L 565.36704 170.4864 
L 566.97408 170.688 
L 568.58112 170.2176 
L 570.18816 174.1152 
L 571.7952 174.9888 
L 573.40224 171.5616 
L 575.00928 167.3952 
L 576.61632 163.968 
L 578.22336 163.1616 
L 579.8304 161.28 
L 581.43744 154.4928 
L 583.04448 155.5008 
L 584.65152 154.8288 
L 586.25856 157.4496 
L 587.8656 162.4224 
L 589.47264 163.296 
L 591.07968 163.9008 
L 592.68672 158.7264 
L 594.29376 155.5008 
L 595.9008 154.7616 
L 597.50784 154.3584 
L 599.11488 154.3584 
L 600.72192 161.28 
L 602.32896 166.1856 
L 603.936 173.1744 
L 605.54304 173.5776 
L 607.15008 177.1392 
L 608.75712 181.7088 
L 610.36416 182.784 
L 611.9712 183.7248 
L 613.57824 181.9776 
L 615.18528 176.736 
L 616.79232 175.1232 
L 618.39936 176.064 
L 620.0064 179.6256 
L 621.61344 178.2816 
L 623.22048 179.424 
L 624.82752 179.8272 
L 626.43456 180.5664 
L 628.0416 182.9856 
L 629.64864 182.2464 
L 631.25568 187.0176 
L 632.86272 184.8672 
L 634.46976 184.0608 
L 636.0768 181.9104 
L 637.68384 175.1904 
L 639.29088 174.72 
L 640.89792 171.6288 
L 642.50496 171.36 
L 645.71904 174.048 
L 647.32608 173.1744 
L 648.93312 175.4592 
L 650.54016 174.048 
L 652.1472 171.8304 
L 653.75424 172.2336 
L 655.36128 169.5456 
L 656.96832 170.688 
L 658.57536 169.5456 
L 660.1824 170.016 
L 661.78944 168.672 
L 663.39648 168.1344 
L 665.00352 168.9408 
L 666.61056 173.1744 
L 668.2176 174.048 
L 669.82464 177.0048 
L 671.43168 176.9376 
L 673.03872 180.2976 
L 674.64576 178.2816 
L 676.2528 177.408 
L 677.85984 179.8944 
L 679.46688 179.8272 
L 681.07392 177.9456 
L 682.68096 173.8464 
L 684.288 173.3088 
L 685.89504 171.1584 
L 687.50208 168.4032 
L 689.10912 164.9088 
L 690.71616 162.0192 
L 692.3232 164.9088 
L 693.93024 165.1104 
L 695.53728 162.624 
L 698.75136 151.7376 
L 700.3584 150.0576 
L 701.96544 148.9152 
L 703.57248 148.3776 
L 705.17952 144.6816 
L 706.78656 143.4048 
L 710.00064 136.6176 
L 711.60768 136.2144 
L 713.21472 135.4752 
L 714.82176 133.728 
L 716.4288 136.2144 
L 719.64288 152.0736 
L 721.24992 154.4928 
L 722.85696 154.0896 
L 724.464 155.904 
L 726.07104 155.232 
L 727.67808 155.4336 
L 729.28512 158.1888 
L 732.4992 159.5328 
L 734.10624 158.592 
L 735.71328 163.5648 
L 737.32032 160.944 
L 738.92736 160.2048 
L 740.5344 156.1728 
L 742.14144 158.3904 
L 743.74848 159.936 
L 745.35552 160.8768 
L 746.96256 161.952 
L 748.5696 161.0784 
L 750.17664 163.968 
L 751.78368 162.3552 
L 753.39072 158.928 
L 754.99776 159.4656 
L 756.6048 159.0624 
L 758.21184 152.0736 
L 759.81888 150.0576 
L 761.42592 152.4096 
L 763.03296 157.4496 
L 764.64 157.92 
L 766.24704 156.1056 
L 769.46112 150.0576 
L 771.06816 149.7888 
L 772.6752 151.4688 
L 774.28224 154.2912 
L 775.88928 157.5168 
L 777.49632 157.7184 
L 779.10336 158.1888 
L 780.7104 157.7184 
L 782.31744 156.1056 
L 783.92448 156.9792 
L 785.53152 159.7344 
L 787.13856 163.0944 
L 790.35264 158.7264 
L 791.95968 158.1216 
L 793.56672 159.5328 
L 795.17376 163.0272 
L 796.7808 164.1696 
L 798.38784 166.1856 
L 799.99488 168.4032 
L 801.60192 171.8304 
L 803.20896 172.9728 
L 806.42304 170.4864 
L 808.03008 175.392 
L 811.24416 188.3616 
L 812.8512 194.0064 
L 814.45824 196.6272 
L 816.06528 196.2912 
L 817.67232 195.552 
L 819.27936 196.0224 
L 820.8864 194.4096 
L 822.49344 193.2672 
L 824.10048 194.88 
L 825.70752 197.0976 
L 827.31456 200.7264 
L 828.9216 201.6 
L 830.52864 200.928 
L 832.13568 200.0544 
L 833.74272 200.4576 
L 835.34976 203.3472 
L 836.9568 204.5568 
L 838.56384 204.1536 
L 840.17088 206.7072 
L 841.77792 211.008 
L 843.38496 212.1504 
L 844.992 211.4112 
L 846.59904 202.5408 
L 848.20608 198.4416 
L 849.81312 196.0224 
L 851.42016 189.504 
L 853.0272 182.112 
L 854.63424 177.408 
L 856.24128 174.048 
L 857.84832 174.9216 
L 859.45536 176.5344 
L 861.0624 179.424 
L 862.66944 184.8672 
L 864.27648 186.144 
L 865.88352 189.3024 
L 867.49056 193.7376 
L 869.0976 197.8368 
L 870.70464 199.1808 
L 872.31168 199.3152 
L 873.91872 198.24 
L 875.52576 197.7696 
L 877.1328 197.0976 
L 878.73984 197.7696 
L 880.34688 196.0224 
L 881.95392 192.192 
L 883.56096 189.504 
L 886.77504 182.3136 
L 889.98912 178.9536 
L 891.59616 174.5184 
L 894.81024 171.1584 
L 896.41728 169.344 
L 898.02432 170.688 
L 899.63136 171.8304 
L 901.2384 170.016 
L 902.84544 167.328 
L 904.45248 163.2288 
L 906.05952 162.4224 
L 907.66656 163.5648 
L 909.2736 162.8928 
L 910.88064 165.9168 
L 912.48768 166.7232 
L 914.09472 166.3872 
L 915.70176 169.8144 
L 918.91584 179.088 
L 920.52288 178.08 
L 922.12992 180.5664 
L 923.73696 184.8 
L 925.344 183.456 
L 926.95104 180.2976 
L 928.55808 180.2976 
L 930.16512 179.6928 
L 931.77216 181.6416 
L 933.3792 182.7168 
L 934.98624 183.456 
L 936.59328 182.1792 
L 938.20032 182.3136 
L 939.80736 186.3456 
L 941.4144 188.832 
L 943.02144 187.0176 
L 944.62848 187.2864 
L 946.23552 185.0016 
L 947.84256 183.8592 
L 949.4496 179.5584 
L 952.66368 167.5296 
L 954.27072 158.8608 
L 955.87776 153.0816 
L 957.4848 150.7296 
L 959.09184 144.9504 
L 960.69888 143.136 
L 962.30592 141.792 
L 963.91296 144.6816 
L 963.91296 144.6816 
" style="fill:none;stroke:#008000;stroke-linecap:square;"/>
   </g>
   <g id="line2d_3">
    <path clip-path="url(#pf803fbdea4)" d="M 162 421.344 
L 163.60704 418.2528 
L 165.21408 414.2208 
L 166.82112 408.0384 
L 168.42816 403.0656 
L 170.0352 399.9072 
L 171.64224 395.3376 
L 173.24928 391.6416 
L 174.85632 386.8032 
L 179.67744 373.9008 
L 181.28448 369.1296 
L 182.89152 365.4336 
L 184.49856 364.2912 
L 186.1056 365.0976 
L 187.71264 361.4016 
L 190.92672 359.0496 
L 192.53376 356.7648 
L 194.1408 355.824 
L 197.35488 351.2544 
L 198.96192 347.9616 
L 200.56896 345.408 
L 203.78304 336.8064 
L 205.39008 334.656 
L 206.99712 332.976 
L 208.60416 330.1536 
L 210.2112 326.7264 
L 213.42528 317.3856 
L 215.03232 313.3536 
L 216.63936 308.784 
L 219.85344 303.6096 
L 221.46048 303.408 
L 223.06752 300.9216 
L 224.67456 299.2416 
L 226.2816 296.5536 
L 227.88864 292.3872 
L 229.49568 290.7072 
L 231.10272 288.4896 
L 232.70976 288.0864 
L 234.3168 282.576 
L 235.92384 279.888 
L 237.53088 276.7296 
L 240.74496 271.9584 
L 242.352 268.3296 
L 243.95904 262.0128 
L 245.56608 255.1584 
L 247.17312 249.8496 
L 250.3872 241.248 
L 251.99424 241.92 
L 253.60128 240.4416 
L 255.20832 243.1296 
L 256.81536 243.0624 
L 258.4224 241.7856 
L 260.02944 242.6592 
L 261.63648 242.256 
L 263.24352 243.264 
L 264.85056 245.6832 
L 266.4576 245.2128 
L 268.06464 245.4144 
L 269.67168 244.2048 
L 271.27872 243.5328 
L 272.88576 240.7104 
L 274.4928 235.0656 
L 276.09984 232.2432 
L 277.70688 226.464 
L 279.31392 225.9936 
L 280.92096 226.8 
L 282.528 227.2704 
L 284.13504 225.3888 
L 285.74208 224.784 
L 288.95616 222.3648 
L 290.5632 223.9104 
L 292.17024 222.9696 
L 293.77728 224.784 
L 295.38432 225.1872 
L 296.99136 223.9776 
L 298.5984 223.776 
L 300.20544 224.112 
L 303.41952 223.776 
L 305.02656 225.9264 
L 306.6336 227.2032 
L 308.24064 228.816 
L 309.84768 227.5392 
L 311.45472 226.5984 
L 314.6688 218.9376 
L 316.27584 211.68 
L 317.88288 205.4976 
L 319.48992 199.92 
L 321.09696 197.8368 
L 322.704 193.7376 
L 324.31104 192.528 
L 325.91808 192.528 
L 327.52512 192.3936 
L 329.13216 194.6784 
L 330.7392 195.216 
L 332.34624 195.3504 
L 333.95328 194.1408 
L 335.56032 193.536 
L 337.16736 192.0576 
L 338.7744 193.8048 
L 340.38144 191.6544 
L 343.59552 182.3136 
L 345.20256 179.0208 
L 346.8096 174.72 
L 348.41664 173.712 
L 350.02368 172.8384 
L 351.63072 171.4272 
L 353.23776 169.8144 
L 354.8448 170.688 
L 356.45184 172.032 
L 359.66592 171.8304 
L 361.27296 172.9056 
L 362.88 172.5696 
L 364.48704 171.8976 
L 366.09408 171.8976 
L 369.30816 169.344 
L 370.9152 167.8656 
L 372.52224 162.624 
L 374.12928 158.0544 
L 375.73632 158.1888 
L 377.34336 154.896 
L 378.9504 153.3504 
L 380.55744 150.3264 
L 382.16448 150.3264 
L 383.77152 151.1328 
L 385.37856 152.2752 
L 386.9856 155.232 
L 388.59264 157.584 
L 390.19968 156.576 
L 393.41376 161.5488 
L 395.0208 163.4304 
L 396.62784 165.9168 
L 398.23488 167.1936 
L 399.84192 167.328 
L 401.44896 169.6128 
L 403.056 170.2848 
L 404.66304 167.8656 
L 406.27008 167.1936 
L 407.87712 164.2368 
L 411.0912 159.5328 
L 412.69824 161.8848 
L 414.30528 162.4896 
L 415.91232 161.3472 
L 417.51936 163.8336 
L 419.1264 164.1024 
L 420.73344 165.2448 
L 422.34048 165.0432 
L 423.94752 165.648 
L 425.55456 169.6128 
L 427.1616 171.2256 
L 428.76864 175.4592 
L 430.37568 176.4672 
L 431.98272 174.5856 
L 433.58976 173.8464 
L 435.1968 172.032 
L 436.80384 171.7632 
L 438.41088 171.9648 
L 440.01792 170.016 
L 441.62496 166.9248 
L 443.232 164.5056 
L 444.83904 163.4976 
L 446.44608 161.7504 
L 449.66016 165.648 
L 451.2672 165.984 
L 452.87424 167.664 
L 454.48128 169.68 
L 456.08832 169.4112 
L 457.69536 169.5456 
L 459.3024 168.336 
L 460.90944 169.6128 
L 462.51648 169.5456 
L 464.12352 169.008 
L 465.73056 167.5968 
L 467.3376 170.0832 
L 468.94464 173.8464 
L 470.55168 174.3168 
L 472.15872 179.0208 
L 473.76576 177.0048 
L 476.97984 170.5536 
L 478.58688 166.4544 
L 480.19392 163.4304 
L 483.408 155.7696 
L 485.01504 159.936 
L 486.62208 163.0272 
L 488.22912 164.8416 
L 489.83616 165.312 
L 491.4432 167.5968 
L 493.05024 167.2608 
L 494.65728 168.7392 
L 496.26432 165.4464 
L 497.87136 166.5888 
L 499.4784 162.96 
L 501.08544 159.6672 
L 502.69248 157.584 
L 504.29952 160.1376 
L 505.90656 161.6832 
L 507.5136 159.4656 
L 509.12064 158.9952 
L 510.72768 158.1216 
L 512.33472 157.6512 
L 513.94176 154.8288 
L 515.5488 153.216 
L 517.15584 151.2 
L 518.76288 149.9232 
L 520.36992 149.52 
L 521.97696 146.832 
L 523.584 145.2192 
L 525.19104 146.6304 
L 526.79808 145.0848 
L 528.40512 144.8832 
L 530.01216 147.7728 
L 531.6192 146.8992 
L 533.22624 152.6784 
L 534.83328 154.3584 
L 536.44032 159.264 
L 538.04736 165.0432 
L 539.6544 168.336 
L 541.26144 172.5024 
L 542.86848 176.1984 
L 544.47552 179.4912 
L 546.08256 179.1552 
L 547.6896 179.1552 
L 549.29664 179.8272 
L 550.90368 177.8784 
L 552.51072 177.6768 
L 554.11776 177.2064 
L 555.7248 175.2576 
L 557.33184 173.712 
L 558.93888 170.6208 
L 560.54592 170.016 
L 562.15296 167.2608 
L 565.36704 164.2368 
L 566.97408 163.0272 
L 568.58112 159.3312 
L 570.18816 155.232 
L 571.7952 152.6112 
L 573.40224 149.7216 
L 575.00928 148.5792 
L 576.61632 146.6976 
L 578.22336 147.3696 
L 579.8304 149.5872 
L 581.43744 149.184 
L 583.04448 149.9232 
L 584.65152 149.9904 
L 586.25856 152.4768 
L 589.47264 153.9552 
L 591.07968 155.6352 
L 592.68672 154.3584 
L 594.29376 155.1648 
L 595.9008 155.6352 
L 597.50784 159.6 
L 600.72192 162.4224 
L 602.32896 162.96 
L 603.936 162.6912 
L 605.54304 162.288 
L 608.75712 155.8368 
L 610.36416 154.1568 
L 611.9712 154.4256 
L 613.57824 151.3344 
L 615.18528 150.4608 
L 616.79232 146.6976 
L 618.39936 145.6224 
L 620.0064 146.16 
L 621.61344 147.6384 
L 623.22048 149.52 
L 624.82752 152.9472 
L 626.43456 158.256 
L 628.0416 161.4816 
L 629.64864 163.7664 
L 631.25568 164.4384 
L 632.86272 164.5728 
L 634.46976 164.0352 
L 636.0768 162.8256 
L 637.68384 162.8928 
L 639.29088 162.0192 
L 640.89792 162.4224 
L 642.50496 160.1376 
L 644.112 159.4656 
L 645.71904 155.5008 
L 647.32608 159.1968 
L 648.93312 159.8016 
L 650.54016 161.4144 
L 652.1472 162.0864 
L 653.75424 164.5056 
L 655.36128 167.328 
L 656.96832 168.8736 
L 658.57536 165.8496 
L 661.78944 161.0784 
L 663.39648 158.1216 
L 665.00352 159.936 
L 666.61056 158.3232 
L 668.2176 163.4304 
L 669.82464 167.328 
L 671.43168 168.8064 
L 673.03872 170.5536 
L 674.64576 171.4272 
L 676.2528 174.72 
L 677.85984 176.4 
L 679.46688 176.9376 
L 681.07392 176.1984 
L 682.68096 171.8976 
L 684.288 167.2608 
L 685.89504 166.5888 
L 687.50208 168.2688 
L 689.10912 169.0752 
L 690.71616 168.4032 
L 692.3232 170.688 
L 693.93024 167.9328 
L 697.14432 159.936 
L 698.75136 159.3312 
L 700.3584 158.5248 
L 701.96544 159.8016 
L 703.57248 161.7504 
L 705.17952 164.5056 
L 706.78656 166.3872 
L 708.3936 167.3952 
L 710.00064 169.2768 
L 711.60768 171.4944 
L 713.21472 174.048 
L 714.82176 175.1904 
L 716.4288 172.704 
L 718.03584 172.2336 
L 719.64288 169.344 
L 722.85696 166.0512 
L 724.464 164.1024 
L 726.07104 164.64 
L 727.67808 162.96 
L 729.28512 160.2048 
L 730.89216 160.944 
L 732.4992 162.0864 
L 734.10624 159.3984 
L 735.71328 158.4576 
L 737.32032 158.3904 
L 738.92736 161.28 
L 740.5344 163.2288 
L 742.14144 163.296 
L 743.74848 164.64 
L 745.35552 161.8176 
L 746.96256 160.8096 
L 748.5696 157.7856 
L 750.17664 158.7936 
L 751.78368 158.4576 
L 753.39072 158.9952 
L 754.99776 158.7264 
L 756.6048 159.4656 
L 758.21184 158.6592 
L 759.81888 155.7696 
L 763.03296 149.3856 
L 764.64 144.2784 
L 766.24704 142.0608 
L 767.85408 140.5824 
L 769.46112 139.8432 
L 771.06816 140.0448 
L 772.6752 138.0288 
L 774.28224 139.3056 
L 775.88928 138.2976 
L 777.49632 139.7088 
L 779.10336 142.2624 
L 780.7104 141.9264 
L 782.31744 142.464 
L 783.92448 140.6496 
L 785.53152 139.9104 
L 787.13856 141.5904 
L 788.7456 142.7328 
L 790.35264 143.136 
L 791.95968 141.5904 
L 793.56672 140.3808 
L 795.17376 142.2624 
L 796.7808 141.7248 
L 798.38784 137.6256 
L 799.99488 138.432 
L 801.60192 139.9104 
L 803.20896 139.776 
L 804.816 142.464 
L 806.42304 146.832 
L 808.03008 149.184 
L 809.63712 152.2752 
L 811.24416 153.4848 
L 812.8512 153.3504 
L 814.45824 154.224 
L 816.06528 153.8208 
L 817.67232 153.9552 
L 819.27936 151.2672 
L 820.8864 146.9664 
L 822.49344 149.2512 
L 824.10048 151.1328 
L 825.70752 155.5008 
L 827.31456 157.3824 
L 828.9216 160.4064 
L 830.52864 160.608 
L 832.13568 160.6752 
L 833.74272 161.4144 
L 835.34976 163.4976 
L 836.9568 163.632 
L 838.56384 160.1376 
L 840.17088 157.3824 
L 841.77792 155.5008 
L 843.38496 155.8368 
L 844.992 154.2912 
L 846.59904 152.4096 
L 848.20608 146.0256 
L 849.81312 145.488 
L 851.42016 139.2384 
L 853.0272 134.3328 
L 854.63424 127.344 
L 856.24128 121.0944 
L 857.84832 118.5408 
L 859.45536 119.3472 
L 861.0624 119.4816 
L 862.66944 122.5056 
L 864.27648 126 
L 865.88352 128.6208 
L 867.49056 129.024 
L 869.0976 124.7232 
L 870.70464 117.6672 
L 872.31168 109.6032 
L 873.91872 100.464 
L 875.52576 89.7792 
L 877.1328 85.4112 
L 878.73984 82.9248 
L 880.34688 82.1856 
L 881.95392 85.4784 
L 883.56096 85.1424 
L 885.168 86.1504 
L 886.77504 88.2336 
L 888.38208 88.9056 
L 889.98912 89.1072 
L 891.59616 85.8144 
L 893.2032 83.9328 
L 896.41728 79.3632 
L 898.02432 81.2448 
L 899.63136 81.5808 
L 901.2384 82.656 
L 902.84544 84.8064 
L 904.45248 92.064 
L 906.05952 95.2896 
L 907.66656 101.3376 
L 909.2736 103.2192 
L 910.88064 106.4448 
L 912.48768 109.9392 
L 914.09472 112.0896 
L 915.70176 111.6192 
L 917.3088 108.1248 
L 918.91584 107.3856 
L 920.52288 104.5632 
L 922.12992 105.3024 
L 923.73696 101.136 
L 925.344 100.9344 
L 926.95104 102.3456 
L 928.55808 102.0768 
L 930.16512 100.6656 
L 931.77216 101.136 
L 933.3792 103.7568 
L 934.98624 100.3968 
L 936.59328 99.0528 
L 938.20032 97.9776 
L 939.80736 100.5984 
L 941.4144 101.808 
L 943.02144 101.6064 
L 946.23552 104.832 
L 949.4496 105.168 
L 951.05664 104.5632 
L 952.66368 103.152 
L 954.27072 101.0016 
L 955.87776 101.9424 
L 957.4848 104.3616 
L 959.09184 104.496 
L 960.69888 108.4608 
L 962.30592 113.568 
L 963.91296 118.0032 
L 963.91296 118.0032 
" style="fill:none;stroke:#ff0000;stroke-linecap:square;"/>
   </g>
   <g id="patch_3">
    <path d="M 162 50.4 
L 965.52 50.4 
" style="fill:none;stroke:#000000;stroke-linecap:square;stroke-linejoin:miter;"/>
   </g>
   <g id="patch_4">
    <path d="M 965.52 453.6 
L 965.52 50.4 
" style="fill:none;stroke:#000000;stroke-linecap:square;stroke-linejoin:miter;"/>
   </g>
   <g id="patch_5">
    <path d="M 162 453.6 
L 965.52 453.6 
" style="fill:none;stroke:#000000;stroke-linecap:square;stroke-linejoin:miter;"/>
   </g>
   <g id="patch_6">
    <path d="M 162 453.6 
L 162 50.4 
" style="fill:none;stroke:#000000;stroke-linecap:square;stroke-linejoin:miter;"/>
   </g>
   <g id="matplotlib.axis_1">
    <g id="xtick_1">
     <g id="line2d_4">
      <defs>
       <path d="M 0 0 
L 0 -4 
" id="m840da7c22c" style="stroke:#000000;stroke-width:0.5;"/>
      </defs>
      <g>
       <use style="stroke:#000000;stroke-width:0.5;" x="162.0" xlink:href="#m840da7c22c" y="453.6"/>
      </g>
     </g>
     <g id="line2d_5">
      <defs>
       <path d="M 0 0 
L 0 4 
" id="m72d39a8801" style="stroke:#000000;stroke-width:0.5;"/>
      </defs>
      <g>
       <use style="stroke:#000000;stroke-width:0.5;" x="162.0" xlink:href="#m72d39a8801" y="50.4"/>
      </g>
     </g>
     <g id="text_1">
      <!-- 0 -->
      <defs>
       <path d="M 31.78125 66.40625 
Q 24.171875 66.40625 20.328125 58.90625 
Q 16.5 51.421875 16.5 36.375 
Q 16.5 21.390625 20.328125 13.890625 
Q 24.171875 6.390625 31.78125 6.390625 
Q 39.453125 6.390625 43.28125 13.890625 
Q 47.125 21.390625 47.125 36.375 
Q 47.125 51.421875 43.28125 58.90625 
Q 39.453125 66.40625 31.78125 66.40625 
M 31.78125 74.21875 
Q 44.046875 74.21875 50.515625 64.515625 
Q 56.984375 54.828125 56.984375 36.375 
Q 56.984375 17.96875 50.515625 8.265625 
Q 44.046875 -1.421875 31.78125 -1.421875 
Q 19.53125 -1.421875 13.0625 8.265625 
Q 6.59375 17.96875 6.59375 36.375 
Q 6.59375 54.828125 13.0625 64.515625 
Q 19.53125 74.21875 31.78125 74.21875 
" id="BitstreamVeraSans-Roman-30"/>
      </defs>
      <g transform="translate(158.1825 466.718125)scale(0.12 -0.12)">
       <use xlink:href="#BitstreamVeraSans-Roman-30"/>
      </g>
     </g>
    </g>
    <g id="xtick_2">
     <g id="line2d_6">
      <g>
       <use style="stroke:#000000;stroke-width:0.5;" x="322.704" xlink:href="#m840da7c22c" y="453.6"/>
      </g>
     </g>
     <g id="line2d_7">
      <g>
       <use style="stroke:#000000;stroke-width:0.5;" x="322.704" xlink:href="#m72d39a8801" y="50.4"/>
      </g>
     </g>
     <g id="text_2">
      <!-- 100 -->
      <defs>
       <path d="M 12.40625 8.296875 
L 28.515625 8.296875 
L 28.515625 63.921875 
L 10.984375 60.40625 
L 10.984375 69.390625 
L 28.421875 72.90625 
L 38.28125 72.90625 
L 38.28125 8.296875 
L 54.390625 8.296875 
L 54.390625 0 
L 12.40625 0 
z
" id="BitstreamVeraSans-Roman-31"/>
      </defs>
      <g transform="translate(311.2515 466.718125)scale(0.12 -0.12)">
       <use xlink:href="#BitstreamVeraSans-Roman-31"/>
       <use x="63.623046875" xlink:href="#BitstreamVeraSans-Roman-30"/>
       <use x="127.24609375" xlink:href="#BitstreamVeraSans-Roman-30"/>
      </g>
     </g>
    </g>
    <g id="xtick_3">
     <g id="line2d_8">
      <g>
       <use style="stroke:#000000;stroke-width:0.5;" x="483.408" xlink:href="#m840da7c22c" y="453.6"/>
      </g>
     </g>
     <g id="line2d_9">
      <g>
       <use style="stroke:#000000;stroke-width:0.5;" x="483.408" xlink:href="#m72d39a8801" y="50.4"/>
      </g>
     </g>
     <g id="text_3">
      <!-- 200 -->
      <defs>
       <path d="M 19.1875 8.296875 
L 53.609375 8.296875 
L 53.609375 0 
L 7.328125 0 
L 7.328125 8.296875 
Q 12.9375 14.109375 22.625 23.890625 
Q 32.328125 33.6875 34.8125 36.53125 
Q 39.546875 41.84375 41.421875 45.53125 
Q 43.3125 49.21875 43.3125 52.78125 
Q 43.3125 58.59375 39.234375 62.25 
Q 35.15625 65.921875 28.609375 65.921875 
Q 23.96875 65.921875 18.8125 64.3125 
Q 13.671875 62.703125 7.8125 59.421875 
L 7.8125 69.390625 
Q 13.765625 71.78125 18.9375 73 
Q 24.125 74.21875 28.421875 74.21875 
Q 39.75 74.21875 46.484375 68.546875 
Q 53.21875 62.890625 53.21875 53.421875 
Q 53.21875 48.921875 51.53125 44.890625 
Q 49.859375 40.875 45.40625 35.40625 
Q 44.1875 33.984375 37.640625 27.21875 
Q 31.109375 20.453125 19.1875 8.296875 
" id="BitstreamVeraSans-Roman-32"/>
      </defs>
      <g transform="translate(471.9555 466.718125)scale(0.12 -0.12)">
       <use xlink:href="#BitstreamVeraSans-Roman-32"/>
       <use x="63.623046875" xlink:href="#BitstreamVeraSans-Roman-30"/>
       <use x="127.24609375" xlink:href="#BitstreamVeraSans-Roman-30"/>
      </g>
     </g>
    </g>
    <g id="xtick_4">
     <g id="line2d_10">
      <g>
       <use style="stroke:#000000;stroke-width:0.5;" x="644.112" xlink:href="#m840da7c22c" y="453.6"/>
      </g>
     </g>
     <g id="line2d_11">
      <g>
       <use style="stroke:#000000;stroke-width:0.5;" x="644.112" xlink:href="#m72d39a8801" y="50.4"/>
      </g>
     </g>
     <g id="text_4">
      <!-- 300 -->
      <defs>
       <path d="M 40.578125 39.3125 
Q 47.65625 37.796875 51.625 33 
Q 55.609375 28.21875 55.609375 21.1875 
Q 55.609375 10.40625 48.1875 4.484375 
Q 40.765625 -1.421875 27.09375 -1.421875 
Q 22.515625 -1.421875 17.65625 -0.515625 
Q 12.796875 0.390625 7.625 2.203125 
L 7.625 11.71875 
Q 11.71875 9.328125 16.59375 8.109375 
Q 21.484375 6.890625 26.8125 6.890625 
Q 36.078125 6.890625 40.9375 10.546875 
Q 45.796875 14.203125 45.796875 21.1875 
Q 45.796875 27.640625 41.28125 31.265625 
Q 36.765625 34.90625 28.71875 34.90625 
L 20.21875 34.90625 
L 20.21875 43.015625 
L 29.109375 43.015625 
Q 36.375 43.015625 40.234375 45.921875 
Q 44.09375 48.828125 44.09375 54.296875 
Q 44.09375 59.90625 40.109375 62.90625 
Q 36.140625 65.921875 28.71875 65.921875 
Q 24.65625 65.921875 20.015625 65.03125 
Q 15.375 64.15625 9.8125 62.3125 
L 9.8125 71.09375 
Q 15.4375 72.65625 20.34375 73.4375 
Q 25.25 74.21875 29.59375 74.21875 
Q 40.828125 74.21875 47.359375 69.109375 
Q 53.90625 64.015625 53.90625 55.328125 
Q 53.90625 49.265625 50.4375 45.09375 
Q 46.96875 40.921875 40.578125 39.3125 
" id="BitstreamVeraSans-Roman-33"/>
      </defs>
      <g transform="translate(632.6595 466.718125)scale(0.12 -0.12)">
       <use xlink:href="#BitstreamVeraSans-Roman-33"/>
       <use x="63.623046875" xlink:href="#BitstreamVeraSans-Roman-30"/>
       <use x="127.24609375" xlink:href="#BitstreamVeraSans-Roman-30"/>
      </g>
     </g>
    </g>
    <g id="xtick_5">
     <g id="line2d_12">
      <g>
       <use style="stroke:#000000;stroke-width:0.5;" x="804.816" xlink:href="#m840da7c22c" y="453.6"/>
      </g>
     </g>
     <g id="line2d_13">
      <g>
       <use style="stroke:#000000;stroke-width:0.5;" x="804.816" xlink:href="#m72d39a8801" y="50.4"/>
      </g>
     </g>
     <g id="text_5">
      <!-- 400 -->
      <defs>
       <path d="M 37.796875 64.3125 
L 12.890625 25.390625 
L 37.796875 25.390625 
z
M 35.203125 72.90625 
L 47.609375 72.90625 
L 47.609375 25.390625 
L 58.015625 25.390625 
L 58.015625 17.1875 
L 47.609375 17.1875 
L 47.609375 0 
L 37.796875 0 
L 37.796875 17.1875 
L 4.890625 17.1875 
L 4.890625 26.703125 
z
" id="BitstreamVeraSans-Roman-34"/>
      </defs>
      <g transform="translate(793.3635 466.718125)scale(0.12 -0.12)">
       <use xlink:href="#BitstreamVeraSans-Roman-34"/>
       <use x="63.623046875" xlink:href="#BitstreamVeraSans-Roman-30"/>
       <use x="127.24609375" xlink:href="#BitstreamVeraSans-Roman-30"/>
      </g>
     </g>
    </g>
    <g id="xtick_6">
     <g id="line2d_14">
      <g>
       <use style="stroke:#000000;stroke-width:0.5;" x="965.52" xlink:href="#m840da7c22c" y="453.6"/>
      </g>
     </g>
     <g id="line2d_15">
      <g>
       <use style="stroke:#000000;stroke-width:0.5;" x="965.52" xlink:href="#m72d39a8801" y="50.4"/>
      </g>
     </g>
     <g id="text_6">
      <!-- 500 -->
      <defs>
       <path d="M 10.796875 72.90625 
L 49.515625 72.90625 
L 49.515625 64.59375 
L 19.828125 64.59375 
L 19.828125 46.734375 
Q 21.96875 47.46875 24.109375 47.828125 
Q 26.265625 48.1875 28.421875 48.1875 
Q 40.625 48.1875 47.75 41.5 
Q 54.890625 34.8125 54.890625 23.390625 
Q 54.890625 11.625 47.5625 5.09375 
Q 40.234375 -1.421875 26.90625 -1.421875 
Q 22.3125 -1.421875 17.546875 -0.640625 
Q 12.796875 0.140625 7.71875 1.703125 
L 7.71875 11.625 
Q 12.109375 9.234375 16.796875 8.0625 
Q 21.484375 6.890625 26.703125 6.890625 
Q 35.15625 6.890625 40.078125 11.328125 
Q 45.015625 15.765625 45.015625 23.390625 
Q 45.015625 31 40.078125 35.4375 
Q 35.15625 39.890625 26.703125 39.890625 
Q 22.75 39.890625 18.8125 39.015625 
Q 14.890625 38.140625 10.796875 36.28125 
z
" id="BitstreamVeraSans-Roman-35"/>
      </defs>
      <g transform="translate(954.0675 466.718125)scale(0.12 -0.12)">
       <use xlink:href="#BitstreamVeraSans-Roman-35"/>
       <use x="63.623046875" xlink:href="#BitstreamVeraSans-Roman-30"/>
       <use x="127.24609375" xlink:href="#BitstreamVeraSans-Roman-30"/>
      </g>
     </g>
    </g>
    <g id="text_7">
     <!-- Time -->
     <defs>
      <path d="M 56.203125 29.59375 
L 56.203125 25.203125 
L 14.890625 25.203125 
Q 15.484375 15.921875 20.484375 11.0625 
Q 25.484375 6.203125 34.421875 6.203125 
Q 39.59375 6.203125 44.453125 7.46875 
Q 49.3125 8.734375 54.109375 11.28125 
L 54.109375 2.78125 
Q 49.265625 0.734375 44.1875 -0.34375 
Q 39.109375 -1.421875 33.890625 -1.421875 
Q 20.796875 -1.421875 13.15625 6.1875 
Q 5.515625 13.8125 5.515625 26.8125 
Q 5.515625 40.234375 12.765625 48.109375 
Q 20.015625 56 32.328125 56 
Q 43.359375 56 49.78125 48.890625 
Q 56.203125 41.796875 56.203125 29.59375 
M 47.21875 32.234375 
Q 47.125 39.59375 43.09375 43.984375 
Q 39.0625 48.390625 32.421875 48.390625 
Q 24.90625 48.390625 20.390625 44.140625 
Q 15.875 39.890625 15.1875 32.171875 
z
" id="BitstreamVeraSans-Roman-65"/>
      <path d="M 9.421875 54.6875 
L 18.40625 54.6875 
L 18.40625 0 
L 9.421875 0 
z
M 9.421875 75.984375 
L 18.40625 75.984375 
L 18.40625 64.59375 
L 9.421875 64.59375 
z
" id="BitstreamVeraSans-Roman-69"/>
      <path d="M -0.296875 72.90625 
L 61.375 72.90625 
L 61.375 64.59375 
L 35.5 64.59375 
L 35.5 0 
L 25.59375 0 
L 25.59375 64.59375 
L -0.296875 64.59375 
z
" id="BitstreamVeraSans-Roman-54"/>
      <path d="M 52 44.1875 
Q 55.375 50.25 60.0625 53.125 
Q 64.75 56 71.09375 56 
Q 79.640625 56 84.28125 50.015625 
Q 88.921875 44.046875 88.921875 33.015625 
L 88.921875 0 
L 79.890625 0 
L 79.890625 32.71875 
Q 79.890625 40.578125 77.09375 44.375 
Q 74.3125 48.1875 68.609375 48.1875 
Q 61.625 48.1875 57.5625 43.546875 
Q 53.515625 38.921875 53.515625 30.90625 
L 53.515625 0 
L 44.484375 0 
L 44.484375 32.71875 
Q 44.484375 40.625 41.703125 44.40625 
Q 38.921875 48.1875 33.109375 48.1875 
Q 26.21875 48.1875 22.15625 43.53125 
Q 18.109375 38.875 18.109375 30.90625 
L 18.109375 0 
L 9.078125 0 
L 9.078125 54.6875 
L 18.109375 54.6875 
L 18.109375 46.1875 
Q 21.1875 51.21875 25.484375 53.609375 
Q 29.78125 56 35.6875 56 
Q 41.65625 56 45.828125 52.96875 
Q 50 49.953125 52 44.1875 
" id="BitstreamVeraSans-Roman-6d"/>
     </defs>
     <g transform="translate(548.895 483.331875)scale(0.12 -0.12)">
      <use xlink:href="#BitstreamVeraSans-Roman-54"/>
      <use x="61.037109375" xlink:href="#BitstreamVeraSans-Roman-69"/>
      <use x="88.8203125" xlink:href="#BitstreamVeraSans-Roman-6d"/>
      <use x="186.232421875" xlink:href="#BitstreamVeraSans-Roman-65"/>
     </g>
    </g>
   </g>
   <g id="matplotlib.axis_2">
    <g id="ytick_1">
     <g id="line2d_16">
      <defs>
       <path d="M 0 0 
L 4 0 
" id="mc5d171f49b" style="stroke:#000000;stroke-width:0.5;"/>
      </defs>
      <g>
       <use style="stroke:#000000;stroke-width:0.5;" x="162.0" xlink:href="#mc5d171f49b" y="453.6"/>
      </g>
     </g>
     <g id="line2d_17">
      <defs>
       <path d="M 0 0 
L -4 0 
" id="m21f0ad3668" style="stroke:#000000;stroke-width:0.5;"/>
      </defs>
      <g>
       <use style="stroke:#000000;stroke-width:0.5;" x="965.52" xlink:href="#m21f0ad3668" y="453.6"/>
      </g>
     </g>
     <g id="text_8">
      <!-- 0 -->
      <g transform="translate(150.365 456.91125)scale(0.12 -0.12)">
       <use xlink:href="#BitstreamVeraSans-Roman-30"/>
      </g>
     </g>
    </g>
    <g id="ytick_2">
     <g id="line2d_18">
      <g>
       <use style="stroke:#000000;stroke-width:0.5;" x="162.0" xlink:href="#mc5d171f49b" y="386.4"/>
      </g>
     </g>
     <g id="line2d_19">
      <g>
       <use style="stroke:#000000;stroke-width:0.5;" x="965.52" xlink:href="#m21f0ad3668" y="386.4"/>
      </g>
     </g>
     <g id="text_9">
      <!-- 2 -->
      <g transform="translate(150.365 389.71125)scale(0.12 -0.12)">
       <use xlink:href="#BitstreamVeraSans-Roman-32"/>
      </g>
     </g>
    </g>
    <g id="ytick_3">
     <g id="line2d_20">
      <g>
       <use style="stroke:#000000;stroke-width:0.5;" x="162.0" xlink:href="#mc5d171f49b" y="319.2"/>
      </g>
     </g>
     <g id="line2d_21">
      <g>
       <use style="stroke:#000000;stroke-width:0.5;" x="965.52" xlink:href="#m21f0ad3668" y="319.2"/>
      </g>
     </g>
     <g id="text_10">
      <!-- 4 -->
      <g transform="translate(150.365 322.51125)scale(0.12 -0.12)">
       <use xlink:href="#BitstreamVeraSans-Roman-34"/>
      </g>
     </g>
    </g>
    <g id="ytick_4">
     <g id="line2d_22">
      <g>
       <use style="stroke:#000000;stroke-width:0.5;" x="162.0" xlink:href="#mc5d171f49b" y="252.0"/>
      </g>
     </g>
     <g id="line2d_23">
      <g>
       <use style="stroke:#000000;stroke-width:0.5;" x="965.52" xlink:href="#m21f0ad3668" y="252.0"/>
      </g>
     </g>
     <g id="text_11">
      <!-- 6 -->
      <defs>
       <path d="M 33.015625 40.375 
Q 26.375 40.375 22.484375 35.828125 
Q 18.609375 31.296875 18.609375 23.390625 
Q 18.609375 15.53125 22.484375 10.953125 
Q 26.375 6.390625 33.015625 6.390625 
Q 39.65625 6.390625 43.53125 10.953125 
Q 47.40625 15.53125 47.40625 23.390625 
Q 47.40625 31.296875 43.53125 35.828125 
Q 39.65625 40.375 33.015625 40.375 
M 52.59375 71.296875 
L 52.59375 62.3125 
Q 48.875 64.0625 45.09375 64.984375 
Q 41.3125 65.921875 37.59375 65.921875 
Q 27.828125 65.921875 22.671875 59.328125 
Q 17.53125 52.734375 16.796875 39.40625 
Q 19.671875 43.65625 24.015625 45.921875 
Q 28.375 48.1875 33.59375 48.1875 
Q 44.578125 48.1875 50.953125 41.515625 
Q 57.328125 34.859375 57.328125 23.390625 
Q 57.328125 12.15625 50.6875 5.359375 
Q 44.046875 -1.421875 33.015625 -1.421875 
Q 20.359375 -1.421875 13.671875 8.265625 
Q 6.984375 17.96875 6.984375 36.375 
Q 6.984375 53.65625 15.1875 63.9375 
Q 23.390625 74.21875 37.203125 74.21875 
Q 40.921875 74.21875 44.703125 73.484375 
Q 48.484375 72.75 52.59375 71.296875 
" id="BitstreamVeraSans-Roman-36"/>
      </defs>
      <g transform="translate(150.365 255.31125)scale(0.12 -0.12)">
       <use xlink:href="#BitstreamVeraSans-Roman-36"/>
      </g>
     </g>
    </g>
    <g id="ytick_5">
     <g id="line2d_24">
      <g>
       <use style="stroke:#000000;stroke-width:0.5;" x="162.0" xlink:href="#mc5d171f49b" y="184.8"/>
      </g>
     </g>
     <g id="line2d_25">
      <g>
       <use style="stroke:#000000;stroke-width:0.5;" x="965.52" xlink:href="#m21f0ad3668" y="184.8"/>
      </g>
     </g>
     <g id="text_12">
      <!-- 8 -->
      <defs>
       <path d="M 31.78125 34.625 
Q 24.75 34.625 20.71875 30.859375 
Q 16.703125 27.09375 16.703125 20.515625 
Q 16.703125 13.921875 20.71875 10.15625 
Q 24.75 6.390625 31.78125 6.390625 
Q 38.8125 6.390625 42.859375 10.171875 
Q 46.921875 13.96875 46.921875 20.515625 
Q 46.921875 27.09375 42.890625 30.859375 
Q 38.875 34.625 31.78125 34.625 
M 21.921875 38.8125 
Q 15.578125 40.375 12.03125 44.71875 
Q 8.5 49.078125 8.5 55.328125 
Q 8.5 64.0625 14.71875 69.140625 
Q 20.953125 74.21875 31.78125 74.21875 
Q 42.671875 74.21875 48.875 69.140625 
Q 55.078125 64.0625 55.078125 55.328125 
Q 55.078125 49.078125 51.53125 44.71875 
Q 48 40.375 41.703125 38.8125 
Q 48.828125 37.15625 52.796875 32.3125 
Q 56.78125 27.484375 56.78125 20.515625 
Q 56.78125 9.90625 50.3125 4.234375 
Q 43.84375 -1.421875 31.78125 -1.421875 
Q 19.734375 -1.421875 13.25 4.234375 
Q 6.78125 9.90625 6.78125 20.515625 
Q 6.78125 27.484375 10.78125 32.3125 
Q 14.796875 37.15625 21.921875 38.8125 
M 18.3125 54.390625 
Q 18.3125 48.734375 21.84375 45.5625 
Q 25.390625 42.390625 31.78125 42.390625 
Q 38.140625 42.390625 41.71875 45.5625 
Q 45.3125 48.734375 45.3125 54.390625 
Q 45.3125 60.0625 41.71875 63.234375 
Q 38.140625 66.40625 31.78125 66.40625 
Q 25.390625 66.40625 21.84375 63.234375 
Q 18.3125 60.0625 18.3125 54.390625 
" id="BitstreamVeraSans-Roman-38"/>
      </defs>
      <g transform="translate(150.365 188.11125)scale(0.12 -0.12)">
       <use xlink:href="#BitstreamVeraSans-Roman-38"/>
      </g>
     </g>
    </g>
    <g id="ytick_6">
     <g id="line2d_26">
      <g>
       <use style="stroke:#000000;stroke-width:0.5;" x="162.0" xlink:href="#mc5d171f49b" y="117.6"/>
      </g>
     </g>
     <g id="line2d_27">
      <g>
       <use style="stroke:#000000;stroke-width:0.5;" x="965.52" xlink:href="#m21f0ad3668" y="117.6"/>
      </g>
     </g>
     <g id="text_13">
      <!-- 10 -->
      <g transform="translate(142.73 120.91125)scale(0.12 -0.12)">
       <use xlink:href="#BitstreamVeraSans-Roman-31"/>
       <use x="63.623046875" xlink:href="#BitstreamVeraSans-Roman-30"/>
      </g>
     </g>
    </g>
    <g id="ytick_7">
     <g id="line2d_28">
      <g>
       <use style="stroke:#000000;stroke-width:0.5;" x="162.0" xlink:href="#mc5d171f49b" y="50.4"/>
      </g>
     </g>
     <g id="line2d_29">
      <g>
       <use style="stroke:#000000;stroke-width:0.5;" x="965.52" xlink:href="#m21f0ad3668" y="50.4"/>
      </g>
     </g>
     <g id="text_14">
      <!-- 12 -->
      <g transform="translate(142.73 53.71125)scale(0.12 -0.12)">
       <use xlink:href="#BitstreamVeraSans-Roman-31"/>
       <use x="63.623046875" xlink:href="#BitstreamVeraSans-Roman-32"/>
      </g>
     </g>
    </g>
    <g id="text_15">
     <!-- #neighbors -->
     <defs>
      <path d="M 51.125 44 
L 36.921875 44 
L 32.8125 27.6875 
L 47.125 27.6875 
z
M 43.796875 71.78125 
L 38.71875 51.515625 
L 52.984375 51.515625 
L 58.109375 71.78125 
L 65.921875 71.78125 
L 60.890625 51.515625 
L 76.125 51.515625 
L 76.125 44 
L 58.984375 44 
L 54.984375 27.6875 
L 70.515625 27.6875 
L 70.515625 20.21875 
L 53.078125 20.21875 
L 48 0 
L 40.1875 0 
L 45.21875 20.21875 
L 30.90625 20.21875 
L 25.875 0 
L 18.015625 0 
L 23.09375 20.21875 
L 7.71875 20.21875 
L 7.71875 27.6875 
L 24.90625 27.6875 
L 29 44 
L 13.28125 44 
L 13.28125 51.515625 
L 30.90625 51.515625 
L 35.890625 71.78125 
z
" id="BitstreamVeraSans-Roman-23"/>
      <path d="M 54.890625 33.015625 
L 54.890625 0 
L 45.90625 0 
L 45.90625 32.71875 
Q 45.90625 40.484375 42.875 44.328125 
Q 39.84375 48.1875 33.796875 48.1875 
Q 26.515625 48.1875 22.3125 43.546875 
Q 18.109375 38.921875 18.109375 30.90625 
L 18.109375 0 
L 9.078125 0 
L 9.078125 54.6875 
L 18.109375 54.6875 
L 18.109375 46.1875 
Q 21.34375 51.125 25.703125 53.5625 
Q 30.078125 56 35.796875 56 
Q 45.21875 56 50.046875 50.171875 
Q 54.890625 44.34375 54.890625 33.015625 
" id="BitstreamVeraSans-Roman-6e"/>
      <path d="M 30.609375 48.390625 
Q 23.390625 48.390625 19.1875 42.75 
Q 14.984375 37.109375 14.984375 27.296875 
Q 14.984375 17.484375 19.15625 11.84375 
Q 23.34375 6.203125 30.609375 6.203125 
Q 37.796875 6.203125 41.984375 11.859375 
Q 46.1875 17.53125 46.1875 27.296875 
Q 46.1875 37.015625 41.984375 42.703125 
Q 37.796875 48.390625 30.609375 48.390625 
M 30.609375 56 
Q 42.328125 56 49.015625 48.375 
Q 55.71875 40.765625 55.71875 27.296875 
Q 55.71875 13.875 49.015625 6.21875 
Q 42.328125 -1.421875 30.609375 -1.421875 
Q 18.84375 -1.421875 12.171875 6.21875 
Q 5.515625 13.875 5.515625 27.296875 
Q 5.515625 40.765625 12.171875 48.375 
Q 18.84375 56 30.609375 56 
" id="BitstreamVeraSans-Roman-6f"/>
      <path d="M 54.890625 33.015625 
L 54.890625 0 
L 45.90625 0 
L 45.90625 32.71875 
Q 45.90625 40.484375 42.875 44.328125 
Q 39.84375 48.1875 33.796875 48.1875 
Q 26.515625 48.1875 22.3125 43.546875 
Q 18.109375 38.921875 18.109375 30.90625 
L 18.109375 0 
L 9.078125 0 
L 9.078125 75.984375 
L 18.109375 75.984375 
L 18.109375 46.1875 
Q 21.34375 51.125 25.703125 53.5625 
Q 30.078125 56 35.796875 56 
Q 45.21875 56 50.046875 50.171875 
Q 54.890625 44.34375 54.890625 33.015625 
" id="BitstreamVeraSans-Roman-68"/>
      <path d="M 45.40625 27.984375 
Q 45.40625 37.75 41.375 43.109375 
Q 37.359375 48.484375 30.078125 48.484375 
Q 22.859375 48.484375 18.828125 43.109375 
Q 14.796875 37.75 14.796875 27.984375 
Q 14.796875 18.265625 18.828125 12.890625 
Q 22.859375 7.515625 30.078125 7.515625 
Q 37.359375 7.515625 41.375 12.890625 
Q 45.40625 18.265625 45.40625 27.984375 
M 54.390625 6.78125 
Q 54.390625 -7.171875 48.1875 -13.984375 
Q 42 -20.796875 29.203125 -20.796875 
Q 24.46875 -20.796875 20.265625 -20.09375 
Q 16.0625 -19.390625 12.109375 -17.921875 
L 12.109375 -9.1875 
Q 16.0625 -11.328125 19.921875 -12.34375 
Q 23.78125 -13.375 27.78125 -13.375 
Q 36.625 -13.375 41.015625 -8.765625 
Q 45.40625 -4.15625 45.40625 5.171875 
L 45.40625 9.625 
Q 42.625 4.78125 38.28125 2.390625 
Q 33.9375 0 27.875 0 
Q 17.828125 0 11.671875 7.65625 
Q 5.515625 15.328125 5.515625 27.984375 
Q 5.515625 40.671875 11.671875 48.328125 
Q 17.828125 56 27.875 56 
Q 33.9375 56 38.28125 53.609375 
Q 42.625 51.21875 45.40625 46.390625 
L 45.40625 54.6875 
L 54.390625 54.6875 
z
" id="BitstreamVeraSans-Roman-67"/>
      <path d="M 41.109375 46.296875 
Q 39.59375 47.171875 37.8125 47.578125 
Q 36.03125 48 33.890625 48 
Q 26.265625 48 22.1875 43.046875 
Q 18.109375 38.09375 18.109375 28.8125 
L 18.109375 0 
L 9.078125 0 
L 9.078125 54.6875 
L 18.109375 54.6875 
L 18.109375 46.1875 
Q 20.953125 51.171875 25.484375 53.578125 
Q 30.03125 56 36.53125 56 
Q 37.453125 56 38.578125 55.875 
Q 39.703125 55.765625 41.0625 55.515625 
z
" id="BitstreamVeraSans-Roman-72"/>
      <path d="M 44.28125 53.078125 
L 44.28125 44.578125 
Q 40.484375 46.53125 36.375 47.5 
Q 32.28125 48.484375 27.875 48.484375 
Q 21.1875 48.484375 17.84375 46.4375 
Q 14.5 44.390625 14.5 40.28125 
Q 14.5 37.15625 16.890625 35.375 
Q 19.28125 33.59375 26.515625 31.984375 
L 29.59375 31.296875 
Q 39.15625 29.25 43.1875 25.515625 
Q 47.21875 21.78125 47.21875 15.09375 
Q 47.21875 7.46875 41.1875 3.015625 
Q 35.15625 -1.421875 24.609375 -1.421875 
Q 20.21875 -1.421875 15.453125 -0.5625 
Q 10.6875 0.296875 5.421875 2 
L 5.421875 11.28125 
Q 10.40625 8.6875 15.234375 7.390625 
Q 20.0625 6.109375 24.8125 6.109375 
Q 31.15625 6.109375 34.5625 8.28125 
Q 37.984375 10.453125 37.984375 14.40625 
Q 37.984375 18.0625 35.515625 20.015625 
Q 33.0625 21.96875 24.703125 23.78125 
L 21.578125 24.515625 
Q 13.234375 26.265625 9.515625 29.90625 
Q 5.8125 33.546875 5.8125 39.890625 
Q 5.8125 47.609375 11.28125 51.796875 
Q 16.75 56 26.8125 56 
Q 31.78125 56 36.171875 55.265625 
Q 40.578125 54.546875 44.28125 53.078125 
" id="BitstreamVeraSans-Roman-73"/>
      <path d="M 48.6875 27.296875 
Q 48.6875 37.203125 44.609375 42.84375 
Q 40.53125 48.484375 33.40625 48.484375 
Q 26.265625 48.484375 22.1875 42.84375 
Q 18.109375 37.203125 18.109375 27.296875 
Q 18.109375 17.390625 22.1875 11.75 
Q 26.265625 6.109375 33.40625 6.109375 
Q 40.53125 6.109375 44.609375 11.75 
Q 48.6875 17.390625 48.6875 27.296875 
M 18.109375 46.390625 
Q 20.953125 51.265625 25.265625 53.625 
Q 29.59375 56 35.59375 56 
Q 45.5625 56 51.78125 48.09375 
Q 58.015625 40.1875 58.015625 27.296875 
Q 58.015625 14.40625 51.78125 6.484375 
Q 45.5625 -1.421875 35.59375 -1.421875 
Q 29.59375 -1.421875 25.265625 0.953125 
Q 20.953125 3.328125 18.109375 8.203125 
L 18.109375 0 
L 9.078125 0 
L 9.078125 75.984375 
L 18.109375 75.984375 
z
" id="BitstreamVeraSans-Roman-62"/>
     </defs>
     <g transform="translate(135.234375 286.873125)rotate(-90.0)scale(0.12 -0.12)">
      <use xlink:href="#BitstreamVeraSans-Roman-23"/>
      <use x="83.7890625" xlink:href="#BitstreamVeraSans-Roman-6e"/>
      <use x="147.16796875" xlink:href="#BitstreamVeraSans-Roman-65"/>
      <use x="208.69140625" xlink:href="#BitstreamVeraSans-Roman-69"/>
      <use x="236.474609375" xlink:href="#BitstreamVeraSans-Roman-67"/>
      <use x="299.951171875" xlink:href="#BitstreamVeraSans-Roman-68"/>
      <use x="363.330078125" xlink:href="#BitstreamVeraSans-Roman-62"/>
      <use x="426.806640625" xlink:href="#BitstreamVeraSans-Roman-6f"/>
      <use x="487.98828125" xlink:href="#BitstreamVeraSans-Roman-72"/>
      <use x="529.1015625" xlink:href="#BitstreamVeraSans-Roman-73"/>
     </g>
    </g>
   </g>
   <g id="text_16">
    <!-- Scaling up: #neighbors -->
    <defs>
     <path id="BitstreamVeraSans-Roman-20"/>
     <path d="M 9.421875 75.984375 
L 18.40625 75.984375 
L 18.40625 0 
L 9.421875 0 
z
" id="BitstreamVeraSans-Roman-6c"/>
     <path d="M 11.71875 12.40625 
L 22.015625 12.40625 
L 22.015625 0 
L 11.71875 0 
z
M 11.71875 51.703125 
L 22.015625 51.703125 
L 22.015625 39.3125 
L 11.71875 39.3125 
z
" id="BitstreamVeraSans-Roman-3a"/>
     <path d="M 53.515625 70.515625 
L 53.515625 60.890625 
Q 47.90625 63.578125 42.921875 64.890625 
Q 37.9375 66.21875 33.296875 66.21875 
Q 25.25 66.21875 20.875 63.09375 
Q 16.5 59.96875 16.5 54.203125 
Q 16.5 49.359375 19.40625 46.890625 
Q 22.3125 44.4375 30.421875 42.921875 
L 36.375 41.703125 
Q 47.40625 39.59375 52.65625 34.296875 
Q 57.90625 29 57.90625 20.125 
Q 57.90625 9.515625 50.796875 4.046875 
Q 43.703125 -1.421875 29.984375 -1.421875 
Q 24.8125 -1.421875 18.96875 -0.25 
Q 13.140625 0.921875 6.890625 3.21875 
L 6.890625 13.375 
Q 12.890625 10.015625 18.65625 8.296875 
Q 24.421875 6.59375 29.984375 6.59375 
Q 38.421875 6.59375 43.015625 9.90625 
Q 47.609375 13.234375 47.609375 19.390625 
Q 47.609375 24.75 44.3125 27.78125 
Q 41.015625 30.8125 33.5 32.328125 
L 27.484375 33.5 
Q 16.453125 35.6875 11.515625 40.375 
Q 6.59375 45.0625 6.59375 53.421875 
Q 6.59375 63.09375 13.40625 68.65625 
Q 20.21875 74.21875 32.171875 74.21875 
Q 37.3125 74.21875 42.625 73.28125 
Q 47.953125 72.359375 53.515625 70.515625 
" id="BitstreamVeraSans-Roman-53"/>
     <path d="M 18.109375 8.203125 
L 18.109375 -20.796875 
L 9.078125 -20.796875 
L 9.078125 54.6875 
L 18.109375 54.6875 
L 18.109375 46.390625 
Q 20.953125 51.265625 25.265625 53.625 
Q 29.59375 56 35.59375 56 
Q 45.5625 56 51.78125 48.09375 
Q 58.015625 40.1875 58.015625 27.296875 
Q 58.015625 14.40625 51.78125 6.484375 
Q 45.5625 -1.421875 35.59375 -1.421875 
Q 29.59375 -1.421875 25.265625 0.953125 
Q 20.953125 3.328125 18.109375 8.203125 
M 48.6875 27.296875 
Q 48.6875 37.203125 44.609375 42.84375 
Q 40.53125 48.484375 33.40625 48.484375 
Q 26.265625 48.484375 22.1875 42.84375 
Q 18.109375 37.203125 18.109375 27.296875 
Q 18.109375 17.390625 22.1875 11.75 
Q 26.265625 6.109375 33.40625 6.109375 
Q 40.53125 6.109375 44.609375 11.75 
Q 48.6875 17.390625 48.6875 27.296875 
" id="BitstreamVeraSans-Roman-70"/>
     <path d="M 8.5 21.578125 
L 8.5 54.6875 
L 17.484375 54.6875 
L 17.484375 21.921875 
Q 17.484375 14.15625 20.5 10.265625 
Q 23.53125 6.390625 29.59375 6.390625 
Q 36.859375 6.390625 41.078125 11.03125 
Q 45.3125 15.671875 45.3125 23.6875 
L 45.3125 54.6875 
L 54.296875 54.6875 
L 54.296875 0 
L 45.3125 0 
L 45.3125 8.40625 
Q 42.046875 3.421875 37.71875 1 
Q 33.40625 -1.421875 27.6875 -1.421875 
Q 18.265625 -1.421875 13.375 4.4375 
Q 8.5 10.296875 8.5 21.578125 
" id="BitstreamVeraSans-Roman-75"/>
     <path d="M 34.28125 27.484375 
Q 23.390625 27.484375 19.1875 25 
Q 14.984375 22.515625 14.984375 16.5 
Q 14.984375 11.71875 18.140625 8.90625 
Q 21.296875 6.109375 26.703125 6.109375 
Q 34.1875 6.109375 38.703125 11.40625 
Q 43.21875 16.703125 43.21875 25.484375 
L 43.21875 27.484375 
z
M 52.203125 31.203125 
L 52.203125 0 
L 43.21875 0 
L 43.21875 8.296875 
Q 40.140625 3.328125 35.546875 0.953125 
Q 30.953125 -1.421875 24.3125 -1.421875 
Q 15.921875 -1.421875 10.953125 3.296875 
Q 6 8.015625 6 15.921875 
Q 6 25.140625 12.171875 29.828125 
Q 18.359375 34.515625 30.609375 34.515625 
L 43.21875 34.515625 
L 43.21875 35.40625 
Q 43.21875 41.609375 39.140625 45 
Q 35.0625 48.390625 27.6875 48.390625 
Q 23 48.390625 18.546875 47.265625 
Q 14.109375 46.140625 10.015625 43.890625 
L 10.015625 52.203125 
Q 14.9375 54.109375 19.578125 55.046875 
Q 24.21875 56 28.609375 56 
Q 40.484375 56 46.34375 49.84375 
Q 52.203125 43.703125 52.203125 31.203125 
" id="BitstreamVeraSans-Roman-61"/>
     <path d="M 48.78125 52.59375 
L 48.78125 44.1875 
Q 44.96875 46.296875 41.140625 47.34375 
Q 37.3125 48.390625 33.40625 48.390625 
Q 24.65625 48.390625 19.8125 42.84375 
Q 14.984375 37.3125 14.984375 27.296875 
Q 14.984375 17.28125 19.8125 11.734375 
Q 24.65625 6.203125 33.40625 6.203125 
Q 37.3125 6.203125 41.140625 7.25 
Q 44.96875 8.296875 48.78125 10.40625 
L 48.78125 2.09375 
Q 45.015625 0.34375 40.984375 -0.53125 
Q 36.96875 -1.421875 32.421875 -1.421875 
Q 20.0625 -1.421875 12.78125 6.34375 
Q 5.515625 14.109375 5.515625 27.296875 
Q 5.515625 40.671875 12.859375 48.328125 
Q 20.21875 56 33.015625 56 
Q 37.15625 56 41.109375 55.140625 
Q 45.0625 54.296875 48.78125 52.59375 
" id="BitstreamVeraSans-Roman-63"/>
    </defs>
    <g transform="translate(479.7 45.4)scale(0.144 -0.144)">
     <use xlink:href="#BitstreamVeraSans-Roman-53"/>
     <use x="63.4765625" xlink:href="#BitstreamVeraSans-Roman-63"/>
     <use x="118.45703125" xlink:href="#BitstreamVeraSans-Roman-61"/>
     <use x="179.736328125" xlink:href="#BitstreamVeraSans-Roman-6c"/>
     <use x="207.51953125" xlink:href="#BitstreamVeraSans-Roman-69"/>
     <use x="235.302734375" xlink:href="#BitstreamVeraSans-Roman-6e"/>
     <use x="298.681640625" xlink:href="#BitstreamVeraSans-Roman-67"/>
     <use x="362.158203125" xlink:href="#BitstreamVeraSans-Roman-20"/>
     <use x="393.9453125" xlink:href="#BitstreamVeraSans-Roman-75"/>
     <use x="457.32421875" xlink:href="#BitstreamVeraSans-Roman-70"/>
     <use x="520.80078125" xlink:href="#BitstreamVeraSans-Roman-3a"/>
     <use x="554.4921875" xlink:href="#BitstreamVeraSans-Roman-20"/>
     <use x="586.279296875" xlink:href="#BitstreamVeraSans-Roman-23"/>
     <use x="670.068359375" xlink:href="#BitstreamVeraSans-Roman-6e"/>
     <use x="733.447265625" xlink:href="#BitstreamVeraSans-Roman-65"/>
     <use x="794.970703125" xlink:href="#BitstreamVeraSans-Roman-69"/>
     <use x="822.75390625" xlink:href="#BitstreamVeraSans-Roman-67"/>
     <use x="886.23046875" xlink:href="#BitstreamVeraSans-Roman-68"/>
     <use x="949.609375" xlink:href="#BitstreamVeraSans-Roman-62"/>
     <use x="1013.0859375" xlink:href="#BitstreamVeraSans-Roman-6f"/>
     <use x="1074.26757812" xlink:href="#BitstreamVeraSans-Roman-72"/>
     <use x="1115.38085938" xlink:href="#BitstreamVeraSans-Roman-73"/>
    </g>
   </g>
   <g id="legend_1">
    <g id="patch_7">
     <path d="M 972.72 117.2655 
L 1074.096 117.2655 
L 1074.096 49.536 
L 972.72 49.536 
z
" style="fill:#ffffff;stroke:#000000;stroke-linejoin:miter;"/>
    </g>
    <g id="line2d_30">
     <path d="M 982.8 61.19775 
L 1002.96 61.19775 
" style="fill:none;stroke:#0000ff;stroke-linecap:square;"/>
    </g>
    <g id="line2d_31"/>
    <g id="text_17">
     <!-- $N=30$ -->
     <defs>
      <path d="M 9.515625 7.71875 
Q 11.859375 4.296875 15.8125 2.640625 
Q 19.78125 0.984375 24.3125 0.984375 
Q 30.125 0.984375 32.5625 5.9375 
Q 35.015625 10.890625 35.015625 17.1875 
Q 35.015625 20.015625 34.5 22.84375 
Q 33.984375 25.6875 32.765625 28.125 
Q 31.546875 30.5625 29.421875 32.03125 
Q 27.296875 33.5 24.21875 33.5 
L 17.578125 33.5 
Q 16.703125 33.5 16.703125 34.421875 
L 16.703125 35.296875 
Q 16.703125 36.078125 17.578125 36.078125 
L 23.09375 36.53125 
Q 26.609375 36.53125 28.921875 39.15625 
Q 31.25 41.796875 32.328125 45.578125 
Q 33.40625 49.359375 33.40625 52.78125 
Q 33.40625 57.5625 31.15625 60.640625 
Q 28.90625 63.71875 24.3125 63.71875 
Q 20.515625 63.71875 17.046875 62.28125 
Q 13.578125 60.84375 11.53125 57.90625 
Q 11.71875 57.953125 11.859375 57.984375 
Q 12.015625 58.015625 12.203125 58.015625 
Q 14.453125 58.015625 15.96875 56.453125 
Q 17.484375 54.890625 17.484375 52.6875 
Q 17.484375 50.53125 15.96875 48.96875 
Q 14.453125 47.40625 12.203125 47.40625 
Q 10.015625 47.40625 8.453125 48.96875 
Q 6.890625 50.53125 6.890625 52.6875 
Q 6.890625 56.984375 9.46875 60.15625 
Q 12.0625 63.328125 16.140625 64.96875 
Q 20.21875 66.609375 24.3125 66.609375 
Q 27.34375 66.609375 30.703125 65.703125 
Q 34.078125 64.796875 36.8125 63.109375 
Q 39.546875 61.421875 41.28125 58.78125 
Q 43.015625 56.15625 43.015625 52.78125 
Q 43.015625 48.578125 41.140625 45.015625 
Q 39.265625 41.453125 35.984375 38.859375 
Q 32.71875 36.28125 28.8125 35.015625 
Q 33.15625 34.1875 37.0625 31.734375 
Q 40.96875 29.296875 43.328125 25.484375 
Q 45.703125 21.6875 45.703125 17.28125 
Q 45.703125 11.765625 42.671875 7.296875 
Q 39.65625 2.828125 34.71875 0.3125 
Q 29.78125 -2.203125 24.3125 -2.203125 
Q 19.625 -2.203125 14.90625 -0.40625 
Q 10.203125 1.375 7.203125 4.9375 
Q 4.203125 8.5 4.203125 13.484375 
Q 4.203125 15.96875 5.859375 17.625 
Q 7.515625 19.28125 10.015625 19.28125 
Q 11.625 19.28125 12.96875 18.53125 
Q 14.3125 17.78125 15.0625 16.40625 
Q 15.828125 15.046875 15.828125 13.484375 
Q 15.828125 11.03125 14.109375 9.375 
Q 12.40625 7.71875 10.015625 7.71875 
z
" id="Cmr10-33"/>
      <path d="M 4.6875 0 
Q 3.71875 0 3.71875 1.3125 
Q 3.765625 1.5625 3.90625 2.171875 
Q 4.046875 2.78125 4.3125 3.140625 
Q 4.59375 3.515625 4.984375 3.515625 
Q 14.546875 3.515625 16.109375 9.625 
L 29.6875 64.3125 
Q 26.90625 64.796875 20.90625 64.796875 
Q 19.921875 64.796875 19.921875 66.109375 
Q 19.96875 66.359375 20.109375 66.96875 
Q 20.265625 67.578125 20.53125 67.9375 
Q 20.796875 68.3125 21.1875 68.3125 
L 38.484375 68.3125 
Q 39.203125 68.3125 39.40625 67.671875 
L 61.625 14.796875 
L 72.703125 59.078125 
Q 72.90625 60.15625 72.90625 60.59375 
Q 72.90625 64.796875 65.1875 64.796875 
Q 64.203125 64.796875 64.203125 66.109375 
Q 64.546875 67.390625 64.734375 67.84375 
Q 64.9375 68.3125 65.921875 68.3125 
L 87.3125 68.3125 
Q 88.28125 68.3125 88.28125 67 
Q 88.234375 66.75 88.078125 66.140625 
Q 87.9375 65.53125 87.671875 65.15625 
Q 87.40625 64.796875 87.015625 64.796875 
Q 77.4375 64.796875 75.875 58.6875 
L 61.53125 0.875 
Q 61.1875 0 60.5 0 
L 59.28125 0 
Q 58.59375 0 58.40625 0.6875 
L 32.90625 61.1875 
L 32.71875 61.8125 
Q 32.515625 62.015625 32.515625 62.109375 
L 19.28125 9.1875 
Q 19.1875 8.9375 19.140625 8.5625 
Q 19.09375 8.203125 19 7.71875 
Q 19 5.125 21.234375 4.3125 
Q 23.484375 3.515625 26.8125 3.515625 
Q 27.78125 3.515625 27.78125 2.203125 
Q 27.4375 0.828125 27.1875 0.40625 
Q 26.953125 0 26.125 0 
z
" id="Cmmi10-4e"/>
      <path d="M 25 -2.203125 
Q 12.75 -2.203125 8.328125 7.875 
Q 3.90625 17.96875 3.90625 31.890625 
Q 3.90625 40.578125 5.484375 48.234375 
Q 7.078125 55.90625 11.78125 61.25 
Q 16.5 66.609375 25 66.609375 
Q 31.59375 66.609375 35.78125 63.375 
Q 39.984375 60.15625 42.1875 55.046875 
Q 44.390625 49.953125 45.1875 44.109375 
Q 46 38.28125 46 31.890625 
Q 46 23.296875 44.40625 15.796875 
Q 42.828125 8.296875 38.1875 3.046875 
Q 33.546875 -2.203125 25 -2.203125 
M 25 0.390625 
Q 30.5625 0.390625 33.296875 6.09375 
Q 36.03125 11.8125 36.671875 18.75 
Q 37.3125 25.6875 37.3125 33.5 
Q 37.3125 41.015625 36.671875 47.359375 
Q 36.03125 53.71875 33.3125 58.859375 
Q 30.609375 64.015625 25 64.015625 
Q 19.34375 64.015625 16.609375 58.828125 
Q 13.875 53.65625 13.234375 47.328125 
Q 12.59375 41.015625 12.59375 33.5 
Q 12.59375 27.9375 12.859375 23 
Q 13.140625 18.0625 14.3125 12.8125 
Q 15.484375 7.5625 18.09375 3.96875 
Q 20.703125 0.390625 25 0.390625 
" id="Cmr10-30"/>
      <path d="M 7.515625 13.28125 
Q 6.6875 13.28125 6.140625 13.90625 
Q 5.609375 14.546875 5.609375 15.28125 
Q 5.609375 16.109375 6.140625 16.6875 
Q 6.6875 17.28125 7.515625 17.28125 
L 70.3125 17.28125 
Q 71.046875 17.28125 71.578125 16.6875 
Q 72.125 16.109375 72.125 15.28125 
Q 72.125 14.546875 71.578125 13.90625 
Q 71.046875 13.28125 70.3125 13.28125 
z
M 7.515625 32.71875 
Q 6.6875 32.71875 6.140625 33.296875 
Q 5.609375 33.890625 5.609375 34.71875 
Q 5.609375 35.453125 6.140625 36.078125 
Q 6.6875 36.71875 7.515625 36.71875 
L 70.3125 36.71875 
Q 71.046875 36.71875 71.578125 36.078125 
Q 72.125 35.453125 72.125 34.71875 
Q 72.125 33.890625 71.578125 33.296875 
Q 71.046875 32.71875 70.3125 32.71875 
z
" id="Cmr10-3d"/>
     </defs>
     <g transform="translate(1018.8 66.23775)scale(0.144 -0.144)">
      <use transform="translate(0.0 0.6875)" xlink:href="#Cmmi10-4e"/>
      <use transform="translate(97.880859375 0.6875)" xlink:href="#Cmr10-3d"/>
      <use transform="translate(193.125 0.6875)" xlink:href="#Cmr10-33"/>
      <use transform="translate(243.125 0.6875)" xlink:href="#Cmr10-30"/>
     </g>
    </g>
    <g id="line2d_32">
     <path d="M 982.8 82.33425 
L 1002.96 82.33425 
" style="fill:none;stroke:#008000;stroke-linecap:square;"/>
    </g>
    <g id="line2d_33"/>
    <g id="text_18">
     <!-- $N=60$ -->
     <defs>
      <path d="M 25 -2.203125 
Q 18.796875 -2.203125 14.640625 1.09375 
Q 10.5 4.390625 8.21875 9.640625 
Q 5.953125 14.890625 5.078125 20.65625 
Q 4.203125 26.421875 4.203125 32.328125 
Q 4.203125 40.234375 7.28125 48.1875 
Q 10.359375 56.15625 16.328125 61.375 
Q 22.3125 66.609375 30.515625 66.609375 
Q 33.9375 66.609375 36.890625 65.3125 
Q 39.84375 64.015625 41.53125 61.5 
Q 43.21875 58.984375 43.21875 55.421875 
Q 43.21875 53.375 41.828125 51.984375 
Q 40.4375 50.59375 38.375 50.59375 
Q 36.421875 50.59375 35 52 
Q 33.59375 53.421875 33.59375 55.421875 
Q 33.59375 57.375 35 58.78125 
Q 36.421875 60.203125 38.375 60.203125 
L 38.921875 60.203125 
Q 37.640625 62.015625 35.328125 62.859375 
Q 33.015625 63.71875 30.515625 63.71875 
Q 27.484375 63.71875 24.921875 62.390625 
Q 22.359375 61.078125 20.3125 58.828125 
Q 18.265625 56.59375 16.890625 53.875 
Q 15.53125 51.171875 14.765625 47.703125 
Q 14.015625 44.234375 13.8125 41.203125 
Q 13.625 38.1875 13.625 33.59375 
Q 15.375 37.703125 18.59375 40.3125 
Q 21.828125 42.921875 25.875 42.921875 
Q 30.328125 42.921875 33.984375 41.109375 
Q 37.640625 39.3125 40.28125 36.109375 
Q 42.921875 32.90625 44.3125 28.796875 
Q 45.703125 24.703125 45.703125 20.515625 
Q 45.703125 14.65625 43.09375 9.34375 
Q 40.484375 4.046875 35.734375 0.921875 
Q 31 -2.203125 25 -2.203125 
M 25 0.984375 
Q 28.859375 0.984375 31.203125 2.734375 
Q 33.546875 4.5 34.640625 7.390625 
Q 35.75 10.296875 36.015625 13.25 
Q 36.28125 16.21875 36.28125 20.515625 
Q 36.28125 26.171875 35.734375 30.171875 
Q 35.203125 34.1875 32.8125 37.234375 
Q 30.421875 40.28125 25.484375 40.28125 
Q 21.4375 40.28125 18.828125 37.546875 
Q 16.21875 34.8125 15.015625 30.640625 
Q 13.8125 26.46875 13.8125 22.609375 
Q 13.8125 21.296875 13.921875 20.609375 
Q 13.921875 20.453125 13.890625 20.359375 
Q 13.875 20.265625 13.8125 20.125 
Q 13.8125 15.828125 14.6875 11.421875 
Q 15.578125 7.03125 18.0625 4 
Q 20.5625 0.984375 25 0.984375 
" id="Cmr10-36"/>
     </defs>
     <g transform="translate(1018.8 87.37425)scale(0.144 -0.144)">
      <use transform="translate(0.0 0.6875)" xlink:href="#Cmmi10-4e"/>
      <use transform="translate(97.880859375 0.6875)" xlink:href="#Cmr10-3d"/>
      <use transform="translate(193.125 0.6875)" xlink:href="#Cmr10-36"/>
      <use transform="translate(243.125 0.6875)" xlink:href="#Cmr10-30"/>
     </g>
    </g>
    <g id="line2d_34">
     <path d="M 982.8 103.47075 
L 1002.96 103.47075 
" style="fill:none;stroke:#ff0000;stroke-linecap:square;"/>
    </g>
    <g id="line2d_35"/>
    <g id="text_19">
     <!-- $N=120$ -->
     <defs>
      <path d="M 4.984375 0 
L 4.984375 2.6875 
Q 4.984375 2.9375 5.171875 3.21875 
L 20.703125 20.40625 
Q 24.21875 24.21875 26.40625 26.796875 
Q 28.609375 29.390625 30.75 32.765625 
Q 32.90625 36.140625 34.15625 39.625 
Q 35.40625 43.109375 35.40625 47.015625 
Q 35.40625 51.125 33.890625 54.859375 
Q 32.375 58.59375 29.375 60.84375 
Q 26.375 63.09375 22.125 63.09375 
Q 17.78125 63.09375 14.3125 60.46875 
Q 10.84375 57.859375 9.421875 53.71875 
Q 9.8125 53.8125 10.5 53.8125 
Q 12.75 53.8125 14.328125 52.296875 
Q 15.921875 50.78125 15.921875 48.390625 
Q 15.921875 46.09375 14.328125 44.5 
Q 12.75 42.921875 10.5 42.921875 
Q 8.15625 42.921875 6.5625 44.546875 
Q 4.984375 46.1875 4.984375 48.390625 
Q 4.984375 52.15625 6.390625 55.4375 
Q 7.8125 58.734375 10.46875 61.296875 
Q 13.140625 63.875 16.484375 65.234375 
Q 19.828125 66.609375 23.578125 66.609375 
Q 29.296875 66.609375 34.21875 64.1875 
Q 39.15625 61.765625 42.03125 57.34375 
Q 44.921875 52.9375 44.921875 47.015625 
Q 44.921875 42.671875 43.015625 38.765625 
Q 41.109375 34.859375 38.125 31.65625 
Q 35.15625 28.46875 30.515625 24.40625 
Q 25.875 20.359375 24.421875 19 
L 13.09375 8.109375 
L 22.703125 8.109375 
Q 29.78125 8.109375 34.546875 8.21875 
Q 39.3125 8.34375 39.59375 8.59375 
Q 40.765625 9.859375 42 17.828125 
L 44.921875 17.828125 
L 42.09375 0 
z
" id="Cmr10-32"/>
      <path d="M 9.28125 0 
L 9.28125 3.515625 
Q 21.78125 3.515625 21.78125 6.6875 
L 21.78125 59.1875 
Q 16.609375 56.6875 8.6875 56.6875 
L 8.6875 60.203125 
Q 20.953125 60.203125 27.203125 66.609375 
L 28.609375 66.609375 
Q 28.953125 66.609375 29.265625 66.328125 
Q 29.59375 66.0625 29.59375 65.71875 
L 29.59375 6.6875 
Q 29.59375 3.515625 42.09375 3.515625 
L 42.09375 0 
z
" id="Cmr10-31"/>
     </defs>
     <g transform="translate(1018.8 108.51075)scale(0.144 -0.144)">
      <use transform="translate(0.0 0.6875)" xlink:href="#Cmmi10-4e"/>
      <use transform="translate(97.880859375 0.6875)" xlink:href="#Cmr10-3d"/>
      <use transform="translate(193.125 0.6875)" xlink:href="#Cmr10-31"/>
      <use transform="translate(243.125 0.6875)" xlink:href="#Cmr10-32"/>
      <use transform="translate(293.125 0.6875)" xlink:href="#Cmr10-30"/>
     </g>
    </g>
   </g>
  </g>
 </g>
 <defs>
  <clipPath id="pf803fbdea4">
   <rect height="403.2" width="803.52" x="162.0" y="50.4"/>
  </clipPath>
 </defs>
</svg>
