<?xml version="1.0" encoding="utf-8" standalone="no"?>
<!DOCTYPE svg PUBLIC "-//W3C//DTD SVG 1.1//EN"
  "http://www.w3.org/Graphics/SVG/1.1/DTD/svg11.dtd">
<!-- Created with matplotlib (http://matplotlib.org/) -->
<svg height="504pt" version="1.1" viewBox="0 0 1296 504" width="1296pt" xmlns="http://www.w3.org/2000/svg" xmlns:xlink="http://www.w3.org/1999/xlink">
 <defs>
  <style type="text/css">
*{stroke-linecap:butt;stroke-linejoin:round;stroke-miterlimit:100000;}
  </style>
 </defs>
 <g id="figure_1">
  <g id="patch_1">
   <path d="M 0 504 
L 1296 504 
L 1296 0 
L 0 0 
z
" style="fill:#ffffff;"/>
  </g>
  <g id="axes_1">
   <g id="patch_2">
    <path d="M 162 453.6 
L 965.52 453.6 
L 965.52 50.4 
L 162 50.4 
z
" style="fill:#ffffff;"/>
   </g>
   <g id="line2d_1">
    <path clip-path="url(#p2c12411649)" d="M 162 358.344 
L 163.60704 365.4 
L 165.21408 369.432 
L 166.82112 370.944 
L 168.42816 375.48 
L 171.64224 382.536 
L 173.24928 387.576 
L 174.85632 391.104 
L 176.46336 393.12 
L 178.0704 395.64 
L 179.67744 397.656 
L 181.28448 400.176 
L 182.89152 400.68 
L 184.49856 402.696 
L 187.71264 405.72 
L 189.31968 405.72 
L 190.92672 407.232 
L 192.53376 408.24 
L 194.1408 410.76 
L 195.74784 411.768 
L 197.35488 413.784 
L 198.96192 413.784 
L 200.56896 414.288 
L 202.176 415.8 
L 203.78304 417.816 
L 205.39008 417.312 
L 208.60416 419.328 
L 210.2112 419.328 
L 211.81824 420.336 
L 213.42528 420.336 
L 215.03232 421.344 
L 216.63936 421.344 
L 218.2464 422.352 
L 224.67456 424.368 
L 226.2816 424.368 
L 227.88864 425.376 
L 229.49568 425.376 
L 234.3168 426.888 
L 235.92384 426.888 
L 237.53088 428.4 
L 240.74496 428.4 
L 242.352 429.912 
L 243.95904 430.416 
L 245.56608 431.424 
L 247.17312 431.424 
L 248.78016 431.928 
L 251.99424 431.928 
L 255.20832 433.944 
L 256.81536 434.448 
L 258.4224 433.944 
L 264.85056 433.944 
L 268.06464 434.952 
L 269.67168 435.96 
L 272.88576 435.96 
L 274.4928 436.464 
L 282.528 436.464 
L 284.13504 435.96 
L 287.34912 435.96 
L 288.95616 436.464 
L 292.17024 436.464 
L 293.77728 436.968 
L 295.38432 436.968 
L 296.99136 437.472 
L 300.20544 437.472 
L 301.81248 437.976 
L 303.41952 437.976 
L 305.02656 438.984 
L 314.6688 438.984 
L 316.27584 439.488 
L 321.09696 439.488 
L 322.704 439.992 
L 330.7392 439.992 
L 332.34624 440.496 
L 333.95328 440.496 
L 335.56032 441 
L 337.16736 441 
L 338.7744 440.496 
L 341.98848 440.496 
L 343.59552 441 
L 348.41664 441 
L 350.02368 440.496 
L 351.63072 441 
L 353.23776 441 
L 354.8448 441.504 
L 356.45184 441 
L 358.05888 441 
L 359.66592 441.504 
L 362.88 441.504 
L 366.09408 443.52 
L 390.19968 443.52 
L 393.41376 444.528 
L 398.23488 444.528 
L 399.84192 445.032 
L 404.66304 445.032 
L 406.27008 445.536 
L 407.87712 445.536 
L 409.48416 445.032 
L 425.55456 445.032 
L 427.1616 444.528 
L 430.37568 444.528 
L 431.98272 445.032 
L 440.01792 445.032 
L 441.62496 444.528 
L 444.83904 444.528 
L 446.44608 444.024 
L 449.66016 444.024 
L 451.2672 443.52 
L 452.87424 443.52 
L 454.48128 444.024 
L 460.90944 444.024 
L 462.51648 444.528 
L 470.55168 444.528 
L 472.15872 444.024 
L 476.97984 444.024 
L 478.58688 443.016 
L 481.80096 443.016 
L 483.408 443.52 
L 485.01504 443.52 
L 486.62208 444.024 
L 489.83616 444.024 
L 491.4432 443.52 
L 493.05024 443.52 
L 494.65728 443.016 
L 510.72768 443.016 
L 512.33472 443.52 
L 517.15584 443.52 
L 518.76288 443.016 
L 520.36992 443.52 
L 521.97696 443.016 
L 525.19104 443.016 
L 526.79808 442.008 
L 528.40512 442.008 
L 533.22624 443.52 
L 536.44032 443.52 
L 538.04736 443.016 
L 542.86848 443.016 
L 544.47552 443.52 
L 546.08256 443.016 
L 549.29664 443.016 
L 550.90368 443.52 
L 554.11776 443.52 
L 555.7248 444.024 
L 558.93888 444.024 
L 560.54592 443.52 
L 565.36704 443.52 
L 566.97408 444.024 
L 568.58112 444.024 
L 571.7952 443.016 
L 573.40224 443.016 
L 575.00928 444.024 
L 576.61632 444.528 
L 578.22336 444.528 
L 579.8304 444.024 
L 587.8656 444.024 
L 591.07968 443.016 
L 602.32896 443.016 
L 603.936 442.512 
L 615.18528 442.512 
L 616.79232 442.008 
L 620.0064 443.016 
L 621.61344 443.016 
L 623.22048 442.008 
L 631.25568 442.008 
L 632.86272 442.512 
L 634.46976 442.512 
L 637.68384 441.504 
L 639.29088 442.008 
L 640.89792 442.008 
L 642.50496 441.504 
L 645.71904 442.512 
L 648.93312 442.512 
L 652.1472 441.504 
L 656.96832 441.504 
L 658.57536 441 
L 661.78944 442.008 
L 665.00352 442.008 
L 666.61056 442.512 
L 668.2176 442.512 
L 669.82464 442.008 
L 676.2528 442.008 
L 677.85984 443.016 
L 681.07392 443.016 
L 684.288 444.024 
L 689.10912 444.024 
L 690.71616 444.528 
L 692.3232 443.52 
L 695.53728 444.528 
L 703.57248 444.528 
L 705.17952 444.024 
L 710.00064 444.024 
L 711.60768 443.52 
L 716.4288 443.52 
L 718.03584 444.024 
L 722.85696 444.024 
L 724.464 444.528 
L 726.07104 444.528 
L 727.67808 445.032 
L 746.96256 445.032 
L 748.5696 444.528 
L 754.99776 444.528 
L 756.6048 445.032 
L 761.42592 445.032 
L 763.03296 444.528 
L 766.24704 444.528 
L 767.85408 443.52 
L 769.46112 444.024 
L 771.06816 445.032 
L 782.31744 445.032 
L 783.92448 444.528 
L 788.7456 444.528 
L 791.95968 443.52 
L 799.99488 443.52 
L 801.60192 443.016 
L 811.24416 443.016 
L 812.8512 442.512 
L 814.45824 442.512 
L 817.67232 443.52 
L 822.49344 443.52 
L 824.10048 443.016 
L 827.31456 443.016 
L 828.9216 442.512 
L 830.52864 442.512 
L 832.13568 444.024 
L 833.74272 444.528 
L 835.34976 444.528 
L 836.9568 444.024 
L 838.56384 444.528 
L 843.38496 444.528 
L 844.992 444.024 
L 846.59904 444.024 
L 848.20608 443.016 
L 853.0272 443.016 
L 854.63424 442.512 
L 862.66944 442.512 
L 864.27648 443.016 
L 865.88352 443.016 
L 867.49056 444.024 
L 869.0976 444.024 
L 870.70464 444.528 
L 883.56096 444.528 
L 885.168 444.024 
L 886.77504 444.024 
L 888.38208 444.528 
L 894.81024 444.528 
L 896.41728 445.032 
L 899.63136 445.032 
L 901.2384 444.528 
L 902.84544 445.032 
L 904.45248 444.528 
L 906.05952 445.032 
L 925.344 445.032 
L 926.95104 444.528 
L 938.20032 444.528 
L 939.80736 444.024 
L 947.84256 444.024 
L 951.05664 445.032 
L 954.27072 445.032 
L 955.87776 444.024 
L 959.09184 444.024 
L 960.69888 444.528 
L 963.91296 444.528 
L 963.91296 444.528 
" style="fill:none;stroke:#0000ff;stroke-linecap:square;"/>
   </g>
   <g id="line2d_2">
    <path clip-path="url(#p2c12411649)" d="M 162 263.088 
L 163.60704 271.152 
L 165.21408 280.224 
L 166.82112 291.312 
L 168.42816 297.36 
L 170.0352 308.448 
L 171.64224 318.528 
L 173.24928 322.56 
L 174.85632 327.6 
L 176.46336 336.672 
L 178.0704 338.688 
L 179.67744 345.744 
L 181.28448 348.768 
L 182.89152 350.784 
L 184.49856 355.824 
L 186.1056 358.848 
L 187.71264 360.864 
L 189.31968 360.864 
L 190.92672 362.88 
L 194.1408 372.96 
L 195.74784 373.968 
L 197.35488 373.968 
L 198.96192 372.96 
L 200.56896 375.984 
L 202.176 380.016 
L 203.78304 380.016 
L 205.39008 381.024 
L 206.99712 384.048 
L 208.60416 386.064 
L 210.2112 389.088 
L 211.81824 387.072 
L 213.42528 389.088 
L 216.63936 391.104 
L 218.2464 394.128 
L 219.85344 394.128 
L 221.46048 397.152 
L 223.06752 398.16 
L 224.67456 401.184 
L 226.2816 405.216 
L 229.49568 405.216 
L 232.70976 407.232 
L 234.3168 407.232 
L 235.92384 408.24 
L 237.53088 407.232 
L 239.13792 409.248 
L 242.352 409.248 
L 243.95904 410.256 
L 245.56608 409.248 
L 248.78016 411.264 
L 250.3872 411.264 
L 251.99424 412.272 
L 253.60128 412.272 
L 255.20832 413.28 
L 256.81536 413.28 
L 260.02944 415.296 
L 261.63648 418.32 
L 263.24352 419.328 
L 264.85056 419.328 
L 268.06464 421.344 
L 269.67168 423.36 
L 271.27872 424.368 
L 272.88576 424.368 
L 274.4928 425.376 
L 276.09984 427.392 
L 277.70688 428.4 
L 279.31392 425.376 
L 280.92096 425.376 
L 282.528 427.392 
L 284.13504 427.392 
L 287.34912 429.408 
L 292.17024 429.408 
L 293.77728 428.4 
L 296.99136 428.4 
L 298.5984 429.408 
L 303.41952 429.408 
L 305.02656 430.416 
L 308.24064 430.416 
L 309.84768 429.408 
L 314.6688 429.408 
L 316.27584 427.392 
L 317.88288 429.408 
L 321.09696 429.408 
L 322.704 428.4 
L 324.31104 428.4 
L 325.91808 427.392 
L 327.52512 429.408 
L 329.13216 429.408 
L 330.7392 430.416 
L 333.95328 430.416 
L 335.56032 429.408 
L 337.16736 431.424 
L 338.7744 432.432 
L 340.38144 432.432 
L 343.59552 430.416 
L 345.20256 431.424 
L 346.8096 431.424 
L 348.41664 430.416 
L 350.02368 433.44 
L 351.63072 433.44 
L 353.23776 432.432 
L 354.8448 432.432 
L 356.45184 431.424 
L 358.05888 433.44 
L 359.66592 432.432 
L 361.27296 432.432 
L 362.88 431.424 
L 366.09408 433.44 
L 367.70112 432.432 
L 370.9152 432.432 
L 372.52224 433.44 
L 377.34336 433.44 
L 382.16448 430.416 
L 386.9856 430.416 
L 388.59264 432.432 
L 390.19968 430.416 
L 395.0208 430.416 
L 396.62784 431.424 
L 399.84192 431.424 
L 401.44896 432.432 
L 406.27008 432.432 
L 407.87712 431.424 
L 412.69824 431.424 
L 415.91232 429.408 
L 420.73344 429.408 
L 423.94752 431.424 
L 433.58976 431.424 
L 435.1968 432.432 
L 436.80384 431.424 
L 443.232 435.456 
L 444.83904 435.456 
L 446.44608 434.448 
L 449.66016 434.448 
L 451.2672 433.44 
L 462.51648 433.44 
L 465.73056 435.456 
L 470.55168 435.456 
L 472.15872 433.44 
L 475.3728 433.44 
L 476.97984 432.432 
L 483.408 432.432 
L 485.01504 433.44 
L 486.62208 433.44 
L 488.22912 434.448 
L 496.26432 434.448 
L 497.87136 433.44 
L 504.29952 433.44 
L 507.5136 435.456 
L 515.5488 435.456 
L 517.15584 436.464 
L 521.97696 436.464 
L 523.584 437.472 
L 526.79808 437.472 
L 528.40512 438.48 
L 533.22624 438.48 
L 534.83328 439.488 
L 538.04736 437.472 
L 542.86848 437.472 
L 544.47552 438.48 
L 546.08256 438.48 
L 547.6896 437.472 
L 554.11776 437.472 
L 555.7248 435.456 
L 557.33184 434.448 
L 563.76 434.448 
L 565.36704 433.44 
L 566.97408 433.44 
L 568.58112 432.432 
L 570.18816 432.432 
L 571.7952 433.44 
L 579.8304 433.44 
L 583.04448 435.456 
L 584.65152 435.456 
L 586.25856 436.464 
L 594.29376 436.464 
L 595.9008 437.472 
L 597.50784 436.464 
L 600.72192 436.464 
L 602.32896 437.472 
L 605.54304 437.472 
L 608.75712 439.488 
L 611.9712 439.488 
L 613.57824 438.48 
L 620.0064 438.48 
L 621.61344 439.488 
L 623.22048 438.48 
L 624.82752 438.48 
L 628.0416 436.464 
L 632.86272 436.464 
L 636.0768 434.448 
L 639.29088 434.448 
L 640.89792 433.44 
L 642.50496 433.44 
L 644.112 432.432 
L 652.1472 432.432 
L 653.75424 433.44 
L 661.78944 433.44 
L 665.00352 435.456 
L 668.2176 435.456 
L 669.82464 436.464 
L 671.43168 436.464 
L 673.03872 437.472 
L 676.2528 437.472 
L 677.85984 436.464 
L 681.07392 436.464 
L 682.68096 435.456 
L 684.288 435.456 
L 685.89504 436.464 
L 690.71616 436.464 
L 692.3232 437.472 
L 693.93024 437.472 
L 695.53728 436.464 
L 697.14432 436.464 
L 698.75136 437.472 
L 700.3584 437.472 
L 701.96544 436.464 
L 710.00064 436.464 
L 711.60768 437.472 
L 726.07104 437.472 
L 727.67808 436.464 
L 729.28512 436.464 
L 730.89216 437.472 
L 732.4992 436.464 
L 737.32032 436.464 
L 738.92736 437.472 
L 743.74848 437.472 
L 745.35552 438.48 
L 750.17664 438.48 
L 751.78368 439.488 
L 754.99776 437.472 
L 758.21184 437.472 
L 759.81888 438.48 
L 761.42592 438.48 
L 763.03296 437.472 
L 764.64 437.472 
L 766.24704 438.48 
L 767.85408 438.48 
L 769.46112 439.488 
L 774.28224 439.488 
L 775.88928 440.496 
L 782.31744 440.496 
L 783.92448 438.48 
L 787.13856 438.48 
L 788.7456 437.472 
L 795.17376 437.472 
L 796.7808 438.48 
L 801.60192 438.48 
L 803.20896 439.488 
L 809.63712 439.488 
L 811.24416 438.48 
L 812.8512 438.48 
L 814.45824 439.488 
L 816.06528 436.464 
L 817.67232 435.456 
L 820.8864 435.456 
L 822.49344 434.448 
L 824.10048 434.448 
L 825.70752 435.456 
L 827.31456 434.448 
L 828.9216 434.448 
L 830.52864 432.432 
L 832.13568 433.44 
L 833.74272 432.432 
L 838.56384 432.432 
L 841.77792 434.448 
L 844.992 432.432 
L 846.59904 434.448 
L 848.20608 434.448 
L 851.42016 436.464 
L 875.52576 436.464 
L 877.1328 437.472 
L 878.73984 437.472 
L 880.34688 439.488 
L 881.95392 438.48 
L 883.56096 438.48 
L 885.168 437.472 
L 886.77504 437.472 
L 888.38208 438.48 
L 894.81024 438.48 
L 896.41728 439.488 
L 898.02432 438.48 
L 902.84544 438.48 
L 906.05952 436.464 
L 909.2736 436.464 
L 910.88064 435.456 
L 915.70176 435.456 
L 917.3088 436.464 
L 920.52288 436.464 
L 922.12992 437.472 
L 923.73696 437.472 
L 925.344 438.48 
L 938.20032 438.48 
L 939.80736 437.472 
L 941.4144 437.472 
L 946.23552 440.496 
L 951.05664 440.496 
L 952.66368 442.512 
L 959.09184 442.512 
L 960.69888 441.504 
L 963.91296 441.504 
L 963.91296 441.504 
" style="fill:none;stroke:#008000;stroke-linecap:square;"/>
   </g>
   <g id="line2d_3">
    <path clip-path="url(#p2c12411649)" d="M 162 90.72 
L 163.60704 101.808 
L 165.21408 111.888 
L 166.82112 131.04 
L 168.42816 144.144 
L 170.0352 154.224 
L 171.64224 168.336 
L 173.24928 181.44 
L 174.85632 193.536 
L 176.46336 204.624 
L 178.0704 214.704 
L 179.67744 223.776 
L 181.28448 230.832 
L 182.89152 235.872 
L 184.49856 241.92 
L 186.1056 242.928 
L 187.71264 252 
L 190.92672 262.08 
L 192.53376 265.104 
L 194.1408 271.152 
L 195.74784 281.232 
L 197.35488 284.256 
L 198.96192 290.304 
L 200.56896 297.36 
L 202.176 301.392 
L 203.78304 302.4 
L 205.39008 305.424 
L 206.99712 313.488 
L 208.60416 318.528 
L 210.2112 322.56 
L 211.81824 323.568 
L 213.42528 326.592 
L 215.03232 328.608 
L 216.63936 329.616 
L 218.2464 327.6 
L 219.85344 332.64 
L 221.46048 333.648 
L 224.67456 347.76 
L 226.2816 347.76 
L 227.88864 349.776 
L 229.49568 352.8 
L 231.10272 351.792 
L 232.70976 351.792 
L 234.3168 355.824 
L 235.92384 358.848 
L 237.53088 358.848 
L 239.13792 361.872 
L 240.74496 366.912 
L 242.352 368.928 
L 243.95904 368.928 
L 245.56608 370.944 
L 247.17312 370.944 
L 248.78016 372.96 
L 250.3872 373.968 
L 251.99424 373.968 
L 253.60128 375.984 
L 255.20832 375.984 
L 261.63648 380.016 
L 263.24352 383.04 
L 264.85056 383.04 
L 266.4576 384.048 
L 268.06464 384.048 
L 269.67168 383.04 
L 271.27872 384.048 
L 272.88576 387.072 
L 274.4928 386.064 
L 276.09984 386.064 
L 277.70688 387.072 
L 279.31392 389.088 
L 280.92096 390.096 
L 282.528 390.096 
L 284.13504 392.112 
L 285.74208 392.112 
L 287.34912 391.104 
L 290.5632 391.104 
L 293.77728 393.12 
L 295.38432 393.12 
L 300.20544 396.144 
L 301.81248 396.144 
L 303.41952 395.136 
L 305.02656 396.144 
L 306.6336 399.168 
L 308.24064 398.16 
L 309.84768 399.168 
L 311.45472 399.168 
L 313.06176 403.2 
L 314.6688 405.216 
L 316.27584 404.208 
L 319.48992 404.208 
L 321.09696 405.216 
L 322.704 405.216 
L 324.31104 404.208 
L 325.91808 404.208 
L 327.52512 403.2 
L 329.13216 404.208 
L 330.7392 406.224 
L 332.34624 410.256 
L 333.95328 412.272 
L 335.56032 412.272 
L 337.16736 413.28 
L 338.7744 413.28 
L 340.38144 415.296 
L 341.98848 415.296 
L 345.20256 413.28 
L 348.41664 413.28 
L 350.02368 414.288 
L 351.63072 416.304 
L 353.23776 417.312 
L 354.8448 419.328 
L 356.45184 420.336 
L 359.66592 420.336 
L 361.27296 419.328 
L 362.88 420.336 
L 364.48704 417.312 
L 366.09408 417.312 
L 367.70112 415.296 
L 370.9152 417.312 
L 377.34336 417.312 
L 378.9504 416.304 
L 380.55744 416.304 
L 382.16448 419.328 
L 383.77152 419.328 
L 385.37856 420.336 
L 386.9856 420.336 
L 388.59264 419.328 
L 390.19968 419.328 
L 391.80672 418.32 
L 396.62784 418.32 
L 399.84192 416.304 
L 401.44896 417.312 
L 412.69824 417.312 
L 415.91232 415.296 
L 417.51936 415.296 
L 419.1264 416.304 
L 420.73344 416.304 
L 423.94752 418.32 
L 425.55456 417.312 
L 427.1616 420.336 
L 430.37568 420.336 
L 431.98272 419.328 
L 433.58976 420.336 
L 436.80384 420.336 
L 438.41088 418.32 
L 446.44608 418.32 
L 448.05312 417.312 
L 449.66016 417.312 
L 451.2672 420.336 
L 452.87424 420.336 
L 456.08832 418.32 
L 459.3024 418.32 
L 460.90944 419.328 
L 464.12352 419.328 
L 465.73056 420.336 
L 472.15872 420.336 
L 473.76576 422.352 
L 475.3728 420.336 
L 476.97984 419.328 
L 478.58688 420.336 
L 481.80096 420.336 
L 483.408 419.328 
L 486.62208 419.328 
L 488.22912 418.32 
L 489.83616 420.336 
L 491.4432 419.328 
L 494.65728 419.328 
L 496.26432 418.32 
L 497.87136 419.328 
L 499.4784 419.328 
L 501.08544 421.344 
L 502.69248 422.352 
L 509.12064 422.352 
L 510.72768 423.36 
L 512.33472 423.36 
L 513.94176 422.352 
L 515.5488 422.352 
L 517.15584 420.336 
L 520.36992 420.336 
L 521.97696 422.352 
L 525.19104 424.368 
L 528.40512 424.368 
L 530.01216 425.376 
L 536.44032 425.376 
L 538.04736 423.36 
L 539.6544 423.36 
L 541.26144 422.352 
L 544.47552 418.32 
L 546.08256 417.312 
L 550.90368 417.312 
L 552.51072 419.328 
L 554.11776 418.32 
L 555.7248 416.304 
L 558.93888 418.32 
L 562.15296 418.32 
L 563.76 420.336 
L 565.36704 420.336 
L 566.97408 421.344 
L 570.18816 421.344 
L 571.7952 420.336 
L 576.61632 420.336 
L 579.8304 422.352 
L 586.25856 422.352 
L 587.8656 421.344 
L 589.47264 422.352 
L 591.07968 422.352 
L 592.68672 423.36 
L 594.29376 423.36 
L 595.9008 425.376 
L 597.50784 423.36 
L 602.32896 423.36 
L 603.936 422.352 
L 605.54304 424.368 
L 607.15008 424.368 
L 608.75712 425.376 
L 610.36416 424.368 
L 611.9712 424.368 
L 613.57824 425.376 
L 615.18528 424.368 
L 621.61344 424.368 
L 623.22048 423.36 
L 624.82752 423.36 
L 626.43456 424.368 
L 628.0416 424.368 
L 629.64864 425.376 
L 632.86272 425.376 
L 634.46976 426.384 
L 636.0768 425.376 
L 637.68384 425.376 
L 639.29088 423.36 
L 640.89792 422.352 
L 642.50496 422.352 
L 644.112 423.36 
L 645.71904 419.328 
L 647.32608 419.328 
L 648.93312 420.336 
L 652.1472 418.32 
L 653.75424 416.304 
L 655.36128 416.304 
L 656.96832 415.296 
L 658.57536 418.32 
L 661.78944 418.32 
L 665.00352 420.336 
L 666.61056 420.336 
L 668.2176 419.328 
L 669.82464 419.328 
L 671.43168 417.312 
L 673.03872 417.312 
L 674.64576 416.304 
L 676.2528 416.304 
L 681.07392 419.328 
L 682.68096 419.328 
L 684.288 417.312 
L 687.50208 417.312 
L 689.10912 418.32 
L 690.71616 420.336 
L 692.3232 419.328 
L 698.75136 419.328 
L 700.3584 420.336 
L 701.96544 420.336 
L 703.57248 419.328 
L 706.78656 419.328 
L 710.00064 417.312 
L 711.60768 417.312 
L 713.21472 418.32 
L 714.82176 418.32 
L 716.4288 420.336 
L 719.64288 420.336 
L 721.24992 422.352 
L 724.464 422.352 
L 726.07104 423.36 
L 729.28512 421.344 
L 732.4992 423.36 
L 734.10624 422.352 
L 735.71328 422.352 
L 737.32032 421.344 
L 738.92736 421.344 
L 740.5344 422.352 
L 742.14144 422.352 
L 743.74848 421.344 
L 751.78368 421.344 
L 753.39072 424.368 
L 754.99776 424.368 
L 756.6048 427.392 
L 759.81888 425.376 
L 763.03296 427.392 
L 764.64 427.392 
L 766.24704 426.384 
L 769.46112 426.384 
L 771.06816 427.392 
L 775.88928 427.392 
L 777.49632 428.4 
L 779.10336 427.392 
L 780.7104 428.4 
L 785.53152 428.4 
L 790.35264 425.376 
L 793.56672 425.376 
L 795.17376 424.368 
L 799.99488 424.368 
L 801.60192 425.376 
L 808.03008 425.376 
L 809.63712 424.368 
L 814.45824 424.368 
L 816.06528 425.376 
L 819.27936 423.36 
L 822.49344 423.36 
L 824.10048 422.352 
L 825.70752 423.36 
L 828.9216 423.36 
L 830.52864 424.368 
L 832.13568 424.368 
L 835.34976 422.352 
L 840.17088 422.352 
L 841.77792 423.36 
L 843.38496 425.376 
L 851.42016 425.376 
L 853.0272 427.392 
L 854.63424 426.384 
L 856.24128 427.392 
L 857.84832 427.392 
L 859.45536 426.384 
L 862.66944 428.4 
L 864.27648 428.4 
L 865.88352 430.416 
L 869.0976 430.416 
L 870.70464 431.424 
L 875.52576 431.424 
L 877.1328 432.432 
L 883.56096 432.432 
L 885.168 433.44 
L 886.77504 432.432 
L 894.81024 432.432 
L 896.41728 431.424 
L 898.02432 431.424 
L 899.63136 430.416 
L 901.2384 430.416 
L 902.84544 431.424 
L 909.2736 431.424 
L 910.88064 432.432 
L 912.48768 432.432 
L 914.09472 431.424 
L 923.73696 431.424 
L 925.344 432.432 
L 926.95104 432.432 
L 928.55808 431.424 
L 930.16512 432.432 
L 931.77216 431.424 
L 934.98624 431.424 
L 936.59328 430.416 
L 943.02144 430.416 
L 944.62848 432.432 
L 946.23552 432.432 
L 947.84256 431.424 
L 951.05664 431.424 
L 952.66368 432.432 
L 954.27072 431.424 
L 957.4848 431.424 
L 959.09184 430.416 
L 960.69888 430.416 
L 962.30592 431.424 
L 963.91296 431.424 
L 963.91296 431.424 
" style="fill:none;stroke:#ff0000;stroke-linecap:square;"/>
   </g>
   <g id="patch_3">
    <path d="M 162 50.4 
L 965.52 50.4 
" style="fill:none;stroke:#000000;stroke-linecap:square;stroke-linejoin:miter;"/>
   </g>
   <g id="patch_4">
    <path d="M 965.52 453.6 
L 965.52 50.4 
" style="fill:none;stroke:#000000;stroke-linecap:square;stroke-linejoin:miter;"/>
   </g>
   <g id="patch_5">
    <path d="M 162 453.6 
L 965.52 453.6 
" style="fill:none;stroke:#000000;stroke-linecap:square;stroke-linejoin:miter;"/>
   </g>
   <g id="patch_6">
    <path d="M 162 453.6 
L 162 50.4 
" style="fill:none;stroke:#000000;stroke-linecap:square;stroke-linejoin:miter;"/>
   </g>
   <g id="matplotlib.axis_1">
    <g id="xtick_1">
     <g id="line2d_4">
      <defs>
       <path d="M 0 0 
L 0 -4 
" id="m9ce44164c6" style="stroke:#000000;stroke-width:0.5;"/>
      </defs>
      <g>
       <use style="stroke:#000000;stroke-width:0.5;" x="162.0" xlink:href="#m9ce44164c6" y="453.6"/>
      </g>
     </g>
     <g id="line2d_5">
      <defs>
       <path d="M 0 0 
L 0 4 
" id="m846d9bade1" style="stroke:#000000;stroke-width:0.5;"/>
      </defs>
      <g>
       <use style="stroke:#000000;stroke-width:0.5;" x="162.0" xlink:href="#m846d9bade1" y="50.4"/>
      </g>
     </g>
     <g id="text_1">
      <!-- 0 -->
      <defs>
       <path d="M 31.78125 66.40625 
Q 24.171875 66.40625 20.328125 58.90625 
Q 16.5 51.421875 16.5 36.375 
Q 16.5 21.390625 20.328125 13.890625 
Q 24.171875 6.390625 31.78125 6.390625 
Q 39.453125 6.390625 43.28125 13.890625 
Q 47.125 21.390625 47.125 36.375 
Q 47.125 51.421875 43.28125 58.90625 
Q 39.453125 66.40625 31.78125 66.40625 
M 31.78125 74.21875 
Q 44.046875 74.21875 50.515625 64.515625 
Q 56.984375 54.828125 56.984375 36.375 
Q 56.984375 17.96875 50.515625 8.265625 
Q 44.046875 -1.421875 31.78125 -1.421875 
Q 19.53125 -1.421875 13.0625 8.265625 
Q 6.59375 17.96875 6.59375 36.375 
Q 6.59375 54.828125 13.0625 64.515625 
Q 19.53125 74.21875 31.78125 74.21875 
" id="BitstreamVeraSans-Roman-30"/>
      </defs>
      <g transform="translate(158.1825 466.718125)scale(0.12 -0.12)">
       <use xlink:href="#BitstreamVeraSans-Roman-30"/>
      </g>
     </g>
    </g>
    <g id="xtick_2">
     <g id="line2d_6">
      <g>
       <use style="stroke:#000000;stroke-width:0.5;" x="322.704" xlink:href="#m9ce44164c6" y="453.6"/>
      </g>
     </g>
     <g id="line2d_7">
      <g>
       <use style="stroke:#000000;stroke-width:0.5;" x="322.704" xlink:href="#m846d9bade1" y="50.4"/>
      </g>
     </g>
     <g id="text_2">
      <!-- 100 -->
      <defs>
       <path d="M 12.40625 8.296875 
L 28.515625 8.296875 
L 28.515625 63.921875 
L 10.984375 60.40625 
L 10.984375 69.390625 
L 28.421875 72.90625 
L 38.28125 72.90625 
L 38.28125 8.296875 
L 54.390625 8.296875 
L 54.390625 0 
L 12.40625 0 
z
" id="BitstreamVeraSans-Roman-31"/>
      </defs>
      <g transform="translate(311.2515 466.718125)scale(0.12 -0.12)">
       <use xlink:href="#BitstreamVeraSans-Roman-31"/>
       <use x="63.623046875" xlink:href="#BitstreamVeraSans-Roman-30"/>
       <use x="127.24609375" xlink:href="#BitstreamVeraSans-Roman-30"/>
      </g>
     </g>
    </g>
    <g id="xtick_3">
     <g id="line2d_8">
      <g>
       <use style="stroke:#000000;stroke-width:0.5;" x="483.408" xlink:href="#m9ce44164c6" y="453.6"/>
      </g>
     </g>
     <g id="line2d_9">
      <g>
       <use style="stroke:#000000;stroke-width:0.5;" x="483.408" xlink:href="#m846d9bade1" y="50.4"/>
      </g>
     </g>
     <g id="text_3">
      <!-- 200 -->
      <defs>
       <path d="M 19.1875 8.296875 
L 53.609375 8.296875 
L 53.609375 0 
L 7.328125 0 
L 7.328125 8.296875 
Q 12.9375 14.109375 22.625 23.890625 
Q 32.328125 33.6875 34.8125 36.53125 
Q 39.546875 41.84375 41.421875 45.53125 
Q 43.3125 49.21875 43.3125 52.78125 
Q 43.3125 58.59375 39.234375 62.25 
Q 35.15625 65.921875 28.609375 65.921875 
Q 23.96875 65.921875 18.8125 64.3125 
Q 13.671875 62.703125 7.8125 59.421875 
L 7.8125 69.390625 
Q 13.765625 71.78125 18.9375 73 
Q 24.125 74.21875 28.421875 74.21875 
Q 39.75 74.21875 46.484375 68.546875 
Q 53.21875 62.890625 53.21875 53.421875 
Q 53.21875 48.921875 51.53125 44.890625 
Q 49.859375 40.875 45.40625 35.40625 
Q 44.1875 33.984375 37.640625 27.21875 
Q 31.109375 20.453125 19.1875 8.296875 
" id="BitstreamVeraSans-Roman-32"/>
      </defs>
      <g transform="translate(471.9555 466.718125)scale(0.12 -0.12)">
       <use xlink:href="#BitstreamVeraSans-Roman-32"/>
       <use x="63.623046875" xlink:href="#BitstreamVeraSans-Roman-30"/>
       <use x="127.24609375" xlink:href="#BitstreamVeraSans-Roman-30"/>
      </g>
     </g>
    </g>
    <g id="xtick_4">
     <g id="line2d_10">
      <g>
       <use style="stroke:#000000;stroke-width:0.5;" x="644.112" xlink:href="#m9ce44164c6" y="453.6"/>
      </g>
     </g>
     <g id="line2d_11">
      <g>
       <use style="stroke:#000000;stroke-width:0.5;" x="644.112" xlink:href="#m846d9bade1" y="50.4"/>
      </g>
     </g>
     <g id="text_4">
      <!-- 300 -->
      <defs>
       <path d="M 40.578125 39.3125 
Q 47.65625 37.796875 51.625 33 
Q 55.609375 28.21875 55.609375 21.1875 
Q 55.609375 10.40625 48.1875 4.484375 
Q 40.765625 -1.421875 27.09375 -1.421875 
Q 22.515625 -1.421875 17.65625 -0.515625 
Q 12.796875 0.390625 7.625 2.203125 
L 7.625 11.71875 
Q 11.71875 9.328125 16.59375 8.109375 
Q 21.484375 6.890625 26.8125 6.890625 
Q 36.078125 6.890625 40.9375 10.546875 
Q 45.796875 14.203125 45.796875 21.1875 
Q 45.796875 27.640625 41.28125 31.265625 
Q 36.765625 34.90625 28.71875 34.90625 
L 20.21875 34.90625 
L 20.21875 43.015625 
L 29.109375 43.015625 
Q 36.375 43.015625 40.234375 45.921875 
Q 44.09375 48.828125 44.09375 54.296875 
Q 44.09375 59.90625 40.109375 62.90625 
Q 36.140625 65.921875 28.71875 65.921875 
Q 24.65625 65.921875 20.015625 65.03125 
Q 15.375 64.15625 9.8125 62.3125 
L 9.8125 71.09375 
Q 15.4375 72.65625 20.34375 73.4375 
Q 25.25 74.21875 29.59375 74.21875 
Q 40.828125 74.21875 47.359375 69.109375 
Q 53.90625 64.015625 53.90625 55.328125 
Q 53.90625 49.265625 50.4375 45.09375 
Q 46.96875 40.921875 40.578125 39.3125 
" id="BitstreamVeraSans-Roman-33"/>
      </defs>
      <g transform="translate(632.6595 466.718125)scale(0.12 -0.12)">
       <use xlink:href="#BitstreamVeraSans-Roman-33"/>
       <use x="63.623046875" xlink:href="#BitstreamVeraSans-Roman-30"/>
       <use x="127.24609375" xlink:href="#BitstreamVeraSans-Roman-30"/>
      </g>
     </g>
    </g>
    <g id="xtick_5">
     <g id="line2d_12">
      <g>
       <use style="stroke:#000000;stroke-width:0.5;" x="804.816" xlink:href="#m9ce44164c6" y="453.6"/>
      </g>
     </g>
     <g id="line2d_13">
      <g>
       <use style="stroke:#000000;stroke-width:0.5;" x="804.816" xlink:href="#m846d9bade1" y="50.4"/>
      </g>
     </g>
     <g id="text_5">
      <!-- 400 -->
      <defs>
       <path d="M 37.796875 64.3125 
L 12.890625 25.390625 
L 37.796875 25.390625 
z
M 35.203125 72.90625 
L 47.609375 72.90625 
L 47.609375 25.390625 
L 58.015625 25.390625 
L 58.015625 17.1875 
L 47.609375 17.1875 
L 47.609375 0 
L 37.796875 0 
L 37.796875 17.1875 
L 4.890625 17.1875 
L 4.890625 26.703125 
z
" id="BitstreamVeraSans-Roman-34"/>
      </defs>
      <g transform="translate(793.3635 466.718125)scale(0.12 -0.12)">
       <use xlink:href="#BitstreamVeraSans-Roman-34"/>
       <use x="63.623046875" xlink:href="#BitstreamVeraSans-Roman-30"/>
       <use x="127.24609375" xlink:href="#BitstreamVeraSans-Roman-30"/>
      </g>
     </g>
    </g>
    <g id="xtick_6">
     <g id="line2d_14">
      <g>
       <use style="stroke:#000000;stroke-width:0.5;" x="965.52" xlink:href="#m9ce44164c6" y="453.6"/>
      </g>
     </g>
     <g id="line2d_15">
      <g>
       <use style="stroke:#000000;stroke-width:0.5;" x="965.52" xlink:href="#m846d9bade1" y="50.4"/>
      </g>
     </g>
     <g id="text_6">
      <!-- 500 -->
      <defs>
       <path d="M 10.796875 72.90625 
L 49.515625 72.90625 
L 49.515625 64.59375 
L 19.828125 64.59375 
L 19.828125 46.734375 
Q 21.96875 47.46875 24.109375 47.828125 
Q 26.265625 48.1875 28.421875 48.1875 
Q 40.625 48.1875 47.75 41.5 
Q 54.890625 34.8125 54.890625 23.390625 
Q 54.890625 11.625 47.5625 5.09375 
Q 40.234375 -1.421875 26.90625 -1.421875 
Q 22.3125 -1.421875 17.546875 -0.640625 
Q 12.796875 0.140625 7.71875 1.703125 
L 7.71875 11.625 
Q 12.109375 9.234375 16.796875 8.0625 
Q 21.484375 6.890625 26.703125 6.890625 
Q 35.15625 6.890625 40.078125 11.328125 
Q 45.015625 15.765625 45.015625 23.390625 
Q 45.015625 31 40.078125 35.4375 
Q 35.15625 39.890625 26.703125 39.890625 
Q 22.75 39.890625 18.8125 39.015625 
Q 14.890625 38.140625 10.796875 36.28125 
z
" id="BitstreamVeraSans-Roman-35"/>
      </defs>
      <g transform="translate(954.0675 466.718125)scale(0.12 -0.12)">
       <use xlink:href="#BitstreamVeraSans-Roman-35"/>
       <use x="63.623046875" xlink:href="#BitstreamVeraSans-Roman-30"/>
       <use x="127.24609375" xlink:href="#BitstreamVeraSans-Roman-30"/>
      </g>
     </g>
    </g>
    <g id="text_7">
     <!-- Time -->
     <defs>
      <path d="M 56.203125 29.59375 
L 56.203125 25.203125 
L 14.890625 25.203125 
Q 15.484375 15.921875 20.484375 11.0625 
Q 25.484375 6.203125 34.421875 6.203125 
Q 39.59375 6.203125 44.453125 7.46875 
Q 49.3125 8.734375 54.109375 11.28125 
L 54.109375 2.78125 
Q 49.265625 0.734375 44.1875 -0.34375 
Q 39.109375 -1.421875 33.890625 -1.421875 
Q 20.796875 -1.421875 13.15625 6.1875 
Q 5.515625 13.8125 5.515625 26.8125 
Q 5.515625 40.234375 12.765625 48.109375 
Q 20.015625 56 32.328125 56 
Q 43.359375 56 49.78125 48.890625 
Q 56.203125 41.796875 56.203125 29.59375 
M 47.21875 32.234375 
Q 47.125 39.59375 43.09375 43.984375 
Q 39.0625 48.390625 32.421875 48.390625 
Q 24.90625 48.390625 20.390625 44.140625 
Q 15.875 39.890625 15.1875 32.171875 
z
" id="BitstreamVeraSans-Roman-65"/>
      <path d="M 9.421875 54.6875 
L 18.40625 54.6875 
L 18.40625 0 
L 9.421875 0 
z
M 9.421875 75.984375 
L 18.40625 75.984375 
L 18.40625 64.59375 
L 9.421875 64.59375 
z
" id="BitstreamVeraSans-Roman-69"/>
      <path d="M -0.296875 72.90625 
L 61.375 72.90625 
L 61.375 64.59375 
L 35.5 64.59375 
L 35.5 0 
L 25.59375 0 
L 25.59375 64.59375 
L -0.296875 64.59375 
z
" id="BitstreamVeraSans-Roman-54"/>
      <path d="M 52 44.1875 
Q 55.375 50.25 60.0625 53.125 
Q 64.75 56 71.09375 56 
Q 79.640625 56 84.28125 50.015625 
Q 88.921875 44.046875 88.921875 33.015625 
L 88.921875 0 
L 79.890625 0 
L 79.890625 32.71875 
Q 79.890625 40.578125 77.09375 44.375 
Q 74.3125 48.1875 68.609375 48.1875 
Q 61.625 48.1875 57.5625 43.546875 
Q 53.515625 38.921875 53.515625 30.90625 
L 53.515625 0 
L 44.484375 0 
L 44.484375 32.71875 
Q 44.484375 40.625 41.703125 44.40625 
Q 38.921875 48.1875 33.109375 48.1875 
Q 26.21875 48.1875 22.15625 43.53125 
Q 18.109375 38.875 18.109375 30.90625 
L 18.109375 0 
L 9.078125 0 
L 9.078125 54.6875 
L 18.109375 54.6875 
L 18.109375 46.1875 
Q 21.1875 51.21875 25.484375 53.609375 
Q 29.78125 56 35.6875 56 
Q 41.65625 56 45.828125 52.96875 
Q 50 49.953125 52 44.1875 
" id="BitstreamVeraSans-Roman-6d"/>
     </defs>
     <g transform="translate(548.895 483.331875)scale(0.12 -0.12)">
      <use xlink:href="#BitstreamVeraSans-Roman-54"/>
      <use x="61.037109375" xlink:href="#BitstreamVeraSans-Roman-69"/>
      <use x="88.8203125" xlink:href="#BitstreamVeraSans-Roman-6d"/>
      <use x="186.232421875" xlink:href="#BitstreamVeraSans-Roman-65"/>
     </g>
    </g>
   </g>
   <g id="matplotlib.axis_2">
    <g id="ytick_1">
     <g id="line2d_16">
      <defs>
       <path d="M 0 0 
L 4 0 
" id="mfaea52093d" style="stroke:#000000;stroke-width:0.5;"/>
      </defs>
      <g>
       <use style="stroke:#000000;stroke-width:0.5;" x="162.0" xlink:href="#mfaea52093d" y="453.6"/>
      </g>
     </g>
     <g id="line2d_17">
      <defs>
       <path d="M 0 0 
L -4 0 
" id="mb6e13acbbc" style="stroke:#000000;stroke-width:0.5;"/>
      </defs>
      <g>
       <use style="stroke:#000000;stroke-width:0.5;" x="965.52" xlink:href="#mb6e13acbbc" y="453.6"/>
      </g>
     </g>
     <g id="text_8">
      <!-- 0 -->
      <g transform="translate(150.365 456.91125)scale(0.12 -0.12)">
       <use xlink:href="#BitstreamVeraSans-Roman-30"/>
      </g>
     </g>
    </g>
    <g id="ytick_2">
     <g id="line2d_18">
      <g>
       <use style="stroke:#000000;stroke-width:0.5;" x="162.0" xlink:href="#mfaea52093d" y="403.2"/>
      </g>
     </g>
     <g id="line2d_19">
      <g>
       <use style="stroke:#000000;stroke-width:0.5;" x="965.52" xlink:href="#mb6e13acbbc" y="403.2"/>
      </g>
     </g>
     <g id="text_9">
      <!-- 10 -->
      <g transform="translate(142.73 406.51125)scale(0.12 -0.12)">
       <use xlink:href="#BitstreamVeraSans-Roman-31"/>
       <use x="63.623046875" xlink:href="#BitstreamVeraSans-Roman-30"/>
      </g>
     </g>
    </g>
    <g id="ytick_3">
     <g id="line2d_20">
      <g>
       <use style="stroke:#000000;stroke-width:0.5;" x="162.0" xlink:href="#mfaea52093d" y="352.8"/>
      </g>
     </g>
     <g id="line2d_21">
      <g>
       <use style="stroke:#000000;stroke-width:0.5;" x="965.52" xlink:href="#mb6e13acbbc" y="352.8"/>
      </g>
     </g>
     <g id="text_10">
      <!-- 20 -->
      <g transform="translate(142.73 356.11125)scale(0.12 -0.12)">
       <use xlink:href="#BitstreamVeraSans-Roman-32"/>
       <use x="63.623046875" xlink:href="#BitstreamVeraSans-Roman-30"/>
      </g>
     </g>
    </g>
    <g id="ytick_4">
     <g id="line2d_22">
      <g>
       <use style="stroke:#000000;stroke-width:0.5;" x="162.0" xlink:href="#mfaea52093d" y="302.4"/>
      </g>
     </g>
     <g id="line2d_23">
      <g>
       <use style="stroke:#000000;stroke-width:0.5;" x="965.52" xlink:href="#mb6e13acbbc" y="302.4"/>
      </g>
     </g>
     <g id="text_11">
      <!-- 30 -->
      <g transform="translate(142.73 305.71125)scale(0.12 -0.12)">
       <use xlink:href="#BitstreamVeraSans-Roman-33"/>
       <use x="63.623046875" xlink:href="#BitstreamVeraSans-Roman-30"/>
      </g>
     </g>
    </g>
    <g id="ytick_5">
     <g id="line2d_24">
      <g>
       <use style="stroke:#000000;stroke-width:0.5;" x="162.0" xlink:href="#mfaea52093d" y="252.0"/>
      </g>
     </g>
     <g id="line2d_25">
      <g>
       <use style="stroke:#000000;stroke-width:0.5;" x="965.52" xlink:href="#mb6e13acbbc" y="252.0"/>
      </g>
     </g>
     <g id="text_12">
      <!-- 40 -->
      <g transform="translate(142.73 255.31125)scale(0.12 -0.12)">
       <use xlink:href="#BitstreamVeraSans-Roman-34"/>
       <use x="63.623046875" xlink:href="#BitstreamVeraSans-Roman-30"/>
      </g>
     </g>
    </g>
    <g id="ytick_6">
     <g id="line2d_26">
      <g>
       <use style="stroke:#000000;stroke-width:0.5;" x="162.0" xlink:href="#mfaea52093d" y="201.6"/>
      </g>
     </g>
     <g id="line2d_27">
      <g>
       <use style="stroke:#000000;stroke-width:0.5;" x="965.52" xlink:href="#mb6e13acbbc" y="201.6"/>
      </g>
     </g>
     <g id="text_13">
      <!-- 50 -->
      <g transform="translate(142.73 204.91125)scale(0.12 -0.12)">
       <use xlink:href="#BitstreamVeraSans-Roman-35"/>
       <use x="63.623046875" xlink:href="#BitstreamVeraSans-Roman-30"/>
      </g>
     </g>
    </g>
    <g id="ytick_7">
     <g id="line2d_28">
      <g>
       <use style="stroke:#000000;stroke-width:0.5;" x="162.0" xlink:href="#mfaea52093d" y="151.2"/>
      </g>
     </g>
     <g id="line2d_29">
      <g>
       <use style="stroke:#000000;stroke-width:0.5;" x="965.52" xlink:href="#mb6e13acbbc" y="151.2"/>
      </g>
     </g>
     <g id="text_14">
      <!-- 60 -->
      <defs>
       <path d="M 33.015625 40.375 
Q 26.375 40.375 22.484375 35.828125 
Q 18.609375 31.296875 18.609375 23.390625 
Q 18.609375 15.53125 22.484375 10.953125 
Q 26.375 6.390625 33.015625 6.390625 
Q 39.65625 6.390625 43.53125 10.953125 
Q 47.40625 15.53125 47.40625 23.390625 
Q 47.40625 31.296875 43.53125 35.828125 
Q 39.65625 40.375 33.015625 40.375 
M 52.59375 71.296875 
L 52.59375 62.3125 
Q 48.875 64.0625 45.09375 64.984375 
Q 41.3125 65.921875 37.59375 65.921875 
Q 27.828125 65.921875 22.671875 59.328125 
Q 17.53125 52.734375 16.796875 39.40625 
Q 19.671875 43.65625 24.015625 45.921875 
Q 28.375 48.1875 33.59375 48.1875 
Q 44.578125 48.1875 50.953125 41.515625 
Q 57.328125 34.859375 57.328125 23.390625 
Q 57.328125 12.15625 50.6875 5.359375 
Q 44.046875 -1.421875 33.015625 -1.421875 
Q 20.359375 -1.421875 13.671875 8.265625 
Q 6.984375 17.96875 6.984375 36.375 
Q 6.984375 53.65625 15.1875 63.9375 
Q 23.390625 74.21875 37.203125 74.21875 
Q 40.921875 74.21875 44.703125 73.484375 
Q 48.484375 72.75 52.59375 71.296875 
" id="BitstreamVeraSans-Roman-36"/>
      </defs>
      <g transform="translate(142.73 154.51125)scale(0.12 -0.12)">
       <use xlink:href="#BitstreamVeraSans-Roman-36"/>
       <use x="63.623046875" xlink:href="#BitstreamVeraSans-Roman-30"/>
      </g>
     </g>
    </g>
    <g id="ytick_8">
     <g id="line2d_30">
      <g>
       <use style="stroke:#000000;stroke-width:0.5;" x="162.0" xlink:href="#mfaea52093d" y="100.8"/>
      </g>
     </g>
     <g id="line2d_31">
      <g>
       <use style="stroke:#000000;stroke-width:0.5;" x="965.52" xlink:href="#mb6e13acbbc" y="100.8"/>
      </g>
     </g>
     <g id="text_15">
      <!-- 70 -->
      <defs>
       <path d="M 8.203125 72.90625 
L 55.078125 72.90625 
L 55.078125 68.703125 
L 28.609375 0 
L 18.3125 0 
L 43.21875 64.59375 
L 8.203125 64.59375 
z
" id="BitstreamVeraSans-Roman-37"/>
      </defs>
      <g transform="translate(142.73 104.11125)scale(0.12 -0.12)">
       <use xlink:href="#BitstreamVeraSans-Roman-37"/>
       <use x="63.623046875" xlink:href="#BitstreamVeraSans-Roman-30"/>
      </g>
     </g>
    </g>
    <g id="ytick_9">
     <g id="line2d_32">
      <g>
       <use style="stroke:#000000;stroke-width:0.5;" x="162.0" xlink:href="#mfaea52093d" y="50.4"/>
      </g>
     </g>
     <g id="line2d_33">
      <g>
       <use style="stroke:#000000;stroke-width:0.5;" x="965.52" xlink:href="#mb6e13acbbc" y="50.4"/>
      </g>
     </g>
     <g id="text_16">
      <!-- 80 -->
      <defs>
       <path d="M 31.78125 34.625 
Q 24.75 34.625 20.71875 30.859375 
Q 16.703125 27.09375 16.703125 20.515625 
Q 16.703125 13.921875 20.71875 10.15625 
Q 24.75 6.390625 31.78125 6.390625 
Q 38.8125 6.390625 42.859375 10.171875 
Q 46.921875 13.96875 46.921875 20.515625 
Q 46.921875 27.09375 42.890625 30.859375 
Q 38.875 34.625 31.78125 34.625 
M 21.921875 38.8125 
Q 15.578125 40.375 12.03125 44.71875 
Q 8.5 49.078125 8.5 55.328125 
Q 8.5 64.0625 14.71875 69.140625 
Q 20.953125 74.21875 31.78125 74.21875 
Q 42.671875 74.21875 48.875 69.140625 
Q 55.078125 64.0625 55.078125 55.328125 
Q 55.078125 49.078125 51.53125 44.71875 
Q 48 40.375 41.703125 38.8125 
Q 48.828125 37.15625 52.796875 32.3125 
Q 56.78125 27.484375 56.78125 20.515625 
Q 56.78125 9.90625 50.3125 4.234375 
Q 43.84375 -1.421875 31.78125 -1.421875 
Q 19.734375 -1.421875 13.25 4.234375 
Q 6.78125 9.90625 6.78125 20.515625 
Q 6.78125 27.484375 10.78125 32.3125 
Q 14.796875 37.15625 21.921875 38.8125 
M 18.3125 54.390625 
Q 18.3125 48.734375 21.84375 45.5625 
Q 25.390625 42.390625 31.78125 42.390625 
Q 38.140625 42.390625 41.71875 45.5625 
Q 45.3125 48.734375 45.3125 54.390625 
Q 45.3125 60.0625 41.71875 63.234375 
Q 38.140625 66.40625 31.78125 66.40625 
Q 25.390625 66.40625 21.84375 63.234375 
Q 18.3125 60.0625 18.3125 54.390625 
" id="BitstreamVeraSans-Roman-38"/>
      </defs>
      <g transform="translate(142.73 53.71125)scale(0.12 -0.12)">
       <use xlink:href="#BitstreamVeraSans-Roman-38"/>
       <use x="63.623046875" xlink:href="#BitstreamVeraSans-Roman-30"/>
      </g>
     </g>
    </g>
    <g id="text_17">
     <!-- #flocks -->
     <defs>
      <path d="M 51.125 44 
L 36.921875 44 
L 32.8125 27.6875 
L 47.125 27.6875 
z
M 43.796875 71.78125 
L 38.71875 51.515625 
L 52.984375 51.515625 
L 58.109375 71.78125 
L 65.921875 71.78125 
L 60.890625 51.515625 
L 76.125 51.515625 
L 76.125 44 
L 58.984375 44 
L 54.984375 27.6875 
L 70.515625 27.6875 
L 70.515625 20.21875 
L 53.078125 20.21875 
L 48 0 
L 40.1875 0 
L 45.21875 20.21875 
L 30.90625 20.21875 
L 25.875 0 
L 18.015625 0 
L 23.09375 20.21875 
L 7.71875 20.21875 
L 7.71875 27.6875 
L 24.90625 27.6875 
L 29 44 
L 13.28125 44 
L 13.28125 51.515625 
L 30.90625 51.515625 
L 35.890625 71.78125 
z
" id="BitstreamVeraSans-Roman-23"/>
      <path d="M 30.609375 48.390625 
Q 23.390625 48.390625 19.1875 42.75 
Q 14.984375 37.109375 14.984375 27.296875 
Q 14.984375 17.484375 19.15625 11.84375 
Q 23.34375 6.203125 30.609375 6.203125 
Q 37.796875 6.203125 41.984375 11.859375 
Q 46.1875 17.53125 46.1875 27.296875 
Q 46.1875 37.015625 41.984375 42.703125 
Q 37.796875 48.390625 30.609375 48.390625 
M 30.609375 56 
Q 42.328125 56 49.015625 48.375 
Q 55.71875 40.765625 55.71875 27.296875 
Q 55.71875 13.875 49.015625 6.21875 
Q 42.328125 -1.421875 30.609375 -1.421875 
Q 18.84375 -1.421875 12.171875 6.21875 
Q 5.515625 13.875 5.515625 27.296875 
Q 5.515625 40.765625 12.171875 48.375 
Q 18.84375 56 30.609375 56 
" id="BitstreamVeraSans-Roman-6f"/>
      <path d="M 9.421875 75.984375 
L 18.40625 75.984375 
L 18.40625 0 
L 9.421875 0 
z
" id="BitstreamVeraSans-Roman-6c"/>
      <path d="M 9.078125 75.984375 
L 18.109375 75.984375 
L 18.109375 31.109375 
L 44.921875 54.6875 
L 56.390625 54.6875 
L 27.390625 29.109375 
L 57.625 0 
L 45.90625 0 
L 18.109375 26.703125 
L 18.109375 0 
L 9.078125 0 
z
" id="BitstreamVeraSans-Roman-6b"/>
      <path d="M 37.109375 75.984375 
L 37.109375 68.5 
L 28.515625 68.5 
Q 23.6875 68.5 21.796875 66.546875 
Q 19.921875 64.59375 19.921875 59.515625 
L 19.921875 54.6875 
L 34.71875 54.6875 
L 34.71875 47.703125 
L 19.921875 47.703125 
L 19.921875 0 
L 10.890625 0 
L 10.890625 47.703125 
L 2.296875 47.703125 
L 2.296875 54.6875 
L 10.890625 54.6875 
L 10.890625 58.5 
Q 10.890625 67.625 15.140625 71.796875 
Q 19.390625 75.984375 28.609375 75.984375 
z
" id="BitstreamVeraSans-Roman-66"/>
      <path d="M 44.28125 53.078125 
L 44.28125 44.578125 
Q 40.484375 46.53125 36.375 47.5 
Q 32.28125 48.484375 27.875 48.484375 
Q 21.1875 48.484375 17.84375 46.4375 
Q 14.5 44.390625 14.5 40.28125 
Q 14.5 37.15625 16.890625 35.375 
Q 19.28125 33.59375 26.515625 31.984375 
L 29.59375 31.296875 
Q 39.15625 29.25 43.1875 25.515625 
Q 47.21875 21.78125 47.21875 15.09375 
Q 47.21875 7.46875 41.1875 3.015625 
Q 35.15625 -1.421875 24.609375 -1.421875 
Q 20.21875 -1.421875 15.453125 -0.5625 
Q 10.6875 0.296875 5.421875 2 
L 5.421875 11.28125 
Q 10.40625 8.6875 15.234375 7.390625 
Q 20.0625 6.109375 24.8125 6.109375 
Q 31.15625 6.109375 34.5625 8.28125 
Q 37.984375 10.453125 37.984375 14.40625 
Q 37.984375 18.0625 35.515625 20.015625 
Q 33.0625 21.96875 24.703125 23.78125 
L 21.578125 24.515625 
Q 13.234375 26.265625 9.515625 29.90625 
Q 5.8125 33.546875 5.8125 39.890625 
Q 5.8125 47.609375 11.28125 51.796875 
Q 16.75 56 26.8125 56 
Q 31.78125 56 36.171875 55.265625 
Q 40.578125 54.546875 44.28125 53.078125 
" id="BitstreamVeraSans-Roman-73"/>
      <path d="M 48.78125 52.59375 
L 48.78125 44.1875 
Q 44.96875 46.296875 41.140625 47.34375 
Q 37.3125 48.390625 33.40625 48.390625 
Q 24.65625 48.390625 19.8125 42.84375 
Q 14.984375 37.3125 14.984375 27.296875 
Q 14.984375 17.28125 19.8125 11.734375 
Q 24.65625 6.203125 33.40625 6.203125 
Q 37.3125 6.203125 41.140625 7.25 
Q 44.96875 8.296875 48.78125 10.40625 
L 48.78125 2.09375 
Q 45.015625 0.34375 40.984375 -0.53125 
Q 36.96875 -1.421875 32.421875 -1.421875 
Q 20.0625 -1.421875 12.78125 6.34375 
Q 5.515625 14.109375 5.515625 27.296875 
Q 5.515625 40.671875 12.859375 48.328125 
Q 20.21875 56 33.015625 56 
Q 37.15625 56 41.109375 55.140625 
Q 45.0625 54.296875 48.78125 52.59375 
" id="BitstreamVeraSans-Roman-63"/>
     </defs>
     <g transform="translate(135.234375 274.3771875)rotate(-90.0)scale(0.12 -0.12)">
      <use xlink:href="#BitstreamVeraSans-Roman-23"/>
      <use x="83.7890625" xlink:href="#BitstreamVeraSans-Roman-66"/>
      <use x="118.994140625" xlink:href="#BitstreamVeraSans-Roman-6c"/>
      <use x="146.77734375" xlink:href="#BitstreamVeraSans-Roman-6f"/>
      <use x="207.958984375" xlink:href="#BitstreamVeraSans-Roman-63"/>
      <use x="262.939453125" xlink:href="#BitstreamVeraSans-Roman-6b"/>
      <use x="320.849609375" xlink:href="#BitstreamVeraSans-Roman-73"/>
     </g>
    </g>
   </g>
   <g id="text_18">
    <!-- Scaling up: #flocks -->
    <defs>
     <path id="BitstreamVeraSans-Roman-20"/>
     <path d="M 54.890625 33.015625 
L 54.890625 0 
L 45.90625 0 
L 45.90625 32.71875 
Q 45.90625 40.484375 42.875 44.328125 
Q 39.84375 48.1875 33.796875 48.1875 
Q 26.515625 48.1875 22.3125 43.546875 
Q 18.109375 38.921875 18.109375 30.90625 
L 18.109375 0 
L 9.078125 0 
L 9.078125 54.6875 
L 18.109375 54.6875 
L 18.109375 46.1875 
Q 21.34375 51.125 25.703125 53.5625 
Q 30.078125 56 35.796875 56 
Q 45.21875 56 50.046875 50.171875 
Q 54.890625 44.34375 54.890625 33.015625 
" id="BitstreamVeraSans-Roman-6e"/>
     <path d="M 11.71875 12.40625 
L 22.015625 12.40625 
L 22.015625 0 
L 11.71875 0 
z
M 11.71875 51.703125 
L 22.015625 51.703125 
L 22.015625 39.3125 
L 11.71875 39.3125 
z
" id="BitstreamVeraSans-Roman-3a"/>
     <path d="M 53.515625 70.515625 
L 53.515625 60.890625 
Q 47.90625 63.578125 42.921875 64.890625 
Q 37.9375 66.21875 33.296875 66.21875 
Q 25.25 66.21875 20.875 63.09375 
Q 16.5 59.96875 16.5 54.203125 
Q 16.5 49.359375 19.40625 46.890625 
Q 22.3125 44.4375 30.421875 42.921875 
L 36.375 41.703125 
Q 47.40625 39.59375 52.65625 34.296875 
Q 57.90625 29 57.90625 20.125 
Q 57.90625 9.515625 50.796875 4.046875 
Q 43.703125 -1.421875 29.984375 -1.421875 
Q 24.8125 -1.421875 18.96875 -0.25 
Q 13.140625 0.921875 6.890625 3.21875 
L 6.890625 13.375 
Q 12.890625 10.015625 18.65625 8.296875 
Q 24.421875 6.59375 29.984375 6.59375 
Q 38.421875 6.59375 43.015625 9.90625 
Q 47.609375 13.234375 47.609375 19.390625 
Q 47.609375 24.75 44.3125 27.78125 
Q 41.015625 30.8125 33.5 32.328125 
L 27.484375 33.5 
Q 16.453125 35.6875 11.515625 40.375 
Q 6.59375 45.0625 6.59375 53.421875 
Q 6.59375 63.09375 13.40625 68.65625 
Q 20.21875 74.21875 32.171875 74.21875 
Q 37.3125 74.21875 42.625 73.28125 
Q 47.953125 72.359375 53.515625 70.515625 
" id="BitstreamVeraSans-Roman-53"/>
     <path d="M 45.40625 27.984375 
Q 45.40625 37.75 41.375 43.109375 
Q 37.359375 48.484375 30.078125 48.484375 
Q 22.859375 48.484375 18.828125 43.109375 
Q 14.796875 37.75 14.796875 27.984375 
Q 14.796875 18.265625 18.828125 12.890625 
Q 22.859375 7.515625 30.078125 7.515625 
Q 37.359375 7.515625 41.375 12.890625 
Q 45.40625 18.265625 45.40625 27.984375 
M 54.390625 6.78125 
Q 54.390625 -7.171875 48.1875 -13.984375 
Q 42 -20.796875 29.203125 -20.796875 
Q 24.46875 -20.796875 20.265625 -20.09375 
Q 16.0625 -19.390625 12.109375 -17.921875 
L 12.109375 -9.1875 
Q 16.0625 -11.328125 19.921875 -12.34375 
Q 23.78125 -13.375 27.78125 -13.375 
Q 36.625 -13.375 41.015625 -8.765625 
Q 45.40625 -4.15625 45.40625 5.171875 
L 45.40625 9.625 
Q 42.625 4.78125 38.28125 2.390625 
Q 33.9375 0 27.875 0 
Q 17.828125 0 11.671875 7.65625 
Q 5.515625 15.328125 5.515625 27.984375 
Q 5.515625 40.671875 11.671875 48.328125 
Q 17.828125 56 27.875 56 
Q 33.9375 56 38.28125 53.609375 
Q 42.625 51.21875 45.40625 46.390625 
L 45.40625 54.6875 
L 54.390625 54.6875 
z
" id="BitstreamVeraSans-Roman-67"/>
     <path d="M 8.5 21.578125 
L 8.5 54.6875 
L 17.484375 54.6875 
L 17.484375 21.921875 
Q 17.484375 14.15625 20.5 10.265625 
Q 23.53125 6.390625 29.59375 6.390625 
Q 36.859375 6.390625 41.078125 11.03125 
Q 45.3125 15.671875 45.3125 23.6875 
L 45.3125 54.6875 
L 54.296875 54.6875 
L 54.296875 0 
L 45.3125 0 
L 45.3125 8.40625 
Q 42.046875 3.421875 37.71875 1 
Q 33.40625 -1.421875 27.6875 -1.421875 
Q 18.265625 -1.421875 13.375 4.4375 
Q 8.5 10.296875 8.5 21.578125 
" id="BitstreamVeraSans-Roman-75"/>
     <path d="M 34.28125 27.484375 
Q 23.390625 27.484375 19.1875 25 
Q 14.984375 22.515625 14.984375 16.5 
Q 14.984375 11.71875 18.140625 8.90625 
Q 21.296875 6.109375 26.703125 6.109375 
Q 34.1875 6.109375 38.703125 11.40625 
Q 43.21875 16.703125 43.21875 25.484375 
L 43.21875 27.484375 
z
M 52.203125 31.203125 
L 52.203125 0 
L 43.21875 0 
L 43.21875 8.296875 
Q 40.140625 3.328125 35.546875 0.953125 
Q 30.953125 -1.421875 24.3125 -1.421875 
Q 15.921875 -1.421875 10.953125 3.296875 
Q 6 8.015625 6 15.921875 
Q 6 25.140625 12.171875 29.828125 
Q 18.359375 34.515625 30.609375 34.515625 
L 43.21875 34.515625 
L 43.21875 35.40625 
Q 43.21875 41.609375 39.140625 45 
Q 35.0625 48.390625 27.6875 48.390625 
Q 23 48.390625 18.546875 47.265625 
Q 14.109375 46.140625 10.015625 43.890625 
L 10.015625 52.203125 
Q 14.9375 54.109375 19.578125 55.046875 
Q 24.21875 56 28.609375 56 
Q 40.484375 56 46.34375 49.84375 
Q 52.203125 43.703125 52.203125 31.203125 
" id="BitstreamVeraSans-Roman-61"/>
     <path d="M 18.109375 8.203125 
L 18.109375 -20.796875 
L 9.078125 -20.796875 
L 9.078125 54.6875 
L 18.109375 54.6875 
L 18.109375 46.390625 
Q 20.953125 51.265625 25.265625 53.625 
Q 29.59375 56 35.59375 56 
Q 45.5625 56 51.78125 48.09375 
Q 58.015625 40.1875 58.015625 27.296875 
Q 58.015625 14.40625 51.78125 6.484375 
Q 45.5625 -1.421875 35.59375 -1.421875 
Q 29.59375 -1.421875 25.265625 0.953125 
Q 20.953125 3.328125 18.109375 8.203125 
M 48.6875 27.296875 
Q 48.6875 37.203125 44.609375 42.84375 
Q 40.53125 48.484375 33.40625 48.484375 
Q 26.265625 48.484375 22.1875 42.84375 
Q 18.109375 37.203125 18.109375 27.296875 
Q 18.109375 17.390625 22.1875 11.75 
Q 26.265625 6.109375 33.40625 6.109375 
Q 40.53125 6.109375 44.609375 11.75 
Q 48.6875 17.390625 48.6875 27.296875 
" id="BitstreamVeraSans-Roman-70"/>
    </defs>
    <g transform="translate(494.695125 45.4)scale(0.144 -0.144)">
     <use xlink:href="#BitstreamVeraSans-Roman-53"/>
     <use x="63.4765625" xlink:href="#BitstreamVeraSans-Roman-63"/>
     <use x="118.45703125" xlink:href="#BitstreamVeraSans-Roman-61"/>
     <use x="179.736328125" xlink:href="#BitstreamVeraSans-Roman-6c"/>
     <use x="207.51953125" xlink:href="#BitstreamVeraSans-Roman-69"/>
     <use x="235.302734375" xlink:href="#BitstreamVeraSans-Roman-6e"/>
     <use x="298.681640625" xlink:href="#BitstreamVeraSans-Roman-67"/>
     <use x="362.158203125" xlink:href="#BitstreamVeraSans-Roman-20"/>
     <use x="393.9453125" xlink:href="#BitstreamVeraSans-Roman-75"/>
     <use x="457.32421875" xlink:href="#BitstreamVeraSans-Roman-70"/>
     <use x="520.80078125" xlink:href="#BitstreamVeraSans-Roman-3a"/>
     <use x="554.4921875" xlink:href="#BitstreamVeraSans-Roman-20"/>
     <use x="586.279296875" xlink:href="#BitstreamVeraSans-Roman-23"/>
     <use x="670.068359375" xlink:href="#BitstreamVeraSans-Roman-66"/>
     <use x="705.2734375" xlink:href="#BitstreamVeraSans-Roman-6c"/>
     <use x="733.056640625" xlink:href="#BitstreamVeraSans-Roman-6f"/>
     <use x="794.23828125" xlink:href="#BitstreamVeraSans-Roman-63"/>
     <use x="849.21875" xlink:href="#BitstreamVeraSans-Roman-6b"/>
     <use x="907.12890625" xlink:href="#BitstreamVeraSans-Roman-73"/>
    </g>
   </g>
   <g id="legend_1">
    <g id="patch_7">
     <path d="M 972.72 117.2655 
L 1074.096 117.2655 
L 1074.096 49.536 
L 972.72 49.536 
z
" style="fill:#ffffff;stroke:#000000;stroke-linejoin:miter;"/>
    </g>
    <g id="line2d_34">
     <path d="M 982.8 61.19775 
L 1002.96 61.19775 
" style="fill:none;stroke:#0000ff;stroke-linecap:square;"/>
    </g>
    <g id="line2d_35"/>
    <g id="text_19">
     <!-- $N=30$ -->
     <defs>
      <path d="M 9.515625 7.71875 
Q 11.859375 4.296875 15.8125 2.640625 
Q 19.78125 0.984375 24.3125 0.984375 
Q 30.125 0.984375 32.5625 5.9375 
Q 35.015625 10.890625 35.015625 17.1875 
Q 35.015625 20.015625 34.5 22.84375 
Q 33.984375 25.6875 32.765625 28.125 
Q 31.546875 30.5625 29.421875 32.03125 
Q 27.296875 33.5 24.21875 33.5 
L 17.578125 33.5 
Q 16.703125 33.5 16.703125 34.421875 
L 16.703125 35.296875 
Q 16.703125 36.078125 17.578125 36.078125 
L 23.09375 36.53125 
Q 26.609375 36.53125 28.921875 39.15625 
Q 31.25 41.796875 32.328125 45.578125 
Q 33.40625 49.359375 33.40625 52.78125 
Q 33.40625 57.5625 31.15625 60.640625 
Q 28.90625 63.71875 24.3125 63.71875 
Q 20.515625 63.71875 17.046875 62.28125 
Q 13.578125 60.84375 11.53125 57.90625 
Q 11.71875 57.953125 11.859375 57.984375 
Q 12.015625 58.015625 12.203125 58.015625 
Q 14.453125 58.015625 15.96875 56.453125 
Q 17.484375 54.890625 17.484375 52.6875 
Q 17.484375 50.53125 15.96875 48.96875 
Q 14.453125 47.40625 12.203125 47.40625 
Q 10.015625 47.40625 8.453125 48.96875 
Q 6.890625 50.53125 6.890625 52.6875 
Q 6.890625 56.984375 9.46875 60.15625 
Q 12.0625 63.328125 16.140625 64.96875 
Q 20.21875 66.609375 24.3125 66.609375 
Q 27.34375 66.609375 30.703125 65.703125 
Q 34.078125 64.796875 36.8125 63.109375 
Q 39.546875 61.421875 41.28125 58.78125 
Q 43.015625 56.15625 43.015625 52.78125 
Q 43.015625 48.578125 41.140625 45.015625 
Q 39.265625 41.453125 35.984375 38.859375 
Q 32.71875 36.28125 28.8125 35.015625 
Q 33.15625 34.1875 37.0625 31.734375 
Q 40.96875 29.296875 43.328125 25.484375 
Q 45.703125 21.6875 45.703125 17.28125 
Q 45.703125 11.765625 42.671875 7.296875 
Q 39.65625 2.828125 34.71875 0.3125 
Q 29.78125 -2.203125 24.3125 -2.203125 
Q 19.625 -2.203125 14.90625 -0.40625 
Q 10.203125 1.375 7.203125 4.9375 
Q 4.203125 8.5 4.203125 13.484375 
Q 4.203125 15.96875 5.859375 17.625 
Q 7.515625 19.28125 10.015625 19.28125 
Q 11.625 19.28125 12.96875 18.53125 
Q 14.3125 17.78125 15.0625 16.40625 
Q 15.828125 15.046875 15.828125 13.484375 
Q 15.828125 11.03125 14.109375 9.375 
Q 12.40625 7.71875 10.015625 7.71875 
z
" id="Cmr10-33"/>
      <path d="M 4.6875 0 
Q 3.71875 0 3.71875 1.3125 
Q 3.765625 1.5625 3.90625 2.171875 
Q 4.046875 2.78125 4.3125 3.140625 
Q 4.59375 3.515625 4.984375 3.515625 
Q 14.546875 3.515625 16.109375 9.625 
L 29.6875 64.3125 
Q 26.90625 64.796875 20.90625 64.796875 
Q 19.921875 64.796875 19.921875 66.109375 
Q 19.96875 66.359375 20.109375 66.96875 
Q 20.265625 67.578125 20.53125 67.9375 
Q 20.796875 68.3125 21.1875 68.3125 
L 38.484375 68.3125 
Q 39.203125 68.3125 39.40625 67.671875 
L 61.625 14.796875 
L 72.703125 59.078125 
Q 72.90625 60.15625 72.90625 60.59375 
Q 72.90625 64.796875 65.1875 64.796875 
Q 64.203125 64.796875 64.203125 66.109375 
Q 64.546875 67.390625 64.734375 67.84375 
Q 64.9375 68.3125 65.921875 68.3125 
L 87.3125 68.3125 
Q 88.28125 68.3125 88.28125 67 
Q 88.234375 66.75 88.078125 66.140625 
Q 87.9375 65.53125 87.671875 65.15625 
Q 87.40625 64.796875 87.015625 64.796875 
Q 77.4375 64.796875 75.875 58.6875 
L 61.53125 0.875 
Q 61.1875 0 60.5 0 
L 59.28125 0 
Q 58.59375 0 58.40625 0.6875 
L 32.90625 61.1875 
L 32.71875 61.8125 
Q 32.515625 62.015625 32.515625 62.109375 
L 19.28125 9.1875 
Q 19.1875 8.9375 19.140625 8.5625 
Q 19.09375 8.203125 19 7.71875 
Q 19 5.125 21.234375 4.3125 
Q 23.484375 3.515625 26.8125 3.515625 
Q 27.78125 3.515625 27.78125 2.203125 
Q 27.4375 0.828125 27.1875 0.40625 
Q 26.953125 0 26.125 0 
z
" id="Cmmi10-4e"/>
      <path d="M 25 -2.203125 
Q 12.75 -2.203125 8.328125 7.875 
Q 3.90625 17.96875 3.90625 31.890625 
Q 3.90625 40.578125 5.484375 48.234375 
Q 7.078125 55.90625 11.78125 61.25 
Q 16.5 66.609375 25 66.609375 
Q 31.59375 66.609375 35.78125 63.375 
Q 39.984375 60.15625 42.1875 55.046875 
Q 44.390625 49.953125 45.1875 44.109375 
Q 46 38.28125 46 31.890625 
Q 46 23.296875 44.40625 15.796875 
Q 42.828125 8.296875 38.1875 3.046875 
Q 33.546875 -2.203125 25 -2.203125 
M 25 0.390625 
Q 30.5625 0.390625 33.296875 6.09375 
Q 36.03125 11.8125 36.671875 18.75 
Q 37.3125 25.6875 37.3125 33.5 
Q 37.3125 41.015625 36.671875 47.359375 
Q 36.03125 53.71875 33.3125 58.859375 
Q 30.609375 64.015625 25 64.015625 
Q 19.34375 64.015625 16.609375 58.828125 
Q 13.875 53.65625 13.234375 47.328125 
Q 12.59375 41.015625 12.59375 33.5 
Q 12.59375 27.9375 12.859375 23 
Q 13.140625 18.0625 14.3125 12.8125 
Q 15.484375 7.5625 18.09375 3.96875 
Q 20.703125 0.390625 25 0.390625 
" id="Cmr10-30"/>
      <path d="M 7.515625 13.28125 
Q 6.6875 13.28125 6.140625 13.90625 
Q 5.609375 14.546875 5.609375 15.28125 
Q 5.609375 16.109375 6.140625 16.6875 
Q 6.6875 17.28125 7.515625 17.28125 
L 70.3125 17.28125 
Q 71.046875 17.28125 71.578125 16.6875 
Q 72.125 16.109375 72.125 15.28125 
Q 72.125 14.546875 71.578125 13.90625 
Q 71.046875 13.28125 70.3125 13.28125 
z
M 7.515625 32.71875 
Q 6.6875 32.71875 6.140625 33.296875 
Q 5.609375 33.890625 5.609375 34.71875 
Q 5.609375 35.453125 6.140625 36.078125 
Q 6.6875 36.71875 7.515625 36.71875 
L 70.3125 36.71875 
Q 71.046875 36.71875 71.578125 36.078125 
Q 72.125 35.453125 72.125 34.71875 
Q 72.125 33.890625 71.578125 33.296875 
Q 71.046875 32.71875 70.3125 32.71875 
z
" id="Cmr10-3d"/>
     </defs>
     <g transform="translate(1018.8 66.23775)scale(0.144 -0.144)">
      <use transform="translate(0.0 0.6875)" xlink:href="#Cmmi10-4e"/>
      <use transform="translate(97.880859375 0.6875)" xlink:href="#Cmr10-3d"/>
      <use transform="translate(193.125 0.6875)" xlink:href="#Cmr10-33"/>
      <use transform="translate(243.125 0.6875)" xlink:href="#Cmr10-30"/>
     </g>
    </g>
    <g id="line2d_36">
     <path d="M 982.8 82.33425 
L 1002.96 82.33425 
" style="fill:none;stroke:#008000;stroke-linecap:square;"/>
    </g>
    <g id="line2d_37"/>
    <g id="text_20">
     <!-- $N=60$ -->
     <defs>
      <path d="M 25 -2.203125 
Q 18.796875 -2.203125 14.640625 1.09375 
Q 10.5 4.390625 8.21875 9.640625 
Q 5.953125 14.890625 5.078125 20.65625 
Q 4.203125 26.421875 4.203125 32.328125 
Q 4.203125 40.234375 7.28125 48.1875 
Q 10.359375 56.15625 16.328125 61.375 
Q 22.3125 66.609375 30.515625 66.609375 
Q 33.9375 66.609375 36.890625 65.3125 
Q 39.84375 64.015625 41.53125 61.5 
Q 43.21875 58.984375 43.21875 55.421875 
Q 43.21875 53.375 41.828125 51.984375 
Q 40.4375 50.59375 38.375 50.59375 
Q 36.421875 50.59375 35 52 
Q 33.59375 53.421875 33.59375 55.421875 
Q 33.59375 57.375 35 58.78125 
Q 36.421875 60.203125 38.375 60.203125 
L 38.921875 60.203125 
Q 37.640625 62.015625 35.328125 62.859375 
Q 33.015625 63.71875 30.515625 63.71875 
Q 27.484375 63.71875 24.921875 62.390625 
Q 22.359375 61.078125 20.3125 58.828125 
Q 18.265625 56.59375 16.890625 53.875 
Q 15.53125 51.171875 14.765625 47.703125 
Q 14.015625 44.234375 13.8125 41.203125 
Q 13.625 38.1875 13.625 33.59375 
Q 15.375 37.703125 18.59375 40.3125 
Q 21.828125 42.921875 25.875 42.921875 
Q 30.328125 42.921875 33.984375 41.109375 
Q 37.640625 39.3125 40.28125 36.109375 
Q 42.921875 32.90625 44.3125 28.796875 
Q 45.703125 24.703125 45.703125 20.515625 
Q 45.703125 14.65625 43.09375 9.34375 
Q 40.484375 4.046875 35.734375 0.921875 
Q 31 -2.203125 25 -2.203125 
M 25 0.984375 
Q 28.859375 0.984375 31.203125 2.734375 
Q 33.546875 4.5 34.640625 7.390625 
Q 35.75 10.296875 36.015625 13.25 
Q 36.28125 16.21875 36.28125 20.515625 
Q 36.28125 26.171875 35.734375 30.171875 
Q 35.203125 34.1875 32.8125 37.234375 
Q 30.421875 40.28125 25.484375 40.28125 
Q 21.4375 40.28125 18.828125 37.546875 
Q 16.21875 34.8125 15.015625 30.640625 
Q 13.8125 26.46875 13.8125 22.609375 
Q 13.8125 21.296875 13.921875 20.609375 
Q 13.921875 20.453125 13.890625 20.359375 
Q 13.875 20.265625 13.8125 20.125 
Q 13.8125 15.828125 14.6875 11.421875 
Q 15.578125 7.03125 18.0625 4 
Q 20.5625 0.984375 25 0.984375 
" id="Cmr10-36"/>
     </defs>
     <g transform="translate(1018.8 87.37425)scale(0.144 -0.144)">
      <use transform="translate(0.0 0.6875)" xlink:href="#Cmmi10-4e"/>
      <use transform="translate(97.880859375 0.6875)" xlink:href="#Cmr10-3d"/>
      <use transform="translate(193.125 0.6875)" xlink:href="#Cmr10-36"/>
      <use transform="translate(243.125 0.6875)" xlink:href="#Cmr10-30"/>
     </g>
    </g>
    <g id="line2d_38">
     <path d="M 982.8 103.47075 
L 1002.96 103.47075 
" style="fill:none;stroke:#ff0000;stroke-linecap:square;"/>
    </g>
    <g id="line2d_39"/>
    <g id="text_21">
     <!-- $N=120$ -->
     <defs>
      <path d="M 4.984375 0 
L 4.984375 2.6875 
Q 4.984375 2.9375 5.171875 3.21875 
L 20.703125 20.40625 
Q 24.21875 24.21875 26.40625 26.796875 
Q 28.609375 29.390625 30.75 32.765625 
Q 32.90625 36.140625 34.15625 39.625 
Q 35.40625 43.109375 35.40625 47.015625 
Q 35.40625 51.125 33.890625 54.859375 
Q 32.375 58.59375 29.375 60.84375 
Q 26.375 63.09375 22.125 63.09375 
Q 17.78125 63.09375 14.3125 60.46875 
Q 10.84375 57.859375 9.421875 53.71875 
Q 9.8125 53.8125 10.5 53.8125 
Q 12.75 53.8125 14.328125 52.296875 
Q 15.921875 50.78125 15.921875 48.390625 
Q 15.921875 46.09375 14.328125 44.5 
Q 12.75 42.921875 10.5 42.921875 
Q 8.15625 42.921875 6.5625 44.546875 
Q 4.984375 46.1875 4.984375 48.390625 
Q 4.984375 52.15625 6.390625 55.4375 
Q 7.8125 58.734375 10.46875 61.296875 
Q 13.140625 63.875 16.484375 65.234375 
Q 19.828125 66.609375 23.578125 66.609375 
Q 29.296875 66.609375 34.21875 64.1875 
Q 39.15625 61.765625 42.03125 57.34375 
Q 44.921875 52.9375 44.921875 47.015625 
Q 44.921875 42.671875 43.015625 38.765625 
Q 41.109375 34.859375 38.125 31.65625 
Q 35.15625 28.46875 30.515625 24.40625 
Q 25.875 20.359375 24.421875 19 
L 13.09375 8.109375 
L 22.703125 8.109375 
Q 29.78125 8.109375 34.546875 8.21875 
Q 39.3125 8.34375 39.59375 8.59375 
Q 40.765625 9.859375 42 17.828125 
L 44.921875 17.828125 
L 42.09375 0 
z
" id="Cmr10-32"/>
      <path d="M 9.28125 0 
L 9.28125 3.515625 
Q 21.78125 3.515625 21.78125 6.6875 
L 21.78125 59.1875 
Q 16.609375 56.6875 8.6875 56.6875 
L 8.6875 60.203125 
Q 20.953125 60.203125 27.203125 66.609375 
L 28.609375 66.609375 
Q 28.953125 66.609375 29.265625 66.328125 
Q 29.59375 66.0625 29.59375 65.71875 
L 29.59375 6.6875 
Q 29.59375 3.515625 42.09375 3.515625 
L 42.09375 0 
z
" id="Cmr10-31"/>
     </defs>
     <g transform="translate(1018.8 108.51075)scale(0.144 -0.144)">
      <use transform="translate(0.0 0.6875)" xlink:href="#Cmmi10-4e"/>
      <use transform="translate(97.880859375 0.6875)" xlink:href="#Cmr10-3d"/>
      <use transform="translate(193.125 0.6875)" xlink:href="#Cmr10-31"/>
      <use transform="translate(243.125 0.6875)" xlink:href="#Cmr10-32"/>
      <use transform="translate(293.125 0.6875)" xlink:href="#Cmr10-30"/>
     </g>
    </g>
   </g>
  </g>
 </g>
 <defs>
  <clipPath id="p2c12411649">
   <rect height="403.2" width="803.52" x="162.0" y="50.4"/>
  </clipPath>
 </defs>
</svg>
