<?xml version="1.0" encoding="utf-8" standalone="no"?>
<!DOCTYPE svg PUBLIC "-//W3C//DTD SVG 1.1//EN"
  "http://www.w3.org/Graphics/SVG/1.1/DTD/svg11.dtd">
<!-- Created with matplotlib (http://matplotlib.org/) -->
<svg height="504pt" version="1.1" viewBox="0 0 1296 504" width="1296pt" xmlns="http://www.w3.org/2000/svg" xmlns:xlink="http://www.w3.org/1999/xlink">
 <defs>
  <style type="text/css">
*{stroke-linecap:butt;stroke-linejoin:round;stroke-miterlimit:100000;}
  </style>
 </defs>
 <g id="figure_1">
  <g id="patch_1">
   <path d="M 0 504 
L 1296 504 
L 1296 0 
L 0 0 
z
" style="fill:#ffffff;"/>
  </g>
  <g id="axes_1">
   <g id="patch_2">
    <path d="M 162 453.6 
L 965.52 453.6 
L 965.52 50.4 
L 162 50.4 
z
" style="fill:#ffffff;"/>
   </g>
   <g id="line2d_1">
    <path clip-path="url(#pdcd8aafc90)" d="M 162 199.9872 
L 163.60704 142.7328 
L 165.21408 175.392 
L 166.82112 310.0608 
L 168.42816 360.4608 
L 170.0352 350.3808 
L 171.64224 351.1872 
L 173.24928 342.3168 
L 174.85632 310.0608 
L 176.46336 334.656 
L 178.0704 303.2064 
L 179.67744 296.352 
L 181.28448 262.08 
L 182.89152 296.352 
L 184.49856 276.5952 
L 186.1056 278.6112 
L 187.71264 275.3856 
L 189.31968 281.4336 
L 190.92672 270.144 
L 192.53376 263.2896 
L 194.1408 243.1296 
L 195.74784 251.5968 
L 197.35488 250.7904 
L 198.96192 249.1776 
L 200.56896 235.4688 
L 202.176 229.824 
L 203.78304 233.856 
L 205.39008 268.128 
L 206.99712 276.5952 
L 208.60416 285.8688 
L 210.2112 293.5296 
L 211.81824 268.5312 
L 213.42528 249.1776 
L 215.03232 231.84 
L 216.63936 247.5648 
L 218.2464 252 
L 219.85344 238.2912 
L 221.46048 237.0816 
L 223.06752 242.3232 
L 224.67456 243.936 
L 226.2816 233.856 
L 227.88864 212.8896 
L 229.49568 210.4704 
L 231.10272 199.584 
L 232.70976 194.3424 
L 234.3168 197.9712 
L 235.92384 220.9536 
L 237.53088 195.9552 
L 239.13792 216.1152 
L 240.74496 206.4384 
L 242.352 190.3104 
L 243.95904 199.584 
L 245.56608 189.504 
L 248.78016 195.1488 
L 250.3872 172.5696 
L 251.99424 186.6816 
L 253.60128 194.3424 
L 255.20832 194.3424 
L 256.81536 200.7936 
L 258.4224 199.584 
L 260.02944 189.9072 
L 261.63648 187.0848 
L 263.24352 199.1808 
L 264.85056 204.4224 
L 266.4576 194.3424 
L 268.06464 202.8096 
L 269.67168 197.568 
L 271.27872 187.488 
L 272.88576 191.9232 
L 274.4928 183.8592 
L 276.09984 209.2608 
L 277.70688 200.7936 
L 279.31392 197.9712 
L 280.92096 180.6336 
L 282.528 179.0208 
L 284.13504 172.5696 
L 285.74208 181.0368 
L 287.34912 184.2624 
L 288.95616 174.9888 
L 290.5632 184.6656 
L 292.17024 184.6656 
L 293.77728 179.424 
L 295.38432 158.4576 
L 296.99136 160.0704 
L 298.5984 154.8288 
L 300.20544 164.5056 
L 301.81248 170.1504 
L 303.41952 167.328 
L 305.02656 177.0048 
L 306.6336 168.5376 
L 308.24064 167.7312 
L 309.84768 174.1824 
L 311.45472 169.7472 
L 313.06176 164.1024 
L 314.6688 162.8928 
L 316.27584 145.152 
L 317.88288 142.3296 
L 319.48992 147.9744 
L 321.09696 145.5552 
L 322.704 143.5392 
L 324.31104 142.7328 
L 325.91808 145.5552 
L 327.52512 168.1344 
L 329.13216 174.1824 
L 330.7392 178.2144 
L 332.34624 159.264 
L 333.95328 150.7968 
L 335.56032 144.3456 
L 337.16736 133.056 
L 338.7744 126.6048 
L 340.38144 129.4272 
L 341.98848 120.96 
L 343.59552 118.944 
L 345.20256 137.4912 
L 346.8096 134.6688 
L 348.41664 123.7824 
L 350.02368 139.5072 
L 351.63072 137.088 
L 353.23776 157.248 
L 354.8448 157.248 
L 356.45184 161.6832 
L 358.05888 147.9744 
L 359.66592 145.152 
L 361.27296 144.7488 
L 362.88 140.3136 
L 366.09408 106.848 
L 367.70112 121.7664 
L 369.30816 116.928 
L 370.9152 141.9264 
L 372.52224 136.2816 
L 374.12928 126.2016 
L 375.73632 131.8464 
L 377.34336 133.056 
L 378.9504 131.8464 
L 380.55744 147.168 
L 382.16448 141.9264 
L 383.77152 137.8944 
L 385.37856 128.2176 
L 386.9856 116.1216 
L 388.59264 108.864 
L 390.19968 114.5088 
L 391.80672 113.2992 
L 393.41376 101.2032 
L 395.0208 130.2336 
L 396.62784 135.4752 
L 398.23488 129.4272 
L 399.84192 122.1696 
L 401.44896 127.008 
L 403.056 123.7824 
L 404.66304 125.3952 
L 406.27008 131.4432 
L 407.87712 136.6848 
L 409.48416 137.088 
L 411.0912 122.5728 
L 412.69824 126.2016 
L 414.30528 116.928 
L 417.51936 97.1712 
L 419.1264 102.0096 
L 420.73344 92.736 
L 422.34048 112.896 
L 423.94752 102.816 
L 425.55456 96.3648 
L 427.1616 93.5424 
L 428.76864 95.9616 
L 430.37568 106.848 
L 431.98272 99.9936 
L 433.58976 97.1712 
L 435.1968 104.832 
L 436.80384 96.3648 
L 438.41088 105.6384 
L 440.01792 98.784 
L 441.62496 99.1872 
L 443.232 106.4448 
L 444.83904 127.4112 
L 446.44608 128.2176 
L 448.05312 118.5408 
L 449.66016 106.848 
L 451.2672 124.992 
L 452.87424 108.864 
L 454.48128 108.0576 
L 456.08832 119.7504 
L 457.69536 126.6048 
L 459.3024 118.5408 
L 460.90944 106.848 
L 462.51648 102.0096 
L 464.12352 105.6384 
L 465.73056 88.3008 
L 467.3376 105.2352 
L 468.94464 94.3488 
L 470.55168 91.5264 
L 472.15872 117.3312 
L 473.76576 116.928 
L 475.3728 91.1232 
L 476.97984 101.2032 
L 478.58688 114.912 
L 480.19392 111.2832 
L 481.80096 112.896 
L 483.408 111.2832 
L 485.01504 110.0736 
L 486.62208 119.7504 
L 488.22912 114.1056 
L 489.83616 105.6384 
L 491.4432 108.4608 
L 493.05024 107.6544 
L 494.65728 126.2016 
L 496.26432 135.8784 
L 497.87136 118.944 
L 499.4784 122.1696 
L 501.08544 104.0256 
L 502.69248 118.5408 
L 504.29952 118.5408 
L 505.90656 107.6544 
L 507.5136 111.6864 
L 509.12064 115.3152 
L 510.72768 118.5408 
L 512.33472 115.7184 
L 513.94176 121.3632 
L 515.5488 135.4752 
L 517.15584 120.5568 
L 518.76288 128.6208 
L 520.36992 130.2336 
L 521.97696 115.3152 
L 523.584 112.4928 
L 525.19104 104.832 
L 528.40512 117.7344 
L 530.01216 116.1216 
L 531.6192 128.6208 
L 533.22624 114.912 
L 534.83328 124.1856 
L 536.44032 136.2816 
L 538.04736 138.7008 
L 539.6544 122.5728 
L 541.26144 118.944 
L 542.86848 135.4752 
L 544.47552 134.6688 
L 546.08256 146.7648 
L 547.6896 144.7488 
L 549.29664 139.5072 
L 550.90368 133.4592 
L 552.51072 142.7328 
L 554.11776 135.8784 
L 555.7248 137.8944 
L 557.33184 148.3776 
L 558.93888 126.6048 
L 560.54592 140.3136 
L 562.15296 133.4592 
L 563.76 142.7328 
L 565.36704 125.3952 
L 566.97408 131.4432 
L 568.58112 129.4272 
L 570.18816 135.072 
L 571.7952 125.3952 
L 573.40224 129.024 
L 575.00928 124.1856 
L 576.61632 120.5568 
L 578.22336 114.912 
L 579.8304 104.4288 
L 581.43744 117.3312 
L 583.04448 111.2832 
L 584.65152 122.1696 
L 586.25856 103.6224 
L 587.8656 115.3152 
L 589.47264 128.2176 
L 591.07968 137.8944 
L 592.68672 133.056 
L 594.29376 125.7984 
L 595.9008 130.2336 
L 597.50784 143.9424 
L 599.11488 131.4432 
L 600.72192 116.928 
L 602.32896 114.5088 
L 603.936 124.5888 
L 605.54304 130.6368 
L 607.15008 128.6208 
L 608.75712 133.4592 
L 610.36416 129.4272 
L 611.9712 130.2336 
L 613.57824 123.7824 
L 615.18528 139.104 
L 616.79232 145.5552 
L 618.39936 128.6208 
L 620.0064 108.4608 
L 621.61344 122.1696 
L 623.22048 121.7664 
L 624.82752 131.8464 
L 626.43456 126.6048 
L 628.0416 120.1536 
L 629.64864 118.944 
L 631.25568 129.4272 
L 632.86272 126.2016 
L 634.46976 129.4272 
L 636.0768 120.96 
L 637.68384 103.6224 
L 639.29088 116.1216 
L 640.89792 130.2336 
L 642.50496 129.4272 
L 644.112 120.1536 
L 645.71904 123.7824 
L 647.32608 133.056 
L 648.93312 131.8464 
L 650.54016 141.5232 
L 652.1472 149.184 
L 653.75424 143.136 
L 655.36128 142.7328 
L 656.96832 131.04 
L 658.57536 138.7008 
L 660.1824 128.2176 
L 661.78944 128.2176 
L 663.39648 120.96 
L 665.00352 136.2816 
L 666.61056 124.992 
L 668.2176 129.8304 
L 669.82464 133.8624 
L 671.43168 126.6048 
L 673.03872 120.96 
L 674.64576 117.3312 
L 676.2528 120.5568 
L 677.85984 123.3792 
L 679.46688 149.9904 
L 681.07392 137.8944 
L 682.68096 128.2176 
L 684.288 120.1536 
L 685.89504 129.8304 
L 687.50208 116.928 
L 689.10912 108.4608 
L 690.71616 113.7024 
L 692.3232 135.072 
L 693.93024 132.6528 
L 695.53728 125.7984 
L 697.14432 130.2336 
L 698.75136 113.7024 
L 700.3584 135.4752 
L 701.96544 137.4912 
L 703.57248 131.8464 
L 705.17952 122.5728 
L 706.78656 120.1536 
L 708.3936 116.5248 
L 710.00064 121.7664 
L 711.60768 122.976 
L 713.21472 133.4592 
L 714.82176 114.912 
L 716.4288 116.1216 
L 718.03584 136.2816 
L 719.64288 136.2816 
L 721.24992 125.7984 
L 724.464 110.0736 
L 726.07104 108.0576 
L 727.67808 101.6064 
L 730.89216 118.944 
L 732.4992 121.7664 
L 734.10624 117.3312 
L 735.71328 119.7504 
L 737.32032 118.944 
L 738.92736 114.1056 
L 740.5344 119.7504 
L 742.14144 115.7184 
L 743.74848 108.864 
L 745.35552 106.848 
L 746.96256 110.88 
L 748.5696 119.7504 
L 750.17664 117.7344 
L 751.78368 116.1216 
L 753.39072 117.3312 
L 754.99776 112.896 
L 756.6048 122.1696 
L 758.21184 98.784 
L 759.81888 108.4608 
L 761.42592 124.1856 
L 763.03296 114.912 
L 764.64 119.7504 
L 766.24704 119.7504 
L 767.85408 129.8304 
L 769.46112 128.6208 
L 771.06816 110.4768 
L 772.6752 116.1216 
L 774.28224 97.1712 
L 775.88928 113.2992 
L 777.49632 123.3792 
L 779.10336 115.3152 
L 780.7104 117.7344 
L 782.31744 115.3152 
L 783.92448 126.2016 
L 785.53152 126.6048 
L 787.13856 119.7504 
L 788.7456 120.96 
L 790.35264 114.1056 
L 791.95968 130.2336 
L 793.56672 128.2176 
L 795.17376 135.072 
L 796.7808 133.056 
L 798.38784 139.104 
L 799.99488 147.9744 
L 801.60192 128.6208 
L 803.20896 137.4912 
L 804.816 144.3456 
L 806.42304 160.8768 
L 808.03008 156.0384 
L 809.63712 153.216 
L 811.24416 157.248 
L 812.8512 147.5712 
L 814.45824 149.184 
L 816.06528 161.28 
L 817.67232 162.8928 
L 819.27936 148.3776 
L 820.8864 137.088 
L 822.49344 116.1216 
L 824.10048 114.1056 
L 825.70752 133.8624 
L 827.31456 130.6368 
L 828.9216 133.4592 
L 830.52864 141.12 
L 832.13568 140.3136 
L 833.74272 129.8304 
L 835.34976 139.104 
L 836.9568 131.8464 
L 838.56384 129.8304 
L 840.17088 113.2992 
L 841.77792 111.2832 
L 843.38496 110.0736 
L 844.992 107.6544 
L 846.59904 111.2832 
L 848.20608 101.6064 
L 849.81312 98.3808 
L 851.42016 115.7184 
L 853.0272 105.6384 
L 854.63424 123.7824 
L 856.24128 119.7504 
L 857.84832 112.0896 
L 859.45536 116.928 
L 861.0624 117.3312 
L 862.66944 116.928 
L 864.27648 112.896 
L 865.88352 105.6384 
L 867.49056 106.4448 
L 869.0976 122.1696 
L 870.70464 120.96 
L 872.31168 114.1056 
L 873.91872 121.3632 
L 875.52576 108.0576 
L 877.1328 102.816 
L 878.73984 111.6864 
L 880.34688 102.816 
L 881.95392 107.6544 
L 883.56096 101.2032 
L 885.168 96.768 
L 886.77504 106.4448 
L 888.38208 89.1072 
L 889.98912 99.5904 
L 891.59616 96.3648 
L 893.2032 105.2352 
L 894.81024 101.6064 
L 896.41728 104.832 
L 898.02432 93.1392 
L 899.63136 97.9776 
L 901.2384 109.2672 
L 902.84544 111.6864 
L 904.45248 111.2832 
L 906.05952 111.6864 
L 907.66656 104.4288 
L 909.2736 108.864 
L 910.88064 114.912 
L 912.48768 112.4928 
L 914.09472 115.7184 
L 915.70176 113.2992 
L 917.3088 96.768 
L 918.91584 99.9936 
L 920.52288 91.1232 
L 922.12992 83.4624 
L 923.73696 78.2208 
L 925.344 107.6544 
L 926.95104 87.8976 
L 928.55808 106.848 
L 930.16512 98.3808 
L 931.77216 92.3328 
L 933.3792 103.2192 
L 934.98624 110.4768 
L 936.59328 110.88 
L 938.20032 120.1536 
L 939.80736 107.6544 
L 941.4144 108.864 
L 943.02144 106.4448 
L 944.62848 113.2992 
L 946.23552 110.88 
L 947.84256 107.6544 
L 949.4496 99.1872 
L 951.05664 108.864 
L 952.66368 95.9616 
L 954.27072 105.6384 
L 955.87776 97.5744 
L 957.4848 81.4464 
L 959.09184 95.5584 
L 960.69888 89.9136 
L 962.30592 109.2672 
L 963.91296 104.832 
L 963.91296 104.832 
" style="fill:none;stroke:#0000ff;stroke-linecap:square;"/>
   </g>
   <g id="line2d_2">
    <path clip-path="url(#pdcd8aafc90)" d="M 162 200.3904 
L 163.60704 220.5504 
L 165.21408 289.0944 
L 166.82112 328.608 
L 168.42816 397.152 
L 170.0352 352.8 
L 171.64224 327.8016 
L 173.24928 362.4768 
L 174.85632 379.4112 
L 176.46336 345.5424 
L 178.0704 335.0592 
L 179.67744 318.1248 
L 181.28448 325.3824 
L 182.89152 335.8656 
L 184.49856 304.416 
L 186.1056 297.9648 
L 187.71264 293.9328 
L 189.31968 326.1888 
L 192.53376 278.6112 
L 194.1408 267.3216 
L 195.74784 293.1264 
L 197.35488 292.32 
L 198.96192 303.6096 
L 200.56896 281.8368 
L 202.176 276.9984 
L 203.78304 260.064 
L 205.39008 267.3216 
L 206.99712 289.9008 
L 208.60416 273.7728 
L 210.2112 243.936 
L 211.81824 283.4496 
L 213.42528 262.4832 
L 215.03232 260.8704 
L 216.63936 254.4192 
L 218.2464 257.6448 
L 219.85344 272.9664 
L 221.46048 256.8384 
L 223.06752 258.4512 
L 224.67456 272.16 
L 226.2816 239.904 
L 227.88864 231.0336 
L 229.49568 231.0336 
L 231.10272 235.0656 
L 232.70976 222.9696 
L 234.3168 203.616 
L 235.92384 181.0368 
L 237.53088 150.3936 
L 239.13792 139.9104 
L 240.74496 182.6496 
L 242.352 184.2624 
L 243.95904 184.2624 
L 245.56608 186.6816 
L 247.17312 186.6816 
L 248.78016 202.8096 
L 250.3872 197.1648 
L 251.99424 181.0368 
L 253.60128 193.1328 
L 255.20832 183.456 
L 256.81536 174.5856 
L 258.4224 170.5536 
L 260.02944 177.8112 
L 261.63648 180.2304 
L 263.24352 177.8112 
L 264.85056 165.7152 
L 266.4576 164.1024 
L 268.06464 147.168 
L 269.67168 143.136 
L 271.27872 166.5216 
L 272.88576 138.2976 
L 274.4928 146.3616 
L 276.09984 139.9104 
L 277.70688 123.7824 
L 279.31392 127.008 
L 280.92096 140.7168 
L 282.528 142.3296 
L 284.13504 155.232 
L 285.74208 140.7168 
L 287.34912 123.7824 
L 288.95616 137.4912 
L 290.5632 147.9744 
L 292.17024 135.072 
L 293.77728 148.7808 
L 295.38432 122.976 
L 296.99136 125.3952 
L 298.5984 115.7184 
L 300.20544 121.3632 
L 301.81248 119.7504 
L 303.41952 122.1696 
L 305.02656 129.4272 
L 306.6336 129.4272 
L 308.24064 137.4912 
L 309.84768 141.5232 
L 311.45472 143.9424 
L 313.06176 143.9424 
L 314.6688 143.136 
L 316.27584 148.7808 
L 317.88288 144.7488 
L 319.48992 135.8784 
L 321.09696 154.4256 
L 322.704 149.5872 
L 324.31104 148.7808 
L 325.91808 150.3936 
L 327.52512 147.168 
L 329.13216 153.6192 
L 330.7392 151.2 
L 332.34624 143.9424 
L 333.95328 139.9104 
L 335.56032 135.072 
L 337.16736 114.912 
L 338.7744 115.7184 
L 340.38144 114.912 
L 341.98848 126.2016 
L 343.59552 136.6848 
L 345.20256 144.7488 
L 346.8096 139.9104 
L 348.41664 130.2336 
L 351.63072 128.6208 
L 353.23776 144.7488 
L 354.8448 141.5232 
L 356.45184 145.5552 
L 358.05888 151.2 
L 359.66592 147.168 
L 361.27296 136.6848 
L 362.88 147.9744 
L 364.48704 145.5552 
L 366.09408 122.976 
L 367.70112 125.3952 
L 369.30816 136.6848 
L 370.9152 139.104 
L 372.52224 143.136 
L 374.12928 140.7168 
L 375.73632 143.136 
L 377.34336 125.3952 
L 378.9504 140.7168 
L 380.55744 131.8464 
L 382.16448 135.072 
L 383.77152 126.2016 
L 385.37856 138.2976 
L 386.9856 152.8128 
L 388.59264 140.7168 
L 390.19968 146.3616 
L 391.80672 134.2656 
L 393.41376 118.1376 
L 395.0208 147.168 
L 396.62784 136.6848 
L 398.23488 139.104 
L 399.84192 131.8464 
L 401.44896 143.136 
L 403.056 137.4912 
L 404.66304 131.04 
L 406.27008 132.6528 
L 407.87712 145.5552 
L 409.48416 144.7488 
L 411.0912 140.7168 
L 412.69824 143.136 
L 414.30528 137.4912 
L 415.91232 151.2 
L 417.51936 150.3936 
L 419.1264 152.8128 
L 420.73344 141.5232 
L 422.34048 146.3616 
L 423.94752 141.5232 
L 425.55456 141.5232 
L 427.1616 139.9104 
L 428.76864 137.4912 
L 430.37568 118.1376 
L 431.98272 110.88 
L 433.58976 134.2656 
L 435.1968 127.8144 
L 436.80384 131.04 
L 438.41088 147.9744 
L 440.01792 144.7488 
L 441.62496 138.2976 
L 443.232 138.2976 
L 444.83904 143.136 
L 446.44608 143.136 
L 448.05312 151.2 
L 449.66016 142.3296 
L 451.2672 134.2656 
L 452.87424 128.6208 
L 454.48128 134.2656 
L 456.08832 130.2336 
L 457.69536 136.6848 
L 459.3024 134.2656 
L 462.51648 137.4912 
L 464.12352 124.5888 
L 465.73056 133.4592 
L 467.3376 135.072 
L 468.94464 127.8144 
L 470.55168 129.4272 
L 472.15872 129.4272 
L 473.76576 125.3952 
L 475.3728 135.8784 
L 476.97984 127.008 
L 478.58688 144.7488 
L 480.19392 139.104 
L 481.80096 139.9104 
L 483.408 143.9424 
L 485.01504 131.8464 
L 486.62208 138.2976 
L 488.22912 118.1376 
L 489.83616 131.8464 
L 491.4432 124.5888 
L 493.05024 118.1376 
L 494.65728 123.7824 
L 496.26432 121.3632 
L 497.87136 129.4272 
L 499.4784 131.04 
L 501.08544 123.7824 
L 502.69248 115.7184 
L 504.29952 122.976 
L 505.90656 127.008 
L 507.5136 109.2672 
L 509.12064 96.3648 
L 510.72768 103.6224 
L 512.33472 118.944 
L 513.94176 129.4272 
L 515.5488 143.136 
L 517.15584 140.7168 
L 518.76288 133.4592 
L 520.36992 122.1696 
L 521.97696 113.2992 
L 523.584 114.1056 
L 525.19104 117.3312 
L 526.79808 112.4928 
L 528.40512 122.976 
L 530.01216 126.2016 
L 531.6192 120.5568 
L 533.22624 103.6224 
L 534.83328 103.6224 
L 536.44032 112.4928 
L 538.04736 108.4608 
L 539.6544 116.5248 
L 541.26144 135.072 
L 542.86848 131.04 
L 544.47552 137.4912 
L 546.08256 130.2336 
L 547.6896 140.7168 
L 549.29664 131.04 
L 550.90368 122.1696 
L 552.51072 123.7824 
L 554.11776 122.976 
L 555.7248 124.5888 
L 557.33184 118.944 
L 558.93888 112.4928 
L 560.54592 127.8144 
L 562.15296 133.4592 
L 563.76 134.2656 
L 565.36704 129.4272 
L 566.97408 138.2976 
L 568.58112 139.9104 
L 570.18816 147.168 
L 571.7952 152.0064 
L 573.40224 143.9424 
L 575.00928 139.9104 
L 576.61632 130.2336 
L 578.22336 130.2336 
L 579.8304 129.4272 
L 581.43744 114.1056 
L 583.04448 131.8464 
L 584.65152 117.3312 
L 586.25856 109.2672 
L 587.8656 114.1056 
L 589.47264 112.4928 
L 591.07968 121.3632 
L 592.68672 113.2992 
L 594.29376 120.5568 
L 595.9008 118.1376 
L 597.50784 114.1056 
L 599.11488 101.2032 
L 600.72192 108.4608 
L 602.32896 102.0096 
L 603.936 114.912 
L 605.54304 103.6224 
L 607.15008 102.816 
L 608.75712 97.1712 
L 610.36416 97.9776 
L 611.9712 103.6224 
L 613.57824 104.4288 
L 615.18528 95.5584 
L 616.79232 95.5584 
L 618.39936 99.5904 
L 620.0064 106.848 
L 621.61344 87.4944 
L 623.22048 98.784 
L 624.82752 93.9456 
L 626.43456 96.3648 
L 628.0416 114.912 
L 629.64864 114.912 
L 631.25568 139.104 
L 632.86272 135.8784 
L 634.46976 139.104 
L 636.0768 139.9104 
L 637.68384 132.6528 
L 639.29088 143.136 
L 640.89792 143.136 
L 642.50496 141.5232 
L 644.112 136.6848 
L 645.71904 136.6848 
L 647.32608 129.4272 
L 648.93312 139.9104 
L 650.54016 127.008 
L 652.1472 121.3632 
L 653.75424 125.3952 
L 655.36128 115.7184 
L 656.96832 125.3952 
L 658.57536 128.6208 
L 661.78944 144.7488 
L 663.39648 149.5872 
L 665.00352 132.6528 
L 666.61056 128.6208 
L 668.2176 115.7184 
L 669.82464 122.1696 
L 671.43168 111.6864 
L 673.03872 127.8144 
L 674.64576 112.4928 
L 676.2528 104.4288 
L 677.85984 123.7824 
L 679.46688 123.7824 
L 682.68096 125.3952 
L 684.288 135.072 
L 685.89504 137.4912 
L 689.10912 127.8144 
L 690.71616 131.04 
L 692.3232 137.4912 
L 693.93024 131.8464 
L 695.53728 131.8464 
L 697.14432 118.944 
L 698.75136 124.5888 
L 700.3584 145.5552 
L 701.96544 145.5552 
L 703.57248 148.7808 
L 705.17952 145.5552 
L 706.78656 141.5232 
L 708.3936 142.3296 
L 710.00064 136.6848 
L 711.60768 135.072 
L 714.82176 125.3952 
L 716.4288 116.5248 
L 718.03584 120.5568 
L 719.64288 132.6528 
L 721.24992 119.7504 
L 722.85696 102.816 
L 724.464 106.0416 
L 726.07104 97.9776 
L 729.28512 109.2672 
L 730.89216 106.0416 
L 732.4992 106.0416 
L 734.10624 91.5264 
L 735.71328 105.2352 
L 737.32032 102.0096 
L 738.92736 104.4288 
L 740.5344 96.3648 
L 742.14144 102.0096 
L 743.74848 118.944 
L 745.35552 120.5568 
L 746.96256 130.2336 
L 748.5696 117.3312 
L 750.17664 113.2992 
L 751.78368 106.848 
L 753.39072 105.2352 
L 754.99776 118.1376 
L 756.6048 127.008 
L 758.21184 130.2336 
L 759.81888 131.04 
L 761.42592 128.6208 
L 763.03296 139.104 
L 764.64 139.104 
L 766.24704 128.6208 
L 767.85408 134.2656 
L 769.46112 136.6848 
L 771.06816 131.04 
L 772.6752 124.5888 
L 774.28224 117.3312 
L 775.88928 116.5248 
L 777.49632 106.0416 
L 780.7104 107.6544 
L 782.31744 114.912 
L 783.92448 127.008 
L 785.53152 127.8144 
L 787.13856 130.2336 
L 788.7456 124.5888 
L 790.35264 120.5568 
L 791.95968 113.2992 
L 793.56672 98.784 
L 795.17376 112.4928 
L 796.7808 118.944 
L 798.38784 113.2992 
L 799.99488 118.1376 
L 801.60192 116.5248 
L 803.20896 128.6208 
L 804.816 131.04 
L 806.42304 122.1696 
L 808.03008 135.072 
L 809.63712 126.2016 
L 811.24416 118.944 
L 812.8512 132.6528 
L 814.45824 130.2336 
L 816.06528 127.008 
L 817.67232 124.5888 
L 819.27936 131.8464 
L 822.49344 117.3312 
L 824.10048 123.7824 
L 825.70752 122.976 
L 827.31456 136.6848 
L 828.9216 138.2976 
L 830.52864 144.7488 
L 832.13568 164.9088 
L 833.74272 166.5216 
L 835.34976 167.328 
L 836.9568 148.7808 
L 838.56384 127.008 
L 840.17088 131.04 
L 841.77792 143.136 
L 843.38496 131.04 
L 844.992 131.04 
L 846.59904 121.3632 
L 849.81312 151.2 
L 851.42016 153.6192 
L 853.0272 149.5872 
L 854.63424 143.9424 
L 856.24128 137.4912 
L 857.84832 143.9424 
L 859.45536 132.6528 
L 861.0624 128.6208 
L 862.66944 140.7168 
L 864.27648 135.072 
L 865.88352 133.4592 
L 867.49056 132.6528 
L 869.0976 122.976 
L 870.70464 110.0736 
L 872.31168 99.5904 
L 873.91872 93.1392 
L 875.52576 107.6544 
L 877.1328 106.848 
L 878.73984 110.0736 
L 880.34688 98.784 
L 881.95392 89.9136 
L 883.56096 81.8496 
L 885.168 85.8816 
L 886.77504 88.3008 
L 888.38208 99.5904 
L 889.98912 102.816 
L 891.59616 102.0096 
L 893.2032 107.6544 
L 894.81024 105.2352 
L 896.41728 90.72 
L 898.02432 97.1712 
L 899.63136 99.5904 
L 902.84544 93.1392 
L 904.45248 96.3648 
L 906.05952 112.4928 
L 907.66656 120.5568 
L 909.2736 119.7504 
L 910.88064 124.5888 
L 912.48768 127.008 
L 914.09472 124.5888 
L 915.70176 126.2016 
L 917.3088 126.2016 
L 918.91584 121.3632 
L 920.52288 114.1056 
L 922.12992 117.3312 
L 923.73696 122.1696 
L 925.344 114.912 
L 926.95104 117.3312 
L 928.55808 110.88 
L 930.16512 97.1712 
L 931.77216 111.6864 
L 933.3792 114.1056 
L 934.98624 120.5568 
L 936.59328 103.6224 
L 938.20032 106.0416 
L 939.80736 121.3632 
L 941.4144 125.3952 
L 944.62848 107.6544 
L 946.23552 106.848 
L 947.84256 115.7184 
L 949.4496 131.8464 
L 951.05664 122.1696 
L 952.66368 118.1376 
L 954.27072 109.2672 
L 955.87776 110.88 
L 957.4848 111.6864 
L 959.09184 106.0416 
L 960.69888 113.2992 
L 962.30592 116.5248 
L 963.91296 132.6528 
L 963.91296 132.6528 
" style="fill:none;stroke:#008000;stroke-linecap:square;"/>
   </g>
   <g id="line2d_3">
    <path clip-path="url(#pdcd8aafc90)" d="M 162 66.528 
L 163.60704 174.5856 
L 165.21408 343.1232 
L 166.82112 374.5728 
L 168.42816 403.6032 
L 170.0352 421.344 
L 171.64224 388.2816 
L 173.24928 387.4752 
L 174.85632 380.2176 
L 176.46336 374.5728 
L 178.0704 376.1856 
L 179.67744 356.0256 
L 181.28448 330.2208 
L 182.89152 325.3824 
L 184.49856 323.7696 
L 186.1056 338.2848 
L 187.71264 290.7072 
L 189.31968 284.256 
L 190.92672 289.0944 
L 192.53376 285.0624 
L 194.1408 272.9664 
L 195.74784 254.4192 
L 197.35488 258.4512 
L 198.96192 256.8384 
L 200.56896 259.2576 
L 202.176 255.2256 
L 203.78304 247.1616 
L 205.39008 242.3232 
L 206.99712 249.5808 
L 208.60416 234.2592 
L 210.2112 236.6784 
L 211.81824 238.2912 
L 213.42528 238.2912 
L 215.03232 243.1296 
L 216.63936 252 
L 218.2464 265.7088 
L 219.85344 244.7424 
L 221.46048 250.3872 
L 223.06752 240.7104 
L 224.67456 227.0016 
L 226.2816 222.1632 
L 227.88864 211.68 
L 229.49568 218.9376 
L 231.10272 210.0672 
L 232.70976 227.0016 
L 234.3168 200.3904 
L 235.92384 206.8416 
L 237.53088 211.68 
L 239.13792 196.3584 
L 240.74496 191.52 
L 242.352 193.1328 
L 243.95904 200.3904 
L 245.56608 193.1328 
L 247.17312 193.1328 
L 248.78016 192.3264 
L 250.3872 178.6176 
L 251.99424 192.3264 
L 253.60128 184.2624 
L 255.20832 197.9712 
L 258.4224 197.9712 
L 260.02944 191.52 
L 261.63648 174.5856 
L 263.24352 177.8112 
L 264.85056 180.2304 
L 266.4576 175.392 
L 268.06464 181.0368 
L 269.67168 172.1664 
L 271.27872 168.1344 
L 272.88576 164.9088 
L 274.4928 158.4576 
L 276.09984 168.1344 
L 277.70688 159.264 
L 279.31392 167.328 
L 280.92096 166.5216 
L 282.528 177.8112 
L 284.13504 164.1024 
L 285.74208 174.5856 
L 287.34912 175.392 
L 288.95616 178.6176 
L 290.5632 178.6176 
L 292.17024 169.7472 
L 293.77728 172.1664 
L 295.38432 172.1664 
L 296.99136 176.1984 
L 298.5984 172.1664 
L 300.20544 177.0048 
L 301.81248 171.36 
L 303.41952 170.5536 
L 305.02656 173.7792 
L 306.6336 157.6512 
L 308.24064 161.6832 
L 309.84768 166.5216 
L 311.45472 162.4896 
L 313.06176 156.8448 
L 314.6688 160.0704 
L 316.27584 155.232 
L 317.88288 157.6512 
L 319.48992 158.4576 
L 321.09696 162.4896 
L 322.704 159.264 
L 324.31104 156.8448 
L 325.91808 159.264 
L 327.52512 157.6512 
L 329.13216 154.4256 
L 330.7392 142.3296 
L 332.34624 137.4912 
L 333.95328 135.8784 
L 335.56032 135.072 
L 337.16736 123.7824 
L 338.7744 135.072 
L 340.38144 129.4272 
L 341.98848 110.0736 
L 343.59552 106.0416 
L 345.20256 115.7184 
L 346.8096 114.912 
L 348.41664 123.7824 
L 350.02368 119.7504 
L 351.63072 111.6864 
L 353.23776 109.2672 
L 354.8448 115.7184 
L 356.45184 125.3952 
L 358.05888 122.1696 
L 359.66592 122.1696 
L 361.27296 132.6528 
L 362.88 123.7824 
L 364.48704 121.3632 
L 366.09408 122.1696 
L 367.70112 122.1696 
L 369.30816 115.7184 
L 370.9152 119.7504 
L 372.52224 118.1376 
L 374.12928 117.3312 
L 375.73632 123.7824 
L 377.34336 118.1376 
L 378.9504 127.008 
L 380.55744 122.976 
L 382.16448 128.6208 
L 383.77152 132.6528 
L 385.37856 124.5888 
L 386.9856 127.8144 
L 388.59264 137.4912 
L 390.19968 133.4592 
L 391.80672 122.976 
L 393.41376 127.008 
L 395.0208 120.5568 
L 396.62784 122.1696 
L 399.84192 112.4928 
L 401.44896 120.5568 
L 403.056 122.1696 
L 404.66304 112.4928 
L 406.27008 115.7184 
L 407.87712 112.4928 
L 409.48416 114.912 
L 411.0912 114.1056 
L 412.69824 127.008 
L 414.30528 129.4272 
L 415.91232 115.7184 
L 417.51936 122.1696 
L 419.1264 125.3952 
L 420.73344 119.7504 
L 423.94752 110.0736 
L 425.55456 120.5568 
L 427.1616 118.1376 
L 428.76864 122.976 
L 430.37568 111.6864 
L 433.58976 98.784 
L 435.1968 100.3968 
L 436.80384 104.4288 
L 438.41088 114.1056 
L 440.01792 114.912 
L 441.62496 121.3632 
L 443.232 122.976 
L 444.83904 121.3632 
L 446.44608 116.5248 
L 448.05312 123.7824 
L 449.66016 118.1376 
L 451.2672 114.912 
L 452.87424 110.88 
L 454.48128 119.7504 
L 456.08832 122.1696 
L 457.69536 130.2336 
L 459.3024 127.008 
L 460.90944 135.8784 
L 462.51648 131.8464 
L 464.12352 136.6848 
L 465.73056 124.5888 
L 467.3376 122.1696 
L 468.94464 118.1376 
L 470.55168 109.2672 
L 472.15872 118.944 
L 473.76576 117.3312 
L 475.3728 120.5568 
L 476.97984 119.7504 
L 478.58688 122.1696 
L 480.19392 121.3632 
L 481.80096 126.2016 
L 483.408 117.3312 
L 485.01504 131.04 
L 486.62208 134.2656 
L 488.22912 135.8784 
L 489.83616 131.8464 
L 491.4432 139.9104 
L 493.05024 133.4592 
L 494.65728 139.9104 
L 496.26432 136.6848 
L 497.87136 145.5552 
L 499.4784 135.072 
L 501.08544 126.2016 
L 502.69248 118.944 
L 505.90656 136.6848 
L 507.5136 135.072 
L 509.12064 128.6208 
L 510.72768 119.7504 
L 512.33472 123.7824 
L 513.94176 114.912 
L 515.5488 118.1376 
L 517.15584 126.2016 
L 518.76288 133.4592 
L 520.36992 130.2336 
L 521.97696 125.3952 
L 523.584 117.3312 
L 525.19104 117.3312 
L 526.79808 114.1056 
L 528.40512 112.4928 
L 530.01216 115.7184 
L 531.6192 102.816 
L 533.22624 110.88 
L 534.83328 95.5584 
L 536.44032 101.2032 
L 538.04736 110.88 
L 539.6544 115.7184 
L 542.86848 117.3312 
L 544.47552 121.3632 
L 546.08256 127.008 
L 547.6896 126.2016 
L 549.29664 122.976 
L 550.90368 111.6864 
L 552.51072 110.0736 
L 554.11776 113.2992 
L 555.7248 107.6544 
L 557.33184 110.0736 
L 558.93888 124.5888 
L 560.54592 126.2016 
L 562.15296 123.7824 
L 563.76 125.3952 
L 565.36704 125.3952 
L 566.97408 126.2016 
L 568.58112 107.6544 
L 570.18816 97.1712 
L 571.7952 107.6544 
L 573.40224 107.6544 
L 575.00928 121.3632 
L 576.61632 116.5248 
L 578.22336 116.5248 
L 579.8304 118.1376 
L 581.43744 112.4928 
L 583.04448 114.912 
L 584.65152 106.0416 
L 586.25856 110.0736 
L 587.8656 110.0736 
L 589.47264 98.784 
L 591.07968 102.0096 
L 592.68672 98.784 
L 594.29376 98.784 
L 595.9008 94.752 
L 597.50784 106.0416 
L 600.72192 107.6544 
L 602.32896 106.848 
L 603.936 110.88 
L 605.54304 109.2672 
L 607.15008 102.816 
L 608.75712 94.752 
L 610.36416 102.816 
L 611.9712 114.912 
L 613.57824 113.2992 
L 615.18528 122.976 
L 616.79232 127.008 
L 618.39936 130.2336 
L 620.0064 131.04 
L 621.61344 125.3952 
L 624.82752 110.88 
L 626.43456 99.5904 
L 628.0416 97.9776 
L 629.64864 97.9776 
L 631.25568 100.3968 
L 632.86272 108.4608 
L 634.46976 102.816 
L 636.0768 93.9456 
L 640.89792 98.784 
L 642.50496 103.6224 
L 644.112 107.6544 
L 645.71904 102.816 
L 647.32608 119.7504 
L 648.93312 128.6208 
L 650.54016 123.7824 
L 652.1472 114.1056 
L 653.75424 118.944 
L 655.36128 126.2016 
L 656.96832 127.8144 
L 658.57536 120.5568 
L 660.1824 123.7824 
L 661.78944 125.3952 
L 663.39648 122.1696 
L 665.00352 134.2656 
L 666.61056 127.008 
L 668.2176 131.04 
L 671.43168 127.8144 
L 673.03872 122.1696 
L 674.64576 123.7824 
L 676.2528 137.4912 
L 679.46688 122.976 
L 681.07392 119.7504 
L 682.68096 113.2992 
L 684.288 102.0096 
L 685.89504 114.1056 
L 687.50208 129.4272 
L 689.10912 133.4592 
L 690.71616 128.6208 
L 692.3232 133.4592 
L 693.93024 119.7504 
L 695.53728 109.2672 
L 697.14432 108.4608 
L 698.75136 115.7184 
L 700.3584 104.4288 
L 701.96544 112.4928 
L 703.57248 116.5248 
L 705.17952 122.1696 
L 706.78656 115.7184 
L 708.3936 105.2352 
L 710.00064 106.848 
L 711.60768 103.6224 
L 713.21472 109.2672 
L 714.82176 125.3952 
L 716.4288 114.1056 
L 718.03584 120.5568 
L 719.64288 116.5248 
L 721.24992 110.88 
L 722.85696 113.2992 
L 724.464 107.6544 
L 726.07104 113.2992 
L 727.67808 104.4288 
L 729.28512 93.1392 
L 730.89216 104.4288 
L 732.4992 116.5248 
L 734.10624 106.848 
L 735.71328 110.88 
L 737.32032 102.0096 
L 738.92736 114.1056 
L 740.5344 117.3312 
L 742.14144 114.1056 
L 743.74848 110.0736 
L 745.35552 104.4288 
L 746.96256 110.0736 
L 748.5696 112.4928 
L 750.17664 121.3632 
L 751.78368 114.1056 
L 753.39072 113.2992 
L 754.99776 108.4608 
L 756.6048 104.4288 
L 758.21184 103.6224 
L 759.81888 101.2032 
L 761.42592 108.4608 
L 763.03296 108.4608 
L 764.64 102.816 
L 766.24704 103.6224 
L 767.85408 113.2992 
L 769.46112 118.1376 
L 771.06816 121.3632 
L 772.6752 104.4288 
L 774.28224 110.88 
L 775.88928 97.9776 
L 777.49632 101.2032 
L 779.10336 106.848 
L 780.7104 111.6864 
L 782.31744 113.2992 
L 783.92448 106.0416 
L 785.53152 105.2352 
L 787.13856 110.0736 
L 788.7456 115.7184 
L 790.35264 119.7504 
L 791.95968 122.1696 
L 793.56672 114.1056 
L 795.17376 114.1056 
L 796.7808 106.848 
L 798.38784 89.9136 
L 799.99488 95.5584 
L 801.60192 107.6544 
L 803.20896 106.848 
L 804.816 108.4608 
L 806.42304 113.2992 
L 808.03008 109.2672 
L 809.63712 114.912 
L 811.24416 108.4608 
L 814.45824 98.784 
L 816.06528 100.3968 
L 817.67232 111.6864 
L 819.27936 106.0416 
L 820.8864 101.2032 
L 822.49344 110.88 
L 824.10048 108.4608 
L 825.70752 112.4928 
L 827.31456 101.2032 
L 828.9216 104.4288 
L 830.52864 96.3648 
L 832.13568 95.5584 
L 833.74272 95.5584 
L 835.34976 102.0096 
L 836.9568 111.6864 
L 838.56384 108.4608 
L 840.17088 102.816 
L 841.77792 99.5904 
L 843.38496 107.6544 
L 844.992 105.2352 
L 846.59904 109.2672 
L 848.20608 97.9776 
L 849.81312 118.1376 
L 851.42016 115.7184 
L 853.0272 119.7504 
L 854.63424 111.6864 
L 856.24128 110.0736 
L 857.84832 110.0736 
L 859.45536 113.2992 
L 861.0624 114.1056 
L 862.66944 118.944 
L 864.27648 109.2672 
L 865.88352 112.4928 
L 867.49056 106.848 
L 869.0976 98.784 
L 870.70464 99.5904 
L 872.31168 103.6224 
L 873.91872 109.2672 
L 875.52576 104.4288 
L 877.1328 106.0416 
L 878.73984 104.4288 
L 880.34688 102.0096 
L 881.95392 111.6864 
L 883.56096 106.848 
L 885.168 106.848 
L 886.77504 110.0736 
L 888.38208 114.912 
L 889.98912 110.0736 
L 891.59616 102.0096 
L 893.2032 102.816 
L 894.81024 108.4608 
L 896.41728 103.6224 
L 898.02432 108.4608 
L 899.63136 102.816 
L 901.2384 94.752 
L 902.84544 95.5584 
L 904.45248 111.6864 
L 906.05952 102.0096 
L 907.66656 97.9776 
L 909.2736 87.4944 
L 910.88064 91.5264 
L 914.09472 96.3648 
L 915.70176 95.5584 
L 917.3088 85.0752 
L 918.91584 85.8816 
L 920.52288 89.9136 
L 922.12992 98.784 
L 923.73696 85.8816 
L 925.344 89.1072 
L 926.95104 90.72 
L 928.55808 85.0752 
L 930.16512 85.8816 
L 931.77216 88.3008 
L 933.3792 101.2032 
L 934.98624 89.1072 
L 936.59328 91.5264 
L 938.20032 88.3008 
L 939.80736 94.752 
L 941.4144 98.784 
L 943.02144 93.9456 
L 944.62848 91.5264 
L 946.23552 95.5584 
L 947.84256 95.5584 
L 949.4496 99.5904 
L 951.05664 100.3968 
L 952.66368 91.5264 
L 954.27072 98.784 
L 955.87776 104.4288 
L 957.4848 105.2352 
L 959.09184 93.9456 
L 962.30592 97.1712 
L 963.91296 94.752 
L 963.91296 94.752 
" style="fill:none;stroke:#ff0000;stroke-linecap:square;"/>
   </g>
   <g id="patch_3">
    <path d="M 162 50.4 
L 965.52 50.4 
" style="fill:none;stroke:#000000;stroke-linecap:square;stroke-linejoin:miter;"/>
   </g>
   <g id="patch_4">
    <path d="M 965.52 453.6 
L 965.52 50.4 
" style="fill:none;stroke:#000000;stroke-linecap:square;stroke-linejoin:miter;"/>
   </g>
   <g id="patch_5">
    <path d="M 162 453.6 
L 965.52 453.6 
" style="fill:none;stroke:#000000;stroke-linecap:square;stroke-linejoin:miter;"/>
   </g>
   <g id="patch_6">
    <path d="M 162 453.6 
L 162 50.4 
" style="fill:none;stroke:#000000;stroke-linecap:square;stroke-linejoin:miter;"/>
   </g>
   <g id="matplotlib.axis_1">
    <g id="xtick_1">
     <g id="line2d_4">
      <defs>
       <path d="M 0 0 
L 0 -4 
" id="mfa0a363532" style="stroke:#000000;stroke-width:0.5;"/>
      </defs>
      <g>
       <use style="stroke:#000000;stroke-width:0.5;" x="162.0" xlink:href="#mfa0a363532" y="453.6"/>
      </g>
     </g>
     <g id="line2d_5">
      <defs>
       <path d="M 0 0 
L 0 4 
" id="m39e36aed3f" style="stroke:#000000;stroke-width:0.5;"/>
      </defs>
      <g>
       <use style="stroke:#000000;stroke-width:0.5;" x="162.0" xlink:href="#m39e36aed3f" y="50.4"/>
      </g>
     </g>
     <g id="text_1">
      <!-- 0 -->
      <defs>
       <path d="M 31.78125 66.40625 
Q 24.171875 66.40625 20.328125 58.90625 
Q 16.5 51.421875 16.5 36.375 
Q 16.5 21.390625 20.328125 13.890625 
Q 24.171875 6.390625 31.78125 6.390625 
Q 39.453125 6.390625 43.28125 13.890625 
Q 47.125 21.390625 47.125 36.375 
Q 47.125 51.421875 43.28125 58.90625 
Q 39.453125 66.40625 31.78125 66.40625 
M 31.78125 74.21875 
Q 44.046875 74.21875 50.515625 64.515625 
Q 56.984375 54.828125 56.984375 36.375 
Q 56.984375 17.96875 50.515625 8.265625 
Q 44.046875 -1.421875 31.78125 -1.421875 
Q 19.53125 -1.421875 13.0625 8.265625 
Q 6.59375 17.96875 6.59375 36.375 
Q 6.59375 54.828125 13.0625 64.515625 
Q 19.53125 74.21875 31.78125 74.21875 
" id="BitstreamVeraSans-Roman-30"/>
      </defs>
      <g transform="translate(158.1825 466.718125)scale(0.12 -0.12)">
       <use xlink:href="#BitstreamVeraSans-Roman-30"/>
      </g>
     </g>
    </g>
    <g id="xtick_2">
     <g id="line2d_6">
      <g>
       <use style="stroke:#000000;stroke-width:0.5;" x="322.704" xlink:href="#mfa0a363532" y="453.6"/>
      </g>
     </g>
     <g id="line2d_7">
      <g>
       <use style="stroke:#000000;stroke-width:0.5;" x="322.704" xlink:href="#m39e36aed3f" y="50.4"/>
      </g>
     </g>
     <g id="text_2">
      <!-- 100 -->
      <defs>
       <path d="M 12.40625 8.296875 
L 28.515625 8.296875 
L 28.515625 63.921875 
L 10.984375 60.40625 
L 10.984375 69.390625 
L 28.421875 72.90625 
L 38.28125 72.90625 
L 38.28125 8.296875 
L 54.390625 8.296875 
L 54.390625 0 
L 12.40625 0 
z
" id="BitstreamVeraSans-Roman-31"/>
      </defs>
      <g transform="translate(311.2515 466.718125)scale(0.12 -0.12)">
       <use xlink:href="#BitstreamVeraSans-Roman-31"/>
       <use x="63.623046875" xlink:href="#BitstreamVeraSans-Roman-30"/>
       <use x="127.24609375" xlink:href="#BitstreamVeraSans-Roman-30"/>
      </g>
     </g>
    </g>
    <g id="xtick_3">
     <g id="line2d_8">
      <g>
       <use style="stroke:#000000;stroke-width:0.5;" x="483.408" xlink:href="#mfa0a363532" y="453.6"/>
      </g>
     </g>
     <g id="line2d_9">
      <g>
       <use style="stroke:#000000;stroke-width:0.5;" x="483.408" xlink:href="#m39e36aed3f" y="50.4"/>
      </g>
     </g>
     <g id="text_3">
      <!-- 200 -->
      <defs>
       <path d="M 19.1875 8.296875 
L 53.609375 8.296875 
L 53.609375 0 
L 7.328125 0 
L 7.328125 8.296875 
Q 12.9375 14.109375 22.625 23.890625 
Q 32.328125 33.6875 34.8125 36.53125 
Q 39.546875 41.84375 41.421875 45.53125 
Q 43.3125 49.21875 43.3125 52.78125 
Q 43.3125 58.59375 39.234375 62.25 
Q 35.15625 65.921875 28.609375 65.921875 
Q 23.96875 65.921875 18.8125 64.3125 
Q 13.671875 62.703125 7.8125 59.421875 
L 7.8125 69.390625 
Q 13.765625 71.78125 18.9375 73 
Q 24.125 74.21875 28.421875 74.21875 
Q 39.75 74.21875 46.484375 68.546875 
Q 53.21875 62.890625 53.21875 53.421875 
Q 53.21875 48.921875 51.53125 44.890625 
Q 49.859375 40.875 45.40625 35.40625 
Q 44.1875 33.984375 37.640625 27.21875 
Q 31.109375 20.453125 19.1875 8.296875 
" id="BitstreamVeraSans-Roman-32"/>
      </defs>
      <g transform="translate(471.9555 466.718125)scale(0.12 -0.12)">
       <use xlink:href="#BitstreamVeraSans-Roman-32"/>
       <use x="63.623046875" xlink:href="#BitstreamVeraSans-Roman-30"/>
       <use x="127.24609375" xlink:href="#BitstreamVeraSans-Roman-30"/>
      </g>
     </g>
    </g>
    <g id="xtick_4">
     <g id="line2d_10">
      <g>
       <use style="stroke:#000000;stroke-width:0.5;" x="644.112" xlink:href="#mfa0a363532" y="453.6"/>
      </g>
     </g>
     <g id="line2d_11">
      <g>
       <use style="stroke:#000000;stroke-width:0.5;" x="644.112" xlink:href="#m39e36aed3f" y="50.4"/>
      </g>
     </g>
     <g id="text_4">
      <!-- 300 -->
      <defs>
       <path d="M 40.578125 39.3125 
Q 47.65625 37.796875 51.625 33 
Q 55.609375 28.21875 55.609375 21.1875 
Q 55.609375 10.40625 48.1875 4.484375 
Q 40.765625 -1.421875 27.09375 -1.421875 
Q 22.515625 -1.421875 17.65625 -0.515625 
Q 12.796875 0.390625 7.625 2.203125 
L 7.625 11.71875 
Q 11.71875 9.328125 16.59375 8.109375 
Q 21.484375 6.890625 26.8125 6.890625 
Q 36.078125 6.890625 40.9375 10.546875 
Q 45.796875 14.203125 45.796875 21.1875 
Q 45.796875 27.640625 41.28125 31.265625 
Q 36.765625 34.90625 28.71875 34.90625 
L 20.21875 34.90625 
L 20.21875 43.015625 
L 29.109375 43.015625 
Q 36.375 43.015625 40.234375 45.921875 
Q 44.09375 48.828125 44.09375 54.296875 
Q 44.09375 59.90625 40.109375 62.90625 
Q 36.140625 65.921875 28.71875 65.921875 
Q 24.65625 65.921875 20.015625 65.03125 
Q 15.375 64.15625 9.8125 62.3125 
L 9.8125 71.09375 
Q 15.4375 72.65625 20.34375 73.4375 
Q 25.25 74.21875 29.59375 74.21875 
Q 40.828125 74.21875 47.359375 69.109375 
Q 53.90625 64.015625 53.90625 55.328125 
Q 53.90625 49.265625 50.4375 45.09375 
Q 46.96875 40.921875 40.578125 39.3125 
" id="BitstreamVeraSans-Roman-33"/>
      </defs>
      <g transform="translate(632.6595 466.718125)scale(0.12 -0.12)">
       <use xlink:href="#BitstreamVeraSans-Roman-33"/>
       <use x="63.623046875" xlink:href="#BitstreamVeraSans-Roman-30"/>
       <use x="127.24609375" xlink:href="#BitstreamVeraSans-Roman-30"/>
      </g>
     </g>
    </g>
    <g id="xtick_5">
     <g id="line2d_12">
      <g>
       <use style="stroke:#000000;stroke-width:0.5;" x="804.816" xlink:href="#mfa0a363532" y="453.6"/>
      </g>
     </g>
     <g id="line2d_13">
      <g>
       <use style="stroke:#000000;stroke-width:0.5;" x="804.816" xlink:href="#m39e36aed3f" y="50.4"/>
      </g>
     </g>
     <g id="text_5">
      <!-- 400 -->
      <defs>
       <path d="M 37.796875 64.3125 
L 12.890625 25.390625 
L 37.796875 25.390625 
z
M 35.203125 72.90625 
L 47.609375 72.90625 
L 47.609375 25.390625 
L 58.015625 25.390625 
L 58.015625 17.1875 
L 47.609375 17.1875 
L 47.609375 0 
L 37.796875 0 
L 37.796875 17.1875 
L 4.890625 17.1875 
L 4.890625 26.703125 
z
" id="BitstreamVeraSans-Roman-34"/>
      </defs>
      <g transform="translate(793.3635 466.718125)scale(0.12 -0.12)">
       <use xlink:href="#BitstreamVeraSans-Roman-34"/>
       <use x="63.623046875" xlink:href="#BitstreamVeraSans-Roman-30"/>
       <use x="127.24609375" xlink:href="#BitstreamVeraSans-Roman-30"/>
      </g>
     </g>
    </g>
    <g id="xtick_6">
     <g id="line2d_14">
      <g>
       <use style="stroke:#000000;stroke-width:0.5;" x="965.52" xlink:href="#mfa0a363532" y="453.6"/>
      </g>
     </g>
     <g id="line2d_15">
      <g>
       <use style="stroke:#000000;stroke-width:0.5;" x="965.52" xlink:href="#m39e36aed3f" y="50.4"/>
      </g>
     </g>
     <g id="text_6">
      <!-- 500 -->
      <defs>
       <path d="M 10.796875 72.90625 
L 49.515625 72.90625 
L 49.515625 64.59375 
L 19.828125 64.59375 
L 19.828125 46.734375 
Q 21.96875 47.46875 24.109375 47.828125 
Q 26.265625 48.1875 28.421875 48.1875 
Q 40.625 48.1875 47.75 41.5 
Q 54.890625 34.8125 54.890625 23.390625 
Q 54.890625 11.625 47.5625 5.09375 
Q 40.234375 -1.421875 26.90625 -1.421875 
Q 22.3125 -1.421875 17.546875 -0.640625 
Q 12.796875 0.140625 7.71875 1.703125 
L 7.71875 11.625 
Q 12.109375 9.234375 16.796875 8.0625 
Q 21.484375 6.890625 26.703125 6.890625 
Q 35.15625 6.890625 40.078125 11.328125 
Q 45.015625 15.765625 45.015625 23.390625 
Q 45.015625 31 40.078125 35.4375 
Q 35.15625 39.890625 26.703125 39.890625 
Q 22.75 39.890625 18.8125 39.015625 
Q 14.890625 38.140625 10.796875 36.28125 
z
" id="BitstreamVeraSans-Roman-35"/>
      </defs>
      <g transform="translate(954.0675 466.718125)scale(0.12 -0.12)">
       <use xlink:href="#BitstreamVeraSans-Roman-35"/>
       <use x="63.623046875" xlink:href="#BitstreamVeraSans-Roman-30"/>
       <use x="127.24609375" xlink:href="#BitstreamVeraSans-Roman-30"/>
      </g>
     </g>
    </g>
    <g id="text_7">
     <!-- Time -->
     <defs>
      <path d="M 56.203125 29.59375 
L 56.203125 25.203125 
L 14.890625 25.203125 
Q 15.484375 15.921875 20.484375 11.0625 
Q 25.484375 6.203125 34.421875 6.203125 
Q 39.59375 6.203125 44.453125 7.46875 
Q 49.3125 8.734375 54.109375 11.28125 
L 54.109375 2.78125 
Q 49.265625 0.734375 44.1875 -0.34375 
Q 39.109375 -1.421875 33.890625 -1.421875 
Q 20.796875 -1.421875 13.15625 6.1875 
Q 5.515625 13.8125 5.515625 26.8125 
Q 5.515625 40.234375 12.765625 48.109375 
Q 20.015625 56 32.328125 56 
Q 43.359375 56 49.78125 48.890625 
Q 56.203125 41.796875 56.203125 29.59375 
M 47.21875 32.234375 
Q 47.125 39.59375 43.09375 43.984375 
Q 39.0625 48.390625 32.421875 48.390625 
Q 24.90625 48.390625 20.390625 44.140625 
Q 15.875 39.890625 15.1875 32.171875 
z
" id="BitstreamVeraSans-Roman-65"/>
      <path d="M 9.421875 54.6875 
L 18.40625 54.6875 
L 18.40625 0 
L 9.421875 0 
z
M 9.421875 75.984375 
L 18.40625 75.984375 
L 18.40625 64.59375 
L 9.421875 64.59375 
z
" id="BitstreamVeraSans-Roman-69"/>
      <path d="M -0.296875 72.90625 
L 61.375 72.90625 
L 61.375 64.59375 
L 35.5 64.59375 
L 35.5 0 
L 25.59375 0 
L 25.59375 64.59375 
L -0.296875 64.59375 
z
" id="BitstreamVeraSans-Roman-54"/>
      <path d="M 52 44.1875 
Q 55.375 50.25 60.0625 53.125 
Q 64.75 56 71.09375 56 
Q 79.640625 56 84.28125 50.015625 
Q 88.921875 44.046875 88.921875 33.015625 
L 88.921875 0 
L 79.890625 0 
L 79.890625 32.71875 
Q 79.890625 40.578125 77.09375 44.375 
Q 74.3125 48.1875 68.609375 48.1875 
Q 61.625 48.1875 57.5625 43.546875 
Q 53.515625 38.921875 53.515625 30.90625 
L 53.515625 0 
L 44.484375 0 
L 44.484375 32.71875 
Q 44.484375 40.625 41.703125 44.40625 
Q 38.921875 48.1875 33.109375 48.1875 
Q 26.21875 48.1875 22.15625 43.53125 
Q 18.109375 38.875 18.109375 30.90625 
L 18.109375 0 
L 9.078125 0 
L 9.078125 54.6875 
L 18.109375 54.6875 
L 18.109375 46.1875 
Q 21.1875 51.21875 25.484375 53.609375 
Q 29.78125 56 35.6875 56 
Q 41.65625 56 45.828125 52.96875 
Q 50 49.953125 52 44.1875 
" id="BitstreamVeraSans-Roman-6d"/>
     </defs>
     <g transform="translate(548.895 483.331875)scale(0.12 -0.12)">
      <use xlink:href="#BitstreamVeraSans-Roman-54"/>
      <use x="61.037109375" xlink:href="#BitstreamVeraSans-Roman-69"/>
      <use x="88.8203125" xlink:href="#BitstreamVeraSans-Roman-6d"/>
      <use x="186.232421875" xlink:href="#BitstreamVeraSans-Roman-65"/>
     </g>
    </g>
   </g>
   <g id="matplotlib.axis_2">
    <g id="ytick_1">
     <g id="line2d_16">
      <defs>
       <path d="M 0 0 
L 4 0 
" id="md933e137d7" style="stroke:#000000;stroke-width:0.5;"/>
      </defs>
      <g>
       <use style="stroke:#000000;stroke-width:0.5;" x="162.0" xlink:href="#md933e137d7" y="413.28"/>
      </g>
     </g>
     <g id="line2d_17">
      <defs>
       <path d="M 0 0 
L -4 0 
" id="m7181e67e23" style="stroke:#000000;stroke-width:0.5;"/>
      </defs>
      <g>
       <use style="stroke:#000000;stroke-width:0.5;" x="965.52" xlink:href="#m7181e67e23" y="413.28"/>
      </g>
     </g>
     <g id="text_8">
      <!-- 6.0 -->
      <defs>
       <path d="M 10.6875 12.40625 
L 21 12.40625 
L 21 0 
L 10.6875 0 
z
" id="BitstreamVeraSans-Roman-2e"/>
       <path d="M 33.015625 40.375 
Q 26.375 40.375 22.484375 35.828125 
Q 18.609375 31.296875 18.609375 23.390625 
Q 18.609375 15.53125 22.484375 10.953125 
Q 26.375 6.390625 33.015625 6.390625 
Q 39.65625 6.390625 43.53125 10.953125 
Q 47.40625 15.53125 47.40625 23.390625 
Q 47.40625 31.296875 43.53125 35.828125 
Q 39.65625 40.375 33.015625 40.375 
M 52.59375 71.296875 
L 52.59375 62.3125 
Q 48.875 64.0625 45.09375 64.984375 
Q 41.3125 65.921875 37.59375 65.921875 
Q 27.828125 65.921875 22.671875 59.328125 
Q 17.53125 52.734375 16.796875 39.40625 
Q 19.671875 43.65625 24.015625 45.921875 
Q 28.375 48.1875 33.59375 48.1875 
Q 44.578125 48.1875 50.953125 41.515625 
Q 57.328125 34.859375 57.328125 23.390625 
Q 57.328125 12.15625 50.6875 5.359375 
Q 44.046875 -1.421875 33.015625 -1.421875 
Q 20.359375 -1.421875 13.671875 8.265625 
Q 6.984375 17.96875 6.984375 36.375 
Q 6.984375 53.65625 15.1875 63.9375 
Q 23.390625 74.21875 37.203125 74.21875 
Q 40.921875 74.21875 44.703125 73.484375 
Q 48.484375 72.75 52.59375 71.296875 
" id="BitstreamVeraSans-Roman-36"/>
      </defs>
      <g transform="translate(138.91625 416.59125)scale(0.12 -0.12)">
       <use xlink:href="#BitstreamVeraSans-Roman-36"/>
       <use x="63.623046875" xlink:href="#BitstreamVeraSans-Roman-2e"/>
       <use x="95.41015625" xlink:href="#BitstreamVeraSans-Roman-30"/>
      </g>
     </g>
    </g>
    <g id="ytick_2">
     <g id="line2d_18">
      <g>
       <use style="stroke:#000000;stroke-width:0.5;" x="162.0" xlink:href="#md933e137d7" y="332.64"/>
      </g>
     </g>
     <g id="line2d_19">
      <g>
       <use style="stroke:#000000;stroke-width:0.5;" x="965.52" xlink:href="#m7181e67e23" y="332.64"/>
      </g>
     </g>
     <g id="text_9">
      <!-- 6.2 -->
      <g transform="translate(138.91625 335.95125)scale(0.12 -0.12)">
       <use xlink:href="#BitstreamVeraSans-Roman-36"/>
       <use x="63.623046875" xlink:href="#BitstreamVeraSans-Roman-2e"/>
       <use x="95.41015625" xlink:href="#BitstreamVeraSans-Roman-32"/>
      </g>
     </g>
    </g>
    <g id="ytick_3">
     <g id="line2d_20">
      <g>
       <use style="stroke:#000000;stroke-width:0.5;" x="162.0" xlink:href="#md933e137d7" y="252.0"/>
      </g>
     </g>
     <g id="line2d_21">
      <g>
       <use style="stroke:#000000;stroke-width:0.5;" x="965.52" xlink:href="#m7181e67e23" y="252.0"/>
      </g>
     </g>
     <g id="text_10">
      <!-- 6.4 -->
      <g transform="translate(138.91625 255.31125)scale(0.12 -0.12)">
       <use xlink:href="#BitstreamVeraSans-Roman-36"/>
       <use x="63.623046875" xlink:href="#BitstreamVeraSans-Roman-2e"/>
       <use x="95.41015625" xlink:href="#BitstreamVeraSans-Roman-34"/>
      </g>
     </g>
    </g>
    <g id="ytick_4">
     <g id="line2d_22">
      <g>
       <use style="stroke:#000000;stroke-width:0.5;" x="162.0" xlink:href="#md933e137d7" y="171.36"/>
      </g>
     </g>
     <g id="line2d_23">
      <g>
       <use style="stroke:#000000;stroke-width:0.5;" x="965.52" xlink:href="#m7181e67e23" y="171.36"/>
      </g>
     </g>
     <g id="text_11">
      <!-- 6.6 -->
      <g transform="translate(138.91625 174.67125)scale(0.12 -0.12)">
       <use xlink:href="#BitstreamVeraSans-Roman-36"/>
       <use x="63.623046875" xlink:href="#BitstreamVeraSans-Roman-2e"/>
       <use x="95.41015625" xlink:href="#BitstreamVeraSans-Roman-36"/>
      </g>
     </g>
    </g>
    <g id="ytick_5">
     <g id="line2d_24">
      <g>
       <use style="stroke:#000000;stroke-width:0.5;" x="162.0" xlink:href="#md933e137d7" y="90.72"/>
      </g>
     </g>
     <g id="line2d_25">
      <g>
       <use style="stroke:#000000;stroke-width:0.5;" x="965.52" xlink:href="#m7181e67e23" y="90.72"/>
      </g>
     </g>
     <g id="text_12">
      <!-- 6.8 -->
      <defs>
       <path d="M 31.78125 34.625 
Q 24.75 34.625 20.71875 30.859375 
Q 16.703125 27.09375 16.703125 20.515625 
Q 16.703125 13.921875 20.71875 10.15625 
Q 24.75 6.390625 31.78125 6.390625 
Q 38.8125 6.390625 42.859375 10.171875 
Q 46.921875 13.96875 46.921875 20.515625 
Q 46.921875 27.09375 42.890625 30.859375 
Q 38.875 34.625 31.78125 34.625 
M 21.921875 38.8125 
Q 15.578125 40.375 12.03125 44.71875 
Q 8.5 49.078125 8.5 55.328125 
Q 8.5 64.0625 14.71875 69.140625 
Q 20.953125 74.21875 31.78125 74.21875 
Q 42.671875 74.21875 48.875 69.140625 
Q 55.078125 64.0625 55.078125 55.328125 
Q 55.078125 49.078125 51.53125 44.71875 
Q 48 40.375 41.703125 38.8125 
Q 48.828125 37.15625 52.796875 32.3125 
Q 56.78125 27.484375 56.78125 20.515625 
Q 56.78125 9.90625 50.3125 4.234375 
Q 43.84375 -1.421875 31.78125 -1.421875 
Q 19.734375 -1.421875 13.25 4.234375 
Q 6.78125 9.90625 6.78125 20.515625 
Q 6.78125 27.484375 10.78125 32.3125 
Q 14.796875 37.15625 21.921875 38.8125 
M 18.3125 54.390625 
Q 18.3125 48.734375 21.84375 45.5625 
Q 25.390625 42.390625 31.78125 42.390625 
Q 38.140625 42.390625 41.71875 45.5625 
Q 45.3125 48.734375 45.3125 54.390625 
Q 45.3125 60.0625 41.71875 63.234375 
Q 38.140625 66.40625 31.78125 66.40625 
Q 25.390625 66.40625 21.84375 63.234375 
Q 18.3125 60.0625 18.3125 54.390625 
" id="BitstreamVeraSans-Roman-38"/>
      </defs>
      <g transform="translate(138.91625 94.03125)scale(0.12 -0.12)">
       <use xlink:href="#BitstreamVeraSans-Roman-36"/>
       <use x="63.623046875" xlink:href="#BitstreamVeraSans-Roman-2e"/>
       <use x="95.41015625" xlink:href="#BitstreamVeraSans-Roman-38"/>
      </g>
     </g>
    </g>
    <g id="text_13">
     <!-- neighbor distance -->
     <defs>
      <path id="BitstreamVeraSans-Roman-20"/>
      <path d="M 54.890625 33.015625 
L 54.890625 0 
L 45.90625 0 
L 45.90625 32.71875 
Q 45.90625 40.484375 42.875 44.328125 
Q 39.84375 48.1875 33.796875 48.1875 
Q 26.515625 48.1875 22.3125 43.546875 
Q 18.109375 38.921875 18.109375 30.90625 
L 18.109375 0 
L 9.078125 0 
L 9.078125 54.6875 
L 18.109375 54.6875 
L 18.109375 46.1875 
Q 21.34375 51.125 25.703125 53.5625 
Q 30.078125 56 35.796875 56 
Q 45.21875 56 50.046875 50.171875 
Q 54.890625 44.34375 54.890625 33.015625 
" id="BitstreamVeraSans-Roman-6e"/>
      <path d="M 34.28125 27.484375 
Q 23.390625 27.484375 19.1875 25 
Q 14.984375 22.515625 14.984375 16.5 
Q 14.984375 11.71875 18.140625 8.90625 
Q 21.296875 6.109375 26.703125 6.109375 
Q 34.1875 6.109375 38.703125 11.40625 
Q 43.21875 16.703125 43.21875 25.484375 
L 43.21875 27.484375 
z
M 52.203125 31.203125 
L 52.203125 0 
L 43.21875 0 
L 43.21875 8.296875 
Q 40.140625 3.328125 35.546875 0.953125 
Q 30.953125 -1.421875 24.3125 -1.421875 
Q 15.921875 -1.421875 10.953125 3.296875 
Q 6 8.015625 6 15.921875 
Q 6 25.140625 12.171875 29.828125 
Q 18.359375 34.515625 30.609375 34.515625 
L 43.21875 34.515625 
L 43.21875 35.40625 
Q 43.21875 41.609375 39.140625 45 
Q 35.0625 48.390625 27.6875 48.390625 
Q 23 48.390625 18.546875 47.265625 
Q 14.109375 46.140625 10.015625 43.890625 
L 10.015625 52.203125 
Q 14.9375 54.109375 19.578125 55.046875 
Q 24.21875 56 28.609375 56 
Q 40.484375 56 46.34375 49.84375 
Q 52.203125 43.703125 52.203125 31.203125 
" id="BitstreamVeraSans-Roman-61"/>
      <path d="M 30.609375 48.390625 
Q 23.390625 48.390625 19.1875 42.75 
Q 14.984375 37.109375 14.984375 27.296875 
Q 14.984375 17.484375 19.15625 11.84375 
Q 23.34375 6.203125 30.609375 6.203125 
Q 37.796875 6.203125 41.984375 11.859375 
Q 46.1875 17.53125 46.1875 27.296875 
Q 46.1875 37.015625 41.984375 42.703125 
Q 37.796875 48.390625 30.609375 48.390625 
M 30.609375 56 
Q 42.328125 56 49.015625 48.375 
Q 55.71875 40.765625 55.71875 27.296875 
Q 55.71875 13.875 49.015625 6.21875 
Q 42.328125 -1.421875 30.609375 -1.421875 
Q 18.84375 -1.421875 12.171875 6.21875 
Q 5.515625 13.875 5.515625 27.296875 
Q 5.515625 40.765625 12.171875 48.375 
Q 18.84375 56 30.609375 56 
" id="BitstreamVeraSans-Roman-6f"/>
      <path d="M 18.3125 70.21875 
L 18.3125 54.6875 
L 36.8125 54.6875 
L 36.8125 47.703125 
L 18.3125 47.703125 
L 18.3125 18.015625 
Q 18.3125 11.328125 20.140625 9.421875 
Q 21.96875 7.515625 27.59375 7.515625 
L 36.8125 7.515625 
L 36.8125 0 
L 27.59375 0 
Q 17.1875 0 13.234375 3.875 
Q 9.28125 7.765625 9.28125 18.015625 
L 9.28125 47.703125 
L 2.6875 47.703125 
L 2.6875 54.6875 
L 9.28125 54.6875 
L 9.28125 70.21875 
z
" id="BitstreamVeraSans-Roman-74"/>
      <path d="M 54.890625 33.015625 
L 54.890625 0 
L 45.90625 0 
L 45.90625 32.71875 
Q 45.90625 40.484375 42.875 44.328125 
Q 39.84375 48.1875 33.796875 48.1875 
Q 26.515625 48.1875 22.3125 43.546875 
Q 18.109375 38.921875 18.109375 30.90625 
L 18.109375 0 
L 9.078125 0 
L 9.078125 75.984375 
L 18.109375 75.984375 
L 18.109375 46.1875 
Q 21.34375 51.125 25.703125 53.5625 
Q 30.078125 56 35.796875 56 
Q 45.21875 56 50.046875 50.171875 
Q 54.890625 44.34375 54.890625 33.015625 
" id="BitstreamVeraSans-Roman-68"/>
      <path d="M 45.40625 46.390625 
L 45.40625 75.984375 
L 54.390625 75.984375 
L 54.390625 0 
L 45.40625 0 
L 45.40625 8.203125 
Q 42.578125 3.328125 38.25 0.953125 
Q 33.9375 -1.421875 27.875 -1.421875 
Q 17.96875 -1.421875 11.734375 6.484375 
Q 5.515625 14.40625 5.515625 27.296875 
Q 5.515625 40.1875 11.734375 48.09375 
Q 17.96875 56 27.875 56 
Q 33.9375 56 38.25 53.625 
Q 42.578125 51.265625 45.40625 46.390625 
M 14.796875 27.296875 
Q 14.796875 17.390625 18.875 11.75 
Q 22.953125 6.109375 30.078125 6.109375 
Q 37.203125 6.109375 41.296875 11.75 
Q 45.40625 17.390625 45.40625 27.296875 
Q 45.40625 37.203125 41.296875 42.84375 
Q 37.203125 48.484375 30.078125 48.484375 
Q 22.953125 48.484375 18.875 42.84375 
Q 14.796875 37.203125 14.796875 27.296875 
" id="BitstreamVeraSans-Roman-64"/>
      <path d="M 45.40625 27.984375 
Q 45.40625 37.75 41.375 43.109375 
Q 37.359375 48.484375 30.078125 48.484375 
Q 22.859375 48.484375 18.828125 43.109375 
Q 14.796875 37.75 14.796875 27.984375 
Q 14.796875 18.265625 18.828125 12.890625 
Q 22.859375 7.515625 30.078125 7.515625 
Q 37.359375 7.515625 41.375 12.890625 
Q 45.40625 18.265625 45.40625 27.984375 
M 54.390625 6.78125 
Q 54.390625 -7.171875 48.1875 -13.984375 
Q 42 -20.796875 29.203125 -20.796875 
Q 24.46875 -20.796875 20.265625 -20.09375 
Q 16.0625 -19.390625 12.109375 -17.921875 
L 12.109375 -9.1875 
Q 16.0625 -11.328125 19.921875 -12.34375 
Q 23.78125 -13.375 27.78125 -13.375 
Q 36.625 -13.375 41.015625 -8.765625 
Q 45.40625 -4.15625 45.40625 5.171875 
L 45.40625 9.625 
Q 42.625 4.78125 38.28125 2.390625 
Q 33.9375 0 27.875 0 
Q 17.828125 0 11.671875 7.65625 
Q 5.515625 15.328125 5.515625 27.984375 
Q 5.515625 40.671875 11.671875 48.328125 
Q 17.828125 56 27.875 56 
Q 33.9375 56 38.28125 53.609375 
Q 42.625 51.21875 45.40625 46.390625 
L 45.40625 54.6875 
L 54.390625 54.6875 
z
" id="BitstreamVeraSans-Roman-67"/>
      <path d="M 41.109375 46.296875 
Q 39.59375 47.171875 37.8125 47.578125 
Q 36.03125 48 33.890625 48 
Q 26.265625 48 22.1875 43.046875 
Q 18.109375 38.09375 18.109375 28.8125 
L 18.109375 0 
L 9.078125 0 
L 9.078125 54.6875 
L 18.109375 54.6875 
L 18.109375 46.1875 
Q 20.953125 51.171875 25.484375 53.578125 
Q 30.03125 56 36.53125 56 
Q 37.453125 56 38.578125 55.875 
Q 39.703125 55.765625 41.0625 55.515625 
z
" id="BitstreamVeraSans-Roman-72"/>
      <path d="M 44.28125 53.078125 
L 44.28125 44.578125 
Q 40.484375 46.53125 36.375 47.5 
Q 32.28125 48.484375 27.875 48.484375 
Q 21.1875 48.484375 17.84375 46.4375 
Q 14.5 44.390625 14.5 40.28125 
Q 14.5 37.15625 16.890625 35.375 
Q 19.28125 33.59375 26.515625 31.984375 
L 29.59375 31.296875 
Q 39.15625 29.25 43.1875 25.515625 
Q 47.21875 21.78125 47.21875 15.09375 
Q 47.21875 7.46875 41.1875 3.015625 
Q 35.15625 -1.421875 24.609375 -1.421875 
Q 20.21875 -1.421875 15.453125 -0.5625 
Q 10.6875 0.296875 5.421875 2 
L 5.421875 11.28125 
Q 10.40625 8.6875 15.234375 7.390625 
Q 20.0625 6.109375 24.8125 6.109375 
Q 31.15625 6.109375 34.5625 8.28125 
Q 37.984375 10.453125 37.984375 14.40625 
Q 37.984375 18.0625 35.515625 20.015625 
Q 33.0625 21.96875 24.703125 23.78125 
L 21.578125 24.515625 
Q 13.234375 26.265625 9.515625 29.90625 
Q 5.8125 33.546875 5.8125 39.890625 
Q 5.8125 47.609375 11.28125 51.796875 
Q 16.75 56 26.8125 56 
Q 31.78125 56 36.171875 55.265625 
Q 40.578125 54.546875 44.28125 53.078125 
" id="BitstreamVeraSans-Roman-73"/>
      <path d="M 48.78125 52.59375 
L 48.78125 44.1875 
Q 44.96875 46.296875 41.140625 47.34375 
Q 37.3125 48.390625 33.40625 48.390625 
Q 24.65625 48.390625 19.8125 42.84375 
Q 14.984375 37.3125 14.984375 27.296875 
Q 14.984375 17.28125 19.8125 11.734375 
Q 24.65625 6.203125 33.40625 6.203125 
Q 37.3125 6.203125 41.140625 7.25 
Q 44.96875 8.296875 48.78125 10.40625 
L 48.78125 2.09375 
Q 45.015625 0.34375 40.984375 -0.53125 
Q 36.96875 -1.421875 32.421875 -1.421875 
Q 20.0625 -1.421875 12.78125 6.34375 
Q 5.515625 14.109375 5.515625 27.296875 
Q 5.515625 40.671875 12.859375 48.328125 
Q 20.21875 56 33.015625 56 
Q 37.15625 56 41.109375 55.140625 
Q 45.0625 54.296875 48.78125 52.59375 
" id="BitstreamVeraSans-Roman-63"/>
      <path d="M 48.6875 27.296875 
Q 48.6875 37.203125 44.609375 42.84375 
Q 40.53125 48.484375 33.40625 48.484375 
Q 26.265625 48.484375 22.1875 42.84375 
Q 18.109375 37.203125 18.109375 27.296875 
Q 18.109375 17.390625 22.1875 11.75 
Q 26.265625 6.109375 33.40625 6.109375 
Q 40.53125 6.109375 44.609375 11.75 
Q 48.6875 17.390625 48.6875 27.296875 
M 18.109375 46.390625 
Q 20.953125 51.265625 25.265625 53.625 
Q 29.59375 56 35.59375 56 
Q 45.5625 56 51.78125 48.09375 
Q 58.015625 40.1875 58.015625 27.296875 
Q 58.015625 14.40625 51.78125 6.484375 
Q 45.5625 -1.421875 35.59375 -1.421875 
Q 29.59375 -1.421875 25.265625 0.953125 
Q 20.953125 3.328125 18.109375 8.203125 
L 18.109375 0 
L 9.078125 0 
L 9.078125 75.984375 
L 18.109375 75.984375 
z
" id="BitstreamVeraSans-Roman-62"/>
     </defs>
     <g transform="translate(131.420625 306.050625)rotate(-90.0)scale(0.12 -0.12)">
      <use xlink:href="#BitstreamVeraSans-Roman-6e"/>
      <use x="63.37890625" xlink:href="#BitstreamVeraSans-Roman-65"/>
      <use x="124.90234375" xlink:href="#BitstreamVeraSans-Roman-69"/>
      <use x="152.685546875" xlink:href="#BitstreamVeraSans-Roman-67"/>
      <use x="216.162109375" xlink:href="#BitstreamVeraSans-Roman-68"/>
      <use x="279.541015625" xlink:href="#BitstreamVeraSans-Roman-62"/>
      <use x="343.017578125" xlink:href="#BitstreamVeraSans-Roman-6f"/>
      <use x="404.19921875" xlink:href="#BitstreamVeraSans-Roman-72"/>
      <use x="445.3125" xlink:href="#BitstreamVeraSans-Roman-20"/>
      <use x="477.099609375" xlink:href="#BitstreamVeraSans-Roman-64"/>
      <use x="540.576171875" xlink:href="#BitstreamVeraSans-Roman-69"/>
      <use x="568.359375" xlink:href="#BitstreamVeraSans-Roman-73"/>
      <use x="620.458984375" xlink:href="#BitstreamVeraSans-Roman-74"/>
      <use x="659.66796875" xlink:href="#BitstreamVeraSans-Roman-61"/>
      <use x="720.947265625" xlink:href="#BitstreamVeraSans-Roman-6e"/>
      <use x="784.326171875" xlink:href="#BitstreamVeraSans-Roman-63"/>
      <use x="839.306640625" xlink:href="#BitstreamVeraSans-Roman-65"/>
     </g>
    </g>
   </g>
   <g id="text_14">
    <!-- Scaling up: neighbor distance -->
    <defs>
     <path d="M 11.71875 12.40625 
L 22.015625 12.40625 
L 22.015625 0 
L 11.71875 0 
z
M 11.71875 51.703125 
L 22.015625 51.703125 
L 22.015625 39.3125 
L 11.71875 39.3125 
z
" id="BitstreamVeraSans-Roman-3a"/>
     <path d="M 8.5 21.578125 
L 8.5 54.6875 
L 17.484375 54.6875 
L 17.484375 21.921875 
Q 17.484375 14.15625 20.5 10.265625 
Q 23.53125 6.390625 29.59375 6.390625 
Q 36.859375 6.390625 41.078125 11.03125 
Q 45.3125 15.671875 45.3125 23.6875 
L 45.3125 54.6875 
L 54.296875 54.6875 
L 54.296875 0 
L 45.3125 0 
L 45.3125 8.40625 
Q 42.046875 3.421875 37.71875 1 
Q 33.40625 -1.421875 27.6875 -1.421875 
Q 18.265625 -1.421875 13.375 4.4375 
Q 8.5 10.296875 8.5 21.578125 
" id="BitstreamVeraSans-Roman-75"/>
     <path d="M 53.515625 70.515625 
L 53.515625 60.890625 
Q 47.90625 63.578125 42.921875 64.890625 
Q 37.9375 66.21875 33.296875 66.21875 
Q 25.25 66.21875 20.875 63.09375 
Q 16.5 59.96875 16.5 54.203125 
Q 16.5 49.359375 19.40625 46.890625 
Q 22.3125 44.4375 30.421875 42.921875 
L 36.375 41.703125 
Q 47.40625 39.59375 52.65625 34.296875 
Q 57.90625 29 57.90625 20.125 
Q 57.90625 9.515625 50.796875 4.046875 
Q 43.703125 -1.421875 29.984375 -1.421875 
Q 24.8125 -1.421875 18.96875 -0.25 
Q 13.140625 0.921875 6.890625 3.21875 
L 6.890625 13.375 
Q 12.890625 10.015625 18.65625 8.296875 
Q 24.421875 6.59375 29.984375 6.59375 
Q 38.421875 6.59375 43.015625 9.90625 
Q 47.609375 13.234375 47.609375 19.390625 
Q 47.609375 24.75 44.3125 27.78125 
Q 41.015625 30.8125 33.5 32.328125 
L 27.484375 33.5 
Q 16.453125 35.6875 11.515625 40.375 
Q 6.59375 45.0625 6.59375 53.421875 
Q 6.59375 63.09375 13.40625 68.65625 
Q 20.21875 74.21875 32.171875 74.21875 
Q 37.3125 74.21875 42.625 73.28125 
Q 47.953125 72.359375 53.515625 70.515625 
" id="BitstreamVeraSans-Roman-53"/>
     <path d="M 18.109375 8.203125 
L 18.109375 -20.796875 
L 9.078125 -20.796875 
L 9.078125 54.6875 
L 18.109375 54.6875 
L 18.109375 46.390625 
Q 20.953125 51.265625 25.265625 53.625 
Q 29.59375 56 35.59375 56 
Q 45.5625 56 51.78125 48.09375 
Q 58.015625 40.1875 58.015625 27.296875 
Q 58.015625 14.40625 51.78125 6.484375 
Q 45.5625 -1.421875 35.59375 -1.421875 
Q 29.59375 -1.421875 25.265625 0.953125 
Q 20.953125 3.328125 18.109375 8.203125 
M 48.6875 27.296875 
Q 48.6875 37.203125 44.609375 42.84375 
Q 40.53125 48.484375 33.40625 48.484375 
Q 26.265625 48.484375 22.1875 42.84375 
Q 18.109375 37.203125 18.109375 27.296875 
Q 18.109375 17.390625 22.1875 11.75 
Q 26.265625 6.109375 33.40625 6.109375 
Q 40.53125 6.109375 44.609375 11.75 
Q 48.6875 17.390625 48.6875 27.296875 
" id="BitstreamVeraSans-Roman-70"/>
     <path d="M 9.421875 75.984375 
L 18.40625 75.984375 
L 18.40625 0 
L 9.421875 0 
z
" id="BitstreamVeraSans-Roman-6c"/>
    </defs>
    <g transform="translate(456.687 45.4)scale(0.144 -0.144)">
     <use xlink:href="#BitstreamVeraSans-Roman-53"/>
     <use x="63.4765625" xlink:href="#BitstreamVeraSans-Roman-63"/>
     <use x="118.45703125" xlink:href="#BitstreamVeraSans-Roman-61"/>
     <use x="179.736328125" xlink:href="#BitstreamVeraSans-Roman-6c"/>
     <use x="207.51953125" xlink:href="#BitstreamVeraSans-Roman-69"/>
     <use x="235.302734375" xlink:href="#BitstreamVeraSans-Roman-6e"/>
     <use x="298.681640625" xlink:href="#BitstreamVeraSans-Roman-67"/>
     <use x="362.158203125" xlink:href="#BitstreamVeraSans-Roman-20"/>
     <use x="393.9453125" xlink:href="#BitstreamVeraSans-Roman-75"/>
     <use x="457.32421875" xlink:href="#BitstreamVeraSans-Roman-70"/>
     <use x="520.80078125" xlink:href="#BitstreamVeraSans-Roman-3a"/>
     <use x="554.4921875" xlink:href="#BitstreamVeraSans-Roman-20"/>
     <use x="586.279296875" xlink:href="#BitstreamVeraSans-Roman-6e"/>
     <use x="649.658203125" xlink:href="#BitstreamVeraSans-Roman-65"/>
     <use x="711.181640625" xlink:href="#BitstreamVeraSans-Roman-69"/>
     <use x="738.96484375" xlink:href="#BitstreamVeraSans-Roman-67"/>
     <use x="802.44140625" xlink:href="#BitstreamVeraSans-Roman-68"/>
     <use x="865.8203125" xlink:href="#BitstreamVeraSans-Roman-62"/>
     <use x="929.296875" xlink:href="#BitstreamVeraSans-Roman-6f"/>
     <use x="990.478515625" xlink:href="#BitstreamVeraSans-Roman-72"/>
     <use x="1031.59179688" xlink:href="#BitstreamVeraSans-Roman-20"/>
     <use x="1063.37890625" xlink:href="#BitstreamVeraSans-Roman-64"/>
     <use x="1126.85546875" xlink:href="#BitstreamVeraSans-Roman-69"/>
     <use x="1154.63867188" xlink:href="#BitstreamVeraSans-Roman-73"/>
     <use x="1206.73828125" xlink:href="#BitstreamVeraSans-Roman-74"/>
     <use x="1245.94726562" xlink:href="#BitstreamVeraSans-Roman-61"/>
     <use x="1307.2265625" xlink:href="#BitstreamVeraSans-Roman-6e"/>
     <use x="1370.60546875" xlink:href="#BitstreamVeraSans-Roman-63"/>
     <use x="1425.5859375" xlink:href="#BitstreamVeraSans-Roman-65"/>
    </g>
   </g>
   <g id="legend_1">
    <g id="patch_7">
     <path d="M 972.72 117.2655 
L 1074.096 117.2655 
L 1074.096 49.536 
L 972.72 49.536 
z
" style="fill:#ffffff;stroke:#000000;stroke-linejoin:miter;"/>
    </g>
    <g id="line2d_26">
     <path d="M 982.8 61.19775 
L 1002.96 61.19775 
" style="fill:none;stroke:#0000ff;stroke-linecap:square;"/>
    </g>
    <g id="line2d_27"/>
    <g id="text_15">
     <!-- $N=30$ -->
     <defs>
      <path d="M 9.515625 7.71875 
Q 11.859375 4.296875 15.8125 2.640625 
Q 19.78125 0.984375 24.3125 0.984375 
Q 30.125 0.984375 32.5625 5.9375 
Q 35.015625 10.890625 35.015625 17.1875 
Q 35.015625 20.015625 34.5 22.84375 
Q 33.984375 25.6875 32.765625 28.125 
Q 31.546875 30.5625 29.421875 32.03125 
Q 27.296875 33.5 24.21875 33.5 
L 17.578125 33.5 
Q 16.703125 33.5 16.703125 34.421875 
L 16.703125 35.296875 
Q 16.703125 36.078125 17.578125 36.078125 
L 23.09375 36.53125 
Q 26.609375 36.53125 28.921875 39.15625 
Q 31.25 41.796875 32.328125 45.578125 
Q 33.40625 49.359375 33.40625 52.78125 
Q 33.40625 57.5625 31.15625 60.640625 
Q 28.90625 63.71875 24.3125 63.71875 
Q 20.515625 63.71875 17.046875 62.28125 
Q 13.578125 60.84375 11.53125 57.90625 
Q 11.71875 57.953125 11.859375 57.984375 
Q 12.015625 58.015625 12.203125 58.015625 
Q 14.453125 58.015625 15.96875 56.453125 
Q 17.484375 54.890625 17.484375 52.6875 
Q 17.484375 50.53125 15.96875 48.96875 
Q 14.453125 47.40625 12.203125 47.40625 
Q 10.015625 47.40625 8.453125 48.96875 
Q 6.890625 50.53125 6.890625 52.6875 
Q 6.890625 56.984375 9.46875 60.15625 
Q 12.0625 63.328125 16.140625 64.96875 
Q 20.21875 66.609375 24.3125 66.609375 
Q 27.34375 66.609375 30.703125 65.703125 
Q 34.078125 64.796875 36.8125 63.109375 
Q 39.546875 61.421875 41.28125 58.78125 
Q 43.015625 56.15625 43.015625 52.78125 
Q 43.015625 48.578125 41.140625 45.015625 
Q 39.265625 41.453125 35.984375 38.859375 
Q 32.71875 36.28125 28.8125 35.015625 
Q 33.15625 34.1875 37.0625 31.734375 
Q 40.96875 29.296875 43.328125 25.484375 
Q 45.703125 21.6875 45.703125 17.28125 
Q 45.703125 11.765625 42.671875 7.296875 
Q 39.65625 2.828125 34.71875 0.3125 
Q 29.78125 -2.203125 24.3125 -2.203125 
Q 19.625 -2.203125 14.90625 -0.40625 
Q 10.203125 1.375 7.203125 4.9375 
Q 4.203125 8.5 4.203125 13.484375 
Q 4.203125 15.96875 5.859375 17.625 
Q 7.515625 19.28125 10.015625 19.28125 
Q 11.625 19.28125 12.96875 18.53125 
Q 14.3125 17.78125 15.0625 16.40625 
Q 15.828125 15.046875 15.828125 13.484375 
Q 15.828125 11.03125 14.109375 9.375 
Q 12.40625 7.71875 10.015625 7.71875 
z
" id="Cmr10-33"/>
      <path d="M 4.6875 0 
Q 3.71875 0 3.71875 1.3125 
Q 3.765625 1.5625 3.90625 2.171875 
Q 4.046875 2.78125 4.3125 3.140625 
Q 4.59375 3.515625 4.984375 3.515625 
Q 14.546875 3.515625 16.109375 9.625 
L 29.6875 64.3125 
Q 26.90625 64.796875 20.90625 64.796875 
Q 19.921875 64.796875 19.921875 66.109375 
Q 19.96875 66.359375 20.109375 66.96875 
Q 20.265625 67.578125 20.53125 67.9375 
Q 20.796875 68.3125 21.1875 68.3125 
L 38.484375 68.3125 
Q 39.203125 68.3125 39.40625 67.671875 
L 61.625 14.796875 
L 72.703125 59.078125 
Q 72.90625 60.15625 72.90625 60.59375 
Q 72.90625 64.796875 65.1875 64.796875 
Q 64.203125 64.796875 64.203125 66.109375 
Q 64.546875 67.390625 64.734375 67.84375 
Q 64.9375 68.3125 65.921875 68.3125 
L 87.3125 68.3125 
Q 88.28125 68.3125 88.28125 67 
Q 88.234375 66.75 88.078125 66.140625 
Q 87.9375 65.53125 87.671875 65.15625 
Q 87.40625 64.796875 87.015625 64.796875 
Q 77.4375 64.796875 75.875 58.6875 
L 61.53125 0.875 
Q 61.1875 0 60.5 0 
L 59.28125 0 
Q 58.59375 0 58.40625 0.6875 
L 32.90625 61.1875 
L 32.71875 61.8125 
Q 32.515625 62.015625 32.515625 62.109375 
L 19.28125 9.1875 
Q 19.1875 8.9375 19.140625 8.5625 
Q 19.09375 8.203125 19 7.71875 
Q 19 5.125 21.234375 4.3125 
Q 23.484375 3.515625 26.8125 3.515625 
Q 27.78125 3.515625 27.78125 2.203125 
Q 27.4375 0.828125 27.1875 0.40625 
Q 26.953125 0 26.125 0 
z
" id="Cmmi10-4e"/>
      <path d="M 25 -2.203125 
Q 12.75 -2.203125 8.328125 7.875 
Q 3.90625 17.96875 3.90625 31.890625 
Q 3.90625 40.578125 5.484375 48.234375 
Q 7.078125 55.90625 11.78125 61.25 
Q 16.5 66.609375 25 66.609375 
Q 31.59375 66.609375 35.78125 63.375 
Q 39.984375 60.15625 42.1875 55.046875 
Q 44.390625 49.953125 45.1875 44.109375 
Q 46 38.28125 46 31.890625 
Q 46 23.296875 44.40625 15.796875 
Q 42.828125 8.296875 38.1875 3.046875 
Q 33.546875 -2.203125 25 -2.203125 
M 25 0.390625 
Q 30.5625 0.390625 33.296875 6.09375 
Q 36.03125 11.8125 36.671875 18.75 
Q 37.3125 25.6875 37.3125 33.5 
Q 37.3125 41.015625 36.671875 47.359375 
Q 36.03125 53.71875 33.3125 58.859375 
Q 30.609375 64.015625 25 64.015625 
Q 19.34375 64.015625 16.609375 58.828125 
Q 13.875 53.65625 13.234375 47.328125 
Q 12.59375 41.015625 12.59375 33.5 
Q 12.59375 27.9375 12.859375 23 
Q 13.140625 18.0625 14.3125 12.8125 
Q 15.484375 7.5625 18.09375 3.96875 
Q 20.703125 0.390625 25 0.390625 
" id="Cmr10-30"/>
      <path d="M 7.515625 13.28125 
Q 6.6875 13.28125 6.140625 13.90625 
Q 5.609375 14.546875 5.609375 15.28125 
Q 5.609375 16.109375 6.140625 16.6875 
Q 6.6875 17.28125 7.515625 17.28125 
L 70.3125 17.28125 
Q 71.046875 17.28125 71.578125 16.6875 
Q 72.125 16.109375 72.125 15.28125 
Q 72.125 14.546875 71.578125 13.90625 
Q 71.046875 13.28125 70.3125 13.28125 
z
M 7.515625 32.71875 
Q 6.6875 32.71875 6.140625 33.296875 
Q 5.609375 33.890625 5.609375 34.71875 
Q 5.609375 35.453125 6.140625 36.078125 
Q 6.6875 36.71875 7.515625 36.71875 
L 70.3125 36.71875 
Q 71.046875 36.71875 71.578125 36.078125 
Q 72.125 35.453125 72.125 34.71875 
Q 72.125 33.890625 71.578125 33.296875 
Q 71.046875 32.71875 70.3125 32.71875 
z
" id="Cmr10-3d"/>
     </defs>
     <g transform="translate(1018.8 66.23775)scale(0.144 -0.144)">
      <use transform="translate(0.0 0.6875)" xlink:href="#Cmmi10-4e"/>
      <use transform="translate(97.880859375 0.6875)" xlink:href="#Cmr10-3d"/>
      <use transform="translate(193.125 0.6875)" xlink:href="#Cmr10-33"/>
      <use transform="translate(243.125 0.6875)" xlink:href="#Cmr10-30"/>
     </g>
    </g>
    <g id="line2d_28">
     <path d="M 982.8 82.33425 
L 1002.96 82.33425 
" style="fill:none;stroke:#008000;stroke-linecap:square;"/>
    </g>
    <g id="line2d_29"/>
    <g id="text_16">
     <!-- $N=60$ -->
     <defs>
      <path d="M 25 -2.203125 
Q 18.796875 -2.203125 14.640625 1.09375 
Q 10.5 4.390625 8.21875 9.640625 
Q 5.953125 14.890625 5.078125 20.65625 
Q 4.203125 26.421875 4.203125 32.328125 
Q 4.203125 40.234375 7.28125 48.1875 
Q 10.359375 56.15625 16.328125 61.375 
Q 22.3125 66.609375 30.515625 66.609375 
Q 33.9375 66.609375 36.890625 65.3125 
Q 39.84375 64.015625 41.53125 61.5 
Q 43.21875 58.984375 43.21875 55.421875 
Q 43.21875 53.375 41.828125 51.984375 
Q 40.4375 50.59375 38.375 50.59375 
Q 36.421875 50.59375 35 52 
Q 33.59375 53.421875 33.59375 55.421875 
Q 33.59375 57.375 35 58.78125 
Q 36.421875 60.203125 38.375 60.203125 
L 38.921875 60.203125 
Q 37.640625 62.015625 35.328125 62.859375 
Q 33.015625 63.71875 30.515625 63.71875 
Q 27.484375 63.71875 24.921875 62.390625 
Q 22.359375 61.078125 20.3125 58.828125 
Q 18.265625 56.59375 16.890625 53.875 
Q 15.53125 51.171875 14.765625 47.703125 
Q 14.015625 44.234375 13.8125 41.203125 
Q 13.625 38.1875 13.625 33.59375 
Q 15.375 37.703125 18.59375 40.3125 
Q 21.828125 42.921875 25.875 42.921875 
Q 30.328125 42.921875 33.984375 41.109375 
Q 37.640625 39.3125 40.28125 36.109375 
Q 42.921875 32.90625 44.3125 28.796875 
Q 45.703125 24.703125 45.703125 20.515625 
Q 45.703125 14.65625 43.09375 9.34375 
Q 40.484375 4.046875 35.734375 0.921875 
Q 31 -2.203125 25 -2.203125 
M 25 0.984375 
Q 28.859375 0.984375 31.203125 2.734375 
Q 33.546875 4.5 34.640625 7.390625 
Q 35.75 10.296875 36.015625 13.25 
Q 36.28125 16.21875 36.28125 20.515625 
Q 36.28125 26.171875 35.734375 30.171875 
Q 35.203125 34.1875 32.8125 37.234375 
Q 30.421875 40.28125 25.484375 40.28125 
Q 21.4375 40.28125 18.828125 37.546875 
Q 16.21875 34.8125 15.015625 30.640625 
Q 13.8125 26.46875 13.8125 22.609375 
Q 13.8125 21.296875 13.921875 20.609375 
Q 13.921875 20.453125 13.890625 20.359375 
Q 13.875 20.265625 13.8125 20.125 
Q 13.8125 15.828125 14.6875 11.421875 
Q 15.578125 7.03125 18.0625 4 
Q 20.5625 0.984375 25 0.984375 
" id="Cmr10-36"/>
     </defs>
     <g transform="translate(1018.8 87.37425)scale(0.144 -0.144)">
      <use transform="translate(0.0 0.6875)" xlink:href="#Cmmi10-4e"/>
      <use transform="translate(97.880859375 0.6875)" xlink:href="#Cmr10-3d"/>
      <use transform="translate(193.125 0.6875)" xlink:href="#Cmr10-36"/>
      <use transform="translate(243.125 0.6875)" xlink:href="#Cmr10-30"/>
     </g>
    </g>
    <g id="line2d_30">
     <path d="M 982.8 103.47075 
L 1002.96 103.47075 
" style="fill:none;stroke:#ff0000;stroke-linecap:square;"/>
    </g>
    <g id="line2d_31"/>
    <g id="text_17">
     <!-- $N=120$ -->
     <defs>
      <path d="M 4.984375 0 
L 4.984375 2.6875 
Q 4.984375 2.9375 5.171875 3.21875 
L 20.703125 20.40625 
Q 24.21875 24.21875 26.40625 26.796875 
Q 28.609375 29.390625 30.75 32.765625 
Q 32.90625 36.140625 34.15625 39.625 
Q 35.40625 43.109375 35.40625 47.015625 
Q 35.40625 51.125 33.890625 54.859375 
Q 32.375 58.59375 29.375 60.84375 
Q 26.375 63.09375 22.125 63.09375 
Q 17.78125 63.09375 14.3125 60.46875 
Q 10.84375 57.859375 9.421875 53.71875 
Q 9.8125 53.8125 10.5 53.8125 
Q 12.75 53.8125 14.328125 52.296875 
Q 15.921875 50.78125 15.921875 48.390625 
Q 15.921875 46.09375 14.328125 44.5 
Q 12.75 42.921875 10.5 42.921875 
Q 8.15625 42.921875 6.5625 44.546875 
Q 4.984375 46.1875 4.984375 48.390625 
Q 4.984375 52.15625 6.390625 55.4375 
Q 7.8125 58.734375 10.46875 61.296875 
Q 13.140625 63.875 16.484375 65.234375 
Q 19.828125 66.609375 23.578125 66.609375 
Q 29.296875 66.609375 34.21875 64.1875 
Q 39.15625 61.765625 42.03125 57.34375 
Q 44.921875 52.9375 44.921875 47.015625 
Q 44.921875 42.671875 43.015625 38.765625 
Q 41.109375 34.859375 38.125 31.65625 
Q 35.15625 28.46875 30.515625 24.40625 
Q 25.875 20.359375 24.421875 19 
L 13.09375 8.109375 
L 22.703125 8.109375 
Q 29.78125 8.109375 34.546875 8.21875 
Q 39.3125 8.34375 39.59375 8.59375 
Q 40.765625 9.859375 42 17.828125 
L 44.921875 17.828125 
L 42.09375 0 
z
" id="Cmr10-32"/>
      <path d="M 9.28125 0 
L 9.28125 3.515625 
Q 21.78125 3.515625 21.78125 6.6875 
L 21.78125 59.1875 
Q 16.609375 56.6875 8.6875 56.6875 
L 8.6875 60.203125 
Q 20.953125 60.203125 27.203125 66.609375 
L 28.609375 66.609375 
Q 28.953125 66.609375 29.265625 66.328125 
Q 29.59375 66.0625 29.59375 65.71875 
L 29.59375 6.6875 
Q 29.59375 3.515625 42.09375 3.515625 
L 42.09375 0 
z
" id="Cmr10-31"/>
     </defs>
     <g transform="translate(1018.8 108.51075)scale(0.144 -0.144)">
      <use transform="translate(0.0 0.6875)" xlink:href="#Cmmi10-4e"/>
      <use transform="translate(97.880859375 0.6875)" xlink:href="#Cmr10-3d"/>
      <use transform="translate(193.125 0.6875)" xlink:href="#Cmr10-31"/>
      <use transform="translate(243.125 0.6875)" xlink:href="#Cmr10-32"/>
      <use transform="translate(293.125 0.6875)" xlink:href="#Cmr10-30"/>
     </g>
    </g>
   </g>
  </g>
 </g>
 <defs>
  <clipPath id="pdcd8aafc90">
   <rect height="403.2" width="803.52" x="162.0" y="50.4"/>
  </clipPath>
 </defs>
</svg>
