<?xml version="1.0" encoding="utf-8" standalone="no"?>
<!DOCTYPE svg PUBLIC "-//W3C//DTD SVG 1.1//EN"
  "http://www.w3.org/Graphics/SVG/1.1/DTD/svg11.dtd">
<!-- Created with matplotlib (http://matplotlib.org/) -->
<svg height="504pt" version="1.1" viewBox="0 0 1296 504" width="1296pt" xmlns="http://www.w3.org/2000/svg" xmlns:xlink="http://www.w3.org/1999/xlink">
 <defs>
  <style type="text/css">
*{stroke-linecap:butt;stroke-linejoin:round;stroke-miterlimit:100000;}
  </style>
 </defs>
 <g id="figure_1">
  <g id="patch_1">
   <path d="M 0 504 
L 1296 504 
L 1296 0 
L 0 0 
z
" style="fill:#ffffff;"/>
  </g>
  <g id="axes_1">
   <g id="patch_2">
    <path d="M 162 453.6 
L 965.52 453.6 
L 965.52 50.4 
L 162 50.4 
z
" style="fill:#ffffff;"/>
   </g>
   <g id="line2d_1">
    <path clip-path="url(#pcf45fda108)" d="M 162 98.784 
L 163.60704 104.832 
L 165.21408 122.976 
L 166.82112 143.136 
L 168.42816 147.168 
L 170.0352 153.216 
L 171.64224 175.392 
L 173.24928 187.488 
L 176.46336 203.616 
L 181.28448 239.904 
L 182.89152 254.016 
L 186.1056 274.176 
L 187.71264 274.176 
L 189.31968 280.224 
L 194.1408 292.32 
L 195.74784 298.368 
L 197.35488 302.4 
L 202.176 308.448 
L 203.78304 308.448 
L 205.39008 316.512 
L 206.99712 316.512 
L 210.2112 320.544 
L 211.81824 326.592 
L 213.42528 326.592 
L 215.03232 328.608 
L 216.63936 328.608 
L 218.2464 334.656 
L 221.46048 342.72 
L 223.06752 342.72 
L 226.2816 350.784 
L 227.88864 352.8 
L 229.49568 352.8 
L 231.10272 358.848 
L 234.3168 362.88 
L 235.92384 366.912 
L 239.13792 366.912 
L 240.74496 368.928 
L 245.56608 368.928 
L 247.17312 370.944 
L 255.20832 370.944 
L 256.81536 372.96 
L 263.24352 372.96 
L 264.85056 374.976 
L 268.06464 374.976 
L 269.67168 376.992 
L 271.27872 376.992 
L 272.88576 379.008 
L 274.4928 376.992 
L 290.5632 376.992 
L 292.17024 379.008 
L 293.77728 383.04 
L 295.38432 385.056 
L 296.99136 385.056 
L 300.20544 389.088 
L 305.02656 389.088 
L 306.6336 391.104 
L 308.24064 391.104 
L 311.45472 395.136 
L 313.06176 393.12 
L 314.6688 393.12 
L 316.27584 395.136 
L 317.88288 401.184 
L 324.31104 401.184 
L 325.91808 399.168 
L 327.52512 399.168 
L 330.7392 403.2 
L 338.7744 403.2 
L 340.38144 401.184 
L 343.59552 401.184 
L 345.20256 403.2 
L 361.27296 403.2 
L 362.88 405.216 
L 364.48704 409.248 
L 375.73632 409.248 
L 377.34336 411.264 
L 411.0912 411.264 
L 412.69824 413.28 
L 423.94752 413.28 
L 425.55456 415.296 
L 454.48128 415.296 
L 456.08832 413.28 
L 491.4432 413.28 
L 493.05024 415.296 
L 523.584 415.296 
L 525.19104 417.312 
L 531.6192 417.312 
L 533.22624 419.328 
L 534.83328 417.312 
L 568.58112 417.312 
L 570.18816 419.328 
L 571.7952 419.328 
L 573.40224 417.312 
L 608.75712 417.312 
L 610.36416 419.328 
L 611.9712 419.328 
L 613.57824 421.344 
L 637.68384 421.344 
L 639.29088 419.328 
L 644.112 419.328 
L 645.71904 421.344 
L 647.32608 421.344 
L 648.93312 423.36 
L 676.2528 423.36 
L 677.85984 421.344 
L 722.85696 421.344 
L 724.464 419.328 
L 730.89216 419.328 
L 732.4992 421.344 
L 751.78368 421.344 
L 753.39072 419.328 
L 803.20896 419.328 
L 804.816 421.344 
L 830.52864 421.344 
L 832.13568 423.36 
L 836.9568 423.36 
L 838.56384 425.376 
L 870.70464 425.376 
L 872.31168 427.392 
L 873.91872 425.376 
L 888.38208 425.376 
L 889.98912 423.36 
L 901.2384 423.36 
L 902.84544 425.376 
L 923.73696 425.376 
L 925.344 423.36 
L 938.20032 423.36 
L 939.80736 425.376 
L 947.84256 425.376 
L 949.4496 423.36 
L 957.4848 423.36 
L 959.09184 421.344 
L 963.91296 421.344 
L 963.91296 421.344 
" style="fill:none;stroke:#0000ff;stroke-linecap:square;"/>
   </g>
   <g id="line2d_2">
    <path clip-path="url(#pcf45fda108)" d="M 162 60.48 
L 163.60704 88.704 
L 165.21408 96.768 
L 166.82112 108.864 
L 168.42816 131.04 
L 171.64224 167.328 
L 173.24928 183.456 
L 174.85632 213.696 
L 176.46336 221.76 
L 178.0704 233.856 
L 179.67744 237.888 
L 181.28448 245.952 
L 182.89152 252 
L 186.1056 268.128 
L 187.71264 270.144 
L 189.31968 274.176 
L 190.92672 284.256 
L 192.53376 284.256 
L 195.74784 288.288 
L 197.35488 294.336 
L 198.96192 296.352 
L 200.56896 300.384 
L 202.176 308.448 
L 203.78304 306.432 
L 205.39008 320.544 
L 206.99712 330.624 
L 208.60416 328.608 
L 210.2112 330.624 
L 211.81824 334.656 
L 215.03232 334.656 
L 216.63936 338.688 
L 218.2464 344.736 
L 219.85344 346.752 
L 221.46048 346.752 
L 223.06752 348.768 
L 224.67456 348.768 
L 226.2816 352.8 
L 229.49568 352.8 
L 231.10272 354.816 
L 232.70976 360.864 
L 235.92384 360.864 
L 237.53088 362.88 
L 240.74496 370.944 
L 243.95904 370.944 
L 245.56608 366.912 
L 247.17312 364.896 
L 248.78016 366.912 
L 251.99424 374.976 
L 253.60128 372.96 
L 255.20832 374.976 
L 256.81536 374.976 
L 258.4224 379.008 
L 263.24352 379.008 
L 264.85056 381.024 
L 268.06464 381.024 
L 269.67168 387.072 
L 274.4928 387.072 
L 276.09984 389.088 
L 277.70688 389.088 
L 279.31392 391.104 
L 280.92096 395.136 
L 285.74208 395.136 
L 287.34912 399.168 
L 292.17024 399.168 
L 295.38432 403.2 
L 301.81248 403.2 
L 303.41952 407.232 
L 305.02656 407.232 
L 309.84768 401.184 
L 313.06176 401.184 
L 314.6688 403.2 
L 316.27584 401.184 
L 317.88288 403.2 
L 321.09696 403.2 
L 322.704 405.216 
L 324.31104 405.216 
L 325.91808 409.248 
L 332.34624 409.248 
L 333.95328 411.264 
L 340.38144 411.264 
L 341.98848 415.296 
L 364.48704 415.296 
L 367.70112 411.264 
L 375.73632 411.264 
L 377.34336 409.248 
L 378.9504 411.264 
L 396.62784 411.264 
L 398.23488 413.28 
L 399.84192 413.28 
L 401.44896 415.296 
L 404.66304 415.296 
L 406.27008 417.312 
L 407.87712 423.36 
L 412.69824 429.408 
L 419.1264 429.408 
L 420.73344 427.392 
L 422.34048 427.392 
L 425.55456 431.424 
L 427.1616 431.424 
L 430.37568 427.392 
L 435.1968 427.392 
L 436.80384 425.376 
L 441.62496 425.376 
L 443.232 423.36 
L 448.05312 423.36 
L 451.2672 419.328 
L 456.08832 419.328 
L 457.69536 417.312 
L 464.12352 417.312 
L 465.73056 415.296 
L 470.55168 415.296 
L 472.15872 417.312 
L 473.76576 417.312 
L 475.3728 419.328 
L 478.58688 419.328 
L 480.19392 421.344 
L 485.01504 421.344 
L 486.62208 419.328 
L 494.65728 419.328 
L 496.26432 421.344 
L 499.4784 421.344 
L 501.08544 419.328 
L 507.5136 419.328 
L 509.12064 417.312 
L 510.72768 417.312 
L 512.33472 413.28 
L 513.94176 415.296 
L 518.76288 415.296 
L 520.36992 409.248 
L 526.79808 409.248 
L 528.40512 411.264 
L 533.22624 411.264 
L 534.83328 409.248 
L 536.44032 411.264 
L 538.04736 415.296 
L 544.47552 415.296 
L 546.08256 417.312 
L 547.6896 417.312 
L 549.29664 415.296 
L 555.7248 415.296 
L 557.33184 417.312 
L 558.93888 415.296 
L 566.97408 415.296 
L 568.58112 417.312 
L 573.40224 417.312 
L 575.00928 415.296 
L 576.61632 415.296 
L 579.8304 419.328 
L 591.07968 419.328 
L 592.68672 415.296 
L 595.9008 415.296 
L 599.11488 411.264 
L 603.936 411.264 
L 605.54304 409.248 
L 607.15008 411.264 
L 608.75712 411.264 
L 611.9712 407.232 
L 621.61344 407.232 
L 623.22048 409.248 
L 624.82752 409.248 
L 626.43456 411.264 
L 631.25568 411.264 
L 634.46976 415.296 
L 636.0768 411.264 
L 637.68384 409.248 
L 656.96832 409.248 
L 658.57536 411.264 
L 660.1824 407.232 
L 663.39648 407.232 
L 665.00352 411.264 
L 668.2176 411.264 
L 669.82464 413.28 
L 674.64576 413.28 
L 676.2528 411.264 
L 681.07392 411.264 
L 682.68096 413.28 
L 689.10912 413.28 
L 690.71616 415.296 
L 693.93024 415.296 
L 695.53728 417.312 
L 706.78656 417.312 
L 708.3936 419.328 
L 710.00064 419.328 
L 711.60768 417.312 
L 713.21472 417.312 
L 714.82176 415.296 
L 719.64288 415.296 
L 721.24992 411.264 
L 722.85696 409.248 
L 735.71328 409.248 
L 737.32032 411.264 
L 738.92736 409.248 
L 746.96256 409.248 
L 750.17664 405.216 
L 751.78368 407.232 
L 756.6048 407.232 
L 758.21184 405.216 
L 761.42592 405.216 
L 763.03296 403.2 
L 774.28224 403.2 
L 775.88928 405.216 
L 777.49632 405.216 
L 779.10336 407.232 
L 785.53152 407.232 
L 787.13856 409.248 
L 791.95968 409.248 
L 793.56672 411.264 
L 795.17376 409.248 
L 799.99488 409.248 
L 801.60192 411.264 
L 803.20896 411.264 
L 804.816 409.248 
L 806.42304 409.248 
L 808.03008 411.264 
L 812.8512 411.264 
L 814.45824 415.296 
L 822.49344 415.296 
L 824.10048 417.312 
L 832.13568 417.312 
L 833.74272 415.296 
L 840.17088 415.296 
L 841.77792 413.28 
L 843.38496 415.296 
L 846.59904 415.296 
L 848.20608 413.28 
L 849.81312 415.296 
L 854.63424 415.296 
L 856.24128 413.28 
L 859.45536 413.28 
L 861.0624 411.264 
L 862.66944 411.264 
L 864.27648 413.28 
L 865.88352 413.28 
L 867.49056 417.312 
L 869.0976 413.28 
L 872.31168 417.312 
L 877.1328 417.312 
L 878.73984 413.28 
L 880.34688 415.296 
L 883.56096 415.296 
L 885.168 411.264 
L 888.38208 411.264 
L 889.98912 409.248 
L 891.59616 409.248 
L 893.2032 411.264 
L 894.81024 411.264 
L 896.41728 409.248 
L 906.05952 409.248 
L 907.66656 413.28 
L 909.2736 415.296 
L 912.48768 415.296 
L 914.09472 413.28 
L 920.52288 413.28 
L 922.12992 417.312 
L 923.73696 419.328 
L 925.344 417.312 
L 926.95104 417.312 
L 928.55808 415.296 
L 930.16512 415.296 
L 931.77216 417.312 
L 933.3792 417.312 
L 934.98624 415.296 
L 936.59328 417.312 
L 939.80736 413.28 
L 943.02144 413.28 
L 944.62848 417.312 
L 954.27072 417.312 
L 955.87776 415.296 
L 957.4848 415.296 
L 959.09184 413.28 
L 960.69888 415.296 
L 962.30592 413.28 
L 963.91296 413.28 
L 963.91296 413.28 
" style="fill:none;stroke:#008000;stroke-linecap:square;"/>
   </g>
   <g id="line2d_3">
    <path clip-path="url(#pcf45fda108)" d="M 162 84.672 
L 163.60704 98.784 
L 165.21408 110.88 
L 166.82112 124.992 
L 168.42816 147.168 
L 171.64224 179.424 
L 173.24928 187.488 
L 174.85632 209.664 
L 176.46336 223.776 
L 178.0704 231.84 
L 179.67744 245.952 
L 181.28448 247.968 
L 184.49856 260.064 
L 189.31968 290.304 
L 190.92672 296.352 
L 192.53376 304.416 
L 194.1408 308.448 
L 195.74784 310.464 
L 203.78304 340.704 
L 205.39008 342.72 
L 206.99712 346.752 
L 208.60416 354.816 
L 210.2112 358.848 
L 211.81824 356.832 
L 215.03232 356.832 
L 216.63936 358.848 
L 218.2464 366.912 
L 219.85344 364.896 
L 221.46048 364.896 
L 223.06752 360.864 
L 226.2816 360.864 
L 227.88864 366.912 
L 229.49568 368.928 
L 231.10272 364.896 
L 232.70976 370.944 
L 239.13792 370.944 
L 240.74496 372.96 
L 243.95904 372.96 
L 245.56608 374.976 
L 247.17312 372.96 
L 253.60128 372.96 
L 255.20832 368.928 
L 256.81536 372.96 
L 258.4224 374.976 
L 260.02944 379.008 
L 261.63648 379.008 
L 263.24352 383.04 
L 266.4576 383.04 
L 268.06464 381.024 
L 269.67168 381.024 
L 271.27872 383.04 
L 274.4928 383.04 
L 276.09984 385.056 
L 277.70688 385.056 
L 280.92096 389.088 
L 282.528 387.072 
L 284.13504 383.04 
L 287.34912 383.04 
L 288.95616 385.056 
L 290.5632 385.056 
L 292.17024 387.072 
L 293.77728 385.056 
L 301.81248 385.056 
L 303.41952 379.008 
L 309.84768 379.008 
L 313.06176 383.04 
L 314.6688 389.088 
L 317.88288 385.056 
L 319.48992 385.056 
L 321.09696 387.072 
L 325.91808 387.072 
L 327.52512 383.04 
L 333.95328 383.04 
L 335.56032 379.008 
L 337.16736 376.992 
L 341.98848 376.992 
L 343.59552 372.96 
L 345.20256 372.96 
L 346.8096 374.976 
L 348.41664 374.976 
L 350.02368 379.008 
L 353.23776 379.008 
L 354.8448 376.992 
L 356.45184 387.072 
L 358.05888 385.056 
L 359.66592 389.088 
L 362.88 389.088 
L 364.48704 391.104 
L 366.09408 391.104 
L 369.30816 395.136 
L 370.9152 395.136 
L 372.52224 397.152 
L 375.73632 397.152 
L 377.34336 393.12 
L 378.9504 399.168 
L 383.77152 405.216 
L 388.59264 405.216 
L 391.80672 409.248 
L 393.41376 405.216 
L 398.23488 399.168 
L 399.84192 399.168 
L 401.44896 401.184 
L 403.056 401.184 
L 404.66304 399.168 
L 406.27008 401.184 
L 411.0912 401.184 
L 412.69824 403.2 
L 415.91232 403.2 
L 417.51936 399.168 
L 419.1264 399.168 
L 422.34048 395.136 
L 423.94752 399.168 
L 425.55456 397.152 
L 427.1616 397.152 
L 428.76864 395.136 
L 430.37568 397.152 
L 431.98272 395.136 
L 433.58976 395.136 
L 435.1968 397.152 
L 438.41088 397.152 
L 440.01792 399.168 
L 441.62496 403.2 
L 444.83904 403.2 
L 446.44608 407.232 
L 448.05312 407.232 
L 449.66016 403.2 
L 451.2672 403.2 
L 452.87424 405.216 
L 456.08832 397.152 
L 457.69536 395.136 
L 459.3024 397.152 
L 462.51648 393.12 
L 464.12352 395.136 
L 465.73056 391.104 
L 467.3376 395.136 
L 470.55168 399.168 
L 473.76576 399.168 
L 475.3728 397.152 
L 483.408 397.152 
L 485.01504 395.136 
L 486.62208 391.104 
L 488.22912 393.12 
L 489.83616 393.12 
L 491.4432 391.104 
L 496.26432 391.104 
L 497.87136 393.12 
L 499.4784 397.152 
L 501.08544 397.152 
L 502.69248 395.136 
L 504.29952 397.152 
L 505.90656 397.152 
L 510.72768 403.2 
L 512.33472 399.168 
L 513.94176 399.168 
L 515.5488 395.136 
L 517.15584 399.168 
L 518.76288 399.168 
L 520.36992 397.152 
L 523.584 405.216 
L 526.79808 405.216 
L 528.40512 403.2 
L 531.6192 403.2 
L 533.22624 401.184 
L 534.83328 397.152 
L 536.44032 397.152 
L 538.04736 391.104 
L 539.6544 389.088 
L 541.26144 391.104 
L 542.86848 389.088 
L 544.47552 391.104 
L 546.08256 389.088 
L 547.6896 389.088 
L 549.29664 391.104 
L 550.90368 389.088 
L 552.51072 385.056 
L 554.11776 387.072 
L 555.7248 391.104 
L 560.54592 391.104 
L 562.15296 387.072 
L 563.76 387.072 
L 565.36704 389.088 
L 566.97408 389.088 
L 570.18816 393.12 
L 571.7952 397.152 
L 573.40224 397.152 
L 575.00928 399.168 
L 576.61632 399.168 
L 578.22336 395.136 
L 579.8304 395.136 
L 581.43744 397.152 
L 583.04448 397.152 
L 584.65152 395.136 
L 586.25856 395.136 
L 587.8656 391.104 
L 589.47264 389.088 
L 591.07968 391.104 
L 594.29376 387.072 
L 595.9008 389.088 
L 597.50784 389.088 
L 600.72192 393.12 
L 605.54304 393.12 
L 607.15008 395.136 
L 610.36416 391.104 
L 615.18528 391.104 
L 616.79232 393.12 
L 618.39936 391.104 
L 621.61344 395.136 
L 623.22048 393.12 
L 628.0416 393.12 
L 629.64864 389.088 
L 632.86272 385.056 
L 634.46976 385.056 
L 637.68384 381.024 
L 639.29088 381.024 
L 640.89792 383.04 
L 642.50496 383.04 
L 645.71904 379.008 
L 647.32608 385.056 
L 648.93312 381.024 
L 652.1472 381.024 
L 653.75424 379.008 
L 656.96832 379.008 
L 658.57536 381.024 
L 660.1824 379.008 
L 661.78944 383.04 
L 663.39648 383.04 
L 665.00352 385.056 
L 666.61056 385.056 
L 668.2176 383.04 
L 669.82464 383.04 
L 671.43168 385.056 
L 673.03872 379.008 
L 676.2528 383.04 
L 677.85984 383.04 
L 681.07392 374.976 
L 682.68096 379.008 
L 684.288 381.024 
L 685.89504 381.024 
L 687.50208 389.088 
L 689.10912 393.12 
L 690.71616 393.12 
L 692.3232 389.088 
L 695.53728 389.088 
L 697.14432 387.072 
L 700.3584 391.104 
L 701.96544 387.072 
L 703.57248 389.088 
L 705.17952 389.088 
L 706.78656 391.104 
L 708.3936 383.04 
L 710.00064 381.024 
L 711.60768 383.04 
L 713.21472 383.04 
L 714.82176 385.056 
L 716.4288 391.104 
L 721.24992 397.152 
L 722.85696 397.152 
L 724.464 395.136 
L 727.67808 399.168 
L 732.4992 393.12 
L 734.10624 397.152 
L 735.71328 403.2 
L 737.32032 397.152 
L 738.92736 393.12 
L 740.5344 397.152 
L 742.14144 399.168 
L 745.35552 399.168 
L 746.96256 391.104 
L 748.5696 387.072 
L 750.17664 387.072 
L 751.78368 389.088 
L 753.39072 393.12 
L 754.99776 393.12 
L 756.6048 391.104 
L 758.21184 387.072 
L 759.81888 389.088 
L 761.42592 389.088 
L 763.03296 393.12 
L 764.64 395.136 
L 766.24704 395.136 
L 767.85408 397.152 
L 769.46112 395.136 
L 772.6752 395.136 
L 774.28224 397.152 
L 775.88928 397.152 
L 777.49632 399.168 
L 779.10336 399.168 
L 782.31744 395.136 
L 783.92448 395.136 
L 785.53152 397.152 
L 787.13856 395.136 
L 790.35264 387.072 
L 791.95968 389.088 
L 793.56672 387.072 
L 795.17376 393.12 
L 796.7808 393.12 
L 798.38784 391.104 
L 799.99488 393.12 
L 803.20896 393.12 
L 804.816 397.152 
L 806.42304 397.152 
L 809.63712 393.12 
L 811.24416 393.12 
L 812.8512 395.136 
L 816.06528 395.136 
L 817.67232 393.12 
L 819.27936 395.136 
L 820.8864 393.12 
L 824.10048 397.152 
L 825.70752 391.104 
L 827.31456 393.12 
L 828.9216 389.088 
L 830.52864 391.104 
L 833.74272 391.104 
L 835.34976 393.12 
L 836.9568 389.088 
L 840.17088 393.12 
L 841.77792 393.12 
L 846.59904 399.168 
L 848.20608 393.12 
L 849.81312 395.136 
L 851.42016 395.136 
L 853.0272 391.104 
L 854.63424 393.12 
L 856.24128 389.088 
L 857.84832 387.072 
L 859.45536 391.104 
L 864.27648 391.104 
L 865.88352 389.088 
L 867.49056 391.104 
L 869.0976 391.104 
L 870.70464 395.136 
L 872.31168 393.12 
L 877.1328 393.12 
L 878.73984 397.152 
L 880.34688 395.136 
L 881.95392 395.136 
L 883.56096 393.12 
L 885.168 393.12 
L 886.77504 391.104 
L 888.38208 391.104 
L 889.98912 389.088 
L 893.2032 389.088 
L 896.41728 393.12 
L 899.63136 393.12 
L 901.2384 391.104 
L 906.05952 397.152 
L 909.2736 397.152 
L 910.88064 395.136 
L 912.48768 389.088 
L 915.70176 393.12 
L 917.3088 391.104 
L 918.91584 391.104 
L 920.52288 389.088 
L 923.73696 389.088 
L 925.344 393.12 
L 926.95104 393.12 
L 928.55808 395.136 
L 930.16512 395.136 
L 931.77216 393.12 
L 933.3792 393.12 
L 938.20032 387.072 
L 939.80736 395.136 
L 943.02144 395.136 
L 944.62848 389.088 
L 946.23552 393.12 
L 949.4496 393.12 
L 952.66368 389.088 
L 954.27072 391.104 
L 955.87776 389.088 
L 957.4848 393.12 
L 959.09184 393.12 
L 960.69888 391.104 
L 962.30592 393.12 
L 963.91296 391.104 
L 963.91296 391.104 
" style="fill:none;stroke:#ff0000;stroke-linecap:square;"/>
   </g>
   <g id="line2d_4">
    <path clip-path="url(#pcf45fda108)" d="M 162 94.752 
L 163.60704 124.992 
L 165.21408 131.04 
L 166.82112 147.168 
L 168.42816 157.248 
L 170.0352 163.296 
L 171.64224 175.392 
L 173.24928 177.408 
L 174.85632 197.568 
L 176.46336 219.744 
L 178.0704 229.824 
L 179.67744 243.936 
L 181.28448 254.016 
L 182.89152 262.08 
L 186.1056 270.144 
L 187.71264 280.224 
L 189.31968 286.272 
L 190.92672 296.352 
L 192.53376 302.4 
L 194.1408 312.48 
L 195.74784 304.416 
L 197.35488 314.496 
L 198.96192 322.56 
L 200.56896 328.608 
L 202.176 332.64 
L 203.78304 328.608 
L 205.39008 332.64 
L 210.2112 338.688 
L 211.81824 336.672 
L 213.42528 336.672 
L 215.03232 338.688 
L 218.2464 346.752 
L 219.85344 348.768 
L 221.46048 352.8 
L 223.06752 352.8 
L 224.67456 354.816 
L 226.2816 352.8 
L 227.88864 348.768 
L 229.49568 346.752 
L 231.10272 346.752 
L 232.70976 348.768 
L 237.53088 342.72 
L 240.74496 346.752 
L 242.352 352.8 
L 245.56608 348.768 
L 247.17312 354.816 
L 248.78016 354.816 
L 250.3872 358.848 
L 251.99424 356.832 
L 253.60128 356.832 
L 255.20832 358.848 
L 256.81536 358.848 
L 258.4224 364.896 
L 260.02944 364.896 
L 261.63648 366.912 
L 264.85056 366.912 
L 266.4576 368.928 
L 268.06464 368.928 
L 269.67168 364.896 
L 271.27872 364.896 
L 272.88576 360.864 
L 274.4928 358.848 
L 277.70688 366.912 
L 279.31392 372.96 
L 280.92096 376.992 
L 282.528 376.992 
L 284.13504 379.008 
L 285.74208 379.008 
L 288.95616 374.976 
L 290.5632 368.928 
L 292.17024 379.008 
L 293.77728 372.96 
L 296.99136 376.992 
L 298.5984 376.992 
L 300.20544 374.976 
L 301.81248 374.976 
L 305.02656 379.008 
L 306.6336 376.992 
L 308.24064 376.992 
L 309.84768 372.96 
L 311.45472 376.992 
L 313.06176 379.008 
L 316.27584 374.976 
L 317.88288 368.928 
L 319.48992 368.928 
L 322.704 376.992 
L 325.91808 372.96 
L 327.52512 374.976 
L 329.13216 370.944 
L 330.7392 374.976 
L 333.95328 374.976 
L 335.56032 376.992 
L 337.16736 374.976 
L 338.7744 374.976 
L 340.38144 372.96 
L 348.41664 372.96 
L 350.02368 368.928 
L 354.8448 368.928 
L 356.45184 372.96 
L 358.05888 374.976 
L 359.66592 372.96 
L 361.27296 376.992 
L 362.88 372.96 
L 364.48704 370.944 
L 366.09408 370.944 
L 367.70112 372.96 
L 369.30816 368.928 
L 370.9152 372.96 
L 375.73632 372.96 
L 377.34336 374.976 
L 378.9504 374.976 
L 380.55744 372.96 
L 382.16448 368.928 
L 386.9856 368.928 
L 390.19968 376.992 
L 395.0208 376.992 
L 396.62784 374.976 
L 398.23488 370.944 
L 401.44896 370.944 
L 403.056 374.976 
L 404.66304 376.992 
L 406.27008 374.976 
L 407.87712 368.928 
L 409.48416 374.976 
L 411.0912 372.96 
L 412.69824 374.976 
L 414.30528 372.96 
L 415.91232 372.96 
L 417.51936 370.944 
L 420.73344 370.944 
L 422.34048 368.928 
L 423.94752 376.992 
L 428.76864 370.944 
L 430.37568 364.896 
L 433.58976 364.896 
L 435.1968 366.912 
L 436.80384 366.912 
L 438.41088 362.88 
L 440.01792 362.88 
L 441.62496 366.912 
L 443.232 366.912 
L 444.83904 364.896 
L 449.66016 370.944 
L 451.2672 374.976 
L 452.87424 370.944 
L 454.48128 374.976 
L 457.69536 366.912 
L 459.3024 366.912 
L 460.90944 368.928 
L 462.51648 368.928 
L 464.12352 362.88 
L 467.3376 362.88 
L 468.94464 360.864 
L 470.55168 362.88 
L 472.15872 362.88 
L 473.76576 364.896 
L 475.3728 368.928 
L 476.97984 366.912 
L 478.58688 368.928 
L 480.19392 368.928 
L 481.80096 379.008 
L 483.408 379.008 
L 486.62208 374.976 
L 489.83616 379.008 
L 491.4432 379.008 
L 493.05024 374.976 
L 494.65728 379.008 
L 496.26432 376.992 
L 497.87136 379.008 
L 499.4784 376.992 
L 501.08544 370.944 
L 502.69248 372.96 
L 504.29952 370.944 
L 505.90656 372.96 
L 507.5136 376.992 
L 509.12064 370.944 
L 510.72768 370.944 
L 512.33472 368.928 
L 513.94176 372.96 
L 515.5488 374.976 
L 517.15584 383.04 
L 518.76288 379.008 
L 520.36992 385.056 
L 521.97696 383.04 
L 523.584 385.056 
L 525.19104 385.056 
L 526.79808 379.008 
L 528.40512 383.04 
L 531.6192 379.008 
L 534.83328 379.008 
L 536.44032 376.992 
L 538.04736 368.928 
L 539.6544 374.976 
L 541.26144 372.96 
L 542.86848 368.928 
L 544.47552 368.928 
L 546.08256 366.912 
L 547.6896 366.912 
L 549.29664 364.896 
L 550.90368 366.912 
L 552.51072 366.912 
L 554.11776 376.992 
L 555.7248 374.976 
L 557.33184 383.04 
L 558.93888 379.008 
L 562.15296 383.04 
L 563.76 379.008 
L 565.36704 379.008 
L 566.97408 376.992 
L 568.58112 383.04 
L 570.18816 381.024 
L 571.7952 381.024 
L 573.40224 379.008 
L 575.00928 381.024 
L 576.61632 381.024 
L 578.22336 383.04 
L 579.8304 387.072 
L 581.43744 385.056 
L 586.25856 385.056 
L 587.8656 383.04 
L 592.68672 389.088 
L 600.72192 389.088 
L 602.32896 387.072 
L 603.936 389.088 
L 605.54304 385.056 
L 607.15008 389.088 
L 611.9712 389.088 
L 615.18528 393.12 
L 616.79232 393.12 
L 618.39936 387.072 
L 620.0064 389.088 
L 621.61344 389.088 
L 623.22048 385.056 
L 624.82752 389.088 
L 626.43456 389.088 
L 628.0416 391.104 
L 629.64864 391.104 
L 631.25568 397.152 
L 632.86272 397.152 
L 634.46976 403.2 
L 636.0768 401.184 
L 637.68384 395.136 
L 639.29088 395.136 
L 640.89792 397.152 
L 642.50496 393.12 
L 644.112 393.12 
L 647.32608 389.088 
L 648.93312 383.04 
L 652.1472 383.04 
L 653.75424 381.024 
L 655.36128 385.056 
L 658.57536 385.056 
L 660.1824 387.072 
L 661.78944 385.056 
L 669.82464 385.056 
L 671.43168 391.104 
L 673.03872 389.088 
L 674.64576 393.12 
L 676.2528 391.104 
L 677.85984 391.104 
L 679.46688 387.072 
L 682.68096 387.072 
L 684.288 389.088 
L 685.89504 389.088 
L 687.50208 391.104 
L 689.10912 387.072 
L 690.71616 385.056 
L 692.3232 381.024 
L 693.93024 385.056 
L 697.14432 385.056 
L 698.75136 387.072 
L 700.3584 381.024 
L 701.96544 387.072 
L 703.57248 383.04 
L 705.17952 383.04 
L 706.78656 379.008 
L 708.3936 383.04 
L 711.60768 374.976 
L 714.82176 374.976 
L 719.64288 381.024 
L 721.24992 385.056 
L 724.464 385.056 
L 726.07104 383.04 
L 727.67808 383.04 
L 729.28512 385.056 
L 730.89216 389.088 
L 732.4992 389.088 
L 734.10624 383.04 
L 735.71328 383.04 
L 738.92736 379.008 
L 740.5344 374.976 
L 742.14144 376.992 
L 743.74848 376.992 
L 745.35552 385.056 
L 746.96256 381.024 
L 748.5696 381.024 
L 750.17664 383.04 
L 751.78368 381.024 
L 753.39072 374.976 
L 754.99776 376.992 
L 756.6048 374.976 
L 758.21184 368.928 
L 761.42592 372.96 
L 763.03296 368.928 
L 764.64 370.944 
L 766.24704 370.944 
L 767.85408 374.976 
L 769.46112 374.976 
L 772.6752 379.008 
L 774.28224 374.976 
L 780.7104 374.976 
L 782.31744 379.008 
L 785.53152 383.04 
L 787.13856 383.04 
L 788.7456 381.024 
L 790.35264 381.024 
L 795.17376 387.072 
L 796.7808 385.056 
L 799.99488 385.056 
L 801.60192 383.04 
L 803.20896 385.056 
L 804.816 389.088 
L 806.42304 389.088 
L 808.03008 387.072 
L 809.63712 387.072 
L 811.24416 389.088 
L 812.8512 393.12 
L 817.67232 387.072 
L 819.27936 383.04 
L 822.49344 383.04 
L 824.10048 385.056 
L 825.70752 381.024 
L 828.9216 385.056 
L 830.52864 381.024 
L 832.13568 381.024 
L 833.74272 383.04 
L 835.34976 379.008 
L 836.9568 379.008 
L 838.56384 376.992 
L 840.17088 376.992 
L 841.77792 379.008 
L 844.992 379.008 
L 846.59904 376.992 
L 848.20608 372.96 
L 849.81312 374.976 
L 851.42016 372.96 
L 853.0272 376.992 
L 854.63424 383.04 
L 856.24128 383.04 
L 857.84832 379.008 
L 859.45536 383.04 
L 861.0624 385.056 
L 862.66944 383.04 
L 864.27648 383.04 
L 867.49056 387.072 
L 869.0976 381.024 
L 870.70464 383.04 
L 872.31168 383.04 
L 873.91872 381.024 
L 875.52576 385.056 
L 877.1328 381.024 
L 880.34688 389.088 
L 883.56096 385.056 
L 886.77504 385.056 
L 888.38208 383.04 
L 889.98912 383.04 
L 891.59616 385.056 
L 893.2032 385.056 
L 894.81024 395.136 
L 896.41728 393.12 
L 898.02432 393.12 
L 899.63136 395.136 
L 901.2384 389.088 
L 902.84544 387.072 
L 904.45248 389.088 
L 906.05952 389.088 
L 907.66656 387.072 
L 909.2736 381.024 
L 910.88064 381.024 
L 912.48768 379.008 
L 914.09472 379.008 
L 915.70176 374.976 
L 918.91584 374.976 
L 920.52288 379.008 
L 922.12992 381.024 
L 923.73696 385.056 
L 926.95104 385.056 
L 928.55808 383.04 
L 930.16512 385.056 
L 931.77216 385.056 
L 933.3792 379.008 
L 936.59328 370.944 
L 938.20032 381.024 
L 939.80736 379.008 
L 944.62848 385.056 
L 947.84256 385.056 
L 949.4496 376.992 
L 951.05664 376.992 
L 952.66368 372.96 
L 954.27072 370.944 
L 955.87776 366.912 
L 959.09184 366.912 
L 962.30592 370.944 
L 963.91296 370.944 
L 963.91296 370.944 
" style="fill:none;stroke:#00bfbf;stroke-linecap:square;"/>
   </g>
   <g id="patch_3">
    <path d="M 162 50.4 
L 965.52 50.4 
" style="fill:none;stroke:#000000;stroke-linecap:square;stroke-linejoin:miter;"/>
   </g>
   <g id="patch_4">
    <path d="M 965.52 453.6 
L 965.52 50.4 
" style="fill:none;stroke:#000000;stroke-linecap:square;stroke-linejoin:miter;"/>
   </g>
   <g id="patch_5">
    <path d="M 162 453.6 
L 965.52 453.6 
" style="fill:none;stroke:#000000;stroke-linecap:square;stroke-linejoin:miter;"/>
   </g>
   <g id="patch_6">
    <path d="M 162 453.6 
L 162 50.4 
" style="fill:none;stroke:#000000;stroke-linecap:square;stroke-linejoin:miter;"/>
   </g>
   <g id="matplotlib.axis_1">
    <g id="xtick_1">
     <g id="line2d_5">
      <defs>
       <path d="M 0 0 
L 0 -4 
" id="ma424ed0296" style="stroke:#000000;stroke-width:0.5;"/>
      </defs>
      <g>
       <use style="stroke:#000000;stroke-width:0.5;" x="162.0" xlink:href="#ma424ed0296" y="453.6"/>
      </g>
     </g>
     <g id="line2d_6">
      <defs>
       <path d="M 0 0 
L 0 4 
" id="m6ef9b256e1" style="stroke:#000000;stroke-width:0.5;"/>
      </defs>
      <g>
       <use style="stroke:#000000;stroke-width:0.5;" x="162.0" xlink:href="#m6ef9b256e1" y="50.4"/>
      </g>
     </g>
     <g id="text_1">
      <!-- 0 -->
      <defs>
       <path d="M 31.78125 66.40625 
Q 24.171875 66.40625 20.328125 58.90625 
Q 16.5 51.421875 16.5 36.375 
Q 16.5 21.390625 20.328125 13.890625 
Q 24.171875 6.390625 31.78125 6.390625 
Q 39.453125 6.390625 43.28125 13.890625 
Q 47.125 21.390625 47.125 36.375 
Q 47.125 51.421875 43.28125 58.90625 
Q 39.453125 66.40625 31.78125 66.40625 
M 31.78125 74.21875 
Q 44.046875 74.21875 50.515625 64.515625 
Q 56.984375 54.828125 56.984375 36.375 
Q 56.984375 17.96875 50.515625 8.265625 
Q 44.046875 -1.421875 31.78125 -1.421875 
Q 19.53125 -1.421875 13.0625 8.265625 
Q 6.59375 17.96875 6.59375 36.375 
Q 6.59375 54.828125 13.0625 64.515625 
Q 19.53125 74.21875 31.78125 74.21875 
" id="BitstreamVeraSans-Roman-30"/>
      </defs>
      <g transform="translate(158.1825 466.718125)scale(0.12 -0.12)">
       <use xlink:href="#BitstreamVeraSans-Roman-30"/>
      </g>
     </g>
    </g>
    <g id="xtick_2">
     <g id="line2d_7">
      <g>
       <use style="stroke:#000000;stroke-width:0.5;" x="322.704" xlink:href="#ma424ed0296" y="453.6"/>
      </g>
     </g>
     <g id="line2d_8">
      <g>
       <use style="stroke:#000000;stroke-width:0.5;" x="322.704" xlink:href="#m6ef9b256e1" y="50.4"/>
      </g>
     </g>
     <g id="text_2">
      <!-- 100 -->
      <defs>
       <path d="M 12.40625 8.296875 
L 28.515625 8.296875 
L 28.515625 63.921875 
L 10.984375 60.40625 
L 10.984375 69.390625 
L 28.421875 72.90625 
L 38.28125 72.90625 
L 38.28125 8.296875 
L 54.390625 8.296875 
L 54.390625 0 
L 12.40625 0 
z
" id="BitstreamVeraSans-Roman-31"/>
      </defs>
      <g transform="translate(311.2515 466.718125)scale(0.12 -0.12)">
       <use xlink:href="#BitstreamVeraSans-Roman-31"/>
       <use x="63.623046875" xlink:href="#BitstreamVeraSans-Roman-30"/>
       <use x="127.24609375" xlink:href="#BitstreamVeraSans-Roman-30"/>
      </g>
     </g>
    </g>
    <g id="xtick_3">
     <g id="line2d_9">
      <g>
       <use style="stroke:#000000;stroke-width:0.5;" x="483.408" xlink:href="#ma424ed0296" y="453.6"/>
      </g>
     </g>
     <g id="line2d_10">
      <g>
       <use style="stroke:#000000;stroke-width:0.5;" x="483.408" xlink:href="#m6ef9b256e1" y="50.4"/>
      </g>
     </g>
     <g id="text_3">
      <!-- 200 -->
      <defs>
       <path d="M 19.1875 8.296875 
L 53.609375 8.296875 
L 53.609375 0 
L 7.328125 0 
L 7.328125 8.296875 
Q 12.9375 14.109375 22.625 23.890625 
Q 32.328125 33.6875 34.8125 36.53125 
Q 39.546875 41.84375 41.421875 45.53125 
Q 43.3125 49.21875 43.3125 52.78125 
Q 43.3125 58.59375 39.234375 62.25 
Q 35.15625 65.921875 28.609375 65.921875 
Q 23.96875 65.921875 18.8125 64.3125 
Q 13.671875 62.703125 7.8125 59.421875 
L 7.8125 69.390625 
Q 13.765625 71.78125 18.9375 73 
Q 24.125 74.21875 28.421875 74.21875 
Q 39.75 74.21875 46.484375 68.546875 
Q 53.21875 62.890625 53.21875 53.421875 
Q 53.21875 48.921875 51.53125 44.890625 
Q 49.859375 40.875 45.40625 35.40625 
Q 44.1875 33.984375 37.640625 27.21875 
Q 31.109375 20.453125 19.1875 8.296875 
" id="BitstreamVeraSans-Roman-32"/>
      </defs>
      <g transform="translate(471.9555 466.718125)scale(0.12 -0.12)">
       <use xlink:href="#BitstreamVeraSans-Roman-32"/>
       <use x="63.623046875" xlink:href="#BitstreamVeraSans-Roman-30"/>
       <use x="127.24609375" xlink:href="#BitstreamVeraSans-Roman-30"/>
      </g>
     </g>
    </g>
    <g id="xtick_4">
     <g id="line2d_11">
      <g>
       <use style="stroke:#000000;stroke-width:0.5;" x="644.112" xlink:href="#ma424ed0296" y="453.6"/>
      </g>
     </g>
     <g id="line2d_12">
      <g>
       <use style="stroke:#000000;stroke-width:0.5;" x="644.112" xlink:href="#m6ef9b256e1" y="50.4"/>
      </g>
     </g>
     <g id="text_4">
      <!-- 300 -->
      <defs>
       <path d="M 40.578125 39.3125 
Q 47.65625 37.796875 51.625 33 
Q 55.609375 28.21875 55.609375 21.1875 
Q 55.609375 10.40625 48.1875 4.484375 
Q 40.765625 -1.421875 27.09375 -1.421875 
Q 22.515625 -1.421875 17.65625 -0.515625 
Q 12.796875 0.390625 7.625 2.203125 
L 7.625 11.71875 
Q 11.71875 9.328125 16.59375 8.109375 
Q 21.484375 6.890625 26.8125 6.890625 
Q 36.078125 6.890625 40.9375 10.546875 
Q 45.796875 14.203125 45.796875 21.1875 
Q 45.796875 27.640625 41.28125 31.265625 
Q 36.765625 34.90625 28.71875 34.90625 
L 20.21875 34.90625 
L 20.21875 43.015625 
L 29.109375 43.015625 
Q 36.375 43.015625 40.234375 45.921875 
Q 44.09375 48.828125 44.09375 54.296875 
Q 44.09375 59.90625 40.109375 62.90625 
Q 36.140625 65.921875 28.71875 65.921875 
Q 24.65625 65.921875 20.015625 65.03125 
Q 15.375 64.15625 9.8125 62.3125 
L 9.8125 71.09375 
Q 15.4375 72.65625 20.34375 73.4375 
Q 25.25 74.21875 29.59375 74.21875 
Q 40.828125 74.21875 47.359375 69.109375 
Q 53.90625 64.015625 53.90625 55.328125 
Q 53.90625 49.265625 50.4375 45.09375 
Q 46.96875 40.921875 40.578125 39.3125 
" id="BitstreamVeraSans-Roman-33"/>
      </defs>
      <g transform="translate(632.6595 466.718125)scale(0.12 -0.12)">
       <use xlink:href="#BitstreamVeraSans-Roman-33"/>
       <use x="63.623046875" xlink:href="#BitstreamVeraSans-Roman-30"/>
       <use x="127.24609375" xlink:href="#BitstreamVeraSans-Roman-30"/>
      </g>
     </g>
    </g>
    <g id="xtick_5">
     <g id="line2d_13">
      <g>
       <use style="stroke:#000000;stroke-width:0.5;" x="804.816" xlink:href="#ma424ed0296" y="453.6"/>
      </g>
     </g>
     <g id="line2d_14">
      <g>
       <use style="stroke:#000000;stroke-width:0.5;" x="804.816" xlink:href="#m6ef9b256e1" y="50.4"/>
      </g>
     </g>
     <g id="text_5">
      <!-- 400 -->
      <defs>
       <path d="M 37.796875 64.3125 
L 12.890625 25.390625 
L 37.796875 25.390625 
z
M 35.203125 72.90625 
L 47.609375 72.90625 
L 47.609375 25.390625 
L 58.015625 25.390625 
L 58.015625 17.1875 
L 47.609375 17.1875 
L 47.609375 0 
L 37.796875 0 
L 37.796875 17.1875 
L 4.890625 17.1875 
L 4.890625 26.703125 
z
" id="BitstreamVeraSans-Roman-34"/>
      </defs>
      <g transform="translate(793.3635 466.718125)scale(0.12 -0.12)">
       <use xlink:href="#BitstreamVeraSans-Roman-34"/>
       <use x="63.623046875" xlink:href="#BitstreamVeraSans-Roman-30"/>
       <use x="127.24609375" xlink:href="#BitstreamVeraSans-Roman-30"/>
      </g>
     </g>
    </g>
    <g id="xtick_6">
     <g id="line2d_15">
      <g>
       <use style="stroke:#000000;stroke-width:0.5;" x="965.52" xlink:href="#ma424ed0296" y="453.6"/>
      </g>
     </g>
     <g id="line2d_16">
      <g>
       <use style="stroke:#000000;stroke-width:0.5;" x="965.52" xlink:href="#m6ef9b256e1" y="50.4"/>
      </g>
     </g>
     <g id="text_6">
      <!-- 500 -->
      <defs>
       <path d="M 10.796875 72.90625 
L 49.515625 72.90625 
L 49.515625 64.59375 
L 19.828125 64.59375 
L 19.828125 46.734375 
Q 21.96875 47.46875 24.109375 47.828125 
Q 26.265625 48.1875 28.421875 48.1875 
Q 40.625 48.1875 47.75 41.5 
Q 54.890625 34.8125 54.890625 23.390625 
Q 54.890625 11.625 47.5625 5.09375 
Q 40.234375 -1.421875 26.90625 -1.421875 
Q 22.3125 -1.421875 17.546875 -0.640625 
Q 12.796875 0.140625 7.71875 1.703125 
L 7.71875 11.625 
Q 12.109375 9.234375 16.796875 8.0625 
Q 21.484375 6.890625 26.703125 6.890625 
Q 35.15625 6.890625 40.078125 11.328125 
Q 45.015625 15.765625 45.015625 23.390625 
Q 45.015625 31 40.078125 35.4375 
Q 35.15625 39.890625 26.703125 39.890625 
Q 22.75 39.890625 18.8125 39.015625 
Q 14.890625 38.140625 10.796875 36.28125 
z
" id="BitstreamVeraSans-Roman-35"/>
      </defs>
      <g transform="translate(954.0675 466.718125)scale(0.12 -0.12)">
       <use xlink:href="#BitstreamVeraSans-Roman-35"/>
       <use x="63.623046875" xlink:href="#BitstreamVeraSans-Roman-30"/>
       <use x="127.24609375" xlink:href="#BitstreamVeraSans-Roman-30"/>
      </g>
     </g>
    </g>
    <g id="text_7">
     <!-- Time -->
     <defs>
      <path d="M 56.203125 29.59375 
L 56.203125 25.203125 
L 14.890625 25.203125 
Q 15.484375 15.921875 20.484375 11.0625 
Q 25.484375 6.203125 34.421875 6.203125 
Q 39.59375 6.203125 44.453125 7.46875 
Q 49.3125 8.734375 54.109375 11.28125 
L 54.109375 2.78125 
Q 49.265625 0.734375 44.1875 -0.34375 
Q 39.109375 -1.421875 33.890625 -1.421875 
Q 20.796875 -1.421875 13.15625 6.1875 
Q 5.515625 13.8125 5.515625 26.8125 
Q 5.515625 40.234375 12.765625 48.109375 
Q 20.015625 56 32.328125 56 
Q 43.359375 56 49.78125 48.890625 
Q 56.203125 41.796875 56.203125 29.59375 
M 47.21875 32.234375 
Q 47.125 39.59375 43.09375 43.984375 
Q 39.0625 48.390625 32.421875 48.390625 
Q 24.90625 48.390625 20.390625 44.140625 
Q 15.875 39.890625 15.1875 32.171875 
z
" id="BitstreamVeraSans-Roman-65"/>
      <path d="M 9.421875 54.6875 
L 18.40625 54.6875 
L 18.40625 0 
L 9.421875 0 
z
M 9.421875 75.984375 
L 18.40625 75.984375 
L 18.40625 64.59375 
L 9.421875 64.59375 
z
" id="BitstreamVeraSans-Roman-69"/>
      <path d="M -0.296875 72.90625 
L 61.375 72.90625 
L 61.375 64.59375 
L 35.5 64.59375 
L 35.5 0 
L 25.59375 0 
L 25.59375 64.59375 
L -0.296875 64.59375 
z
" id="BitstreamVeraSans-Roman-54"/>
      <path d="M 52 44.1875 
Q 55.375 50.25 60.0625 53.125 
Q 64.75 56 71.09375 56 
Q 79.640625 56 84.28125 50.015625 
Q 88.921875 44.046875 88.921875 33.015625 
L 88.921875 0 
L 79.890625 0 
L 79.890625 32.71875 
Q 79.890625 40.578125 77.09375 44.375 
Q 74.3125 48.1875 68.609375 48.1875 
Q 61.625 48.1875 57.5625 43.546875 
Q 53.515625 38.921875 53.515625 30.90625 
L 53.515625 0 
L 44.484375 0 
L 44.484375 32.71875 
Q 44.484375 40.625 41.703125 44.40625 
Q 38.921875 48.1875 33.109375 48.1875 
Q 26.21875 48.1875 22.15625 43.53125 
Q 18.109375 38.875 18.109375 30.90625 
L 18.109375 0 
L 9.078125 0 
L 9.078125 54.6875 
L 18.109375 54.6875 
L 18.109375 46.1875 
Q 21.1875 51.21875 25.484375 53.609375 
Q 29.78125 56 35.6875 56 
Q 41.65625 56 45.828125 52.96875 
Q 50 49.953125 52 44.1875 
" id="BitstreamVeraSans-Roman-6d"/>
     </defs>
     <g transform="translate(548.895 483.331875)scale(0.12 -0.12)">
      <use xlink:href="#BitstreamVeraSans-Roman-54"/>
      <use x="61.037109375" xlink:href="#BitstreamVeraSans-Roman-69"/>
      <use x="88.8203125" xlink:href="#BitstreamVeraSans-Roman-6d"/>
      <use x="186.232421875" xlink:href="#BitstreamVeraSans-Roman-65"/>
     </g>
    </g>
   </g>
   <g id="matplotlib.axis_2">
    <g id="ytick_1">
     <g id="line2d_17">
      <defs>
       <path d="M 0 0 
L 4 0 
" id="mc4aff0025b" style="stroke:#000000;stroke-width:0.5;"/>
      </defs>
      <g>
       <use style="stroke:#000000;stroke-width:0.5;" x="162.0" xlink:href="#mc4aff0025b" y="453.6"/>
      </g>
     </g>
     <g id="line2d_18">
      <defs>
       <path d="M 0 0 
L -4 0 
" id="m4f01e0d177" style="stroke:#000000;stroke-width:0.5;"/>
      </defs>
      <g>
       <use style="stroke:#000000;stroke-width:0.5;" x="965.52" xlink:href="#m4f01e0d177" y="453.6"/>
      </g>
     </g>
     <g id="text_8">
      <!-- 0 -->
      <g transform="translate(150.365 456.91125)scale(0.12 -0.12)">
       <use xlink:href="#BitstreamVeraSans-Roman-30"/>
      </g>
     </g>
    </g>
    <g id="ytick_2">
     <g id="line2d_19">
      <g>
       <use style="stroke:#000000;stroke-width:0.5;" x="162.0" xlink:href="#mc4aff0025b" y="352.8"/>
      </g>
     </g>
     <g id="line2d_20">
      <g>
       <use style="stroke:#000000;stroke-width:0.5;" x="965.52" xlink:href="#m4f01e0d177" y="352.8"/>
      </g>
     </g>
     <g id="text_9">
      <!-- 5 -->
      <g transform="translate(150.365 356.11125)scale(0.12 -0.12)">
       <use xlink:href="#BitstreamVeraSans-Roman-35"/>
      </g>
     </g>
    </g>
    <g id="ytick_3">
     <g id="line2d_21">
      <g>
       <use style="stroke:#000000;stroke-width:0.5;" x="162.0" xlink:href="#mc4aff0025b" y="252.0"/>
      </g>
     </g>
     <g id="line2d_22">
      <g>
       <use style="stroke:#000000;stroke-width:0.5;" x="965.52" xlink:href="#m4f01e0d177" y="252.0"/>
      </g>
     </g>
     <g id="text_10">
      <!-- 10 -->
      <g transform="translate(142.73 255.31125)scale(0.12 -0.12)">
       <use xlink:href="#BitstreamVeraSans-Roman-31"/>
       <use x="63.623046875" xlink:href="#BitstreamVeraSans-Roman-30"/>
      </g>
     </g>
    </g>
    <g id="ytick_4">
     <g id="line2d_23">
      <g>
       <use style="stroke:#000000;stroke-width:0.5;" x="162.0" xlink:href="#mc4aff0025b" y="151.2"/>
      </g>
     </g>
     <g id="line2d_24">
      <g>
       <use style="stroke:#000000;stroke-width:0.5;" x="965.52" xlink:href="#m4f01e0d177" y="151.2"/>
      </g>
     </g>
     <g id="text_11">
      <!-- 15 -->
      <g transform="translate(142.73 154.51125)scale(0.12 -0.12)">
       <use xlink:href="#BitstreamVeraSans-Roman-31"/>
       <use x="63.623046875" xlink:href="#BitstreamVeraSans-Roman-35"/>
      </g>
     </g>
    </g>
    <g id="ytick_5">
     <g id="line2d_25">
      <g>
       <use style="stroke:#000000;stroke-width:0.5;" x="162.0" xlink:href="#mc4aff0025b" y="50.4"/>
      </g>
     </g>
     <g id="line2d_26">
      <g>
       <use style="stroke:#000000;stroke-width:0.5;" x="965.52" xlink:href="#m4f01e0d177" y="50.4"/>
      </g>
     </g>
     <g id="text_12">
      <!-- 20 -->
      <g transform="translate(142.73 53.71125)scale(0.12 -0.12)">
       <use xlink:href="#BitstreamVeraSans-Roman-32"/>
       <use x="63.623046875" xlink:href="#BitstreamVeraSans-Roman-30"/>
      </g>
     </g>
    </g>
    <g id="text_13">
     <!-- #flocks -->
     <defs>
      <path d="M 51.125 44 
L 36.921875 44 
L 32.8125 27.6875 
L 47.125 27.6875 
z
M 43.796875 71.78125 
L 38.71875 51.515625 
L 52.984375 51.515625 
L 58.109375 71.78125 
L 65.921875 71.78125 
L 60.890625 51.515625 
L 76.125 51.515625 
L 76.125 44 
L 58.984375 44 
L 54.984375 27.6875 
L 70.515625 27.6875 
L 70.515625 20.21875 
L 53.078125 20.21875 
L 48 0 
L 40.1875 0 
L 45.21875 20.21875 
L 30.90625 20.21875 
L 25.875 0 
L 18.015625 0 
L 23.09375 20.21875 
L 7.71875 20.21875 
L 7.71875 27.6875 
L 24.90625 27.6875 
L 29 44 
L 13.28125 44 
L 13.28125 51.515625 
L 30.90625 51.515625 
L 35.890625 71.78125 
z
" id="BitstreamVeraSans-Roman-23"/>
      <path d="M 30.609375 48.390625 
Q 23.390625 48.390625 19.1875 42.75 
Q 14.984375 37.109375 14.984375 27.296875 
Q 14.984375 17.484375 19.15625 11.84375 
Q 23.34375 6.203125 30.609375 6.203125 
Q 37.796875 6.203125 41.984375 11.859375 
Q 46.1875 17.53125 46.1875 27.296875 
Q 46.1875 37.015625 41.984375 42.703125 
Q 37.796875 48.390625 30.609375 48.390625 
M 30.609375 56 
Q 42.328125 56 49.015625 48.375 
Q 55.71875 40.765625 55.71875 27.296875 
Q 55.71875 13.875 49.015625 6.21875 
Q 42.328125 -1.421875 30.609375 -1.421875 
Q 18.84375 -1.421875 12.171875 6.21875 
Q 5.515625 13.875 5.515625 27.296875 
Q 5.515625 40.765625 12.171875 48.375 
Q 18.84375 56 30.609375 56 
" id="BitstreamVeraSans-Roman-6f"/>
      <path d="M 9.421875 75.984375 
L 18.40625 75.984375 
L 18.40625 0 
L 9.421875 0 
z
" id="BitstreamVeraSans-Roman-6c"/>
      <path d="M 9.078125 75.984375 
L 18.109375 75.984375 
L 18.109375 31.109375 
L 44.921875 54.6875 
L 56.390625 54.6875 
L 27.390625 29.109375 
L 57.625 0 
L 45.90625 0 
L 18.109375 26.703125 
L 18.109375 0 
L 9.078125 0 
z
" id="BitstreamVeraSans-Roman-6b"/>
      <path d="M 37.109375 75.984375 
L 37.109375 68.5 
L 28.515625 68.5 
Q 23.6875 68.5 21.796875 66.546875 
Q 19.921875 64.59375 19.921875 59.515625 
L 19.921875 54.6875 
L 34.71875 54.6875 
L 34.71875 47.703125 
L 19.921875 47.703125 
L 19.921875 0 
L 10.890625 0 
L 10.890625 47.703125 
L 2.296875 47.703125 
L 2.296875 54.6875 
L 10.890625 54.6875 
L 10.890625 58.5 
Q 10.890625 67.625 15.140625 71.796875 
Q 19.390625 75.984375 28.609375 75.984375 
z
" id="BitstreamVeraSans-Roman-66"/>
      <path d="M 44.28125 53.078125 
L 44.28125 44.578125 
Q 40.484375 46.53125 36.375 47.5 
Q 32.28125 48.484375 27.875 48.484375 
Q 21.1875 48.484375 17.84375 46.4375 
Q 14.5 44.390625 14.5 40.28125 
Q 14.5 37.15625 16.890625 35.375 
Q 19.28125 33.59375 26.515625 31.984375 
L 29.59375 31.296875 
Q 39.15625 29.25 43.1875 25.515625 
Q 47.21875 21.78125 47.21875 15.09375 
Q 47.21875 7.46875 41.1875 3.015625 
Q 35.15625 -1.421875 24.609375 -1.421875 
Q 20.21875 -1.421875 15.453125 -0.5625 
Q 10.6875 0.296875 5.421875 2 
L 5.421875 11.28125 
Q 10.40625 8.6875 15.234375 7.390625 
Q 20.0625 6.109375 24.8125 6.109375 
Q 31.15625 6.109375 34.5625 8.28125 
Q 37.984375 10.453125 37.984375 14.40625 
Q 37.984375 18.0625 35.515625 20.015625 
Q 33.0625 21.96875 24.703125 23.78125 
L 21.578125 24.515625 
Q 13.234375 26.265625 9.515625 29.90625 
Q 5.8125 33.546875 5.8125 39.890625 
Q 5.8125 47.609375 11.28125 51.796875 
Q 16.75 56 26.8125 56 
Q 31.78125 56 36.171875 55.265625 
Q 40.578125 54.546875 44.28125 53.078125 
" id="BitstreamVeraSans-Roman-73"/>
      <path d="M 48.78125 52.59375 
L 48.78125 44.1875 
Q 44.96875 46.296875 41.140625 47.34375 
Q 37.3125 48.390625 33.40625 48.390625 
Q 24.65625 48.390625 19.8125 42.84375 
Q 14.984375 37.3125 14.984375 27.296875 
Q 14.984375 17.28125 19.8125 11.734375 
Q 24.65625 6.203125 33.40625 6.203125 
Q 37.3125 6.203125 41.140625 7.25 
Q 44.96875 8.296875 48.78125 10.40625 
L 48.78125 2.09375 
Q 45.015625 0.34375 40.984375 -0.53125 
Q 36.96875 -1.421875 32.421875 -1.421875 
Q 20.0625 -1.421875 12.78125 6.34375 
Q 5.515625 14.109375 5.515625 27.296875 
Q 5.515625 40.671875 12.859375 48.328125 
Q 20.21875 56 33.015625 56 
Q 37.15625 56 41.109375 55.140625 
Q 45.0625 54.296875 48.78125 52.59375 
" id="BitstreamVeraSans-Roman-63"/>
     </defs>
     <g transform="translate(135.234375 274.3771875)rotate(-90.0)scale(0.12 -0.12)">
      <use xlink:href="#BitstreamVeraSans-Roman-23"/>
      <use x="83.7890625" xlink:href="#BitstreamVeraSans-Roman-66"/>
      <use x="118.994140625" xlink:href="#BitstreamVeraSans-Roman-6c"/>
      <use x="146.77734375" xlink:href="#BitstreamVeraSans-Roman-6f"/>
      <use x="207.958984375" xlink:href="#BitstreamVeraSans-Roman-63"/>
      <use x="262.939453125" xlink:href="#BitstreamVeraSans-Roman-6b"/>
      <use x="320.849609375" xlink:href="#BitstreamVeraSans-Roman-73"/>
     </g>
    </g>
   </g>
   <g id="text_14">
    <!-- Separation: #flocks -->
    <defs>
     <path id="BitstreamVeraSans-Roman-20"/>
     <path d="M 54.890625 33.015625 
L 54.890625 0 
L 45.90625 0 
L 45.90625 32.71875 
Q 45.90625 40.484375 42.875 44.328125 
Q 39.84375 48.1875 33.796875 48.1875 
Q 26.515625 48.1875 22.3125 43.546875 
Q 18.109375 38.921875 18.109375 30.90625 
L 18.109375 0 
L 9.078125 0 
L 9.078125 54.6875 
L 18.109375 54.6875 
L 18.109375 46.1875 
Q 21.34375 51.125 25.703125 53.5625 
Q 30.078125 56 35.796875 56 
Q 45.21875 56 50.046875 50.171875 
Q 54.890625 44.34375 54.890625 33.015625 
" id="BitstreamVeraSans-Roman-6e"/>
     <path d="M 34.28125 27.484375 
Q 23.390625 27.484375 19.1875 25 
Q 14.984375 22.515625 14.984375 16.5 
Q 14.984375 11.71875 18.140625 8.90625 
Q 21.296875 6.109375 26.703125 6.109375 
Q 34.1875 6.109375 38.703125 11.40625 
Q 43.21875 16.703125 43.21875 25.484375 
L 43.21875 27.484375 
z
M 52.203125 31.203125 
L 52.203125 0 
L 43.21875 0 
L 43.21875 8.296875 
Q 40.140625 3.328125 35.546875 0.953125 
Q 30.953125 -1.421875 24.3125 -1.421875 
Q 15.921875 -1.421875 10.953125 3.296875 
Q 6 8.015625 6 15.921875 
Q 6 25.140625 12.171875 29.828125 
Q 18.359375 34.515625 30.609375 34.515625 
L 43.21875 34.515625 
L 43.21875 35.40625 
Q 43.21875 41.609375 39.140625 45 
Q 35.0625 48.390625 27.6875 48.390625 
Q 23 48.390625 18.546875 47.265625 
Q 14.109375 46.140625 10.015625 43.890625 
L 10.015625 52.203125 
Q 14.9375 54.109375 19.578125 55.046875 
Q 24.21875 56 28.609375 56 
Q 40.484375 56 46.34375 49.84375 
Q 52.203125 43.703125 52.203125 31.203125 
" id="BitstreamVeraSans-Roman-61"/>
     <path d="M 11.71875 12.40625 
L 22.015625 12.40625 
L 22.015625 0 
L 11.71875 0 
z
M 11.71875 51.703125 
L 22.015625 51.703125 
L 22.015625 39.3125 
L 11.71875 39.3125 
z
" id="BitstreamVeraSans-Roman-3a"/>
     <path d="M 53.515625 70.515625 
L 53.515625 60.890625 
Q 47.90625 63.578125 42.921875 64.890625 
Q 37.9375 66.21875 33.296875 66.21875 
Q 25.25 66.21875 20.875 63.09375 
Q 16.5 59.96875 16.5 54.203125 
Q 16.5 49.359375 19.40625 46.890625 
Q 22.3125 44.4375 30.421875 42.921875 
L 36.375 41.703125 
Q 47.40625 39.59375 52.65625 34.296875 
Q 57.90625 29 57.90625 20.125 
Q 57.90625 9.515625 50.796875 4.046875 
Q 43.703125 -1.421875 29.984375 -1.421875 
Q 24.8125 -1.421875 18.96875 -0.25 
Q 13.140625 0.921875 6.890625 3.21875 
L 6.890625 13.375 
Q 12.890625 10.015625 18.65625 8.296875 
Q 24.421875 6.59375 29.984375 6.59375 
Q 38.421875 6.59375 43.015625 9.90625 
Q 47.609375 13.234375 47.609375 19.390625 
Q 47.609375 24.75 44.3125 27.78125 
Q 41.015625 30.8125 33.5 32.328125 
L 27.484375 33.5 
Q 16.453125 35.6875 11.515625 40.375 
Q 6.59375 45.0625 6.59375 53.421875 
Q 6.59375 63.09375 13.40625 68.65625 
Q 20.21875 74.21875 32.171875 74.21875 
Q 37.3125 74.21875 42.625 73.28125 
Q 47.953125 72.359375 53.515625 70.515625 
" id="BitstreamVeraSans-Roman-53"/>
     <path d="M 18.3125 70.21875 
L 18.3125 54.6875 
L 36.8125 54.6875 
L 36.8125 47.703125 
L 18.3125 47.703125 
L 18.3125 18.015625 
Q 18.3125 11.328125 20.140625 9.421875 
Q 21.96875 7.515625 27.59375 7.515625 
L 36.8125 7.515625 
L 36.8125 0 
L 27.59375 0 
Q 17.1875 0 13.234375 3.875 
Q 9.28125 7.765625 9.28125 18.015625 
L 9.28125 47.703125 
L 2.6875 47.703125 
L 2.6875 54.6875 
L 9.28125 54.6875 
L 9.28125 70.21875 
z
" id="BitstreamVeraSans-Roman-74"/>
     <path d="M 41.109375 46.296875 
Q 39.59375 47.171875 37.8125 47.578125 
Q 36.03125 48 33.890625 48 
Q 26.265625 48 22.1875 43.046875 
Q 18.109375 38.09375 18.109375 28.8125 
L 18.109375 0 
L 9.078125 0 
L 9.078125 54.6875 
L 18.109375 54.6875 
L 18.109375 46.1875 
Q 20.953125 51.171875 25.484375 53.578125 
Q 30.03125 56 36.53125 56 
Q 37.453125 56 38.578125 55.875 
Q 39.703125 55.765625 41.0625 55.515625 
z
" id="BitstreamVeraSans-Roman-72"/>
     <path d="M 18.109375 8.203125 
L 18.109375 -20.796875 
L 9.078125 -20.796875 
L 9.078125 54.6875 
L 18.109375 54.6875 
L 18.109375 46.390625 
Q 20.953125 51.265625 25.265625 53.625 
Q 29.59375 56 35.59375 56 
Q 45.5625 56 51.78125 48.09375 
Q 58.015625 40.1875 58.015625 27.296875 
Q 58.015625 14.40625 51.78125 6.484375 
Q 45.5625 -1.421875 35.59375 -1.421875 
Q 29.59375 -1.421875 25.265625 0.953125 
Q 20.953125 3.328125 18.109375 8.203125 
M 48.6875 27.296875 
Q 48.6875 37.203125 44.609375 42.84375 
Q 40.53125 48.484375 33.40625 48.484375 
Q 26.265625 48.484375 22.1875 42.84375 
Q 18.109375 37.203125 18.109375 27.296875 
Q 18.109375 17.390625 22.1875 11.75 
Q 26.265625 6.109375 33.40625 6.109375 
Q 40.53125 6.109375 44.609375 11.75 
Q 48.6875 17.390625 48.6875 27.296875 
" id="BitstreamVeraSans-Roman-70"/>
    </defs>
    <g transform="translate(493.045875 45.4)scale(0.144 -0.144)">
     <use xlink:href="#BitstreamVeraSans-Roman-53"/>
     <use x="63.4765625" xlink:href="#BitstreamVeraSans-Roman-65"/>
     <use x="125.0" xlink:href="#BitstreamVeraSans-Roman-70"/>
     <use x="188.4765625" xlink:href="#BitstreamVeraSans-Roman-61"/>
     <use x="249.755859375" xlink:href="#BitstreamVeraSans-Roman-72"/>
     <use x="290.869140625" xlink:href="#BitstreamVeraSans-Roman-61"/>
     <use x="352.1484375" xlink:href="#BitstreamVeraSans-Roman-74"/>
     <use x="391.357421875" xlink:href="#BitstreamVeraSans-Roman-69"/>
     <use x="419.140625" xlink:href="#BitstreamVeraSans-Roman-6f"/>
     <use x="480.322265625" xlink:href="#BitstreamVeraSans-Roman-6e"/>
     <use x="543.701171875" xlink:href="#BitstreamVeraSans-Roman-3a"/>
     <use x="577.392578125" xlink:href="#BitstreamVeraSans-Roman-20"/>
     <use x="609.1796875" xlink:href="#BitstreamVeraSans-Roman-23"/>
     <use x="692.96875" xlink:href="#BitstreamVeraSans-Roman-66"/>
     <use x="728.173828125" xlink:href="#BitstreamVeraSans-Roman-6c"/>
     <use x="755.95703125" xlink:href="#BitstreamVeraSans-Roman-6f"/>
     <use x="817.138671875" xlink:href="#BitstreamVeraSans-Roman-63"/>
     <use x="872.119140625" xlink:href="#BitstreamVeraSans-Roman-6b"/>
     <use x="930.029296875" xlink:href="#BitstreamVeraSans-Roman-73"/>
    </g>
   </g>
   <g id="legend_1">
    <g id="patch_7">
     <path d="M 972.72 138.402 
L 1065.024 138.402 
L 1065.024 49.536 
L 972.72 49.536 
z
" style="fill:#ffffff;stroke:#000000;stroke-linejoin:miter;"/>
    </g>
    <g id="line2d_27">
     <path d="M 982.8 61.19775 
L 1002.96 61.19775 
" style="fill:none;stroke:#0000ff;stroke-linecap:square;"/>
    </g>
    <g id="line2d_28"/>
    <g id="text_15">
     <!-- $S_w=1$ -->
     <defs>
      <path d="M 9.28125 0 
L 9.28125 3.515625 
Q 21.78125 3.515625 21.78125 6.6875 
L 21.78125 59.1875 
Q 16.609375 56.6875 8.6875 56.6875 
L 8.6875 60.203125 
Q 20.953125 60.203125 27.203125 66.609375 
L 28.609375 66.609375 
Q 28.953125 66.609375 29.265625 66.328125 
Q 29.59375 66.0625 29.59375 65.71875 
L 29.59375 6.6875 
Q 29.59375 3.515625 42.09375 3.515625 
L 42.09375 0 
z
" id="Cmr10-31"/>
      <path d="M 6.109375 -2.203125 
Q 5.8125 -2.203125 5.5625 -1.859375 
Q 5.328125 -1.515625 5.328125 -1.21875 
L 11.078125 22.125 
Q 11.28125 22.703125 11.921875 22.703125 
L 13.09375 22.703125 
Q 13.484375 22.703125 13.703125 22.40625 
Q 13.921875 22.125 13.921875 21.6875 
Q 13.09375 18.265625 13.09375 15.578125 
Q 13.09375 8.34375 18.0625 4.828125 
Q 23.046875 1.3125 30.609375 1.3125 
Q 33.890625 1.3125 37.0625 2.921875 
Q 40.234375 4.546875 42.59375 7.125 
Q 44.96875 9.71875 46.375 12.90625 
Q 47.796875 16.109375 47.796875 19.390625 
Q 47.796875 22.90625 45.9375 25.65625 
Q 44.09375 28.421875 40.828125 29.203125 
L 28.609375 32.421875 
Q 23.6875 33.734375 20.75 37.71875 
Q 17.828125 41.703125 17.828125 46.6875 
Q 17.828125 52.6875 21.390625 58.25 
Q 24.953125 63.8125 30.6875 67.15625 
Q 36.421875 70.515625 42.390625 70.515625 
Q 46.96875 70.515625 50.796875 68.828125 
Q 54.640625 67.140625 56.6875 63.484375 
L 62.40625 70.21875 
Q 62.984375 70.515625 63.09375 70.515625 
L 63.71875 70.515625 
Q 64.109375 70.515625 64.34375 70.171875 
Q 64.59375 69.828125 64.59375 69.484375 
L 58.796875 46.296875 
Q 58.640625 45.609375 58.015625 45.609375 
L 56.78125 45.609375 
Q 55.90625 45.609375 55.90625 46.6875 
Q 56.390625 49.859375 56.390625 52.203125 
Q 56.390625 56.84375 54.796875 60.28125 
Q 53.21875 63.71875 50.015625 65.5 
Q 46.828125 67.28125 42.09375 67.28125 
Q 38.09375 67.28125 34.125 64.984375 
Q 30.171875 62.703125 27.734375 58.890625 
Q 25.296875 55.078125 25.296875 50.984375 
Q 25.296875 47.75 27.171875 45.265625 
Q 29.046875 42.78125 32.171875 41.890625 
L 44.390625 38.71875 
Q 47.703125 37.84375 50.171875 35.625 
Q 52.640625 33.40625 53.90625 30.34375 
Q 55.171875 27.296875 55.171875 23.6875 
Q 55.171875 18.953125 53.171875 14.328125 
Q 51.171875 9.71875 47.578125 5.90625 
Q 44 2.09375 39.453125 -0.046875 
Q 34.90625 -2.203125 30.171875 -2.203125 
Q 18.265625 -2.203125 13.09375 4.78125 
L 7.515625 -1.90625 
Q 6.9375 -2.203125 6.78125 -2.203125 
z
" id="Cmmi10-53"/>
      <path d="M 10.796875 11.625 
Q 10.796875 13.71875 11.359375 16.453125 
Q 11.921875 19.1875 12.59375 21.3125 
Q 13.28125 23.4375 14.90625 27.828125 
Q 16.546875 32.234375 16.703125 32.625 
Q 18.015625 36.28125 18.015625 38.625 
Q 18.015625 41.609375 15.828125 41.609375 
Q 11.859375 41.609375 9.296875 37.53125 
Q 6.734375 33.453125 5.515625 28.421875 
Q 5.328125 27.78125 4.6875 27.78125 
L 3.515625 27.78125 
Q 2.6875 27.78125 2.6875 28.71875 
L 2.6875 29 
Q 4.296875 34.96875 7.609375 39.578125 
Q 10.9375 44.1875 16.015625 44.1875 
Q 19.578125 44.1875 22.046875 41.84375 
Q 24.515625 39.5 24.515625 35.890625 
Q 24.515625 34.03125 23.6875 31.984375 
Q 22.515625 28.953125 20.921875 24.703125 
Q 19.34375 20.453125 18.453125 16.984375 
Q 17.578125 13.53125 17.578125 10.296875 
Q 17.578125 6.390625 19.625 3.953125 
Q 21.6875 1.515625 25.59375 1.515625 
Q 30.90625 1.515625 34.421875 9.625 
Q 34.28125 10.203125 34.28125 11.28125 
Q 34.28125 13.96875 35.109375 17.390625 
L 40.71875 39.890625 
Q 41.0625 41.21875 42.28125 42.15625 
Q 43.5 43.109375 44.921875 43.109375 
Q 46.09375 43.109375 47 42.328125 
Q 47.90625 41.546875 47.90625 40.28125 
Q 47.90625 39.703125 47.796875 39.5 
L 42.1875 17.1875 
Q 41.21875 13.1875 41.21875 10.015625 
Q 41.21875 6.25 42.9375 3.875 
Q 44.671875 1.515625 48.390625 1.515625 
Q 54.828125 1.515625 58.984375 10.015625 
Q 60.546875 13.03125 62.46875 18.9375 
Q 64.40625 24.859375 64.40625 27.984375 
Q 64.40625 30.859375 63.46875 32.546875 
Q 62.546875 34.234375 60.90625 36.1875 
Q 59.28125 38.140625 59.28125 39.109375 
Q 59.28125 41.015625 60.90625 42.640625 
Q 62.546875 44.28125 64.5 44.28125 
Q 66.890625 44.28125 67.9375 42.078125 
Q 69 39.890625 69 37.109375 
Q 69 33.734375 67.875 28.53125 
Q 66.75 23.34375 65.03125 18.09375 
Q 63.328125 12.84375 61.8125 9.71875 
Q 56.34375 -1.125 48.1875 -1.125 
Q 44 -1.125 40.53125 0.484375 
Q 37.0625 2.09375 35.40625 5.609375 
Q 33.796875 2.734375 31.171875 0.796875 
Q 28.5625 -1.125 25.390625 -1.125 
Q 18.796875 -1.125 14.796875 2.015625 
Q 10.796875 5.171875 10.796875 11.625 
" id="Cmmi10-77"/>
      <path d="M 7.515625 13.28125 
Q 6.6875 13.28125 6.140625 13.90625 
Q 5.609375 14.546875 5.609375 15.28125 
Q 5.609375 16.109375 6.140625 16.6875 
Q 6.6875 17.28125 7.515625 17.28125 
L 70.3125 17.28125 
Q 71.046875 17.28125 71.578125 16.6875 
Q 72.125 16.109375 72.125 15.28125 
Q 72.125 14.546875 71.578125 13.90625 
Q 71.046875 13.28125 70.3125 13.28125 
z
M 7.515625 32.71875 
Q 6.6875 32.71875 6.140625 33.296875 
Q 5.609375 33.890625 5.609375 34.71875 
Q 5.609375 35.453125 6.140625 36.078125 
Q 6.6875 36.71875 7.515625 36.71875 
L 70.3125 36.71875 
Q 71.046875 36.71875 71.578125 36.078125 
Q 72.125 35.453125 72.125 34.71875 
Q 72.125 33.890625 71.578125 33.296875 
Q 71.046875 32.71875 70.3125 32.71875 
z
" id="Cmr10-3d"/>
     </defs>
     <g transform="translate(1018.8 66.23775)scale(0.144 -0.144)">
      <use transform="translate(0.0 0.484375)" xlink:href="#Cmmi10-53"/>
      <use transform="translate(61.279296875 -16.521875)scale(0.7)" xlink:href="#Cmmi10-77"/>
      <use transform="translate(135.254296875 0.484375)" xlink:href="#Cmr10-3d"/>
      <use transform="translate(230.4984375 0.484375)" xlink:href="#Cmr10-31"/>
     </g>
    </g>
    <g id="line2d_29">
     <path d="M 982.8 82.33425 
L 1002.96 82.33425 
" style="fill:none;stroke:#008000;stroke-linecap:square;"/>
    </g>
    <g id="line2d_30"/>
    <g id="text_16">
     <!-- $S_w=3$ -->
     <defs>
      <path d="M 9.515625 7.71875 
Q 11.859375 4.296875 15.8125 2.640625 
Q 19.78125 0.984375 24.3125 0.984375 
Q 30.125 0.984375 32.5625 5.9375 
Q 35.015625 10.890625 35.015625 17.1875 
Q 35.015625 20.015625 34.5 22.84375 
Q 33.984375 25.6875 32.765625 28.125 
Q 31.546875 30.5625 29.421875 32.03125 
Q 27.296875 33.5 24.21875 33.5 
L 17.578125 33.5 
Q 16.703125 33.5 16.703125 34.421875 
L 16.703125 35.296875 
Q 16.703125 36.078125 17.578125 36.078125 
L 23.09375 36.53125 
Q 26.609375 36.53125 28.921875 39.15625 
Q 31.25 41.796875 32.328125 45.578125 
Q 33.40625 49.359375 33.40625 52.78125 
Q 33.40625 57.5625 31.15625 60.640625 
Q 28.90625 63.71875 24.3125 63.71875 
Q 20.515625 63.71875 17.046875 62.28125 
Q 13.578125 60.84375 11.53125 57.90625 
Q 11.71875 57.953125 11.859375 57.984375 
Q 12.015625 58.015625 12.203125 58.015625 
Q 14.453125 58.015625 15.96875 56.453125 
Q 17.484375 54.890625 17.484375 52.6875 
Q 17.484375 50.53125 15.96875 48.96875 
Q 14.453125 47.40625 12.203125 47.40625 
Q 10.015625 47.40625 8.453125 48.96875 
Q 6.890625 50.53125 6.890625 52.6875 
Q 6.890625 56.984375 9.46875 60.15625 
Q 12.0625 63.328125 16.140625 64.96875 
Q 20.21875 66.609375 24.3125 66.609375 
Q 27.34375 66.609375 30.703125 65.703125 
Q 34.078125 64.796875 36.8125 63.109375 
Q 39.546875 61.421875 41.28125 58.78125 
Q 43.015625 56.15625 43.015625 52.78125 
Q 43.015625 48.578125 41.140625 45.015625 
Q 39.265625 41.453125 35.984375 38.859375 
Q 32.71875 36.28125 28.8125 35.015625 
Q 33.15625 34.1875 37.0625 31.734375 
Q 40.96875 29.296875 43.328125 25.484375 
Q 45.703125 21.6875 45.703125 17.28125 
Q 45.703125 11.765625 42.671875 7.296875 
Q 39.65625 2.828125 34.71875 0.3125 
Q 29.78125 -2.203125 24.3125 -2.203125 
Q 19.625 -2.203125 14.90625 -0.40625 
Q 10.203125 1.375 7.203125 4.9375 
Q 4.203125 8.5 4.203125 13.484375 
Q 4.203125 15.96875 5.859375 17.625 
Q 7.515625 19.28125 10.015625 19.28125 
Q 11.625 19.28125 12.96875 18.53125 
Q 14.3125 17.78125 15.0625 16.40625 
Q 15.828125 15.046875 15.828125 13.484375 
Q 15.828125 11.03125 14.109375 9.375 
Q 12.40625 7.71875 10.015625 7.71875 
z
" id="Cmr10-33"/>
     </defs>
     <g transform="translate(1018.8 87.37425)scale(0.144 -0.144)">
      <use transform="translate(0.0 0.484375)" xlink:href="#Cmmi10-53"/>
      <use transform="translate(61.279296875 -16.521875)scale(0.7)" xlink:href="#Cmmi10-77"/>
      <use transform="translate(135.254296875 0.484375)" xlink:href="#Cmr10-3d"/>
      <use transform="translate(230.4984375 0.484375)" xlink:href="#Cmr10-33"/>
     </g>
    </g>
    <g id="line2d_31">
     <path d="M 982.8 103.47075 
L 1002.96 103.47075 
" style="fill:none;stroke:#ff0000;stroke-linecap:square;"/>
    </g>
    <g id="line2d_32"/>
    <g id="text_17">
     <!-- $S_w=5$ -->
     <defs>
      <path d="M 8.6875 11.375 
Q 9.71875 8.453125 11.84375 6.046875 
Q 13.96875 3.65625 16.875 2.3125 
Q 19.78125 0.984375 22.90625 0.984375 
Q 30.125 0.984375 32.859375 6.59375 
Q 35.59375 12.203125 35.59375 20.21875 
Q 35.59375 23.6875 35.46875 26.046875 
Q 35.359375 28.421875 34.8125 30.609375 
Q 33.890625 34.125 31.5625 36.765625 
Q 29.25 39.40625 25.875 39.40625 
Q 22.515625 39.40625 20.09375 38.375 
Q 17.671875 37.359375 16.15625 35.984375 
Q 14.65625 34.625 13.484375 33.109375 
Q 12.3125 31.59375 12.015625 31.5 
L 10.890625 31.5 
Q 10.640625 31.5 10.265625 31.8125 
Q 9.90625 32.125 9.90625 32.421875 
L 9.90625 65.828125 
Q 9.90625 66.0625 10.21875 66.328125 
Q 10.546875 66.609375 10.890625 66.609375 
L 11.1875 66.609375 
Q 17.921875 63.375 25.484375 63.375 
Q 32.90625 63.375 39.796875 66.609375 
L 40.09375 66.609375 
Q 40.4375 66.609375 40.71875 66.359375 
Q 41.015625 66.109375 41.015625 65.828125 
L 41.015625 64.890625 
Q 41.015625 64.40625 40.828125 64.40625 
Q 37.40625 59.859375 32.25 57.3125 
Q 27.09375 54.78125 21.578125 54.78125 
Q 17.578125 54.78125 13.375 55.90625 
L 13.375 37.015625 
Q 16.703125 39.703125 19.3125 40.84375 
Q 21.921875 42 25.984375 42 
Q 31.5 42 35.859375 38.8125 
Q 40.234375 35.640625 42.578125 30.53125 
Q 44.921875 25.4375 44.921875 20.125 
Q 44.921875 14.109375 41.96875 8.984375 
Q 39.015625 3.859375 33.9375 0.828125 
Q 28.859375 -2.203125 22.90625 -2.203125 
Q 17.96875 -2.203125 13.84375 0.328125 
Q 9.71875 2.875 7.34375 7.171875 
Q 4.984375 11.46875 4.984375 16.3125 
Q 4.984375 18.5625 6.4375 19.96875 
Q 7.90625 21.390625 10.109375 21.390625 
Q 12.3125 21.390625 13.796875 19.9375 
Q 15.28125 18.5 15.28125 16.3125 
Q 15.28125 14.15625 13.796875 12.671875 
Q 12.3125 11.1875 10.109375 11.1875 
Q 9.765625 11.1875 9.328125 11.25 
Q 8.890625 11.328125 8.6875 11.375 
" id="Cmr10-35"/>
     </defs>
     <g transform="translate(1018.8 108.51075)scale(0.144 -0.144)">
      <use transform="translate(0.0 0.484375)" xlink:href="#Cmmi10-53"/>
      <use transform="translate(61.279296875 -16.521875)scale(0.7)" xlink:href="#Cmmi10-77"/>
      <use transform="translate(135.254296875 0.484375)" xlink:href="#Cmr10-3d"/>
      <use transform="translate(230.4984375 0.484375)" xlink:href="#Cmr10-35"/>
     </g>
    </g>
    <g id="line2d_33">
     <path d="M 982.8 124.60725 
L 1002.96 124.60725 
" style="fill:none;stroke:#00bfbf;stroke-linecap:square;"/>
    </g>
    <g id="line2d_34"/>
    <g id="text_18">
     <!-- $S_w=7$ -->
     <defs>
      <path d="M 17.390625 2.59375 
Q 17.390625 8.15625 18.359375 13.46875 
Q 19.34375 18.796875 21.21875 24 
Q 23.09375 29.203125 25.75 34.203125 
Q 28.421875 39.203125 31.59375 43.609375 
L 40.71875 56.296875 
L 29.296875 56.296875 
Q 11.53125 56.296875 10.984375 55.8125 
Q 9.671875 54.203125 8.5 46.578125 
L 5.609375 46.578125 
L 8.890625 67.578125 
L 11.8125 67.578125 
L 11.8125 67.28125 
Q 11.8125 65.484375 17.921875 64.9375 
Q 24.03125 64.40625 29.890625 64.40625 
L 48.484375 64.40625 
L 48.484375 61.8125 
Q 48.484375 61.71875 48.453125 61.671875 
Q 48.4375 61.625 48.390625 61.53125 
L 34.625 42.1875 
Q 29.546875 34.671875 28.265625 25.484375 
Q 27 16.3125 27 2.59375 
Q 27 0.640625 25.578125 -0.78125 
Q 24.171875 -2.203125 22.21875 -2.203125 
Q 20.21875 -2.203125 18.796875 -0.78125 
Q 17.390625 0.640625 17.390625 2.59375 
" id="Cmr10-37"/>
     </defs>
     <g transform="translate(1018.8 129.64725)scale(0.144 -0.144)">
      <use transform="translate(0.0 0.484375)" xlink:href="#Cmmi10-53"/>
      <use transform="translate(61.279296875 -16.521875)scale(0.7)" xlink:href="#Cmmi10-77"/>
      <use transform="translate(135.254296875 0.484375)" xlink:href="#Cmr10-3d"/>
      <use transform="translate(230.4984375 0.484375)" xlink:href="#Cmr10-37"/>
     </g>
    </g>
   </g>
  </g>
 </g>
 <defs>
  <clipPath id="pcf45fda108">
   <rect height="403.2" width="803.52" x="162.0" y="50.4"/>
  </clipPath>
 </defs>
</svg>
