<?xml version="1.0" encoding="utf-8" standalone="no"?>
<!DOCTYPE svg PUBLIC "-//W3C//DTD SVG 1.1//EN"
  "http://www.w3.org/Graphics/SVG/1.1/DTD/svg11.dtd">
<!-- Created with matplotlib (http://matplotlib.org/) -->
<svg height="504pt" version="1.1" viewBox="0 0 1296 504" width="1296pt" xmlns="http://www.w3.org/2000/svg" xmlns:xlink="http://www.w3.org/1999/xlink">
 <defs>
  <style type="text/css">
*{stroke-linecap:butt;stroke-linejoin:round;stroke-miterlimit:100000;}
  </style>
 </defs>
 <g id="figure_1">
  <g id="patch_1">
   <path d="M 0 504 
L 1296 504 
L 1296 0 
L 0 0 
z
" style="fill:#ffffff;"/>
  </g>
  <g id="axes_1">
   <g id="patch_2">
    <path d="M 162 453.6 
L 965.52 453.6 
L 965.52 50.4 
L 162 50.4 
z
" style="fill:#ffffff;"/>
   </g>
   <g id="line2d_1">
    <path clip-path="url(#pc6c95c4f21)" d="M 162 428.4 
L 163.60704 426.4092 
L 165.21408 422.1756 
L 168.42816 416.9844 
L 170.0352 413.28 
L 171.64224 408.24 
L 174.85632 399.9744 
L 176.46336 397.1772 
L 178.0704 392.4396 
L 179.67744 388.2564 
L 181.28448 385.5348 
L 184.49856 373.4892 
L 186.1056 368.7516 
L 187.71264 364.5432 
L 189.31968 360.8388 
L 190.92672 358.1676 
L 192.53376 354.6396 
L 194.1408 347.7348 
L 197.35488 335.5128 
L 198.96192 330.5988 
L 200.56896 324.0216 
L 203.78304 316.008 
L 205.39008 310.9428 
L 206.99712 306.936 
L 208.60416 303.5844 
L 210.2112 299.88 
L 211.81824 295.344 
L 215.03232 285.6168 
L 216.63936 282.24 
L 218.2464 280.2492 
L 219.85344 277.704 
L 221.46048 276.1668 
L 223.06752 274.0248 
L 224.67456 271.5048 
L 226.2816 269.64 
L 227.88864 266.0868 
L 231.10272 260.568 
L 234.3168 250.8156 
L 235.92384 245.448 
L 237.53088 241.7184 
L 239.13792 238.896 
L 240.74496 234.5364 
L 242.352 232.848 
L 243.95904 231.6888 
L 245.56608 231.21 
L 247.17312 229.6728 
L 248.78016 228.7656 
L 250.3872 229.194 
L 251.99424 228.312 
L 253.60128 227.1276 
L 255.20832 227.1276 
L 256.81536 226.8 
L 258.4224 225.1116 
L 260.02944 224.6328 
L 261.63648 224.4816 
L 263.24352 224.9604 
L 264.85056 224.1036 
L 266.4576 224.9856 
L 268.06464 224.4564 
L 269.67168 223.4736 
L 271.27872 220.6008 
L 272.88576 218.5848 
L 274.4928 216.0144 
L 276.09984 212.814 
L 277.70688 212.184 
L 279.31392 211.1508 
L 280.92096 210.3696 
L 282.528 209.9664 
L 284.13504 210.3444 
L 285.74208 210.1932 
L 287.34912 210.3444 
L 288.95616 210.6468 
L 290.5632 209.6388 
L 292.17024 208.9836 
L 293.77728 207.4716 
L 295.38432 206.4636 
L 296.99136 204.624 
L 298.5984 201.9276 
L 300.20544 195.2244 
L 301.81248 189 
L 303.41952 184.8168 
L 305.02656 184.8168 
L 306.6336 185.2956 
L 308.24064 186.3288 
L 311.45472 187.6392 
L 313.06176 187.1604 
L 314.6688 187.4628 
L 316.27584 188.37 
L 317.88288 187.866 
L 319.48992 185.9508 
L 321.09696 185.1444 
L 322.704 180.7596 
L 324.31104 177.7608 
L 327.52512 173.0484 
L 329.13216 173.0484 
L 330.7392 173.5524 
L 332.34624 173.4012 
L 333.95328 172.7208 
L 335.56032 170.5032 
L 337.16736 166.824 
L 338.7744 162.2628 
L 340.38144 159.7428 
L 341.98848 158.4576 
L 343.59552 155.7108 
L 345.20256 155.3832 
L 346.8096 154.9044 
L 348.41664 154.0476 
L 350.02368 155.0304 
L 351.63072 155.2068 
L 354.8448 155.9376 
L 356.45184 157.4496 
L 358.05888 156.5928 
L 359.66592 156.5676 
L 361.27296 156.9708 
L 362.88 155.4084 
L 364.48704 154.224 
L 366.09408 154.7532 
L 367.70112 154.1988 
L 369.30816 152.208 
L 374.12928 141.8004 
L 375.73632 139.7592 
L 377.34336 138.096 
L 380.55744 137.3904 
L 382.16448 137.4156 
L 383.77152 138.0708 
L 385.37856 134.5428 
L 388.59264 125.3196 
L 391.80672 124.3116 
L 393.41376 123.6816 
L 395.0208 122.7996 
L 398.23488 123.1524 
L 399.84192 122.976 
L 403.056 126.1512 
L 404.66304 127.2096 
L 406.27008 127.6884 
L 407.87712 127.8648 
L 409.48416 128.3688 
L 411.0912 128.4948 
L 412.69824 127.89 
L 414.30528 128.1924 
L 415.91232 126.5292 
L 417.51936 126.126 
L 419.1264 125.4708 
L 420.73344 122.6484 
L 422.34048 120.9852 
L 423.94752 120.96 
L 425.55456 120.7836 
L 427.1616 119.8008 
L 428.76864 119.448 
L 430.37568 116.7516 
L 431.98272 115.5672 
L 433.58976 110.7288 
L 435.1968 106.3188 
L 436.80384 104.1516 
L 438.41088 101.6316 
L 440.01792 101.304 
L 441.62496 101.4804 
L 443.232 100.9764 
L 444.83904 100.8 
L 446.44608 99.9936 
L 448.05312 100.6488 
L 449.66016 101.6568 
L 452.87424 99.9432 
L 454.48128 97.9524 
L 456.08832 95.0796 
L 457.69536 93.5676 
L 459.3024 92.5596 
L 460.90944 91.7028 
L 462.51648 90.6948 
L 464.12352 92.2572 
L 465.73056 90.72 
L 467.3376 88.704 
L 468.94464 88.6788 
L 472.15872 89.4096 
L 475.3728 87.696 
L 476.97984 87.192 
L 480.19392 86.5368 
L 481.80096 86.4864 
L 483.408 85.3524 
L 485.01504 86.8896 
L 486.62208 86.8392 
L 488.22912 86.0328 
L 489.83616 87.0408 
L 491.4432 87.0408 
L 493.05024 86.5116 
L 494.65728 86.688 
L 496.26432 84.4704 
L 497.87136 81.9756 
L 499.4784 75.9024 
L 502.69248 61.3116 
L 504.29952 60.3036 
L 505.90656 58.4892 
L 507.5136 59.1192 
L 509.12064 58.9428 
L 510.72768 61.2864 
L 512.33472 61.1604 
L 513.94176 62.8236 
L 515.5488 64.6884 
L 517.15584 65.1672 
L 518.76288 66.5028 
L 520.36992 66.3768 
L 521.97696 65.6964 
L 523.584 65.8728 
L 525.19104 66.2004 
L 526.79808 65.6712 
L 528.40512 66.024 
L 530.01216 66.7296 
L 531.6192 66.7044 
L 533.22624 67.5612 
L 534.83328 67.0068 
L 536.44032 68.3928 
L 538.04736 68.5692 
L 539.6544 67.8384 
L 541.26144 68.8716 
L 544.47552 68.1912 
L 546.08256 68.04 
L 547.6896 68.2164 
L 549.29664 68.7204 
L 550.90368 69.0732 
L 552.51072 71.2404 
L 554.11776 72.5508 
L 555.7248 72.576 
L 557.33184 72.9288 
L 558.93888 73.4076 
L 560.54592 73.584 
L 562.15296 73.9116 
L 563.76 72.7272 
L 565.36704 72.3996 
L 566.97408 71.2656 
L 568.58112 73.1052 
L 570.18816 73.7856 
L 571.7952 73.7352 
L 575.00928 69.7032 
L 576.61632 66.7296 
L 578.22336 61.7904 
L 579.8304 55.6164 
L 581.43744 51.5844 
L 584.65152 51.5844 
L 586.25856 53.3988 
L 587.8656 52.5924 
L 589.47264 53.6004 
L 591.07968 53.928 
L 592.68672 54.432 
L 595.9008 55.7928 
L 597.50784 55.9692 
L 599.11488 55.4652 
L 600.72192 55.7928 
L 602.32896 54.936 
L 603.936 54.936 
L 605.54304 56.2716 
L 607.15008 56.826 
L 608.75712 57.834 
L 610.36416 57.8088 
L 611.9712 57.4812 
L 613.57824 57.96 
L 615.18528 58.968 
L 616.79232 58.2876 
L 618.39936 57.8088 
L 620.0064 57.9348 
L 621.61344 57.2796 
L 623.22048 58.3128 
L 624.82752 58.6404 
L 626.43456 60.1776 
L 628.0416 60.984 
L 629.64864 61.3368 
L 631.25568 61.866 
L 632.86272 62.5212 
L 634.46976 62.5212 
L 637.68384 63.0252 
L 639.29088 63.1512 
L 640.89792 62.8236 
L 642.50496 62.3196 
L 644.112 62.496 
L 645.71904 63.5292 
L 647.32608 63.6552 
L 648.93312 63.126 
L 652.1472 63.5292 
L 653.75424 62.496 
L 655.36128 62.9748 
L 656.96832 63.3276 
L 658.57536 64.1844 
L 660.1824 63.504 
L 663.39648 64.89 
L 665.00352 64.8648 
L 668.2176 65.1924 
L 669.82464 65.0412 
L 671.43168 65.52 
L 673.03872 67.2084 
L 676.2528 70.2324 
L 677.85984 70.56 
L 679.46688 70.7112 
L 681.07392 71.0388 
L 682.68096 72.576 
L 684.288 73.4076 
L 685.89504 73.7856 
L 687.50208 75.1212 
L 689.10912 75.096 
L 690.71616 76.104 
L 692.3232 77.6664 
L 693.93024 78.624 
L 697.14432 78.624 
L 698.75136 79.1532 
L 700.3584 79.128 
L 701.96544 78.246 
L 703.57248 78.0696 
L 705.17952 77.3136 
L 706.78656 76.986 
L 708.3936 75.7764 
L 710.00064 75.2724 
L 711.60768 75.3984 
L 713.21472 75.8016 
L 714.82176 77.4648 
L 716.4288 78.9264 
L 718.03584 78.12 
L 721.24992 78.8256 
L 722.85696 80.262 
L 724.464 80.9676 
L 726.07104 82.1772 
L 727.67808 82.6812 
L 729.28512 83.6388 
L 730.89216 84.1932 
L 732.4992 85.176 
L 734.10624 84.672 
L 735.71328 83.9664 
L 737.32032 82.1016 
L 738.92736 82.4796 
L 740.5344 84.8484 
L 742.14144 85.0248 
L 743.74848 85.9824 
L 745.35552 86.6628 
L 746.96256 86.058 
L 748.5696 86.184 
L 750.17664 86.8644 
L 751.78368 85.3524 
L 753.39072 85.5036 
L 754.99776 86.3604 
L 756.6048 85.0248 
L 758.21184 85.1508 
L 761.42592 85.8564 
L 763.03296 85.7052 
L 764.64 85.176 
L 766.24704 85.8312 
L 767.85408 87.192 
L 771.06816 87.8472 
L 772.6752 88.6788 
L 775.88928 91.4256 
L 777.49632 91.3752 
L 779.10336 90.342 
L 780.7104 91.728 
L 782.31744 91.9044 
L 783.92448 92.3832 
L 785.53152 90.0144 
L 787.13856 89.3844 
L 790.35264 86.8644 
L 791.95968 85.8564 
L 793.56672 86.7132 
L 795.17376 86.1588 
L 796.7808 87.066 
L 798.38784 87.5196 
L 799.99488 87.3432 
L 801.60192 88.704 
L 803.20896 89.0568 
L 806.42304 87.7212 
L 808.03008 87.8472 
L 809.63712 87.5448 
L 811.24416 87.8724 
L 812.8512 88.0488 
L 814.45824 88.8552 
L 816.06528 89.208 
L 817.67232 91.1988 
L 819.27936 91.3752 
L 820.8864 90.5184 
L 822.49344 91.3752 
L 824.10048 91.3752 
L 825.70752 91.5768 
L 827.31456 91.4004 
L 828.9216 92.2572 
L 830.52864 91.8792 
L 833.74272 89.8884 
L 835.34976 89.6868 
L 836.9568 89.8884 
L 838.56384 89.3592 
L 840.17088 87.0156 
L 841.77792 81.8244 
L 844.992 68.5692 
L 846.59904 63.3276 
L 848.20608 59.8248 
L 849.81312 58.1868 
L 851.42016 58.1616 
L 853.0272 58.2876 
L 854.63424 58.2876 
L 856.24128 57.7836 
L 857.84832 57.7836 
L 861.0624 60.1272 
L 862.66944 59.7996 
L 864.27648 59.6736 
L 865.88352 58.968 
L 867.49056 60.1524 
L 869.0976 60.5052 
L 870.70464 60.48 
L 872.31168 60.6816 
L 873.91872 61.488 
L 875.52576 61.1604 
L 877.1328 61.992 
L 878.73984 63.4788 
L 880.34688 65.3688 
L 881.95392 64.2096 
L 883.56096 63.4788 
L 885.168 65.016 
L 886.77504 64.8648 
L 888.38208 65.016 
L 889.98912 65.3436 
L 891.59616 65.3436 
L 893.2032 64.8648 
L 894.81024 65.3688 
L 896.41728 66.8808 
L 898.02432 67.7376 
L 899.63136 69.426 
L 901.2384 70.7112 
L 902.84544 70.2324 
L 904.45248 70.3836 
L 906.05952 69.2496 
L 907.66656 69.0228 
L 909.2736 67.5612 
L 910.88064 69.0732 
L 912.48768 70.056 
L 914.09472 70.7364 
L 915.70176 70.9128 
L 917.3088 70.6104 
L 918.91584 69.9048 
L 920.52288 68.3928 
L 922.12992 67.536 
L 925.344 67.032 
L 926.95104 66.3516 
L 928.55808 67.3596 
L 930.16512 67.3596 
L 931.77216 67.8888 
L 933.3792 67.6872 
L 934.98624 67.8384 
L 936.59328 70.0812 
L 938.20032 68.8212 
L 939.80736 68.5188 
L 941.4144 69.2244 
L 943.02144 68.7204 
L 944.62848 68.5692 
L 946.23552 69.2244 
L 947.84256 69.7284 
L 949.4496 68.7456 
L 951.05664 69.426 
L 952.66368 68.8464 
L 954.27072 68.544 
L 955.87776 68.3676 
L 957.4848 68.04 
L 959.09184 66.906 
L 960.69888 65.5452 
L 962.30592 62.7228 
L 963.91296 61.3116 
L 963.91296 61.3116 
" style="fill:none;stroke:#0000ff;stroke-linecap:square;"/>
   </g>
   <g id="line2d_2">
    <path clip-path="url(#pc6c95c4f21)" d="M 162 433.7676 
L 163.60704 430.5924 
L 165.21408 428.7528 
L 166.82112 426.5604 
L 168.42816 424.0404 
L 170.0352 422.0244 
L 171.64224 419.2776 
L 174.85632 410.9112 
L 176.46336 407.358 
L 178.0704 403.2 
L 179.67744 401.8644 
L 181.28448 399.9744 
L 182.89152 397.656 
L 184.49856 395.8164 
L 186.1056 394.4808 
L 187.71264 392.112 
L 189.31968 388.71 
L 190.92672 384.7284 
L 192.53376 383.2416 
L 194.1408 382.7124 
L 195.74784 382.3848 
L 197.35488 381.3768 
L 198.96192 382.032 
L 200.56896 381.3516 
L 202.176 379.6884 
L 203.78304 379.6884 
L 205.39008 375.6312 
L 206.99712 374.1696 
L 208.60416 370.9692 
L 210.2112 368.2476 
L 211.81824 365.274 
L 213.42528 362.7288 
L 215.03232 361.3428 
L 216.63936 362.0484 
L 218.2464 360.36 
L 219.85344 359.8812 
L 221.46048 360.0324 
L 223.06752 359.2008 
L 224.67456 357.1596 
L 227.88864 351.6156 
L 229.49568 350.4564 
L 231.10272 347.7348 
L 232.70976 346.2732 
L 234.3168 346.752 
L 235.92384 344.862 
L 237.53088 341.1828 
L 239.13792 338.8644 
L 240.74496 336.9744 
L 242.352 335.6892 
L 243.95904 333.8244 
L 245.56608 331.7832 
L 247.17312 330.9516 
L 251.99424 327.4488 
L 253.60128 326.7432 
L 255.20832 327.5748 
L 256.81536 325.9368 
L 258.4224 325.206 
L 261.63648 325.2312 
L 264.85056 327.6 
L 266.4576 327.474 
L 269.67168 323.8956 
L 271.27872 321.7284 
L 272.88576 320.7456 
L 274.4928 320.3676 
L 276.09984 319.2084 
L 277.70688 316.1592 
L 279.31392 314.6724 
L 280.92096 314.1432 
L 282.528 311.1192 
L 284.13504 307.2888 
L 285.74208 304.7688 
L 287.34912 304.5924 
L 288.95616 305.2728 
L 290.5632 302.2488 
L 292.17024 300.4092 
L 293.77728 297.5364 
L 295.38432 299.7036 
L 296.99136 303.0804 
L 298.5984 303.4332 
L 300.20544 304.2648 
L 301.81248 305.9028 
L 303.41952 305.2728 
L 305.02656 306.0792 
L 306.6336 305.424 
L 308.24064 308.0952 
L 309.84768 308.448 
L 311.45472 307.1376 
L 313.06176 302.7528 
L 314.6688 301.9212 
L 316.27584 300.5352 
L 317.88288 301.3668 
L 319.48992 303.3828 
L 321.09696 304.5672 
L 322.704 305.0964 
L 325.91808 306.81 
L 327.52512 306.7344 
L 329.13216 305.6256 
L 330.7392 302.7528 
L 332.34624 300.2328 
L 333.95328 294.6636 
L 335.56032 294.5124 
L 338.7744 298.0404 
L 340.38144 296.2008 
L 341.98848 297.486 
L 343.59552 293.3028 
L 345.20256 290.7576 
L 346.8096 288.8172 
L 348.41664 289.674 
L 350.02368 292.1436 
L 351.63072 292.824 
L 353.23776 294.21 
L 354.8448 296.0244 
L 356.45184 295.3692 
L 358.05888 293.9832 
L 359.66592 293.3028 
L 361.27296 290.6316 
L 362.88 288.3132 
L 364.48704 287.4312 
L 366.09408 288.4644 
L 367.70112 285.0876 
L 369.30816 283.5756 
L 370.9152 286.272 
L 372.52224 290.304 
L 374.12928 292.1436 
L 375.73632 295.0164 
L 377.34336 295.47 
L 378.9504 291.9924 
L 380.55744 290.1276 
L 382.16448 288.9684 
L 383.77152 288.414 
L 385.37856 286.2972 
L 386.9856 284.9112 
L 388.59264 283.7772 
L 390.19968 284.2308 
L 391.80672 283.7268 
L 393.41376 283.3992 
L 395.0208 287.2548 
L 396.62784 285.9696 
L 398.23488 282.4164 
L 399.84192 281.5344 
L 401.44896 278.8632 
L 403.056 276.6708 
L 404.66304 279.4176 
L 406.27008 278.712 
L 407.87712 275.688 
L 409.48416 277.704 
L 411.0912 279.216 
L 412.69824 276.4944 
L 414.30528 277.1496 
L 415.91232 275.4864 
L 417.51936 270.1692 
L 419.1264 265.9608 
L 420.73344 267.9768 
L 422.34048 266.4648 
L 423.94752 271.8576 
L 425.55456 269.9928 
L 427.1616 269.64 
L 428.76864 272.3112 
L 430.37568 270.2952 
L 431.98272 269.766 
L 433.58976 269.9676 
L 435.1968 270.8748 
L 436.80384 270.9756 
L 438.41088 274.4532 
L 440.01792 273.672 
L 441.62496 274.6548 
L 444.83904 280.4004 
L 446.44608 281.736 
L 448.05312 282.0636 
L 449.66016 286.2468 
L 451.2672 286.776 
L 452.87424 287.154 
L 454.48128 285.264 
L 456.08832 282.3912 
L 457.69536 283.0968 
L 459.3024 284.7348 
L 460.90944 285.9192 
L 462.51648 284.0796 
L 464.12352 283.4496 
L 465.73056 281.9376 
L 467.3376 279.3924 
L 468.94464 276.0156 
L 470.55168 274.6548 
L 472.15872 276.192 
L 475.3728 283.4244 
L 476.97984 283.5504 
L 478.58688 285.0624 
L 480.19392 285.2388 
L 481.80096 287.6076 
L 483.408 285.6168 
L 485.01504 284.2812 
L 486.62208 280.5768 
L 488.22912 280.7028 
L 489.83616 275.3352 
L 491.4432 271.53 
L 493.05024 269.6652 
L 496.26432 278.8884 
L 497.87136 282.2652 
L 499.4784 282.9456 
L 501.08544 282.5928 
L 502.69248 281.4084 
L 504.29952 280.8792 
L 505.90656 279.2412 
L 507.5136 281.8872 
L 509.12064 285.1128 
L 510.72768 290.9592 
L 512.33472 296.3772 
L 513.94176 299.1744 
L 515.5488 300.2328 
L 517.15584 298.2168 
L 518.76288 301.392 
L 520.36992 303.4332 
L 521.97696 305.7516 
L 523.584 306.9612 
L 525.19104 307.944 
L 526.79808 306.2808 
L 528.40512 302.7276 
L 530.01216 299.5524 
L 531.6192 298.0152 
L 533.22624 298.872 
L 534.83328 298.5192 
L 536.44032 299.754 
L 538.04736 298.368 
L 539.6544 298.3428 
L 541.26144 297.1584 
L 542.86848 292.1436 
L 544.47552 291.4884 
L 546.08256 288.9432 
L 547.6896 288.9684 
L 549.29664 287.4564 
L 550.90368 289.4976 
L 552.51072 293.3028 
L 554.11776 295.8228 
L 555.7248 295.4952 
L 557.33184 292.7736 
L 558.93888 290.5056 
L 560.54592 286.5744 
L 562.15296 284.0796 
L 563.76 282.0636 
L 565.36704 286.4484 
L 566.97408 292.4712 
L 568.58112 292.6728 
L 570.18816 291.4884 
L 571.7952 294.1848 
L 573.40224 295.3692 
L 575.00928 295.722 
L 576.61632 293.8068 
L 578.22336 292.1688 
L 579.8304 290.0016 
L 581.43744 288.1368 
L 583.04448 286.9272 
L 584.65152 284.9616 
L 586.25856 286.9524 
L 587.8656 290.1276 
L 589.47264 290.304 
L 591.07968 292.2948 
L 592.68672 296.5032 
L 594.29376 295.6716 
L 595.9008 297.3852 
L 597.50784 299.9052 
L 599.11488 304.0632 
L 600.72192 305.424 
L 602.32896 304.7436 
L 603.936 304.5672 
L 605.54304 303.8868 
L 607.15008 302.0976 
L 608.75712 301.896 
L 610.36416 301.4172 
L 611.9712 301.0896 
L 613.57824 301.0644 
L 615.18528 302.4252 
L 616.79232 302.2488 
L 618.39936 305.5752 
L 620.0064 304.7184 
L 621.61344 307.9188 
L 623.22048 306.9108 
L 624.82752 306.4572 
L 626.43456 304.2144 
L 628.0416 303.408 
L 629.64864 306.7848 
L 631.25568 305.0964 
L 634.46976 301.0392 
L 636.0768 300.258 
L 637.68384 298.5444 
L 639.29088 296.3268 
L 640.89792 297.5616 
L 642.50496 301.1652 
L 644.112 302.0976 
L 645.71904 303.2316 
L 647.32608 305.7768 
L 648.93312 304.0632 
L 650.54016 302.6016 
L 652.1472 300.888 
L 653.75424 301.1904 
L 655.36128 300.006 
L 656.96832 297.8388 
L 658.57536 293.8572 
L 660.1824 296.0748 
L 661.78944 297.6876 
L 663.39648 298.6956 
L 665.00352 298.872 
L 666.61056 301.5432 
L 668.2176 300.7116 
L 669.82464 294.6384 
L 671.43168 292.32 
L 673.03872 294.1344 
L 674.64576 297.5364 
L 676.2528 302.2488 
L 677.85984 304.5924 
L 679.46688 303.0552 
L 681.07392 304.92 
L 682.68096 304.2648 
L 684.288 302.904 
L 685.89504 302.0724 
L 687.50208 302.7276 
L 689.10912 301.5432 
L 690.71616 301.1148 
L 692.3232 297.6624 
L 693.93024 295.848 
L 695.53728 290.1024 
L 697.14432 288.6408 
L 698.75136 286.272 
L 700.3584 282.366 
L 701.96544 280.224 
L 703.57248 280.098 
L 705.17952 281.0556 
L 706.78656 281.2572 
L 708.3936 285.0624 
L 710.00064 289.5732 
L 711.60768 292.1184 
L 713.21472 295.344 
L 714.82176 295.9992 
L 716.4288 295.8228 
L 718.03584 296.352 
L 719.64288 292.824 
L 722.85696 287.1288 
L 724.464 285.2892 
L 726.07104 285.5916 
L 727.67808 283.9032 
L 729.28512 284.4576 
L 730.89216 286.9272 
L 732.4992 289.1196 
L 734.10624 290.7828 
L 735.71328 291.312 
L 737.32032 290.7828 
L 738.92736 289.8 
L 740.5344 292.32 
L 742.14144 296.3268 
L 743.74848 298.872 
L 745.35552 300.384 
L 746.96256 298.872 
L 748.5696 299.88 
L 750.17664 301.5432 
L 751.78368 300.4092 
L 753.39072 300.8628 
L 754.99776 302.4252 
L 756.6048 299.88 
L 758.21184 296.6544 
L 759.81888 295.0164 
L 761.42592 290.6568 
L 763.03296 287.1036 
L 764.64 282.7188 
L 766.24704 283.3992 
L 767.85408 285.5916 
L 769.46112 285.894 
L 771.06816 289.1448 
L 772.6752 286.9524 
L 774.28224 284.4324 
L 775.88928 285.2388 
L 777.49632 284.6088 
L 779.10336 287.6328 
L 780.7104 286.0956 
L 782.31744 286.65 
L 783.92448 286.0704 
L 785.53152 286.6248 
L 787.13856 285.1128 
L 788.7456 286.4232 
L 790.35264 286.0956 
L 791.95968 285.2388 
L 793.56672 284.6088 
L 795.17376 282.5676 
L 796.7808 283.374 
L 798.38784 285.6168 
L 799.99488 287.4312 
L 801.60192 290.178 
L 803.20896 292.1688 
L 804.816 292.1436 
L 808.03008 296.0244 
L 809.63712 294.4368 
L 811.24416 293.9832 
L 814.45824 294.3612 
L 816.06528 292.6476 
L 817.67232 292.7988 
L 819.27936 290.1276 
L 820.8864 289.2456 
L 822.49344 290.1528 
L 824.10048 292.4964 
L 825.70752 292.446 
L 827.31456 291.4632 
L 828.9216 291.186 
L 830.52864 289.296 
L 832.13568 286.776 
L 833.74272 289.1448 
L 835.34976 288.1116 
L 836.9568 290.1528 
L 838.56384 291.6648 
L 840.17088 291.3372 
L 841.77792 292.6476 
L 844.992 297.7128 
L 846.59904 299.0232 
L 848.20608 298.872 
L 851.42016 299.9304 
L 853.0272 298.1916 
L 854.63424 291.8412 
L 856.24128 290.1276 
L 857.84832 295.5204 
L 859.45536 294.1848 
L 861.0624 294.1596 
L 862.66944 293.1264 
L 864.27648 294.9912 
L 865.88352 298.5444 
L 867.49056 295.8732 
L 869.0976 292.5972 
L 872.31168 282.9456 
L 873.91872 279.0648 
L 875.52576 278.0064 
L 877.1328 277.6788 
L 880.34688 284.6088 
L 883.56096 293.8068 
L 885.168 295.1928 
L 886.77504 296.1756 
L 888.38208 298.872 
L 889.98912 301.2408 
L 891.59616 300.7368 
L 893.2032 304.0884 
L 894.81024 302.0724 
L 896.41728 303.2316 
L 898.02432 301.5432 
L 899.63136 300.384 
L 901.2384 296.5536 
L 902.84544 290.3292 
L 904.45248 288.1368 
L 906.05952 289.4472 
L 907.66656 289.8252 
L 909.2736 291.3372 
L 910.88064 290.9844 
L 912.48768 286.4484 
L 914.09472 287.1288 
L 915.70176 288.9684 
L 917.3088 292.2948 
L 918.91584 291.6396 
L 920.52288 293.0004 
L 922.12992 296.1756 
L 923.73696 295.6968 
L 925.344 297.5616 
L 926.95104 292.6476 
L 928.55808 294.1596 
L 930.16512 295.4952 
L 931.77216 292.7988 
L 933.3792 292.6728 
L 934.98624 291.816 
L 936.59328 288.9684 
L 938.20032 288.792 
L 939.80736 288.918 
L 941.4144 290.7828 
L 943.02144 293.7816 
L 944.62848 295.9992 
L 946.23552 297.6876 
L 947.84256 298.7208 
L 949.4496 297.864 
L 951.05664 296.8308 
L 952.66368 296.0496 
L 954.27072 295.8732 
L 955.87776 293.328 
L 957.4848 292.1688 
L 959.09184 287.9604 
L 960.69888 287.9856 
L 962.30592 285.9192 
L 963.91296 287.7588 
L 963.91296 287.7588 
" style="fill:none;stroke:#008000;stroke-linecap:square;"/>
   </g>
   <g id="line2d_3">
    <path clip-path="url(#pc6c95c4f21)" d="M 162 429.9372 
L 163.60704 428.9292 
L 165.21408 427.2156 
L 166.82112 425.6784 
L 168.42816 422.4024 
L 171.64224 415.1448 
L 173.24928 412.65 
L 174.85632 408.9204 
L 178.0704 405.0648 
L 179.67744 401.2092 
L 181.28448 400.5036 
L 182.89152 397.3284 
L 184.49856 393.12 
L 186.1056 392.7924 
L 187.71264 392.2632 
L 189.31968 391.104 
L 190.92672 386.8956 
L 192.53376 381.3264 
L 194.1408 380.394 
L 195.74784 377.8236 
L 197.35488 378.6804 
L 200.56896 373.464 
L 202.176 370.0872 
L 203.78304 368.9028 
L 205.39008 366.8616 
L 206.99712 367.0884 
L 208.60416 363.888 
L 210.2112 363.5352 
L 211.81824 362.7288 
L 213.42528 361.7208 
L 215.03232 361.5192 
L 216.63936 362.376 
L 218.2464 360.36 
L 219.85344 358.6968 
L 221.46048 362.0484 
L 223.06752 362.5524 
L 224.67456 359.478 
L 226.2816 359.856 
L 227.88864 360.36 
L 229.49568 360.3852 
L 231.10272 359.1504 
L 232.70976 357.6636 
L 234.3168 355.5216 
L 235.92384 356.5044 
L 237.53088 354.7908 
L 239.13792 352.1448 
L 240.74496 351.9432 
L 242.352 352.1196 
L 243.95904 350.4816 
L 245.56608 350.1036 
L 247.17312 348.264 
L 248.78016 349.7508 
L 250.3872 349.1208 
L 251.99424 349.776 
L 253.60128 351.288 
L 255.20832 350.4564 
L 256.81536 351.9684 
L 258.4224 354.1104 
L 260.02944 354.2868 
L 261.63648 350.9604 
L 263.24352 348.7428 
L 264.85056 349.902 
L 266.4576 351.9684 
L 268.06464 353.304 
L 269.67168 354.1608 
L 271.27872 351.9684 
L 272.88576 351.792 
L 274.4928 351.9432 
L 276.09984 350.4816 
L 277.70688 351.4392 
L 280.92096 348.0876 
L 282.528 349.4736 
L 284.13504 348.4404 
L 285.74208 347.9364 
L 287.34912 348.6168 
L 288.95616 348.5916 
L 290.5632 350.4816 
L 292.17024 353.1276 
L 293.77728 350.784 
L 295.38432 346.7268 
L 296.99136 345.24 
L 298.5984 346.752 
L 300.20544 347.256 
L 301.81248 347.4576 
L 303.41952 347.7852 
L 305.02656 349.5996 
L 306.6336 349.9272 
L 308.24064 351.1368 
L 309.84768 349.2468 
L 311.45472 347.76 
L 313.06176 349.4232 
L 316.27584 341.6868 
L 317.88288 340.0236 
L 319.48992 340.1748 
L 321.09696 346.9032 
L 322.704 347.256 
L 324.31104 348.5916 
L 325.91808 347.9112 
L 327.52512 347.4072 
L 329.13216 347.2308 
L 330.7392 348.4656 
L 332.34624 349.1208 
L 333.95328 348.7932 
L 335.56032 347.2812 
L 337.16736 347.1048 
L 338.7744 348.4152 
L 340.38144 350.6328 
L 341.98848 350.1288 
L 343.59552 350.91 
L 346.8096 349.7508 
L 348.41664 347.256 
L 350.02368 346.878 
L 351.63072 347.0796 
L 353.23776 344.2068 
L 354.8448 342.7452 
L 356.45184 339.3684 
L 358.05888 340.2 
L 359.66592 340.8804 
L 361.27296 338.5116 
L 362.88 336.9996 
L 364.48704 333.144 
L 366.09408 334.5048 
L 367.70112 334.656 
L 369.30816 336.9996 
L 370.9152 339.696 
L 374.12928 341.0568 
L 375.73632 343.4004 
L 377.34336 340.3764 
L 378.9504 338.5116 
L 380.55744 334.6056 
L 382.16448 332.4888 
L 386.9856 334.0008 
L 388.59264 334.152 
L 390.19968 336.9744 
L 391.80672 336.8232 
L 393.41376 337.8564 
L 395.0208 335.8656 
L 396.62784 338.184 
L 398.23488 338.3604 
L 399.84192 340.4016 
L 401.44896 339.8724 
L 403.056 339.8724 
L 404.66304 339.3432 
L 406.27008 340.8804 
L 407.87712 344.736 
L 409.48416 346.4244 
L 411.0912 346.752 
L 412.69824 348.264 
L 414.30528 348.2892 
L 415.91232 346.6008 
L 417.51936 347.256 
L 422.34048 343.728 
L 423.94752 343.5516 
L 425.55456 345.7692 
L 427.1616 345.6936 
L 430.37568 347.5836 
L 433.58976 345.0636 
L 435.1968 342.7956 
L 438.41088 343.3752 
L 440.01792 344.5848 
L 441.62496 345.3912 
L 443.232 345.9204 
L 444.83904 347.76 
L 446.44608 346.3992 
L 448.05312 347.256 
L 451.2672 344.5596 
L 452.87424 346.248 
L 454.48128 346.0968 
L 456.08832 344.2572 
L 457.69536 345.7188 
L 459.3024 343.8792 
L 460.90944 345.9204 
L 465.73056 341.1828 
L 467.3376 340.2 
L 468.94464 342.9216 
L 470.55168 344.2068 
L 472.15872 342.3672 
L 473.76576 338.688 
L 475.3728 340.6536 
L 476.97984 340.5276 
L 478.58688 339.5196 
L 480.19392 341.8884 
L 481.80096 341.8884 
L 483.408 339.5196 
L 485.01504 339.066 
L 486.62208 338.2092 
L 488.22912 340.7292 
L 489.83616 341.0568 
L 491.4432 340.5528 
L 493.05024 336.672 
L 494.65728 339.192 
L 496.26432 342.0648 
L 497.87136 340.6788 
L 499.4784 339.8724 
L 501.08544 339.8976 
L 502.69248 343.4004 
L 504.29952 345.5424 
L 507.5136 346.7016 
L 509.12064 347.4324 
L 510.72768 344.9124 
L 512.33472 343.0224 
L 513.94176 340.0488 
L 517.15584 336.5208 
L 518.76288 334.9332 
L 520.36992 334.026 
L 521.97696 329.7924 
L 523.584 330.246 
L 525.19104 330.12 
L 526.79808 330.9012 
L 528.40512 332.3124 
L 530.01216 334.3032 
L 531.6192 338.8644 
L 533.22624 339.192 
L 534.83328 339.696 
L 536.44032 335.3112 
L 538.04736 334.9836 
L 539.6544 338.184 
L 541.26144 342.5436 
L 544.47552 345.4164 
L 546.08256 347.4072 
L 547.6896 347.5836 
L 549.29664 346.5756 
L 550.90368 346.2228 
L 552.51072 342.8712 
L 554.11776 344.2572 
L 555.7248 346.248 
L 557.33184 345.5928 
L 558.93888 348.0876 
L 560.54592 345.0636 
L 562.15296 344.4084 
L 563.76 343.4004 
L 565.36704 342.8712 
L 566.97408 343.5768 
L 568.58112 341.6112 
L 570.18816 341.5608 
L 571.7952 344.0556 
L 573.40224 341.3592 
L 575.00928 342.72 
L 576.61632 341.7624 
L 578.22336 339.8472 
L 579.8304 339.696 
L 583.04448 336.6468 
L 584.65152 336.294 
L 586.25856 335.8152 
L 587.8656 334.1772 
L 589.47264 334.0008 
L 591.07968 336.0168 
L 594.29376 344.5848 
L 595.9008 346.752 
L 597.50784 346.9284 
L 599.11488 347.3064 
L 600.72192 345.9456 
L 602.32896 347.5584 
L 603.936 344.9376 
L 605.54304 345.24 
L 607.15008 345.0384 
L 608.75712 345.0888 
L 610.36416 344.232 
L 611.9712 346.626 
L 613.57824 346.626 
L 615.18528 345.4416 
L 616.79232 345.744 
L 618.39936 345.618 
L 620.0064 344.4336 
L 621.61344 345.5676 
L 623.22048 344.4336 
L 624.82752 346.7772 
L 626.43456 347.256 
L 628.0416 347.886 
L 629.64864 352.1196 
L 631.25568 354.2868 
L 632.86272 356.1516 
L 634.46976 352.7496 
L 636.0768 350.658 
L 637.68384 351.6408 
L 639.29088 353.178 
L 640.89792 354.4632 
L 642.50496 354.6396 
L 644.112 355.9752 
L 645.71904 354.816 
L 647.32608 353.304 
L 648.93312 354.4884 
L 650.54016 353.4804 
L 652.1472 352.6488 
L 653.75424 352.2708 
L 655.36128 352.8 
L 656.96832 354.8412 
L 658.57536 355.32 
L 660.1824 354.6396 
L 661.78944 351.1116 
L 663.39648 348.5664 
L 665.00352 348.768 
L 666.61056 347.9112 
L 668.2176 347.9112 
L 669.82464 346.5756 
L 671.43168 345.3912 
L 673.03872 346.9284 
L 674.64576 347.7096 
L 676.2528 350.406 
L 677.85984 350.4816 
L 679.46688 353.304 
L 681.07392 352.4976 
L 682.68096 350.3052 
L 684.288 348.768 
L 685.89504 345.5676 
L 687.50208 339.192 
L 689.10912 335.3364 
L 690.71616 335.8404 
L 692.3232 336.9996 
L 693.93024 337.6548 
L 695.53728 336.3192 
L 697.14432 337.176 
L 698.75136 337.8312 
L 700.3584 339.696 
L 701.96544 338.3352 
L 703.57248 339.57 
L 705.17952 340.5528 
L 706.78656 346.5756 
L 708.3936 350.3052 
L 710.00064 349.6248 
L 711.60768 352.9764 
L 713.21472 354.4632 
L 714.82176 351.6156 
L 716.4288 347.76 
L 718.03584 342.4176 
L 719.64288 337.68 
L 721.24992 336.5208 
L 722.85696 337.3524 
L 724.464 339.5448 
L 726.07104 341.5356 
L 727.67808 346.7268 
L 729.28512 348.1128 
L 730.89216 345.7692 
L 732.4992 344.3832 
L 734.10624 345.5676 
L 735.71328 345.2148 
L 737.32032 345.7188 
L 738.92736 345.2148 
L 740.5344 347.76 
L 742.14144 349.4736 
L 743.74848 350.9604 
L 745.35552 350.2548 
L 746.96256 352.7496 
L 750.17664 348.9696 
L 753.39072 346.5504 
L 754.99776 342.9216 
L 756.6048 340.8804 
L 758.21184 340.326 
L 759.81888 341.0316 
L 761.42592 342.6948 
L 763.03296 338.688 
L 764.64 337.68 
L 766.24704 337.8564 
L 767.85408 335.0088 
L 769.46112 332.7912 
L 771.06816 332.8164 
L 772.6752 334.4544 
L 774.28224 334.9836 
L 775.88928 334.8324 
L 777.49632 333.2952 
L 779.10336 331.4556 
L 780.7104 333.648 
L 782.31744 335.0088 
L 785.53152 340.5024 
L 787.13856 341.3844 
L 788.7456 343.224 
L 790.35264 341.334 
L 791.95968 341.3844 
L 793.56672 344.0556 
L 795.17376 343.0476 
L 796.7808 341.8632 
L 798.38784 341.2332 
L 799.99488 342.5436 
L 801.60192 341.9136 
L 803.20896 343.728 
L 804.816 341.0568 
L 806.42304 341.0316 
L 808.03008 344.4336 
L 809.63712 344.5596 
L 811.24416 342.72 
L 812.8512 342.09 
L 814.45824 342.8964 
L 816.06528 343.4004 
L 817.67232 342.216 
L 819.27936 344.232 
L 820.8864 345.8952 
L 822.49344 345.4164 
L 824.10048 342.1908 
L 825.70752 342.3924 
L 827.31456 339.7212 
L 828.9216 337.9824 
L 830.52864 337.8312 
L 832.13568 338.5116 
L 833.74272 338.688 
L 835.34976 341.586 
L 836.9568 341.4096 
L 838.56384 338.4864 
L 840.17088 337.8564 
L 841.77792 339.8976 
L 843.38496 340.8804 
L 844.992 337.7052 
L 846.59904 341.0568 
L 848.20608 342.9216 
L 849.81312 343.9044 
L 851.42016 346.0716 
L 853.0272 345.3912 
L 854.63424 347.5836 
L 856.24128 349.272 
L 859.45536 347.5836 
L 861.0624 344.0556 
L 862.66944 340.8552 
L 864.27648 339.0156 
L 865.88352 340.2 
L 867.49056 342.3924 
L 869.0976 342.0396 
L 870.70464 338.7132 
L 872.31168 342.8964 
L 873.91872 344.5848 
L 875.52576 345.4164 
L 877.1328 346.5504 
L 878.73984 344.5596 
L 880.34688 341.5356 
L 881.95392 343.4256 
L 883.56096 341.3592 
L 885.168 340.1748 
L 886.77504 340.3764 
L 888.38208 339.0156 
L 889.98912 338.5116 
L 891.59616 337.68 
L 893.2032 334.1268 
L 894.81024 335.4876 
L 896.41728 337.5036 
L 898.02432 335.1852 
L 901.2384 338.5116 
L 902.84544 338.688 
L 904.45248 340.5276 
L 906.05952 338.184 
L 907.66656 334.3284 
L 909.2736 334.8324 
L 910.88064 332.9928 
L 912.48768 333.7992 
L 914.09472 334.0008 
L 915.70176 336.546 
L 917.3088 338.8644 
L 918.91584 342.8712 
L 920.52288 342.72 
L 922.12992 342.7452 
L 923.73696 341.7372 
L 925.344 342.8964 
L 926.95104 344.2068 
L 928.55808 342.5436 
L 930.16512 344.4084 
L 931.77216 347.76 
L 933.3792 348.768 
L 934.98624 350.1036 
L 936.59328 350.9604 
L 938.20032 350.8344 
L 939.80736 352.1448 
L 941.4144 353.7828 
L 943.02144 353.1024 
L 944.62848 349.9524 
L 946.23552 349.4484 
L 947.84256 347.5836 
L 949.4496 345.24 
L 951.05664 347.1048 
L 952.66368 347.4072 
L 954.27072 348.9444 
L 955.87776 349.2216 
L 957.4848 347.9112 
L 959.09184 351.4392 
L 960.69888 350.9352 
L 962.30592 350.6076 
L 963.91296 347.4324 
L 963.91296 347.4324 
" style="fill:none;stroke:#ff0000;stroke-linecap:square;"/>
   </g>
   <g id="line2d_4">
    <path clip-path="url(#pc6c95c4f21)" d="M 162 428.6016 
L 163.60704 424.5444 
L 165.21408 424.368 
L 166.82112 421.9992 
L 168.42816 419.832 
L 170.0352 418.6728 
L 171.64224 416.4804 
L 173.24928 414.7416 
L 174.85632 411.6168 
L 176.46336 407.0556 
L 178.0704 404.8632 
L 179.67744 401.058 
L 181.28448 398.8656 
L 182.89152 397.1772 
L 184.49856 395.1612 
L 186.1056 395.136 
L 187.71264 393.8004 
L 189.31968 390.2724 
L 190.92672 389.592 
L 192.53376 388.7604 
L 194.1408 389.4408 
L 195.74784 391.482 
L 197.35488 388.7604 
L 198.96192 388.206 
L 200.56896 387.3996 
L 203.78304 379.3608 
L 205.39008 379.0332 
L 206.99712 377.9748 
L 208.60416 375.48 
L 210.2112 375.2028 
L 211.81824 373.9932 
L 215.03232 370.6164 
L 216.63936 370.9692 
L 218.2464 370.062 
L 219.85344 367.4412 
L 221.46048 365.7276 
L 223.06752 367.2648 
L 224.67456 366.9372 
L 226.2816 364.1904 
L 227.88864 365.4 
L 229.49568 367.416 
L 231.10272 369.1044 
L 232.70976 369.6336 
L 234.3168 368.7768 
L 235.92384 370.1124 
L 237.53088 370.7928 
L 239.13792 371.1204 
L 240.74496 370.5912 
L 242.352 369.2808 
L 243.95904 369.7596 
L 245.56608 369.7596 
L 247.17312 365.4 
L 248.78016 364.392 
L 250.3872 363.2328 
L 251.99424 362.376 
L 253.60128 361.1916 
L 255.20832 363.7116 
L 256.81536 362.6784 
L 258.4224 363.5856 
L 260.02944 363.1824 
L 261.63648 365.526 
L 263.24352 365.7276 
L 264.85056 362.8548 
L 266.4576 365.0472 
L 268.06464 365.904 
L 269.67168 368.2476 
L 272.88576 365.2236 
L 274.4928 364.7448 
L 276.09984 361.872 
L 277.70688 362.2248 
L 279.31392 362.1744 
L 280.92096 362.8548 
L 282.528 362.376 
L 284.13504 362.88 
L 287.34912 359.5284 
L 288.95616 360.3852 
L 290.5632 364.8708 
L 292.17024 363.4092 
L 293.77728 363.5856 
L 295.38432 365.7528 
L 296.99136 360.6876 
L 298.5984 358.9992 
L 300.20544 357.6888 
L 301.81248 359.1756 
L 303.41952 359.6796 
L 306.6336 361.1916 
L 308.24064 358.0164 
L 309.84768 356.832 
L 311.45472 357.6636 
L 313.06176 353.6064 
L 314.6688 355.6476 
L 316.27584 356.4288 
L 317.88288 357.6888 
L 319.48992 361.4184 
L 321.09696 361.0656 
L 322.704 363.5604 
L 325.91808 361.872 
L 327.52512 360.3852 
L 329.13216 359.856 
L 330.7392 358.0164 
L 332.34624 355.8492 
L 333.95328 357.336 
L 335.56032 358.344 
L 338.7744 358.9992 
L 340.38144 360.36 
L 341.98848 361.1916 
L 343.59552 361.1916 
L 345.20256 361.7208 
L 346.8096 362.5524 
L 348.41664 362.3508 
L 350.02368 362.88 
L 351.63072 361.3176 
L 353.23776 359.5284 
L 354.8448 356.5044 
L 356.45184 357.462 
L 358.05888 359.3772 
L 359.66592 360.36 
L 361.27296 359.856 
L 362.88 360.7128 
L 364.48704 359.856 
L 367.70112 361.1916 
L 369.30816 362.376 
L 370.9152 365.0976 
L 372.52224 362.7288 
L 374.12928 362.9052 
L 375.73632 360.8892 
L 377.34336 360.2088 
L 378.9504 362.0232 
L 382.16448 361.6452 
L 383.77152 360.8388 
L 385.37856 361.0404 
L 386.9856 360.5364 
L 388.59264 361.0404 
L 390.19968 361.872 
L 393.41376 360.234 
L 395.0208 359.856 
L 396.62784 361.5444 
L 398.23488 364.0392 
L 399.84192 363.384 
L 401.44896 365.0724 
L 403.056 364.392 
L 404.66304 365.4252 
L 406.27008 364.8708 
L 407.87712 365.2236 
L 409.48416 366.5592 
L 411.0912 366.408 
L 412.69824 363.7116 
L 414.30528 361.3176 
L 415.91232 361.7208 
L 417.51936 361.6704 
L 419.1264 360.4104 
L 420.73344 362.376 
L 422.34048 363.5604 
L 423.94752 364.4172 
L 425.55456 363.3588 
L 427.1616 362.88 
L 428.76864 359.7048 
L 430.37568 358.848 
L 431.98272 359.1756 
L 433.58976 361.746 
L 435.1968 362.5776 
L 436.80384 361.872 
L 438.41088 362.7288 
L 440.01792 362.5272 
L 441.62496 363.4344 
L 443.232 363.888 
L 444.83904 360.6876 
L 446.44608 360.1836 
L 448.05312 359.856 
L 449.66016 359.7048 
L 451.2672 360.7128 
L 452.87424 361.0404 
L 454.48128 362.0232 
L 456.08832 364.77 
L 457.69536 363.7368 
L 459.3024 363.5604 
L 460.90944 364.392 
L 462.51648 363.1824 
L 464.12352 361.5192 
L 465.73056 358.5204 
L 467.3376 358.8732 
L 468.94464 359.0244 
L 470.55168 356.328 
L 472.15872 357.0084 
L 473.76576 358.1928 
L 475.3728 357.9912 
L 476.97984 357.2856 
L 478.58688 357.1596 
L 480.19392 356.6808 
L 481.80096 357.6888 
L 483.408 357.0084 
L 486.62208 359.0244 
L 488.22912 360.1836 
L 489.83616 362.4012 
L 491.4432 363.7116 
L 493.05024 362.0484 
L 494.65728 361.7208 
L 496.26432 361.0152 
L 497.87136 359.5284 
L 499.4784 360.36 
L 501.08544 361.746 
L 502.69248 359.352 
L 504.29952 361.368 
L 505.90656 362.0736 
L 507.5136 361.872 
L 509.12064 361.0404 
L 510.72768 359.1756 
L 512.33472 358.3692 
L 513.94176 359.8056 
L 515.5488 359.0244 
L 517.15584 359.8308 
L 518.76288 362.2248 
L 520.36992 361.3932 
L 521.97696 358.8228 
L 525.19104 355.9752 
L 526.79808 356.0004 
L 528.40512 358.0416 
L 530.01216 357.336 
L 531.6192 359.0244 
L 533.22624 361.6956 
L 534.83328 362.88 
L 536.44032 366.4332 
L 538.04736 369.2808 
L 539.6544 366.912 
L 541.26144 365.4 
L 542.86848 366.2568 
L 544.47552 366.2316 
L 546.08256 368.0964 
L 547.6896 367.7688 
L 549.29664 368.2728 
L 550.90368 367.92 
L 552.51072 368.1216 
L 554.11776 366.03 
L 555.7248 363.7368 
L 557.33184 360.8892 
L 558.93888 357.6888 
L 560.54592 355.194 
L 562.15296 355.1688 
L 563.76 358.0164 
L 565.36704 357.6636 
L 566.97408 360.5616 
L 570.18816 359.1756 
L 571.7952 358.6716 
L 573.40224 356.6808 
L 575.00928 353.808 
L 576.61632 354.2868 
L 578.22336 354.4884 
L 579.8304 353.6568 
L 581.43744 355.824 
L 583.04448 355.7988 
L 584.65152 357.1848 
L 586.25856 359.856 
L 587.8656 360.738 
L 589.47264 357.714 
L 591.07968 355.4964 
L 592.68672 356.1768 
L 594.29376 357.1848 
L 595.9008 355.9752 
L 597.50784 355.9752 
L 599.11488 355.1436 
L 600.72192 355.824 
L 602.32896 357.6636 
L 603.936 356.1768 
L 605.54304 355.95 
L 607.15008 354.816 
L 608.75712 354.9924 
L 610.36416 355.6476 
L 611.9712 355.3452 
L 613.57824 353.6064 
L 615.18528 353.934 
L 616.79232 353.3292 
L 618.39936 352.4724 
L 620.0064 352.296 
L 621.61344 351.288 
L 623.22048 354.2868 
L 624.82752 351.8172 
L 626.43456 350.1288 
L 628.0416 353.6568 
L 629.64864 353.4804 
L 631.25568 352.6488 
L 632.86272 354.9672 
L 634.46976 354.1608 
L 636.0768 353.808 
L 637.68384 355.6476 
L 639.29088 353.4804 
L 640.89792 353.808 
L 642.50496 353.304 
L 644.112 354.312 
L 645.71904 353.4804 
L 647.32608 353.1276 
L 648.93312 351.8172 
L 650.54016 351.6156 
L 652.1472 352.8 
L 653.75424 350.9856 
L 655.36128 348.1128 
L 656.96832 344.0304 
L 658.57536 344.4336 
L 660.1824 344.232 
L 661.78944 343.35 
L 663.39648 345.0888 
L 665.00352 342.7452 
L 666.61056 339.696 
L 668.2176 339.192 
L 669.82464 343.1988 
L 671.43168 346.248 
L 673.03872 351.1368 
L 674.64576 352.9512 
L 676.2528 352.6236 
L 677.85984 352.4724 
L 679.46688 353.1528 
L 681.07392 350.4564 
L 682.68096 351.288 
L 684.288 353.4552 
L 685.89504 352.4724 
L 687.50208 349.9524 
L 689.10912 350.3052 
L 690.71616 348.6168 
L 692.3232 349.4736 
L 693.93024 350.9352 
L 695.53728 352.9512 
L 697.14432 350.9856 
L 698.75136 349.9524 
L 700.3584 350.6328 
L 701.96544 354.9924 
L 703.57248 352.4472 
L 705.17952 354.9924 
L 706.78656 355.824 
L 708.3936 356.8572 
L 710.00064 356.6556 
L 711.60768 358.848 
L 713.21472 359.5284 
L 714.82176 359.6544 
L 718.03584 362.9052 
L 719.64288 362.7288 
L 721.24992 360.5112 
L 722.85696 360.5364 
L 724.464 361.5444 
L 726.07104 361.1664 
L 727.67808 361.368 
L 729.28512 359.8812 
L 730.89216 359.856 
L 732.4992 359.5284 
L 735.71328 355.6476 
L 737.32032 353.2788 
L 738.92736 355.1688 
L 742.14144 353.9592 
L 743.74848 354.312 
L 745.35552 353.9592 
L 746.96256 354.7908 
L 748.5696 355.32 
L 750.17664 358.3188 
L 751.78368 358.848 
L 753.39072 360.0324 
L 754.99776 360.5616 
L 756.6048 362.2248 
L 758.21184 364.2408 
L 759.81888 361.8972 
L 761.42592 361.5444 
L 763.03296 360.3096 
L 764.64 360.5112 
L 766.24704 362.0484 
L 767.85408 360.3096 
L 769.46112 360.1836 
L 771.06816 358.5204 
L 772.6752 357.4872 
L 774.28224 357.336 
L 775.88928 358.1424 
L 777.49632 356.0004 
L 779.10336 355.5216 
L 780.7104 357.0084 
L 782.31744 356.328 
L 783.92448 355.7988 
L 785.53152 353.2788 
L 787.13856 353.6568 
L 788.7456 352.0944 
L 790.35264 353.4552 
L 791.95968 352.4472 
L 793.56672 356.0004 
L 795.17376 353.8584 
L 796.7808 354.4884 
L 798.38784 355.6476 
L 799.99488 355.7988 
L 801.60192 354.9924 
L 806.42304 351.8172 
L 808.03008 352.8 
L 809.63712 354.4884 
L 812.8512 352.5228 
L 814.45824 351.792 
L 816.06528 350.8092 
L 817.67232 353.304 
L 819.27936 351.4392 
L 820.8864 354.2868 
L 822.49344 353.4552 
L 824.10048 351.7668 
L 825.70752 353.1276 
L 827.31456 355.6476 
L 828.9216 353.5056 
L 830.52864 355.32 
L 832.13568 355.7736 
L 833.74272 356.8068 
L 835.34976 356.5296 
L 836.9568 357.4872 
L 838.56384 355.698 
L 840.17088 355.6476 
L 841.77792 354.5136 
L 843.38496 354.4632 
L 844.992 356.3028 
L 846.59904 356.1768 
L 848.20608 360.0324 
L 849.81312 358.9992 
L 851.42016 362.7036 
L 853.0272 359.478 
L 854.63424 356.5044 
L 856.24128 354.3372 
L 857.84832 351.9684 
L 859.45536 353.3292 
L 861.0624 355.0176 
L 862.66944 353.6064 
L 864.27648 353.1276 
L 865.88352 353.2788 
L 867.49056 352.9512 
L 869.0976 355.8492 
L 870.70464 353.9592 
L 872.31168 353.6316 
L 873.91872 354.7908 
L 875.52576 355.1688 
L 877.1328 354.942 
L 878.73984 355.0176 
L 881.95392 352.1448 
L 883.56096 351.6408 
L 885.168 349.9524 
L 886.77504 350.658 
L 888.38208 351.9684 
L 889.98912 351.3132 
L 891.59616 352.296 
L 893.2032 352.9512 
L 894.81024 351.4392 
L 896.41728 355.1688 
L 898.02432 356.202 
L 899.63136 354.6396 
L 901.2384 354.4632 
L 902.84544 358.3692 
L 904.45248 358.1676 
L 906.05952 360.0072 
L 907.66656 358.6968 
L 909.2736 357.8652 
L 910.88064 357.8652 
L 912.48768 357.6636 
L 914.09472 358.344 
L 915.70176 361.1916 
L 917.3088 363.0564 
L 918.91584 360.8892 
L 920.52288 360.0324 
L 922.12992 360.6876 
L 923.73696 356.958 
L 925.344 356.3532 
L 926.95104 356.5044 
L 928.55808 355.194 
L 930.16512 355.824 
L 931.77216 355.6476 
L 933.3792 357.2856 
L 934.98624 360.5364 
L 936.59328 363.2076 
L 938.20032 361.5192 
L 943.02144 361.5444 
L 944.62848 362.2248 
L 946.23552 363.9132 
L 947.84256 362.7288 
L 951.05664 361.368 
L 952.66368 360.36 
L 954.27072 359.2008 
L 955.87776 358.1928 
L 957.4848 359.6796 
L 959.09184 360.0324 
L 960.69888 361.5444 
L 962.30592 360.0072 
L 963.91296 357.84 
L 963.91296 357.84 
" style="fill:none;stroke:#00bfbf;stroke-linecap:square;"/>
   </g>
   <g id="patch_3">
    <path d="M 162 50.4 
L 965.52 50.4 
" style="fill:none;stroke:#000000;stroke-linecap:square;stroke-linejoin:miter;"/>
   </g>
   <g id="patch_4">
    <path d="M 965.52 453.6 
L 965.52 50.4 
" style="fill:none;stroke:#000000;stroke-linecap:square;stroke-linejoin:miter;"/>
   </g>
   <g id="patch_5">
    <path d="M 162 453.6 
L 965.52 453.6 
" style="fill:none;stroke:#000000;stroke-linecap:square;stroke-linejoin:miter;"/>
   </g>
   <g id="patch_6">
    <path d="M 162 453.6 
L 162 50.4 
" style="fill:none;stroke:#000000;stroke-linecap:square;stroke-linejoin:miter;"/>
   </g>
   <g id="matplotlib.axis_1">
    <g id="xtick_1">
     <g id="line2d_5">
      <defs>
       <path d="M 0 0 
L 0 -4 
" id="md8f8c80233" style="stroke:#000000;stroke-width:0.5;"/>
      </defs>
      <g>
       <use style="stroke:#000000;stroke-width:0.5;" x="162.0" xlink:href="#md8f8c80233" y="453.6"/>
      </g>
     </g>
     <g id="line2d_6">
      <defs>
       <path d="M 0 0 
L 0 4 
" id="m30446e7ebe" style="stroke:#000000;stroke-width:0.5;"/>
      </defs>
      <g>
       <use style="stroke:#000000;stroke-width:0.5;" x="162.0" xlink:href="#m30446e7ebe" y="50.4"/>
      </g>
     </g>
     <g id="text_1">
      <!-- 0 -->
      <defs>
       <path d="M 31.78125 66.40625 
Q 24.171875 66.40625 20.328125 58.90625 
Q 16.5 51.421875 16.5 36.375 
Q 16.5 21.390625 20.328125 13.890625 
Q 24.171875 6.390625 31.78125 6.390625 
Q 39.453125 6.390625 43.28125 13.890625 
Q 47.125 21.390625 47.125 36.375 
Q 47.125 51.421875 43.28125 58.90625 
Q 39.453125 66.40625 31.78125 66.40625 
M 31.78125 74.21875 
Q 44.046875 74.21875 50.515625 64.515625 
Q 56.984375 54.828125 56.984375 36.375 
Q 56.984375 17.96875 50.515625 8.265625 
Q 44.046875 -1.421875 31.78125 -1.421875 
Q 19.53125 -1.421875 13.0625 8.265625 
Q 6.59375 17.96875 6.59375 36.375 
Q 6.59375 54.828125 13.0625 64.515625 
Q 19.53125 74.21875 31.78125 74.21875 
" id="BitstreamVeraSans-Roman-30"/>
      </defs>
      <g transform="translate(158.1825 466.718125)scale(0.12 -0.12)">
       <use xlink:href="#BitstreamVeraSans-Roman-30"/>
      </g>
     </g>
    </g>
    <g id="xtick_2">
     <g id="line2d_7">
      <g>
       <use style="stroke:#000000;stroke-width:0.5;" x="322.704" xlink:href="#md8f8c80233" y="453.6"/>
      </g>
     </g>
     <g id="line2d_8">
      <g>
       <use style="stroke:#000000;stroke-width:0.5;" x="322.704" xlink:href="#m30446e7ebe" y="50.4"/>
      </g>
     </g>
     <g id="text_2">
      <!-- 100 -->
      <defs>
       <path d="M 12.40625 8.296875 
L 28.515625 8.296875 
L 28.515625 63.921875 
L 10.984375 60.40625 
L 10.984375 69.390625 
L 28.421875 72.90625 
L 38.28125 72.90625 
L 38.28125 8.296875 
L 54.390625 8.296875 
L 54.390625 0 
L 12.40625 0 
z
" id="BitstreamVeraSans-Roman-31"/>
      </defs>
      <g transform="translate(311.2515 466.718125)scale(0.12 -0.12)">
       <use xlink:href="#BitstreamVeraSans-Roman-31"/>
       <use x="63.623046875" xlink:href="#BitstreamVeraSans-Roman-30"/>
       <use x="127.24609375" xlink:href="#BitstreamVeraSans-Roman-30"/>
      </g>
     </g>
    </g>
    <g id="xtick_3">
     <g id="line2d_9">
      <g>
       <use style="stroke:#000000;stroke-width:0.5;" x="483.408" xlink:href="#md8f8c80233" y="453.6"/>
      </g>
     </g>
     <g id="line2d_10">
      <g>
       <use style="stroke:#000000;stroke-width:0.5;" x="483.408" xlink:href="#m30446e7ebe" y="50.4"/>
      </g>
     </g>
     <g id="text_3">
      <!-- 200 -->
      <defs>
       <path d="M 19.1875 8.296875 
L 53.609375 8.296875 
L 53.609375 0 
L 7.328125 0 
L 7.328125 8.296875 
Q 12.9375 14.109375 22.625 23.890625 
Q 32.328125 33.6875 34.8125 36.53125 
Q 39.546875 41.84375 41.421875 45.53125 
Q 43.3125 49.21875 43.3125 52.78125 
Q 43.3125 58.59375 39.234375 62.25 
Q 35.15625 65.921875 28.609375 65.921875 
Q 23.96875 65.921875 18.8125 64.3125 
Q 13.671875 62.703125 7.8125 59.421875 
L 7.8125 69.390625 
Q 13.765625 71.78125 18.9375 73 
Q 24.125 74.21875 28.421875 74.21875 
Q 39.75 74.21875 46.484375 68.546875 
Q 53.21875 62.890625 53.21875 53.421875 
Q 53.21875 48.921875 51.53125 44.890625 
Q 49.859375 40.875 45.40625 35.40625 
Q 44.1875 33.984375 37.640625 27.21875 
Q 31.109375 20.453125 19.1875 8.296875 
" id="BitstreamVeraSans-Roman-32"/>
      </defs>
      <g transform="translate(471.9555 466.718125)scale(0.12 -0.12)">
       <use xlink:href="#BitstreamVeraSans-Roman-32"/>
       <use x="63.623046875" xlink:href="#BitstreamVeraSans-Roman-30"/>
       <use x="127.24609375" xlink:href="#BitstreamVeraSans-Roman-30"/>
      </g>
     </g>
    </g>
    <g id="xtick_4">
     <g id="line2d_11">
      <g>
       <use style="stroke:#000000;stroke-width:0.5;" x="644.112" xlink:href="#md8f8c80233" y="453.6"/>
      </g>
     </g>
     <g id="line2d_12">
      <g>
       <use style="stroke:#000000;stroke-width:0.5;" x="644.112" xlink:href="#m30446e7ebe" y="50.4"/>
      </g>
     </g>
     <g id="text_4">
      <!-- 300 -->
      <defs>
       <path d="M 40.578125 39.3125 
Q 47.65625 37.796875 51.625 33 
Q 55.609375 28.21875 55.609375 21.1875 
Q 55.609375 10.40625 48.1875 4.484375 
Q 40.765625 -1.421875 27.09375 -1.421875 
Q 22.515625 -1.421875 17.65625 -0.515625 
Q 12.796875 0.390625 7.625 2.203125 
L 7.625 11.71875 
Q 11.71875 9.328125 16.59375 8.109375 
Q 21.484375 6.890625 26.8125 6.890625 
Q 36.078125 6.890625 40.9375 10.546875 
Q 45.796875 14.203125 45.796875 21.1875 
Q 45.796875 27.640625 41.28125 31.265625 
Q 36.765625 34.90625 28.71875 34.90625 
L 20.21875 34.90625 
L 20.21875 43.015625 
L 29.109375 43.015625 
Q 36.375 43.015625 40.234375 45.921875 
Q 44.09375 48.828125 44.09375 54.296875 
Q 44.09375 59.90625 40.109375 62.90625 
Q 36.140625 65.921875 28.71875 65.921875 
Q 24.65625 65.921875 20.015625 65.03125 
Q 15.375 64.15625 9.8125 62.3125 
L 9.8125 71.09375 
Q 15.4375 72.65625 20.34375 73.4375 
Q 25.25 74.21875 29.59375 74.21875 
Q 40.828125 74.21875 47.359375 69.109375 
Q 53.90625 64.015625 53.90625 55.328125 
Q 53.90625 49.265625 50.4375 45.09375 
Q 46.96875 40.921875 40.578125 39.3125 
" id="BitstreamVeraSans-Roman-33"/>
      </defs>
      <g transform="translate(632.6595 466.718125)scale(0.12 -0.12)">
       <use xlink:href="#BitstreamVeraSans-Roman-33"/>
       <use x="63.623046875" xlink:href="#BitstreamVeraSans-Roman-30"/>
       <use x="127.24609375" xlink:href="#BitstreamVeraSans-Roman-30"/>
      </g>
     </g>
    </g>
    <g id="xtick_5">
     <g id="line2d_13">
      <g>
       <use style="stroke:#000000;stroke-width:0.5;" x="804.816" xlink:href="#md8f8c80233" y="453.6"/>
      </g>
     </g>
     <g id="line2d_14">
      <g>
       <use style="stroke:#000000;stroke-width:0.5;" x="804.816" xlink:href="#m30446e7ebe" y="50.4"/>
      </g>
     </g>
     <g id="text_5">
      <!-- 400 -->
      <defs>
       <path d="M 37.796875 64.3125 
L 12.890625 25.390625 
L 37.796875 25.390625 
z
M 35.203125 72.90625 
L 47.609375 72.90625 
L 47.609375 25.390625 
L 58.015625 25.390625 
L 58.015625 17.1875 
L 47.609375 17.1875 
L 47.609375 0 
L 37.796875 0 
L 37.796875 17.1875 
L 4.890625 17.1875 
L 4.890625 26.703125 
z
" id="BitstreamVeraSans-Roman-34"/>
      </defs>
      <g transform="translate(793.3635 466.718125)scale(0.12 -0.12)">
       <use xlink:href="#BitstreamVeraSans-Roman-34"/>
       <use x="63.623046875" xlink:href="#BitstreamVeraSans-Roman-30"/>
       <use x="127.24609375" xlink:href="#BitstreamVeraSans-Roman-30"/>
      </g>
     </g>
    </g>
    <g id="xtick_6">
     <g id="line2d_15">
      <g>
       <use style="stroke:#000000;stroke-width:0.5;" x="965.52" xlink:href="#md8f8c80233" y="453.6"/>
      </g>
     </g>
     <g id="line2d_16">
      <g>
       <use style="stroke:#000000;stroke-width:0.5;" x="965.52" xlink:href="#m30446e7ebe" y="50.4"/>
      </g>
     </g>
     <g id="text_6">
      <!-- 500 -->
      <defs>
       <path d="M 10.796875 72.90625 
L 49.515625 72.90625 
L 49.515625 64.59375 
L 19.828125 64.59375 
L 19.828125 46.734375 
Q 21.96875 47.46875 24.109375 47.828125 
Q 26.265625 48.1875 28.421875 48.1875 
Q 40.625 48.1875 47.75 41.5 
Q 54.890625 34.8125 54.890625 23.390625 
Q 54.890625 11.625 47.5625 5.09375 
Q 40.234375 -1.421875 26.90625 -1.421875 
Q 22.3125 -1.421875 17.546875 -0.640625 
Q 12.796875 0.140625 7.71875 1.703125 
L 7.71875 11.625 
Q 12.109375 9.234375 16.796875 8.0625 
Q 21.484375 6.890625 26.703125 6.890625 
Q 35.15625 6.890625 40.078125 11.328125 
Q 45.015625 15.765625 45.015625 23.390625 
Q 45.015625 31 40.078125 35.4375 
Q 35.15625 39.890625 26.703125 39.890625 
Q 22.75 39.890625 18.8125 39.015625 
Q 14.890625 38.140625 10.796875 36.28125 
z
" id="BitstreamVeraSans-Roman-35"/>
      </defs>
      <g transform="translate(954.0675 466.718125)scale(0.12 -0.12)">
       <use xlink:href="#BitstreamVeraSans-Roman-35"/>
       <use x="63.623046875" xlink:href="#BitstreamVeraSans-Roman-30"/>
       <use x="127.24609375" xlink:href="#BitstreamVeraSans-Roman-30"/>
      </g>
     </g>
    </g>
    <g id="text_7">
     <!-- Time -->
     <defs>
      <path d="M 56.203125 29.59375 
L 56.203125 25.203125 
L 14.890625 25.203125 
Q 15.484375 15.921875 20.484375 11.0625 
Q 25.484375 6.203125 34.421875 6.203125 
Q 39.59375 6.203125 44.453125 7.46875 
Q 49.3125 8.734375 54.109375 11.28125 
L 54.109375 2.78125 
Q 49.265625 0.734375 44.1875 -0.34375 
Q 39.109375 -1.421875 33.890625 -1.421875 
Q 20.796875 -1.421875 13.15625 6.1875 
Q 5.515625 13.8125 5.515625 26.8125 
Q 5.515625 40.234375 12.765625 48.109375 
Q 20.015625 56 32.328125 56 
Q 43.359375 56 49.78125 48.890625 
Q 56.203125 41.796875 56.203125 29.59375 
M 47.21875 32.234375 
Q 47.125 39.59375 43.09375 43.984375 
Q 39.0625 48.390625 32.421875 48.390625 
Q 24.90625 48.390625 20.390625 44.140625 
Q 15.875 39.890625 15.1875 32.171875 
z
" id="BitstreamVeraSans-Roman-65"/>
      <path d="M 9.421875 54.6875 
L 18.40625 54.6875 
L 18.40625 0 
L 9.421875 0 
z
M 9.421875 75.984375 
L 18.40625 75.984375 
L 18.40625 64.59375 
L 9.421875 64.59375 
z
" id="BitstreamVeraSans-Roman-69"/>
      <path d="M -0.296875 72.90625 
L 61.375 72.90625 
L 61.375 64.59375 
L 35.5 64.59375 
L 35.5 0 
L 25.59375 0 
L 25.59375 64.59375 
L -0.296875 64.59375 
z
" id="BitstreamVeraSans-Roman-54"/>
      <path d="M 52 44.1875 
Q 55.375 50.25 60.0625 53.125 
Q 64.75 56 71.09375 56 
Q 79.640625 56 84.28125 50.015625 
Q 88.921875 44.046875 88.921875 33.015625 
L 88.921875 0 
L 79.890625 0 
L 79.890625 32.71875 
Q 79.890625 40.578125 77.09375 44.375 
Q 74.3125 48.1875 68.609375 48.1875 
Q 61.625 48.1875 57.5625 43.546875 
Q 53.515625 38.921875 53.515625 30.90625 
L 53.515625 0 
L 44.484375 0 
L 44.484375 32.71875 
Q 44.484375 40.625 41.703125 44.40625 
Q 38.921875 48.1875 33.109375 48.1875 
Q 26.21875 48.1875 22.15625 43.53125 
Q 18.109375 38.875 18.109375 30.90625 
L 18.109375 0 
L 9.078125 0 
L 9.078125 54.6875 
L 18.109375 54.6875 
L 18.109375 46.1875 
Q 21.1875 51.21875 25.484375 53.609375 
Q 29.78125 56 35.6875 56 
Q 41.65625 56 45.828125 52.96875 
Q 50 49.953125 52 44.1875 
" id="BitstreamVeraSans-Roman-6d"/>
     </defs>
     <g transform="translate(548.895 483.331875)scale(0.12 -0.12)">
      <use xlink:href="#BitstreamVeraSans-Roman-54"/>
      <use x="61.037109375" xlink:href="#BitstreamVeraSans-Roman-69"/>
      <use x="88.8203125" xlink:href="#BitstreamVeraSans-Roman-6d"/>
      <use x="186.232421875" xlink:href="#BitstreamVeraSans-Roman-65"/>
     </g>
    </g>
   </g>
   <g id="matplotlib.axis_2">
    <g id="ytick_1">
     <g id="line2d_17">
      <defs>
       <path d="M 0 0 
L 4 0 
" id="m78e77d4be4" style="stroke:#000000;stroke-width:0.5;"/>
      </defs>
      <g>
       <use style="stroke:#000000;stroke-width:0.5;" x="162.0" xlink:href="#m78e77d4be4" y="453.6"/>
      </g>
     </g>
     <g id="line2d_18">
      <defs>
       <path d="M 0 0 
L -4 0 
" id="m7be2bb011f" style="stroke:#000000;stroke-width:0.5;"/>
      </defs>
      <g>
       <use style="stroke:#000000;stroke-width:0.5;" x="965.52" xlink:href="#m7be2bb011f" y="453.6"/>
      </g>
     </g>
     <g id="text_8">
      <!-- 0 -->
      <g transform="translate(150.365 456.91125)scale(0.12 -0.12)">
       <use xlink:href="#BitstreamVeraSans-Roman-30"/>
      </g>
     </g>
    </g>
    <g id="ytick_2">
     <g id="line2d_19">
      <g>
       <use style="stroke:#000000;stroke-width:0.5;" x="162.0" xlink:href="#m78e77d4be4" y="403.2"/>
      </g>
     </g>
     <g id="line2d_20">
      <g>
       <use style="stroke:#000000;stroke-width:0.5;" x="965.52" xlink:href="#m7be2bb011f" y="403.2"/>
      </g>
     </g>
     <g id="text_9">
      <!-- 2 -->
      <g transform="translate(150.365 406.51125)scale(0.12 -0.12)">
       <use xlink:href="#BitstreamVeraSans-Roman-32"/>
      </g>
     </g>
    </g>
    <g id="ytick_3">
     <g id="line2d_21">
      <g>
       <use style="stroke:#000000;stroke-width:0.5;" x="162.0" xlink:href="#m78e77d4be4" y="352.8"/>
      </g>
     </g>
     <g id="line2d_22">
      <g>
       <use style="stroke:#000000;stroke-width:0.5;" x="965.52" xlink:href="#m7be2bb011f" y="352.8"/>
      </g>
     </g>
     <g id="text_10">
      <!-- 4 -->
      <g transform="translate(150.365 356.11125)scale(0.12 -0.12)">
       <use xlink:href="#BitstreamVeraSans-Roman-34"/>
      </g>
     </g>
    </g>
    <g id="ytick_4">
     <g id="line2d_23">
      <g>
       <use style="stroke:#000000;stroke-width:0.5;" x="162.0" xlink:href="#m78e77d4be4" y="302.4"/>
      </g>
     </g>
     <g id="line2d_24">
      <g>
       <use style="stroke:#000000;stroke-width:0.5;" x="965.52" xlink:href="#m7be2bb011f" y="302.4"/>
      </g>
     </g>
     <g id="text_11">
      <!-- 6 -->
      <defs>
       <path d="M 33.015625 40.375 
Q 26.375 40.375 22.484375 35.828125 
Q 18.609375 31.296875 18.609375 23.390625 
Q 18.609375 15.53125 22.484375 10.953125 
Q 26.375 6.390625 33.015625 6.390625 
Q 39.65625 6.390625 43.53125 10.953125 
Q 47.40625 15.53125 47.40625 23.390625 
Q 47.40625 31.296875 43.53125 35.828125 
Q 39.65625 40.375 33.015625 40.375 
M 52.59375 71.296875 
L 52.59375 62.3125 
Q 48.875 64.0625 45.09375 64.984375 
Q 41.3125 65.921875 37.59375 65.921875 
Q 27.828125 65.921875 22.671875 59.328125 
Q 17.53125 52.734375 16.796875 39.40625 
Q 19.671875 43.65625 24.015625 45.921875 
Q 28.375 48.1875 33.59375 48.1875 
Q 44.578125 48.1875 50.953125 41.515625 
Q 57.328125 34.859375 57.328125 23.390625 
Q 57.328125 12.15625 50.6875 5.359375 
Q 44.046875 -1.421875 33.015625 -1.421875 
Q 20.359375 -1.421875 13.671875 8.265625 
Q 6.984375 17.96875 6.984375 36.375 
Q 6.984375 53.65625 15.1875 63.9375 
Q 23.390625 74.21875 37.203125 74.21875 
Q 40.921875 74.21875 44.703125 73.484375 
Q 48.484375 72.75 52.59375 71.296875 
" id="BitstreamVeraSans-Roman-36"/>
      </defs>
      <g transform="translate(150.365 305.71125)scale(0.12 -0.12)">
       <use xlink:href="#BitstreamVeraSans-Roman-36"/>
      </g>
     </g>
    </g>
    <g id="ytick_5">
     <g id="line2d_25">
      <g>
       <use style="stroke:#000000;stroke-width:0.5;" x="162.0" xlink:href="#m78e77d4be4" y="252.0"/>
      </g>
     </g>
     <g id="line2d_26">
      <g>
       <use style="stroke:#000000;stroke-width:0.5;" x="965.52" xlink:href="#m7be2bb011f" y="252.0"/>
      </g>
     </g>
     <g id="text_12">
      <!-- 8 -->
      <defs>
       <path d="M 31.78125 34.625 
Q 24.75 34.625 20.71875 30.859375 
Q 16.703125 27.09375 16.703125 20.515625 
Q 16.703125 13.921875 20.71875 10.15625 
Q 24.75 6.390625 31.78125 6.390625 
Q 38.8125 6.390625 42.859375 10.171875 
Q 46.921875 13.96875 46.921875 20.515625 
Q 46.921875 27.09375 42.890625 30.859375 
Q 38.875 34.625 31.78125 34.625 
M 21.921875 38.8125 
Q 15.578125 40.375 12.03125 44.71875 
Q 8.5 49.078125 8.5 55.328125 
Q 8.5 64.0625 14.71875 69.140625 
Q 20.953125 74.21875 31.78125 74.21875 
Q 42.671875 74.21875 48.875 69.140625 
Q 55.078125 64.0625 55.078125 55.328125 
Q 55.078125 49.078125 51.53125 44.71875 
Q 48 40.375 41.703125 38.8125 
Q 48.828125 37.15625 52.796875 32.3125 
Q 56.78125 27.484375 56.78125 20.515625 
Q 56.78125 9.90625 50.3125 4.234375 
Q 43.84375 -1.421875 31.78125 -1.421875 
Q 19.734375 -1.421875 13.25 4.234375 
Q 6.78125 9.90625 6.78125 20.515625 
Q 6.78125 27.484375 10.78125 32.3125 
Q 14.796875 37.15625 21.921875 38.8125 
M 18.3125 54.390625 
Q 18.3125 48.734375 21.84375 45.5625 
Q 25.390625 42.390625 31.78125 42.390625 
Q 38.140625 42.390625 41.71875 45.5625 
Q 45.3125 48.734375 45.3125 54.390625 
Q 45.3125 60.0625 41.71875 63.234375 
Q 38.140625 66.40625 31.78125 66.40625 
Q 25.390625 66.40625 21.84375 63.234375 
Q 18.3125 60.0625 18.3125 54.390625 
" id="BitstreamVeraSans-Roman-38"/>
      </defs>
      <g transform="translate(150.365 255.31125)scale(0.12 -0.12)">
       <use xlink:href="#BitstreamVeraSans-Roman-38"/>
      </g>
     </g>
    </g>
    <g id="ytick_6">
     <g id="line2d_27">
      <g>
       <use style="stroke:#000000;stroke-width:0.5;" x="162.0" xlink:href="#m78e77d4be4" y="201.6"/>
      </g>
     </g>
     <g id="line2d_28">
      <g>
       <use style="stroke:#000000;stroke-width:0.5;" x="965.52" xlink:href="#m7be2bb011f" y="201.6"/>
      </g>
     </g>
     <g id="text_13">
      <!-- 10 -->
      <g transform="translate(142.73 204.91125)scale(0.12 -0.12)">
       <use xlink:href="#BitstreamVeraSans-Roman-31"/>
       <use x="63.623046875" xlink:href="#BitstreamVeraSans-Roman-30"/>
      </g>
     </g>
    </g>
    <g id="ytick_7">
     <g id="line2d_29">
      <g>
       <use style="stroke:#000000;stroke-width:0.5;" x="162.0" xlink:href="#m78e77d4be4" y="151.2"/>
      </g>
     </g>
     <g id="line2d_30">
      <g>
       <use style="stroke:#000000;stroke-width:0.5;" x="965.52" xlink:href="#m7be2bb011f" y="151.2"/>
      </g>
     </g>
     <g id="text_14">
      <!-- 12 -->
      <g transform="translate(142.73 154.51125)scale(0.12 -0.12)">
       <use xlink:href="#BitstreamVeraSans-Roman-31"/>
       <use x="63.623046875" xlink:href="#BitstreamVeraSans-Roman-32"/>
      </g>
     </g>
    </g>
    <g id="ytick_8">
     <g id="line2d_31">
      <g>
       <use style="stroke:#000000;stroke-width:0.5;" x="162.0" xlink:href="#m78e77d4be4" y="100.8"/>
      </g>
     </g>
     <g id="line2d_32">
      <g>
       <use style="stroke:#000000;stroke-width:0.5;" x="965.52" xlink:href="#m7be2bb011f" y="100.8"/>
      </g>
     </g>
     <g id="text_15">
      <!-- 14 -->
      <g transform="translate(142.73 104.11125)scale(0.12 -0.12)">
       <use xlink:href="#BitstreamVeraSans-Roman-31"/>
       <use x="63.623046875" xlink:href="#BitstreamVeraSans-Roman-34"/>
      </g>
     </g>
    </g>
    <g id="ytick_9">
     <g id="line2d_33">
      <g>
       <use style="stroke:#000000;stroke-width:0.5;" x="162.0" xlink:href="#m78e77d4be4" y="50.4"/>
      </g>
     </g>
     <g id="line2d_34">
      <g>
       <use style="stroke:#000000;stroke-width:0.5;" x="965.52" xlink:href="#m7be2bb011f" y="50.4"/>
      </g>
     </g>
     <g id="text_16">
      <!-- 16 -->
      <g transform="translate(142.73 53.71125)scale(0.12 -0.12)">
       <use xlink:href="#BitstreamVeraSans-Roman-31"/>
       <use x="63.623046875" xlink:href="#BitstreamVeraSans-Roman-36"/>
      </g>
     </g>
    </g>
    <g id="text_17">
     <!-- #neighbors -->
     <defs>
      <path d="M 51.125 44 
L 36.921875 44 
L 32.8125 27.6875 
L 47.125 27.6875 
z
M 43.796875 71.78125 
L 38.71875 51.515625 
L 52.984375 51.515625 
L 58.109375 71.78125 
L 65.921875 71.78125 
L 60.890625 51.515625 
L 76.125 51.515625 
L 76.125 44 
L 58.984375 44 
L 54.984375 27.6875 
L 70.515625 27.6875 
L 70.515625 20.21875 
L 53.078125 20.21875 
L 48 0 
L 40.1875 0 
L 45.21875 20.21875 
L 30.90625 20.21875 
L 25.875 0 
L 18.015625 0 
L 23.09375 20.21875 
L 7.71875 20.21875 
L 7.71875 27.6875 
L 24.90625 27.6875 
L 29 44 
L 13.28125 44 
L 13.28125 51.515625 
L 30.90625 51.515625 
L 35.890625 71.78125 
z
" id="BitstreamVeraSans-Roman-23"/>
      <path d="M 54.890625 33.015625 
L 54.890625 0 
L 45.90625 0 
L 45.90625 32.71875 
Q 45.90625 40.484375 42.875 44.328125 
Q 39.84375 48.1875 33.796875 48.1875 
Q 26.515625 48.1875 22.3125 43.546875 
Q 18.109375 38.921875 18.109375 30.90625 
L 18.109375 0 
L 9.078125 0 
L 9.078125 54.6875 
L 18.109375 54.6875 
L 18.109375 46.1875 
Q 21.34375 51.125 25.703125 53.5625 
Q 30.078125 56 35.796875 56 
Q 45.21875 56 50.046875 50.171875 
Q 54.890625 44.34375 54.890625 33.015625 
" id="BitstreamVeraSans-Roman-6e"/>
      <path d="M 30.609375 48.390625 
Q 23.390625 48.390625 19.1875 42.75 
Q 14.984375 37.109375 14.984375 27.296875 
Q 14.984375 17.484375 19.15625 11.84375 
Q 23.34375 6.203125 30.609375 6.203125 
Q 37.796875 6.203125 41.984375 11.859375 
Q 46.1875 17.53125 46.1875 27.296875 
Q 46.1875 37.015625 41.984375 42.703125 
Q 37.796875 48.390625 30.609375 48.390625 
M 30.609375 56 
Q 42.328125 56 49.015625 48.375 
Q 55.71875 40.765625 55.71875 27.296875 
Q 55.71875 13.875 49.015625 6.21875 
Q 42.328125 -1.421875 30.609375 -1.421875 
Q 18.84375 -1.421875 12.171875 6.21875 
Q 5.515625 13.875 5.515625 27.296875 
Q 5.515625 40.765625 12.171875 48.375 
Q 18.84375 56 30.609375 56 
" id="BitstreamVeraSans-Roman-6f"/>
      <path d="M 54.890625 33.015625 
L 54.890625 0 
L 45.90625 0 
L 45.90625 32.71875 
Q 45.90625 40.484375 42.875 44.328125 
Q 39.84375 48.1875 33.796875 48.1875 
Q 26.515625 48.1875 22.3125 43.546875 
Q 18.109375 38.921875 18.109375 30.90625 
L 18.109375 0 
L 9.078125 0 
L 9.078125 75.984375 
L 18.109375 75.984375 
L 18.109375 46.1875 
Q 21.34375 51.125 25.703125 53.5625 
Q 30.078125 56 35.796875 56 
Q 45.21875 56 50.046875 50.171875 
Q 54.890625 44.34375 54.890625 33.015625 
" id="BitstreamVeraSans-Roman-68"/>
      <path d="M 45.40625 27.984375 
Q 45.40625 37.75 41.375 43.109375 
Q 37.359375 48.484375 30.078125 48.484375 
Q 22.859375 48.484375 18.828125 43.109375 
Q 14.796875 37.75 14.796875 27.984375 
Q 14.796875 18.265625 18.828125 12.890625 
Q 22.859375 7.515625 30.078125 7.515625 
Q 37.359375 7.515625 41.375 12.890625 
Q 45.40625 18.265625 45.40625 27.984375 
M 54.390625 6.78125 
Q 54.390625 -7.171875 48.1875 -13.984375 
Q 42 -20.796875 29.203125 -20.796875 
Q 24.46875 -20.796875 20.265625 -20.09375 
Q 16.0625 -19.390625 12.109375 -17.921875 
L 12.109375 -9.1875 
Q 16.0625 -11.328125 19.921875 -12.34375 
Q 23.78125 -13.375 27.78125 -13.375 
Q 36.625 -13.375 41.015625 -8.765625 
Q 45.40625 -4.15625 45.40625 5.171875 
L 45.40625 9.625 
Q 42.625 4.78125 38.28125 2.390625 
Q 33.9375 0 27.875 0 
Q 17.828125 0 11.671875 7.65625 
Q 5.515625 15.328125 5.515625 27.984375 
Q 5.515625 40.671875 11.671875 48.328125 
Q 17.828125 56 27.875 56 
Q 33.9375 56 38.28125 53.609375 
Q 42.625 51.21875 45.40625 46.390625 
L 45.40625 54.6875 
L 54.390625 54.6875 
z
" id="BitstreamVeraSans-Roman-67"/>
      <path d="M 41.109375 46.296875 
Q 39.59375 47.171875 37.8125 47.578125 
Q 36.03125 48 33.890625 48 
Q 26.265625 48 22.1875 43.046875 
Q 18.109375 38.09375 18.109375 28.8125 
L 18.109375 0 
L 9.078125 0 
L 9.078125 54.6875 
L 18.109375 54.6875 
L 18.109375 46.1875 
Q 20.953125 51.171875 25.484375 53.578125 
Q 30.03125 56 36.53125 56 
Q 37.453125 56 38.578125 55.875 
Q 39.703125 55.765625 41.0625 55.515625 
z
" id="BitstreamVeraSans-Roman-72"/>
      <path d="M 44.28125 53.078125 
L 44.28125 44.578125 
Q 40.484375 46.53125 36.375 47.5 
Q 32.28125 48.484375 27.875 48.484375 
Q 21.1875 48.484375 17.84375 46.4375 
Q 14.5 44.390625 14.5 40.28125 
Q 14.5 37.15625 16.890625 35.375 
Q 19.28125 33.59375 26.515625 31.984375 
L 29.59375 31.296875 
Q 39.15625 29.25 43.1875 25.515625 
Q 47.21875 21.78125 47.21875 15.09375 
Q 47.21875 7.46875 41.1875 3.015625 
Q 35.15625 -1.421875 24.609375 -1.421875 
Q 20.21875 -1.421875 15.453125 -0.5625 
Q 10.6875 0.296875 5.421875 2 
L 5.421875 11.28125 
Q 10.40625 8.6875 15.234375 7.390625 
Q 20.0625 6.109375 24.8125 6.109375 
Q 31.15625 6.109375 34.5625 8.28125 
Q 37.984375 10.453125 37.984375 14.40625 
Q 37.984375 18.0625 35.515625 20.015625 
Q 33.0625 21.96875 24.703125 23.78125 
L 21.578125 24.515625 
Q 13.234375 26.265625 9.515625 29.90625 
Q 5.8125 33.546875 5.8125 39.890625 
Q 5.8125 47.609375 11.28125 51.796875 
Q 16.75 56 26.8125 56 
Q 31.78125 56 36.171875 55.265625 
Q 40.578125 54.546875 44.28125 53.078125 
" id="BitstreamVeraSans-Roman-73"/>
      <path d="M 48.6875 27.296875 
Q 48.6875 37.203125 44.609375 42.84375 
Q 40.53125 48.484375 33.40625 48.484375 
Q 26.265625 48.484375 22.1875 42.84375 
Q 18.109375 37.203125 18.109375 27.296875 
Q 18.109375 17.390625 22.1875 11.75 
Q 26.265625 6.109375 33.40625 6.109375 
Q 40.53125 6.109375 44.609375 11.75 
Q 48.6875 17.390625 48.6875 27.296875 
M 18.109375 46.390625 
Q 20.953125 51.265625 25.265625 53.625 
Q 29.59375 56 35.59375 56 
Q 45.5625 56 51.78125 48.09375 
Q 58.015625 40.1875 58.015625 27.296875 
Q 58.015625 14.40625 51.78125 6.484375 
Q 45.5625 -1.421875 35.59375 -1.421875 
Q 29.59375 -1.421875 25.265625 0.953125 
Q 20.953125 3.328125 18.109375 8.203125 
L 18.109375 0 
L 9.078125 0 
L 9.078125 75.984375 
L 18.109375 75.984375 
z
" id="BitstreamVeraSans-Roman-62"/>
     </defs>
     <g transform="translate(135.234375 286.873125)rotate(-90.0)scale(0.12 -0.12)">
      <use xlink:href="#BitstreamVeraSans-Roman-23"/>
      <use x="83.7890625" xlink:href="#BitstreamVeraSans-Roman-6e"/>
      <use x="147.16796875" xlink:href="#BitstreamVeraSans-Roman-65"/>
      <use x="208.69140625" xlink:href="#BitstreamVeraSans-Roman-69"/>
      <use x="236.474609375" xlink:href="#BitstreamVeraSans-Roman-67"/>
      <use x="299.951171875" xlink:href="#BitstreamVeraSans-Roman-68"/>
      <use x="363.330078125" xlink:href="#BitstreamVeraSans-Roman-62"/>
      <use x="426.806640625" xlink:href="#BitstreamVeraSans-Roman-6f"/>
      <use x="487.98828125" xlink:href="#BitstreamVeraSans-Roman-72"/>
      <use x="529.1015625" xlink:href="#BitstreamVeraSans-Roman-73"/>
     </g>
    </g>
   </g>
   <g id="text_18">
    <!-- Separation: #neighbors -->
    <defs>
     <path id="BitstreamVeraSans-Roman-20"/>
     <path d="M 11.71875 12.40625 
L 22.015625 12.40625 
L 22.015625 0 
L 11.71875 0 
z
M 11.71875 51.703125 
L 22.015625 51.703125 
L 22.015625 39.3125 
L 11.71875 39.3125 
z
" id="BitstreamVeraSans-Roman-3a"/>
     <path d="M 18.109375 8.203125 
L 18.109375 -20.796875 
L 9.078125 -20.796875 
L 9.078125 54.6875 
L 18.109375 54.6875 
L 18.109375 46.390625 
Q 20.953125 51.265625 25.265625 53.625 
Q 29.59375 56 35.59375 56 
Q 45.5625 56 51.78125 48.09375 
Q 58.015625 40.1875 58.015625 27.296875 
Q 58.015625 14.40625 51.78125 6.484375 
Q 45.5625 -1.421875 35.59375 -1.421875 
Q 29.59375 -1.421875 25.265625 0.953125 
Q 20.953125 3.328125 18.109375 8.203125 
M 48.6875 27.296875 
Q 48.6875 37.203125 44.609375 42.84375 
Q 40.53125 48.484375 33.40625 48.484375 
Q 26.265625 48.484375 22.1875 42.84375 
Q 18.109375 37.203125 18.109375 27.296875 
Q 18.109375 17.390625 22.1875 11.75 
Q 26.265625 6.109375 33.40625 6.109375 
Q 40.53125 6.109375 44.609375 11.75 
Q 48.6875 17.390625 48.6875 27.296875 
" id="BitstreamVeraSans-Roman-70"/>
     <path d="M 18.3125 70.21875 
L 18.3125 54.6875 
L 36.8125 54.6875 
L 36.8125 47.703125 
L 18.3125 47.703125 
L 18.3125 18.015625 
Q 18.3125 11.328125 20.140625 9.421875 
Q 21.96875 7.515625 27.59375 7.515625 
L 36.8125 7.515625 
L 36.8125 0 
L 27.59375 0 
Q 17.1875 0 13.234375 3.875 
Q 9.28125 7.765625 9.28125 18.015625 
L 9.28125 47.703125 
L 2.6875 47.703125 
L 2.6875 54.6875 
L 9.28125 54.6875 
L 9.28125 70.21875 
z
" id="BitstreamVeraSans-Roman-74"/>
     <path d="M 34.28125 27.484375 
Q 23.390625 27.484375 19.1875 25 
Q 14.984375 22.515625 14.984375 16.5 
Q 14.984375 11.71875 18.140625 8.90625 
Q 21.296875 6.109375 26.703125 6.109375 
Q 34.1875 6.109375 38.703125 11.40625 
Q 43.21875 16.703125 43.21875 25.484375 
L 43.21875 27.484375 
z
M 52.203125 31.203125 
L 52.203125 0 
L 43.21875 0 
L 43.21875 8.296875 
Q 40.140625 3.328125 35.546875 0.953125 
Q 30.953125 -1.421875 24.3125 -1.421875 
Q 15.921875 -1.421875 10.953125 3.296875 
Q 6 8.015625 6 15.921875 
Q 6 25.140625 12.171875 29.828125 
Q 18.359375 34.515625 30.609375 34.515625 
L 43.21875 34.515625 
L 43.21875 35.40625 
Q 43.21875 41.609375 39.140625 45 
Q 35.0625 48.390625 27.6875 48.390625 
Q 23 48.390625 18.546875 47.265625 
Q 14.109375 46.140625 10.015625 43.890625 
L 10.015625 52.203125 
Q 14.9375 54.109375 19.578125 55.046875 
Q 24.21875 56 28.609375 56 
Q 40.484375 56 46.34375 49.84375 
Q 52.203125 43.703125 52.203125 31.203125 
" id="BitstreamVeraSans-Roman-61"/>
     <path d="M 53.515625 70.515625 
L 53.515625 60.890625 
Q 47.90625 63.578125 42.921875 64.890625 
Q 37.9375 66.21875 33.296875 66.21875 
Q 25.25 66.21875 20.875 63.09375 
Q 16.5 59.96875 16.5 54.203125 
Q 16.5 49.359375 19.40625 46.890625 
Q 22.3125 44.4375 30.421875 42.921875 
L 36.375 41.703125 
Q 47.40625 39.59375 52.65625 34.296875 
Q 57.90625 29 57.90625 20.125 
Q 57.90625 9.515625 50.796875 4.046875 
Q 43.703125 -1.421875 29.984375 -1.421875 
Q 24.8125 -1.421875 18.96875 -0.25 
Q 13.140625 0.921875 6.890625 3.21875 
L 6.890625 13.375 
Q 12.890625 10.015625 18.65625 8.296875 
Q 24.421875 6.59375 29.984375 6.59375 
Q 38.421875 6.59375 43.015625 9.90625 
Q 47.609375 13.234375 47.609375 19.390625 
Q 47.609375 24.75 44.3125 27.78125 
Q 41.015625 30.8125 33.5 32.328125 
L 27.484375 33.5 
Q 16.453125 35.6875 11.515625 40.375 
Q 6.59375 45.0625 6.59375 53.421875 
Q 6.59375 63.09375 13.40625 68.65625 
Q 20.21875 74.21875 32.171875 74.21875 
Q 37.3125 74.21875 42.625 73.28125 
Q 47.953125 72.359375 53.515625 70.515625 
" id="BitstreamVeraSans-Roman-53"/>
    </defs>
    <g transform="translate(478.05075 45.4)scale(0.144 -0.144)">
     <use xlink:href="#BitstreamVeraSans-Roman-53"/>
     <use x="63.4765625" xlink:href="#BitstreamVeraSans-Roman-65"/>
     <use x="125.0" xlink:href="#BitstreamVeraSans-Roman-70"/>
     <use x="188.4765625" xlink:href="#BitstreamVeraSans-Roman-61"/>
     <use x="249.755859375" xlink:href="#BitstreamVeraSans-Roman-72"/>
     <use x="290.869140625" xlink:href="#BitstreamVeraSans-Roman-61"/>
     <use x="352.1484375" xlink:href="#BitstreamVeraSans-Roman-74"/>
     <use x="391.357421875" xlink:href="#BitstreamVeraSans-Roman-69"/>
     <use x="419.140625" xlink:href="#BitstreamVeraSans-Roman-6f"/>
     <use x="480.322265625" xlink:href="#BitstreamVeraSans-Roman-6e"/>
     <use x="543.701171875" xlink:href="#BitstreamVeraSans-Roman-3a"/>
     <use x="577.392578125" xlink:href="#BitstreamVeraSans-Roman-20"/>
     <use x="609.1796875" xlink:href="#BitstreamVeraSans-Roman-23"/>
     <use x="692.96875" xlink:href="#BitstreamVeraSans-Roman-6e"/>
     <use x="756.34765625" xlink:href="#BitstreamVeraSans-Roman-65"/>
     <use x="817.87109375" xlink:href="#BitstreamVeraSans-Roman-69"/>
     <use x="845.654296875" xlink:href="#BitstreamVeraSans-Roman-67"/>
     <use x="909.130859375" xlink:href="#BitstreamVeraSans-Roman-68"/>
     <use x="972.509765625" xlink:href="#BitstreamVeraSans-Roman-62"/>
     <use x="1035.98632812" xlink:href="#BitstreamVeraSans-Roman-6f"/>
     <use x="1097.16796875" xlink:href="#BitstreamVeraSans-Roman-72"/>
     <use x="1138.28125" xlink:href="#BitstreamVeraSans-Roman-73"/>
    </g>
   </g>
   <g id="legend_1">
    <g id="patch_7">
     <path d="M 972.72 138.402 
L 1065.024 138.402 
L 1065.024 49.536 
L 972.72 49.536 
z
" style="fill:#ffffff;stroke:#000000;stroke-linejoin:miter;"/>
    </g>
    <g id="line2d_35">
     <path d="M 982.8 61.19775 
L 1002.96 61.19775 
" style="fill:none;stroke:#0000ff;stroke-linecap:square;"/>
    </g>
    <g id="line2d_36"/>
    <g id="text_19">
     <!-- $S_w=1$ -->
     <defs>
      <path d="M 9.28125 0 
L 9.28125 3.515625 
Q 21.78125 3.515625 21.78125 6.6875 
L 21.78125 59.1875 
Q 16.609375 56.6875 8.6875 56.6875 
L 8.6875 60.203125 
Q 20.953125 60.203125 27.203125 66.609375 
L 28.609375 66.609375 
Q 28.953125 66.609375 29.265625 66.328125 
Q 29.59375 66.0625 29.59375 65.71875 
L 29.59375 6.6875 
Q 29.59375 3.515625 42.09375 3.515625 
L 42.09375 0 
z
" id="Cmr10-31"/>
      <path d="M 6.109375 -2.203125 
Q 5.8125 -2.203125 5.5625 -1.859375 
Q 5.328125 -1.515625 5.328125 -1.21875 
L 11.078125 22.125 
Q 11.28125 22.703125 11.921875 22.703125 
L 13.09375 22.703125 
Q 13.484375 22.703125 13.703125 22.40625 
Q 13.921875 22.125 13.921875 21.6875 
Q 13.09375 18.265625 13.09375 15.578125 
Q 13.09375 8.34375 18.0625 4.828125 
Q 23.046875 1.3125 30.609375 1.3125 
Q 33.890625 1.3125 37.0625 2.921875 
Q 40.234375 4.546875 42.59375 7.125 
Q 44.96875 9.71875 46.375 12.90625 
Q 47.796875 16.109375 47.796875 19.390625 
Q 47.796875 22.90625 45.9375 25.65625 
Q 44.09375 28.421875 40.828125 29.203125 
L 28.609375 32.421875 
Q 23.6875 33.734375 20.75 37.71875 
Q 17.828125 41.703125 17.828125 46.6875 
Q 17.828125 52.6875 21.390625 58.25 
Q 24.953125 63.8125 30.6875 67.15625 
Q 36.421875 70.515625 42.390625 70.515625 
Q 46.96875 70.515625 50.796875 68.828125 
Q 54.640625 67.140625 56.6875 63.484375 
L 62.40625 70.21875 
Q 62.984375 70.515625 63.09375 70.515625 
L 63.71875 70.515625 
Q 64.109375 70.515625 64.34375 70.171875 
Q 64.59375 69.828125 64.59375 69.484375 
L 58.796875 46.296875 
Q 58.640625 45.609375 58.015625 45.609375 
L 56.78125 45.609375 
Q 55.90625 45.609375 55.90625 46.6875 
Q 56.390625 49.859375 56.390625 52.203125 
Q 56.390625 56.84375 54.796875 60.28125 
Q 53.21875 63.71875 50.015625 65.5 
Q 46.828125 67.28125 42.09375 67.28125 
Q 38.09375 67.28125 34.125 64.984375 
Q 30.171875 62.703125 27.734375 58.890625 
Q 25.296875 55.078125 25.296875 50.984375 
Q 25.296875 47.75 27.171875 45.265625 
Q 29.046875 42.78125 32.171875 41.890625 
L 44.390625 38.71875 
Q 47.703125 37.84375 50.171875 35.625 
Q 52.640625 33.40625 53.90625 30.34375 
Q 55.171875 27.296875 55.171875 23.6875 
Q 55.171875 18.953125 53.171875 14.328125 
Q 51.171875 9.71875 47.578125 5.90625 
Q 44 2.09375 39.453125 -0.046875 
Q 34.90625 -2.203125 30.171875 -2.203125 
Q 18.265625 -2.203125 13.09375 4.78125 
L 7.515625 -1.90625 
Q 6.9375 -2.203125 6.78125 -2.203125 
z
" id="Cmmi10-53"/>
      <path d="M 10.796875 11.625 
Q 10.796875 13.71875 11.359375 16.453125 
Q 11.921875 19.1875 12.59375 21.3125 
Q 13.28125 23.4375 14.90625 27.828125 
Q 16.546875 32.234375 16.703125 32.625 
Q 18.015625 36.28125 18.015625 38.625 
Q 18.015625 41.609375 15.828125 41.609375 
Q 11.859375 41.609375 9.296875 37.53125 
Q 6.734375 33.453125 5.515625 28.421875 
Q 5.328125 27.78125 4.6875 27.78125 
L 3.515625 27.78125 
Q 2.6875 27.78125 2.6875 28.71875 
L 2.6875 29 
Q 4.296875 34.96875 7.609375 39.578125 
Q 10.9375 44.1875 16.015625 44.1875 
Q 19.578125 44.1875 22.046875 41.84375 
Q 24.515625 39.5 24.515625 35.890625 
Q 24.515625 34.03125 23.6875 31.984375 
Q 22.515625 28.953125 20.921875 24.703125 
Q 19.34375 20.453125 18.453125 16.984375 
Q 17.578125 13.53125 17.578125 10.296875 
Q 17.578125 6.390625 19.625 3.953125 
Q 21.6875 1.515625 25.59375 1.515625 
Q 30.90625 1.515625 34.421875 9.625 
Q 34.28125 10.203125 34.28125 11.28125 
Q 34.28125 13.96875 35.109375 17.390625 
L 40.71875 39.890625 
Q 41.0625 41.21875 42.28125 42.15625 
Q 43.5 43.109375 44.921875 43.109375 
Q 46.09375 43.109375 47 42.328125 
Q 47.90625 41.546875 47.90625 40.28125 
Q 47.90625 39.703125 47.796875 39.5 
L 42.1875 17.1875 
Q 41.21875 13.1875 41.21875 10.015625 
Q 41.21875 6.25 42.9375 3.875 
Q 44.671875 1.515625 48.390625 1.515625 
Q 54.828125 1.515625 58.984375 10.015625 
Q 60.546875 13.03125 62.46875 18.9375 
Q 64.40625 24.859375 64.40625 27.984375 
Q 64.40625 30.859375 63.46875 32.546875 
Q 62.546875 34.234375 60.90625 36.1875 
Q 59.28125 38.140625 59.28125 39.109375 
Q 59.28125 41.015625 60.90625 42.640625 
Q 62.546875 44.28125 64.5 44.28125 
Q 66.890625 44.28125 67.9375 42.078125 
Q 69 39.890625 69 37.109375 
Q 69 33.734375 67.875 28.53125 
Q 66.75 23.34375 65.03125 18.09375 
Q 63.328125 12.84375 61.8125 9.71875 
Q 56.34375 -1.125 48.1875 -1.125 
Q 44 -1.125 40.53125 0.484375 
Q 37.0625 2.09375 35.40625 5.609375 
Q 33.796875 2.734375 31.171875 0.796875 
Q 28.5625 -1.125 25.390625 -1.125 
Q 18.796875 -1.125 14.796875 2.015625 
Q 10.796875 5.171875 10.796875 11.625 
" id="Cmmi10-77"/>
      <path d="M 7.515625 13.28125 
Q 6.6875 13.28125 6.140625 13.90625 
Q 5.609375 14.546875 5.609375 15.28125 
Q 5.609375 16.109375 6.140625 16.6875 
Q 6.6875 17.28125 7.515625 17.28125 
L 70.3125 17.28125 
Q 71.046875 17.28125 71.578125 16.6875 
Q 72.125 16.109375 72.125 15.28125 
Q 72.125 14.546875 71.578125 13.90625 
Q 71.046875 13.28125 70.3125 13.28125 
z
M 7.515625 32.71875 
Q 6.6875 32.71875 6.140625 33.296875 
Q 5.609375 33.890625 5.609375 34.71875 
Q 5.609375 35.453125 6.140625 36.078125 
Q 6.6875 36.71875 7.515625 36.71875 
L 70.3125 36.71875 
Q 71.046875 36.71875 71.578125 36.078125 
Q 72.125 35.453125 72.125 34.71875 
Q 72.125 33.890625 71.578125 33.296875 
Q 71.046875 32.71875 70.3125 32.71875 
z
" id="Cmr10-3d"/>
     </defs>
     <g transform="translate(1018.8 66.23775)scale(0.144 -0.144)">
      <use transform="translate(0.0 0.484375)" xlink:href="#Cmmi10-53"/>
      <use transform="translate(61.279296875 -16.521875)scale(0.7)" xlink:href="#Cmmi10-77"/>
      <use transform="translate(135.254296875 0.484375)" xlink:href="#Cmr10-3d"/>
      <use transform="translate(230.4984375 0.484375)" xlink:href="#Cmr10-31"/>
     </g>
    </g>
    <g id="line2d_37">
     <path d="M 982.8 82.33425 
L 1002.96 82.33425 
" style="fill:none;stroke:#008000;stroke-linecap:square;"/>
    </g>
    <g id="line2d_38"/>
    <g id="text_20">
     <!-- $S_w=3$ -->
     <defs>
      <path d="M 9.515625 7.71875 
Q 11.859375 4.296875 15.8125 2.640625 
Q 19.78125 0.984375 24.3125 0.984375 
Q 30.125 0.984375 32.5625 5.9375 
Q 35.015625 10.890625 35.015625 17.1875 
Q 35.015625 20.015625 34.5 22.84375 
Q 33.984375 25.6875 32.765625 28.125 
Q 31.546875 30.5625 29.421875 32.03125 
Q 27.296875 33.5 24.21875 33.5 
L 17.578125 33.5 
Q 16.703125 33.5 16.703125 34.421875 
L 16.703125 35.296875 
Q 16.703125 36.078125 17.578125 36.078125 
L 23.09375 36.53125 
Q 26.609375 36.53125 28.921875 39.15625 
Q 31.25 41.796875 32.328125 45.578125 
Q 33.40625 49.359375 33.40625 52.78125 
Q 33.40625 57.5625 31.15625 60.640625 
Q 28.90625 63.71875 24.3125 63.71875 
Q 20.515625 63.71875 17.046875 62.28125 
Q 13.578125 60.84375 11.53125 57.90625 
Q 11.71875 57.953125 11.859375 57.984375 
Q 12.015625 58.015625 12.203125 58.015625 
Q 14.453125 58.015625 15.96875 56.453125 
Q 17.484375 54.890625 17.484375 52.6875 
Q 17.484375 50.53125 15.96875 48.96875 
Q 14.453125 47.40625 12.203125 47.40625 
Q 10.015625 47.40625 8.453125 48.96875 
Q 6.890625 50.53125 6.890625 52.6875 
Q 6.890625 56.984375 9.46875 60.15625 
Q 12.0625 63.328125 16.140625 64.96875 
Q 20.21875 66.609375 24.3125 66.609375 
Q 27.34375 66.609375 30.703125 65.703125 
Q 34.078125 64.796875 36.8125 63.109375 
Q 39.546875 61.421875 41.28125 58.78125 
Q 43.015625 56.15625 43.015625 52.78125 
Q 43.015625 48.578125 41.140625 45.015625 
Q 39.265625 41.453125 35.984375 38.859375 
Q 32.71875 36.28125 28.8125 35.015625 
Q 33.15625 34.1875 37.0625 31.734375 
Q 40.96875 29.296875 43.328125 25.484375 
Q 45.703125 21.6875 45.703125 17.28125 
Q 45.703125 11.765625 42.671875 7.296875 
Q 39.65625 2.828125 34.71875 0.3125 
Q 29.78125 -2.203125 24.3125 -2.203125 
Q 19.625 -2.203125 14.90625 -0.40625 
Q 10.203125 1.375 7.203125 4.9375 
Q 4.203125 8.5 4.203125 13.484375 
Q 4.203125 15.96875 5.859375 17.625 
Q 7.515625 19.28125 10.015625 19.28125 
Q 11.625 19.28125 12.96875 18.53125 
Q 14.3125 17.78125 15.0625 16.40625 
Q 15.828125 15.046875 15.828125 13.484375 
Q 15.828125 11.03125 14.109375 9.375 
Q 12.40625 7.71875 10.015625 7.71875 
z
" id="Cmr10-33"/>
     </defs>
     <g transform="translate(1018.8 87.37425)scale(0.144 -0.144)">
      <use transform="translate(0.0 0.484375)" xlink:href="#Cmmi10-53"/>
      <use transform="translate(61.279296875 -16.521875)scale(0.7)" xlink:href="#Cmmi10-77"/>
      <use transform="translate(135.254296875 0.484375)" xlink:href="#Cmr10-3d"/>
      <use transform="translate(230.4984375 0.484375)" xlink:href="#Cmr10-33"/>
     </g>
    </g>
    <g id="line2d_39">
     <path d="M 982.8 103.47075 
L 1002.96 103.47075 
" style="fill:none;stroke:#ff0000;stroke-linecap:square;"/>
    </g>
    <g id="line2d_40"/>
    <g id="text_21">
     <!-- $S_w=5$ -->
     <defs>
      <path d="M 8.6875 11.375 
Q 9.71875 8.453125 11.84375 6.046875 
Q 13.96875 3.65625 16.875 2.3125 
Q 19.78125 0.984375 22.90625 0.984375 
Q 30.125 0.984375 32.859375 6.59375 
Q 35.59375 12.203125 35.59375 20.21875 
Q 35.59375 23.6875 35.46875 26.046875 
Q 35.359375 28.421875 34.8125 30.609375 
Q 33.890625 34.125 31.5625 36.765625 
Q 29.25 39.40625 25.875 39.40625 
Q 22.515625 39.40625 20.09375 38.375 
Q 17.671875 37.359375 16.15625 35.984375 
Q 14.65625 34.625 13.484375 33.109375 
Q 12.3125 31.59375 12.015625 31.5 
L 10.890625 31.5 
Q 10.640625 31.5 10.265625 31.8125 
Q 9.90625 32.125 9.90625 32.421875 
L 9.90625 65.828125 
Q 9.90625 66.0625 10.21875 66.328125 
Q 10.546875 66.609375 10.890625 66.609375 
L 11.1875 66.609375 
Q 17.921875 63.375 25.484375 63.375 
Q 32.90625 63.375 39.796875 66.609375 
L 40.09375 66.609375 
Q 40.4375 66.609375 40.71875 66.359375 
Q 41.015625 66.109375 41.015625 65.828125 
L 41.015625 64.890625 
Q 41.015625 64.40625 40.828125 64.40625 
Q 37.40625 59.859375 32.25 57.3125 
Q 27.09375 54.78125 21.578125 54.78125 
Q 17.578125 54.78125 13.375 55.90625 
L 13.375 37.015625 
Q 16.703125 39.703125 19.3125 40.84375 
Q 21.921875 42 25.984375 42 
Q 31.5 42 35.859375 38.8125 
Q 40.234375 35.640625 42.578125 30.53125 
Q 44.921875 25.4375 44.921875 20.125 
Q 44.921875 14.109375 41.96875 8.984375 
Q 39.015625 3.859375 33.9375 0.828125 
Q 28.859375 -2.203125 22.90625 -2.203125 
Q 17.96875 -2.203125 13.84375 0.328125 
Q 9.71875 2.875 7.34375 7.171875 
Q 4.984375 11.46875 4.984375 16.3125 
Q 4.984375 18.5625 6.4375 19.96875 
Q 7.90625 21.390625 10.109375 21.390625 
Q 12.3125 21.390625 13.796875 19.9375 
Q 15.28125 18.5 15.28125 16.3125 
Q 15.28125 14.15625 13.796875 12.671875 
Q 12.3125 11.1875 10.109375 11.1875 
Q 9.765625 11.1875 9.328125 11.25 
Q 8.890625 11.328125 8.6875 11.375 
" id="Cmr10-35"/>
     </defs>
     <g transform="translate(1018.8 108.51075)scale(0.144 -0.144)">
      <use transform="translate(0.0 0.484375)" xlink:href="#Cmmi10-53"/>
      <use transform="translate(61.279296875 -16.521875)scale(0.7)" xlink:href="#Cmmi10-77"/>
      <use transform="translate(135.254296875 0.484375)" xlink:href="#Cmr10-3d"/>
      <use transform="translate(230.4984375 0.484375)" xlink:href="#Cmr10-35"/>
     </g>
    </g>
    <g id="line2d_41">
     <path d="M 982.8 124.60725 
L 1002.96 124.60725 
" style="fill:none;stroke:#00bfbf;stroke-linecap:square;"/>
    </g>
    <g id="line2d_42"/>
    <g id="text_22">
     <!-- $S_w=7$ -->
     <defs>
      <path d="M 17.390625 2.59375 
Q 17.390625 8.15625 18.359375 13.46875 
Q 19.34375 18.796875 21.21875 24 
Q 23.09375 29.203125 25.75 34.203125 
Q 28.421875 39.203125 31.59375 43.609375 
L 40.71875 56.296875 
L 29.296875 56.296875 
Q 11.53125 56.296875 10.984375 55.8125 
Q 9.671875 54.203125 8.5 46.578125 
L 5.609375 46.578125 
L 8.890625 67.578125 
L 11.8125 67.578125 
L 11.8125 67.28125 
Q 11.8125 65.484375 17.921875 64.9375 
Q 24.03125 64.40625 29.890625 64.40625 
L 48.484375 64.40625 
L 48.484375 61.8125 
Q 48.484375 61.71875 48.453125 61.671875 
Q 48.4375 61.625 48.390625 61.53125 
L 34.625 42.1875 
Q 29.546875 34.671875 28.265625 25.484375 
Q 27 16.3125 27 2.59375 
Q 27 0.640625 25.578125 -0.78125 
Q 24.171875 -2.203125 22.21875 -2.203125 
Q 20.21875 -2.203125 18.796875 -0.78125 
Q 17.390625 0.640625 17.390625 2.59375 
" id="Cmr10-37"/>
     </defs>
     <g transform="translate(1018.8 129.64725)scale(0.144 -0.144)">
      <use transform="translate(0.0 0.484375)" xlink:href="#Cmmi10-53"/>
      <use transform="translate(61.279296875 -16.521875)scale(0.7)" xlink:href="#Cmmi10-77"/>
      <use transform="translate(135.254296875 0.484375)" xlink:href="#Cmr10-3d"/>
      <use transform="translate(230.4984375 0.484375)" xlink:href="#Cmr10-37"/>
     </g>
    </g>
   </g>
  </g>
 </g>
 <defs>
  <clipPath id="pc6c95c4f21">
   <rect height="403.2" width="803.52" x="162.0" y="50.4"/>
  </clipPath>
 </defs>
</svg>
