<?xml version="1.0" encoding="utf-8" standalone="no"?>
<!DOCTYPE svg PUBLIC "-//W3C//DTD SVG 1.1//EN"
  "http://www.w3.org/Graphics/SVG/1.1/DTD/svg11.dtd">
<!-- Created with matplotlib (http://matplotlib.org/) -->
<svg height="504pt" version="1.1" viewBox="0 0 1296 504" width="1296pt" xmlns="http://www.w3.org/2000/svg" xmlns:xlink="http://www.w3.org/1999/xlink">
 <defs>
  <style type="text/css">
*{stroke-linecap:butt;stroke-linejoin:round;stroke-miterlimit:100000;}
  </style>
 </defs>
 <g id="figure_1">
  <g id="patch_1">
   <path d="M 0 504 
L 1296 504 
L 1296 0 
L 0 0 
z
" style="fill:#ffffff;"/>
  </g>
  <g id="axes_1">
   <g id="patch_2">
    <path d="M 162 453.6 
L 965.52 453.6 
L 965.52 50.4 
L 162 50.4 
z
" style="fill:#ffffff;"/>
   </g>
   <g id="line2d_1">
    <path clip-path="url(#p3ca5123c03)" d="M 162 129.26592 
L 163.60704 200.22912 
L 165.21408 256.8384 
L 168.42816 383.60448 
L 170.0352 415.53792 
L 171.64224 400.86144 
L 173.24928 407.95776 
L 174.85632 424.89216 
L 176.46336 445.69728 
L 178.0704 435.21408 
L 179.67744 426.02112 
L 181.28448 432.95616 
L 182.89152 406.0224 
L 184.49856 406.50624 
L 186.1056 398.44224 
L 187.71264 411.6672 
L 189.31968 415.37664 
L 190.92672 415.37664 
L 192.53376 413.11872 
L 194.1408 403.76448 
L 195.74784 408.11904 
L 197.35488 408.92544 
L 198.96192 410.37696 
L 200.56896 405.05472 
L 202.176 410.8608 
L 203.78304 410.21568 
L 205.39008 393.76512 
L 206.99712 394.41024 
L 208.60416 394.7328 
L 210.2112 394.89408 
L 211.81824 383.4432 
L 213.42528 382.47552 
L 215.03232 378.44352 
L 216.63936 382.6368 
L 219.85344 378.44352 
L 221.46048 378.44352 
L 223.06752 381.024 
L 224.67456 380.2176 
L 226.2816 382.31424 
L 227.88864 377.31456 
L 229.49568 378.12096 
L 231.10272 374.41152 
L 232.70976 368.928 
L 234.3168 366.34752 
L 235.92384 365.54112 
L 237.53088 368.76672 
L 239.13792 372.31488 
L 240.74496 371.18592 
L 242.352 372.63744 
L 243.95904 373.28256 
L 245.56608 372.47616 
L 247.17312 369.41184 
L 248.78016 367.79904 
L 250.3872 371.66976 
L 251.99424 370.70208 
L 253.60128 369.41184 
L 255.20832 372.1536 
L 256.81536 371.02464 
L 258.4224 366.5088 
L 260.02944 366.67008 
L 261.63648 365.37984 
L 263.24352 364.25088 
L 264.85056 357.6384 
L 266.4576 357.47712 
L 268.06464 355.38048 
L 269.67168 356.0256 
L 271.27872 352.15488 
L 272.88576 349.73568 
L 274.4928 350.05824 
L 276.09984 348.44544 
L 277.70688 352.47744 
L 279.31392 353.92896 
L 280.92096 355.2192 
L 282.528 355.2192 
L 285.74208 354.25152 
L 287.34912 353.6064 
L 288.95616 353.28384 
L 290.5632 350.05824 
L 292.17024 347.63904 
L 293.77728 344.57472 
L 295.38432 343.76832 
L 296.99136 341.5104 
L 298.5984 338.44608 
L 300.20544 328.76928 
L 301.81248 327.15648 
L 303.41952 331.0272 
L 305.02656 336.83328 
L 306.6336 338.12352 
L 308.24064 338.2848 
L 309.84768 334.57536 
L 311.45472 333.28512 
L 313.06176 331.18848 
L 316.27584 331.51104 
L 317.88288 325.3824 
L 319.48992 322.1568 
L 321.09696 324.25344 
L 322.704 320.38272 
L 324.31104 321.51168 
L 325.91808 320.86656 
L 327.52512 316.83456 
L 329.13216 314.57664 
L 330.7392 314.73792 
L 332.34624 314.25408 
L 333.95328 313.93152 
L 335.56032 312.31872 
L 337.16736 311.02848 
L 338.7744 307.96416 
L 340.38144 310.70592 
L 341.98848 312.15744 
L 343.59552 312.31872 
L 345.20256 313.44768 
L 346.8096 314.25408 
L 348.41664 312.48 
L 350.02368 314.73792 
L 351.63072 313.77024 
L 353.23776 312.96384 
L 354.8448 311.83488 
L 356.45184 312.15744 
L 358.05888 307.31904 
L 359.66592 307.48032 
L 361.27296 307.15776 
L 362.88 303.28704 
L 364.48704 300.54528 
L 366.09408 302.96448 
L 369.30816 303.6096 
L 370.9152 302.96448 
L 372.52224 303.28704 
L 374.12928 305.38368 
L 375.73632 306.51264 
L 377.34336 306.99648 
L 378.9504 306.51264 
L 380.55744 307.15776 
L 382.16448 307.6416 
L 383.77152 308.448 
L 385.37856 303.6096 
L 386.9856 300.06144 
L 388.59264 300.54528 
L 390.19968 305.54496 
L 391.80672 308.77056 
L 393.41376 308.93184 
L 395.0208 308.93184 
L 396.62784 309.09312 
L 398.23488 309.09312 
L 399.84192 306.8352 
L 401.44896 307.6416 
L 403.056 308.28672 
L 404.66304 308.12544 
L 406.27008 306.8352 
L 407.87712 304.416 
L 409.48416 303.93216 
L 411.0912 303.77088 
L 412.69824 301.02912 
L 414.30528 301.9968 
L 415.91232 298.93248 
L 417.51936 299.73888 
L 420.73344 306.51264 
L 422.34048 307.96416 
L 423.94752 309.2544 
L 425.55456 309.41568 
L 427.1616 309.09312 
L 428.76864 310.38336 
L 430.37568 309.09312 
L 431.98272 311.51232 
L 433.58976 311.35104 
L 435.1968 313.60896 
L 436.80384 315.06048 
L 438.41088 315.38304 
L 441.62496 320.544 
L 443.232 318.76992 
L 446.44608 318.44736 
L 448.05312 318.44736 
L 449.66016 317.15712 
L 451.2672 317.47968 
L 452.87424 316.83456 
L 454.48128 314.57664 
L 456.08832 313.60896 
L 457.69536 316.512 
L 459.3024 320.544 
L 460.90944 321.51168 
L 462.51648 322.1568 
L 464.12352 323.93088 
L 465.73056 322.64064 
L 467.3376 319.41504 
L 468.94464 319.89888 
L 470.55168 319.89888 
L 472.15872 320.70528 
L 473.76576 322.47936 
L 475.3728 323.28576 
L 476.97984 323.7696 
L 478.58688 324.576 
L 480.19392 324.576 
L 481.80096 326.67264 
L 483.408 327.8016 
L 485.01504 332.47872 
L 486.62208 333.28512 
L 488.22912 331.99488 
L 489.83616 333.93024 
L 491.4432 335.38176 
L 493.05024 335.70432 
L 494.65728 337.63968 
L 496.26432 336.672 
L 497.87136 336.02688 
L 499.4784 332.80128 
L 501.08544 330.2208 
L 502.69248 331.67232 
L 504.29952 338.12352 
L 505.90656 338.76864 
L 507.5136 341.18784 
L 509.12064 340.22016 
L 510.72768 342.3168 
L 512.33472 340.05888 
L 513.94176 339.8976 
L 515.5488 339.41376 
L 517.15584 338.60736 
L 518.76288 338.76864 
L 520.36992 336.99456 
L 521.97696 334.2528 
L 523.584 333.93024 
L 525.19104 331.34976 
L 526.79808 330.05952 
L 528.40512 330.38208 
L 530.01216 332.15616 
L 531.6192 330.86592 
L 533.22624 330.05952 
L 534.83328 326.83392 
L 536.44032 331.0272 
L 538.04736 330.70464 
L 539.6544 331.51104 
L 541.26144 335.54304 
L 542.86848 336.51072 
L 544.47552 335.8656 
L 546.08256 333.93024 
L 547.6896 333.28512 
L 549.29664 333.12384 
L 550.90368 331.18848 
L 552.51072 333.60768 
L 554.11776 333.28512 
L 555.7248 332.47872 
L 558.93888 332.15616 
L 560.54592 332.64 
L 562.15296 333.60768 
L 563.76 331.51104 
L 565.36704 332.15616 
L 566.97408 330.38208 
L 568.58112 334.89792 
L 570.18816 335.0592 
L 571.7952 334.41408 
L 573.40224 332.96256 
L 575.00928 330.05952 
L 576.61632 326.51136 
L 578.22336 326.1888 
L 579.8304 323.44704 
L 581.43744 322.47936 
L 583.04448 324.73728 
L 584.65152 324.41472 
L 586.25856 324.89856 
L 587.8656 322.80192 
L 589.47264 323.60832 
L 591.07968 322.31808 
L 592.68672 321.99552 
L 594.29376 321.02784 
L 595.9008 321.3504 
L 597.50784 322.31808 
L 599.11488 323.44704 
L 600.72192 324.89856 
L 602.32896 324.09216 
L 603.936 323.60832 
L 605.54304 324.09216 
L 607.15008 323.28576 
L 608.75712 322.9632 
L 610.36416 321.3504 
L 611.9712 317.96352 
L 613.57824 316.35072 
L 615.18528 318.28608 
L 616.79232 318.60864 
L 618.39936 317.47968 
L 620.0064 318.76992 
L 621.61344 317.96352 
L 623.22048 320.70528 
L 624.82752 319.7376 
L 626.43456 322.1568 
L 628.0416 322.9632 
L 629.64864 324.41472 
L 631.25568 325.3824 
L 632.86272 325.22112 
L 634.46976 322.64064 
L 636.0768 323.60832 
L 637.68384 324.25344 
L 639.29088 324.25344 
L 640.89792 324.09216 
L 642.50496 323.60832 
L 644.112 325.05984 
L 645.71904 325.3824 
L 647.32608 324.89856 
L 648.93312 320.38272 
L 650.54016 321.18912 
L 652.1472 322.1568 
L 653.75424 321.51168 
L 655.36128 321.18912 
L 656.96832 320.38272 
L 658.57536 318.28608 
L 660.1824 316.512 
L 661.78944 316.02816 
L 663.39648 315.86688 
L 665.00352 315.38304 
L 666.61056 314.57664 
L 668.2176 313.60896 
L 669.82464 311.35104 
L 671.43168 309.57696 
L 673.03872 309.57696 
L 674.64576 310.8672 
L 676.2528 313.2864 
L 677.85984 314.0928 
L 681.07392 309.89952 
L 682.68096 311.99616 
L 684.288 312.96384 
L 685.89504 316.18944 
L 687.50208 318.28608 
L 689.10912 317.3184 
L 690.71616 316.99584 
L 692.3232 317.96352 
L 693.93024 319.41504 
L 695.53728 317.96352 
L 697.14432 319.09248 
L 698.75136 319.25376 
L 700.3584 318.1248 
L 701.96544 315.54432 
L 703.57248 315.38304 
L 705.17952 314.8992 
L 706.78656 316.02816 
L 708.3936 316.02816 
L 710.00064 316.18944 
L 711.60768 316.99584 
L 713.21472 316.67328 
L 716.4288 319.57632 
L 718.03584 315.22176 
L 719.64288 313.2864 
L 721.24992 312.15744 
L 722.85696 312.64128 
L 724.464 312.31872 
L 726.07104 312.31872 
L 727.67808 311.83488 
L 729.28512 311.99616 
L 730.89216 311.02848 
L 732.4992 311.83488 
L 734.10624 311.18976 
L 735.71328 311.83488 
L 737.32032 310.0608 
L 738.92736 313.2864 
L 740.5344 316.99584 
L 742.14144 317.3184 
L 743.74848 318.1248 
L 745.35552 318.44736 
L 746.96256 318.1248 
L 748.5696 319.25376 
L 750.17664 320.544 
L 751.78368 318.44736 
L 753.39072 318.76992 
L 754.99776 319.89888 
L 756.6048 317.64096 
L 758.21184 317.47968 
L 761.42592 320.38272 
L 763.03296 321.02784 
L 764.64 321.51168 
L 766.24704 322.1568 
L 767.85408 324.25344 
L 769.46112 324.73728 
L 771.06816 325.3824 
L 772.6752 324.41472 
L 774.28224 325.86624 
L 775.88928 326.67264 
L 777.49632 326.1888 
L 779.10336 323.44704 
L 780.7104 324.09216 
L 782.31744 324.576 
L 783.92448 326.02752 
L 785.53152 324.41472 
L 787.13856 326.67264 
L 788.7456 327.15648 
L 790.35264 327.31776 
L 791.95968 325.05984 
L 793.56672 327.15648 
L 795.17376 326.9952 
L 796.7808 327.47904 
L 798.38784 328.28544 
L 799.99488 328.12416 
L 801.60192 329.4144 
L 803.20896 329.57568 
L 804.816 326.9952 
L 806.42304 326.02752 
L 808.03008 325.54368 
L 809.63712 325.22112 
L 812.8512 325.54368 
L 814.45824 327.47904 
L 816.06528 328.44672 
L 817.67232 332.31744 
L 819.27936 332.80128 
L 820.8864 331.67232 
L 822.49344 333.76896 
L 824.10048 333.60768 
L 825.70752 334.57536 
L 828.9216 339.25248 
L 830.52864 339.8976 
L 832.13568 340.38144 
L 833.74272 338.44608 
L 835.34976 339.0912 
L 836.9568 340.05888 
L 838.56384 339.0912 
L 840.17088 337.4784 
L 843.38496 329.4144 
L 844.992 329.09184 
L 846.59904 328.44672 
L 848.20608 327.96288 
L 849.81312 327.8016 
L 851.42016 330.38208 
L 853.0272 331.18848 
L 854.63424 332.47872 
L 856.24128 331.99488 
L 857.84832 332.64 
L 859.45536 334.09152 
L 861.0624 335.8656 
L 864.27648 334.57536 
L 865.88352 332.64 
L 867.49056 333.4464 
L 869.0976 332.31744 
L 870.70464 331.99488 
L 872.31168 330.38208 
L 873.91872 331.18848 
L 875.52576 329.4144 
L 877.1328 329.09184 
L 878.73984 330.70464 
L 880.34688 331.34976 
L 881.95392 328.28544 
L 883.56096 327.31776 
L 885.168 329.09184 
L 886.77504 327.47904 
L 888.38208 326.02752 
L 889.98912 325.70496 
L 891.59616 324.09216 
L 893.2032 322.64064 
L 894.81024 323.12448 
L 896.41728 322.47936 
L 898.02432 321.18912 
L 899.63136 320.86656 
L 901.2384 321.02784 
L 902.84544 315.86688 
L 904.45248 314.73792 
L 906.05952 313.93152 
L 907.66656 313.93152 
L 909.2736 312.15744 
L 910.88064 313.93152 
L 912.48768 314.0928 
L 915.70176 315.06048 
L 917.3088 315.7056 
L 918.91584 316.512 
L 920.52288 316.02816 
L 922.12992 317.3184 
L 923.73696 318.1248 
L 925.344 320.70528 
L 926.95104 321.18912 
L 928.55808 324.73728 
L 931.77216 329.09184 
L 933.3792 328.44672 
L 934.98624 329.57568 
L 936.59328 334.2528 
L 938.20032 331.8336 
L 939.80736 330.86592 
L 941.4144 331.51104 
L 943.02144 331.8336 
L 946.23552 332.15616 
L 947.84256 333.12384 
L 949.4496 332.31744 
L 951.05664 333.76896 
L 952.66368 333.28512 
L 954.27072 333.4464 
L 955.87776 332.80128 
L 957.4848 332.80128 
L 959.09184 333.12384 
L 960.69888 331.51104 
L 962.30592 328.608 
L 963.91296 326.35008 
L 963.91296 326.35008 
" style="fill:none;stroke:#0000ff;stroke-linecap:square;"/>
   </g>
   <g id="line2d_2">
    <path clip-path="url(#p3ca5123c03)" d="M 162 226.67904 
L 163.60704 179.58528 
L 165.21408 245.22624 
L 166.82112 272.64384 
L 168.42816 267.48288 
L 170.0352 259.90272 
L 171.64224 246.3552 
L 173.24928 241.83936 
L 174.85632 227.0016 
L 176.46336 234.09792 
L 178.0704 232.16256 
L 179.67744 243.61344 
L 181.28448 238.2912 
L 182.89152 227.48544 
L 184.49856 223.93728 
L 186.1056 226.67904 
L 187.71264 225.55008 
L 189.31968 216.84096 
L 190.92672 213.61536 
L 192.53376 222.9696 
L 194.1408 227.64672 
L 195.74784 228.6144 
L 197.35488 222.48576 
L 198.96192 222.1632 
L 200.56896 218.61504 
L 202.176 220.5504 
L 203.78304 235.38816 
L 205.39008 216.35712 
L 206.99712 215.22816 
L 208.60416 224.5824 
L 210.2112 225.22752 
L 211.81824 222.64704 
L 213.42528 216.03456 
L 215.03232 210.8736 
L 216.63936 217.3248 
L 218.2464 212.80896 
L 221.46048 216.84096 
L 223.06752 221.3568 
L 224.67456 221.67936 
L 226.2816 217.16352 
L 227.88864 217.96992 
L 229.49568 210.22848 
L 231.10272 201.68064 
L 232.70976 192.00384 
L 234.3168 196.3584 
L 235.92384 198.93888 
L 237.53088 197.32608 
L 239.13792 193.77792 
L 240.74496 191.68128 
L 242.352 191.35872 
L 243.95904 197.48736 
L 245.56608 199.584 
L 247.17312 191.03616 
L 248.78016 190.55232 
L 250.3872 186.84288 
L 251.99424 187.488 
L 253.60128 186.6816 
L 255.20832 195.06816 
L 256.81536 191.84256 
L 258.4224 185.23008 
L 260.02944 177.97248 
L 261.63648 182.6496 
L 263.24352 184.74624 
L 264.85056 182.97216 
L 266.4576 183.77856 
L 268.06464 185.23008 
L 269.67168 184.42368 
L 271.27872 184.58496 
L 272.88576 185.0688 
L 274.4928 187.32672 
L 276.09984 185.0688 
L 277.70688 185.23008 
L 279.31392 186.6816 
L 280.92096 190.06848 
L 282.528 188.61696 
L 284.13504 180.71424 
L 285.74208 179.58528 
L 287.34912 186.84288 
L 288.95616 193.45536 
L 290.5632 187.488 
L 292.17024 182.6496 
L 293.77728 171.68256 
L 295.38432 171.19872 
L 296.99136 171.52128 
L 300.20544 167.81184 
L 301.81248 178.6176 
L 303.41952 172.65024 
L 305.02656 170.23104 
L 306.6336 162.00576 
L 308.24064 173.45664 
L 309.84768 177.48864 
L 311.45472 180.39168 
L 313.06176 172.9728 
L 314.6688 174.90816 
L 316.27584 175.06944 
L 317.88288 173.29536 
L 319.48992 182.32704 
L 321.09696 185.71392 
L 322.704 174.42432 
L 324.31104 168.29568 
L 325.91808 166.84416 
L 327.52512 163.296 
L 329.13216 170.87616 
L 330.7392 168.45696 
L 332.34624 179.424 
L 333.95328 174.74688 
L 335.56032 177.16608 
L 337.16736 178.13376 
L 338.7744 178.77888 
L 340.38144 168.77952 
L 341.98848 170.06976 
L 343.59552 161.84448 
L 345.20256 165.55392 
L 346.8096 168.1344 
L 348.41664 169.10208 
L 350.02368 170.39232 
L 351.63072 166.68288 
L 353.23776 164.1024 
L 354.8448 162.81216 
L 356.45184 162.00576 
L 358.05888 163.45728 
L 359.66592 165.7152 
L 361.27296 163.94112 
L 362.88 166.84416 
L 364.48704 176.68224 
L 366.09408 179.10144 
L 367.70112 169.90848 
L 369.30816 170.39232 
L 370.9152 176.84352 
L 372.52224 176.68224 
L 374.12928 166.36032 
L 377.34336 171.03744 
L 378.9504 167.48928 
L 380.55744 168.45696 
L 382.16448 170.5536 
L 383.77152 169.7472 
L 385.37856 161.84448 
L 386.9856 161.52192 
L 388.59264 154.26432 
L 390.19968 159.42528 
L 391.80672 159.90912 
L 393.41376 156.36096 
L 395.0208 163.61856 
L 396.62784 158.94144 
L 398.23488 157.16736 
L 399.84192 160.8768 
L 401.44896 152.65152 
L 403.056 147.49056 
L 404.66304 158.4576 
L 406.27008 158.4576 
L 407.87712 145.23264 
L 409.48416 149.5872 
L 411.0912 152.8128 
L 412.69824 147.00672 
L 414.30528 155.07072 
L 415.91232 160.23168 
L 417.51936 159.58656 
L 419.1264 158.61888 
L 420.73344 166.84416 
L 422.34048 157.00608 
L 423.94752 163.94112 
L 425.55456 151.84512 
L 427.1616 149.74848 
L 428.76864 152.16768 
L 430.37568 147.49056 
L 431.98272 149.26464 
L 433.58976 149.26464 
L 435.1968 150.3936 
L 436.80384 150.3936 
L 438.41088 157.6512 
L 440.01792 151.03872 
L 441.62496 147.81312 
L 443.232 149.26464 
L 444.83904 147.00672 
L 446.44608 147.49056 
L 448.05312 147.81312 
L 449.66016 151.52256 
L 451.2672 148.61952 
L 452.87424 150.23232 
L 454.48128 149.5872 
L 456.08832 149.74848 
L 457.69536 157.32864 
L 459.3024 162.65088 
L 460.90944 164.9088 
L 462.51648 161.03808 
L 464.12352 168.77952 
L 465.73056 174.42432 
L 467.3376 172.1664 
L 468.94464 170.23104 
L 470.55168 171.19872 
L 472.15872 165.87648 
L 473.76576 161.03808 
L 475.3728 161.84448 
L 476.97984 159.90912 
L 478.58688 159.90912 
L 480.19392 159.74784 
L 481.80096 165.07008 
L 483.408 159.74784 
L 485.01504 162.97344 
L 486.62208 156.8448 
L 488.22912 158.78016 
L 489.83616 160.23168 
L 491.4432 162.32832 
L 493.05024 165.23136 
L 494.65728 166.68288 
L 496.26432 166.84416 
L 497.87136 168.77952 
L 499.4784 163.296 
L 501.08544 166.84416 
L 502.69248 161.52192 
L 504.29952 163.61856 
L 505.90656 163.296 
L 507.5136 161.03808 
L 509.12064 158.13504 
L 510.72768 157.81248 
L 512.33472 160.55424 
L 513.94176 157.6512 
L 515.5488 153.94176 
L 517.15584 149.42592 
L 518.76288 155.87712 
L 520.36992 155.232 
L 521.97696 166.84416 
L 523.584 166.03776 
L 525.19104 172.1664 
L 526.79808 173.7792 
L 528.40512 169.10208 
L 530.01216 166.36032 
L 531.6192 162.97344 
L 533.22624 166.36032 
L 534.83328 165.7152 
L 536.44032 170.5536 
L 538.04736 164.74752 
L 539.6544 164.26368 
L 541.26144 164.1024 
L 542.86848 158.29632 
L 544.47552 164.74752 
L 546.08256 164.9088 
L 547.6896 167.81184 
L 549.29664 165.7152 
L 550.90368 159.74784 
L 552.51072 157.6512 
L 554.11776 161.19936 
L 555.7248 164.1024 
L 557.33184 160.0704 
L 558.93888 162.4896 
L 560.54592 172.00512 
L 562.15296 175.87584 
L 563.76 161.6832 
L 565.36704 161.36064 
L 566.97408 166.84416 
L 568.58112 163.94112 
L 570.18816 162.4896 
L 571.7952 166.5216 
L 573.40224 168.1344 
L 575.00928 168.29568 
L 576.61632 158.4576 
L 578.22336 158.13504 
L 579.8304 157.97376 
L 581.43744 166.84416 
L 583.04448 174.74688 
L 584.65152 170.23104 
L 586.25856 170.87616 
L 587.8656 170.87616 
L 589.47264 164.74752 
L 591.07968 168.77952 
L 592.68672 176.68224 
L 594.29376 167.00544 
L 595.9008 169.7472 
L 597.50784 166.68288 
L 599.11488 173.29536 
L 600.72192 170.5536 
L 602.32896 167.00544 
L 603.936 172.9728 
L 605.54304 176.1984 
L 607.15008 171.19872 
L 608.75712 169.58592 
L 610.36416 169.26336 
L 611.9712 171.84384 
L 613.57824 173.61792 
L 615.18528 176.68224 
L 616.79232 172.9728 
L 618.39936 176.1984 
L 620.0064 167.65056 
L 621.61344 177.97248 
L 623.22048 176.03712 
L 624.82752 169.26336 
L 626.43456 169.58592 
L 628.0416 171.52128 
L 629.64864 184.10112 
L 631.25568 180.2304 
L 632.86272 174.74688 
L 634.46976 171.36 
L 636.0768 176.03712 
L 637.68384 174.10176 
L 639.29088 169.26336 
L 640.89792 170.39232 
L 642.50496 175.06944 
L 644.112 173.61792 
L 645.71904 175.06944 
L 647.32608 175.23072 
L 648.93312 168.45696 
L 650.54016 171.84384 
L 652.1472 172.81152 
L 653.75424 178.13376 
L 655.36128 174.5856 
L 656.96832 173.7792 
L 658.57536 164.58624 
L 660.1824 175.55328 
L 661.78944 175.23072 
L 663.39648 176.68224 
L 665.00352 177.8112 
L 666.61056 180.39168 
L 668.2176 175.392 
L 669.82464 165.87648 
L 671.43168 165.39264 
L 673.03872 168.1344 
L 674.64576 167.00544 
L 676.2528 171.68256 
L 677.85984 177.16608 
L 679.46688 169.90848 
L 681.07392 171.36 
L 682.68096 171.03744 
L 684.288 165.7152 
L 685.89504 161.03808 
L 687.50208 171.03744 
L 689.10912 167.328 
L 690.71616 176.35968 
L 692.3232 168.61824 
L 695.53728 163.296 
L 697.14432 170.06976 
L 698.75136 178.6176 
L 700.3584 178.77888 
L 701.96544 170.23104 
L 703.57248 170.06976 
L 705.17952 172.00512 
L 706.78656 173.29536 
L 708.3936 173.45664 
L 710.00064 175.392 
L 711.60768 172.65024 
L 713.21472 176.68224 
L 714.82176 173.13408 
L 716.4288 168.45696 
L 718.03584 172.9728 
L 719.64288 170.71488 
L 721.24992 169.90848 
L 722.85696 176.84352 
L 724.464 179.10144 
L 726.07104 177.8112 
L 727.67808 173.61792 
L 729.28512 171.19872 
L 730.89216 167.65056 
L 732.4992 169.42464 
L 734.10624 165.23136 
L 735.71328 165.23136 
L 737.32032 163.94112 
L 738.92736 155.07072 
L 740.5344 161.03808 
L 742.14144 164.1024 
L 743.74848 165.87648 
L 745.35552 168.77952 
L 746.96256 167.328 
L 748.5696 171.03744 
L 750.17664 169.7472 
L 751.78368 167.65056 
L 753.39072 162.81216 
L 754.99776 169.10208 
L 756.6048 167.328 
L 758.21184 169.42464 
L 759.81888 177.48864 
L 761.42592 175.392 
L 763.03296 171.03744 
L 764.64 168.1344 
L 766.24704 172.1664 
L 767.85408 172.9728 
L 769.46112 171.19872 
L 771.06816 175.55328 
L 774.28224 171.68256 
L 775.88928 173.7792 
L 777.49632 170.23104 
L 779.10336 172.81152 
L 780.7104 164.58624 
L 782.31744 164.58624 
L 783.92448 167.328 
L 785.53152 171.36 
L 787.13856 169.10208 
L 788.7456 172.65024 
L 790.35264 169.10208 
L 791.95968 170.5536 
L 793.56672 179.10144 
L 795.17376 177.16608 
L 796.7808 180.87552 
L 798.38784 181.52064 
L 799.99488 179.58528 
L 801.60192 176.52096 
L 803.20896 170.06976 
L 804.816 170.06976 
L 806.42304 167.65056 
L 808.03008 169.26336 
L 809.63712 165.39264 
L 811.24416 166.03776 
L 812.8512 170.5536 
L 814.45824 170.5536 
L 816.06528 164.42496 
L 817.67232 171.03744 
L 819.27936 169.26336 
L 820.8864 169.7472 
L 822.49344 175.71456 
L 824.10048 179.90784 
L 825.70752 172.81152 
L 827.31456 169.10208 
L 828.9216 170.87616 
L 830.52864 167.00544 
L 832.13568 160.8768 
L 833.74272 166.84416 
L 835.34976 162.00576 
L 836.9568 167.328 
L 838.56384 171.68256 
L 840.17088 168.9408 
L 841.77792 170.5536 
L 843.38496 171.19872 
L 844.992 165.55392 
L 846.59904 168.9408 
L 848.20608 165.23136 
L 849.81312 167.48928 
L 851.42016 168.61824 
L 853.0272 172.81152 
L 854.63424 155.232 
L 856.24128 154.26432 
L 857.84832 165.87648 
L 859.45536 162.4896 
L 861.0624 170.5536 
L 862.66944 165.39264 
L 864.27648 167.00544 
L 865.88352 176.1984 
L 867.49056 171.84384 
L 869.0976 168.1344 
L 870.70464 167.00544 
L 872.31168 168.45696 
L 873.91872 165.55392 
L 875.52576 163.296 
L 877.1328 160.55424 
L 880.34688 167.16672 
L 881.95392 165.55392 
L 883.56096 172.32768 
L 885.168 167.328 
L 886.77504 167.97312 
L 888.38208 171.36 
L 889.98912 173.94048 
L 891.59616 163.296 
L 893.2032 167.81184 
L 894.81024 162.4896 
L 896.41728 169.90848 
L 898.02432 171.36 
L 899.63136 175.87584 
L 901.2384 173.29536 
L 902.84544 174.42432 
L 904.45248 173.13408 
L 906.05952 180.2304 
L 907.66656 176.84352 
L 909.2736 176.1984 
L 910.88064 174.42432 
L 912.48768 168.1344 
L 914.09472 177.32736 
L 915.70176 173.13408 
L 917.3088 176.03712 
L 918.91584 171.84384 
L 920.52288 169.42464 
L 922.12992 171.03744 
L 923.73696 171.84384 
L 925.344 182.32704 
L 926.95104 171.36 
L 928.55808 173.61792 
L 930.16512 174.74688 
L 931.77216 167.00544 
L 933.3792 170.06976 
L 934.98624 173.94048 
L 936.59328 171.68256 
L 938.20032 170.39232 
L 939.80736 168.45696 
L 941.4144 167.65056 
L 943.02144 169.26336 
L 944.62848 169.26336 
L 946.23552 167.65056 
L 947.84256 173.29536 
L 949.4496 170.71488 
L 951.05664 165.7152 
L 952.66368 161.6832 
L 954.27072 163.77984 
L 955.87776 161.36064 
L 957.4848 159.264 
L 959.09184 153.45792 
L 960.69888 158.29632 
L 962.30592 153.78048 
L 963.91296 160.23168 
L 963.91296 160.23168 
" style="fill:none;stroke:#008000;stroke-linecap:square;"/>
   </g>
   <g id="line2d_3">
    <path clip-path="url(#p3ca5123c03)" d="M 162 194.42304 
L 163.60704 185.55264 
L 165.21408 222.48576 
L 166.82112 241.83936 
L 168.42816 242.80704 
L 170.0352 239.74272 
L 171.64224 230.38848 
L 173.24928 240.87168 
L 174.85632 219.42144 
L 176.46336 208.29312 
L 178.0704 210.55104 
L 179.67744 206.0352 
L 181.28448 222.32448 
L 182.89152 214.58304 
L 184.49856 196.84224 
L 186.1056 204.26112 
L 187.71264 193.9392 
L 189.31968 196.19712 
L 190.92672 197.32608 
L 192.53376 181.0368 
L 194.1408 180.71424 
L 195.74784 181.35936 
L 197.35488 190.87488 
L 198.96192 178.6176 
L 200.56896 184.42368 
L 202.176 178.94016 
L 203.78304 187.00416 
L 205.39008 185.8752 
L 206.99712 182.32704 
L 208.60416 171.03744 
L 210.2112 180.06912 
L 211.81824 182.00448 
L 213.42528 178.77888 
L 215.03232 182.00448 
L 216.63936 184.90752 
L 218.2464 171.52128 
L 219.85344 163.13472 
L 221.46048 171.68256 
L 223.06752 175.71456 
L 224.67456 172.9728 
L 226.2816 175.87584 
L 227.88864 165.39264 
L 229.49568 165.55392 
L 231.10272 168.77952 
L 232.70976 170.06976 
L 234.3168 172.00512 
L 235.92384 176.1984 
L 237.53088 172.81152 
L 239.13792 168.9408 
L 240.74496 167.65056 
L 242.352 174.42432 
L 243.95904 168.45696 
L 245.56608 166.84416 
L 247.17312 168.45696 
L 248.78016 176.84352 
L 250.3872 168.45696 
L 251.99424 164.9088 
L 253.60128 162.65088 
L 255.20832 159.42528 
L 256.81536 160.8768 
L 258.4224 172.81152 
L 260.02944 170.71488 
L 261.63648 170.5536 
L 263.24352 171.19872 
L 264.85056 168.1344 
L 266.4576 163.94112 
L 268.06464 161.19936 
L 269.67168 167.48928 
L 271.27872 166.19904 
L 272.88576 175.55328 
L 274.4928 178.13376 
L 276.09984 163.77984 
L 277.70688 165.07008 
L 279.31392 161.36064 
L 280.92096 156.52224 
L 282.528 171.03744 
L 284.13504 175.55328 
L 285.74208 173.61792 
L 287.34912 171.19872 
L 288.95616 165.07008 
L 290.5632 163.61856 
L 292.17024 168.9408 
L 293.77728 167.328 
L 296.99136 177.97248 
L 298.5984 182.00448 
L 300.20544 174.5856 
L 301.81248 170.06976 
L 303.41952 176.35968 
L 305.02656 186.84288 
L 306.6336 177.48864 
L 308.24064 172.00512 
L 309.84768 165.87648 
L 311.45472 169.58592 
L 313.06176 176.1984 
L 314.6688 166.19904 
L 316.27584 165.39264 
L 317.88288 166.03776 
L 319.48992 174.10176 
L 321.09696 188.61696 
L 322.704 179.10144 
L 324.31104 175.392 
L 325.91808 172.81152 
L 327.52512 172.9728 
L 329.13216 174.74688 
L 330.7392 175.87584 
L 332.34624 172.32768 
L 333.95328 167.97312 
L 335.56032 171.03744 
L 337.16736 186.03648 
L 338.7744 187.00416 
L 340.38144 178.29504 
L 341.98848 167.97312 
L 343.59552 167.48928 
L 345.20256 168.29568 
L 346.8096 173.29536 
L 348.41664 173.61792 
L 350.02368 178.29504 
L 351.63072 173.29536 
L 353.23776 170.39232 
L 354.8448 173.94048 
L 356.45184 159.264 
L 358.05888 155.39328 
L 359.66592 158.61888 
L 361.27296 162.97344 
L 362.88 162.32832 
L 364.48704 155.07072 
L 366.09408 158.94144 
L 367.70112 155.87712 
L 369.30816 163.94112 
L 370.9152 164.74752 
L 372.52224 165.07008 
L 374.12928 159.74784 
L 375.73632 167.328 
L 377.34336 163.61856 
L 378.9504 163.94112 
L 380.55744 161.52192 
L 382.16448 165.7152 
L 383.77152 167.16672 
L 385.37856 168.77952 
L 386.9856 159.74784 
L 388.59264 153.45792 
L 390.19968 152.97408 
L 393.41376 162.97344 
L 395.0208 157.48992 
L 396.62784 161.19936 
L 398.23488 162.16704 
L 399.84192 164.9088 
L 401.44896 162.4896 
L 403.056 167.65056 
L 404.66304 167.48928 
L 406.27008 169.58592 
L 407.87712 165.07008 
L 409.48416 154.90944 
L 411.0912 150.55488 
L 412.69824 149.42592 
L 414.30528 149.26464 
L 415.91232 148.61952 
L 417.51936 159.90912 
L 419.1264 163.296 
L 420.73344 164.42496 
L 422.34048 165.7152 
L 423.94752 162.00576 
L 425.55456 163.61856 
L 427.1616 162.32832 
L 428.76864 169.42464 
L 430.37568 164.26368 
L 431.98272 163.61856 
L 433.58976 174.74688 
L 435.1968 166.68288 
L 436.80384 177.97248 
L 438.41088 183.456 
L 440.01792 176.84352 
L 441.62496 165.7152 
L 443.232 160.0704 
L 444.83904 165.39264 
L 446.44608 154.90944 
L 448.05312 163.77984 
L 449.66016 164.26368 
L 451.2672 158.94144 
L 452.87424 160.0704 
L 454.48128 160.55424 
L 456.08832 168.29568 
L 457.69536 179.10144 
L 459.3024 178.13376 
L 460.90944 180.87552 
L 462.51648 172.32768 
L 464.12352 164.42496 
L 465.73056 159.42528 
L 468.94464 174.26304 
L 470.55168 171.03744 
L 472.15872 169.90848 
L 473.76576 161.6832 
L 476.97984 174.5856 
L 478.58688 176.03712 
L 480.19392 175.06944 
L 481.80096 165.39264 
L 483.408 154.26432 
L 485.01504 152.49024 
L 486.62208 161.84448 
L 488.22912 159.90912 
L 489.83616 161.36064 
L 491.4432 162.00576 
L 493.05024 160.39296 
L 494.65728 167.48928 
L 496.26432 166.03776 
L 497.87136 158.94144 
L 499.4784 160.55424 
L 501.08544 166.68288 
L 502.69248 167.97312 
L 504.29952 159.90912 
L 505.90656 153.13536 
L 507.5136 152.65152 
L 509.12064 159.90912 
L 510.72768 157.32864 
L 512.33472 159.58656 
L 513.94176 161.19936 
L 515.5488 167.00544 
L 517.15584 167.00544 
L 518.76288 159.74784 
L 520.36992 166.84416 
L 521.97696 161.84448 
L 523.584 161.52192 
L 525.19104 162.16704 
L 526.79808 164.74752 
L 528.40512 166.36032 
L 530.01216 166.68288 
L 531.6192 170.06976 
L 533.22624 168.77952 
L 534.83328 175.23072 
L 536.44032 165.87648 
L 538.04736 161.6832 
L 539.6544 160.71552 
L 541.26144 171.19872 
L 542.86848 167.328 
L 544.47552 166.19904 
L 546.08256 169.7472 
L 547.6896 171.36 
L 549.29664 172.32768 
L 550.90368 183.77856 
L 552.51072 182.97216 
L 554.11776 177.16608 
L 555.7248 175.71456 
L 557.33184 163.61856 
L 558.93888 175.23072 
L 560.54592 163.77984 
L 562.15296 164.26368 
L 563.76 164.58624 
L 566.97408 160.39296 
L 568.58112 147.81312 
L 570.18816 144.26496 
L 571.7952 159.74784 
L 573.40224 158.94144 
L 575.00928 163.296 
L 576.61632 165.87648 
L 578.22336 162.16704 
L 579.8304 172.81152 
L 581.43744 174.42432 
L 583.04448 164.74752 
L 584.65152 167.48928 
L 586.25856 165.87648 
L 587.8656 163.296 
L 589.47264 157.6512 
L 591.07968 152.65152 
L 592.68672 160.23168 
L 594.29376 175.23072 
L 595.9008 175.71456 
L 597.50784 163.296 
L 599.11488 160.71552 
L 600.72192 150.55488 
L 602.32896 163.45728 
L 603.936 163.296 
L 605.54304 167.97312 
L 607.15008 160.8768 
L 608.75712 156.68352 
L 610.36416 158.4576 
L 611.9712 171.52128 
L 613.57824 172.81152 
L 615.18528 172.9728 
L 616.79232 169.7472 
L 618.39936 168.1344 
L 620.0064 162.00576 
L 621.61344 173.13408 
L 623.22048 169.58592 
L 624.82752 168.9408 
L 626.43456 161.84448 
L 628.0416 159.90912 
L 629.64864 163.296 
L 631.25568 163.61856 
L 632.86272 170.23104 
L 634.46976 162.32832 
L 636.0768 166.03776 
L 637.68384 165.7152 
L 639.29088 170.5536 
L 640.89792 162.81216 
L 642.50496 170.06976 
L 644.112 179.90784 
L 645.71904 183.77856 
L 647.32608 179.58528 
L 648.93312 182.6496 
L 650.54016 178.6176 
L 652.1472 178.29504 
L 653.75424 165.07008 
L 655.36128 164.74752 
L 656.96832 168.77952 
L 658.57536 160.55424 
L 660.1824 165.55392 
L 661.78944 161.84448 
L 663.39648 159.42528 
L 665.00352 157.81248 
L 666.61056 160.39296 
L 668.2176 161.19936 
L 669.82464 154.74816 
L 671.43168 152.65152 
L 673.03872 156.8448 
L 674.64576 152.97408 
L 676.2528 168.9408 
L 677.85984 163.77984 
L 679.46688 166.84416 
L 681.07392 170.5536 
L 682.68096 171.52128 
L 684.288 174.42432 
L 685.89504 174.74688 
L 687.50208 171.68256 
L 690.71616 155.71584 
L 692.3232 154.4256 
L 693.93024 161.19936 
L 695.53728 160.0704 
L 698.75136 167.97312 
L 700.3584 168.45696 
L 701.96544 165.23136 
L 703.57248 167.48928 
L 705.17952 162.4896 
L 706.78656 168.77952 
L 708.3936 164.42496 
L 710.00064 162.00576 
L 711.60768 165.23136 
L 713.21472 165.7152 
L 714.82176 163.61856 
L 716.4288 165.07008 
L 718.03584 154.10304 
L 719.64288 155.87712 
L 721.24992 153.29664 
L 722.85696 158.13504 
L 724.464 167.16672 
L 726.07104 161.36064 
L 727.67808 166.68288 
L 729.28512 165.39264 
L 730.89216 156.0384 
L 732.4992 152.8128 
L 734.10624 150.23232 
L 735.71328 144.7488 
L 737.32032 155.55456 
L 738.92736 155.71584 
L 740.5344 162.65088 
L 742.14144 161.19936 
L 743.74848 162.00576 
L 745.35552 157.16736 
L 746.96256 171.68256 
L 748.5696 168.9408 
L 750.17664 172.00512 
L 751.78368 171.52128 
L 753.39072 174.90816 
L 754.99776 163.94112 
L 756.6048 171.19872 
L 758.21184 173.13408 
L 759.81888 173.13408 
L 761.42592 181.35936 
L 763.03296 166.19904 
L 764.64 166.84416 
L 766.24704 170.71488 
L 767.85408 175.392 
L 769.46112 175.392 
L 771.06816 172.48896 
L 772.6752 172.32768 
L 774.28224 172.9728 
L 775.88928 166.84416 
L 777.49632 174.10176 
L 779.10336 169.7472 
L 780.7104 178.6176 
L 782.31744 179.90784 
L 783.92448 178.29504 
L 785.53152 166.84416 
L 787.13856 166.84416 
L 788.7456 179.424 
L 790.35264 174.26304 
L 791.95968 176.35968 
L 793.56672 183.13344 
L 795.17376 178.77888 
L 796.7808 177.8112 
L 798.38784 167.16672 
L 799.99488 174.26304 
L 801.60192 162.00576 
L 803.20896 161.84448 
L 804.816 153.13536 
L 806.42304 158.13504 
L 808.03008 164.26368 
L 809.63712 169.26336 
L 811.24416 165.87648 
L 812.8512 161.19936 
L 814.45824 159.10272 
L 816.06528 160.23168 
L 817.67232 157.97376 
L 819.27936 163.61856 
L 820.8864 164.1024 
L 822.49344 165.39264 
L 824.10048 157.32864 
L 825.70752 164.1024 
L 827.31456 168.77952 
L 828.9216 172.65024 
L 830.52864 170.23104 
L 832.13568 171.19872 
L 833.74272 179.26272 
L 835.34976 175.23072 
L 836.9568 171.84384 
L 838.56384 159.58656 
L 840.17088 159.58656 
L 841.77792 158.61888 
L 844.992 158.94144 
L 846.59904 165.23136 
L 848.20608 173.29536 
L 849.81312 163.296 
L 851.42016 163.45728 
L 853.0272 164.74752 
L 854.63424 172.81152 
L 856.24128 181.52064 
L 857.84832 178.45632 
L 859.45536 181.68192 
L 861.0624 175.392 
L 862.66944 168.61824 
L 864.27648 175.06944 
L 865.88352 179.58528 
L 867.49056 178.6176 
L 869.0976 180.39168 
L 870.70464 170.39232 
L 872.31168 178.94016 
L 873.91872 175.23072 
L 875.52576 166.19904 
L 877.1328 165.39264 
L 878.73984 161.19936 
L 880.34688 159.74784 
L 881.95392 166.19904 
L 883.56096 170.71488 
L 885.168 169.26336 
L 886.77504 174.90816 
L 888.38208 176.52096 
L 889.98912 172.1664 
L 891.59616 170.06976 
L 893.2032 160.55424 
L 894.81024 161.36064 
L 896.41728 161.84448 
L 898.02432 158.29632 
L 899.63136 168.61824 
L 901.2384 169.10208 
L 902.84544 167.328 
L 904.45248 177.64992 
L 906.05952 179.10144 
L 907.66656 173.45664 
L 909.2736 180.87552 
L 910.88064 184.2624 
L 912.48768 187.97184 
L 914.09472 175.23072 
L 915.70176 180.2304 
L 917.3088 182.81088 
L 918.91584 178.94016 
L 922.12992 160.0704 
L 923.73696 156.8448 
L 925.344 166.36032 
L 926.95104 172.32768 
L 928.55808 160.39296 
L 930.16512 162.16704 
L 931.77216 168.61824 
L 933.3792 173.45664 
L 934.98624 177.8112 
L 936.59328 174.90816 
L 938.20032 175.392 
L 939.80736 177.0048 
L 941.4144 176.52096 
L 943.02144 169.26336 
L 944.62848 156.36096 
L 946.23552 165.39264 
L 947.84256 171.19872 
L 949.4496 166.68288 
L 951.05664 171.68256 
L 952.66368 186.35904 
L 954.27072 183.77856 
L 955.87776 177.64992 
L 957.4848 160.23168 
L 959.09184 166.36032 
L 960.69888 166.36032 
L 962.30592 167.00544 
L 963.91296 167.328 
L 963.91296 167.328 
" style="fill:none;stroke:#ff0000;stroke-linecap:square;"/>
   </g>
   <g id="line2d_4">
    <path clip-path="url(#p3ca5123c03)" d="M 162 174.5856 
L 163.60704 127.65312 
L 165.21408 201.84192 
L 166.82112 214.42176 
L 168.42816 212.80896 
L 170.0352 217.16352 
L 171.64224 204.09984 
L 173.24928 226.1952 
L 174.85632 208.13184 
L 176.46336 188.13312 
L 178.0704 192.16512 
L 179.67744 178.6176 
L 181.28448 179.58528 
L 182.89152 185.0688 
L 184.49856 186.84288 
L 186.1056 182.97216 
L 187.71264 185.55264 
L 189.31968 167.97312 
L 190.92672 182.00448 
L 192.53376 179.26272 
L 194.1408 179.10144 
L 195.74784 202.0032 
L 197.35488 180.87552 
L 198.96192 175.55328 
L 200.56896 191.35872 
L 202.176 175.23072 
L 203.78304 168.9408 
L 205.39008 178.6176 
L 206.99712 170.71488 
L 208.60416 168.1344 
L 210.2112 179.424 
L 211.81824 179.74656 
L 213.42528 178.13376 
L 215.03232 180.55296 
L 216.63936 172.9728 
L 218.2464 176.1984 
L 219.85344 175.23072 
L 221.46048 171.36 
L 223.06752 175.23072 
L 224.67456 174.42432 
L 226.2816 166.03776 
L 227.88864 176.35968 
L 229.49568 181.8432 
L 231.10272 177.32736 
L 232.70976 181.35936 
L 234.3168 171.36 
L 235.92384 177.48864 
L 237.53088 176.35968 
L 239.13792 179.90784 
L 240.74496 188.93952 
L 242.352 183.93984 
L 243.95904 192.16512 
L 245.56608 191.19744 
L 247.17312 181.19808 
L 248.78016 189.1008 
L 250.3872 176.68224 
L 253.60128 170.5536 
L 255.20832 178.45632 
L 256.81536 177.0048 
L 258.4224 179.26272 
L 260.02944 171.84384 
L 261.63648 179.90784 
L 263.24352 174.90816 
L 264.85056 169.42464 
L 266.4576 174.42432 
L 268.06464 170.39232 
L 269.67168 179.26272 
L 271.27872 170.5536 
L 272.88576 177.32736 
L 274.4928 196.84224 
L 276.09984 181.8432 
L 277.70688 171.03744 
L 279.31392 167.16672 
L 280.92096 166.19904 
L 282.528 163.61856 
L 284.13504 169.90848 
L 285.74208 175.71456 
L 287.34912 167.16672 
L 288.95616 170.39232 
L 290.5632 176.03712 
L 292.17024 158.78016 
L 293.77728 162.16704 
L 295.38432 183.29472 
L 296.99136 184.74624 
L 298.5984 185.39136 
L 300.20544 179.58528 
L 301.81248 180.87552 
L 303.41952 177.48864 
L 305.02656 178.29504 
L 306.6336 182.32704 
L 308.24064 172.9728 
L 309.84768 173.94048 
L 311.45472 185.39136 
L 313.06176 180.39168 
L 314.6688 195.552 
L 316.27584 172.48896 
L 317.88288 177.97248 
L 319.48992 174.5856 
L 321.09696 166.03776 
L 324.31104 166.03776 
L 325.91808 170.5536 
L 327.52512 169.42464 
L 329.13216 176.1984 
L 330.7392 166.84416 
L 332.34624 163.61856 
L 333.95328 182.81088 
L 335.56032 179.58528 
L 337.16736 170.5536 
L 338.7744 157.32864 
L 340.38144 160.0704 
L 341.98848 165.55392 
L 343.59552 155.232 
L 345.20256 161.6832 
L 346.8096 156.36096 
L 348.41664 158.13504 
L 350.02368 164.58624 
L 351.63072 165.39264 
L 353.23776 165.39264 
L 354.8448 157.16736 
L 356.45184 174.42432 
L 358.05888 168.77952 
L 359.66592 166.36032 
L 361.27296 160.8768 
L 362.88 163.296 
L 364.48704 161.52192 
L 366.09408 161.03808 
L 367.70112 155.39328 
L 369.30816 154.58688 
L 370.9152 156.68352 
L 372.52224 153.13536 
L 374.12928 158.4576 
L 375.73632 152.0064 
L 377.34336 149.5872 
L 378.9504 165.07008 
L 380.55744 172.9728 
L 382.16448 189.1008 
L 383.77152 185.39136 
L 385.37856 175.23072 
L 386.9856 178.45632 
L 388.59264 179.74656 
L 390.19968 177.0048 
L 391.80672 173.7792 
L 393.41376 171.36 
L 395.0208 164.58624 
L 396.62784 163.13472 
L 398.23488 167.328 
L 399.84192 172.32768 
L 401.44896 183.29472 
L 403.056 181.35936 
L 404.66304 188.2944 
L 406.27008 184.74624 
L 407.87712 179.90784 
L 409.48416 184.10112 
L 411.0912 181.35936 
L 412.69824 170.23104 
L 414.30528 160.8768 
L 417.51936 182.00448 
L 419.1264 174.74688 
L 420.73344 176.03712 
L 422.34048 175.392 
L 423.94752 169.26336 
L 425.55456 162.4896 
L 427.1616 168.1344 
L 428.76864 159.58656 
L 430.37568 162.81216 
L 431.98272 175.06944 
L 433.58976 180.71424 
L 435.1968 174.5856 
L 436.80384 163.13472 
L 438.41088 177.16608 
L 440.01792 172.32768 
L 441.62496 181.19808 
L 443.232 175.71456 
L 444.83904 172.32768 
L 446.44608 176.52096 
L 448.05312 168.1344 
L 449.66016 167.97312 
L 451.2672 165.55392 
L 452.87424 163.77984 
L 454.48128 155.87712 
L 456.08832 165.39264 
L 457.69536 168.29568 
L 459.3024 165.23136 
L 460.90944 166.84416 
L 462.51648 162.32832 
L 464.12352 170.71488 
L 465.73056 169.58592 
L 467.3376 173.94048 
L 468.94464 164.1024 
L 470.55168 162.4896 
L 472.15872 170.71488 
L 473.76576 173.94048 
L 475.3728 179.26272 
L 476.97984 172.9728 
L 478.58688 177.97248 
L 480.19392 176.84352 
L 481.80096 176.68224 
L 483.408 170.06976 
L 485.01504 172.32768 
L 486.62208 167.328 
L 488.22912 167.81184 
L 489.83616 167.65056 
L 491.4432 166.19904 
L 493.05024 166.5216 
L 494.65728 169.58592 
L 496.26432 167.00544 
L 497.87136 165.07008 
L 499.4784 171.52128 
L 501.08544 182.00448 
L 502.69248 174.26304 
L 504.29952 177.8112 
L 505.90656 171.03744 
L 507.5136 169.7472 
L 509.12064 176.84352 
L 510.72768 168.9408 
L 512.33472 167.97312 
L 513.94176 168.77952 
L 515.5488 164.26368 
L 517.15584 166.36032 
L 518.76288 164.1024 
L 520.36992 163.94112 
L 521.97696 155.71584 
L 523.584 161.36064 
L 525.19104 162.81216 
L 526.79808 167.48928 
L 528.40512 162.32832 
L 530.01216 160.55424 
L 531.6192 158.4576 
L 533.22624 165.23136 
L 534.83328 171.03744 
L 536.44032 172.81152 
L 538.04736 179.10144 
L 539.6544 178.29504 
L 541.26144 167.65056 
L 542.86848 172.00512 
L 544.47552 172.1664 
L 546.08256 184.90752 
L 547.6896 179.10144 
L 549.29664 178.13376 
L 550.90368 181.68192 
L 552.51072 184.2624 
L 554.11776 179.424 
L 555.7248 175.87584 
L 557.33184 185.55264 
L 558.93888 191.03616 
L 560.54592 190.7136 
L 562.15296 190.87488 
L 563.76 187.81056 
L 565.36704 180.55296 
L 566.97408 187.97184 
L 568.58112 169.42464 
L 570.18816 170.39232 
L 571.7952 176.84352 
L 573.40224 182.6496 
L 575.00928 174.26304 
L 576.61632 169.42464 
L 578.22336 160.23168 
L 579.8304 156.36096 
L 581.43744 167.00544 
L 583.04448 169.10208 
L 584.65152 170.71488 
L 586.25856 169.26336 
L 587.8656 175.23072 
L 589.47264 175.392 
L 591.07968 176.35968 
L 592.68672 173.61792 
L 594.29376 171.19872 
L 595.9008 168.45696 
L 597.50784 175.06944 
L 599.11488 165.23136 
L 600.72192 167.97312 
L 602.32896 173.61792 
L 603.936 154.4256 
L 605.54304 164.42496 
L 607.15008 168.9408 
L 608.75712 164.58624 
L 610.36416 157.32864 
L 611.9712 154.90944 
L 613.57824 151.36128 
L 615.18528 144.10368 
L 616.79232 140.23296 
L 618.39936 145.5552 
L 620.0064 152.97408 
L 621.61344 153.13536 
L 623.22048 165.55392 
L 624.82752 159.264 
L 626.43456 156.36096 
L 628.0416 166.84416 
L 629.64864 151.03872 
L 631.25568 145.23264 
L 632.86272 157.48992 
L 634.46976 163.296 
L 636.0768 151.68384 
L 637.68384 157.6512 
L 639.29088 160.0704 
L 640.89792 164.26368 
L 642.50496 163.94112 
L 644.112 162.32832 
L 645.71904 161.03808 
L 647.32608 161.6832 
L 648.93312 159.90912 
L 650.54016 161.6832 
L 652.1472 169.90848 
L 653.75424 165.39264 
L 655.36128 155.39328 
L 656.96832 153.29664 
L 658.57536 163.13472 
L 660.1824 162.16704 
L 661.78944 160.39296 
L 663.39648 164.42496 
L 665.00352 166.5216 
L 666.61056 167.81184 
L 668.2176 170.23104 
L 669.82464 159.58656 
L 671.43168 161.52192 
L 673.03872 177.48864 
L 674.64576 177.64992 
L 676.2528 180.2304 
L 677.85984 188.61696 
L 679.46688 185.71392 
L 681.07392 168.1344 
L 682.68096 169.7472 
L 684.288 184.2624 
L 685.89504 173.13408 
L 687.50208 165.7152 
L 689.10912 163.45728 
L 690.71616 160.71552 
L 692.3232 159.74784 
L 693.93024 155.87712 
L 695.53728 154.58688 
L 697.14432 151.84512 
L 698.75136 162.65088 
L 700.3584 161.36064 
L 701.96544 172.00512 
L 703.57248 151.03872 
L 705.17952 158.61888 
L 706.78656 155.55456 
L 708.3936 155.07072 
L 711.60768 167.00544 
L 713.21472 171.84384 
L 714.82176 166.5216 
L 716.4288 163.296 
L 718.03584 158.78016 
L 719.64288 163.296 
L 721.24992 157.6512 
L 722.85696 156.52224 
L 724.464 161.52192 
L 726.07104 164.42496 
L 727.67808 161.52192 
L 729.28512 161.19936 
L 730.89216 170.06976 
L 732.4992 164.1024 
L 734.10624 166.03776 
L 735.71328 165.39264 
L 737.32032 158.4576 
L 738.92736 167.81184 
L 740.5344 170.39232 
L 742.14144 165.7152 
L 743.74848 163.13472 
L 745.35552 155.55456 
L 746.96256 156.36096 
L 748.5696 158.61888 
L 750.17664 164.9088 
L 751.78368 170.39232 
L 753.39072 172.48896 
L 754.99776 158.61888 
L 756.6048 162.97344 
L 758.21184 175.06944 
L 759.81888 163.61856 
L 761.42592 162.4896 
L 763.03296 172.00512 
L 764.64 176.1984 
L 766.24704 182.6496 
L 767.85408 170.39232 
L 769.46112 173.61792 
L 771.06816 169.7472 
L 772.6752 176.84352 
L 774.28224 178.13376 
L 775.88928 165.55392 
L 777.49632 168.1344 
L 779.10336 164.1024 
L 780.7104 163.45728 
L 782.31744 174.5856 
L 783.92448 169.90848 
L 785.53152 159.10272 
L 787.13856 152.49024 
L 788.7456 158.78016 
L 790.35264 155.71584 
L 791.95968 152.16768 
L 793.56672 163.77984 
L 795.17376 155.71584 
L 796.7808 160.39296 
L 798.38784 156.68352 
L 799.99488 152.0064 
L 801.60192 155.232 
L 803.20896 150.71616 
L 804.816 149.90976 
L 806.42304 151.84512 
L 808.03008 170.23104 
L 809.63712 165.55392 
L 812.8512 154.4256 
L 814.45824 159.58656 
L 816.06528 147.49056 
L 817.67232 162.16704 
L 819.27936 158.29632 
L 820.8864 163.45728 
L 822.49344 163.296 
L 824.10048 162.32832 
L 825.70752 175.06944 
L 827.31456 176.03712 
L 828.9216 172.00512 
L 830.52864 176.1984 
L 832.13568 174.74688 
L 833.74272 157.97376 
L 835.34976 155.07072 
L 836.9568 167.81184 
L 838.56384 168.1344 
L 840.17088 170.5536 
L 841.77792 164.42496 
L 843.38496 161.6832 
L 844.992 173.13408 
L 846.59904 171.84384 
L 848.20608 173.61792 
L 849.81312 169.26336 
L 851.42016 179.90784 
L 853.0272 172.00512 
L 854.63424 162.32832 
L 856.24128 166.36032 
L 857.84832 168.29568 
L 861.0624 173.45664 
L 862.66944 163.77984 
L 864.27648 159.58656 
L 865.88352 160.8768 
L 867.49056 159.264 
L 869.0976 161.03808 
L 870.70464 157.16736 
L 872.31168 166.36032 
L 873.91872 173.45664 
L 875.52576 172.9728 
L 877.1328 168.29568 
L 878.73984 157.81248 
L 880.34688 149.90976 
L 881.95392 156.0384 
L 883.56096 146.68416 
L 885.168 138.2976 
L 886.77504 144.26496 
L 888.38208 148.94208 
L 889.98912 154.10304 
L 891.59616 152.16768 
L 893.2032 146.20032 
L 894.81024 136.20096 
L 896.41728 155.71584 
L 898.02432 158.29632 
L 899.63136 147.00672 
L 901.2384 143.78112 
L 902.84544 149.42592 
L 904.45248 155.87712 
L 906.05952 156.52224 
L 907.66656 151.2 
L 909.2736 158.78016 
L 910.88064 163.94112 
L 912.48768 161.19936 
L 914.09472 164.42496 
L 915.70176 170.5536 
L 917.3088 168.9408 
L 918.91584 167.16672 
L 920.52288 170.5536 
L 922.12992 176.1984 
L 923.73696 164.42496 
L 925.344 162.65088 
L 926.95104 170.87616 
L 928.55808 167.328 
L 930.16512 166.19904 
L 931.77216 161.36064 
L 933.3792 168.61824 
L 934.98624 174.26304 
L 936.59328 173.45664 
L 938.20032 157.00608 
L 939.80736 159.58656 
L 941.4144 156.36096 
L 943.02144 161.36064 
L 944.62848 161.36064 
L 946.23552 163.13472 
L 947.84256 159.90912 
L 949.4496 166.36032 
L 951.05664 166.5216 
L 952.66368 165.7152 
L 954.27072 178.77888 
L 955.87776 185.23008 
L 957.4848 194.42304 
L 959.09184 174.5856 
L 960.69888 169.42464 
L 962.30592 164.74752 
L 963.91296 151.84512 
L 963.91296 151.84512 
" style="fill:none;stroke:#00bfbf;stroke-linecap:square;"/>
   </g>
   <g id="patch_3">
    <path d="M 162 50.4 
L 965.52 50.4 
" style="fill:none;stroke:#000000;stroke-linecap:square;stroke-linejoin:miter;"/>
   </g>
   <g id="patch_4">
    <path d="M 965.52 453.6 
L 965.52 50.4 
" style="fill:none;stroke:#000000;stroke-linecap:square;stroke-linejoin:miter;"/>
   </g>
   <g id="patch_5">
    <path d="M 162 453.6 
L 965.52 453.6 
" style="fill:none;stroke:#000000;stroke-linecap:square;stroke-linejoin:miter;"/>
   </g>
   <g id="patch_6">
    <path d="M 162 453.6 
L 162 50.4 
" style="fill:none;stroke:#000000;stroke-linecap:square;stroke-linejoin:miter;"/>
   </g>
   <g id="matplotlib.axis_1">
    <g id="xtick_1">
     <g id="line2d_5">
      <defs>
       <path d="M 0 0 
L 0 -4 
" id="mff20ad0697" style="stroke:#000000;stroke-width:0.5;"/>
      </defs>
      <g>
       <use style="stroke:#000000;stroke-width:0.5;" x="162.0" xlink:href="#mff20ad0697" y="453.6"/>
      </g>
     </g>
     <g id="line2d_6">
      <defs>
       <path d="M 0 0 
L 0 4 
" id="m8ab64c9374" style="stroke:#000000;stroke-width:0.5;"/>
      </defs>
      <g>
       <use style="stroke:#000000;stroke-width:0.5;" x="162.0" xlink:href="#m8ab64c9374" y="50.4"/>
      </g>
     </g>
     <g id="text_1">
      <!-- 0 -->
      <defs>
       <path d="M 31.78125 66.40625 
Q 24.171875 66.40625 20.328125 58.90625 
Q 16.5 51.421875 16.5 36.375 
Q 16.5 21.390625 20.328125 13.890625 
Q 24.171875 6.390625 31.78125 6.390625 
Q 39.453125 6.390625 43.28125 13.890625 
Q 47.125 21.390625 47.125 36.375 
Q 47.125 51.421875 43.28125 58.90625 
Q 39.453125 66.40625 31.78125 66.40625 
M 31.78125 74.21875 
Q 44.046875 74.21875 50.515625 64.515625 
Q 56.984375 54.828125 56.984375 36.375 
Q 56.984375 17.96875 50.515625 8.265625 
Q 44.046875 -1.421875 31.78125 -1.421875 
Q 19.53125 -1.421875 13.0625 8.265625 
Q 6.59375 17.96875 6.59375 36.375 
Q 6.59375 54.828125 13.0625 64.515625 
Q 19.53125 74.21875 31.78125 74.21875 
" id="BitstreamVeraSans-Roman-30"/>
      </defs>
      <g transform="translate(158.1825 466.718125)scale(0.12 -0.12)">
       <use xlink:href="#BitstreamVeraSans-Roman-30"/>
      </g>
     </g>
    </g>
    <g id="xtick_2">
     <g id="line2d_7">
      <g>
       <use style="stroke:#000000;stroke-width:0.5;" x="322.704" xlink:href="#mff20ad0697" y="453.6"/>
      </g>
     </g>
     <g id="line2d_8">
      <g>
       <use style="stroke:#000000;stroke-width:0.5;" x="322.704" xlink:href="#m8ab64c9374" y="50.4"/>
      </g>
     </g>
     <g id="text_2">
      <!-- 100 -->
      <defs>
       <path d="M 12.40625 8.296875 
L 28.515625 8.296875 
L 28.515625 63.921875 
L 10.984375 60.40625 
L 10.984375 69.390625 
L 28.421875 72.90625 
L 38.28125 72.90625 
L 38.28125 8.296875 
L 54.390625 8.296875 
L 54.390625 0 
L 12.40625 0 
z
" id="BitstreamVeraSans-Roman-31"/>
      </defs>
      <g transform="translate(311.2515 466.718125)scale(0.12 -0.12)">
       <use xlink:href="#BitstreamVeraSans-Roman-31"/>
       <use x="63.623046875" xlink:href="#BitstreamVeraSans-Roman-30"/>
       <use x="127.24609375" xlink:href="#BitstreamVeraSans-Roman-30"/>
      </g>
     </g>
    </g>
    <g id="xtick_3">
     <g id="line2d_9">
      <g>
       <use style="stroke:#000000;stroke-width:0.5;" x="483.408" xlink:href="#mff20ad0697" y="453.6"/>
      </g>
     </g>
     <g id="line2d_10">
      <g>
       <use style="stroke:#000000;stroke-width:0.5;" x="483.408" xlink:href="#m8ab64c9374" y="50.4"/>
      </g>
     </g>
     <g id="text_3">
      <!-- 200 -->
      <defs>
       <path d="M 19.1875 8.296875 
L 53.609375 8.296875 
L 53.609375 0 
L 7.328125 0 
L 7.328125 8.296875 
Q 12.9375 14.109375 22.625 23.890625 
Q 32.328125 33.6875 34.8125 36.53125 
Q 39.546875 41.84375 41.421875 45.53125 
Q 43.3125 49.21875 43.3125 52.78125 
Q 43.3125 58.59375 39.234375 62.25 
Q 35.15625 65.921875 28.609375 65.921875 
Q 23.96875 65.921875 18.8125 64.3125 
Q 13.671875 62.703125 7.8125 59.421875 
L 7.8125 69.390625 
Q 13.765625 71.78125 18.9375 73 
Q 24.125 74.21875 28.421875 74.21875 
Q 39.75 74.21875 46.484375 68.546875 
Q 53.21875 62.890625 53.21875 53.421875 
Q 53.21875 48.921875 51.53125 44.890625 
Q 49.859375 40.875 45.40625 35.40625 
Q 44.1875 33.984375 37.640625 27.21875 
Q 31.109375 20.453125 19.1875 8.296875 
" id="BitstreamVeraSans-Roman-32"/>
      </defs>
      <g transform="translate(471.9555 466.718125)scale(0.12 -0.12)">
       <use xlink:href="#BitstreamVeraSans-Roman-32"/>
       <use x="63.623046875" xlink:href="#BitstreamVeraSans-Roman-30"/>
       <use x="127.24609375" xlink:href="#BitstreamVeraSans-Roman-30"/>
      </g>
     </g>
    </g>
    <g id="xtick_4">
     <g id="line2d_11">
      <g>
       <use style="stroke:#000000;stroke-width:0.5;" x="644.112" xlink:href="#mff20ad0697" y="453.6"/>
      </g>
     </g>
     <g id="line2d_12">
      <g>
       <use style="stroke:#000000;stroke-width:0.5;" x="644.112" xlink:href="#m8ab64c9374" y="50.4"/>
      </g>
     </g>
     <g id="text_4">
      <!-- 300 -->
      <defs>
       <path d="M 40.578125 39.3125 
Q 47.65625 37.796875 51.625 33 
Q 55.609375 28.21875 55.609375 21.1875 
Q 55.609375 10.40625 48.1875 4.484375 
Q 40.765625 -1.421875 27.09375 -1.421875 
Q 22.515625 -1.421875 17.65625 -0.515625 
Q 12.796875 0.390625 7.625 2.203125 
L 7.625 11.71875 
Q 11.71875 9.328125 16.59375 8.109375 
Q 21.484375 6.890625 26.8125 6.890625 
Q 36.078125 6.890625 40.9375 10.546875 
Q 45.796875 14.203125 45.796875 21.1875 
Q 45.796875 27.640625 41.28125 31.265625 
Q 36.765625 34.90625 28.71875 34.90625 
L 20.21875 34.90625 
L 20.21875 43.015625 
L 29.109375 43.015625 
Q 36.375 43.015625 40.234375 45.921875 
Q 44.09375 48.828125 44.09375 54.296875 
Q 44.09375 59.90625 40.109375 62.90625 
Q 36.140625 65.921875 28.71875 65.921875 
Q 24.65625 65.921875 20.015625 65.03125 
Q 15.375 64.15625 9.8125 62.3125 
L 9.8125 71.09375 
Q 15.4375 72.65625 20.34375 73.4375 
Q 25.25 74.21875 29.59375 74.21875 
Q 40.828125 74.21875 47.359375 69.109375 
Q 53.90625 64.015625 53.90625 55.328125 
Q 53.90625 49.265625 50.4375 45.09375 
Q 46.96875 40.921875 40.578125 39.3125 
" id="BitstreamVeraSans-Roman-33"/>
      </defs>
      <g transform="translate(632.6595 466.718125)scale(0.12 -0.12)">
       <use xlink:href="#BitstreamVeraSans-Roman-33"/>
       <use x="63.623046875" xlink:href="#BitstreamVeraSans-Roman-30"/>
       <use x="127.24609375" xlink:href="#BitstreamVeraSans-Roman-30"/>
      </g>
     </g>
    </g>
    <g id="xtick_5">
     <g id="line2d_13">
      <g>
       <use style="stroke:#000000;stroke-width:0.5;" x="804.816" xlink:href="#mff20ad0697" y="453.6"/>
      </g>
     </g>
     <g id="line2d_14">
      <g>
       <use style="stroke:#000000;stroke-width:0.5;" x="804.816" xlink:href="#m8ab64c9374" y="50.4"/>
      </g>
     </g>
     <g id="text_5">
      <!-- 400 -->
      <defs>
       <path d="M 37.796875 64.3125 
L 12.890625 25.390625 
L 37.796875 25.390625 
z
M 35.203125 72.90625 
L 47.609375 72.90625 
L 47.609375 25.390625 
L 58.015625 25.390625 
L 58.015625 17.1875 
L 47.609375 17.1875 
L 47.609375 0 
L 37.796875 0 
L 37.796875 17.1875 
L 4.890625 17.1875 
L 4.890625 26.703125 
z
" id="BitstreamVeraSans-Roman-34"/>
      </defs>
      <g transform="translate(793.3635 466.718125)scale(0.12 -0.12)">
       <use xlink:href="#BitstreamVeraSans-Roman-34"/>
       <use x="63.623046875" xlink:href="#BitstreamVeraSans-Roman-30"/>
       <use x="127.24609375" xlink:href="#BitstreamVeraSans-Roman-30"/>
      </g>
     </g>
    </g>
    <g id="xtick_6">
     <g id="line2d_15">
      <g>
       <use style="stroke:#000000;stroke-width:0.5;" x="965.52" xlink:href="#mff20ad0697" y="453.6"/>
      </g>
     </g>
     <g id="line2d_16">
      <g>
       <use style="stroke:#000000;stroke-width:0.5;" x="965.52" xlink:href="#m8ab64c9374" y="50.4"/>
      </g>
     </g>
     <g id="text_6">
      <!-- 500 -->
      <defs>
       <path d="M 10.796875 72.90625 
L 49.515625 72.90625 
L 49.515625 64.59375 
L 19.828125 64.59375 
L 19.828125 46.734375 
Q 21.96875 47.46875 24.109375 47.828125 
Q 26.265625 48.1875 28.421875 48.1875 
Q 40.625 48.1875 47.75 41.5 
Q 54.890625 34.8125 54.890625 23.390625 
Q 54.890625 11.625 47.5625 5.09375 
Q 40.234375 -1.421875 26.90625 -1.421875 
Q 22.3125 -1.421875 17.546875 -0.640625 
Q 12.796875 0.140625 7.71875 1.703125 
L 7.71875 11.625 
Q 12.109375 9.234375 16.796875 8.0625 
Q 21.484375 6.890625 26.703125 6.890625 
Q 35.15625 6.890625 40.078125 11.328125 
Q 45.015625 15.765625 45.015625 23.390625 
Q 45.015625 31 40.078125 35.4375 
Q 35.15625 39.890625 26.703125 39.890625 
Q 22.75 39.890625 18.8125 39.015625 
Q 14.890625 38.140625 10.796875 36.28125 
z
" id="BitstreamVeraSans-Roman-35"/>
      </defs>
      <g transform="translate(954.0675 466.718125)scale(0.12 -0.12)">
       <use xlink:href="#BitstreamVeraSans-Roman-35"/>
       <use x="63.623046875" xlink:href="#BitstreamVeraSans-Roman-30"/>
       <use x="127.24609375" xlink:href="#BitstreamVeraSans-Roman-30"/>
      </g>
     </g>
    </g>
    <g id="text_7">
     <!-- Time -->
     <defs>
      <path d="M 56.203125 29.59375 
L 56.203125 25.203125 
L 14.890625 25.203125 
Q 15.484375 15.921875 20.484375 11.0625 
Q 25.484375 6.203125 34.421875 6.203125 
Q 39.59375 6.203125 44.453125 7.46875 
Q 49.3125 8.734375 54.109375 11.28125 
L 54.109375 2.78125 
Q 49.265625 0.734375 44.1875 -0.34375 
Q 39.109375 -1.421875 33.890625 -1.421875 
Q 20.796875 -1.421875 13.15625 6.1875 
Q 5.515625 13.8125 5.515625 26.8125 
Q 5.515625 40.234375 12.765625 48.109375 
Q 20.015625 56 32.328125 56 
Q 43.359375 56 49.78125 48.890625 
Q 56.203125 41.796875 56.203125 29.59375 
M 47.21875 32.234375 
Q 47.125 39.59375 43.09375 43.984375 
Q 39.0625 48.390625 32.421875 48.390625 
Q 24.90625 48.390625 20.390625 44.140625 
Q 15.875 39.890625 15.1875 32.171875 
z
" id="BitstreamVeraSans-Roman-65"/>
      <path d="M 9.421875 54.6875 
L 18.40625 54.6875 
L 18.40625 0 
L 9.421875 0 
z
M 9.421875 75.984375 
L 18.40625 75.984375 
L 18.40625 64.59375 
L 9.421875 64.59375 
z
" id="BitstreamVeraSans-Roman-69"/>
      <path d="M -0.296875 72.90625 
L 61.375 72.90625 
L 61.375 64.59375 
L 35.5 64.59375 
L 35.5 0 
L 25.59375 0 
L 25.59375 64.59375 
L -0.296875 64.59375 
z
" id="BitstreamVeraSans-Roman-54"/>
      <path d="M 52 44.1875 
Q 55.375 50.25 60.0625 53.125 
Q 64.75 56 71.09375 56 
Q 79.640625 56 84.28125 50.015625 
Q 88.921875 44.046875 88.921875 33.015625 
L 88.921875 0 
L 79.890625 0 
L 79.890625 32.71875 
Q 79.890625 40.578125 77.09375 44.375 
Q 74.3125 48.1875 68.609375 48.1875 
Q 61.625 48.1875 57.5625 43.546875 
Q 53.515625 38.921875 53.515625 30.90625 
L 53.515625 0 
L 44.484375 0 
L 44.484375 32.71875 
Q 44.484375 40.625 41.703125 44.40625 
Q 38.921875 48.1875 33.109375 48.1875 
Q 26.21875 48.1875 22.15625 43.53125 
Q 18.109375 38.875 18.109375 30.90625 
L 18.109375 0 
L 9.078125 0 
L 9.078125 54.6875 
L 18.109375 54.6875 
L 18.109375 46.1875 
Q 21.1875 51.21875 25.484375 53.609375 
Q 29.78125 56 35.6875 56 
Q 41.65625 56 45.828125 52.96875 
Q 50 49.953125 52 44.1875 
" id="BitstreamVeraSans-Roman-6d"/>
     </defs>
     <g transform="translate(548.895 483.331875)scale(0.12 -0.12)">
      <use xlink:href="#BitstreamVeraSans-Roman-54"/>
      <use x="61.037109375" xlink:href="#BitstreamVeraSans-Roman-69"/>
      <use x="88.8203125" xlink:href="#BitstreamVeraSans-Roman-6d"/>
      <use x="186.232421875" xlink:href="#BitstreamVeraSans-Roman-65"/>
     </g>
    </g>
   </g>
   <g id="matplotlib.axis_2">
    <g id="ytick_1">
     <g id="line2d_17">
      <defs>
       <path d="M 0 0 
L 4 0 
" id="m33dd9f501d" style="stroke:#000000;stroke-width:0.5;"/>
      </defs>
      <g>
       <use style="stroke:#000000;stroke-width:0.5;" x="162.0" xlink:href="#m33dd9f501d" y="453.6"/>
      </g>
     </g>
     <g id="line2d_18">
      <defs>
       <path d="M 0 0 
L -4 0 
" id="mbfcab6fe95" style="stroke:#000000;stroke-width:0.5;"/>
      </defs>
      <g>
       <use style="stroke:#000000;stroke-width:0.5;" x="965.52" xlink:href="#mbfcab6fe95" y="453.6"/>
      </g>
     </g>
     <g id="text_8">
      <!-- 5.0 -->
      <defs>
       <path d="M 10.6875 12.40625 
L 21 12.40625 
L 21 0 
L 10.6875 0 
z
" id="BitstreamVeraSans-Roman-2e"/>
      </defs>
      <g transform="translate(138.91625 456.91125)scale(0.12 -0.12)">
       <use xlink:href="#BitstreamVeraSans-Roman-35"/>
       <use x="63.623046875" xlink:href="#BitstreamVeraSans-Roman-2e"/>
       <use x="95.41015625" xlink:href="#BitstreamVeraSans-Roman-30"/>
      </g>
     </g>
    </g>
    <g id="ytick_2">
     <g id="line2d_19">
      <g>
       <use style="stroke:#000000;stroke-width:0.5;" x="162.0" xlink:href="#m33dd9f501d" y="372.96"/>
      </g>
     </g>
     <g id="line2d_20">
      <g>
       <use style="stroke:#000000;stroke-width:0.5;" x="965.52" xlink:href="#mbfcab6fe95" y="372.96"/>
      </g>
     </g>
     <g id="text_9">
      <!-- 5.5 -->
      <g transform="translate(138.91625 376.27125)scale(0.12 -0.12)">
       <use xlink:href="#BitstreamVeraSans-Roman-35"/>
       <use x="63.623046875" xlink:href="#BitstreamVeraSans-Roman-2e"/>
       <use x="95.41015625" xlink:href="#BitstreamVeraSans-Roman-35"/>
      </g>
     </g>
    </g>
    <g id="ytick_3">
     <g id="line2d_21">
      <g>
       <use style="stroke:#000000;stroke-width:0.5;" x="162.0" xlink:href="#m33dd9f501d" y="292.32"/>
      </g>
     </g>
     <g id="line2d_22">
      <g>
       <use style="stroke:#000000;stroke-width:0.5;" x="965.52" xlink:href="#mbfcab6fe95" y="292.32"/>
      </g>
     </g>
     <g id="text_10">
      <!-- 6.0 -->
      <defs>
       <path d="M 33.015625 40.375 
Q 26.375 40.375 22.484375 35.828125 
Q 18.609375 31.296875 18.609375 23.390625 
Q 18.609375 15.53125 22.484375 10.953125 
Q 26.375 6.390625 33.015625 6.390625 
Q 39.65625 6.390625 43.53125 10.953125 
Q 47.40625 15.53125 47.40625 23.390625 
Q 47.40625 31.296875 43.53125 35.828125 
Q 39.65625 40.375 33.015625 40.375 
M 52.59375 71.296875 
L 52.59375 62.3125 
Q 48.875 64.0625 45.09375 64.984375 
Q 41.3125 65.921875 37.59375 65.921875 
Q 27.828125 65.921875 22.671875 59.328125 
Q 17.53125 52.734375 16.796875 39.40625 
Q 19.671875 43.65625 24.015625 45.921875 
Q 28.375 48.1875 33.59375 48.1875 
Q 44.578125 48.1875 50.953125 41.515625 
Q 57.328125 34.859375 57.328125 23.390625 
Q 57.328125 12.15625 50.6875 5.359375 
Q 44.046875 -1.421875 33.015625 -1.421875 
Q 20.359375 -1.421875 13.671875 8.265625 
Q 6.984375 17.96875 6.984375 36.375 
Q 6.984375 53.65625 15.1875 63.9375 
Q 23.390625 74.21875 37.203125 74.21875 
Q 40.921875 74.21875 44.703125 73.484375 
Q 48.484375 72.75 52.59375 71.296875 
" id="BitstreamVeraSans-Roman-36"/>
      </defs>
      <g transform="translate(138.91625 295.63125)scale(0.12 -0.12)">
       <use xlink:href="#BitstreamVeraSans-Roman-36"/>
       <use x="63.623046875" xlink:href="#BitstreamVeraSans-Roman-2e"/>
       <use x="95.41015625" xlink:href="#BitstreamVeraSans-Roman-30"/>
      </g>
     </g>
    </g>
    <g id="ytick_4">
     <g id="line2d_23">
      <g>
       <use style="stroke:#000000;stroke-width:0.5;" x="162.0" xlink:href="#m33dd9f501d" y="211.68"/>
      </g>
     </g>
     <g id="line2d_24">
      <g>
       <use style="stroke:#000000;stroke-width:0.5;" x="965.52" xlink:href="#mbfcab6fe95" y="211.68"/>
      </g>
     </g>
     <g id="text_11">
      <!-- 6.5 -->
      <g transform="translate(138.91625 214.99125)scale(0.12 -0.12)">
       <use xlink:href="#BitstreamVeraSans-Roman-36"/>
       <use x="63.623046875" xlink:href="#BitstreamVeraSans-Roman-2e"/>
       <use x="95.41015625" xlink:href="#BitstreamVeraSans-Roman-35"/>
      </g>
     </g>
    </g>
    <g id="ytick_5">
     <g id="line2d_25">
      <g>
       <use style="stroke:#000000;stroke-width:0.5;" x="162.0" xlink:href="#m33dd9f501d" y="131.04"/>
      </g>
     </g>
     <g id="line2d_26">
      <g>
       <use style="stroke:#000000;stroke-width:0.5;" x="965.52" xlink:href="#mbfcab6fe95" y="131.04"/>
      </g>
     </g>
     <g id="text_12">
      <!-- 7.0 -->
      <defs>
       <path d="M 8.203125 72.90625 
L 55.078125 72.90625 
L 55.078125 68.703125 
L 28.609375 0 
L 18.3125 0 
L 43.21875 64.59375 
L 8.203125 64.59375 
z
" id="BitstreamVeraSans-Roman-37"/>
      </defs>
      <g transform="translate(138.91625 134.35125)scale(0.12 -0.12)">
       <use xlink:href="#BitstreamVeraSans-Roman-37"/>
       <use x="63.623046875" xlink:href="#BitstreamVeraSans-Roman-2e"/>
       <use x="95.41015625" xlink:href="#BitstreamVeraSans-Roman-30"/>
      </g>
     </g>
    </g>
    <g id="ytick_6">
     <g id="line2d_27">
      <g>
       <use style="stroke:#000000;stroke-width:0.5;" x="162.0" xlink:href="#m33dd9f501d" y="50.4"/>
      </g>
     </g>
     <g id="line2d_28">
      <g>
       <use style="stroke:#000000;stroke-width:0.5;" x="965.52" xlink:href="#mbfcab6fe95" y="50.4"/>
      </g>
     </g>
     <g id="text_13">
      <!-- 7.5 -->
      <g transform="translate(138.91625 53.71125)scale(0.12 -0.12)">
       <use xlink:href="#BitstreamVeraSans-Roman-37"/>
       <use x="63.623046875" xlink:href="#BitstreamVeraSans-Roman-2e"/>
       <use x="95.41015625" xlink:href="#BitstreamVeraSans-Roman-35"/>
      </g>
     </g>
    </g>
    <g id="text_14">
     <!-- neighbor distance -->
     <defs>
      <path id="BitstreamVeraSans-Roman-20"/>
      <path d="M 54.890625 33.015625 
L 54.890625 0 
L 45.90625 0 
L 45.90625 32.71875 
Q 45.90625 40.484375 42.875 44.328125 
Q 39.84375 48.1875 33.796875 48.1875 
Q 26.515625 48.1875 22.3125 43.546875 
Q 18.109375 38.921875 18.109375 30.90625 
L 18.109375 0 
L 9.078125 0 
L 9.078125 54.6875 
L 18.109375 54.6875 
L 18.109375 46.1875 
Q 21.34375 51.125 25.703125 53.5625 
Q 30.078125 56 35.796875 56 
Q 45.21875 56 50.046875 50.171875 
Q 54.890625 44.34375 54.890625 33.015625 
" id="BitstreamVeraSans-Roman-6e"/>
      <path d="M 34.28125 27.484375 
Q 23.390625 27.484375 19.1875 25 
Q 14.984375 22.515625 14.984375 16.5 
Q 14.984375 11.71875 18.140625 8.90625 
Q 21.296875 6.109375 26.703125 6.109375 
Q 34.1875 6.109375 38.703125 11.40625 
Q 43.21875 16.703125 43.21875 25.484375 
L 43.21875 27.484375 
z
M 52.203125 31.203125 
L 52.203125 0 
L 43.21875 0 
L 43.21875 8.296875 
Q 40.140625 3.328125 35.546875 0.953125 
Q 30.953125 -1.421875 24.3125 -1.421875 
Q 15.921875 -1.421875 10.953125 3.296875 
Q 6 8.015625 6 15.921875 
Q 6 25.140625 12.171875 29.828125 
Q 18.359375 34.515625 30.609375 34.515625 
L 43.21875 34.515625 
L 43.21875 35.40625 
Q 43.21875 41.609375 39.140625 45 
Q 35.0625 48.390625 27.6875 48.390625 
Q 23 48.390625 18.546875 47.265625 
Q 14.109375 46.140625 10.015625 43.890625 
L 10.015625 52.203125 
Q 14.9375 54.109375 19.578125 55.046875 
Q 24.21875 56 28.609375 56 
Q 40.484375 56 46.34375 49.84375 
Q 52.203125 43.703125 52.203125 31.203125 
" id="BitstreamVeraSans-Roman-61"/>
      <path d="M 30.609375 48.390625 
Q 23.390625 48.390625 19.1875 42.75 
Q 14.984375 37.109375 14.984375 27.296875 
Q 14.984375 17.484375 19.15625 11.84375 
Q 23.34375 6.203125 30.609375 6.203125 
Q 37.796875 6.203125 41.984375 11.859375 
Q 46.1875 17.53125 46.1875 27.296875 
Q 46.1875 37.015625 41.984375 42.703125 
Q 37.796875 48.390625 30.609375 48.390625 
M 30.609375 56 
Q 42.328125 56 49.015625 48.375 
Q 55.71875 40.765625 55.71875 27.296875 
Q 55.71875 13.875 49.015625 6.21875 
Q 42.328125 -1.421875 30.609375 -1.421875 
Q 18.84375 -1.421875 12.171875 6.21875 
Q 5.515625 13.875 5.515625 27.296875 
Q 5.515625 40.765625 12.171875 48.375 
Q 18.84375 56 30.609375 56 
" id="BitstreamVeraSans-Roman-6f"/>
      <path d="M 18.3125 70.21875 
L 18.3125 54.6875 
L 36.8125 54.6875 
L 36.8125 47.703125 
L 18.3125 47.703125 
L 18.3125 18.015625 
Q 18.3125 11.328125 20.140625 9.421875 
Q 21.96875 7.515625 27.59375 7.515625 
L 36.8125 7.515625 
L 36.8125 0 
L 27.59375 0 
Q 17.1875 0 13.234375 3.875 
Q 9.28125 7.765625 9.28125 18.015625 
L 9.28125 47.703125 
L 2.6875 47.703125 
L 2.6875 54.6875 
L 9.28125 54.6875 
L 9.28125 70.21875 
z
" id="BitstreamVeraSans-Roman-74"/>
      <path d="M 54.890625 33.015625 
L 54.890625 0 
L 45.90625 0 
L 45.90625 32.71875 
Q 45.90625 40.484375 42.875 44.328125 
Q 39.84375 48.1875 33.796875 48.1875 
Q 26.515625 48.1875 22.3125 43.546875 
Q 18.109375 38.921875 18.109375 30.90625 
L 18.109375 0 
L 9.078125 0 
L 9.078125 75.984375 
L 18.109375 75.984375 
L 18.109375 46.1875 
Q 21.34375 51.125 25.703125 53.5625 
Q 30.078125 56 35.796875 56 
Q 45.21875 56 50.046875 50.171875 
Q 54.890625 44.34375 54.890625 33.015625 
" id="BitstreamVeraSans-Roman-68"/>
      <path d="M 45.40625 46.390625 
L 45.40625 75.984375 
L 54.390625 75.984375 
L 54.390625 0 
L 45.40625 0 
L 45.40625 8.203125 
Q 42.578125 3.328125 38.25 0.953125 
Q 33.9375 -1.421875 27.875 -1.421875 
Q 17.96875 -1.421875 11.734375 6.484375 
Q 5.515625 14.40625 5.515625 27.296875 
Q 5.515625 40.1875 11.734375 48.09375 
Q 17.96875 56 27.875 56 
Q 33.9375 56 38.25 53.625 
Q 42.578125 51.265625 45.40625 46.390625 
M 14.796875 27.296875 
Q 14.796875 17.390625 18.875 11.75 
Q 22.953125 6.109375 30.078125 6.109375 
Q 37.203125 6.109375 41.296875 11.75 
Q 45.40625 17.390625 45.40625 27.296875 
Q 45.40625 37.203125 41.296875 42.84375 
Q 37.203125 48.484375 30.078125 48.484375 
Q 22.953125 48.484375 18.875 42.84375 
Q 14.796875 37.203125 14.796875 27.296875 
" id="BitstreamVeraSans-Roman-64"/>
      <path d="M 45.40625 27.984375 
Q 45.40625 37.75 41.375 43.109375 
Q 37.359375 48.484375 30.078125 48.484375 
Q 22.859375 48.484375 18.828125 43.109375 
Q 14.796875 37.75 14.796875 27.984375 
Q 14.796875 18.265625 18.828125 12.890625 
Q 22.859375 7.515625 30.078125 7.515625 
Q 37.359375 7.515625 41.375 12.890625 
Q 45.40625 18.265625 45.40625 27.984375 
M 54.390625 6.78125 
Q 54.390625 -7.171875 48.1875 -13.984375 
Q 42 -20.796875 29.203125 -20.796875 
Q 24.46875 -20.796875 20.265625 -20.09375 
Q 16.0625 -19.390625 12.109375 -17.921875 
L 12.109375 -9.1875 
Q 16.0625 -11.328125 19.921875 -12.34375 
Q 23.78125 -13.375 27.78125 -13.375 
Q 36.625 -13.375 41.015625 -8.765625 
Q 45.40625 -4.15625 45.40625 5.171875 
L 45.40625 9.625 
Q 42.625 4.78125 38.28125 2.390625 
Q 33.9375 0 27.875 0 
Q 17.828125 0 11.671875 7.65625 
Q 5.515625 15.328125 5.515625 27.984375 
Q 5.515625 40.671875 11.671875 48.328125 
Q 17.828125 56 27.875 56 
Q 33.9375 56 38.28125 53.609375 
Q 42.625 51.21875 45.40625 46.390625 
L 45.40625 54.6875 
L 54.390625 54.6875 
z
" id="BitstreamVeraSans-Roman-67"/>
      <path d="M 41.109375 46.296875 
Q 39.59375 47.171875 37.8125 47.578125 
Q 36.03125 48 33.890625 48 
Q 26.265625 48 22.1875 43.046875 
Q 18.109375 38.09375 18.109375 28.8125 
L 18.109375 0 
L 9.078125 0 
L 9.078125 54.6875 
L 18.109375 54.6875 
L 18.109375 46.1875 
Q 20.953125 51.171875 25.484375 53.578125 
Q 30.03125 56 36.53125 56 
Q 37.453125 56 38.578125 55.875 
Q 39.703125 55.765625 41.0625 55.515625 
z
" id="BitstreamVeraSans-Roman-72"/>
      <path d="M 44.28125 53.078125 
L 44.28125 44.578125 
Q 40.484375 46.53125 36.375 47.5 
Q 32.28125 48.484375 27.875 48.484375 
Q 21.1875 48.484375 17.84375 46.4375 
Q 14.5 44.390625 14.5 40.28125 
Q 14.5 37.15625 16.890625 35.375 
Q 19.28125 33.59375 26.515625 31.984375 
L 29.59375 31.296875 
Q 39.15625 29.25 43.1875 25.515625 
Q 47.21875 21.78125 47.21875 15.09375 
Q 47.21875 7.46875 41.1875 3.015625 
Q 35.15625 -1.421875 24.609375 -1.421875 
Q 20.21875 -1.421875 15.453125 -0.5625 
Q 10.6875 0.296875 5.421875 2 
L 5.421875 11.28125 
Q 10.40625 8.6875 15.234375 7.390625 
Q 20.0625 6.109375 24.8125 6.109375 
Q 31.15625 6.109375 34.5625 8.28125 
Q 37.984375 10.453125 37.984375 14.40625 
Q 37.984375 18.0625 35.515625 20.015625 
Q 33.0625 21.96875 24.703125 23.78125 
L 21.578125 24.515625 
Q 13.234375 26.265625 9.515625 29.90625 
Q 5.8125 33.546875 5.8125 39.890625 
Q 5.8125 47.609375 11.28125 51.796875 
Q 16.75 56 26.8125 56 
Q 31.78125 56 36.171875 55.265625 
Q 40.578125 54.546875 44.28125 53.078125 
" id="BitstreamVeraSans-Roman-73"/>
      <path d="M 48.78125 52.59375 
L 48.78125 44.1875 
Q 44.96875 46.296875 41.140625 47.34375 
Q 37.3125 48.390625 33.40625 48.390625 
Q 24.65625 48.390625 19.8125 42.84375 
Q 14.984375 37.3125 14.984375 27.296875 
Q 14.984375 17.28125 19.8125 11.734375 
Q 24.65625 6.203125 33.40625 6.203125 
Q 37.3125 6.203125 41.140625 7.25 
Q 44.96875 8.296875 48.78125 10.40625 
L 48.78125 2.09375 
Q 45.015625 0.34375 40.984375 -0.53125 
Q 36.96875 -1.421875 32.421875 -1.421875 
Q 20.0625 -1.421875 12.78125 6.34375 
Q 5.515625 14.109375 5.515625 27.296875 
Q 5.515625 40.671875 12.859375 48.328125 
Q 20.21875 56 33.015625 56 
Q 37.15625 56 41.109375 55.140625 
Q 45.0625 54.296875 48.78125 52.59375 
" id="BitstreamVeraSans-Roman-63"/>
      <path d="M 48.6875 27.296875 
Q 48.6875 37.203125 44.609375 42.84375 
Q 40.53125 48.484375 33.40625 48.484375 
Q 26.265625 48.484375 22.1875 42.84375 
Q 18.109375 37.203125 18.109375 27.296875 
Q 18.109375 17.390625 22.1875 11.75 
Q 26.265625 6.109375 33.40625 6.109375 
Q 40.53125 6.109375 44.609375 11.75 
Q 48.6875 17.390625 48.6875 27.296875 
M 18.109375 46.390625 
Q 20.953125 51.265625 25.265625 53.625 
Q 29.59375 56 35.59375 56 
Q 45.5625 56 51.78125 48.09375 
Q 58.015625 40.1875 58.015625 27.296875 
Q 58.015625 14.40625 51.78125 6.484375 
Q 45.5625 -1.421875 35.59375 -1.421875 
Q 29.59375 -1.421875 25.265625 0.953125 
Q 20.953125 3.328125 18.109375 8.203125 
L 18.109375 0 
L 9.078125 0 
L 9.078125 75.984375 
L 18.109375 75.984375 
z
" id="BitstreamVeraSans-Roman-62"/>
     </defs>
     <g transform="translate(131.420625 306.050625)rotate(-90.0)scale(0.12 -0.12)">
      <use xlink:href="#BitstreamVeraSans-Roman-6e"/>
      <use x="63.37890625" xlink:href="#BitstreamVeraSans-Roman-65"/>
      <use x="124.90234375" xlink:href="#BitstreamVeraSans-Roman-69"/>
      <use x="152.685546875" xlink:href="#BitstreamVeraSans-Roman-67"/>
      <use x="216.162109375" xlink:href="#BitstreamVeraSans-Roman-68"/>
      <use x="279.541015625" xlink:href="#BitstreamVeraSans-Roman-62"/>
      <use x="343.017578125" xlink:href="#BitstreamVeraSans-Roman-6f"/>
      <use x="404.19921875" xlink:href="#BitstreamVeraSans-Roman-72"/>
      <use x="445.3125" xlink:href="#BitstreamVeraSans-Roman-20"/>
      <use x="477.099609375" xlink:href="#BitstreamVeraSans-Roman-64"/>
      <use x="540.576171875" xlink:href="#BitstreamVeraSans-Roman-69"/>
      <use x="568.359375" xlink:href="#BitstreamVeraSans-Roman-73"/>
      <use x="620.458984375" xlink:href="#BitstreamVeraSans-Roman-74"/>
      <use x="659.66796875" xlink:href="#BitstreamVeraSans-Roman-61"/>
      <use x="720.947265625" xlink:href="#BitstreamVeraSans-Roman-6e"/>
      <use x="784.326171875" xlink:href="#BitstreamVeraSans-Roman-63"/>
      <use x="839.306640625" xlink:href="#BitstreamVeraSans-Roman-65"/>
     </g>
    </g>
   </g>
   <g id="text_15">
    <!-- Separation: neighbor distance -->
    <defs>
     <path d="M 11.71875 12.40625 
L 22.015625 12.40625 
L 22.015625 0 
L 11.71875 0 
z
M 11.71875 51.703125 
L 22.015625 51.703125 
L 22.015625 39.3125 
L 11.71875 39.3125 
z
" id="BitstreamVeraSans-Roman-3a"/>
     <path d="M 53.515625 70.515625 
L 53.515625 60.890625 
Q 47.90625 63.578125 42.921875 64.890625 
Q 37.9375 66.21875 33.296875 66.21875 
Q 25.25 66.21875 20.875 63.09375 
Q 16.5 59.96875 16.5 54.203125 
Q 16.5 49.359375 19.40625 46.890625 
Q 22.3125 44.4375 30.421875 42.921875 
L 36.375 41.703125 
Q 47.40625 39.59375 52.65625 34.296875 
Q 57.90625 29 57.90625 20.125 
Q 57.90625 9.515625 50.796875 4.046875 
Q 43.703125 -1.421875 29.984375 -1.421875 
Q 24.8125 -1.421875 18.96875 -0.25 
Q 13.140625 0.921875 6.890625 3.21875 
L 6.890625 13.375 
Q 12.890625 10.015625 18.65625 8.296875 
Q 24.421875 6.59375 29.984375 6.59375 
Q 38.421875 6.59375 43.015625 9.90625 
Q 47.609375 13.234375 47.609375 19.390625 
Q 47.609375 24.75 44.3125 27.78125 
Q 41.015625 30.8125 33.5 32.328125 
L 27.484375 33.5 
Q 16.453125 35.6875 11.515625 40.375 
Q 6.59375 45.0625 6.59375 53.421875 
Q 6.59375 63.09375 13.40625 68.65625 
Q 20.21875 74.21875 32.171875 74.21875 
Q 37.3125 74.21875 42.625 73.28125 
Q 47.953125 72.359375 53.515625 70.515625 
" id="BitstreamVeraSans-Roman-53"/>
     <path d="M 18.109375 8.203125 
L 18.109375 -20.796875 
L 9.078125 -20.796875 
L 9.078125 54.6875 
L 18.109375 54.6875 
L 18.109375 46.390625 
Q 20.953125 51.265625 25.265625 53.625 
Q 29.59375 56 35.59375 56 
Q 45.5625 56 51.78125 48.09375 
Q 58.015625 40.1875 58.015625 27.296875 
Q 58.015625 14.40625 51.78125 6.484375 
Q 45.5625 -1.421875 35.59375 -1.421875 
Q 29.59375 -1.421875 25.265625 0.953125 
Q 20.953125 3.328125 18.109375 8.203125 
M 48.6875 27.296875 
Q 48.6875 37.203125 44.609375 42.84375 
Q 40.53125 48.484375 33.40625 48.484375 
Q 26.265625 48.484375 22.1875 42.84375 
Q 18.109375 37.203125 18.109375 27.296875 
Q 18.109375 17.390625 22.1875 11.75 
Q 26.265625 6.109375 33.40625 6.109375 
Q 40.53125 6.109375 44.609375 11.75 
Q 48.6875 17.390625 48.6875 27.296875 
" id="BitstreamVeraSans-Roman-70"/>
    </defs>
    <g transform="translate(455.03775 45.4)scale(0.144 -0.144)">
     <use xlink:href="#BitstreamVeraSans-Roman-53"/>
     <use x="63.4765625" xlink:href="#BitstreamVeraSans-Roman-65"/>
     <use x="125.0" xlink:href="#BitstreamVeraSans-Roman-70"/>
     <use x="188.4765625" xlink:href="#BitstreamVeraSans-Roman-61"/>
     <use x="249.755859375" xlink:href="#BitstreamVeraSans-Roman-72"/>
     <use x="290.869140625" xlink:href="#BitstreamVeraSans-Roman-61"/>
     <use x="352.1484375" xlink:href="#BitstreamVeraSans-Roman-74"/>
     <use x="391.357421875" xlink:href="#BitstreamVeraSans-Roman-69"/>
     <use x="419.140625" xlink:href="#BitstreamVeraSans-Roman-6f"/>
     <use x="480.322265625" xlink:href="#BitstreamVeraSans-Roman-6e"/>
     <use x="543.701171875" xlink:href="#BitstreamVeraSans-Roman-3a"/>
     <use x="577.392578125" xlink:href="#BitstreamVeraSans-Roman-20"/>
     <use x="609.1796875" xlink:href="#BitstreamVeraSans-Roman-6e"/>
     <use x="672.55859375" xlink:href="#BitstreamVeraSans-Roman-65"/>
     <use x="734.08203125" xlink:href="#BitstreamVeraSans-Roman-69"/>
     <use x="761.865234375" xlink:href="#BitstreamVeraSans-Roman-67"/>
     <use x="825.341796875" xlink:href="#BitstreamVeraSans-Roman-68"/>
     <use x="888.720703125" xlink:href="#BitstreamVeraSans-Roman-62"/>
     <use x="952.197265625" xlink:href="#BitstreamVeraSans-Roman-6f"/>
     <use x="1013.37890625" xlink:href="#BitstreamVeraSans-Roman-72"/>
     <use x="1054.4921875" xlink:href="#BitstreamVeraSans-Roman-20"/>
     <use x="1086.27929688" xlink:href="#BitstreamVeraSans-Roman-64"/>
     <use x="1149.75585938" xlink:href="#BitstreamVeraSans-Roman-69"/>
     <use x="1177.5390625" xlink:href="#BitstreamVeraSans-Roman-73"/>
     <use x="1229.63867188" xlink:href="#BitstreamVeraSans-Roman-74"/>
     <use x="1268.84765625" xlink:href="#BitstreamVeraSans-Roman-61"/>
     <use x="1330.12695312" xlink:href="#BitstreamVeraSans-Roman-6e"/>
     <use x="1393.50585938" xlink:href="#BitstreamVeraSans-Roman-63"/>
     <use x="1448.48632812" xlink:href="#BitstreamVeraSans-Roman-65"/>
    </g>
   </g>
   <g id="legend_1">
    <g id="patch_7">
     <path d="M 972.72 138.402 
L 1065.024 138.402 
L 1065.024 49.536 
L 972.72 49.536 
z
" style="fill:#ffffff;stroke:#000000;stroke-linejoin:miter;"/>
    </g>
    <g id="line2d_29">
     <path d="M 982.8 61.19775 
L 1002.96 61.19775 
" style="fill:none;stroke:#0000ff;stroke-linecap:square;"/>
    </g>
    <g id="line2d_30"/>
    <g id="text_16">
     <!-- $S_w=1$ -->
     <defs>
      <path d="M 9.28125 0 
L 9.28125 3.515625 
Q 21.78125 3.515625 21.78125 6.6875 
L 21.78125 59.1875 
Q 16.609375 56.6875 8.6875 56.6875 
L 8.6875 60.203125 
Q 20.953125 60.203125 27.203125 66.609375 
L 28.609375 66.609375 
Q 28.953125 66.609375 29.265625 66.328125 
Q 29.59375 66.0625 29.59375 65.71875 
L 29.59375 6.6875 
Q 29.59375 3.515625 42.09375 3.515625 
L 42.09375 0 
z
" id="Cmr10-31"/>
      <path d="M 6.109375 -2.203125 
Q 5.8125 -2.203125 5.5625 -1.859375 
Q 5.328125 -1.515625 5.328125 -1.21875 
L 11.078125 22.125 
Q 11.28125 22.703125 11.921875 22.703125 
L 13.09375 22.703125 
Q 13.484375 22.703125 13.703125 22.40625 
Q 13.921875 22.125 13.921875 21.6875 
Q 13.09375 18.265625 13.09375 15.578125 
Q 13.09375 8.34375 18.0625 4.828125 
Q 23.046875 1.3125 30.609375 1.3125 
Q 33.890625 1.3125 37.0625 2.921875 
Q 40.234375 4.546875 42.59375 7.125 
Q 44.96875 9.71875 46.375 12.90625 
Q 47.796875 16.109375 47.796875 19.390625 
Q 47.796875 22.90625 45.9375 25.65625 
Q 44.09375 28.421875 40.828125 29.203125 
L 28.609375 32.421875 
Q 23.6875 33.734375 20.75 37.71875 
Q 17.828125 41.703125 17.828125 46.6875 
Q 17.828125 52.6875 21.390625 58.25 
Q 24.953125 63.8125 30.6875 67.15625 
Q 36.421875 70.515625 42.390625 70.515625 
Q 46.96875 70.515625 50.796875 68.828125 
Q 54.640625 67.140625 56.6875 63.484375 
L 62.40625 70.21875 
Q 62.984375 70.515625 63.09375 70.515625 
L 63.71875 70.515625 
Q 64.109375 70.515625 64.34375 70.171875 
Q 64.59375 69.828125 64.59375 69.484375 
L 58.796875 46.296875 
Q 58.640625 45.609375 58.015625 45.609375 
L 56.78125 45.609375 
Q 55.90625 45.609375 55.90625 46.6875 
Q 56.390625 49.859375 56.390625 52.203125 
Q 56.390625 56.84375 54.796875 60.28125 
Q 53.21875 63.71875 50.015625 65.5 
Q 46.828125 67.28125 42.09375 67.28125 
Q 38.09375 67.28125 34.125 64.984375 
Q 30.171875 62.703125 27.734375 58.890625 
Q 25.296875 55.078125 25.296875 50.984375 
Q 25.296875 47.75 27.171875 45.265625 
Q 29.046875 42.78125 32.171875 41.890625 
L 44.390625 38.71875 
Q 47.703125 37.84375 50.171875 35.625 
Q 52.640625 33.40625 53.90625 30.34375 
Q 55.171875 27.296875 55.171875 23.6875 
Q 55.171875 18.953125 53.171875 14.328125 
Q 51.171875 9.71875 47.578125 5.90625 
Q 44 2.09375 39.453125 -0.046875 
Q 34.90625 -2.203125 30.171875 -2.203125 
Q 18.265625 -2.203125 13.09375 4.78125 
L 7.515625 -1.90625 
Q 6.9375 -2.203125 6.78125 -2.203125 
z
" id="Cmmi10-53"/>
      <path d="M 10.796875 11.625 
Q 10.796875 13.71875 11.359375 16.453125 
Q 11.921875 19.1875 12.59375 21.3125 
Q 13.28125 23.4375 14.90625 27.828125 
Q 16.546875 32.234375 16.703125 32.625 
Q 18.015625 36.28125 18.015625 38.625 
Q 18.015625 41.609375 15.828125 41.609375 
Q 11.859375 41.609375 9.296875 37.53125 
Q 6.734375 33.453125 5.515625 28.421875 
Q 5.328125 27.78125 4.6875 27.78125 
L 3.515625 27.78125 
Q 2.6875 27.78125 2.6875 28.71875 
L 2.6875 29 
Q 4.296875 34.96875 7.609375 39.578125 
Q 10.9375 44.1875 16.015625 44.1875 
Q 19.578125 44.1875 22.046875 41.84375 
Q 24.515625 39.5 24.515625 35.890625 
Q 24.515625 34.03125 23.6875 31.984375 
Q 22.515625 28.953125 20.921875 24.703125 
Q 19.34375 20.453125 18.453125 16.984375 
Q 17.578125 13.53125 17.578125 10.296875 
Q 17.578125 6.390625 19.625 3.953125 
Q 21.6875 1.515625 25.59375 1.515625 
Q 30.90625 1.515625 34.421875 9.625 
Q 34.28125 10.203125 34.28125 11.28125 
Q 34.28125 13.96875 35.109375 17.390625 
L 40.71875 39.890625 
Q 41.0625 41.21875 42.28125 42.15625 
Q 43.5 43.109375 44.921875 43.109375 
Q 46.09375 43.109375 47 42.328125 
Q 47.90625 41.546875 47.90625 40.28125 
Q 47.90625 39.703125 47.796875 39.5 
L 42.1875 17.1875 
Q 41.21875 13.1875 41.21875 10.015625 
Q 41.21875 6.25 42.9375 3.875 
Q 44.671875 1.515625 48.390625 1.515625 
Q 54.828125 1.515625 58.984375 10.015625 
Q 60.546875 13.03125 62.46875 18.9375 
Q 64.40625 24.859375 64.40625 27.984375 
Q 64.40625 30.859375 63.46875 32.546875 
Q 62.546875 34.234375 60.90625 36.1875 
Q 59.28125 38.140625 59.28125 39.109375 
Q 59.28125 41.015625 60.90625 42.640625 
Q 62.546875 44.28125 64.5 44.28125 
Q 66.890625 44.28125 67.9375 42.078125 
Q 69 39.890625 69 37.109375 
Q 69 33.734375 67.875 28.53125 
Q 66.75 23.34375 65.03125 18.09375 
Q 63.328125 12.84375 61.8125 9.71875 
Q 56.34375 -1.125 48.1875 -1.125 
Q 44 -1.125 40.53125 0.484375 
Q 37.0625 2.09375 35.40625 5.609375 
Q 33.796875 2.734375 31.171875 0.796875 
Q 28.5625 -1.125 25.390625 -1.125 
Q 18.796875 -1.125 14.796875 2.015625 
Q 10.796875 5.171875 10.796875 11.625 
" id="Cmmi10-77"/>
      <path d="M 7.515625 13.28125 
Q 6.6875 13.28125 6.140625 13.90625 
Q 5.609375 14.546875 5.609375 15.28125 
Q 5.609375 16.109375 6.140625 16.6875 
Q 6.6875 17.28125 7.515625 17.28125 
L 70.3125 17.28125 
Q 71.046875 17.28125 71.578125 16.6875 
Q 72.125 16.109375 72.125 15.28125 
Q 72.125 14.546875 71.578125 13.90625 
Q 71.046875 13.28125 70.3125 13.28125 
z
M 7.515625 32.71875 
Q 6.6875 32.71875 6.140625 33.296875 
Q 5.609375 33.890625 5.609375 34.71875 
Q 5.609375 35.453125 6.140625 36.078125 
Q 6.6875 36.71875 7.515625 36.71875 
L 70.3125 36.71875 
Q 71.046875 36.71875 71.578125 36.078125 
Q 72.125 35.453125 72.125 34.71875 
Q 72.125 33.890625 71.578125 33.296875 
Q 71.046875 32.71875 70.3125 32.71875 
z
" id="Cmr10-3d"/>
     </defs>
     <g transform="translate(1018.8 66.23775)scale(0.144 -0.144)">
      <use transform="translate(0.0 0.484375)" xlink:href="#Cmmi10-53"/>
      <use transform="translate(61.279296875 -16.521875)scale(0.7)" xlink:href="#Cmmi10-77"/>
      <use transform="translate(135.254296875 0.484375)" xlink:href="#Cmr10-3d"/>
      <use transform="translate(230.4984375 0.484375)" xlink:href="#Cmr10-31"/>
     </g>
    </g>
    <g id="line2d_31">
     <path d="M 982.8 82.33425 
L 1002.96 82.33425 
" style="fill:none;stroke:#008000;stroke-linecap:square;"/>
    </g>
    <g id="line2d_32"/>
    <g id="text_17">
     <!-- $S_w=3$ -->
     <defs>
      <path d="M 9.515625 7.71875 
Q 11.859375 4.296875 15.8125 2.640625 
Q 19.78125 0.984375 24.3125 0.984375 
Q 30.125 0.984375 32.5625 5.9375 
Q 35.015625 10.890625 35.015625 17.1875 
Q 35.015625 20.015625 34.5 22.84375 
Q 33.984375 25.6875 32.765625 28.125 
Q 31.546875 30.5625 29.421875 32.03125 
Q 27.296875 33.5 24.21875 33.5 
L 17.578125 33.5 
Q 16.703125 33.5 16.703125 34.421875 
L 16.703125 35.296875 
Q 16.703125 36.078125 17.578125 36.078125 
L 23.09375 36.53125 
Q 26.609375 36.53125 28.921875 39.15625 
Q 31.25 41.796875 32.328125 45.578125 
Q 33.40625 49.359375 33.40625 52.78125 
Q 33.40625 57.5625 31.15625 60.640625 
Q 28.90625 63.71875 24.3125 63.71875 
Q 20.515625 63.71875 17.046875 62.28125 
Q 13.578125 60.84375 11.53125 57.90625 
Q 11.71875 57.953125 11.859375 57.984375 
Q 12.015625 58.015625 12.203125 58.015625 
Q 14.453125 58.015625 15.96875 56.453125 
Q 17.484375 54.890625 17.484375 52.6875 
Q 17.484375 50.53125 15.96875 48.96875 
Q 14.453125 47.40625 12.203125 47.40625 
Q 10.015625 47.40625 8.453125 48.96875 
Q 6.890625 50.53125 6.890625 52.6875 
Q 6.890625 56.984375 9.46875 60.15625 
Q 12.0625 63.328125 16.140625 64.96875 
Q 20.21875 66.609375 24.3125 66.609375 
Q 27.34375 66.609375 30.703125 65.703125 
Q 34.078125 64.796875 36.8125 63.109375 
Q 39.546875 61.421875 41.28125 58.78125 
Q 43.015625 56.15625 43.015625 52.78125 
Q 43.015625 48.578125 41.140625 45.015625 
Q 39.265625 41.453125 35.984375 38.859375 
Q 32.71875 36.28125 28.8125 35.015625 
Q 33.15625 34.1875 37.0625 31.734375 
Q 40.96875 29.296875 43.328125 25.484375 
Q 45.703125 21.6875 45.703125 17.28125 
Q 45.703125 11.765625 42.671875 7.296875 
Q 39.65625 2.828125 34.71875 0.3125 
Q 29.78125 -2.203125 24.3125 -2.203125 
Q 19.625 -2.203125 14.90625 -0.40625 
Q 10.203125 1.375 7.203125 4.9375 
Q 4.203125 8.5 4.203125 13.484375 
Q 4.203125 15.96875 5.859375 17.625 
Q 7.515625 19.28125 10.015625 19.28125 
Q 11.625 19.28125 12.96875 18.53125 
Q 14.3125 17.78125 15.0625 16.40625 
Q 15.828125 15.046875 15.828125 13.484375 
Q 15.828125 11.03125 14.109375 9.375 
Q 12.40625 7.71875 10.015625 7.71875 
z
" id="Cmr10-33"/>
     </defs>
     <g transform="translate(1018.8 87.37425)scale(0.144 -0.144)">
      <use transform="translate(0.0 0.484375)" xlink:href="#Cmmi10-53"/>
      <use transform="translate(61.279296875 -16.521875)scale(0.7)" xlink:href="#Cmmi10-77"/>
      <use transform="translate(135.254296875 0.484375)" xlink:href="#Cmr10-3d"/>
      <use transform="translate(230.4984375 0.484375)" xlink:href="#Cmr10-33"/>
     </g>
    </g>
    <g id="line2d_33">
     <path d="M 982.8 103.47075 
L 1002.96 103.47075 
" style="fill:none;stroke:#ff0000;stroke-linecap:square;"/>
    </g>
    <g id="line2d_34"/>
    <g id="text_18">
     <!-- $S_w=5$ -->
     <defs>
      <path d="M 8.6875 11.375 
Q 9.71875 8.453125 11.84375 6.046875 
Q 13.96875 3.65625 16.875 2.3125 
Q 19.78125 0.984375 22.90625 0.984375 
Q 30.125 0.984375 32.859375 6.59375 
Q 35.59375 12.203125 35.59375 20.21875 
Q 35.59375 23.6875 35.46875 26.046875 
Q 35.359375 28.421875 34.8125 30.609375 
Q 33.890625 34.125 31.5625 36.765625 
Q 29.25 39.40625 25.875 39.40625 
Q 22.515625 39.40625 20.09375 38.375 
Q 17.671875 37.359375 16.15625 35.984375 
Q 14.65625 34.625 13.484375 33.109375 
Q 12.3125 31.59375 12.015625 31.5 
L 10.890625 31.5 
Q 10.640625 31.5 10.265625 31.8125 
Q 9.90625 32.125 9.90625 32.421875 
L 9.90625 65.828125 
Q 9.90625 66.0625 10.21875 66.328125 
Q 10.546875 66.609375 10.890625 66.609375 
L 11.1875 66.609375 
Q 17.921875 63.375 25.484375 63.375 
Q 32.90625 63.375 39.796875 66.609375 
L 40.09375 66.609375 
Q 40.4375 66.609375 40.71875 66.359375 
Q 41.015625 66.109375 41.015625 65.828125 
L 41.015625 64.890625 
Q 41.015625 64.40625 40.828125 64.40625 
Q 37.40625 59.859375 32.25 57.3125 
Q 27.09375 54.78125 21.578125 54.78125 
Q 17.578125 54.78125 13.375 55.90625 
L 13.375 37.015625 
Q 16.703125 39.703125 19.3125 40.84375 
Q 21.921875 42 25.984375 42 
Q 31.5 42 35.859375 38.8125 
Q 40.234375 35.640625 42.578125 30.53125 
Q 44.921875 25.4375 44.921875 20.125 
Q 44.921875 14.109375 41.96875 8.984375 
Q 39.015625 3.859375 33.9375 0.828125 
Q 28.859375 -2.203125 22.90625 -2.203125 
Q 17.96875 -2.203125 13.84375 0.328125 
Q 9.71875 2.875 7.34375 7.171875 
Q 4.984375 11.46875 4.984375 16.3125 
Q 4.984375 18.5625 6.4375 19.96875 
Q 7.90625 21.390625 10.109375 21.390625 
Q 12.3125 21.390625 13.796875 19.9375 
Q 15.28125 18.5 15.28125 16.3125 
Q 15.28125 14.15625 13.796875 12.671875 
Q 12.3125 11.1875 10.109375 11.1875 
Q 9.765625 11.1875 9.328125 11.25 
Q 8.890625 11.328125 8.6875 11.375 
" id="Cmr10-35"/>
     </defs>
     <g transform="translate(1018.8 108.51075)scale(0.144 -0.144)">
      <use transform="translate(0.0 0.484375)" xlink:href="#Cmmi10-53"/>
      <use transform="translate(61.279296875 -16.521875)scale(0.7)" xlink:href="#Cmmi10-77"/>
      <use transform="translate(135.254296875 0.484375)" xlink:href="#Cmr10-3d"/>
      <use transform="translate(230.4984375 0.484375)" xlink:href="#Cmr10-35"/>
     </g>
    </g>
    <g id="line2d_35">
     <path d="M 982.8 124.60725 
L 1002.96 124.60725 
" style="fill:none;stroke:#00bfbf;stroke-linecap:square;"/>
    </g>
    <g id="line2d_36"/>
    <g id="text_19">
     <!-- $S_w=7$ -->
     <defs>
      <path d="M 17.390625 2.59375 
Q 17.390625 8.15625 18.359375 13.46875 
Q 19.34375 18.796875 21.21875 24 
Q 23.09375 29.203125 25.75 34.203125 
Q 28.421875 39.203125 31.59375 43.609375 
L 40.71875 56.296875 
L 29.296875 56.296875 
Q 11.53125 56.296875 10.984375 55.8125 
Q 9.671875 54.203125 8.5 46.578125 
L 5.609375 46.578125 
L 8.890625 67.578125 
L 11.8125 67.578125 
L 11.8125 67.28125 
Q 11.8125 65.484375 17.921875 64.9375 
Q 24.03125 64.40625 29.890625 64.40625 
L 48.484375 64.40625 
L 48.484375 61.8125 
Q 48.484375 61.71875 48.453125 61.671875 
Q 48.4375 61.625 48.390625 61.53125 
L 34.625 42.1875 
Q 29.546875 34.671875 28.265625 25.484375 
Q 27 16.3125 27 2.59375 
Q 27 0.640625 25.578125 -0.78125 
Q 24.171875 -2.203125 22.21875 -2.203125 
Q 20.21875 -2.203125 18.796875 -0.78125 
Q 17.390625 0.640625 17.390625 2.59375 
" id="Cmr10-37"/>
     </defs>
     <g transform="translate(1018.8 129.64725)scale(0.144 -0.144)">
      <use transform="translate(0.0 0.484375)" xlink:href="#Cmmi10-53"/>
      <use transform="translate(61.279296875 -16.521875)scale(0.7)" xlink:href="#Cmmi10-77"/>
      <use transform="translate(135.254296875 0.484375)" xlink:href="#Cmr10-3d"/>
      <use transform="translate(230.4984375 0.484375)" xlink:href="#Cmr10-37"/>
     </g>
    </g>
   </g>
  </g>
 </g>
 <defs>
  <clipPath id="p3ca5123c03">
   <rect height="403.2" width="803.52" x="162.0" y="50.4"/>
  </clipPath>
 </defs>
</svg>
